<?xml version="1.0" encoding="utf-8" standalone="no"?>
<!DOCTYPE svg PUBLIC "-//W3C//DTD SVG 1.1//EN"
  "http://www.w3.org/Graphics/SVG/1.1/DTD/svg11.dtd">
<svg xmlns:xlink="http://www.w3.org/1999/xlink" width="1182.890625pt" height="408.9575pt" viewBox="0 0 1182.890625 408.9575" xmlns="http://www.w3.org/2000/svg" version="1.1">
 <metadata>
  <rdf:RDF xmlns:dc="http://purl.org/dc/elements/1.1/" xmlns:cc="http://creativecommons.org/ns#" xmlns:rdf="http://www.w3.org/1999/02/22-rdf-syntax-ns#">
   <cc:Work>
    <dc:type rdf:resource="http://purl.org/dc/dcmitype/StillImage"/>
    <dc:date>2024-06-12T20:36:04.695955</dc:date>
    <dc:format>image/svg+xml</dc:format>
    <dc:creator>
     <cc:Agent>
      <dc:title>Matplotlib v3.8.4, https://matplotlib.org/</dc:title>
     </cc:Agent>
    </dc:creator>
   </cc:Work>
  </rdf:RDF>
 </metadata>
 <defs>
  <style type="text/css">*{stroke-linejoin: round; stroke-linecap: butt}</style>
 </defs>
 <g id="figure_1">
  <g id="patch_1">
   <path d="M 0 408.9575 
L 1182.890625 408.9575 
L 1182.890625 0 
L 0 0 
z
" style="fill: #ffffff"/>
  </g>
  <g id="axes_1">
   <g id="patch_2">
    <path d="M 59.690625 356.477812 
L 1175.690625 356.477812 
L 1175.690625 23.837812 
L 59.690625 23.837812 
z
" style="fill: #ffffff"/>
   </g>
   <g id="matplotlib.axis_1">
    <g id="xtick_1">
     <g id="line2d_1">
      <defs>
       <path id="me9158b5c5d" d="M 0 0 
L 0 3.5 
" style="stroke: #000000; stroke-width: 0.8"/>
      </defs>
      <g>
       <use xlink:href="#me9158b5c5d" x="187.216159" y="356.477812" style="stroke: #000000; stroke-width: 0.8"/>
      </g>
     </g>
     <g id="text_1">
      <!-- 2020 -->
      <g transform="translate(174.491159 371.07625) scale(0.1 -0.1)">
       <defs>
        <path id="DejaVuSans-32" d="M 1228 531 
L 3431 531 
L 3431 0 
L 469 0 
L 469 531 
Q 828 903 1448 1529 
Q 2069 2156 2228 2338 
Q 2531 2678 2651 2914 
Q 2772 3150 2772 3378 
Q 2772 3750 2511 3984 
Q 2250 4219 1831 4219 
Q 1534 4219 1204 4116 
Q 875 4013 500 3803 
L 500 4441 
Q 881 4594 1212 4672 
Q 1544 4750 1819 4750 
Q 2544 4750 2975 4387 
Q 3406 4025 3406 3419 
Q 3406 3131 3298 2873 
Q 3191 2616 2906 2266 
Q 2828 2175 2409 1742 
Q 1991 1309 1228 531 
z
" transform="scale(0.015625)"/>
        <path id="DejaVuSans-30" d="M 2034 4250 
Q 1547 4250 1301 3770 
Q 1056 3291 1056 2328 
Q 1056 1369 1301 889 
Q 1547 409 2034 409 
Q 2525 409 2770 889 
Q 3016 1369 3016 2328 
Q 3016 3291 2770 3770 
Q 2525 4250 2034 4250 
z
M 2034 4750 
Q 2819 4750 3233 4129 
Q 3647 3509 3647 2328 
Q 3647 1150 3233 529 
Q 2819 -91 2034 -91 
Q 1250 -91 836 529 
Q 422 1150 422 2328 
Q 422 3509 836 4129 
Q 1250 4750 2034 4750 
z
" transform="scale(0.015625)"/>
       </defs>
       <use xlink:href="#DejaVuSans-32"/>
       <use xlink:href="#DejaVuSans-30" x="63.623047"/>
       <use xlink:href="#DejaVuSans-32" x="127.246094"/>
       <use xlink:href="#DejaVuSans-30" x="190.869141"/>
      </g>
     </g>
    </g>
    <g id="xtick_2">
     <g id="line2d_2">
      <g>
       <use xlink:href="#me9158b5c5d" x="398.555736" y="356.477812" style="stroke: #000000; stroke-width: 0.8"/>
      </g>
     </g>
     <g id="text_2">
      <!-- 2021 -->
      <g transform="translate(385.830736 371.07625) scale(0.1 -0.1)">
       <defs>
        <path id="DejaVuSans-31" d="M 794 531 
L 1825 531 
L 1825 4091 
L 703 3866 
L 703 4441 
L 1819 4666 
L 2450 4666 
L 2450 531 
L 3481 531 
L 3481 0 
L 794 0 
L 794 531 
z
" transform="scale(0.015625)"/>
       </defs>
       <use xlink:href="#DejaVuSans-32"/>
       <use xlink:href="#DejaVuSans-30" x="63.623047"/>
       <use xlink:href="#DejaVuSans-32" x="127.246094"/>
       <use xlink:href="#DejaVuSans-31" x="190.869141"/>
      </g>
     </g>
    </g>
    <g id="xtick_3">
     <g id="line2d_3">
      <g>
       <use xlink:href="#me9158b5c5d" x="609.317882" y="356.477812" style="stroke: #000000; stroke-width: 0.8"/>
      </g>
     </g>
     <g id="text_3">
      <!-- 2022 -->
      <g transform="translate(596.592882 371.07625) scale(0.1 -0.1)">
       <use xlink:href="#DejaVuSans-32"/>
       <use xlink:href="#DejaVuSans-30" x="63.623047"/>
       <use xlink:href="#DejaVuSans-32" x="127.246094"/>
       <use xlink:href="#DejaVuSans-32" x="190.869141"/>
      </g>
     </g>
    </g>
    <g id="xtick_4">
     <g id="line2d_4">
      <g>
       <use xlink:href="#me9158b5c5d" x="820.080028" y="356.477812" style="stroke: #000000; stroke-width: 0.8"/>
      </g>
     </g>
     <g id="text_4">
      <!-- 2023 -->
      <g transform="translate(807.355028 371.07625) scale(0.1 -0.1)">
       <defs>
        <path id="DejaVuSans-33" d="M 2597 2516 
Q 3050 2419 3304 2112 
Q 3559 1806 3559 1356 
Q 3559 666 3084 287 
Q 2609 -91 1734 -91 
Q 1441 -91 1130 -33 
Q 819 25 488 141 
L 488 750 
Q 750 597 1062 519 
Q 1375 441 1716 441 
Q 2309 441 2620 675 
Q 2931 909 2931 1356 
Q 2931 1769 2642 2001 
Q 2353 2234 1838 2234 
L 1294 2234 
L 1294 2753 
L 1863 2753 
Q 2328 2753 2575 2939 
Q 2822 3125 2822 3475 
Q 2822 3834 2567 4026 
Q 2313 4219 1838 4219 
Q 1578 4219 1281 4162 
Q 984 4106 628 3988 
L 628 4550 
Q 988 4650 1302 4700 
Q 1616 4750 1894 4750 
Q 2613 4750 3031 4423 
Q 3450 4097 3450 3541 
Q 3450 3153 3228 2886 
Q 3006 2619 2597 2516 
z
" transform="scale(0.015625)"/>
       </defs>
       <use xlink:href="#DejaVuSans-32"/>
       <use xlink:href="#DejaVuSans-30" x="63.623047"/>
       <use xlink:href="#DejaVuSans-32" x="127.246094"/>
       <use xlink:href="#DejaVuSans-33" x="190.869141"/>
      </g>
     </g>
    </g>
    <g id="xtick_5">
     <g id="line2d_5">
      <g>
       <use xlink:href="#me9158b5c5d" x="1030.842175" y="356.477812" style="stroke: #000000; stroke-width: 0.8"/>
      </g>
     </g>
     <g id="text_5">
      <!-- 2024 -->
      <g transform="translate(1018.117175 371.07625) scale(0.1 -0.1)">
       <defs>
        <path id="DejaVuSans-34" d="M 2419 4116 
L 825 1625 
L 2419 1625 
L 2419 4116 
z
M 2253 4666 
L 3047 4666 
L 3047 1625 
L 3713 1625 
L 3713 1100 
L 3047 1100 
L 3047 0 
L 2419 0 
L 2419 1100 
L 313 1100 
L 313 1709 
L 2253 4666 
z
" transform="scale(0.015625)"/>
       </defs>
       <use xlink:href="#DejaVuSans-32"/>
       <use xlink:href="#DejaVuSans-30" x="63.623047"/>
       <use xlink:href="#DejaVuSans-32" x="127.246094"/>
       <use xlink:href="#DejaVuSans-34" x="190.869141"/>
      </g>
     </g>
    </g>
    <g id="text_6">
     <!-- Date -->
     <g transform="translate(605.739844 384.754375) scale(0.1 -0.1)">
      <defs>
       <path id="DejaVuSans-44" d="M 1259 4147 
L 1259 519 
L 2022 519 
Q 2988 519 3436 956 
Q 3884 1394 3884 2338 
Q 3884 3275 3436 3711 
Q 2988 4147 2022 4147 
L 1259 4147 
z
M 628 4666 
L 1925 4666 
Q 3281 4666 3915 4102 
Q 4550 3538 4550 2338 
Q 4550 1131 3912 565 
Q 3275 0 1925 0 
L 628 0 
L 628 4666 
z
" transform="scale(0.015625)"/>
       <path id="DejaVuSans-61" d="M 2194 1759 
Q 1497 1759 1228 1600 
Q 959 1441 959 1056 
Q 959 750 1161 570 
Q 1363 391 1709 391 
Q 2188 391 2477 730 
Q 2766 1069 2766 1631 
L 2766 1759 
L 2194 1759 
z
M 3341 1997 
L 3341 0 
L 2766 0 
L 2766 531 
Q 2569 213 2275 61 
Q 1981 -91 1556 -91 
Q 1019 -91 701 211 
Q 384 513 384 1019 
Q 384 1609 779 1909 
Q 1175 2209 1959 2209 
L 2766 2209 
L 2766 2266 
Q 2766 2663 2505 2880 
Q 2244 3097 1772 3097 
Q 1472 3097 1187 3025 
Q 903 2953 641 2809 
L 641 3341 
Q 956 3463 1253 3523 
Q 1550 3584 1831 3584 
Q 2591 3584 2966 3190 
Q 3341 2797 3341 1997 
z
" transform="scale(0.015625)"/>
       <path id="DejaVuSans-74" d="M 1172 4494 
L 1172 3500 
L 2356 3500 
L 2356 3053 
L 1172 3053 
L 1172 1153 
Q 1172 725 1289 603 
Q 1406 481 1766 481 
L 2356 481 
L 2356 0 
L 1766 0 
Q 1100 0 847 248 
Q 594 497 594 1153 
L 594 3053 
L 172 3053 
L 172 3500 
L 594 3500 
L 594 4494 
L 1172 4494 
z
" transform="scale(0.015625)"/>
       <path id="DejaVuSans-65" d="M 3597 1894 
L 3597 1613 
L 953 1613 
Q 991 1019 1311 708 
Q 1631 397 2203 397 
Q 2534 397 2845 478 
Q 3156 559 3463 722 
L 3463 178 
Q 3153 47 2828 -22 
Q 2503 -91 2169 -91 
Q 1331 -91 842 396 
Q 353 884 353 1716 
Q 353 2575 817 3079 
Q 1281 3584 2069 3584 
Q 2775 3584 3186 3129 
Q 3597 2675 3597 1894 
z
M 3022 2063 
Q 3016 2534 2758 2815 
Q 2500 3097 2075 3097 
Q 1594 3097 1305 2825 
Q 1016 2553 972 2059 
L 3022 2063 
z
" transform="scale(0.015625)"/>
      </defs>
      <use xlink:href="#DejaVuSans-44"/>
      <use xlink:href="#DejaVuSans-61" x="77.001953"/>
      <use xlink:href="#DejaVuSans-74" x="138.28125"/>
      <use xlink:href="#DejaVuSans-65" x="177.490234"/>
     </g>
    </g>
   </g>
   <g id="matplotlib.axis_2">
    <g id="ytick_1">
     <g id="line2d_6">
      <defs>
       <path id="md10d7fe3eb" d="M 0 0 
L -3.5 0 
" style="stroke: #000000; stroke-width: 0.8"/>
      </defs>
      <g>
       <use xlink:href="#md10d7fe3eb" x="59.690625" y="341.357812" style="stroke: #000000; stroke-width: 0.8"/>
      </g>
     </g>
     <g id="text_7">
      <!-- 0 -->
      <g transform="translate(46.328125 345.157031) scale(0.1 -0.1)">
       <use xlink:href="#DejaVuSans-30"/>
      </g>
     </g>
    </g>
    <g id="ytick_2">
     <g id="line2d_7">
      <g>
       <use xlink:href="#md10d7fe3eb" x="59.690625" y="275.036205" style="stroke: #000000; stroke-width: 0.8"/>
      </g>
     </g>
     <g id="text_8">
      <!-- 5000 -->
      <g transform="translate(27.240625 278.835424) scale(0.1 -0.1)">
       <defs>
        <path id="DejaVuSans-35" d="M 691 4666 
L 3169 4666 
L 3169 4134 
L 1269 4134 
L 1269 2991 
Q 1406 3038 1543 3061 
Q 1681 3084 1819 3084 
Q 2600 3084 3056 2656 
Q 3513 2228 3513 1497 
Q 3513 744 3044 326 
Q 2575 -91 1722 -91 
Q 1428 -91 1123 -41 
Q 819 9 494 109 
L 494 744 
Q 775 591 1075 516 
Q 1375 441 1709 441 
Q 2250 441 2565 725 
Q 2881 1009 2881 1497 
Q 2881 1984 2565 2268 
Q 2250 2553 1709 2553 
Q 1456 2553 1204 2497 
Q 953 2441 691 2322 
L 691 4666 
z
" transform="scale(0.015625)"/>
       </defs>
       <use xlink:href="#DejaVuSans-35"/>
       <use xlink:href="#DejaVuSans-30" x="63.623047"/>
       <use xlink:href="#DejaVuSans-30" x="127.246094"/>
       <use xlink:href="#DejaVuSans-30" x="190.869141"/>
      </g>
     </g>
    </g>
    <g id="ytick_3">
     <g id="line2d_8">
      <g>
       <use xlink:href="#md10d7fe3eb" x="59.690625" y="208.714598" style="stroke: #000000; stroke-width: 0.8"/>
      </g>
     </g>
     <g id="text_9">
      <!-- 10000 -->
      <g transform="translate(20.878125 212.513817) scale(0.1 -0.1)">
       <use xlink:href="#DejaVuSans-31"/>
       <use xlink:href="#DejaVuSans-30" x="63.623047"/>
       <use xlink:href="#DejaVuSans-30" x="127.246094"/>
       <use xlink:href="#DejaVuSans-30" x="190.869141"/>
       <use xlink:href="#DejaVuSans-30" x="254.492188"/>
      </g>
     </g>
    </g>
    <g id="ytick_4">
     <g id="line2d_9">
      <g>
       <use xlink:href="#md10d7fe3eb" x="59.690625" y="142.392991" style="stroke: #000000; stroke-width: 0.8"/>
      </g>
     </g>
     <g id="text_10">
      <!-- 15000 -->
      <g transform="translate(20.878125 146.19221) scale(0.1 -0.1)">
       <use xlink:href="#DejaVuSans-31"/>
       <use xlink:href="#DejaVuSans-35" x="63.623047"/>
       <use xlink:href="#DejaVuSans-30" x="127.246094"/>
       <use xlink:href="#DejaVuSans-30" x="190.869141"/>
       <use xlink:href="#DejaVuSans-30" x="254.492188"/>
      </g>
     </g>
    </g>
    <g id="ytick_5">
     <g id="line2d_10">
      <g>
       <use xlink:href="#md10d7fe3eb" x="59.690625" y="76.071384" style="stroke: #000000; stroke-width: 0.8"/>
      </g>
     </g>
     <g id="text_11">
      <!-- 20000 -->
      <g transform="translate(20.878125 79.870603) scale(0.1 -0.1)">
       <use xlink:href="#DejaVuSans-32"/>
       <use xlink:href="#DejaVuSans-30" x="63.623047"/>
       <use xlink:href="#DejaVuSans-30" x="127.246094"/>
       <use xlink:href="#DejaVuSans-30" x="190.869141"/>
       <use xlink:href="#DejaVuSans-30" x="254.492188"/>
      </g>
     </g>
    </g>
    <g id="text_12">
     <!-- Ticket Redemptions -->
     <g transform="translate(14.798438 239.336719) rotate(-90) scale(0.1 -0.1)">
      <defs>
       <path id="DejaVuSans-54" d="M -19 4666 
L 3928 4666 
L 3928 4134 
L 2272 4134 
L 2272 0 
L 1638 0 
L 1638 4134 
L -19 4134 
L -19 4666 
z
" transform="scale(0.015625)"/>
       <path id="DejaVuSans-69" d="M 603 3500 
L 1178 3500 
L 1178 0 
L 603 0 
L 603 3500 
z
M 603 4863 
L 1178 4863 
L 1178 4134 
L 603 4134 
L 603 4863 
z
" transform="scale(0.015625)"/>
       <path id="DejaVuSans-63" d="M 3122 3366 
L 3122 2828 
Q 2878 2963 2633 3030 
Q 2388 3097 2138 3097 
Q 1578 3097 1268 2742 
Q 959 2388 959 1747 
Q 959 1106 1268 751 
Q 1578 397 2138 397 
Q 2388 397 2633 464 
Q 2878 531 3122 666 
L 3122 134 
Q 2881 22 2623 -34 
Q 2366 -91 2075 -91 
Q 1284 -91 818 406 
Q 353 903 353 1747 
Q 353 2603 823 3093 
Q 1294 3584 2113 3584 
Q 2378 3584 2631 3529 
Q 2884 3475 3122 3366 
z
" transform="scale(0.015625)"/>
       <path id="DejaVuSans-6b" d="M 581 4863 
L 1159 4863 
L 1159 1991 
L 2875 3500 
L 3609 3500 
L 1753 1863 
L 3688 0 
L 2938 0 
L 1159 1709 
L 1159 0 
L 581 0 
L 581 4863 
z
" transform="scale(0.015625)"/>
       <path id="DejaVuSans-20" transform="scale(0.015625)"/>
       <path id="DejaVuSans-52" d="M 2841 2188 
Q 3044 2119 3236 1894 
Q 3428 1669 3622 1275 
L 4263 0 
L 3584 0 
L 2988 1197 
Q 2756 1666 2539 1819 
Q 2322 1972 1947 1972 
L 1259 1972 
L 1259 0 
L 628 0 
L 628 4666 
L 2053 4666 
Q 2853 4666 3247 4331 
Q 3641 3997 3641 3322 
Q 3641 2881 3436 2590 
Q 3231 2300 2841 2188 
z
M 1259 4147 
L 1259 2491 
L 2053 2491 
Q 2509 2491 2742 2702 
Q 2975 2913 2975 3322 
Q 2975 3731 2742 3939 
Q 2509 4147 2053 4147 
L 1259 4147 
z
" transform="scale(0.015625)"/>
       <path id="DejaVuSans-64" d="M 2906 2969 
L 2906 4863 
L 3481 4863 
L 3481 0 
L 2906 0 
L 2906 525 
Q 2725 213 2448 61 
Q 2172 -91 1784 -91 
Q 1150 -91 751 415 
Q 353 922 353 1747 
Q 353 2572 751 3078 
Q 1150 3584 1784 3584 
Q 2172 3584 2448 3432 
Q 2725 3281 2906 2969 
z
M 947 1747 
Q 947 1113 1208 752 
Q 1469 391 1925 391 
Q 2381 391 2643 752 
Q 2906 1113 2906 1747 
Q 2906 2381 2643 2742 
Q 2381 3103 1925 3103 
Q 1469 3103 1208 2742 
Q 947 2381 947 1747 
z
" transform="scale(0.015625)"/>
       <path id="DejaVuSans-6d" d="M 3328 2828 
Q 3544 3216 3844 3400 
Q 4144 3584 4550 3584 
Q 5097 3584 5394 3201 
Q 5691 2819 5691 2113 
L 5691 0 
L 5113 0 
L 5113 2094 
Q 5113 2597 4934 2840 
Q 4756 3084 4391 3084 
Q 3944 3084 3684 2787 
Q 3425 2491 3425 1978 
L 3425 0 
L 2847 0 
L 2847 2094 
Q 2847 2600 2669 2842 
Q 2491 3084 2119 3084 
Q 1678 3084 1418 2786 
Q 1159 2488 1159 1978 
L 1159 0 
L 581 0 
L 581 3500 
L 1159 3500 
L 1159 2956 
Q 1356 3278 1631 3431 
Q 1906 3584 2284 3584 
Q 2666 3584 2933 3390 
Q 3200 3197 3328 2828 
z
" transform="scale(0.015625)"/>
       <path id="DejaVuSans-70" d="M 1159 525 
L 1159 -1331 
L 581 -1331 
L 581 3500 
L 1159 3500 
L 1159 2969 
Q 1341 3281 1617 3432 
Q 1894 3584 2278 3584 
Q 2916 3584 3314 3078 
Q 3713 2572 3713 1747 
Q 3713 922 3314 415 
Q 2916 -91 2278 -91 
Q 1894 -91 1617 61 
Q 1341 213 1159 525 
z
M 3116 1747 
Q 3116 2381 2855 2742 
Q 2594 3103 2138 3103 
Q 1681 3103 1420 2742 
Q 1159 2381 1159 1747 
Q 1159 1113 1420 752 
Q 1681 391 2138 391 
Q 2594 391 2855 752 
Q 3116 1113 3116 1747 
z
" transform="scale(0.015625)"/>
       <path id="DejaVuSans-6f" d="M 1959 3097 
Q 1497 3097 1228 2736 
Q 959 2375 959 1747 
Q 959 1119 1226 758 
Q 1494 397 1959 397 
Q 2419 397 2687 759 
Q 2956 1122 2956 1747 
Q 2956 2369 2687 2733 
Q 2419 3097 1959 3097 
z
M 1959 3584 
Q 2709 3584 3137 3096 
Q 3566 2609 3566 1747 
Q 3566 888 3137 398 
Q 2709 -91 1959 -91 
Q 1206 -91 779 398 
Q 353 888 353 1747 
Q 353 2609 779 3096 
Q 1206 3584 1959 3584 
z
" transform="scale(0.015625)"/>
       <path id="DejaVuSans-6e" d="M 3513 2113 
L 3513 0 
L 2938 0 
L 2938 2094 
Q 2938 2591 2744 2837 
Q 2550 3084 2163 3084 
Q 1697 3084 1428 2787 
Q 1159 2491 1159 1978 
L 1159 0 
L 581 0 
L 581 3500 
L 1159 3500 
L 1159 2956 
Q 1366 3272 1645 3428 
Q 1925 3584 2291 3584 
Q 2894 3584 3203 3211 
Q 3513 2838 3513 2113 
z
" transform="scale(0.015625)"/>
       <path id="DejaVuSans-73" d="M 2834 3397 
L 2834 2853 
Q 2591 2978 2328 3040 
Q 2066 3103 1784 3103 
Q 1356 3103 1142 2972 
Q 928 2841 928 2578 
Q 928 2378 1081 2264 
Q 1234 2150 1697 2047 
L 1894 2003 
Q 2506 1872 2764 1633 
Q 3022 1394 3022 966 
Q 3022 478 2636 193 
Q 2250 -91 1575 -91 
Q 1294 -91 989 -36 
Q 684 19 347 128 
L 347 722 
Q 666 556 975 473 
Q 1284 391 1588 391 
Q 1994 391 2212 530 
Q 2431 669 2431 922 
Q 2431 1156 2273 1281 
Q 2116 1406 1581 1522 
L 1381 1569 
Q 847 1681 609 1914 
Q 372 2147 372 2553 
Q 372 3047 722 3315 
Q 1072 3584 1716 3584 
Q 2034 3584 2315 3537 
Q 2597 3491 2834 3397 
z
" transform="scale(0.015625)"/>
      </defs>
      <use xlink:href="#DejaVuSans-54"/>
      <use xlink:href="#DejaVuSans-69" x="57.958984"/>
      <use xlink:href="#DejaVuSans-63" x="85.742188"/>
      <use xlink:href="#DejaVuSans-6b" x="140.722656"/>
      <use xlink:href="#DejaVuSans-65" x="195.007812"/>
      <use xlink:href="#DejaVuSans-74" x="256.53125"/>
      <use xlink:href="#DejaVuSans-20" x="295.740234"/>
      <use xlink:href="#DejaVuSans-52" x="327.527344"/>
      <use xlink:href="#DejaVuSans-65" x="392.509766"/>
      <use xlink:href="#DejaVuSans-64" x="454.033203"/>
      <use xlink:href="#DejaVuSans-65" x="517.509766"/>
      <use xlink:href="#DejaVuSans-6d" x="579.033203"/>
      <use xlink:href="#DejaVuSans-70" x="676.445312"/>
      <use xlink:href="#DejaVuSans-74" x="739.921875"/>
      <use xlink:href="#DejaVuSans-69" x="779.130859"/>
      <use xlink:href="#DejaVuSans-6f" x="806.914062"/>
      <use xlink:href="#DejaVuSans-6e" x="868.095703"/>
      <use xlink:href="#DejaVuSans-73" x="931.474609"/>
     </g>
    </g>
   </g>
   <g id="line2d_11">
    <path d="M 110.417898 249.475858 
L 110.995328 191.616888 
L 111.572759 203.713949 
L 112.150189 112.495211 
L 112.72762 113.158427 
L 113.882481 318.198307 
L 114.459911 189.255839 
L 115.037342 206.976972 
L 115.614773 198.355163 
L 116.192203 98.474823 
L 116.769634 225.918423 
L 117.347064 173.086631 
L 117.924495 302.572937 
L 118.501925 309.656084 
L 119.079356 296.829485 
L 119.656786 310.239714 
L 120.234217 239.673524 
L 120.811647 230.932337 
L 121.389078 304.655435 
L 121.966508 307.295035 
L 122.543939 285.859892 
L 123.12137 310.584587 
L 123.6988 312.216098 
L 124.276231 225.679665 
L 124.853661 312.852786 
L 125.431092 312.415063 
L 126.008522 295.503053 
L 126.585953 296.657049 
L 127.163383 293.592991 
L 127.740814 284.307966 
L 128.318244 177.68935 
L 128.895675 211.141969 
L 129.473105 310.863138 
L 130.050536 303.076981 
L 130.627967 303.395325 
L 131.205397 310.929459 
L 131.782828 294.030714 
L 132.360258 307.454207 
L 132.937689 270.062085 
L 133.515119 315.691351 
L 134.09255 305.756374 
L 134.66998 328.39857 
L 135.247411 322.999992 
L 135.824841 305.34518 
L 136.402272 301.259769 
L 136.979702 316.407624 
L 137.557133 316.208659 
L 138.134564 310.438679 
L 138.711994 309.351005 
L 139.289425 311.141688 
L 139.866855 302.665787 
L 140.444286 306.432854 
L 141.021716 278.418607 
L 141.599147 296.909071 
L 142.176577 311.592675 
L 142.754008 329.645417 
L 143.331438 324.711089 
L 144.486299 302.002571 
L 145.06373 296.9356 
L 145.641161 319.445153 
L 146.218591 329.817853 
L 146.796022 319.71044 
L 147.373452 318.72888 
L 147.950883 322.164339 
L 148.528313 313.383359 
L 149.105744 333.00129 
L 149.683174 318.065664 
L 150.260605 323.596886 
L 150.838035 331.754444 
L 151.415466 330.693298 
L 151.992896 327.164989 
L 152.570327 331.157549 
L 153.147758 324.551917 
L 153.725188 328.517949 
L 154.302619 326.806852 
L 155.45748 330.507598 
L 156.03491 326.1569 
L 156.612341 330.096404 
L 157.189771 329.804589 
L 157.767202 333.478806 
L 158.344632 331.184078 
L 158.922063 331.369778 
L 159.499493 330.401483 
L 160.076924 330.626976 
L 160.654354 334.367515 
L 161.231785 331.940144 
L 161.809216 332.006466 
L 162.386646 330.706562 
L 162.964077 330.547391 
L 163.541507 331.011642 
L 164.118938 331.820765 
L 164.696368 329.075051 
L 165.273799 332.046259 
L 165.851229 333.823678 
L 166.42866 327.496597 
L 167.00609 331.144285 
L 167.583521 328.279192 
L 168.160951 329.008729 
L 168.738382 332.338074 
L 169.315813 338.917177 
L 169.893243 333.041083 
L 170.470674 328.6108 
L 171.048104 331.688122 
L 171.625535 330.918792 
L 172.202965 333.545127 
L 172.780396 332.550303 
L 173.357826 333.67777 
L 173.935257 332.404396 
L 174.512687 331.993202 
L 175.090118 329.764796 
L 175.667548 330.003553 
L 176.244979 329.035258 
L 176.82241 337.418309 
L 177.39984 334.65933 
L 177.977271 330.587183 
L 178.554701 330.772884 
L 179.132132 331.303457 
L 179.709562 331.290193 
L 180.286993 329.38013 
L 180.864423 331.184078 
L 181.441854 331.515686 
L 182.019284 329.831117 
L 182.596715 333.730828 
L 183.174145 333.823678 
L 183.751576 334.937881 
L 184.329007 328.995465 
L 184.906437 324.339688 
L 185.483868 337.046908 
L 186.061298 332.11258 
L 186.638729 334.380779 
L 187.216159 332.842118 
L 187.79359 330.45454 
L 188.37102 331.993202 
L 188.948451 333.876735 
L 189.525881 334.420572 
L 190.103312 331.555479 
L 190.680742 331.674858 
L 191.258173 332.364603 
L 191.835604 331.555479 
L 192.413034 331.290193 
L 192.990465 337.564217 
L 193.567895 335.853119 
L 194.145326 331.489157 
L 194.722756 332.046259 
L 195.300187 331.369778 
L 195.877617 331.489157 
L 196.455048 334.685859 
L 197.032478 337.139758 
L 197.609909 336.383692 
L 198.187339 334.778709 
L 198.76477 331.979937 
L 199.342201 331.064699 
L 199.919631 331.064699 
L 200.497062 331.422836 
L 201.074492 336.503071 
L 201.651923 335.561304 
L 202.229353 331.674858 
L 202.806784 331.184078 
L 203.384214 330.136197 
L 203.961645 331.104492 
L 204.539075 330.680034 
L 205.693936 336.144934 
L 206.271367 329.698474 
L 206.848798 330.786148 
L 207.426228 330.401483 
L 208.003659 335.402132 
L 208.581089 335.587833 
L 209.15852 334.738916 
L 209.73595 336.13167 
L 210.313381 330.680034 
L 210.890811 334.685859 
L 211.468242 334.274665 
L 212.045672 331.940144 
L 212.623103 335.415396 
L 213.200533 335.017467 
L 213.777964 332.377867 
L 214.355394 330.282104 
L 214.932825 331.383043 
L 215.510256 330.441276 
L 216.087686 332.563567 
L 216.665117 332.736004 
L 217.242547 330.746355 
L 217.819978 327.178253 
L 218.974839 331.184078 
L 220.1297 332.470717 
L 220.70713 331.542215 
L 221.284561 334.115493 
L 221.861991 334.16855 
L 222.439422 332.338074 
L 223.016853 331.807501 
L 223.594283 329.035258 
L 224.171714 328.902615 
L 224.749144 331.727915 
L 225.326575 330.016818 
L 225.904005 320.811379 
L 227.058866 331.648329 
L 228.213727 330.600448 
L 228.791158 331.701386 
L 229.368588 334.314458 
L 229.946019 331.993202 
L 230.52345 337.365252 
L 231.678311 338.293754 
L 232.255741 338.413133 
L 232.833172 338.784534 
L 233.410602 338.704948 
L 233.988033 340.057909 
L 235.142894 338.612098 
L 235.720324 339.275314 
L 236.875185 339.129406 
L 238.030047 340.349724 
L 238.607477 339.925266 
L 239.184908 339.341636 
L 239.762338 339.368164 
L 240.339769 339.248785 
L 240.917199 339.381429 
L 241.49463 339.805887 
L 242.07206 340.416046 
L 242.649491 339.686508 
L 244.381782 339.155935 
L 244.959213 340.734389 
L 245.536644 339.421222 
L 246.114074 340.933354 
L 246.691505 340.535425 
L 247.268935 339.461015 
L 248.423796 339.049821 
L 249.578657 339.553865 
L 250.156088 340.508896 
L 250.733518 339.288578 
L 251.310949 339.593658 
L 251.888379 338.824327 
L 253.043241 339.235521 
L 253.620671 339.580393 
L 254.198102 340.641539 
L 254.775532 339.328371 
L 255.352963 339.155935 
L 256.507824 339.3549 
L 257.085254 338.704948 
L 257.662685 339.407957 
L 258.240115 339.620186 
L 258.817546 339.527336 
L 259.394976 338.638627 
L 260.549838 339.049821 
L 261.127268 338.293754 
L 261.704699 339.75283 
L 262.282129 339.832416 
L 262.85956 339.487543 
L 264.014421 338.227433 
L 264.591851 338.903913 
L 265.169282 339.102878 
L 265.746712 338.28049 
L 266.324143 340.071173 
L 266.901573 340.455839 
L 267.479004 338.638627 
L 268.056434 337.975411 
L 268.633865 337.710124 
L 269.211296 337.895825 
L 270.366157 339.965059 
L 270.943587 338.519248 
L 271.521018 338.360076 
L 272.098448 338.704948 
L 272.675879 338.108054 
L 273.253309 338.598834 
L 273.83074 338.532512 
L 274.40817 339.235521 
L 274.985601 338.413133 
L 276.140462 338.18764 
L 276.717893 337.272401 
L 277.295323 337.710124 
L 277.872754 338.333547 
L 278.450184 338.718213 
L 279.027615 338.37334 
L 279.605045 337.69686 
L 280.182476 338.227433 
L 280.759906 337.550952 
L 281.337337 337.20608 
L 282.492198 338.585569 
L 283.069628 337.802974 
L 284.22449 337.126494 
L 285.379351 336.755093 
L 285.956781 336.980586 
L 286.534212 337.78971 
L 287.111642 338.108054 
L 287.689073 337.856032 
L 288.266503 336.781622 
L 288.843934 336.821415 
L 289.421364 335.601097 
L 289.998795 318.105457 
L 290.576225 285.753777 
L 291.153656 314.723055 
L 291.731087 315.850522 
L 292.308517 265.790973 
L 292.885948 305.889017 
L 293.463378 304.880929 
L 294.040809 272.038469 
L 294.618239 287.968919 
L 295.19567 315.4128 
L 295.7731 317.707527 
L 296.350531 317.322862 
L 297.505392 310.146864 
L 298.082822 327.204782 
L 298.660253 290.343232 
L 299.237684 322.681648 
L 299.815114 312.003869 
L 300.392545 308.263331 
L 300.969975 334.16855 
L 301.547406 298.805869 
L 302.124836 272.370077 
L 302.702267 317.123897 
L 303.279697 308.953075 
L 303.857128 312.18957 
L 304.434558 333.09414 
L 305.589419 298.394675 
L 306.16685 262.793237 
L 306.744281 275.102527 
L 307.321711 328.066962 
L 307.899142 307.043013 
L 308.476572 319.484946 
L 309.054003 307.321564 
L 309.631433 292.14718 
L 310.208864 273.218993 
L 310.786294 325.268191 
L 311.363725 313.728231 
L 311.941155 332.90844 
L 312.518586 303.952426 
L 313.096016 301.830135 
L 313.673447 297.82431 
L 314.250877 269.133582 
L 314.828308 274.25361 
L 315.405739 308.47556 
L 315.983169 325.427362 
L 316.5606 297.625345 
L 317.13803 302.586201 
L 317.715461 290.67484 
L 318.292891 271.985411 
L 318.870322 310.014221 
L 319.447752 323.039785 
L 320.025183 305.676788 
L 320.602613 304.284034 
L 321.180044 299.774165 
L 321.757474 305.186008 
L 322.334905 269.080525 
L 322.912336 268.576481 
L 323.489766 309.24489 
L 324.067197 300.318002 
L 325.222058 319.790026 
L 326.376919 290.09121 
L 326.954349 271.269138 
L 327.53178 303.753461 
L 328.10921 306.737934 
L 328.686641 328.279192 
L 329.264071 300.079244 
L 329.841502 297.346794 
L 330.418933 268.629538 
L 330.996363 270.168199 
L 331.573794 311.990605 
L 332.151224 333.624713 
L 332.728655 327.125196 
L 333.306085 328.995465 
L 333.883516 320.081841 
L 334.460946 298.858927 
L 335.038377 318.357479 
L 335.615807 328.982201 
L 336.193238 330.215782 
L 336.770668 316.155602 
L 337.348099 329.526038 
L 337.92553 326.952759 
L 338.50296 312.720143 
L 339.080391 315.585236 
L 339.657821 330.162725 
L 340.235252 329.128108 
L 340.812682 319.378832 
L 341.390113 329.366866 
L 341.967543 319.988991 
L 342.544974 293.062418 
L 343.122404 303.793254 
L 343.699835 327.549654 
L 344.277265 332.736004 
L 344.854696 334.765445 
L 345.432127 331.489157 
L 346.009557 334.208343 
L 346.586988 324.49886 
L 347.164418 336.662243 
L 347.741849 330.985113 
L 348.319279 330.441276 
L 348.89671 334.022643 
L 349.47414 331.913616 
L 350.051571 328.929143 
L 350.629001 319.630854 
L 351.206432 326.873173 
L 351.783862 331.210607 
L 352.361293 329.38013 
L 352.938724 330.109668 
L 353.516154 335.05726 
L 354.093585 331.608536 
L 354.671015 325.029433 
L 355.248446 334.208343 
L 355.825876 334.725652 
L 356.403307 333.39922 
L 356.980737 334.195079 
L 357.558168 334.407308 
L 358.135598 325.533477 
L 358.713029 330.75962 
L 359.290459 334.248136 
L 359.86789 334.221608 
L 360.445321 334.606273 
L 361.022751 331.356514 
L 361.600182 334.301193 
L 362.177612 333.041083 
L 362.755043 331.4361 
L 363.332473 338.744741 
L 363.909904 335.05726 
L 364.487334 334.500158 
L 365.064765 330.75962 
L 365.642195 332.537039 
L 366.797056 323.212221 
L 367.951917 326.515037 
L 368.529348 323.106106 
L 369.106779 328.690386 
L 369.684209 332.152373 
L 370.26164 332.802325 
L 370.83907 331.913616 
L 371.416501 339.965059 
L 371.993931 335.362339 
L 372.571362 334.526687 
L 373.726223 333.810414 
L 374.303653 332.444188 
L 374.881084 335.654154 
L 375.458514 339.726301 
L 376.035945 335.229696 
L 376.613376 334.831766 
L 377.190806 335.070524 
L 377.768237 334.367515 
L 378.345667 334.181815 
L 378.923098 335.667419 
L 379.500528 335.455189 
L 380.077959 335.813326 
L 380.655389 337.962146 
L 381.23282 334.977674 
L 381.81025 334.301193 
L 382.387681 335.070524 
L 383.542542 338.333547 
L 384.119973 334.818502 
L 384.697403 334.632802 
L 385.274834 335.083788 
L 385.852264 334.128757 
L 386.429695 333.545127 
L 387.007125 339.010028 
L 387.584556 338.108054 
L 388.161986 334.990938 
L 388.739417 334.248136 
L 389.316847 335.282753 
L 390.471708 333.704299 
L 391.049139 337.710124 
L 391.62657 338.890649 
L 392.204 337.351987 
L 392.781431 336.794886 
L 393.358861 335.508247 
L 393.936292 338.174375 
L 394.513722 339.527336 
L 395.091153 338.333547 
L 395.668583 337.444838 
L 396.246014 338.86412 
L 396.823444 336.582657 
L 397.400875 338.333547 
L 397.978305 336.343899 
L 398.555736 338.625362 
L 399.133167 336.755093 
L 399.710597 339.235521 
L 400.288028 338.37334 
L 400.865458 338.161111 
L 402.020319 337.444838 
L 402.59775 337.564217 
L 403.17518 334.65933 
L 403.752611 337.471366 
L 404.330041 338.015203 
L 404.907472 338.001939 
L 405.484902 337.564217 
L 406.062333 338.37334 
L 406.639764 338.651891 
L 407.217194 337.259137 
L 407.794625 339.195728 
L 408.372055 338.67842 
L 408.949486 338.426397 
L 409.526916 338.346812 
L 410.104347 338.054996 
L 410.681777 338.161111 
L 411.259208 337.139758 
L 411.836638 338.638627 
L 412.414069 338.147847 
L 412.991499 339.023292 
L 413.56893 338.028468 
L 414.14636 338.293754 
L 414.723791 337.975411 
L 415.301222 334.433837 
L 415.878652 338.081525 
L 416.456083 338.28049 
L 417.033513 337.816239 
L 417.610944 336.091877 
L 418.188374 337.338723 
L 418.765805 338.121318 
L 419.343235 335.110317 
L 419.920666 335.428661 
L 420.498096 337.60401 
L 422.230388 336.755093 
L 422.807819 337.099965 
L 423.385249 333.969585 
L 423.96268 329.618888 
L 424.54011 332.338074 
L 425.117541 338.452926 
L 425.694971 334.380779 
L 426.272402 335.959234 
L 426.849832 335.707212 
L 427.427263 336.648978 
L 428.004693 341.357812 
L 428.582124 341.357812 
L 429.159554 340.535425 
L 429.736985 336.755093 
L 430.891846 335.176639 
L 431.469277 332.961497 
L 432.046707 338.386604 
L 432.624138 337.365252 
L 433.201568 336.794886 
L 433.778999 334.765445 
L 434.356429 336.091877 
L 434.93386 336.03882 
L 435.51129 334.75218 
L 436.088721 332.736004 
L 436.666151 336.091877 
L 437.243582 334.274665 
L 437.821013 333.836942 
L 438.398443 335.892912 
L 438.975874 333.664506 
L 439.553304 329.857646 
L 440.130735 336.423485 
L 440.708165 336.556128 
L 441.285596 336.980586 
L 441.863026 335.627626 
L 442.440457 337.060172 
L 443.017887 335.269489 
L 443.595318 317.362655 
L 444.172748 321.978639 
L 444.750179 332.90844 
L 445.32761 334.526687 
L 445.90504 335.747005 
L 446.482471 332.444188 
L 447.059901 336.675507 
L 447.637332 330.706562 
L 448.214762 338.77127 
L 448.792193 335.972498 
L 449.369623 329.512773 
L 449.947054 336.343899 
L 450.524484 336.144934 
L 451.101915 329.923967 
L 451.679345 331.83403 
L 452.256776 319.31251 
L 452.834207 334.181815 
L 453.411637 335.256225 
L 453.989068 333.98285 
L 454.566498 333.319634 
L 455.143929 335.693947 
L 455.721359 318.927845 
L 456.29879 339.421222 
L 456.87622 337.909089 
L 457.453651 335.667419 
L 458.031081 331.714651 
L 458.608512 337.179551 
L 459.185942 335.800062 
L 459.763373 335.932705 
L 460.340804 334.858295 
L 460.918234 336.847943 
L 461.495665 337.378516 
L 462.073095 338.479455 
L 462.650526 337.657067 
L 463.227956 331.131021 
L 463.805387 327.244574 
L 464.382817 334.314458 
L 464.960248 336.383692 
L 465.537678 336.595921 
L 466.115109 337.763181 
L 466.692539 337.537688 
L 467.26997 336.728564 
L 467.8474 329.977025 
L 468.424831 335.54804 
L 469.002262 337.511159 
L 469.579692 337.550952 
L 470.157123 336.211256 
L 470.734553 333.571656 
L 471.311984 336.277577 
L 471.889414 325.75897 
L 472.466845 329.804589 
L 473.044275 335.892912 
L 473.621706 336.078613 
L 474.199136 329.897439 
L 474.776567 327.523125 
L 475.353997 325.75897 
L 475.931428 309.682613 
L 476.508859 306.485911 
L 477.086289 328.902615 
L 477.66372 324.631503 
L 478.24115 324.49886 
L 478.818581 327.32416 
L 479.396011 309.351005 
L 479.973442 309.762199 
L 480.550872 263.562567 
L 481.128303 263.124845 
L 481.705733 321.036872 
L 482.283164 332.563567 
L 482.860594 320.665471 
L 483.438025 337.086701 
L 484.015456 293.831749 
L 484.592886 283.114177 
L 485.170317 317.773849 
L 485.747747 318.874788 
L 486.325178 321.010343 
L 486.902608 333.027819 
L 487.480039 316.699439 
L 488.057469 264.292105 
L 488.6349 256.57227 
L 489.21233 316.274981 
L 489.789761 333.09414 
L 490.944622 312.149777 
L 491.522053 308.873489 
L 492.099483 263.11158 
L 492.676914 273.033293 
L 493.254344 330.162725 
L 493.831775 317.933021 
L 494.409205 314.497562 
L 494.986636 312.560971 
L 495.564066 331.635065 
L 496.141497 252.075665 
L 496.718927 257.567094 
L 497.296358 326.753795 
L 497.873788 322.416361 
L 498.451219 312.28242 
L 499.02865 304.390149 
L 499.60608 318.795202 
L 500.183511 313.75476 
L 500.760941 255.816204 
L 501.338372 310.942723 
L 501.915802 327.708826 
L 502.493233 318.065664 
L 503.070663 263.005466 
L 503.648094 307.865401 
L 504.225524 237.392061 
L 504.802955 244.369094 
L 505.380385 294.322529 
L 505.957816 304.257505 
L 507.112677 331.847294 
L 507.690108 311.154953 
L 508.267538 235.667699 
L 508.844969 302.201536 
L 509.422399 311.446768 
L 509.99983 317.16369 
L 510.57726 287.823011 
L 511.154691 292.969568 
L 512.309552 305.942074 
L 512.886982 239.050101 
L 513.464413 278.551251 
L 514.041844 298.328354 
L 514.619274 256.903878 
L 515.196705 277.29114 
L 515.774135 251.438978 
L 516.351566 276.176937 
L 516.928996 197.691947 
L 518.083857 318.556444 
L 518.661288 244.820081 
L 519.238718 319.71044 
L 519.816149 229.605904 
L 520.393579 208.900299 
L 520.97101 281.641837 
L 521.54844 151.532108 
L 522.125871 258.654768 
L 522.703302 244.820081 
L 523.280732 236.675788 
L 523.858163 247.48621 
L 524.435593 255.98864 
L 525.013024 190.834293 
L 525.590454 260.949496 
L 526.167885 314.550619 
L 527.322746 271.295667 
L 527.900176 284.069208 
L 528.477607 164.70358 
L 529.055037 169.942987 
L 529.632468 243.86505 
L 530.209899 294.87963 
L 530.787329 288.724985 
L 531.36476 268.231608 
L 531.94219 235.707492 
L 532.519621 169.054277 
L 533.674482 255.855997 
L 534.251912 222.443171 
L 534.829343 287.159795 
L 535.406773 274.532161 
L 535.984204 237.856312 
L 536.561634 183.286894 
L 537.139065 257.089578 
L 537.716496 270.221257 
L 538.293926 253.53474 
L 538.871357 257.381394 
L 539.448787 247.207659 
L 540.026218 233.518879 
L 540.603648 147.658927 
L 541.181079 155.445083 
L 541.758509 196.829766 
L 542.33594 275.102527 
L 542.91337 315.10772 
L 543.490801 325.838556 
L 544.068231 305.690052 
L 544.645662 253.83982 
L 545.223093 310.345829 
L 545.800523 319.020695 
L 546.377954 324.856997 
L 546.955384 323.384657 
L 547.532815 314.815905 
L 548.110245 302.984131 
L 548.687676 248.520827 
L 549.265106 260.127108 
L 549.842537 311.261067 
L 550.419967 324.936583 
L 550.997398 334.022643 
L 551.574828 326.979288 
L 552.152259 318.224836 
L 552.72969 315.054663 
L 553.30712 294.043978 
L 553.884551 324.644767 
L 554.461981 319.909405 
L 555.039412 318.397272 
L 556.194273 313.94046 
L 556.771703 272.078262 
L 557.349134 332.192166 
L 557.926564 331.276928 
L 558.503995 326.541565 
L 559.081425 324.697825 
L 559.658856 324.578446 
L 560.236287 324.856997 
L 560.813717 326.939495 
L 561.391148 289.454523 
L 561.968578 278.378814 
L 562.546009 321.540916 
L 563.123439 315.094456 
L 564.2783 329.300544 
L 564.855731 325.851821 
L 565.433161 317.548356 
L 566.010592 326.24975 
L 566.588022 316.885139 
L 567.742883 332.006466 
L 568.897745 318.317686 
L 569.475175 308.223538 
L 570.052606 334.049171 
L 570.630036 332.921704 
L 571.207467 317.65447 
L 571.784897 325.997728 
L 572.362328 329.751531 
L 572.939758 334.911352 
L 573.517189 318.423801 
L 574.094619 326.926231 
L 574.67205 327.907791 
L 575.24948 330.401483 
L 575.826911 330.388219 
L 576.404342 325.08249 
L 576.981772 316.076016 
L 577.559203 312.096719 
L 578.136633 322.058225 
L 578.714064 329.77806 
L 579.291494 326.568094 
L 579.868925 325.307984 
L 580.446355 323.61015 
L 581.023786 323.291807 
L 581.601216 336.821415 
L 582.178647 331.117756 
L 582.756077 330.428012 
L 583.333508 333.147198 
L 583.910939 332.404396 
L 584.488369 330.560655 
L 585.0658 329.831117 
L 585.64323 334.951145 
L 586.220661 332.629889 
L 586.798091 331.754444 
L 587.375522 330.189254 
L 587.952952 332.868647 
L 588.530383 331.117756 
L 589.107813 330.520862 
L 589.685244 338.121318 
L 590.262674 333.439013 
L 590.840105 333.332898 
L 591.417536 332.762532 
L 591.994966 332.842118 
L 592.572397 331.873823 
L 593.149827 331.92688 
L 593.727258 337.577481 
L 594.304688 333.836942 
L 594.882119 332.669682 
L 595.459549 333.757356 
L 596.03698 333.439013 
L 596.61441 332.629889 
L 597.191841 334.977674 
L 597.769271 332.205431 
L 598.346702 331.595272 
L 598.924133 332.086052 
L 599.501563 334.102229 
L 600.078994 332.90844 
L 600.656424 332.338074 
L 601.233855 337.139758 
L 601.811285 334.035907 
L 602.388716 334.924617 
L 602.966146 334.181815 
L 603.543577 335.64089 
L 604.121007 335.24296 
L 604.698438 336.901 
L 605.275868 335.110317 
L 605.853299 331.767708 
L 606.43073 337.617274 
L 607.00816 332.51051 
L 607.585591 333.717563 
L 608.163021 331.714651 
L 608.740452 331.873823 
L 609.317882 334.685859 
L 609.895313 336.781622 
L 610.472743 334.301193 
L 611.050174 335.05726 
L 611.627604 338.37334 
L 612.205035 336.609185 
L 612.782465 336.463278 
L 613.359896 334.155286 
L 613.937327 337.20608 
L 614.514757 338.386604 
L 615.092188 338.081525 
L 615.669618 336.13167 
L 616.247049 336.330635 
L 616.824479 335.985762 
L 617.40191 336.03882 
L 617.97934 327.191517 
L 618.556771 339.646715 
L 619.134201 337.338723 
L 619.711632 334.181815 
L 620.289062 335.136846 
L 620.866493 334.234872 
L 621.443923 330.573919 
L 622.021354 331.873823 
L 622.598785 335.070524 
L 623.176215 333.863471 
L 624.331076 334.447101 
L 624.908507 332.974761 
L 625.485937 326.196693 
L 626.063368 329.207694 
L 626.640798 335.017467 
L 627.218229 332.258488 
L 627.795659 334.858295 
L 628.37309 335.136846 
L 628.95052 333.823678 
L 629.527951 330.613712 
L 630.105382 328.756707 
L 630.682812 332.921704 
L 631.260243 333.850207 
L 631.837673 332.895175 
L 632.415104 336.542864 
L 632.992534 341.357812 
L 633.569965 341.357812 
L 634.147395 340.203817 
L 634.724826 337.325459 
L 635.302256 333.850207 
L 635.879687 332.775797 
L 636.457117 335.468454 
L 637.034548 336.489807 
L 637.611979 335.587833 
L 638.189409 333.107405 
L 638.76684 328.12002 
L 639.34427 334.208343 
L 639.921701 332.311545 
L 640.499131 331.727915 
L 641.076562 333.903264 
L 641.653992 333.00129 
L 642.231423 336.22452 
L 643.386284 332.271752 
L 644.541145 332.165638 
L 645.118576 331.303457 
L 645.696006 332.298281 
L 646.273437 321.779674 
L 646.850867 334.911352 
L 647.428298 331.582008 
L 648.005728 331.157549 
L 648.583159 331.223871 
L 649.160589 334.088964 
L 649.73802 334.765445 
L 650.31545 337.29893 
L 650.892881 332.351338 
L 651.470311 336.635714 
L 652.047742 334.049171 
L 652.625173 320.254277 
L 653.780034 335.123581 
L 654.357464 323.238749 
L 654.934895 328.027169 
L 655.512325 330.428012 
L 656.089756 334.778709 
L 656.667186 330.905527 
L 657.244617 331.648329 
L 657.822047 331.290193 
L 658.399478 337.033644 
L 658.976908 333.691035 
L 659.554339 329.671945 
L 660.13177 334.367515 
L 660.7092 329.884174 
L 661.286631 334.791973 
L 661.864061 320.10837 
L 662.441492 333.558391 
L 663.018922 329.274016 
L 663.596353 330.467805 
L 664.173783 332.338074 
L 664.751214 328.88935 
L 665.328644 329.96376 
L 665.906075 329.738267 
L 666.483505 320.731793 
L 667.060936 328.982201 
L 667.638367 313.927196 
L 668.215797 328.730178 
L 668.793228 325.095754 
L 669.370658 316.434153 
L 669.948089 302.493351 
L 670.525519 301.312826 
L 671.10295 331.011642 
L 671.68038 330.414747 
L 672.257811 318.622766 
L 672.835241 329.406659 
L 673.412672 310.677437 
L 673.990102 328.6108 
L 674.567533 284.002887 
L 675.144963 328.88935 
L 675.722394 323.703001 
L 676.299825 327.350689 
L 677.454686 311.194746 
L 678.032116 286.164971 
L 678.609547 332.60336 
L 679.186977 323.238749 
L 679.764408 328.066962 
L 680.341838 316.97799 
L 680.919269 310.279507 
L 681.496699 317.813642 
L 682.07413 276.21673 
L 682.65156 256.890614 
L 683.228991 313.529266 
L 683.806422 316.235188 
L 685.538713 294.720458 
L 686.116144 203.329284 
L 686.693574 248.189219 
L 687.271005 327.337425 
L 687.848435 314.33839 
L 688.425866 313.688438 
L 689.003296 311.181481 
L 689.580727 298.248768 
L 690.158157 270.221257 
L 690.735588 266.016467 
L 691.313019 182.212484 
L 691.890449 308.157216 
L 692.46788 313.675174 
L 693.04531 313.423152 
L 693.622741 322.575533 
L 694.200171 204.841416 
L 694.777602 200.132582 
L 695.355032 285.316054 
L 695.932463 287.504667 
L 696.509893 324.910054 
L 697.087324 305.995132 
L 697.664754 272.966971 
L 698.242185 165.525968 
L 698.819616 215.824274 
L 699.397046 311.035574 
L 699.974477 325.984464 
L 700.551907 286.47005 
L 701.129338 308.555146 
L 701.706768 259.662857 
L 702.284199 236.768638 
L 702.861629 296.219327 
L 703.43906 271.322195 
L 704.01649 278.697158 
L 704.593921 296.35197 
L 705.171351 299.455821 
L 705.748782 253.640855 
L 706.326213 121.037434 
L 706.903643 86.152268 
L 707.481074 289.812659 
L 708.058504 259.21187 
L 708.635935 281.323494 
L 709.213365 253.123546 
L 709.790796 230.919072 
L 710.368226 100.650171 
L 710.945657 254.569357 
L 711.523087 250.457418 
L 712.100518 251.160427 
L 712.677948 301.007747 
L 713.255379 234.221888 
L 713.83281 145.868243 
L 714.41024 77.437609 
L 714.987671 113.264541 
L 716.142532 309.722406 
L 716.719962 233.174007 
L 717.297393 241.198921 
L 717.874823 243.559971 
L 718.452254 115.081753 
L 719.029684 105.783464 
L 719.607115 224.857277 
L 720.184545 262.819765 
L 720.761976 274.346461 
L 721.339406 215.373288 
L 721.916837 209.006413 
L 722.494268 38.957812 
L 723.071698 108.568971 
L 723.649129 296.948864 
L 724.226559 256.850821 
L 724.80399 244.249715 
L 725.38142 217.256821 
L 725.958851 205.597483 
L 726.536281 94.933249 
L 727.113712 282.543811 
L 727.691142 205.995412 
L 728.268573 216.620134 
L 728.846003 220.984096 
L 729.423434 196.047171 
L 730.000865 196.949145 
L 730.578295 108.370007 
L 731.155726 73.683806 
L 732.310587 215.386552 
L 732.888017 219.92295 
L 733.465448 296.325441 
L 734.620309 96.246417 
L 735.77517 300.543495 
L 736.3526 234.394324 
L 736.930031 203.037469 
L 737.507462 198.40822 
L 738.084892 185.661208 
L 738.662323 67.568954 
L 740.394614 215.665103 
L 740.972045 248.74632 
L 742.126906 193.739179 
L 742.704336 104.045838 
L 743.281767 262.34225 
L 743.859197 311.685525 
L 744.436628 231.144566 
L 745.014059 218.875068 
L 745.591489 278.4584 
L 746.16892 253.176604 
L 746.74635 131.317283 
L 747.323781 145.788657 
L 748.478642 310.306036 
L 749.056072 237.498176 
L 749.633503 225.4807 
L 750.210933 193.4341 
L 750.788364 133.585482 
L 751.365794 241.145864 
L 751.943225 228.160093 
L 752.520656 292.982832 
L 753.098086 309.748935 
L 753.675517 294.587815 
L 754.252947 283.976358 
L 754.830378 195.277841 
L 755.407808 240.33674 
L 755.985239 322.999992 
L 756.562669 316.871875 
L 757.1401 295.131652 
L 757.71753 301.219976 
L 758.294961 295.980569 
L 758.872391 204.019028 
L 759.449822 290.887069 
L 760.027253 287.053681 
L 760.604683 292.889982 
L 761.182114 317.521827 
L 761.759544 312.362006 
L 762.336975 305.743109 
L 762.914405 250.430889 
L 763.491836 325.374305 
L 764.069266 324.936583 
L 764.646697 328.013905 
L 766.378988 298.10286 
L 766.956419 286.390464 
L 767.53385 289.0168 
L 768.11128 318.277893 
L 768.688711 316.022959 
L 769.266141 307.560321 
L 769.843572 317.25654 
L 770.421002 322.641855 
L 770.998433 295.410203 
L 772.153294 280.302141 
L 772.730724 304.496263 
L 773.308155 321.315423 
L 773.885585 329.061787 
L 774.463016 314.33839 
L 775.040446 311.433503 
L 775.617877 307.6797 
L 776.195308 327.576183 
L 776.772738 328.88935 
L 777.350169 319.405361 
L 777.927599 327.987376 
L 778.50503 316.818818 
L 779.08246 278.975709 
L 779.659891 282.450961 
L 780.237321 310.425415 
L 780.814752 317.535091 
L 781.392182 328.332249 
L 781.969613 318.463594 
L 782.547043 319.471682 
L 783.124474 299.548671 
L 783.701905 315.691351 
L 784.279335 326.010993 
L 785.434196 322.164339 
L 786.011627 329.220958 
L 786.589057 319.89614 
L 787.166488 295.927512 
L 787.743918 295.927512 
L 788.321349 323.862173 
L 788.898779 325.825292 
L 789.47621 326.223222 
L 790.05364 315.90358 
L 790.631071 332.231959 
L 791.208502 318.569708 
L 791.785932 327.867998 
L 792.363363 328.544478 
L 792.940793 333.704299 
L 793.518224 333.757356 
L 794.095654 331.329985 
L 794.673085 332.974761 
L 795.250515 330.693298 
L 795.827946 334.712387 
L 796.405376 331.303457 
L 796.982807 329.791324 
L 797.560237 327.669033 
L 798.137668 331.064699 
L 798.715099 326.806852 
L 799.292529 315.956637 
L 799.86996 336.834679 
L 800.44739 330.693298 
L 801.024821 331.117756 
L 801.602251 333.545127 
L 802.179682 332.430924 
L 802.757112 332.51051 
L 803.334543 333.133933 
L 803.911973 329.671945 
L 804.489404 334.035907 
L 805.066834 332.298281 
L 805.644265 331.131021 
L 806.221696 328.159813 
L 806.799126 332.178902 
L 807.376557 333.505334 
L 807.953987 336.927529 
L 808.531418 332.842118 
L 809.108848 332.60336 
L 809.686279 334.553216 
L 810.263709 335.82659 
L 810.84114 332.231959 
L 811.41857 332.430924 
L 811.996001 334.394044 
L 812.573431 330.666769 
L 813.150862 331.449364 
L 813.728293 328.597535 
L 814.305723 332.457453 
L 814.883154 340.309931 
L 815.460584 341.357812 
L 816.038015 334.685859 
L 816.615445 334.340986 
L 817.192876 331.170814 
L 817.770306 331.03817 
L 818.347737 323.955023 
L 818.925167 330.17599 
L 819.502598 333.943057 
L 820.080028 331.661594 
L 820.657459 326.037521 
L 821.23489 335.773533 
L 821.81232 335.906176 
L 822.389751 332.90844 
L 822.967181 332.457453 
L 823.544612 328.345513 
L 824.122042 334.195079 
L 824.699473 331.489157 
L 825.276903 332.576832 
L 825.854334 333.359427 
L 826.431764 333.876735 
L 827.009195 336.052084 
L 827.586625 330.149461 
L 828.164056 329.68521 
L 828.741486 331.184078 
L 829.318917 336.80815 
L 829.896348 331.077963 
L 830.473778 334.195079 
L 831.051209 332.364603 
L 831.628639 331.887087 
L 832.20607 336.211256 
L 832.7835 328.730178 
L 833.360931 332.483981 
L 833.938361 332.231959 
L 834.515792 335.349075 
L 835.093222 332.789061 
L 835.670653 331.674858 
L 836.248083 337.007115 
L 836.825514 332.41766 
L 837.402945 334.526687 
L 837.980375 330.36169 
L 838.557806 331.396307 
L 839.135236 334.619537 
L 839.712667 339.885473 
L 840.290097 331.03817 
L 840.867528 331.502422 
L 841.444958 335.296018 
L 842.022389 330.069875 
L 842.599819 334.831766 
L 843.17725 332.377867 
L 843.75468 325.838556 
L 844.332111 323.583622 
L 844.909542 330.003553 
L 845.486972 329.47298 
L 846.064403 332.736004 
L 846.641833 330.374954 
L 847.219264 334.526687 
L 847.796694 329.075051 
L 848.374125 322.111282 
L 848.951555 319.790026 
L 849.528986 330.043346 
L 850.106416 334.022643 
L 850.683847 336.794886 
L 851.261277 330.26884 
L 851.838708 334.301193 
L 852.416139 329.47298 
L 852.993569 334.646066 
L 853.571 330.016818 
L 854.14843 330.680034 
L 854.725861 328.637328 
L 855.303291 333.18699 
L 855.880722 331.847294 
L 856.458152 329.857646 
L 857.035583 331.52895 
L 857.613013 332.789061 
L 858.190444 327.562918 
L 858.767874 331.276928 
L 859.345305 331.887087 
L 859.922736 331.396307 
L 861.077597 333.518599 
L 861.655027 334.142022 
L 862.232458 327.417011 
L 862.809888 329.539302 
L 863.387319 335.043995 
L 863.964749 331.887087 
L 864.54218 332.921704 
L 865.11961 326.329336 
L 865.697041 326.010993 
L 866.274471 330.666769 
L 866.851902 332.01973 
L 867.429333 326.448715 
L 868.006763 337.153023 
L 868.584194 312.454856 
L 869.161624 331.4361 
L 869.739055 330.653505 
L 870.316485 333.240048 
L 870.893916 328.663857 
L 871.471346 335.335811 
L 872.048777 324.392745 
L 872.626207 318.662559 
L 873.203638 324.40601 
L 873.781068 331.860558 
L 874.358499 320.665471 
L 874.935929 321.501123 
L 875.51336 286.324143 
L 876.090791 287.902597 
L 876.668221 278.511458 
L 877.823082 315.877051 
L 878.400513 299.588464 
L 878.977943 291.908422 
L 879.555374 295.967305 
L 880.132804 262.992201 
L 880.710235 275.14232 
L 881.287665 330.520862 
L 881.865096 327.735354 
L 882.442526 323.066313 
L 883.019957 322.575533 
L 883.597388 315.147513 
L 884.174818 325.414098 
L 884.752249 306.830784 
L 885.329679 324.034609 
L 885.90711 318.675823 
L 886.48454 314.497562 
L 887.061971 299.416028 
L 887.639401 322.694912 
L 888.794262 331.860558 
L 889.371693 322.641855 
L 889.949123 326.408922 
L 890.526554 326.64768 
L 891.103985 316.911668 
L 891.681415 297.61208 
L 892.258846 221.567726 
L 892.836276 315.784201 
L 893.413707 303.023924 
L 893.991137 306.379797 
L 894.568568 303.514703 
L 895.145998 298.155918 
L 895.723429 287.84954 
L 896.300859 199.588745 
L 896.87829 237.299211 
L 897.45572 301.777077 
L 898.033151 304.297298 
L 898.610582 317.919757 
L 899.188012 307.905194 
L 899.765443 295.144917 
L 900.342873 270.420221 
L 900.920304 78.379376 
L 901.497734 168.934898 
L 902.075165 280.341934 
L 902.652595 313.104808 
L 903.230026 301.405676 
L 903.807456 287.199588 
L 904.384887 166.494263 
L 904.962317 165.897369 
L 905.539748 277.596219 
L 906.117179 289.348408 
L 906.694609 278.126792 
L 907.27204 281.933652 
L 907.84947 270.911001 
L 908.426901 155.829749 
L 909.004331 194.932968 
L 909.581762 281.960181 
L 910.159192 288.698456 
L 910.736623 282.782569 
L 911.314053 314.497562 
L 911.891484 305.544145 
L 912.468914 160.711019 
L 913.046345 274.028117 
L 913.623776 307.480736 
L 914.201206 294.123564 
L 914.778637 308.236802 
L 915.356067 300.543495 
L 915.933498 284.493667 
L 916.510928 57.116669 
L 917.088359 98.050364 
L 917.665789 255.00708 
L 918.24322 244.621116 
L 918.82065 250.590061 
L 919.398081 261.373954 
L 919.975511 283.193763 
L 920.552942 267.555128 
L 921.130373 159.02645 
L 921.707803 295.330617 
L 922.285234 315.001606 
L 922.862664 262.965673 
L 923.440095 230.97213 
L 924.017525 246.451593 
L 924.594956 94.177183 
L 925.172386 237.140039 
L 925.749817 168.072717 
L 926.327247 211.937828 
L 926.904678 149.104738 
L 927.482108 268.457102 
L 928.636969 118.915142 
L 929.2144 179.931021 
L 930.369261 251.492035 
L 930.946692 217.707808 
L 931.524122 268.868296 
L 932.101553 182.716528 
L 932.678983 155.285911 
L 933.256414 115.758234 
L 933.833844 236.211537 
L 934.411275 230.680314 
L 934.988705 191.86891 
L 935.566136 246.862787 
L 936.143566 216.169147 
L 936.720997 64.650803 
L 937.298428 136.384253 
L 937.875858 261.771884 
L 938.453289 239.514353 
L 939.030719 203.050733 
L 939.60815 228.849838 
L 940.18558 209.842066 
L 940.763011 244.93946 
L 941.340441 89.879542 
L 941.917872 224.207326 
L 942.495302 207.149408 
L 943.072733 213.834626 
L 943.650163 228.531494 
L 944.227594 194.787061 
L 944.805025 96.326003 
L 945.382455 64.067173 
L 945.959886 273.099614 
L 946.537316 254.662208 
L 947.114747 170.699053 
L 947.692177 266.852119 
L 948.269608 169.545057 
L 948.847038 217.973095 
L 949.424469 104.470296 
L 950.001899 213.808098 
L 950.57933 198.262313 
L 951.15676 175.275244 
L 952.311622 238.439943 
L 952.889052 62.793798 
L 953.466483 110.134161 
L 954.043913 225.520493 
L 954.621344 216.646662 
L 955.198774 288.8311 
L 955.776205 246.557707 
L 956.353635 225.308264 
L 956.931066 187.345776 
L 957.508496 123.54439 
L 958.085927 210.797097 
L 958.663357 214.975358 
L 959.240788 245.589412 
L 959.818219 212.866331 
L 960.395649 195.662506 
L 960.97308 130.813238 
L 961.55051 83.061681 
L 962.127941 141.172673 
L 962.705371 282.119353 
L 963.282802 286.841451 
L 963.860232 308.117423 
L 964.437663 295.808133 
L 965.015093 216.368112 
L 965.592524 216.39464 
L 966.169954 292.836925 
L 966.747385 318.768673 
L 967.324816 309.908106 
L 968.479677 280.182762 
L 969.057107 190.250663 
L 970.211968 303.541232 
L 970.789399 302.4005 
L 971.366829 302.055628 
L 971.94426 297.691666 
L 972.52169 286.324143 
L 973.099121 231.370059 
L 973.676551 242.153953 
L 974.253982 299.124213 
L 974.831412 313.144601 
L 975.408843 309.404062 
L 975.986274 311.964076 
L 976.563704 288.565813 
L 977.141135 242.512089 
L 977.718565 243.533442 
L 978.295996 282.450961 
L 978.873426 287.743425 
L 979.450857 288.260734 
L 980.028287 296.736635 
L 980.605718 302.135214 
L 981.183148 279.612396 
L 981.760579 310.451944 
L 982.338009 306.154303 
L 982.91544 251.810379 
L 983.492871 317.428977 
L 984.070301 309.417326 
L 984.647732 313.94046 
L 985.225162 312.056926 
L 985.802593 317.680999 
L 986.380023 321.142987 
L 986.957454 315.797465 
L 988.112315 320.028784 
L 988.689745 328.544478 
L 989.267176 312.017133 
L 989.844606 310.505001 
L 990.422037 317.972814 
L 990.999468 312.454856 
L 991.576898 319.166603 
L 992.154329 328.265927 
L 992.731759 311.274331 
L 993.30919 288.685192 
L 993.88662 326.422187 
L 994.464051 316.513738 
L 995.618912 329.141372 
L 996.196342 328.70365 
L 997.928634 316.540267 
L 998.506065 332.139109 
L 999.083495 330.786148 
L 999.660926 328.345513 
L 1000.238356 328.7965 
L 1000.815787 323.185692 
L 1001.393217 325.002904 
L 1001.970648 322.893877 
L 1002.548078 315.5985 
L 1003.125509 330.255575 
L 1004.28037 326.090579 
L 1004.8578 330.308633 
L 1005.435231 317.349391 
L 1006.012662 325.374305 
L 1006.590092 329.433188 
L 1007.167523 336.450014 
L 1007.744953 331.223871 
L 1008.322384 329.764796 
L 1008.899814 329.433188 
L 1009.477245 325.719178 
L 1010.054675 333.120669 
L 1010.632106 310.703966 
L 1011.209536 334.593009 
L 1011.786967 334.951145 
L 1012.364397 327.13846 
L 1012.941828 335.216432 
L 1013.519259 331.489157 
L 1014.096689 335.335811 
L 1014.67412 333.18699 
L 1015.25155 333.730828 
L 1015.828981 332.828854 
L 1016.406411 334.367515 
L 1016.983842 332.802325 
L 1017.561272 330.030082 
L 1018.138703 333.744092 
L 1018.716133 334.128757 
L 1019.293564 308.342916 
L 1019.870994 333.664506 
L 1020.448425 325.812028 
L 1021.025856 327.81494 
L 1022.180717 333.783885 
L 1022.758147 334.234872 
L 1023.335578 327.907791 
L 1023.913008 331.263664 
L 1024.490439 329.021994 
L 1025.067869 331.555479 
L 1025.6453 335.468454 
L 1026.22273 328.743443 
L 1026.800161 328.584271 
L 1027.377591 331.727915 
L 1027.955022 335.680683 
L 1028.532452 331.820765 
L 1029.109883 330.36169 
L 1029.687314 325.838556 
L 1030.842175 328.88935 
L 1031.419605 330.321897 
L 1031.997036 331.104492 
L 1032.574466 329.327073 
L 1033.151897 333.439013 
L 1033.729327 333.810414 
L 1034.306758 334.805238 
L 1034.884188 334.593009 
L 1035.461619 336.383692 
L 1036.039049 335.083788 
L 1036.61648 335.070524 
L 1037.193911 327.23131 
L 1037.771341 339.699772 
L 1038.348772 337.511159 
L 1038.926202 334.778709 
L 1039.503633 335.866383 
L 1040.081063 334.937881 
L 1040.658494 334.858295 
L 1041.235924 334.035907 
L 1041.813355 335.441925 
L 1042.390785 330.414747 
L 1043.545646 338.147847 
L 1044.123077 335.256225 
L 1044.700508 334.128757 
L 1045.277938 334.500158 
L 1045.855369 333.505334 
L 1046.432799 333.412484 
L 1047.01023 323.756058 
L 1047.58766 334.287929 
L 1048.165091 332.483981 
L 1048.742521 335.176639 
L 1049.319952 331.263664 
L 1049.897382 323.278542 
L 1050.474813 325.042697 
L 1051.052243 334.049171 
L 1051.629674 332.775797 
L 1052.207105 332.590096 
L 1052.784535 332.749268 
L 1053.361966 327.191517 
L 1053.939396 319.179867 
L 1054.516827 331.621801 
L 1055.094257 332.430924 
L 1055.671688 329.313809 
L 1056.249118 321.76641 
L 1056.826549 334.420572 
L 1057.403979 334.221608 
L 1057.98141 330.825941 
L 1058.55884 333.425748 
L 1059.136271 329.28728 
L 1059.713702 329.101579 
L 1060.291132 330.666769 
L 1060.868563 330.985113 
L 1061.445993 329.526038 
L 1062.023424 331.144285 
L 1062.600854 331.157549 
L 1063.178285 325.838556 
L 1063.755715 325.228398 
L 1064.333146 333.916528 
L 1064.910576 332.51051 
L 1065.488007 326.170164 
L 1066.065437 330.428012 
L 1066.642868 329.141372 
L 1067.220299 323.013256 
L 1067.797729 328.823029 
L 1068.37516 330.255575 
L 1068.95259 322.283718 
L 1069.530021 328.186341 
L 1070.107451 335.256225 
L 1070.684882 334.460365 
L 1071.262312 325.042697 
L 1071.839743 323.5173 
L 1072.417173 300.06598 
L 1072.994604 331.157549 
L 1073.572034 326.488508 
L 1074.149465 324.856997 
L 1074.726896 330.308633 
L 1075.304326 330.45454 
L 1075.881757 332.351338 
L 1076.459187 331.210607 
L 1077.036618 330.573919 
L 1077.614048 333.956321 
L 1078.191479 328.584271 
L 1078.768909 325.228398 
L 1079.34634 325.75897 
L 1079.92377 330.534126 
L 1081.656062 313.250715 
L 1082.233492 306.552233 
L 1082.810923 308.608203 
L 1083.388354 318.927845 
L 1083.965784 331.780972 
L 1084.543215 333.943057 
L 1085.120645 334.022643 
L 1085.698076 326.170164 
L 1086.275506 305.782902 
L 1086.852937 296.84275 
L 1087.430367 325.679385 
L 1088.007798 323.02652 
L 1088.585228 313.728231 
L 1089.162659 331.807501 
L 1089.740089 333.452277 
L 1090.31752 320.134898 
L 1090.894951 311.30086 
L 1091.472381 314.391447 
L 1092.049812 315.240364 
L 1092.627242 332.802325 
L 1093.204673 325.17534 
L 1093.782103 323.676472 
L 1094.359534 320.890965 
L 1094.936964 312.37527 
L 1095.514395 310.266243 
L 1096.091825 326.926231 
L 1096.669256 320.002255 
L 1097.246686 314.444504 
L 1097.824117 307.00322 
L 1098.401548 323.941758 
L 1098.978978 311.844697 
L 1099.556409 316.540267 
L 1100.133839 325.719178 
L 1101.2887 293.009361 
L 1101.866131 320.453242 
L 1102.443561 261.506597 
L 1103.020992 316.593324 
L 1103.598422 296.405027 
L 1104.175853 300.530231 
L 1104.753283 306.737934 
L 1105.330714 316.818818 
L 1105.908145 310.62438 
L 1106.485575 295.158181 
L 1107.063006 259.914879 
L 1107.640436 318.450329 
L 1108.217867 318.901316 
L 1108.795297 311.247803 
L 1109.372728 298.049803 
L 1109.950158 313.608852 
L 1110.527589 194.840118 
L 1111.105019 122.28428 
L 1111.68245 133.015116 
L 1112.25988 292.624696 
L 1112.837311 306.247154 
L 1113.992172 271.176288 
L 1114.569603 284.268173 
L 1115.147033 174.134512 
L 1115.724464 315.147513 
L 1116.301894 318.304422 
L 1116.879325 285.713984 
L 1117.456755 287.624046 
L 1118.034186 274.346461 
L 1118.611616 189.242574 
L 1119.189047 294.78678 
L 1119.766477 281.323494 
L 1120.343908 281.535723 
L 1120.921339 290.449347 
L 1121.498769 287.305703 
L 1122.0762 306.02166 
L 1122.65363 211.619485 
L 1123.231061 281.734688 
L 1123.808491 293.062418 
L 1124.385922 287.769954 
L 1124.963352 288.870893 
L 1124.963352 288.870893 
" clip-path="url(#p22b8cb41e2)" style="fill: none; stroke: #008080; stroke-width: 1.5; stroke-linecap: square"/>
   </g>
   <g id="patch_3">
    <path d="M 59.690625 356.477812 
L 59.690625 23.837812 
" style="fill: none; stroke: #000000; stroke-width: 0.8; stroke-linejoin: miter; stroke-linecap: square"/>
   </g>
   <g id="patch_4">
    <path d="M 1175.690625 356.477812 
L 1175.690625 23.837812 
" style="fill: none; stroke: #000000; stroke-width: 0.8; stroke-linejoin: miter; stroke-linecap: square"/>
   </g>
   <g id="patch_5">
    <path d="M 59.690625 356.477812 
L 1175.690625 356.477812 
" style="fill: none; stroke: #000000; stroke-width: 0.8; stroke-linejoin: miter; stroke-linecap: square"/>
   </g>
   <g id="patch_6">
    <path d="M 59.690625 23.837812 
L 1175.690625 23.837812 
" style="fill: none; stroke: #000000; stroke-width: 0.8; stroke-linejoin: miter; stroke-linecap: square"/>
   </g>
   <g id="text_13">
    <!-- Toronto Island Ferry Ticket Redemptions -->
    <g transform="translate(477.780313 17.837812) scale(0.14 -0.14)">
     <defs>
      <path id="DejaVuSans-72" d="M 2631 2963 
Q 2534 3019 2420 3045 
Q 2306 3072 2169 3072 
Q 1681 3072 1420 2755 
Q 1159 2438 1159 1844 
L 1159 0 
L 581 0 
L 581 3500 
L 1159 3500 
L 1159 2956 
Q 1341 3275 1631 3429 
Q 1922 3584 2338 3584 
Q 2397 3584 2469 3576 
Q 2541 3569 2628 3553 
L 2631 2963 
z
" transform="scale(0.015625)"/>
      <path id="DejaVuSans-49" d="M 628 4666 
L 1259 4666 
L 1259 0 
L 628 0 
L 628 4666 
z
" transform="scale(0.015625)"/>
      <path id="DejaVuSans-6c" d="M 603 4863 
L 1178 4863 
L 1178 0 
L 603 0 
L 603 4863 
z
" transform="scale(0.015625)"/>
      <path id="DejaVuSans-46" d="M 628 4666 
L 3309 4666 
L 3309 4134 
L 1259 4134 
L 1259 2759 
L 3109 2759 
L 3109 2228 
L 1259 2228 
L 1259 0 
L 628 0 
L 628 4666 
z
" transform="scale(0.015625)"/>
      <path id="DejaVuSans-79" d="M 2059 -325 
Q 1816 -950 1584 -1140 
Q 1353 -1331 966 -1331 
L 506 -1331 
L 506 -850 
L 844 -850 
Q 1081 -850 1212 -737 
Q 1344 -625 1503 -206 
L 1606 56 
L 191 3500 
L 800 3500 
L 1894 763 
L 2988 3500 
L 3597 3500 
L 2059 -325 
z
" transform="scale(0.015625)"/>
     </defs>
     <use xlink:href="#DejaVuSans-54"/>
     <use xlink:href="#DejaVuSans-6f" x="44.083984"/>
     <use xlink:href="#DejaVuSans-72" x="105.265625"/>
     <use xlink:href="#DejaVuSans-6f" x="144.128906"/>
     <use xlink:href="#DejaVuSans-6e" x="205.310547"/>
     <use xlink:href="#DejaVuSans-74" x="268.689453"/>
     <use xlink:href="#DejaVuSans-6f" x="307.898438"/>
     <use xlink:href="#DejaVuSans-20" x="369.080078"/>
     <use xlink:href="#DejaVuSans-49" x="400.867188"/>
     <use xlink:href="#DejaVuSans-73" x="430.359375"/>
     <use xlink:href="#DejaVuSans-6c" x="482.458984"/>
     <use xlink:href="#DejaVuSans-61" x="510.242188"/>
     <use xlink:href="#DejaVuSans-6e" x="571.521484"/>
     <use xlink:href="#DejaVuSans-64" x="634.900391"/>
     <use xlink:href="#DejaVuSans-20" x="698.376953"/>
     <use xlink:href="#DejaVuSans-46" x="730.164062"/>
     <use xlink:href="#DejaVuSans-65" x="782.183594"/>
     <use xlink:href="#DejaVuSans-72" x="843.707031"/>
     <use xlink:href="#DejaVuSans-72" x="883.070312"/>
     <use xlink:href="#DejaVuSans-79" x="924.183594"/>
     <use xlink:href="#DejaVuSans-20" x="983.363281"/>
     <use xlink:href="#DejaVuSans-54" x="1015.150391"/>
     <use xlink:href="#DejaVuSans-69" x="1073.109375"/>
     <use xlink:href="#DejaVuSans-63" x="1100.892578"/>
     <use xlink:href="#DejaVuSans-6b" x="1155.873047"/>
     <use xlink:href="#DejaVuSans-65" x="1210.158203"/>
     <use xlink:href="#DejaVuSans-74" x="1271.681641"/>
     <use xlink:href="#DejaVuSans-20" x="1310.890625"/>
     <use xlink:href="#DejaVuSans-52" x="1342.677734"/>
     <use xlink:href="#DejaVuSans-65" x="1407.660156"/>
     <use xlink:href="#DejaVuSans-64" x="1469.183594"/>
     <use xlink:href="#DejaVuSans-65" x="1532.660156"/>
     <use xlink:href="#DejaVuSans-6d" x="1594.183594"/>
     <use xlink:href="#DejaVuSans-70" x="1691.595703"/>
     <use xlink:href="#DejaVuSans-74" x="1755.072266"/>
     <use xlink:href="#DejaVuSans-69" x="1794.28125"/>
     <use xlink:href="#DejaVuSans-6f" x="1822.064453"/>
     <use xlink:href="#DejaVuSans-6e" x="1883.246094"/>
     <use xlink:href="#DejaVuSans-73" x="1946.625"/>
    </g>
   </g>
  </g>
  <g id="text_14">
   <!-- (Data from 2019-08-21 08:15:00 to 2024-06-12 15:00:00) -->
   <g style="fill: #808080" transform="translate(454.635938 399.677812) scale(0.1 -0.1)">
    <defs>
     <path id="DejaVuSans-28" d="M 1984 4856 
Q 1566 4138 1362 3434 
Q 1159 2731 1159 2009 
Q 1159 1288 1364 580 
Q 1569 -128 1984 -844 
L 1484 -844 
Q 1016 -109 783 600 
Q 550 1309 550 2009 
Q 550 2706 781 3412 
Q 1013 4119 1484 4856 
L 1984 4856 
z
" transform="scale(0.015625)"/>
     <path id="DejaVuSans-66" d="M 2375 4863 
L 2375 4384 
L 1825 4384 
Q 1516 4384 1395 4259 
Q 1275 4134 1275 3809 
L 1275 3500 
L 2222 3500 
L 2222 3053 
L 1275 3053 
L 1275 0 
L 697 0 
L 697 3053 
L 147 3053 
L 147 3500 
L 697 3500 
L 697 3744 
Q 697 4328 969 4595 
Q 1241 4863 1831 4863 
L 2375 4863 
z
" transform="scale(0.015625)"/>
     <path id="DejaVuSans-39" d="M 703 97 
L 703 672 
Q 941 559 1184 500 
Q 1428 441 1663 441 
Q 2288 441 2617 861 
Q 2947 1281 2994 2138 
Q 2813 1869 2534 1725 
Q 2256 1581 1919 1581 
Q 1219 1581 811 2004 
Q 403 2428 403 3163 
Q 403 3881 828 4315 
Q 1253 4750 1959 4750 
Q 2769 4750 3195 4129 
Q 3622 3509 3622 2328 
Q 3622 1225 3098 567 
Q 2575 -91 1691 -91 
Q 1453 -91 1209 -44 
Q 966 3 703 97 
z
M 1959 2075 
Q 2384 2075 2632 2365 
Q 2881 2656 2881 3163 
Q 2881 3666 2632 3958 
Q 2384 4250 1959 4250 
Q 1534 4250 1286 3958 
Q 1038 3666 1038 3163 
Q 1038 2656 1286 2365 
Q 1534 2075 1959 2075 
z
" transform="scale(0.015625)"/>
     <path id="DejaVuSans-2d" d="M 313 2009 
L 1997 2009 
L 1997 1497 
L 313 1497 
L 313 2009 
z
" transform="scale(0.015625)"/>
     <path id="DejaVuSans-38" d="M 2034 2216 
Q 1584 2216 1326 1975 
Q 1069 1734 1069 1313 
Q 1069 891 1326 650 
Q 1584 409 2034 409 
Q 2484 409 2743 651 
Q 3003 894 3003 1313 
Q 3003 1734 2745 1975 
Q 2488 2216 2034 2216 
z
M 1403 2484 
Q 997 2584 770 2862 
Q 544 3141 544 3541 
Q 544 4100 942 4425 
Q 1341 4750 2034 4750 
Q 2731 4750 3128 4425 
Q 3525 4100 3525 3541 
Q 3525 3141 3298 2862 
Q 3072 2584 2669 2484 
Q 3125 2378 3379 2068 
Q 3634 1759 3634 1313 
Q 3634 634 3220 271 
Q 2806 -91 2034 -91 
Q 1263 -91 848 271 
Q 434 634 434 1313 
Q 434 1759 690 2068 
Q 947 2378 1403 2484 
z
M 1172 3481 
Q 1172 3119 1398 2916 
Q 1625 2713 2034 2713 
Q 2441 2713 2670 2916 
Q 2900 3119 2900 3481 
Q 2900 3844 2670 4047 
Q 2441 4250 2034 4250 
Q 1625 4250 1398 4047 
Q 1172 3844 1172 3481 
z
" transform="scale(0.015625)"/>
     <path id="DejaVuSans-3a" d="M 750 794 
L 1409 794 
L 1409 0 
L 750 0 
L 750 794 
z
M 750 3309 
L 1409 3309 
L 1409 2516 
L 750 2516 
L 750 3309 
z
" transform="scale(0.015625)"/>
     <path id="DejaVuSans-36" d="M 2113 2584 
Q 1688 2584 1439 2293 
Q 1191 2003 1191 1497 
Q 1191 994 1439 701 
Q 1688 409 2113 409 
Q 2538 409 2786 701 
Q 3034 994 3034 1497 
Q 3034 2003 2786 2293 
Q 2538 2584 2113 2584 
z
M 3366 4563 
L 3366 3988 
Q 3128 4100 2886 4159 
Q 2644 4219 2406 4219 
Q 1781 4219 1451 3797 
Q 1122 3375 1075 2522 
Q 1259 2794 1537 2939 
Q 1816 3084 2150 3084 
Q 2853 3084 3261 2657 
Q 3669 2231 3669 1497 
Q 3669 778 3244 343 
Q 2819 -91 2113 -91 
Q 1303 -91 875 529 
Q 447 1150 447 2328 
Q 447 3434 972 4092 
Q 1497 4750 2381 4750 
Q 2619 4750 2861 4703 
Q 3103 4656 3366 4563 
z
" transform="scale(0.015625)"/>
     <path id="DejaVuSans-29" d="M 513 4856 
L 1013 4856 
Q 1481 4119 1714 3412 
Q 1947 2706 1947 2009 
Q 1947 1309 1714 600 
Q 1481 -109 1013 -844 
L 513 -844 
Q 928 -128 1133 580 
Q 1338 1288 1338 2009 
Q 1338 2731 1133 3434 
Q 928 4138 513 4856 
z
" transform="scale(0.015625)"/>
    </defs>
    <use xlink:href="#DejaVuSans-28"/>
    <use xlink:href="#DejaVuSans-44" x="39.013672"/>
    <use xlink:href="#DejaVuSans-61" x="116.015625"/>
    <use xlink:href="#DejaVuSans-74" x="177.294922"/>
    <use xlink:href="#DejaVuSans-61" x="216.503906"/>
    <use xlink:href="#DejaVuSans-20" x="277.783203"/>
    <use xlink:href="#DejaVuSans-66" x="309.570312"/>
    <use xlink:href="#DejaVuSans-72" x="344.775391"/>
    <use xlink:href="#DejaVuSans-6f" x="383.638672"/>
    <use xlink:href="#DejaVuSans-6d" x="444.820312"/>
    <use xlink:href="#DejaVuSans-20" x="542.232422"/>
    <use xlink:href="#DejaVuSans-32" x="574.019531"/>
    <use xlink:href="#DejaVuSans-30" x="637.642578"/>
    <use xlink:href="#DejaVuSans-31" x="701.265625"/>
    <use xlink:href="#DejaVuSans-39" x="764.888672"/>
    <use xlink:href="#DejaVuSans-2d" x="828.511719"/>
    <use xlink:href="#DejaVuSans-30" x="864.595703"/>
    <use xlink:href="#DejaVuSans-38" x="928.21875"/>
    <use xlink:href="#DejaVuSans-2d" x="991.841797"/>
    <use xlink:href="#DejaVuSans-32" x="1027.925781"/>
    <use xlink:href="#DejaVuSans-31" x="1091.548828"/>
    <use xlink:href="#DejaVuSans-20" x="1155.171875"/>
    <use xlink:href="#DejaVuSans-30" x="1186.958984"/>
    <use xlink:href="#DejaVuSans-38" x="1250.582031"/>
    <use xlink:href="#DejaVuSans-3a" x="1314.205078"/>
    <use xlink:href="#DejaVuSans-31" x="1347.896484"/>
    <use xlink:href="#DejaVuSans-35" x="1411.519531"/>
    <use xlink:href="#DejaVuSans-3a" x="1475.142578"/>
    <use xlink:href="#DejaVuSans-30" x="1508.833984"/>
    <use xlink:href="#DejaVuSans-30" x="1572.457031"/>
    <use xlink:href="#DejaVuSans-20" x="1636.080078"/>
    <use xlink:href="#DejaVuSans-74" x="1667.867188"/>
    <use xlink:href="#DejaVuSans-6f" x="1707.076172"/>
    <use xlink:href="#DejaVuSans-20" x="1768.257812"/>
    <use xlink:href="#DejaVuSans-32" x="1800.044922"/>
    <use xlink:href="#DejaVuSans-30" x="1863.667969"/>
    <use xlink:href="#DejaVuSans-32" x="1927.291016"/>
    <use xlink:href="#DejaVuSans-34" x="1990.914062"/>
    <use xlink:href="#DejaVuSans-2d" x="2054.537109"/>
    <use xlink:href="#DejaVuSans-30" x="2090.621094"/>
    <use xlink:href="#DejaVuSans-36" x="2154.244141"/>
    <use xlink:href="#DejaVuSans-2d" x="2217.867188"/>
    <use xlink:href="#DejaVuSans-31" x="2253.951172"/>
    <use xlink:href="#DejaVuSans-32" x="2317.574219"/>
    <use xlink:href="#DejaVuSans-20" x="2381.197266"/>
    <use xlink:href="#DejaVuSans-31" x="2412.984375"/>
    <use xlink:href="#DejaVuSans-35" x="2476.607422"/>
    <use xlink:href="#DejaVuSans-3a" x="2540.230469"/>
    <use xlink:href="#DejaVuSans-30" x="2573.921875"/>
    <use xlink:href="#DejaVuSans-30" x="2637.544922"/>
    <use xlink:href="#DejaVuSans-3a" x="2701.167969"/>
    <use xlink:href="#DejaVuSans-30" x="2734.859375"/>
    <use xlink:href="#DejaVuSans-30" x="2798.482422"/>
    <use xlink:href="#DejaVuSans-29" x="2862.105469"/>
   </g>
  </g>
 </g>
 <defs>
  <clipPath id="p22b8cb41e2">
   <rect x="59.690625" y="23.837812" width="1116" height="332.64"/>
  </clipPath>
 </defs>
</svg>
