<?xml version="1.0" encoding="utf-8" standalone="no"?>
<!DOCTYPE svg PUBLIC "-//W3C//DTD SVG 1.1//EN"
  "http://www.w3.org/Graphics/SVG/1.1/DTD/svg11.dtd">
<svg xmlns:xlink="http://www.w3.org/1999/xlink" width="1182.890625pt" height="408.9575pt" viewBox="0 0 1182.890625 408.9575" xmlns="http://www.w3.org/2000/svg" version="1.1">
 <metadata>
  <rdf:RDF xmlns:dc="http://purl.org/dc/elements/1.1/" xmlns:cc="http://creativecommons.org/ns#" xmlns:rdf="http://www.w3.org/1999/02/22-rdf-syntax-ns#">
   <cc:Work>
    <dc:type rdf:resource="http://purl.org/dc/dcmitype/StillImage"/>
    <dc:date>2024-05-03T04:25:19.316128</dc:date>
    <dc:format>image/svg+xml</dc:format>
    <dc:creator>
     <cc:Agent>
      <dc:title>Matplotlib v3.8.4, https://matplotlib.org/</dc:title>
     </cc:Agent>
    </dc:creator>
   </cc:Work>
  </rdf:RDF>
 </metadata>
 <defs>
  <style type="text/css">*{stroke-linejoin: round; stroke-linecap: butt}</style>
 </defs>
 <g id="figure_1">
  <g id="patch_1">
   <path d="M 0 408.9575 
L 1182.890625 408.9575 
L 1182.890625 0 
L 0 0 
z
" style="fill: #ffffff"/>
  </g>
  <g id="axes_1">
   <g id="patch_2">
    <path d="M 59.690625 356.477812 
L 1175.690625 356.477812 
L 1175.690625 23.837812 
L 59.690625 23.837812 
z
" style="fill: #ffffff"/>
   </g>
   <g id="matplotlib.axis_1">
    <g id="xtick_1">
     <g id="line2d_1">
      <defs>
       <path id="me689cfe5c0" d="M 0 0 
L 0 3.5 
" style="stroke: #000000; stroke-width: 0.8"/>
      </defs>
      <g>
       <use xlink:href="#me689cfe5c0" x="69.863809" y="356.477812" style="stroke: #000000; stroke-width: 0.8"/>
      </g>
     </g>
     <g id="text_1">
      <!-- 2016 -->
      <g transform="translate(57.138809 371.07625) scale(0.1 -0.1)">
       <defs>
        <path id="DejaVuSans-32" d="M 1228 531 
L 3431 531 
L 3431 0 
L 469 0 
L 469 531 
Q 828 903 1448 1529 
Q 2069 2156 2228 2338 
Q 2531 2678 2651 2914 
Q 2772 3150 2772 3378 
Q 2772 3750 2511 3984 
Q 2250 4219 1831 4219 
Q 1534 4219 1204 4116 
Q 875 4013 500 3803 
L 500 4441 
Q 881 4594 1212 4672 
Q 1544 4750 1819 4750 
Q 2544 4750 2975 4387 
Q 3406 4025 3406 3419 
Q 3406 3131 3298 2873 
Q 3191 2616 2906 2266 
Q 2828 2175 2409 1742 
Q 1991 1309 1228 531 
z
" transform="scale(0.015625)"/>
        <path id="DejaVuSans-30" d="M 2034 4250 
Q 1547 4250 1301 3770 
Q 1056 3291 1056 2328 
Q 1056 1369 1301 889 
Q 1547 409 2034 409 
Q 2525 409 2770 889 
Q 3016 1369 3016 2328 
Q 3016 3291 2770 3770 
Q 2525 4250 2034 4250 
z
M 2034 4750 
Q 2819 4750 3233 4129 
Q 3647 3509 3647 2328 
Q 3647 1150 3233 529 
Q 2819 -91 2034 -91 
Q 1250 -91 836 529 
Q 422 1150 422 2328 
Q 422 3509 836 4129 
Q 1250 4750 2034 4750 
z
" transform="scale(0.015625)"/>
        <path id="DejaVuSans-31" d="M 794 531 
L 1825 531 
L 1825 4091 
L 703 3866 
L 703 4441 
L 1819 4666 
L 2450 4666 
L 2450 531 
L 3481 531 
L 3481 0 
L 794 0 
L 794 531 
z
" transform="scale(0.015625)"/>
        <path id="DejaVuSans-36" d="M 2113 2584 
Q 1688 2584 1439 2293 
Q 1191 2003 1191 1497 
Q 1191 994 1439 701 
Q 1688 409 2113 409 
Q 2538 409 2786 701 
Q 3034 994 3034 1497 
Q 3034 2003 2786 2293 
Q 2538 2584 2113 2584 
z
M 3366 4563 
L 3366 3988 
Q 3128 4100 2886 4159 
Q 2644 4219 2406 4219 
Q 1781 4219 1451 3797 
Q 1122 3375 1075 2522 
Q 1259 2794 1537 2939 
Q 1816 3084 2150 3084 
Q 2853 3084 3261 2657 
Q 3669 2231 3669 1497 
Q 3669 778 3244 343 
Q 2819 -91 2113 -91 
Q 1303 -91 875 529 
Q 447 1150 447 2328 
Q 447 3434 972 4092 
Q 1497 4750 2381 4750 
Q 2619 4750 2861 4703 
Q 3103 4656 3366 4563 
z
" transform="scale(0.015625)"/>
       </defs>
       <use xlink:href="#DejaVuSans-32"/>
       <use xlink:href="#DejaVuSans-30" x="63.623047"/>
       <use xlink:href="#DejaVuSans-31" x="127.246094"/>
       <use xlink:href="#DejaVuSans-36" x="190.869141"/>
      </g>
     </g>
    </g>
    <g id="xtick_2">
     <g id="line2d_2">
      <g>
       <use xlink:href="#me689cfe5c0" x="196.725318" y="356.477812" style="stroke: #000000; stroke-width: 0.8"/>
      </g>
     </g>
     <g id="text_2">
      <!-- 2017 -->
      <g transform="translate(184.000318 371.07625) scale(0.1 -0.1)">
       <defs>
        <path id="DejaVuSans-37" d="M 525 4666 
L 3525 4666 
L 3525 4397 
L 1831 0 
L 1172 0 
L 2766 4134 
L 525 4134 
L 525 4666 
z
" transform="scale(0.015625)"/>
       </defs>
       <use xlink:href="#DejaVuSans-32"/>
       <use xlink:href="#DejaVuSans-30" x="63.623047"/>
       <use xlink:href="#DejaVuSans-31" x="127.246094"/>
       <use xlink:href="#DejaVuSans-37" x="190.869141"/>
      </g>
     </g>
    </g>
    <g id="xtick_3">
     <g id="line2d_3">
      <g>
       <use xlink:href="#me689cfe5c0" x="323.24021" y="356.477812" style="stroke: #000000; stroke-width: 0.8"/>
      </g>
     </g>
     <g id="text_3">
      <!-- 2018 -->
      <g transform="translate(310.51521 371.07625) scale(0.1 -0.1)">
       <defs>
        <path id="DejaVuSans-38" d="M 2034 2216 
Q 1584 2216 1326 1975 
Q 1069 1734 1069 1313 
Q 1069 891 1326 650 
Q 1584 409 2034 409 
Q 2484 409 2743 651 
Q 3003 894 3003 1313 
Q 3003 1734 2745 1975 
Q 2488 2216 2034 2216 
z
M 1403 2484 
Q 997 2584 770 2862 
Q 544 3141 544 3541 
Q 544 4100 942 4425 
Q 1341 4750 2034 4750 
Q 2731 4750 3128 4425 
Q 3525 4100 3525 3541 
Q 3525 3141 3298 2862 
Q 3072 2584 2669 2484 
Q 3125 2378 3379 2068 
Q 3634 1759 3634 1313 
Q 3634 634 3220 271 
Q 2806 -91 2034 -91 
Q 1263 -91 848 271 
Q 434 634 434 1313 
Q 434 1759 690 2068 
Q 947 2378 1403 2484 
z
M 1172 3481 
Q 1172 3119 1398 2916 
Q 1625 2713 2034 2713 
Q 2441 2713 2670 2916 
Q 2900 3119 2900 3481 
Q 2900 3844 2670 4047 
Q 2441 4250 2034 4250 
Q 1625 4250 1398 4047 
Q 1172 3844 1172 3481 
z
" transform="scale(0.015625)"/>
       </defs>
       <use xlink:href="#DejaVuSans-32"/>
       <use xlink:href="#DejaVuSans-30" x="63.623047"/>
       <use xlink:href="#DejaVuSans-31" x="127.246094"/>
       <use xlink:href="#DejaVuSans-38" x="190.869141"/>
      </g>
     </g>
    </g>
    <g id="xtick_4">
     <g id="line2d_4">
      <g>
       <use xlink:href="#me689cfe5c0" x="449.755103" y="356.477812" style="stroke: #000000; stroke-width: 0.8"/>
      </g>
     </g>
     <g id="text_4">
      <!-- 2019 -->
      <g transform="translate(437.030103 371.07625) scale(0.1 -0.1)">
       <defs>
        <path id="DejaVuSans-39" d="M 703 97 
L 703 672 
Q 941 559 1184 500 
Q 1428 441 1663 441 
Q 2288 441 2617 861 
Q 2947 1281 2994 2138 
Q 2813 1869 2534 1725 
Q 2256 1581 1919 1581 
Q 1219 1581 811 2004 
Q 403 2428 403 3163 
Q 403 3881 828 4315 
Q 1253 4750 1959 4750 
Q 2769 4750 3195 4129 
Q 3622 3509 3622 2328 
Q 3622 1225 3098 567 
Q 2575 -91 1691 -91 
Q 1453 -91 1209 -44 
Q 966 3 703 97 
z
M 1959 2075 
Q 2384 2075 2632 2365 
Q 2881 2656 2881 3163 
Q 2881 3666 2632 3958 
Q 2384 4250 1959 4250 
Q 1534 4250 1286 3958 
Q 1038 3666 1038 3163 
Q 1038 2656 1286 2365 
Q 1534 2075 1959 2075 
z
" transform="scale(0.015625)"/>
       </defs>
       <use xlink:href="#DejaVuSans-32"/>
       <use xlink:href="#DejaVuSans-30" x="63.623047"/>
       <use xlink:href="#DejaVuSans-31" x="127.246094"/>
       <use xlink:href="#DejaVuSans-39" x="190.869141"/>
      </g>
     </g>
    </g>
    <g id="xtick_5">
     <g id="line2d_5">
      <g>
       <use xlink:href="#me689cfe5c0" x="576.269996" y="356.477812" style="stroke: #000000; stroke-width: 0.8"/>
      </g>
     </g>
     <g id="text_5">
      <!-- 2020 -->
      <g transform="translate(563.544996 371.07625) scale(0.1 -0.1)">
       <use xlink:href="#DejaVuSans-32"/>
       <use xlink:href="#DejaVuSans-30" x="63.623047"/>
       <use xlink:href="#DejaVuSans-32" x="127.246094"/>
       <use xlink:href="#DejaVuSans-30" x="190.869141"/>
      </g>
     </g>
    </g>
    <g id="xtick_6">
     <g id="line2d_6">
      <g>
       <use xlink:href="#me689cfe5c0" x="703.131505" y="356.477812" style="stroke: #000000; stroke-width: 0.8"/>
      </g>
     </g>
     <g id="text_6">
      <!-- 2021 -->
      <g transform="translate(690.406505 371.07625) scale(0.1 -0.1)">
       <use xlink:href="#DejaVuSans-32"/>
       <use xlink:href="#DejaVuSans-30" x="63.623047"/>
       <use xlink:href="#DejaVuSans-32" x="127.246094"/>
       <use xlink:href="#DejaVuSans-31" x="190.869141"/>
      </g>
     </g>
    </g>
    <g id="xtick_7">
     <g id="line2d_7">
      <g>
       <use xlink:href="#me689cfe5c0" x="829.646397" y="356.477812" style="stroke: #000000; stroke-width: 0.8"/>
      </g>
     </g>
     <g id="text_7">
      <!-- 2022 -->
      <g transform="translate(816.921397 371.07625) scale(0.1 -0.1)">
       <use xlink:href="#DejaVuSans-32"/>
       <use xlink:href="#DejaVuSans-30" x="63.623047"/>
       <use xlink:href="#DejaVuSans-32" x="127.246094"/>
       <use xlink:href="#DejaVuSans-32" x="190.869141"/>
      </g>
     </g>
    </g>
    <g id="xtick_8">
     <g id="line2d_8">
      <g>
       <use xlink:href="#me689cfe5c0" x="956.16129" y="356.477812" style="stroke: #000000; stroke-width: 0.8"/>
      </g>
     </g>
     <g id="text_8">
      <!-- 2023 -->
      <g transform="translate(943.43629 371.07625) scale(0.1 -0.1)">
       <defs>
        <path id="DejaVuSans-33" d="M 2597 2516 
Q 3050 2419 3304 2112 
Q 3559 1806 3559 1356 
Q 3559 666 3084 287 
Q 2609 -91 1734 -91 
Q 1441 -91 1130 -33 
Q 819 25 488 141 
L 488 750 
Q 750 597 1062 519 
Q 1375 441 1716 441 
Q 2309 441 2620 675 
Q 2931 909 2931 1356 
Q 2931 1769 2642 2001 
Q 2353 2234 1838 2234 
L 1294 2234 
L 1294 2753 
L 1863 2753 
Q 2328 2753 2575 2939 
Q 2822 3125 2822 3475 
Q 2822 3834 2567 4026 
Q 2313 4219 1838 4219 
Q 1578 4219 1281 4162 
Q 984 4106 628 3988 
L 628 4550 
Q 988 4650 1302 4700 
Q 1616 4750 1894 4750 
Q 2613 4750 3031 4423 
Q 3450 4097 3450 3541 
Q 3450 3153 3228 2886 
Q 3006 2619 2597 2516 
z
" transform="scale(0.015625)"/>
       </defs>
       <use xlink:href="#DejaVuSans-32"/>
       <use xlink:href="#DejaVuSans-30" x="63.623047"/>
       <use xlink:href="#DejaVuSans-32" x="127.246094"/>
       <use xlink:href="#DejaVuSans-33" x="190.869141"/>
      </g>
     </g>
    </g>
    <g id="xtick_9">
     <g id="line2d_9">
      <g>
       <use xlink:href="#me689cfe5c0" x="1082.676183" y="356.477812" style="stroke: #000000; stroke-width: 0.8"/>
      </g>
     </g>
     <g id="text_9">
      <!-- 2024 -->
      <g transform="translate(1069.951183 371.07625) scale(0.1 -0.1)">
       <defs>
        <path id="DejaVuSans-34" d="M 2419 4116 
L 825 1625 
L 2419 1625 
L 2419 4116 
z
M 2253 4666 
L 3047 4666 
L 3047 1625 
L 3713 1625 
L 3713 1100 
L 3047 1100 
L 3047 0 
L 2419 0 
L 2419 1100 
L 313 1100 
L 313 1709 
L 2253 4666 
z
" transform="scale(0.015625)"/>
       </defs>
       <use xlink:href="#DejaVuSans-32"/>
       <use xlink:href="#DejaVuSans-30" x="63.623047"/>
       <use xlink:href="#DejaVuSans-32" x="127.246094"/>
       <use xlink:href="#DejaVuSans-34" x="190.869141"/>
      </g>
     </g>
    </g>
    <g id="text_10">
     <!-- Date -->
     <g transform="translate(605.739844 384.754375) scale(0.1 -0.1)">
      <defs>
       <path id="DejaVuSans-44" d="M 1259 4147 
L 1259 519 
L 2022 519 
Q 2988 519 3436 956 
Q 3884 1394 3884 2338 
Q 3884 3275 3436 3711 
Q 2988 4147 2022 4147 
L 1259 4147 
z
M 628 4666 
L 1925 4666 
Q 3281 4666 3915 4102 
Q 4550 3538 4550 2338 
Q 4550 1131 3912 565 
Q 3275 0 1925 0 
L 628 0 
L 628 4666 
z
" transform="scale(0.015625)"/>
       <path id="DejaVuSans-61" d="M 2194 1759 
Q 1497 1759 1228 1600 
Q 959 1441 959 1056 
Q 959 750 1161 570 
Q 1363 391 1709 391 
Q 2188 391 2477 730 
Q 2766 1069 2766 1631 
L 2766 1759 
L 2194 1759 
z
M 3341 1997 
L 3341 0 
L 2766 0 
L 2766 531 
Q 2569 213 2275 61 
Q 1981 -91 1556 -91 
Q 1019 -91 701 211 
Q 384 513 384 1019 
Q 384 1609 779 1909 
Q 1175 2209 1959 2209 
L 2766 2209 
L 2766 2266 
Q 2766 2663 2505 2880 
Q 2244 3097 1772 3097 
Q 1472 3097 1187 3025 
Q 903 2953 641 2809 
L 641 3341 
Q 956 3463 1253 3523 
Q 1550 3584 1831 3584 
Q 2591 3584 2966 3190 
Q 3341 2797 3341 1997 
z
" transform="scale(0.015625)"/>
       <path id="DejaVuSans-74" d="M 1172 4494 
L 1172 3500 
L 2356 3500 
L 2356 3053 
L 1172 3053 
L 1172 1153 
Q 1172 725 1289 603 
Q 1406 481 1766 481 
L 2356 481 
L 2356 0 
L 1766 0 
Q 1100 0 847 248 
Q 594 497 594 1153 
L 594 3053 
L 172 3053 
L 172 3500 
L 594 3500 
L 594 4494 
L 1172 4494 
z
" transform="scale(0.015625)"/>
       <path id="DejaVuSans-65" d="M 3597 1894 
L 3597 1613 
L 953 1613 
Q 991 1019 1311 708 
Q 1631 397 2203 397 
Q 2534 397 2845 478 
Q 3156 559 3463 722 
L 3463 178 
Q 3153 47 2828 -22 
Q 2503 -91 2169 -91 
Q 1331 -91 842 396 
Q 353 884 353 1716 
Q 353 2575 817 3079 
Q 1281 3584 2069 3584 
Q 2775 3584 3186 3129 
Q 3597 2675 3597 1894 
z
M 3022 2063 
Q 3016 2534 2758 2815 
Q 2500 3097 2075 3097 
Q 1594 3097 1305 2825 
Q 1016 2553 972 2059 
L 3022 2063 
z
" transform="scale(0.015625)"/>
      </defs>
      <use xlink:href="#DejaVuSans-44"/>
      <use xlink:href="#DejaVuSans-61" x="77.001953"/>
      <use xlink:href="#DejaVuSans-74" x="138.28125"/>
      <use xlink:href="#DejaVuSans-65" x="177.490234"/>
     </g>
    </g>
   </g>
   <g id="matplotlib.axis_2">
    <g id="ytick_1">
     <g id="line2d_10">
      <defs>
       <path id="m22e28d4ed3" d="M 0 0 
L -3.5 0 
" style="stroke: #000000; stroke-width: 0.8"/>
      </defs>
      <g>
       <use xlink:href="#m22e28d4ed3" x="59.690625" y="341.357812" style="stroke: #000000; stroke-width: 0.8"/>
      </g>
     </g>
     <g id="text_11">
      <!-- 0 -->
      <g transform="translate(46.328125 345.157031) scale(0.1 -0.1)">
       <use xlink:href="#DejaVuSans-30"/>
      </g>
     </g>
    </g>
    <g id="ytick_2">
     <g id="line2d_11">
      <g>
       <use xlink:href="#m22e28d4ed3" x="59.690625" y="282.634805" style="stroke: #000000; stroke-width: 0.8"/>
      </g>
     </g>
     <g id="text_12">
      <!-- 5000 -->
      <g transform="translate(27.240625 286.434024) scale(0.1 -0.1)">
       <defs>
        <path id="DejaVuSans-35" d="M 691 4666 
L 3169 4666 
L 3169 4134 
L 1269 4134 
L 1269 2991 
Q 1406 3038 1543 3061 
Q 1681 3084 1819 3084 
Q 2600 3084 3056 2656 
Q 3513 2228 3513 1497 
Q 3513 744 3044 326 
Q 2575 -91 1722 -91 
Q 1428 -91 1123 -41 
Q 819 9 494 109 
L 494 744 
Q 775 591 1075 516 
Q 1375 441 1709 441 
Q 2250 441 2565 725 
Q 2881 1009 2881 1497 
Q 2881 1984 2565 2268 
Q 2250 2553 1709 2553 
Q 1456 2553 1204 2497 
Q 953 2441 691 2322 
L 691 4666 
z
" transform="scale(0.015625)"/>
       </defs>
       <use xlink:href="#DejaVuSans-35"/>
       <use xlink:href="#DejaVuSans-30" x="63.623047"/>
       <use xlink:href="#DejaVuSans-30" x="127.246094"/>
       <use xlink:href="#DejaVuSans-30" x="190.869141"/>
      </g>
     </g>
    </g>
    <g id="ytick_3">
     <g id="line2d_12">
      <g>
       <use xlink:href="#m22e28d4ed3" x="59.690625" y="223.911797" style="stroke: #000000; stroke-width: 0.8"/>
      </g>
     </g>
     <g id="text_13">
      <!-- 10000 -->
      <g transform="translate(20.878125 227.711016) scale(0.1 -0.1)">
       <use xlink:href="#DejaVuSans-31"/>
       <use xlink:href="#DejaVuSans-30" x="63.623047"/>
       <use xlink:href="#DejaVuSans-30" x="127.246094"/>
       <use xlink:href="#DejaVuSans-30" x="190.869141"/>
       <use xlink:href="#DejaVuSans-30" x="254.492188"/>
      </g>
     </g>
    </g>
    <g id="ytick_4">
     <g id="line2d_13">
      <g>
       <use xlink:href="#m22e28d4ed3" x="59.690625" y="165.18879" style="stroke: #000000; stroke-width: 0.8"/>
      </g>
     </g>
     <g id="text_14">
      <!-- 15000 -->
      <g transform="translate(20.878125 168.988008) scale(0.1 -0.1)">
       <use xlink:href="#DejaVuSans-31"/>
       <use xlink:href="#DejaVuSans-35" x="63.623047"/>
       <use xlink:href="#DejaVuSans-30" x="127.246094"/>
       <use xlink:href="#DejaVuSans-30" x="190.869141"/>
       <use xlink:href="#DejaVuSans-30" x="254.492188"/>
      </g>
     </g>
    </g>
    <g id="ytick_5">
     <g id="line2d_14">
      <g>
       <use xlink:href="#m22e28d4ed3" x="59.690625" y="106.465782" style="stroke: #000000; stroke-width: 0.8"/>
      </g>
     </g>
     <g id="text_15">
      <!-- 20000 -->
      <g transform="translate(20.878125 110.265001) scale(0.1 -0.1)">
       <use xlink:href="#DejaVuSans-32"/>
       <use xlink:href="#DejaVuSans-30" x="63.623047"/>
       <use xlink:href="#DejaVuSans-30" x="127.246094"/>
       <use xlink:href="#DejaVuSans-30" x="190.869141"/>
       <use xlink:href="#DejaVuSans-30" x="254.492188"/>
      </g>
     </g>
    </g>
    <g id="ytick_6">
     <g id="line2d_15">
      <g>
       <use xlink:href="#m22e28d4ed3" x="59.690625" y="47.742774" style="stroke: #000000; stroke-width: 0.8"/>
      </g>
     </g>
     <g id="text_16">
      <!-- 25000 -->
      <g transform="translate(20.878125 51.541993) scale(0.1 -0.1)">
       <use xlink:href="#DejaVuSans-32"/>
       <use xlink:href="#DejaVuSans-35" x="63.623047"/>
       <use xlink:href="#DejaVuSans-30" x="127.246094"/>
       <use xlink:href="#DejaVuSans-30" x="190.869141"/>
       <use xlink:href="#DejaVuSans-30" x="254.492188"/>
      </g>
     </g>
    </g>
    <g id="text_17">
     <!-- Ticket Redemptions -->
     <g transform="translate(14.798438 239.336719) rotate(-90) scale(0.1 -0.1)">
      <defs>
       <path id="DejaVuSans-54" d="M -19 4666 
L 3928 4666 
L 3928 4134 
L 2272 4134 
L 2272 0 
L 1638 0 
L 1638 4134 
L -19 4134 
L -19 4666 
z
" transform="scale(0.015625)"/>
       <path id="DejaVuSans-69" d="M 603 3500 
L 1178 3500 
L 1178 0 
L 603 0 
L 603 3500 
z
M 603 4863 
L 1178 4863 
L 1178 4134 
L 603 4134 
L 603 4863 
z
" transform="scale(0.015625)"/>
       <path id="DejaVuSans-63" d="M 3122 3366 
L 3122 2828 
Q 2878 2963 2633 3030 
Q 2388 3097 2138 3097 
Q 1578 3097 1268 2742 
Q 959 2388 959 1747 
Q 959 1106 1268 751 
Q 1578 397 2138 397 
Q 2388 397 2633 464 
Q 2878 531 3122 666 
L 3122 134 
Q 2881 22 2623 -34 
Q 2366 -91 2075 -91 
Q 1284 -91 818 406 
Q 353 903 353 1747 
Q 353 2603 823 3093 
Q 1294 3584 2113 3584 
Q 2378 3584 2631 3529 
Q 2884 3475 3122 3366 
z
" transform="scale(0.015625)"/>
       <path id="DejaVuSans-6b" d="M 581 4863 
L 1159 4863 
L 1159 1991 
L 2875 3500 
L 3609 3500 
L 1753 1863 
L 3688 0 
L 2938 0 
L 1159 1709 
L 1159 0 
L 581 0 
L 581 4863 
z
" transform="scale(0.015625)"/>
       <path id="DejaVuSans-20" transform="scale(0.015625)"/>
       <path id="DejaVuSans-52" d="M 2841 2188 
Q 3044 2119 3236 1894 
Q 3428 1669 3622 1275 
L 4263 0 
L 3584 0 
L 2988 1197 
Q 2756 1666 2539 1819 
Q 2322 1972 1947 1972 
L 1259 1972 
L 1259 0 
L 628 0 
L 628 4666 
L 2053 4666 
Q 2853 4666 3247 4331 
Q 3641 3997 3641 3322 
Q 3641 2881 3436 2590 
Q 3231 2300 2841 2188 
z
M 1259 4147 
L 1259 2491 
L 2053 2491 
Q 2509 2491 2742 2702 
Q 2975 2913 2975 3322 
Q 2975 3731 2742 3939 
Q 2509 4147 2053 4147 
L 1259 4147 
z
" transform="scale(0.015625)"/>
       <path id="DejaVuSans-64" d="M 2906 2969 
L 2906 4863 
L 3481 4863 
L 3481 0 
L 2906 0 
L 2906 525 
Q 2725 213 2448 61 
Q 2172 -91 1784 -91 
Q 1150 -91 751 415 
Q 353 922 353 1747 
Q 353 2572 751 3078 
Q 1150 3584 1784 3584 
Q 2172 3584 2448 3432 
Q 2725 3281 2906 2969 
z
M 947 1747 
Q 947 1113 1208 752 
Q 1469 391 1925 391 
Q 2381 391 2643 752 
Q 2906 1113 2906 1747 
Q 2906 2381 2643 2742 
Q 2381 3103 1925 3103 
Q 1469 3103 1208 2742 
Q 947 2381 947 1747 
z
" transform="scale(0.015625)"/>
       <path id="DejaVuSans-6d" d="M 3328 2828 
Q 3544 3216 3844 3400 
Q 4144 3584 4550 3584 
Q 5097 3584 5394 3201 
Q 5691 2819 5691 2113 
L 5691 0 
L 5113 0 
L 5113 2094 
Q 5113 2597 4934 2840 
Q 4756 3084 4391 3084 
Q 3944 3084 3684 2787 
Q 3425 2491 3425 1978 
L 3425 0 
L 2847 0 
L 2847 2094 
Q 2847 2600 2669 2842 
Q 2491 3084 2119 3084 
Q 1678 3084 1418 2786 
Q 1159 2488 1159 1978 
L 1159 0 
L 581 0 
L 581 3500 
L 1159 3500 
L 1159 2956 
Q 1356 3278 1631 3431 
Q 1906 3584 2284 3584 
Q 2666 3584 2933 3390 
Q 3200 3197 3328 2828 
z
" transform="scale(0.015625)"/>
       <path id="DejaVuSans-70" d="M 1159 525 
L 1159 -1331 
L 581 -1331 
L 581 3500 
L 1159 3500 
L 1159 2969 
Q 1341 3281 1617 3432 
Q 1894 3584 2278 3584 
Q 2916 3584 3314 3078 
Q 3713 2572 3713 1747 
Q 3713 922 3314 415 
Q 2916 -91 2278 -91 
Q 1894 -91 1617 61 
Q 1341 213 1159 525 
z
M 3116 1747 
Q 3116 2381 2855 2742 
Q 2594 3103 2138 3103 
Q 1681 3103 1420 2742 
Q 1159 2381 1159 1747 
Q 1159 1113 1420 752 
Q 1681 391 2138 391 
Q 2594 391 2855 752 
Q 3116 1113 3116 1747 
z
" transform="scale(0.015625)"/>
       <path id="DejaVuSans-6f" d="M 1959 3097 
Q 1497 3097 1228 2736 
Q 959 2375 959 1747 
Q 959 1119 1226 758 
Q 1494 397 1959 397 
Q 2419 397 2687 759 
Q 2956 1122 2956 1747 
Q 2956 2369 2687 2733 
Q 2419 3097 1959 3097 
z
M 1959 3584 
Q 2709 3584 3137 3096 
Q 3566 2609 3566 1747 
Q 3566 888 3137 398 
Q 2709 -91 1959 -91 
Q 1206 -91 779 398 
Q 353 888 353 1747 
Q 353 2609 779 3096 
Q 1206 3584 1959 3584 
z
" transform="scale(0.015625)"/>
       <path id="DejaVuSans-6e" d="M 3513 2113 
L 3513 0 
L 2938 0 
L 2938 2094 
Q 2938 2591 2744 2837 
Q 2550 3084 2163 3084 
Q 1697 3084 1428 2787 
Q 1159 2491 1159 1978 
L 1159 0 
L 581 0 
L 581 3500 
L 1159 3500 
L 1159 2956 
Q 1366 3272 1645 3428 
Q 1925 3584 2291 3584 
Q 2894 3584 3203 3211 
Q 3513 2838 3513 2113 
z
" transform="scale(0.015625)"/>
       <path id="DejaVuSans-73" d="M 2834 3397 
L 2834 2853 
Q 2591 2978 2328 3040 
Q 2066 3103 1784 3103 
Q 1356 3103 1142 2972 
Q 928 2841 928 2578 
Q 928 2378 1081 2264 
Q 1234 2150 1697 2047 
L 1894 2003 
Q 2506 1872 2764 1633 
Q 3022 1394 3022 966 
Q 3022 478 2636 193 
Q 2250 -91 1575 -91 
Q 1294 -91 989 -36 
Q 684 19 347 128 
L 347 722 
Q 666 556 975 473 
Q 1284 391 1588 391 
Q 1994 391 2212 530 
Q 2431 669 2431 922 
Q 2431 1156 2273 1281 
Q 2116 1406 1581 1522 
L 1381 1569 
Q 847 1681 609 1914 
Q 372 2147 372 2553 
Q 372 3047 722 3315 
Q 1072 3584 1716 3584 
Q 2034 3584 2315 3537 
Q 2597 3491 2834 3397 
z
" transform="scale(0.015625)"/>
      </defs>
      <use xlink:href="#DejaVuSans-54"/>
      <use xlink:href="#DejaVuSans-69" x="57.958984"/>
      <use xlink:href="#DejaVuSans-63" x="85.742188"/>
      <use xlink:href="#DejaVuSans-6b" x="140.722656"/>
      <use xlink:href="#DejaVuSans-65" x="195.007812"/>
      <use xlink:href="#DejaVuSans-74" x="256.53125"/>
      <use xlink:href="#DejaVuSans-20" x="295.740234"/>
      <use xlink:href="#DejaVuSans-52" x="327.527344"/>
      <use xlink:href="#DejaVuSans-65" x="392.509766"/>
      <use xlink:href="#DejaVuSans-64" x="454.033203"/>
      <use xlink:href="#DejaVuSans-65" x="517.509766"/>
      <use xlink:href="#DejaVuSans-6d" x="579.033203"/>
      <use xlink:href="#DejaVuSans-70" x="676.445312"/>
      <use xlink:href="#DejaVuSans-74" x="739.921875"/>
      <use xlink:href="#DejaVuSans-69" x="779.130859"/>
      <use xlink:href="#DejaVuSans-6f" x="806.914062"/>
      <use xlink:href="#DejaVuSans-6e" x="868.095703"/>
      <use xlink:href="#DejaVuSans-73" x="931.474609"/>
     </g>
    </g>
   </g>
   <g id="line2d_16">
    <path d="M 110.417898 331.609793 
L 110.764514 331.774218 
L 111.11113 330.822905 
L 111.457746 295.013615 
L 111.804362 337.341159 
L 112.150978 332.467149 
L 112.497595 321.838285 
L 113.190827 330.141718 
L 113.537443 297.632661 
L 113.884059 302.53016 
L 114.230675 314.32174 
L 114.923908 325.22073 
L 115.61714 315.19084 
L 115.963756 317.293124 
L 116.310372 330.775927 
L 116.656988 333.218804 
L 117.003604 327.346503 
L 117.350221 319.054814 
L 117.696837 321.027907 
L 118.043453 317.84512 
L 118.390069 296.340755 
L 118.736685 193.070474 
L 119.429917 109.719037 
L 119.776534 291.443256 
L 120.12315 316.999509 
L 120.469766 320.769526 
L 120.816382 295.377698 
L 121.162998 209.348491 
L 121.509614 221.257517 
L 121.85623 286.956818 
L 122.202847 296.493435 
L 122.549463 291.196619 
L 122.896079 305.736436 
L 123.242695 262.116986 
L 123.589311 160.855032 
L 123.935927 310.92755 
L 124.282544 297.65615 
L 124.62916 313.206003 
L 124.975776 319.747746 
L 125.322392 295.835737 
L 125.669008 250.407618 
L 126.015624 228.738829 
L 126.36224 221.022625 
L 126.708857 293.815666 
L 127.055473 291.278832 
L 127.748705 297.06892 
L 128.095321 239.59084 
L 128.441937 64.37313 
L 128.788553 113.183694 
L 129.13517 289.669821 
L 129.481786 276.363188 
L 129.828402 271.324754 
L 130.175018 272.064664 
L 130.521634 235.315805 
L 130.86825 142.016691 
L 131.214866 165.411937 
L 131.561483 257.912419 
L 131.908099 279.651676 
L 132.254715 261.682436 
L 132.947947 204.615417 
L 133.294563 113.031014 
L 133.641179 156.991058 
L 133.987796 219.718975 
L 134.334412 242.726649 
L 134.681028 218.07473 
L 135.027644 255.833624 
L 135.37426 271.771048 
L 135.720876 173.527457 
L 136.067492 149.521491 
L 136.414109 242.738394 
L 136.760725 238.075787 
L 137.107341 248.57546 
L 137.453957 286.16993 
L 137.800573 229.502228 
L 138.147189 74.872804 
L 138.493805 74.825826 
L 138.840422 247.952997 
L 139.187038 220.153525 
L 139.533654 217.851583 
L 139.88027 204.662395 
L 140.226886 228.433469 
L 140.573502 111.328047 
L 140.920118 174.748895 
L 141.266735 265.017903 
L 141.613351 215.338238 
L 141.959967 224.228902 
L 142.306583 226.354674 
L 142.653199 211.532987 
L 142.999815 152.469386 
L 143.346431 189.781985 
L 143.693048 60.332987 
L 144.039664 213.095019 
L 144.38628 188.584036 
L 144.732896 202.724536 
L 145.079512 258.088588 
L 145.426128 90.774994 
L 145.772744 113.195439 
L 146.119361 220.047823 
L 146.465977 214.692285 
L 146.812593 213.905397 
L 147.159209 228.128109 
L 147.852441 281.789194 
L 148.199057 136.766854 
L 148.545674 215.13858 
L 148.89229 322.531216 
L 149.238906 216.219083 
L 149.932138 190.709809 
L 150.278754 127.934914 
L 150.971987 225.403362 
L 151.318603 233.636327 
L 151.665219 212.460811 
L 152.011835 247.213087 
L 152.705067 129.414733 
L 153.051683 186.282094 
L 153.3983 210.640398 
L 154.091532 235.362784 
L 154.784764 211.697412 
L 155.13138 120.688494 
L 155.477996 97.903968 
L 155.824613 109.77776 
L 156.171229 279.09968 
L 156.517845 308.285015 
L 156.864461 316.294833 
L 157.211077 283.985434 
L 157.557693 310.140662 
L 157.90431 191.813801 
L 158.250926 296.599136 
L 158.597542 297.632661 
L 158.944158 317.586739 
L 159.63739 290.022159 
L 159.984006 316.694149 
L 160.330623 229.102911 
L 160.677239 303.575429 
L 161.023855 300.18124 
L 161.370471 299.229927 
L 161.717087 301.919441 
L 162.063703 322.390281 
L 162.410319 252.909218 
L 162.756936 265.276284 
L 163.103552 331.586304 
L 163.450168 301.179531 
L 164.1434 333.7708 
L 164.490016 321.215821 
L 164.836632 328.051179 
L 165.183249 319.970893 
L 165.529865 322.237601 
L 165.876481 316.424023 
L 166.223097 313.323449 
L 166.569713 311.961075 
L 166.916329 295.683057 
L 167.262945 291.384533 
L 167.609562 298.818866 
L 167.956178 298.219891 
L 168.302794 325.52609 
L 168.64941 318.244437 
L 168.996026 328.051179 
L 169.342642 323.047979 
L 169.689258 295.283741 
L 170.035875 332.232257 
L 170.382491 335.649936 
L 170.729107 325.937151 
L 171.075723 319.524598 
L 171.422339 337.258947 
L 171.768955 335.520746 
L 172.115571 322.296324 
L 172.462188 318.502818 
L 172.808804 331.70375 
L 173.15542 329.448787 
L 173.502036 330.975585 
L 173.848652 338.49213 
L 174.195268 326.054597 
L 174.541884 324.116737 
L 174.888501 334.264073 
L 175.235117 327.358247 
L 175.928349 334.087904 
L 176.274965 333.817778 
L 176.621581 329.624956 
L 176.968197 317.081721 
L 177.314814 319.277962 
L 178.008046 334.980494 
L 178.701278 332.1383 
L 179.047894 333.113102 
L 179.39451 325.06805 
L 179.741127 323.376828 
L 180.087743 331.39839 
L 180.434359 334.111393 
L 180.780975 335.344577 
L 181.127591 333.347994 
L 181.474207 324.375119 
L 181.820823 337.223713 
L 182.16744 337.01231 
L 182.514056 337.552562 
L 182.860672 336.166699 
L 183.207288 335.602958 
L 183.553904 337.799198 
L 183.90052 337.129756 
L 184.247136 331.692005 
L 184.593753 334.334541 
L 184.940369 337.951878 
L 185.286985 336.765673 
L 185.633601 337.399882 
L 185.980217 337.388137 
L 186.326833 336.201932 
L 186.673449 331.11652 
L 187.020066 335.943551 
L 187.713298 337.118011 
L 188.059914 336.213677 
L 188.40653 337.963623 
L 188.753146 337.576051 
L 189.099762 337.928389 
L 189.446379 337.9049 
L 189.792995 337.211968 
L 190.139611 338.045835 
L 190.486227 338.210259 
L 190.832843 338.997148 
L 191.179459 336.988821 
L 191.872692 336.260655 
L 192.219308 334.94526 
L 192.565924 337.094522 
L 192.91254 336.542526 
L 193.259156 334.992238 
L 193.605772 336.072742 
L 193.952389 334.921771 
L 194.299005 334.898282 
L 194.645621 337.388137 
L 194.992237 335.68517 
L 195.338853 334.780836 
L 195.685469 335.215386 
L 196.032085 332.690297 
L 196.378702 335.133174 
L 196.725318 331.351412 
L 197.071934 334.134883 
L 197.41855 338.539108 
L 197.765166 337.493839 
L 198.111782 338.104558 
L 198.458398 336.213677 
L 198.805015 336.448569 
L 199.151631 337.247202 
L 199.498247 337.552562 
L 199.844863 338.292472 
L 200.191479 334.863048 
L 200.538095 337.399882 
L 200.884711 337.681752 
L 201.231328 335.779127 
L 201.577944 335.473767 
L 201.92456 335.943551 
L 202.271176 339.032381 
L 202.617792 338.914935 
L 202.964408 338.315961 
L 203.311024 336.70695 
L 203.657641 340.735349 
L 204.004257 338.081069 
L 204.350873 337.963623 
L 204.697489 336.965332 
L 205.044105 337.928389 
L 205.390721 336.389846 
L 205.737337 337.611285 
L 206.083954 337.423371 
L 206.777186 336.460314 
L 207.123802 337.822687 
L 207.470418 337.740475 
L 207.817034 337.094522 
L 208.16365 338.691788 
L 208.510267 336.131465 
L 208.856883 336.930098 
L 209.203499 336.742184 
L 209.550115 339.607867 
L 209.896731 335.544235 
L 210.243347 336.847886 
L 210.589963 336.718695 
L 210.93658 334.710368 
L 211.283196 339.067615 
L 211.629812 337.141501 
L 211.976428 336.084486 
L 212.323044 336.037508 
L 212.66966 335.673425 
L 213.016276 334.557688 
L 213.362893 320.863483 
L 213.709509 317.880354 
L 214.056125 325.608302 
L 214.402741 336.295889 
L 214.749357 335.767382 
L 215.095973 329.108193 
L 215.442589 335.908317 
L 215.789206 335.203641 
L 216.135822 335.37981 
L 216.482438 333.359739 
L 216.829054 338.33945 
L 217.17567 335.133174 
L 217.522286 335.285854 
L 217.868902 335.955296 
L 218.215519 334.933515 
L 218.562135 336.659972 
L 218.908751 336.190188 
L 219.255367 337.505583 
L 219.601983 334.910026 
L 219.948599 333.794289 
L 220.295215 337.071033 
L 220.641832 336.201932 
L 220.988448 335.814361 
L 221.335064 337.388137 
L 221.68168 338.433407 
L 222.028296 337.893155 
L 222.721529 332.678552 
L 223.068145 336.472058 
L 223.414761 331.891664 
L 223.761377 336.530781 
L 224.107993 329.777635 
L 224.454609 336.601249 
L 224.801225 332.549361 
L 225.147842 335.473767 
L 225.494458 335.53249 
L 225.841074 337.670008 
L 226.18769 336.460314 
L 226.534306 333.03089 
L 226.880922 333.33625 
L 227.227538 336.025763 
L 227.574155 337.305925 
L 227.920771 329.836358 
L 228.267387 316.940786 
L 228.614003 335.743893 
L 228.960619 337.987112 
L 229.307235 332.713786 
L 229.653851 338.045835 
L 230.000468 334.557688 
L 230.347084 312.700985 
L 230.6937 314.897225 
L 231.040316 325.126773 
L 231.386932 330.822905 
L 231.733548 332.936933 
L 232.080164 326.594848 
L 232.426781 277.267522 
L 232.773397 317.10521 
L 233.120013 293.204946 
L 233.813245 327.781053 
L 234.159861 334.275818 
L 234.506477 337.094522 
L 234.853094 330.000783 
L 235.19971 308.085356 
L 235.546326 294.87268 
L 235.892942 323.259382 
L 236.239558 338.057579 
L 236.586174 324.457331 
L 237.279407 311.20942 
L 237.626023 297.773596 
L 237.972639 334.369775 
L 238.319255 337.247202 
L 238.665871 334.252329 
L 239.012487 308.70782 
L 239.359103 335.074451 
L 239.70572 339.302507 
L 240.052336 339.643101 
L 240.398952 338.938425 
L 240.745568 334.099649 
L 241.092184 335.062706 
L 241.4388 334.264073 
L 241.785416 335.227131 
L 242.132033 337.200224 
L 242.478649 336.624738 
L 242.825265 337.047544 
L 243.171881 336.542526 
L 243.518497 336.495547 
L 243.865113 336.765673 
L 244.211729 336.847886 
L 244.558346 336.671716 
L 244.904962 337.106267 
L 245.251578 338.691788 
L 245.598194 339.114594 
L 245.94481 337.305925 
L 246.291426 336.894864 
L 246.638042 337.423371 
L 246.984659 336.765673 
L 247.331275 337.223713 
L 247.677891 339.384719 
L 248.024507 337.728731 
L 248.371123 337.846177 
L 248.717739 338.398173 
L 249.064355 337.282436 
L 249.410972 336.918353 
L 249.757588 337.705241 
L 250.104204 338.797489 
L 250.45082 337.987112 
L 250.797436 338.233748 
L 251.144052 337.493839 
L 251.490668 337.857921 
L 251.837285 339.279018 
L 252.183901 339.07936 
L 252.530517 338.433407 
L 252.877133 338.33945 
L 253.223749 338.022346 
L 253.570365 337.940133 
L 253.916981 338.609576 
L 254.263598 337.364648 
L 254.610214 337.035799 
L 254.95683 337.728731 
L 255.303446 337.670008 
L 255.650062 337.846177 
L 255.996678 337.576051 
L 256.343295 337.082778 
L 256.689911 337.799198 
L 257.036527 335.931807 
L 257.383143 338.292472 
L 257.729759 338.844468 
L 258.076375 338.832723 
L 258.422991 338.092813 
L 258.769608 338.550853 
L 259.116224 337.364648 
L 259.46284 336.883119 
L 259.809456 337.305925 
L 260.156072 336.812652 
L 260.502688 335.99053 
L 260.849304 335.602958 
L 261.195921 334.757346 
L 261.542537 335.68517 
L 261.889153 333.488929 
L 262.235769 336.495547 
L 262.582385 336.965332 
L 262.929001 333.841268 
L 263.275617 336.284145 
L 263.622234 337.01231 
L 263.96885 335.755638 
L 264.315466 331.327923 
L 264.662082 336.495547 
L 265.008698 335.83785 
L 265.355314 333.33625 
L 266.048547 335.555979 
L 266.395163 331.163498 
L 266.741779 334.604667 
L 267.088395 336.671716 
L 267.435011 335.567724 
L 267.781627 333.171825 
L 268.128243 334.94526 
L 268.47486 335.391555 
L 268.821476 331.668516 
L 269.168092 331.069542 
L 269.514708 328.650154 
L 269.861324 271.818027 
L 270.20794 256.585279 
L 270.554556 260.6724 
L 270.901173 268.353369 
L 271.247789 304.550231 
L 271.594405 232.297443 
L 271.941021 134.723293 
L 272.287637 265.593388 
L 272.634253 229.466994 
L 272.980869 230.841112 
L 273.327486 233.777263 
L 273.674102 287.825919 
L 274.367334 133.865937 
L 274.71395 236.584222 
L 275.060566 271.019394 
L 275.407182 226.765735 
L 275.753799 285.817592 
L 276.100415 256.467833 
L 276.793647 119.561013 
L 277.140263 237.042262 
L 277.486879 312.301668 
L 277.833495 246.297008 
L 278.180112 266.685636 
L 278.526728 234.317514 
L 278.873344 172.916737 
L 279.21996 181.619487 
L 279.566576 254.330315 
L 279.913192 254.271592 
L 280.259808 242.632692 
L 280.606425 266.732614 
L 280.953041 250.219705 
L 281.299657 185.671375 
L 281.646273 220.411906 
L 281.992889 153.902228 
L 282.339505 319.219239 
L 282.686121 311.643971 
L 283.032738 324.081504 
L 283.379354 312.677496 
L 283.72597 259.591897 
L 284.072586 226.847948 
L 284.419202 310.457766 
L 284.765818 298.807121 
L 285.112434 314.380463 
L 285.805667 294.485108 
L 286.152283 187.609234 
L 286.498899 198.508224 
L 286.845515 311.831884 
L 287.192131 312.289924 
L 287.538747 304.973037 
L 287.885364 303.258325 
L 288.23198 294.661277 
L 288.578596 180.515495 
L 288.925212 190.68632 
L 289.271828 292.006997 
L 289.618444 295.506888 
L 290.658293 331.140009 
L 291.004909 285.841081 
L 291.351525 275.482343 
L 291.698141 315.507945 
L 292.044757 307.134044 
L 292.391374 327.146845 
L 292.73799 308.696076 
L 293.084606 315.413988 
L 293.431222 295.178039 
L 293.777838 268.376859 
L 294.124454 301.872462 
L 294.47107 311.221165 
L 294.817687 332.020854 
L 295.164303 328.203859 
L 295.510919 322.120155 
L 295.857535 320.922206 
L 296.204151 328.967258 
L 296.550767 325.925406 
L 296.897383 321.685605 
L 297.244 320.100084 
L 297.590616 317.939077 
L 297.937232 312.372136 
L 298.283848 292.817374 
L 298.630464 290.163094 
L 298.97708 327.792798 
L 299.323696 328.979002 
L 299.670313 328.650154 
L 300.016929 325.831449 
L 300.363545 325.150262 
L 300.710161 334.545944 
L 301.056777 326.089831 
L 301.403393 330.317887 
L 301.750009 327.099866 
L 302.096626 332.655063 
L 302.443242 333.864757 
L 302.789858 325.678769 
L 303.136474 329.143427 
L 303.48309 337.482094 
L 303.829706 331.562815 
L 304.176322 331.692005 
L 304.522939 327.510927 
L 304.869555 333.806034 
L 305.216171 333.829523 
L 305.562787 332.044343 
L 305.909403 333.629865 
L 306.256019 333.524163 
L 306.602635 332.760764 
L 306.949252 334.017437 
L 307.295868 332.302725 
L 307.642484 329.472276 
L 307.9891 336.201932 
L 308.335716 333.841268 
L 309.028948 332.525872 
L 309.375565 333.500674 
L 309.722181 333.394973 
L 310.068797 329.307851 
L 310.415413 330.541034 
L 310.762029 335.344577 
L 311.455261 329.906826 
L 311.801878 333.911735 
L 312.148494 334.804325 
L 312.49511 334.51071 
L 312.841726 330.576268 
L 313.188342 333.265782 
L 313.534958 334.66339 
L 313.881574 334.921771 
L 314.228191 333.888246 
L 314.574807 332.361448 
L 315.268039 335.509001 
L 315.961271 335.4033 
L 316.307887 336.014019 
L 316.654504 332.091322 
L 317.00112 334.898282 
L 317.347736 334.874792 
L 317.694352 335.732148 
L 318.040968 335.896573 
L 318.387584 335.415044 
L 318.7342 333.477185 
L 319.080817 333.254037 
L 319.427433 332.795998 
L 319.774049 335.344577 
L 320.120665 336.448569 
L 320.467281 335.074451 
L 320.813897 335.978785 
L 321.160513 337.200224 
L 321.50713 335.732148 
L 321.853746 335.544235 
L 322.200362 336.107976 
L 322.546978 334.980494 
L 323.24021 337.258947 
L 323.586827 340.888028 
L 323.933443 341.357812 
L 324.973291 341.357812 
L 325.319907 336.542526 
L 326.01314 334.94526 
L 326.359756 334.79258 
L 326.706372 334.968749 
L 327.052988 336.213677 
L 327.399604 336.107976 
L 327.74622 336.366357 
L 328.092836 336.436824 
L 328.439453 335.344577 
L 328.786069 335.297598 
L 329.132685 334.94526 
L 329.479301 334.933515 
L 329.825917 333.148336 
L 330.172533 335.567724 
L 330.519149 336.11972 
L 330.865766 334.94526 
L 331.212382 334.804325 
L 331.558998 334.804325 
L 331.905614 334.029181 
L 332.25223 335.931807 
L 332.598846 334.322796 
L 332.945462 335.873084 
L 333.292079 335.708659 
L 333.638695 335.708659 
L 333.985311 335.227131 
L 334.331927 335.215386 
L 334.678543 341.193388 
L 335.371775 335.344577 
L 335.718392 334.933515 
L 336.065008 336.166699 
L 336.411624 335.309343 
L 337.104856 336.977076 
L 337.451472 336.988821 
L 337.798088 334.416753 
L 338.144705 334.628156 
L 338.491321 333.430206 
L 338.837937 334.604667 
L 339.184553 333.676843 
L 339.531169 335.68517 
L 339.877785 330.752437 
L 340.224401 337.176734 
L 340.571018 335.238875 
L 340.917634 334.628156 
L 341.26425 333.430206 
L 341.610866 334.240584 
L 341.957482 332.995656 
L 342.304098 333.289271 
L 342.650714 332.326214 
L 342.997331 330.96384 
L 343.343947 334.040926 
L 343.690563 335.203641 
L 344.037179 334.475476 
L 344.383795 329.977294 
L 345.077027 333.794289 
L 345.423644 334.592922 
L 345.77026 334.957005 
L 346.116876 333.46544 
L 346.463492 334.040926 
L 347.156724 332.431915 
L 347.50334 335.215386 
L 347.849957 332.584595 
L 348.196573 333.876501 
L 348.543189 333.136591 
L 348.889805 333.993947 
L 349.236421 329.777635 
L 349.583037 330.658481 
L 349.929653 333.383228 
L 350.27627 333.864757 
L 350.622886 332.572851 
L 350.969502 333.441951 
L 351.316118 331.821196 
L 351.662734 328.89679 
L 352.00935 331.128265 
L 352.355966 330.705459 
L 352.702583 335.285854 
L 353.049199 330.494056 
L 353.395815 335.274109 
L 353.742431 324.187205 
L 354.089047 325.279453 
L 354.435663 327.005909 
L 354.78228 327.828032 
L 355.128896 334.957005 
L 355.475512 335.555979 
L 355.822128 332.572851 
L 356.168744 334.66339 
L 356.51536 332.514128 
L 356.861976 333.759055 
L 357.208593 332.1383 
L 358.248441 334.05267 
L 358.595057 332.784253 
L 358.941673 337.822687 
L 359.288289 339.784036 
L 360.328138 331.128265 
L 360.674754 332.831232 
L 361.02137 326.559615 
L 361.367986 315.719347 
L 361.714602 311.620481 
L 362.754451 332.619829 
L 363.101067 319.947404 
L 363.447683 317.821631 
L 363.794299 328.262582 
L 364.140915 316.576703 
L 364.834148 303.70462 
L 365.180764 311.878863 
L 365.52738 327.428715 
L 365.873996 327.851521 
L 366.220612 261.318353 
L 366.567228 312.630517 
L 366.913845 312.301668 
L 367.260461 308.226292 
L 367.607077 312.184222 
L 367.953693 321.356756 
L 368.300309 316.377045 
L 368.646925 309.588665 
L 368.993541 255.08197 
L 369.686774 326.277744 
L 370.03339 295.812248 
L 370.726622 306.51158 
L 371.073238 325.103284 
L 371.419854 159.398701 
L 371.766471 162.651956 
L 372.113087 323.975802 
L 372.459703 294.87268 
L 372.806319 293.451583 
L 373.152935 274.131713 
L 373.499551 237.512046 
L 373.846167 215.385217 
L 374.192784 275.40013 
L 374.5394 289.963436 
L 374.886016 292.558993 
L 375.232632 310.03496 
L 375.579248 284.983725 
L 375.925864 206.858636 
L 376.27248 304.949548 
L 376.965713 310.422532 
L 377.312329 303.70462 
L 377.658945 289.41144 
L 378.005561 257.12553 
L 378.352177 209.031387 
L 378.698793 180.19839 
L 379.04541 273.50925 
L 379.392026 278.406748 
L 379.738642 314.45093 
L 380.085258 270.890203 
L 380.431874 249.280137 
L 380.77849 88.649222 
L 381.125106 110.21231 
L 381.471723 299.828902 
L 381.818339 262.070008 
L 382.164955 264.994413 
L 382.511571 253.684362 
L 382.858187 232.309187 
L 383.204803 304.092192 
L 383.551419 321.345012 
L 383.898036 222.596402 
L 384.244652 250.889147 
L 384.591268 322.56645 
L 384.937884 240.142837 
L 385.2845 213.435613 
L 385.977732 38.957812 
L 386.324349 174.478769 
L 386.670965 239.684797 
L 387.017581 220.552841 
L 387.364197 265.217561 
L 387.710813 199.694429 
L 388.057429 101.439093 
L 388.404046 91.373969 
L 388.750662 235.398018 
L 389.097278 238.028808 
L 390.137126 219.906888 
L 390.483742 118.586211 
L 390.830359 87.885822 
L 391.176975 277.92522 
L 391.870207 166.504185 
L 392.216823 194.702973 
L 392.563439 163.039528 
L 392.910055 90.281721 
L 393.256672 306.311922 
L 393.603288 241.5287 
L 393.949904 266.955762 
L 394.29652 227.329476 
L 394.643136 247.048662 
L 394.989752 198.602181 
L 395.336368 107.722454 
L 395.682985 111.198856 
L 396.029601 199.729663 
L 396.376217 236.114438 
L 396.722833 258.593606 
L 397.069449 201.86718 
L 397.416065 196.311984 
L 397.762681 103.012869 
L 398.109298 66.545881 
L 398.80253 247.483213 
L 399.149146 309.670878 
L 399.495762 209.125344 
L 399.842378 182.371142 
L 400.188994 68.178381 
L 400.535611 117.106391 
L 400.882227 228.985465 
L 401.228843 219.448849 
L 401.575459 204.36878 
L 402.268691 295.436421 
L 402.615307 107.745944 
L 402.961924 100.02974 
L 403.655156 328.579686 
L 404.001772 239.61433 
L 404.348388 188.865906 
L 404.695004 190.22828 
L 405.04162 239.391182 
L 405.388237 147.430952 
L 405.734853 285.453509 
L 406.081469 227.717048 
L 406.428085 280.473798 
L 406.774701 212.378599 
L 407.121317 203.311766 
L 407.467933 95.085263 
L 407.81455 153.726059 
L 408.161166 171.436918 
L 408.507782 297.233345 
L 408.854398 291.525468 
L 409.201014 309.659133 
L 409.54763 291.76036 
L 409.894246 235.433251 
L 410.240863 275.094771 
L 410.587479 332.126556 
L 410.934095 310.868827 
L 411.280711 300.075538 
L 411.627327 297.256834 
L 411.973943 283.703564 
L 412.320559 184.132832 
L 412.667176 189.112543 
L 413.013792 297.174622 
L 413.360408 293.639497 
L 413.707024 300.451365 
L 414.05364 317.633717 
L 414.400256 305.994817 
L 414.746872 261.095206 
L 415.093489 250.20796 
L 415.440105 317.081721 
L 415.786721 327.346503 
L 416.133337 310.481255 
L 416.479953 306.887407 
L 416.826569 298.666186 
L 417.173185 270.620078 
L 417.519802 307.615572 
L 417.866418 325.690514 
L 418.213034 330.364865 
L 418.55965 313.969402 
L 418.906266 308.472928 
L 419.252882 315.919006 
L 419.599498 319.01958 
L 420.292731 310.727892 
L 420.639347 295.483399 
L 420.985963 289.928202 
L 421.332579 315.789815 
L 421.679195 318.831667 
L 422.025812 315.895516 
L 422.372428 303.775088 
L 422.719044 327.910244 
L 423.06566 319.736001 
L 423.412276 325.37341 
L 423.758892 323.329849 
L 424.105508 313.14728 
L 424.452125 315.965984 
L 424.798741 325.115029 
L 425.145357 322.848321 
L 425.491973 327.240801 
L 425.838589 323.599975 
L 426.185205 323.717421 
L 426.531821 326.418679 
L 426.878438 330.599758 
L 427.225054 332.619829 
L 427.57167 330.952096 
L 427.918286 319.888681 
L 428.264902 327.769309 
L 428.611518 332.795998 
L 428.958134 331.692005 
L 429.304751 327.651863 
L 429.651367 318.855156 
L 429.997983 331.304434 
L 430.344599 330.787671 
L 431.037831 329.014236 
L 431.384447 331.527581 
L 431.731064 330.482311 
L 432.424296 329.260873 
L 432.770912 331.257455 
L 433.117528 330.212186 
L 433.464144 328.145136 
L 433.81076 334.534199 
L 434.157377 332.572851 
L 434.503993 333.254037 
L 434.850609 330.000783 
L 435.197225 330.822905 
L 435.543841 330.846394 
L 435.890457 331.762473 
L 436.237073 329.953804 
L 436.58369 337.211968 
L 436.930306 333.136591 
L 437.276922 333.46544 
L 437.623538 332.59634 
L 437.970154 331.2692 
L 438.31677 332.373192 
L 438.663386 331.809451 
L 439.010003 332.819487 
L 439.356619 334.769091 
L 439.703235 332.608084 
L 440.049851 332.056088 
L 440.396467 330.670225 
L 441.089699 334.851303 
L 441.436316 334.968749 
L 441.782932 332.819487 
L 442.129548 332.995656 
L 442.476164 332.842976 
L 442.82278 329.225639 
L 443.169396 331.374901 
L 443.862629 334.240584 
L 444.209245 334.07616 
L 445.249093 329.895081 
L 445.595709 330.541034 
L 445.942325 331.656772 
L 446.288942 333.61812 
L 446.635558 334.745602 
L 446.982174 333.794289 
L 447.32879 333.500674 
L 447.675406 334.287562 
L 448.022022 333.653354 
L 448.368638 332.502383 
L 448.715255 330.37661 
L 449.408487 334.416753 
L 449.755103 332.995656 
L 450.101719 334.134883 
L 450.448335 334.545944 
L 450.794951 329.50751 
L 451.488184 334.757346 
L 451.8348 334.134883 
L 452.181416 332.126556 
L 452.528032 332.690297 
L 452.874648 332.819487 
L 453.221265 332.760764 
L 453.567881 336.178443 
L 453.914497 336.507292 
L 454.261113 332.795998 
L 454.607729 332.983912 
L 454.954345 332.478894 
L 455.300961 335.509001 
L 455.647578 332.384937 
L 455.994194 337.153245 
L 456.34081 338.116302 
L 456.687426 337.176734 
L 457.034042 332.995656 
L 457.380658 333.559397 
L 457.727274 332.150045 
L 458.073891 331.715495 
L 458.767123 337.352903 
L 459.113739 334.322796 
L 459.460355 337.094522 
L 459.806971 332.467149 
L 460.153587 334.111393 
L 460.500204 332.866466 
L 460.84682 334.757346 
L 461.193436 335.4033 
L 461.540052 332.490638 
L 461.886668 334.123138 
L 462.233284 337.129756 
L 462.5799 332.995656 
L 462.926517 331.938642 
L 463.273133 335.074451 
L 463.619749 336.049253 
L 463.966365 332.631574 
L 464.312981 340.700115 
L 464.659597 337.9049 
L 465.006213 332.467149 
L 465.35283 335.168407 
L 465.699446 334.134883 
L 466.046062 336.612993 
L 466.392678 334.745602 
L 466.739294 332.00911 
L 467.08591 332.608084 
L 467.432526 332.408426 
L 467.779143 331.457113 
L 468.125759 333.359739 
L 468.472375 339.07936 
L 468.818991 334.287562 
L 469.165607 333.113102 
L 469.512223 334.851303 
L 470.205456 330.270909 
L 470.552072 336.671716 
L 471.245304 333.066124 
L 471.59192 333.606375 
L 471.938536 331.386646 
L 472.285152 332.59634 
L 472.631769 332.173534 
L 472.978385 331.527581 
L 473.325001 337.44686 
L 474.018233 333.782545 
L 474.364849 335.873084 
L 474.711465 335.215386 
L 475.058082 333.535908 
L 475.404698 334.111393 
L 475.751314 333.864757 
L 476.09793 334.416753 
L 476.444546 329.390064 
L 476.791162 330.306142 
L 477.137778 329.378319 
L 477.484395 331.821196 
L 477.831011 328.814578 
L 478.177627 330.81116 
L 478.870859 329.812869 
L 479.217475 328.133391 
L 479.564091 331.926897 
L 479.910708 324.48082 
L 480.257324 337.540817 
L 480.60394 336.612993 
L 480.950556 330.693714 
L 481.297172 330.740693 
L 481.643788 329.765891 
L 481.990404 329.331341 
L 482.337021 332.44366 
L 482.683637 321.204076 
L 483.030253 328.849812 
L 483.376869 325.596557 
L 483.723485 329.190405 
L 484.070101 327.781053 
L 484.416717 331.926897 
L 484.763334 328.791089 
L 485.10995 305.748181 
L 485.456566 338.374684 
L 485.803182 327.264291 
L 486.149798 328.18037 
L 486.496414 317.927332 
L 486.843031 323.423806 
L 487.189647 334.921771 
L 487.536263 315.21433 
L 487.882879 271.641858 
L 488.576111 328.885046 
L 488.922727 318.420606 
L 489.269344 315.507945 
L 489.61596 330.96384 
L 490.309192 312.078521 
L 490.655808 329.284362 
L 491.002424 321.591648 
L 491.34904 329.765891 
L 492.042273 321.861774 
L 492.388889 317.880354 
L 492.735505 277.948709 
L 493.082121 319.17226 
L 493.428737 324.774435 
L 493.775353 321.345012 
L 494.12197 330.893373 
L 494.468586 320.440677 
L 494.815202 295.483399 
L 495.161818 331.280944 
L 495.508434 333.18357 
L 496.201666 318.89039 
L 496.548283 317.868609 
L 496.894899 305.207929 
L 497.241515 281.213708 
L 497.588131 187.797148 
L 497.934747 274.836389 
L 498.281363 305.207929 
L 498.627979 323.494274 
L 498.974596 319.266217 
L 499.321212 300.075538 
L 499.667828 326.136809 
L 500.014444 237.570769 
L 500.36106 298.654441 
L 500.707676 329.613211 
L 501.054292 322.601684 
L 501.400909 317.84512 
L 501.747525 300.557067 
L 502.094141 301.755016 
L 502.440757 286.428311 
L 502.787373 310.751381 
L 503.480605 330.165207 
L 503.827222 295.74178 
L 504.173838 277.067864 
L 504.520454 209.313258 
L 504.86707 247.436234 
L 505.213686 332.314469 
L 505.560302 289.188293 
L 505.906918 288.260469 
L 506.253535 331.39839 
L 507.293383 205.214392 
L 507.639999 308.883989 
L 507.986615 282.329445 
L 508.333231 284.502197 
L 508.679848 319.078303 
L 509.37308 194.327146 
L 509.719696 223.759117 
L 510.066312 300.510088 
L 510.412928 280.802647 
L 510.759544 279.334572 
L 511.106161 265.381985 
L 511.452777 284.25556 
L 512.146009 95.602026 
L 512.492625 136.625919 
L 512.839241 295.283741 
L 513.185857 244.805443 
L 513.532474 237.958341 
L 513.87909 243.748429 
L 514.225706 209.900488 
L 514.572322 158.09505 
L 514.918938 251.5351 
L 515.265554 256.890638 
L 515.61217 249.010011 
L 515.958787 299.335628 
L 516.305403 231.463576 
L 516.652019 125.597738 
L 516.998635 97.786522 
L 517.345251 241.65789 
L 517.691867 269.175492 
L 518.038483 314.932459 
L 518.3851 244.276936 
L 518.731716 276.692037 
L 519.424948 171.495641 
L 519.771564 259.368749 
L 520.11818 230.711922 
L 520.464797 223.301078 
L 520.811413 235.926525 
L 521.158029 220.811222 
L 521.504645 123.46022 
L 522.197877 243.630983 
L 522.544493 294.931403 
L 522.89111 211.098437 
L 523.237726 212.026261 
L 523.584342 217.886817 
L 523.930958 140.818742 
L 524.277574 89.00156 
L 524.62419 116.941967 
L 524.970806 305.020015 
L 525.317423 244.089023 
L 525.664039 271.453944 
L 526.357271 128.216784 
L 526.703887 152.140537 
L 527.050503 264.489396 
L 527.397119 231.968594 
L 527.743736 220.235737 
L 528.090352 234.387982 
L 528.436968 222.279298 
L 528.783584 258.534883 
L 529.1302 202.243007 
L 529.476816 228.879764 
L 529.823432 209.207556 
L 530.170049 258.687562 
L 530.516665 208.773006 
L 530.863281 219.484083 
L 531.209897 138.716458 
L 531.556513 139.303688 
L 532.249745 320.851738 
L 532.596362 206.682467 
L 532.942978 222.373254 
L 533.289594 214.739263 
L 533.63621 126.302414 
L 533.982826 239.144545 
L 534.329442 192.365798 
L 534.676058 307.016598 
L 535.022675 313.288215 
L 535.369291 301.931185 
L 535.715907 313.804977 
L 536.062523 251.323697 
L 536.409139 243.584005 
L 536.755755 308.8605 
L 537.102371 311.197676 
L 537.448988 292.2184 
L 537.795604 314.110337 
L 538.14222 315.554923 
L 538.488836 238.933143 
L 538.835452 316.118664 
L 539.182068 315.731092 
L 539.528684 300.756725 
L 539.875301 301.778505 
L 540.221917 299.065502 
L 540.568533 290.844281 
L 540.915149 196.441174 
L 541.261765 226.061059 
L 541.608381 314.356974 
L 541.954997 307.462893 
L 542.301614 307.744763 
L 542.64823 314.415697 
L 542.994846 299.453074 
L 543.341462 311.338611 
L 543.688078 278.230579 
L 544.034694 318.632009 
L 544.38131 309.835302 
L 544.727927 329.883337 
L 545.074543 325.103284 
L 545.421159 309.471219 
L 545.767775 305.853882 
L 546.114391 319.266217 
L 546.461007 319.090048 
L 546.807623 313.981146 
L 547.15424 313.018089 
L 547.500856 314.60361 
L 547.847472 307.09881 
L 548.194088 310.434277 
L 548.540704 285.629678 
L 549.580553 330.987329 
L 549.927169 326.618338 
L 550.620401 306.51158 
L 550.967017 302.025142 
L 551.313633 321.955731 
L 551.660249 331.140009 
L 552.006866 322.190623 
L 552.353482 321.321522 
L 552.700098 324.363374 
L 553.046714 316.588448 
L 553.39333 333.958714 
L 553.739946 320.734292 
L 554.086563 325.631791 
L 554.433179 332.854721 
L 554.779795 331.915153 
L 555.126411 328.791089 
L 555.473027 332.326214 
L 555.819643 326.477402 
L 556.166259 329.989038 
L 556.512876 328.473985 
L 557.206108 331.750728 
L 557.552724 327.898499 
L 557.89934 331.386646 
L 558.245956 331.128265 
L 558.592572 334.381519 
L 558.939189 332.349703 
L 559.285805 332.514128 
L 559.632421 331.656772 
L 559.979037 331.85643 
L 560.325653 335.168407 
L 560.672269 333.019145 
L 561.018885 333.077868 
L 561.365502 331.926897 
L 561.712118 331.785962 
L 562.058734 332.197023 
L 562.40535 332.913444 
L 562.751966 330.482311 
L 563.098582 333.113102 
L 563.445198 334.686879 
L 563.791815 329.084704 
L 564.138431 332.314469 
L 564.485047 329.777635 
L 564.831663 330.423588 
L 565.178279 333.371483 
L 565.524895 339.196806 
L 566.218128 330.07125 
L 566.564744 332.795998 
L 566.91136 332.114811 
L 567.257976 334.440242 
L 567.604592 333.559397 
L 567.951208 334.557688 
L 568.297824 333.430206 
L 568.644441 333.066124 
L 568.991057 331.093031 
L 569.337673 331.304434 
L 569.684289 330.447078 
L 570.030905 337.869666 
L 570.377521 335.426789 
L 570.724137 331.821196 
L 571.070754 331.98562 
L 571.41737 332.455405 
L 571.763986 332.44366 
L 572.110602 330.752437 
L 572.457218 332.349703 
L 572.803834 332.643318 
L 573.15045 331.151754 
L 573.497067 334.604667 
L 573.843683 334.686879 
L 574.190299 335.673425 
L 574.883531 326.289489 
L 575.230147 337.540817 
L 575.576763 333.171825 
L 575.92338 335.180152 
L 576.269996 333.817778 
L 576.616612 331.70375 
L 577.309844 334.733857 
L 577.65646 335.215386 
L 578.003076 332.678552 
L 578.349693 332.784253 
L 578.696309 333.394973 
L 579.042925 332.678552 
L 579.389541 332.44366 
L 579.736157 337.998856 
L 580.082773 336.483803 
L 580.429389 332.619829 
L 580.776006 333.113102 
L 581.122622 332.514128 
L 581.469238 332.619829 
L 582.16247 337.623029 
L 582.509086 336.953587 
L 582.855702 335.53249 
L 583.202319 333.054379 
L 583.548935 332.244002 
L 583.895551 332.244002 
L 584.242167 332.561106 
L 584.588783 337.059288 
L 584.935399 336.225422 
L 585.282016 332.784253 
L 585.628632 332.349703 
L 585.975248 331.42188 
L 586.321864 332.279236 
L 586.66848 331.903408 
L 587.361712 336.742184 
L 587.708329 331.034308 
L 588.054945 331.997365 
L 588.401561 331.656772 
L 588.748177 336.084486 
L 589.094793 336.248911 
L 589.441409 335.497256 
L 589.788025 336.73044 
L 590.134642 331.903408 
L 590.481258 335.450278 
L 590.827874 335.086195 
L 591.17449 333.019145 
L 591.521106 336.096231 
L 591.867722 335.743893 
L 592.560955 331.55107 
L 592.907571 332.525872 
L 593.254187 331.692005 
L 593.600803 333.571142 
L 593.947419 333.723822 
L 594.294035 331.962131 
L 594.640651 328.802833 
L 595.333884 332.349703 
L 596.027116 333.488929 
L 596.373732 332.666807 
L 596.720348 334.94526 
L 597.066964 334.992238 
L 597.413581 333.371483 
L 597.760197 332.901699 
L 598.106813 330.447078 
L 598.453429 330.329632 
L 598.800045 332.831232 
L 599.146661 331.316178 
L 599.493277 323.165425 
L 600.18651 332.760764 
L 600.879742 331.832941 
L 601.226358 332.807743 
L 601.572974 335.121429 
L 601.91959 333.066124 
L 602.266207 337.822687 
L 602.959439 338.64481 
L 603.306055 338.750511 
L 603.652671 339.07936 
L 603.999287 339.008892 
L 604.345903 340.206842 
L 605.039136 338.92668 
L 605.385752 339.51391 
L 606.078984 339.384719 
L 606.772216 340.465223 
L 607.465449 339.572633 
L 607.812065 339.596122 
L 608.158681 339.490421 
L 608.505297 339.607867 
L 608.851913 339.983694 
L 609.198529 340.523946 
L 609.545146 339.877993 
L 610.584994 339.408209 
L 610.93161 340.805816 
L 611.278226 339.643101 
L 611.624842 340.981985 
L 611.971459 340.629647 
L 612.318075 339.678334 
L 613.011307 339.314252 
L 613.704539 339.760547 
L 614.051155 340.606158 
L 614.397772 339.525655 
L 614.744388 339.79578 
L 615.091004 339.114594 
L 615.784236 339.478676 
L 616.130852 339.784036 
L 616.477468 340.723604 
L 616.824085 339.560888 
L 617.170701 339.408209 
L 617.863933 339.584378 
L 618.210549 339.008892 
L 618.557165 339.631356 
L 618.903782 339.81927 
L 619.250398 339.737057 
L 619.597014 338.950169 
L 620.290246 339.314252 
L 620.636862 338.64481 
L 620.983478 339.936716 
L 621.330095 340.007183 
L 621.676711 339.701824 
L 622.369943 338.586087 
L 622.716559 339.185061 
L 623.063175 339.36123 
L 623.409791 338.633065 
L 623.756408 340.218586 
L 624.103024 340.55918 
L 624.44964 338.950169 
L 624.796256 338.362939 
L 625.142872 338.128047 
L 625.489488 338.292472 
L 626.182721 340.124629 
L 626.529337 338.844468 
L 626.875953 338.703533 
L 627.222569 339.008892 
L 627.569185 338.480385 
L 627.915801 338.914935 
L 628.262417 338.856212 
L 628.609034 339.478676 
L 628.95565 338.750511 
L 629.648882 338.550853 
L 629.995498 337.740475 
L 631.035347 339.020637 
L 631.381963 338.715277 
L 631.728579 338.116302 
L 632.075195 338.586087 
L 632.421811 337.987112 
L 632.768427 337.681752 
L 633.46166 338.903191 
L 633.808276 338.210259 
L 634.501508 337.611285 
L 635.19474 337.282436 
L 635.541356 337.482094 
L 635.887973 338.198515 
L 636.234589 338.480385 
L 636.581205 338.257238 
L 636.927821 337.305925 
L 637.274437 337.341159 
L 637.621053 336.260655 
L 637.967669 320.769526 
L 638.314286 292.124443 
L 638.660902 317.774653 
L 639.007518 318.772944 
L 639.354134 274.448818 
L 639.70075 309.952748 
L 640.047366 309.060158 
L 640.393982 279.980525 
L 640.740599 294.085791 
L 641.087215 318.385372 
L 641.433831 320.417188 
L 641.780447 320.076595 
L 642.473679 313.722765 
L 642.820295 328.826323 
L 643.166912 296.188075 
L 643.513528 324.821414 
L 643.860144 315.367009 
L 644.20676 312.055032 
L 644.553376 334.992238 
L 645.246608 280.27414 
L 645.593225 319.900426 
L 645.939841 312.665751 
L 646.286457 315.531434 
L 646.633073 334.040926 
L 647.326305 303.317048 
L 647.672921 271.794538 
L 648.019538 282.693528 
L 648.366154 329.589722 
L 648.71277 310.974528 
L 649.059386 321.990965 
L 649.752618 297.785341 
L 650.099234 281.025794 
L 650.445851 327.111611 
L 650.792467 316.893808 
L 651.139083 333.876501 
L 651.485699 308.238036 
L 651.832315 306.3589 
L 652.178931 302.81203 
L 652.525548 277.408457 
L 652.872164 281.941873 
L 653.21878 312.242945 
L 653.565396 327.252546 
L 653.912012 302.635861 
L 654.258628 307.028342 
L 654.605244 296.48169 
L 654.951861 279.933547 
L 655.298477 313.605319 
L 655.645093 325.138518 
L 655.991709 309.764834 
L 656.338325 308.531651 
L 656.684941 304.538487 
L 657.031557 309.330284 
L 657.378174 277.361479 
L 657.72479 276.915184 
L 658.071406 312.924132 
L 658.418022 305.020015 
L 659.111254 322.26109 
L 659.804487 295.964928 
L 660.151103 279.299338 
L 660.497719 308.061867 
L 660.844335 310.704403 
L 661.190951 329.777635 
L 661.537567 304.808613 
L 661.884183 302.389225 
L 662.2308 276.962162 
L 662.577416 278.324536 
L 662.924032 315.355265 
L 663.270648 334.51071 
L 663.617264 328.755855 
L 663.96388 330.411844 
L 664.310496 322.519472 
L 664.657113 303.728109 
L 665.003729 320.992673 
L 665.350345 330.400099 
L 665.696961 331.492347 
L 666.043577 319.04307 
L 666.390193 330.881628 
L 666.736809 328.603175 
L 667.083426 316.001218 
L 667.430042 318.538052 
L 667.776658 331.445369 
L 668.123274 330.52929 
L 668.46989 321.897008 
L 668.816506 330.740693 
L 669.163122 322.437259 
L 669.509739 298.595718 
L 669.856355 308.097101 
L 670.202971 329.131682 
L 670.549587 333.723822 
L 670.896203 335.520746 
L 671.242819 332.619829 
L 671.589435 335.027472 
L 671.936052 326.430424 
L 672.282668 337.200224 
L 672.629284 332.173534 
L 672.9759 331.692005 
L 673.322516 334.863048 
L 673.669132 332.995656 
L 674.015748 330.353121 
L 674.362365 322.120155 
L 674.708981 328.532708 
L 675.055597 332.373192 
L 675.402213 330.752437 
L 675.748829 331.39839 
L 676.095445 335.779127 
L 676.442061 332.72553 
L 676.788678 326.900208 
L 677.135294 335.027472 
L 677.48191 335.485512 
L 677.828526 334.311052 
L 678.175142 335.015728 
L 678.521758 335.203641 
L 678.868374 327.346503 
L 679.214991 331.973876 
L 679.561607 335.062706 
L 679.908223 335.039217 
L 680.254839 335.37981 
L 680.601455 332.502383 
L 680.948071 335.109684 
L 681.641304 332.572851 
L 681.98792 339.044126 
L 682.334536 335.779127 
L 682.681152 335.285854 
L 683.027768 331.973876 
L 683.374384 333.547652 
L 684.067617 325.291198 
L 684.760849 328.215603 
L 685.107465 325.197241 
L 685.454081 330.141718 
L 685.800697 333.207059 
L 686.147314 333.782545 
L 686.49393 332.995656 
L 686.840546 340.124629 
L 687.187162 336.049253 
L 687.533778 335.309343 
L 688.22701 334.675134 
L 688.573627 333.46544 
L 689.266859 339.913227 
L 689.613475 335.931807 
L 689.960091 335.579469 
L 690.306707 335.790871 
L 690.653323 335.168407 
L 690.99994 335.003983 
L 691.346556 336.319378 
L 691.693172 336.131465 
L 692.039788 336.448569 
L 692.386404 338.351195 
L 692.73302 335.708659 
L 693.079636 335.109684 
L 693.426253 335.790871 
L 694.119485 338.680043 
L 694.466101 335.567724 
L 694.812717 335.4033 
L 695.159333 335.802616 
L 695.505949 334.957005 
L 695.852566 334.440242 
L 696.199182 339.279018 
L 696.545798 338.480385 
L 696.892414 335.720404 
L 697.23903 335.062706 
L 697.585646 335.978785 
L 698.278879 334.581177 
L 698.625495 338.128047 
L 698.972111 339.173317 
L 699.318727 337.810943 
L 699.665343 337.31767 
L 700.011959 336.178443 
L 700.358575 338.539108 
L 700.705192 339.737057 
L 701.398424 337.893155 
L 701.74504 339.149827 
L 702.091656 337.129756 
L 702.438272 338.680043 
L 702.784888 336.918353 
L 703.131505 338.938425 
L 703.478121 337.282436 
L 703.824737 339.478676 
L 704.171353 338.715277 
L 704.864585 338.233748 
L 705.211201 337.893155 
L 705.557818 337.998856 
L 705.904434 335.426789 
L 706.25105 337.916644 
L 706.597666 338.398173 
L 706.944282 338.386428 
L 707.290898 337.998856 
L 707.637514 338.715277 
L 707.984131 338.961914 
L 708.330747 337.728731 
L 708.677363 339.443442 
L 709.023979 338.985403 
L 709.370595 338.762256 
L 709.717211 338.691788 
L 710.063827 338.433407 
L 710.410444 338.527364 
L 710.75706 337.623029 
L 711.103676 338.950169 
L 711.450292 338.515619 
L 711.796908 339.290763 
L 712.143524 338.409918 
L 712.49014 338.64481 
L 712.836757 338.362939 
L 713.183373 335.227131 
L 713.529989 338.456896 
L 713.876605 338.633065 
L 714.223221 338.222004 
L 714.569837 336.695206 
L 714.916453 337.799198 
L 715.26307 338.49213 
L 715.609686 335.826105 
L 715.956302 336.107976 
L 716.302918 338.03409 
L 717.342767 337.282436 
L 717.689383 337.587795 
L 718.035999 334.816069 
L 718.382615 330.96384 
L 718.729231 333.371483 
L 719.075847 338.785745 
L 719.422463 335.180152 
L 719.76908 336.57776 
L 720.115696 336.354612 
L 720.462312 337.188479 
L 720.808928 341.357812 
L 721.155544 341.357812 
L 721.50216 340.629647 
L 721.848776 337.282436 
L 722.542009 335.884828 
L 722.888625 333.92348 
L 723.235241 338.727022 
L 723.581857 337.822687 
L 723.928473 337.31767 
L 724.275089 335.520746 
L 724.621706 336.695206 
L 724.968322 336.648227 
L 725.314938 335.509001 
L 725.661554 333.723822 
L 726.00817 336.695206 
L 726.354786 335.086195 
L 726.701402 334.698623 
L 727.048019 336.519037 
L 727.394635 334.545944 
L 727.741251 331.175243 
L 728.087867 336.988821 
L 728.434483 337.106267 
L 728.781099 337.482094 
L 729.127715 336.284145 
L 729.474332 337.552562 
L 729.820948 335.96704 
L 730.167564 320.111828 
L 730.51418 324.19895 
L 730.860796 333.876501 
L 731.554028 336.389846 
L 731.900645 333.46544 
L 732.247261 337.211968 
L 732.593877 331.926897 
L 732.940493 339.067615 
L 733.287109 336.589504 
L 733.633725 330.869883 
L 733.980341 336.918353 
L 734.326958 336.742184 
L 734.673574 331.233966 
L 735.02019 332.925189 
L 735.366806 321.838285 
L 735.713422 335.003983 
L 736.060038 335.955296 
L 736.406654 334.827814 
L 736.753271 334.240584 
L 737.099887 336.342868 
L 737.446503 321.497691 
L 737.793119 339.643101 
L 738.139735 338.304216 
L 738.486351 336.319378 
L 738.832967 332.819487 
L 739.179584 337.658263 
L 739.5262 336.436824 
L 739.872816 336.55427 
L 740.219432 335.602958 
L 740.566048 337.364648 
L 740.912664 337.834432 
L 741.25928 338.809234 
L 741.605897 338.081069 
L 741.952513 332.302725 
L 742.299129 328.861556 
L 742.645745 335.121429 
L 742.992361 336.953587 
L 743.338977 337.141501 
L 743.685593 338.175025 
L 744.03221 337.975367 
L 744.378826 337.258947 
L 744.725442 331.280944 
L 745.072058 336.213677 
L 745.418674 337.951878 
L 745.76529 337.987112 
L 746.111906 336.800907 
L 746.458523 334.463731 
L 746.805139 336.85963 
L 747.151755 327.546161 
L 747.498371 331.128265 
L 747.844987 336.519037 
L 748.191603 336.683461 
L 748.538219 331.210477 
L 749.231452 327.546161 
L 749.578068 313.311704 
L 749.924684 310.481255 
L 750.2713 330.329632 
L 750.617916 326.54787 
L 750.964533 326.430424 
L 751.311149 328.932024 
L 751.657765 313.018089 
L 752.004381 313.382172 
L 752.350997 272.475725 
L 752.697613 272.088153 
L 753.044229 323.365083 
L 753.390846 333.571142 
L 753.737462 323.036234 
L 754.084078 337.576051 
L 754.430694 299.276905 
L 754.77731 289.787267 
L 755.123926 320.475911 
L 755.470542 321.450713 
L 755.817159 323.341594 
L 756.163775 333.982203 
L 756.510391 319.524598 
L 756.857007 273.121678 
L 757.203623 266.28632 
L 757.550239 319.148771 
L 757.896855 334.040926 
L 758.590088 315.4962 
L 758.936704 312.595283 
L 759.28332 272.076408 
L 759.629936 280.86137 
L 759.976552 331.445369 
L 760.323168 320.616846 
L 760.669785 317.574994 
L 761.016401 315.860283 
L 761.363017 332.74902 
L 761.709633 262.3049 
L 762.056249 267.167165 
L 762.402865 328.427006 
L 762.749481 324.586522 
L 763.442714 308.625608 
L 763.78933 321.380245 
L 764.135946 316.917297 
L 764.482562 265.616877 
L 764.829178 314.427441 
L 765.175794 329.272618 
L 765.522411 320.734292 
L 765.869027 271.982451 
L 766.215643 311.702694 
L 766.562259 249.303626 
L 766.908875 255.481286 
L 767.255491 299.711456 
L 767.602107 308.508162 
L 768.29534 332.936933 
L 768.641956 314.615355 
L 768.988572 247.776828 
L 769.335188 306.687749 
L 769.681804 314.873736 
L 770.02842 319.935659 
L 770.375037 293.956601 
L 771.068269 304.162659 
L 771.414885 309.999726 
L 771.761501 250.771701 
L 772.108117 285.747124 
L 772.454733 303.258325 
L 772.80135 266.579935 
L 773.147966 284.631387 
L 773.494582 261.741159 
L 773.841198 283.644841 
L 774.187814 214.152033 
L 774.881046 321.168842 
L 775.227663 255.880603 
L 775.574279 322.190623 
L 775.920895 242.409545 
L 776.267511 224.076222 
L 776.614127 288.483616 
L 776.960743 173.28082 
L 777.307359 268.130222 
L 777.653976 255.880603 
L 778.000592 248.669417 
L 778.693824 265.769557 
L 779.04044 208.080074 
L 779.733672 317.621973 
L 780.426905 279.322827 
L 780.773521 290.632879 
L 781.120137 184.943209 
L 781.466753 189.582327 
L 782.159985 300.204729 
L 782.506602 294.755234 
L 782.853218 276.609824 
L 783.199834 247.812061 
L 783.54645 188.795439 
L 784.239682 265.652111 
L 784.586299 236.06746 
L 784.932915 293.369371 
L 785.279531 282.18851 
L 785.626147 249.714687 
L 785.972763 201.397396 
L 786.319379 266.744359 
L 786.665995 278.371515 
L 787.012612 263.596806 
L 787.359228 267.00274 
L 787.705844 257.994631 
L 788.05246 245.874202 
L 788.399076 169.851396 
L 788.745692 176.745478 
L 789.092308 213.388634 
L 789.438925 282.693528 
L 789.785541 318.115246 
L 790.132157 327.616629 
L 790.478773 309.776579 
L 790.825389 263.866932 
L 791.172005 313.898934 
L 791.518621 321.579904 
L 791.865238 326.747528 
L 792.211854 325.443877 
L 792.55847 317.856865 
L 792.905086 307.38068 
L 793.251702 259.157346 
L 793.598318 269.433873 
L 793.944934 314.709312 
L 794.291551 326.817996 
L 794.638167 334.863048 
L 795.678015 318.068268 
L 796.024631 299.464819 
L 796.371247 326.559615 
L 796.717864 322.366792 
L 797.06448 321.027907 
L 797.757712 317.081721 
L 798.104328 280.015759 
L 798.450944 333.242293 
L 798.79756 332.431915 
L 799.144177 328.239093 
L 799.490793 326.606593 
L 799.837409 326.500892 
L 800.184025 326.747528 
L 800.530641 328.591431 
L 800.877257 295.401187 
L 801.223873 285.594444 
L 801.57049 323.811378 
L 801.917106 318.103501 
L 802.610338 330.68197 
L 802.956954 327.628373 
L 803.30357 320.276253 
L 803.650186 327.980711 
L 803.996803 319.689023 
L 804.690035 333.077868 
L 805.383267 320.95744 
L 805.729883 312.019798 
L 806.076499 334.886537 
L 806.423116 333.888246 
L 806.769732 320.37021 
L 807.116348 327.757564 
L 807.462964 331.081286 
L 807.80958 335.649936 
L 808.156196 321.051396 
L 808.502812 328.579686 
L 808.849429 329.448787 
L 809.196045 331.656772 
L 809.542661 331.645027 
L 809.889277 326.947186 
L 810.235893 318.972602 
L 810.582509 315.449222 
L 811.275742 331.104775 
L 811.622358 328.262582 
L 811.968974 327.146845 
L 812.31559 325.643536 
L 812.662206 325.361665 
L 813.008822 337.341159 
L 813.355438 332.29098 
L 813.702055 331.680261 
L 814.048671 334.087904 
L 814.395287 333.430206 
L 814.741903 331.797707 
L 815.088519 331.151754 
L 815.435135 335.68517 
L 815.781752 333.629865 
L 816.128368 332.854721 
L 816.474984 331.468858 
L 816.8216 333.841268 
L 817.168216 332.29098 
L 817.514832 331.762473 
L 817.861448 338.49213 
L 818.208065 334.346285 
L 818.554681 334.252329 
L 818.901297 333.747311 
L 819.247913 333.817778 
L 819.594529 332.960422 
L 819.941145 333.007401 
L 820.287761 338.010601 
L 820.634378 334.698623 
L 820.980994 333.665099 
L 821.32761 334.628156 
L 821.674226 334.346285 
L 822.020842 333.629865 
L 822.367458 335.708659 
L 822.714074 333.254037 
L 823.060691 332.713786 
L 823.407307 333.148336 
L 823.753923 334.933515 
L 824.100539 333.876501 
L 824.447155 333.371483 
L 824.793771 337.623029 
L 825.140387 334.874792 
L 825.487004 335.661681 
L 825.83362 335.003983 
L 826.180236 336.295889 
L 826.526852 335.943551 
L 826.873468 337.411626 
L 827.220084 335.826105 
L 827.5667 332.866466 
L 827.913317 338.045835 
L 828.259933 333.524163 
L 828.606549 334.592922 
L 828.953165 332.819487 
L 829.299781 332.960422 
L 829.993013 337.305925 
L 830.33963 335.109684 
L 830.686246 335.779127 
L 831.032862 338.715277 
L 831.379478 337.153245 
L 831.726094 337.024055 
L 832.07271 334.980494 
L 832.419326 337.681752 
L 832.765943 338.727022 
L 833.112559 338.456896 
L 833.459175 336.73044 
L 833.805791 336.906609 
L 834.152407 336.601249 
L 834.499023 336.648227 
L 834.845639 328.814578 
L 835.192256 339.842759 
L 835.538872 337.799198 
L 835.885488 335.003983 
L 836.232104 335.849594 
L 836.57872 335.050961 
L 836.925336 331.809451 
L 837.271952 332.960422 
L 837.618569 335.790871 
L 837.965185 334.722113 
L 838.658417 335.238875 
L 839.005033 333.935224 
L 839.351649 327.933733 
L 839.698265 330.599758 
L 840.044882 335.743893 
L 840.391498 333.301016 
L 840.738114 335.602958 
L 841.08473 335.849594 
L 841.431346 334.686879 
L 841.777962 331.844685 
L 842.124578 330.200441 
L 842.471195 333.888246 
L 842.817811 334.710368 
L 843.164427 333.864757 
L 843.857659 341.357812 
L 844.204275 341.357812 
L 844.550891 340.336032 
L 845.244124 334.710368 
L 845.59074 333.759055 
L 845.937356 336.143209 
L 846.283972 337.047544 
L 846.630588 336.248911 
L 846.977204 334.05267 
L 847.323821 329.6367 
L 847.670437 335.027472 
L 848.017053 333.347994 
L 848.363669 332.831232 
L 848.710285 334.757346 
L 849.056901 333.958714 
L 849.403518 336.812652 
L 850.09675 333.31276 
L 850.789982 333.218804 
L 851.136598 332.455405 
L 851.483214 333.33625 
L 851.829831 324.022781 
L 852.176447 335.649936 
L 852.523063 332.702041 
L 852.869679 332.326214 
L 853.216295 332.384937 
L 853.562911 334.921771 
L 853.909527 335.520746 
L 854.256144 337.763964 
L 854.60276 333.383228 
L 854.949376 337.176734 
L 855.295992 334.886537 
L 855.642608 322.672151 
L 856.33584 335.83785 
L 856.682457 325.314687 
L 857.029073 329.554488 
L 857.375689 331.680261 
L 857.722305 335.53249 
L 858.068921 332.103067 
L 858.415537 332.760764 
L 858.762153 332.44366 
L 859.10877 337.529072 
L 859.802002 331.010819 
L 860.148618 335.168407 
L 860.495234 331.198732 
L 860.84185 335.544235 
L 861.188466 322.542961 
L 861.535083 334.451987 
L 861.881699 330.658481 
L 862.228315 331.715495 
L 862.574931 333.371483 
L 862.921547 330.317887 
L 863.268163 331.2692 
L 863.614779 331.069542 
L 863.961396 323.094957 
L 864.308012 330.400099 
L 864.654628 317.069977 
L 865.001244 330.176952 
L 865.34786 326.958931 
L 865.694476 319.289706 
L 866.041092 306.94613 
L 866.387709 305.900861 
L 866.734325 332.197023 
L 867.080941 331.668516 
L 867.427557 321.227565 
L 867.774173 330.775927 
L 868.120789 314.192549 
L 868.467405 330.07125 
L 868.814022 290.574156 
L 869.160638 330.317887 
L 869.507254 325.725748 
L 869.85387 328.955513 
L 870.547102 314.650589 
L 870.893718 292.488526 
L 871.240335 333.606375 
L 871.586951 325.314687 
L 871.933567 329.589722 
L 872.280183 319.771235 
L 872.626799 313.840211 
L 872.973415 320.511145 
L 873.320031 283.680074 
L 873.666648 266.56819 
L 874.013264 316.717639 
L 874.35988 319.113537 
L 875.399728 300.063794 
L 875.746344 219.143489 
L 876.092961 258.863731 
L 876.439577 328.943769 
L 876.786193 317.434059 
L 877.132809 316.858574 
L 877.479425 314.638844 
L 877.826041 303.187858 
L 878.172657 278.371515 
L 878.519274 274.648476 
L 878.86589 200.446083 
L 879.212506 311.961075 
L 879.559122 316.846829 
L 879.905738 316.623682 
L 880.252354 324.727457 
L 880.59897 220.482374 
L 880.945587 216.31304 
L 881.292203 291.736871 
L 881.638819 293.67473 
L 881.985435 326.794507 
L 882.332051 310.046705 
L 882.678667 280.802647 
L 883.025284 185.671375 
L 883.3719 230.206904 
L 883.718516 314.509653 
L 884.065132 327.745819 
L 884.411748 292.758651 
L 884.758364 312.313413 
L 885.10498 269.022812 
L 885.451597 248.751629 
L 885.798213 301.390934 
L 886.144829 279.346316 
L 886.491445 285.876315 
L 886.838061 301.50838 
L 887.184677 304.256616 
L 887.531293 263.690763 
L 887.87791 146.279981 
L 888.224526 115.391679 
L 888.571142 295.718291 
L 888.917758 268.623495 
L 889.264374 288.201746 
L 889.957606 243.57226 
L 890.304223 128.228529 
L 890.650839 264.512885 
L 890.997455 260.872058 
L 891.344071 261.494522 
L 891.690687 305.630735 
L 892.037303 246.496666 
L 892.730536 107.675476 
L 893.077152 139.397645 
L 893.770384 313.346938 
L 894.117 245.568842 
L 894.463616 252.674326 
L 894.810232 254.764865 
L 895.156849 141.006655 
L 895.503465 132.773689 
L 895.850081 238.204977 
L 896.196697 271.818027 
L 896.543313 282.024086 
L 896.889929 229.807587 
L 897.236545 224.170179 
L 897.583162 73.604387 
L 897.929778 135.240056 
L 898.276394 302.036887 
L 898.62301 266.532956 
L 898.969626 255.375585 
L 899.316242 231.475321 
L 899.662858 221.151816 
L 900.009475 123.166605 
L 900.356091 289.282249 
L 900.702707 221.504154 
L 901.049323 230.91158 
L 901.395939 234.775554 
L 901.742555 212.695703 
L 902.089171 213.494336 
L 902.435788 135.063887 
L 902.782404 104.351754 
L 903.475636 229.819332 
L 903.822252 233.835986 
L 904.168868 301.48489 
L 904.862101 124.329321 
L 905.555333 305.219674 
L 905.901949 246.649346 
L 906.248565 218.885108 
L 906.595181 214.786242 
L 906.941797 203.49968 
L 907.288414 98.937492 
L 908.328262 230.065968 
L 908.674878 259.357005 
L 909.36811 210.652142 
L 909.714727 131.235147 
L 910.061343 271.395221 
L 910.407959 315.085139 
L 910.754575 243.771918 
L 911.101191 232.908162 
L 911.447807 285.664912 
L 911.794423 263.279702 
L 912.14104 155.382047 
L 912.487656 168.195408 
L 913.180888 313.8637 
L 913.527504 249.397583 
L 913.87412 238.756974 
L 914.220737 210.382016 
L 914.567353 157.390374 
L 914.913969 252.627348 
L 915.260585 241.129383 
L 915.607201 298.525251 
L 915.953817 313.370427 
L 916.64705 290.550666 
L 916.993666 212.014516 
L 917.340282 251.910927 
L 917.686898 325.103284 
L 918.033514 319.677278 
L 918.38013 300.427876 
L 918.726746 305.818648 
L 919.073363 301.179531 
L 919.419979 219.754208 
L 919.766595 296.669604 
L 920.113211 293.275414 
L 920.459827 298.443039 
L 920.806443 320.252764 
L 921.499676 309.823557 
L 921.846292 260.848569 
L 922.192908 327.205568 
L 922.539524 326.817996 
L 922.88614 329.542743 
L 923.925989 303.058667 
L 924.272605 292.688184 
L 924.619221 295.013615 
L 924.965837 320.922206 
L 925.312453 318.925624 
L 925.659069 311.432568 
L 926.005685 320.017872 
L 926.352302 324.78618 
L 926.698918 300.674513 
L 927.39215 287.297412 
L 928.085382 323.61172 
L 928.431998 330.470567 
L 928.778615 317.434059 
L 929.471847 311.538269 
L 929.818463 329.155172 
L 930.165079 330.317887 
L 930.511695 321.920497 
L 930.858311 329.519254 
L 931.204928 319.6303 
L 931.551544 286.122952 
L 931.89816 289.200037 
L 932.244776 313.969402 
L 932.591392 320.264508 
L 932.938008 329.824614 
L 933.284624 321.08663 
L 933.631241 321.97922 
L 933.977857 304.338829 
L 934.324473 318.632009 
L 934.671089 327.769309 
L 935.364321 324.363374 
L 935.710937 330.611502 
L 936.057554 322.355047 
L 936.40417 301.132552 
L 936.750786 301.132552 
L 937.097402 325.866683 
L 937.444018 327.604884 
L 937.790634 327.957222 
L 938.13725 318.819922 
L 938.483867 333.277527 
L 938.830483 321.180587 
L 939.177099 329.413553 
L 939.523715 330.012527 
L 939.870331 334.581177 
L 940.216947 334.628156 
L 940.563563 332.478894 
L 940.91018 333.935224 
L 941.256796 331.915153 
L 941.603412 335.473767 
L 941.950028 332.455405 
L 942.296644 331.11652 
L 942.64326 329.237384 
L 942.989876 332.244002 
L 943.336493 328.473985 
L 943.683109 318.866901 
L 944.029725 337.352903 
L 944.376341 331.915153 
L 944.722957 332.29098 
L 945.069573 334.440242 
L 945.416189 333.453696 
L 945.762806 333.524163 
L 946.109422 334.07616 
L 946.456038 331.010819 
L 946.802654 334.874792 
L 947.495886 332.302725 
L 947.842503 329.671934 
L 948.189119 333.230548 
L 948.535735 334.405008 
L 948.882351 337.435116 
L 949.228967 333.817778 
L 949.575583 333.606375 
L 949.922199 335.332832 
L 950.268816 336.460314 
L 950.615432 333.277527 
L 950.962048 333.453696 
L 951.308664 335.191897 
L 951.65528 331.891664 
L 952.001896 332.584595 
L 952.348512 330.059506 
L 952.695129 333.477185 
L 953.041745 340.429989 
L 953.388361 341.357812 
L 953.734977 335.450278 
L 954.081593 335.144918 
L 954.428209 332.337959 
L 954.774825 332.220513 
L 955.121442 325.948895 
L 955.468058 331.457113 
L 955.814674 334.79258 
L 956.16129 332.772509 
L 956.507906 327.792798 
L 956.854522 336.413335 
L 957.201138 336.530781 
L 957.547755 333.876501 
L 957.894371 333.477185 
L 958.240987 329.836358 
L 958.587603 335.015728 
L 958.934219 332.619829 
L 959.627451 334.275818 
L 959.974068 334.733857 
L 960.320684 336.659972 
L 960.6673 331.433624 
L 961.013916 331.022563 
L 961.360532 332.349703 
L 961.707148 337.329414 
L 962.053764 332.255746 
L 962.400381 335.015728 
L 962.746997 333.394973 
L 963.093613 332.972167 
L 963.440229 336.800907 
L 963.786845 330.176952 
L 964.133461 333.500674 
L 964.480077 333.277527 
L 964.826694 336.037508 
L 965.17331 333.7708 
L 965.519926 332.784253 
L 965.866542 337.505583 
L 966.213158 333.441951 
L 966.559774 335.309343 
L 966.90639 331.621538 
L 967.253007 332.537617 
L 967.599623 335.391555 
L 967.946239 340.054162 
L 968.292855 332.220513 
L 968.639471 332.631574 
L 968.986087 335.99053 
L 969.332703 331.363157 
L 969.67932 335.579469 
L 970.025936 333.406717 
L 970.372552 327.616629 
L 970.719168 325.620046 
L 971.065784 331.304434 
L 971.4124 330.83465 
L 971.759016 333.723822 
L 972.105633 331.633282 
L 972.452249 335.309343 
L 973.492097 322.26109 
L 973.838713 331.339667 
L 974.531946 337.31767 
L 974.878562 331.539326 
L 975.225178 335.109684 
L 975.571794 330.83465 
L 975.91841 335.415044 
L 976.265026 331.316178 
L 976.611642 331.903408 
L 976.958259 330.09474 
L 977.304875 334.123138 
L 977.651491 332.936933 
L 977.998107 331.175243 
L 978.691339 333.7708 
L 979.037955 329.143427 
L 979.384572 332.431915 
L 979.731188 332.972167 
L 980.077804 332.537617 
L 980.771036 334.416753 
L 981.117652 334.968749 
L 981.464269 329.014236 
L 981.810885 330.893373 
L 982.157501 335.767382 
L 982.504117 332.972167 
L 982.850733 333.888246 
L 983.197349 328.051179 
L 983.543965 327.769309 
L 983.890582 331.891664 
L 984.237198 333.089613 
L 984.583814 328.15688 
L 984.93043 337.634774 
L 985.277046 315.766326 
L 985.623662 332.572851 
L 985.970278 331.879919 
L 986.316895 334.170116 
L 986.663511 330.118229 
L 987.010127 336.025763 
L 987.356743 326.336467 
L 987.703359 321.262799 
L 988.396591 332.948678 
L 988.743208 323.036234 
L 989.089824 323.776144 
L 989.43644 292.629461 
L 989.783056 294.027068 
L 990.129672 285.71189 
L 990.822904 318.796433 
L 991.169521 304.374062 
L 991.516137 297.573938 
L 991.862753 301.167786 
L 992.209369 271.970707 
L 992.555985 282.728762 
L 992.902601 331.762473 
L 993.249217 329.296107 
L 993.595834 325.162007 
L 993.94245 324.727457 
L 994.289066 318.15048 
L 994.635682 327.240801 
L 994.982298 310.786615 
L 995.328914 326.019363 
L 996.022147 317.574994 
L 996.368763 304.221382 
L 996.715379 324.833158 
L 997.408611 332.948678 
L 997.755227 324.78618 
L 998.101843 328.121647 
L 998.44846 328.333049 
L 998.795076 319.712512 
L 999.141692 302.624117 
L 999.488308 235.292316 
L 999.834924 318.714221 
L 1000.18154 307.415914 
L 1000.528156 310.387298 
L 1000.874773 307.850464 
L 1001.221389 303.105645 
L 1001.568005 293.98009 
L 1001.914621 215.831511 
L 1002.261237 249.221414 
L 1002.607853 306.311922 
L 1002.954469 308.543396 
L 1003.301086 320.605102 
L 1003.994318 300.439621 
L 1004.340934 278.547684 
L 1004.68755 108.509343 
L 1005.380782 287.332645 
L 1005.727399 316.341811 
L 1006.420631 293.404604 
L 1006.767247 186.528731 
L 1007.113863 186.000224 
L 1007.460479 284.901513 
L 1007.807095 295.30723 
L 1008.153712 285.371297 
L 1008.500328 288.741998 
L 1008.846944 278.982234 
L 1009.19356 177.086071 
L 1009.540176 211.709156 
L 1009.886792 288.765487 
L 1010.233408 294.731744 
L 1010.580025 289.493652 
L 1010.926641 317.574994 
L 1011.273257 309.647388 
L 1011.619873 181.408084 
L 1011.966489 281.742215 
L 1012.313105 311.3621 
L 1012.659721 299.535286 
L 1013.006338 312.031542 
L 1013.352954 305.219674 
L 1013.69957 291.008706 
L 1014.046186 89.682746 
L 1014.392802 125.926587 
L 1014.739418 264.900457 
L 1015.086035 255.704434 
L 1015.432651 260.989504 
L 1015.779267 270.537865 
L 1016.125883 289.857735 
L 1016.472499 276.01085 
L 1016.819115 179.91652 
L 1017.165731 300.604045 
L 1017.512348 318.021289 
L 1017.858964 271.947218 
L 1018.20558 243.619239 
L 1018.552196 257.325189 
L 1018.898812 122.497163 
L 1019.245428 249.080478 
L 1019.592044 187.926338 
L 1019.938661 226.765735 
L 1020.285277 171.131558 
L 1020.631893 276.809483 
L 1021.325125 144.400845 
L 1021.671741 198.426012 
L 1022.364974 261.788137 
L 1022.71159 231.874637 
L 1023.058206 277.173565 
L 1023.404822 200.892378 
L 1023.751438 176.604542 
L 1024.098054 141.60563 
L 1024.44467 248.258356 
L 1024.791287 243.360857 
L 1025.137903 208.996153 
L 1025.484519 257.689271 
L 1025.831135 230.512263 
L 1026.177751 96.35368 
L 1026.524367 159.868485 
L 1026.870983 270.890203 
L 1027.2176 251.182762 
L 1027.564216 218.896852 
L 1027.910832 241.740102 
L 1028.257448 224.910088 
L 1028.604064 255.986304 
L 1028.95068 118.691912 
L 1029.297296 237.629492 
L 1029.643913 222.525934 
L 1029.990529 228.445213 
L 1030.337145 241.458232 
L 1030.683761 211.579966 
L 1031.030377 124.399789 
L 1031.376993 95.836918 
L 1031.723609 280.920093 
L 1032.070226 264.595097 
L 1032.416842 190.251769 
L 1032.763458 275.388386 
L 1033.110074 189.229989 
L 1033.45669 232.109529 
L 1033.803306 131.610974 
L 1034.149922 228.421724 
L 1034.496539 214.657051 
L 1034.843155 194.303657 
L 1035.536387 250.231449 
L 1035.883003 94.709436 
L 1036.229619 136.625919 
L 1036.576235 238.792207 
L 1036.922852 230.935069 
L 1037.269468 294.84919 
L 1037.616084 257.419145 
L 1037.9627 238.604294 
L 1038.309316 204.991244 
L 1038.655932 148.499711 
L 1039.002548 225.7557 
L 1039.349165 229.455249 
L 1039.695781 256.56179 
L 1040.042397 227.587858 
L 1040.389013 212.355109 
L 1041.082245 112.655187 
L 1041.428861 164.108286 
L 1041.775478 288.906422 
L 1042.122094 293.0875 
L 1042.46871 311.925841 
L 1042.815326 301.026851 
L 1043.161942 230.688432 
L 1043.508558 230.711922 
L 1043.855174 298.39606 
L 1044.201791 321.356756 
L 1044.548407 313.511362 
L 1045.241639 287.19171 
L 1045.588255 207.563312 
L 1046.281488 307.873954 
L 1046.628104 306.863918 
L 1046.97472 306.558558 
L 1047.321336 302.694584 
L 1047.667952 292.629461 
L 1048.014568 243.971577 
L 1048.361184 253.519938 
L 1048.707801 303.963001 
L 1049.054417 316.377045 
L 1049.401033 313.065067 
L 1049.747649 315.331776 
L 1050.094265 294.614298 
L 1050.440881 253.837042 
L 1050.787497 254.741376 
L 1051.134114 289.200037 
L 1051.48073 293.886133 
L 1051.827346 294.344173 
L 1052.173962 301.848973 
L 1052.520578 306.629026 
L 1052.867194 286.686692 
L 1053.21381 313.992891 
L 1053.560427 310.18764 
L 1053.907043 262.070008 
L 1054.253659 320.170551 
L 1054.600275 313.076812 
L 1054.946891 317.081721 
L 1055.293507 315.413988 
L 1055.640123 320.393699 
L 1055.98674 323.45904 
L 1056.333356 318.725965 
L 1057.026588 322.472493 
L 1057.373204 330.012527 
L 1057.71982 315.378754 
L 1058.066436 314.039869 
L 1058.413053 320.65208 
L 1058.759669 315.766326 
L 1059.106285 321.709094 
L 1059.452901 329.765891 
L 1059.799517 314.721056 
L 1060.146133 294.72 
L 1060.492749 328.133391 
L 1060.839366 319.360174 
L 1061.532598 330.541034 
L 1061.879214 330.153463 
L 1062.919062 319.383663 
L 1063.265679 333.195314 
L 1063.612295 331.997365 
L 1063.958911 329.836358 
L 1064.305527 330.235675 
L 1064.652143 325.267708 
L 1064.998759 326.876719 
L 1065.345375 325.009327 
L 1065.691992 318.549796 
L 1066.038608 331.527581 
L 1066.73184 327.839776 
L 1067.078456 331.574559 
L 1067.425072 320.100084 
L 1067.771688 327.205568 
L 1068.118305 330.799416 
L 1068.464921 337.01231 
L 1068.811537 332.384937 
L 1069.158153 331.093031 
L 1069.504769 330.799416 
L 1069.851385 327.510927 
L 1070.198001 334.064415 
L 1070.544618 314.216038 
L 1070.891234 335.368066 
L 1071.23785 335.68517 
L 1071.584466 328.7676 
L 1071.931082 335.920062 
L 1072.277698 332.619829 
L 1072.624314 336.025763 
L 1072.970931 334.123138 
L 1073.317547 334.604667 
L 1073.664163 333.806034 
L 1074.010779 335.168407 
L 1074.357395 333.782545 
L 1074.704011 331.327923 
L 1075.050627 334.616411 
L 1075.397244 334.957005 
L 1075.74386 312.125499 
L 1076.090476 334.545944 
L 1076.437092 327.59314 
L 1076.783708 329.366574 
L 1077.47694 334.651645 
L 1077.823557 335.050961 
L 1078.170173 329.448787 
L 1078.516789 332.420171 
L 1078.863405 330.435333 
L 1079.210021 332.678552 
L 1079.556637 336.143209 
L 1079.903254 330.188696 
L 1080.24987 330.047761 
L 1080.943102 336.331123 
L 1081.289718 332.913444 
L 1081.636334 331.621538 
L 1081.98295 327.616629 
L 1083.022799 331.586304 
L 1083.369415 332.279236 
L 1083.716031 330.705459 
L 1084.062647 334.346285 
L 1084.409263 334.675134 
L 1084.75588 335.555979 
L 1085.102496 335.368066 
L 1085.449112 336.953587 
L 1085.795728 335.802616 
L 1086.142344 335.790871 
L 1086.48896 328.849812 
L 1086.835576 339.889737 
L 1087.528809 335.53249 
L 1087.875425 336.495547 
L 1088.222041 335.673425 
L 1088.568657 335.602958 
L 1088.915273 334.874792 
L 1089.261889 336.11972 
L 1089.608506 331.668516 
L 1090.301738 338.515619 
L 1090.648354 335.955296 
L 1090.99497 334.957005 
L 1091.341586 335.285854 
L 1091.688202 334.405008 
L 1092.034819 334.322796 
L 1092.381435 325.772726 
L 1092.728051 335.09794 
L 1093.074667 333.500674 
L 1093.421283 335.884828 
L 1093.767899 332.420171 
L 1094.114515 325.349921 
L 1094.461132 326.911953 
L 1094.807748 334.886537 
L 1095.154364 333.759055 
L 1095.50098 333.594631 
L 1095.847596 333.735566 
L 1096.194212 328.814578 
L 1096.540828 321.720839 
L 1096.887445 332.737275 
L 1097.234061 333.453696 
L 1097.580677 330.693714 
L 1097.927293 324.011036 
L 1098.273909 335.215386 
L 1098.620525 335.039217 
L 1098.967141 332.032599 
L 1099.313758 334.334541 
L 1099.660374 330.670225 
L 1100.00699 330.505801 
L 1100.353606 331.891664 
L 1100.700222 332.173534 
L 1101.046838 330.881628 
L 1101.393454 332.314469 
L 1101.740071 332.326214 
L 1102.086687 327.616629 
L 1102.433303 327.076377 
L 1102.779919 334.769091 
L 1103.126535 333.524163 
L 1103.473151 327.910244 
L 1103.819767 331.680261 
L 1104.166384 330.541034 
L 1104.513 325.115029 
L 1104.859616 330.259164 
L 1105.206232 331.527581 
L 1105.552848 324.469076 
L 1106.24608 335.955296 
L 1106.592697 335.25062 
L 1106.939313 326.911953 
L 1107.285929 325.561323 
L 1107.632545 304.796868 
L 1107.979161 332.326214 
L 1108.325777 328.192114 
L 1108.672393 326.747528 
L 1109.01901 331.574559 
L 1109.365626 331.70375 
L 1109.712242 333.383228 
L 1110.058858 332.373192 
L 1110.405474 331.809451 
L 1110.75209 334.804325 
L 1111.098706 330.047761 
L 1111.445323 327.076377 
L 1111.791939 327.546161 
L 1112.138555 331.774218 
L 1113.178403 316.471002 
L 1113.52502 310.539978 
L 1113.871636 312.360391 
L 1114.564868 332.87821 
L 1114.911484 334.79258 
L 1115.2581 334.863048 
L 1115.604716 327.910244 
L 1115.951333 309.858791 
L 1116.297949 301.94293 
L 1116.644565 327.475694 
L 1116.991181 325.126773 
L 1117.337797 316.893808 
L 1117.684413 332.901699 
L 1118.031029 334.35803 
L 1118.377646 322.56645 
L 1118.724262 314.744545 
L 1119.070878 317.481038 
L 1119.417494 318.232692 
L 1119.76411 333.782545 
L 1120.110726 327.029399 
L 1120.457342 325.702259 
L 1120.803959 323.235892 
L 1121.150575 315.695858 
L 1121.497191 313.828467 
L 1121.843807 328.579686 
L 1122.883655 310.939295 
L 1123.230272 325.937151 
L 1123.576888 315.226074 
L 1123.923504 319.383663 
L 1124.27012 327.510927 
L 1124.963352 298.54874 
L 1124.963352 298.54874 
" clip-path="url(#p3b21982738)" style="fill: none; stroke: #008080; stroke-width: 1.5; stroke-linecap: square"/>
   </g>
   <g id="patch_3">
    <path d="M 59.690625 356.477812 
L 59.690625 23.837812 
" style="fill: none; stroke: #000000; stroke-width: 0.8; stroke-linejoin: miter; stroke-linecap: square"/>
   </g>
   <g id="patch_4">
    <path d="M 1175.690625 356.477812 
L 1175.690625 23.837812 
" style="fill: none; stroke: #000000; stroke-width: 0.8; stroke-linejoin: miter; stroke-linecap: square"/>
   </g>
   <g id="patch_5">
    <path d="M 59.690625 356.477812 
L 1175.690625 356.477812 
" style="fill: none; stroke: #000000; stroke-width: 0.8; stroke-linejoin: miter; stroke-linecap: square"/>
   </g>
   <g id="patch_6">
    <path d="M 59.690625 23.837812 
L 1175.690625 23.837812 
" style="fill: none; stroke: #000000; stroke-width: 0.8; stroke-linejoin: miter; stroke-linecap: square"/>
   </g>
   <g id="text_18">
    <!-- Toronto Island Ferry Ticket Redemptions -->
    <g transform="translate(477.780313 17.837812) scale(0.14 -0.14)">
     <defs>
      <path id="DejaVuSans-72" d="M 2631 2963 
Q 2534 3019 2420 3045 
Q 2306 3072 2169 3072 
Q 1681 3072 1420 2755 
Q 1159 2438 1159 1844 
L 1159 0 
L 581 0 
L 581 3500 
L 1159 3500 
L 1159 2956 
Q 1341 3275 1631 3429 
Q 1922 3584 2338 3584 
Q 2397 3584 2469 3576 
Q 2541 3569 2628 3553 
L 2631 2963 
z
" transform="scale(0.015625)"/>
      <path id="DejaVuSans-49" d="M 628 4666 
L 1259 4666 
L 1259 0 
L 628 0 
L 628 4666 
z
" transform="scale(0.015625)"/>
      <path id="DejaVuSans-6c" d="M 603 4863 
L 1178 4863 
L 1178 0 
L 603 0 
L 603 4863 
z
" transform="scale(0.015625)"/>
      <path id="DejaVuSans-46" d="M 628 4666 
L 3309 4666 
L 3309 4134 
L 1259 4134 
L 1259 2759 
L 3109 2759 
L 3109 2228 
L 1259 2228 
L 1259 0 
L 628 0 
L 628 4666 
z
" transform="scale(0.015625)"/>
      <path id="DejaVuSans-79" d="M 2059 -325 
Q 1816 -950 1584 -1140 
Q 1353 -1331 966 -1331 
L 506 -1331 
L 506 -850 
L 844 -850 
Q 1081 -850 1212 -737 
Q 1344 -625 1503 -206 
L 1606 56 
L 191 3500 
L 800 3500 
L 1894 763 
L 2988 3500 
L 3597 3500 
L 2059 -325 
z
" transform="scale(0.015625)"/>
     </defs>
     <use xlink:href="#DejaVuSans-54"/>
     <use xlink:href="#DejaVuSans-6f" x="44.083984"/>
     <use xlink:href="#DejaVuSans-72" x="105.265625"/>
     <use xlink:href="#DejaVuSans-6f" x="144.128906"/>
     <use xlink:href="#DejaVuSans-6e" x="205.310547"/>
     <use xlink:href="#DejaVuSans-74" x="268.689453"/>
     <use xlink:href="#DejaVuSans-6f" x="307.898438"/>
     <use xlink:href="#DejaVuSans-20" x="369.080078"/>
     <use xlink:href="#DejaVuSans-49" x="400.867188"/>
     <use xlink:href="#DejaVuSans-73" x="430.359375"/>
     <use xlink:href="#DejaVuSans-6c" x="482.458984"/>
     <use xlink:href="#DejaVuSans-61" x="510.242188"/>
     <use xlink:href="#DejaVuSans-6e" x="571.521484"/>
     <use xlink:href="#DejaVuSans-64" x="634.900391"/>
     <use xlink:href="#DejaVuSans-20" x="698.376953"/>
     <use xlink:href="#DejaVuSans-46" x="730.164062"/>
     <use xlink:href="#DejaVuSans-65" x="782.183594"/>
     <use xlink:href="#DejaVuSans-72" x="843.707031"/>
     <use xlink:href="#DejaVuSans-72" x="883.070312"/>
     <use xlink:href="#DejaVuSans-79" x="924.183594"/>
     <use xlink:href="#DejaVuSans-20" x="983.363281"/>
     <use xlink:href="#DejaVuSans-54" x="1015.150391"/>
     <use xlink:href="#DejaVuSans-69" x="1073.109375"/>
     <use xlink:href="#DejaVuSans-63" x="1100.892578"/>
     <use xlink:href="#DejaVuSans-6b" x="1155.873047"/>
     <use xlink:href="#DejaVuSans-65" x="1210.158203"/>
     <use xlink:href="#DejaVuSans-74" x="1271.681641"/>
     <use xlink:href="#DejaVuSans-20" x="1310.890625"/>
     <use xlink:href="#DejaVuSans-52" x="1342.677734"/>
     <use xlink:href="#DejaVuSans-65" x="1407.660156"/>
     <use xlink:href="#DejaVuSans-64" x="1469.183594"/>
     <use xlink:href="#DejaVuSans-65" x="1532.660156"/>
     <use xlink:href="#DejaVuSans-6d" x="1594.183594"/>
     <use xlink:href="#DejaVuSans-70" x="1691.595703"/>
     <use xlink:href="#DejaVuSans-74" x="1755.072266"/>
     <use xlink:href="#DejaVuSans-69" x="1794.28125"/>
     <use xlink:href="#DejaVuSans-6f" x="1822.064453"/>
     <use xlink:href="#DejaVuSans-6e" x="1883.246094"/>
     <use xlink:href="#DejaVuSans-73" x="1946.625"/>
    </g>
   </g>
  </g>
  <g id="text_19">
   <!-- (Data from 2016-04-27 13:30:00 to 2024-05-02 23:30:00) -->
   <g style="fill: #808080" transform="translate(454.635938 399.677812) scale(0.1 -0.1)">
    <defs>
     <path id="DejaVuSans-28" d="M 1984 4856 
Q 1566 4138 1362 3434 
Q 1159 2731 1159 2009 
Q 1159 1288 1364 580 
Q 1569 -128 1984 -844 
L 1484 -844 
Q 1016 -109 783 600 
Q 550 1309 550 2009 
Q 550 2706 781 3412 
Q 1013 4119 1484 4856 
L 1984 4856 
z
" transform="scale(0.015625)"/>
     <path id="DejaVuSans-66" d="M 2375 4863 
L 2375 4384 
L 1825 4384 
Q 1516 4384 1395 4259 
Q 1275 4134 1275 3809 
L 1275 3500 
L 2222 3500 
L 2222 3053 
L 1275 3053 
L 1275 0 
L 697 0 
L 697 3053 
L 147 3053 
L 147 3500 
L 697 3500 
L 697 3744 
Q 697 4328 969 4595 
Q 1241 4863 1831 4863 
L 2375 4863 
z
" transform="scale(0.015625)"/>
     <path id="DejaVuSans-2d" d="M 313 2009 
L 1997 2009 
L 1997 1497 
L 313 1497 
L 313 2009 
z
" transform="scale(0.015625)"/>
     <path id="DejaVuSans-3a" d="M 750 794 
L 1409 794 
L 1409 0 
L 750 0 
L 750 794 
z
M 750 3309 
L 1409 3309 
L 1409 2516 
L 750 2516 
L 750 3309 
z
" transform="scale(0.015625)"/>
     <path id="DejaVuSans-29" d="M 513 4856 
L 1013 4856 
Q 1481 4119 1714 3412 
Q 1947 2706 1947 2009 
Q 1947 1309 1714 600 
Q 1481 -109 1013 -844 
L 513 -844 
Q 928 -128 1133 580 
Q 1338 1288 1338 2009 
Q 1338 2731 1133 3434 
Q 928 4138 513 4856 
z
" transform="scale(0.015625)"/>
    </defs>
    <use xlink:href="#DejaVuSans-28"/>
    <use xlink:href="#DejaVuSans-44" x="39.013672"/>
    <use xlink:href="#DejaVuSans-61" x="116.015625"/>
    <use xlink:href="#DejaVuSans-74" x="177.294922"/>
    <use xlink:href="#DejaVuSans-61" x="216.503906"/>
    <use xlink:href="#DejaVuSans-20" x="277.783203"/>
    <use xlink:href="#DejaVuSans-66" x="309.570312"/>
    <use xlink:href="#DejaVuSans-72" x="344.775391"/>
    <use xlink:href="#DejaVuSans-6f" x="383.638672"/>
    <use xlink:href="#DejaVuSans-6d" x="444.820312"/>
    <use xlink:href="#DejaVuSans-20" x="542.232422"/>
    <use xlink:href="#DejaVuSans-32" x="574.019531"/>
    <use xlink:href="#DejaVuSans-30" x="637.642578"/>
    <use xlink:href="#DejaVuSans-31" x="701.265625"/>
    <use xlink:href="#DejaVuSans-36" x="764.888672"/>
    <use xlink:href="#DejaVuSans-2d" x="828.511719"/>
    <use xlink:href="#DejaVuSans-30" x="864.595703"/>
    <use xlink:href="#DejaVuSans-34" x="928.21875"/>
    <use xlink:href="#DejaVuSans-2d" x="991.841797"/>
    <use xlink:href="#DejaVuSans-32" x="1027.925781"/>
    <use xlink:href="#DejaVuSans-37" x="1091.548828"/>
    <use xlink:href="#DejaVuSans-20" x="1155.171875"/>
    <use xlink:href="#DejaVuSans-31" x="1186.958984"/>
    <use xlink:href="#DejaVuSans-33" x="1250.582031"/>
    <use xlink:href="#DejaVuSans-3a" x="1314.205078"/>
    <use xlink:href="#DejaVuSans-33" x="1347.896484"/>
    <use xlink:href="#DejaVuSans-30" x="1411.519531"/>
    <use xlink:href="#DejaVuSans-3a" x="1475.142578"/>
    <use xlink:href="#DejaVuSans-30" x="1508.833984"/>
    <use xlink:href="#DejaVuSans-30" x="1572.457031"/>
    <use xlink:href="#DejaVuSans-20" x="1636.080078"/>
    <use xlink:href="#DejaVuSans-74" x="1667.867188"/>
    <use xlink:href="#DejaVuSans-6f" x="1707.076172"/>
    <use xlink:href="#DejaVuSans-20" x="1768.257812"/>
    <use xlink:href="#DejaVuSans-32" x="1800.044922"/>
    <use xlink:href="#DejaVuSans-30" x="1863.667969"/>
    <use xlink:href="#DejaVuSans-32" x="1927.291016"/>
    <use xlink:href="#DejaVuSans-34" x="1990.914062"/>
    <use xlink:href="#DejaVuSans-2d" x="2054.537109"/>
    <use xlink:href="#DejaVuSans-30" x="2090.621094"/>
    <use xlink:href="#DejaVuSans-35" x="2154.244141"/>
    <use xlink:href="#DejaVuSans-2d" x="2217.867188"/>
    <use xlink:href="#DejaVuSans-30" x="2253.951172"/>
    <use xlink:href="#DejaVuSans-32" x="2317.574219"/>
    <use xlink:href="#DejaVuSans-20" x="2381.197266"/>
    <use xlink:href="#DejaVuSans-32" x="2412.984375"/>
    <use xlink:href="#DejaVuSans-33" x="2476.607422"/>
    <use xlink:href="#DejaVuSans-3a" x="2540.230469"/>
    <use xlink:href="#DejaVuSans-33" x="2573.921875"/>
    <use xlink:href="#DejaVuSans-30" x="2637.544922"/>
    <use xlink:href="#DejaVuSans-3a" x="2701.167969"/>
    <use xlink:href="#DejaVuSans-30" x="2734.859375"/>
    <use xlink:href="#DejaVuSans-30" x="2798.482422"/>
    <use xlink:href="#DejaVuSans-29" x="2862.105469"/>
   </g>
  </g>
 </g>
 <defs>
  <clipPath id="p3b21982738">
   <rect x="59.690625" y="23.837812" width="1116" height="332.64"/>
  </clipPath>
 </defs>
</svg>
