<?xml version="1.0" encoding="utf-8" standalone="no"?>
<!DOCTYPE svg PUBLIC "-//W3C//DTD SVG 1.1//EN"
  "http://www.w3.org/Graphics/SVG/1.1/DTD/svg11.dtd">
<svg xmlns:xlink="http://www.w3.org/1999/xlink" width="1182.890625pt" height="408.9575pt" viewBox="0 0 1182.890625 408.9575" xmlns="http://www.w3.org/2000/svg" version="1.1">
 <metadata>
  <rdf:RDF xmlns:dc="http://purl.org/dc/elements/1.1/" xmlns:cc="http://creativecommons.org/ns#" xmlns:rdf="http://www.w3.org/1999/02/22-rdf-syntax-ns#">
   <cc:Work>
    <dc:type rdf:resource="http://purl.org/dc/dcmitype/StillImage"/>
    <dc:date>2024-06-12T17:35:59.998515</dc:date>
    <dc:format>image/svg+xml</dc:format>
    <dc:creator>
     <cc:Agent>
      <dc:title>Matplotlib v3.8.4, https://matplotlib.org/</dc:title>
     </cc:Agent>
    </dc:creator>
   </cc:Work>
  </rdf:RDF>
 </metadata>
 <defs>
  <style type="text/css">*{stroke-linejoin: round; stroke-linecap: butt}</style>
 </defs>
 <g id="figure_1">
  <g id="patch_1">
   <path d="M 0 408.9575 
L 1182.890625 408.9575 
L 1182.890625 0 
L 0 0 
z
" style="fill: #ffffff"/>
  </g>
  <g id="axes_1">
   <g id="patch_2">
    <path d="M 59.690625 356.477812 
L 1175.690625 356.477812 
L 1175.690625 23.837812 
L 59.690625 23.837812 
z
" style="fill: #ffffff"/>
   </g>
   <g id="matplotlib.axis_1">
    <g id="xtick_1">
     <g id="line2d_1">
      <defs>
       <path id="mb39fbfd44b" d="M 0 0 
L 0 3.5 
" style="stroke: #000000; stroke-width: 0.8"/>
      </defs>
      <g>
       <use xlink:href="#mb39fbfd44b" x="177.577949" y="356.477812" style="stroke: #000000; stroke-width: 0.8"/>
      </g>
     </g>
     <g id="text_1">
      <!-- 2019 -->
      <g transform="translate(164.852949 371.07625) scale(0.1 -0.1)">
       <defs>
        <path id="DejaVuSans-32" d="M 1228 531 
L 3431 531 
L 3431 0 
L 469 0 
L 469 531 
Q 828 903 1448 1529 
Q 2069 2156 2228 2338 
Q 2531 2678 2651 2914 
Q 2772 3150 2772 3378 
Q 2772 3750 2511 3984 
Q 2250 4219 1831 4219 
Q 1534 4219 1204 4116 
Q 875 4013 500 3803 
L 500 4441 
Q 881 4594 1212 4672 
Q 1544 4750 1819 4750 
Q 2544 4750 2975 4387 
Q 3406 4025 3406 3419 
Q 3406 3131 3298 2873 
Q 3191 2616 2906 2266 
Q 2828 2175 2409 1742 
Q 1991 1309 1228 531 
z
" transform="scale(0.015625)"/>
        <path id="DejaVuSans-30" d="M 2034 4250 
Q 1547 4250 1301 3770 
Q 1056 3291 1056 2328 
Q 1056 1369 1301 889 
Q 1547 409 2034 409 
Q 2525 409 2770 889 
Q 3016 1369 3016 2328 
Q 3016 3291 2770 3770 
Q 2525 4250 2034 4250 
z
M 2034 4750 
Q 2819 4750 3233 4129 
Q 3647 3509 3647 2328 
Q 3647 1150 3233 529 
Q 2819 -91 2034 -91 
Q 1250 -91 836 529 
Q 422 1150 422 2328 
Q 422 3509 836 4129 
Q 1250 4750 2034 4750 
z
" transform="scale(0.015625)"/>
        <path id="DejaVuSans-31" d="M 794 531 
L 1825 531 
L 1825 4091 
L 703 3866 
L 703 4441 
L 1819 4666 
L 2450 4666 
L 2450 531 
L 3481 531 
L 3481 0 
L 794 0 
L 794 531 
z
" transform="scale(0.015625)"/>
        <path id="DejaVuSans-39" d="M 703 97 
L 703 672 
Q 941 559 1184 500 
Q 1428 441 1663 441 
Q 2288 441 2617 861 
Q 2947 1281 2994 2138 
Q 2813 1869 2534 1725 
Q 2256 1581 1919 1581 
Q 1219 1581 811 2004 
Q 403 2428 403 3163 
Q 403 3881 828 4315 
Q 1253 4750 1959 4750 
Q 2769 4750 3195 4129 
Q 3622 3509 3622 2328 
Q 3622 1225 3098 567 
Q 2575 -91 1691 -91 
Q 1453 -91 1209 -44 
Q 966 3 703 97 
z
M 1959 2075 
Q 2384 2075 2632 2365 
Q 2881 2656 2881 3163 
Q 2881 3666 2632 3958 
Q 2384 4250 1959 4250 
Q 1534 4250 1286 3958 
Q 1038 3666 1038 3163 
Q 1038 2656 1286 2365 
Q 1534 2075 1959 2075 
z
" transform="scale(0.015625)"/>
       </defs>
       <use xlink:href="#DejaVuSans-32"/>
       <use xlink:href="#DejaVuSans-30" x="63.623047"/>
       <use xlink:href="#DejaVuSans-31" x="127.246094"/>
       <use xlink:href="#DejaVuSans-39" x="190.869141"/>
      </g>
     </g>
    </g>
    <g id="xtick_2">
     <g id="line2d_2">
      <g>
       <use xlink:href="#mb39fbfd44b" x="351.431982" y="356.477812" style="stroke: #000000; stroke-width: 0.8"/>
      </g>
     </g>
     <g id="text_2">
      <!-- 2020 -->
      <g transform="translate(338.706982 371.07625) scale(0.1 -0.1)">
       <use xlink:href="#DejaVuSans-32"/>
       <use xlink:href="#DejaVuSans-30" x="63.623047"/>
       <use xlink:href="#DejaVuSans-32" x="127.246094"/>
       <use xlink:href="#DejaVuSans-30" x="190.869141"/>
      </g>
     </g>
    </g>
    <g id="xtick_3">
     <g id="line2d_3">
      <g>
       <use xlink:href="#mb39fbfd44b" x="525.762328" y="356.477812" style="stroke: #000000; stroke-width: 0.8"/>
      </g>
     </g>
     <g id="text_3">
      <!-- 2021 -->
      <g transform="translate(513.037328 371.07625) scale(0.1 -0.1)">
       <use xlink:href="#DejaVuSans-32"/>
       <use xlink:href="#DejaVuSans-30" x="63.623047"/>
       <use xlink:href="#DejaVuSans-32" x="127.246094"/>
       <use xlink:href="#DejaVuSans-31" x="190.869141"/>
      </g>
     </g>
    </g>
    <g id="xtick_4">
     <g id="line2d_4">
      <g>
       <use xlink:href="#mb39fbfd44b" x="699.616361" y="356.477812" style="stroke: #000000; stroke-width: 0.8"/>
      </g>
     </g>
     <g id="text_4">
      <!-- 2022 -->
      <g transform="translate(686.891361 371.07625) scale(0.1 -0.1)">
       <use xlink:href="#DejaVuSans-32"/>
       <use xlink:href="#DejaVuSans-30" x="63.623047"/>
       <use xlink:href="#DejaVuSans-32" x="127.246094"/>
       <use xlink:href="#DejaVuSans-32" x="190.869141"/>
      </g>
     </g>
    </g>
    <g id="xtick_5">
     <g id="line2d_5">
      <g>
       <use xlink:href="#mb39fbfd44b" x="873.470395" y="356.477812" style="stroke: #000000; stroke-width: 0.8"/>
      </g>
     </g>
     <g id="text_5">
      <!-- 2023 -->
      <g transform="translate(860.745395 371.07625) scale(0.1 -0.1)">
       <defs>
        <path id="DejaVuSans-33" d="M 2597 2516 
Q 3050 2419 3304 2112 
Q 3559 1806 3559 1356 
Q 3559 666 3084 287 
Q 2609 -91 1734 -91 
Q 1441 -91 1130 -33 
Q 819 25 488 141 
L 488 750 
Q 750 597 1062 519 
Q 1375 441 1716 441 
Q 2309 441 2620 675 
Q 2931 909 2931 1356 
Q 2931 1769 2642 2001 
Q 2353 2234 1838 2234 
L 1294 2234 
L 1294 2753 
L 1863 2753 
Q 2328 2753 2575 2939 
Q 2822 3125 2822 3475 
Q 2822 3834 2567 4026 
Q 2313 4219 1838 4219 
Q 1578 4219 1281 4162 
Q 984 4106 628 3988 
L 628 4550 
Q 988 4650 1302 4700 
Q 1616 4750 1894 4750 
Q 2613 4750 3031 4423 
Q 3450 4097 3450 3541 
Q 3450 3153 3228 2886 
Q 3006 2619 2597 2516 
z
" transform="scale(0.015625)"/>
       </defs>
       <use xlink:href="#DejaVuSans-32"/>
       <use xlink:href="#DejaVuSans-30" x="63.623047"/>
       <use xlink:href="#DejaVuSans-32" x="127.246094"/>
       <use xlink:href="#DejaVuSans-33" x="190.869141"/>
      </g>
     </g>
    </g>
    <g id="xtick_6">
     <g id="line2d_6">
      <g>
       <use xlink:href="#mb39fbfd44b" x="1047.324428" y="356.477812" style="stroke: #000000; stroke-width: 0.8"/>
      </g>
     </g>
     <g id="text_6">
      <!-- 2024 -->
      <g transform="translate(1034.599428 371.07625) scale(0.1 -0.1)">
       <defs>
        <path id="DejaVuSans-34" d="M 2419 4116 
L 825 1625 
L 2419 1625 
L 2419 4116 
z
M 2253 4666 
L 3047 4666 
L 3047 1625 
L 3713 1625 
L 3713 1100 
L 3047 1100 
L 3047 0 
L 2419 0 
L 2419 1100 
L 313 1100 
L 313 1709 
L 2253 4666 
z
" transform="scale(0.015625)"/>
       </defs>
       <use xlink:href="#DejaVuSans-32"/>
       <use xlink:href="#DejaVuSans-30" x="63.623047"/>
       <use xlink:href="#DejaVuSans-32" x="127.246094"/>
       <use xlink:href="#DejaVuSans-34" x="190.869141"/>
      </g>
     </g>
    </g>
    <g id="text_7">
     <!-- Date -->
     <g transform="translate(605.739844 384.754375) scale(0.1 -0.1)">
      <defs>
       <path id="DejaVuSans-44" d="M 1259 4147 
L 1259 519 
L 2022 519 
Q 2988 519 3436 956 
Q 3884 1394 3884 2338 
Q 3884 3275 3436 3711 
Q 2988 4147 2022 4147 
L 1259 4147 
z
M 628 4666 
L 1925 4666 
Q 3281 4666 3915 4102 
Q 4550 3538 4550 2338 
Q 4550 1131 3912 565 
Q 3275 0 1925 0 
L 628 0 
L 628 4666 
z
" transform="scale(0.015625)"/>
       <path id="DejaVuSans-61" d="M 2194 1759 
Q 1497 1759 1228 1600 
Q 959 1441 959 1056 
Q 959 750 1161 570 
Q 1363 391 1709 391 
Q 2188 391 2477 730 
Q 2766 1069 2766 1631 
L 2766 1759 
L 2194 1759 
z
M 3341 1997 
L 3341 0 
L 2766 0 
L 2766 531 
Q 2569 213 2275 61 
Q 1981 -91 1556 -91 
Q 1019 -91 701 211 
Q 384 513 384 1019 
Q 384 1609 779 1909 
Q 1175 2209 1959 2209 
L 2766 2209 
L 2766 2266 
Q 2766 2663 2505 2880 
Q 2244 3097 1772 3097 
Q 1472 3097 1187 3025 
Q 903 2953 641 2809 
L 641 3341 
Q 956 3463 1253 3523 
Q 1550 3584 1831 3584 
Q 2591 3584 2966 3190 
Q 3341 2797 3341 1997 
z
" transform="scale(0.015625)"/>
       <path id="DejaVuSans-74" d="M 1172 4494 
L 1172 3500 
L 2356 3500 
L 2356 3053 
L 1172 3053 
L 1172 1153 
Q 1172 725 1289 603 
Q 1406 481 1766 481 
L 2356 481 
L 2356 0 
L 1766 0 
Q 1100 0 847 248 
Q 594 497 594 1153 
L 594 3053 
L 172 3053 
L 172 3500 
L 594 3500 
L 594 4494 
L 1172 4494 
z
" transform="scale(0.015625)"/>
       <path id="DejaVuSans-65" d="M 3597 1894 
L 3597 1613 
L 953 1613 
Q 991 1019 1311 708 
Q 1631 397 2203 397 
Q 2534 397 2845 478 
Q 3156 559 3463 722 
L 3463 178 
Q 3153 47 2828 -22 
Q 2503 -91 2169 -91 
Q 1331 -91 842 396 
Q 353 884 353 1716 
Q 353 2575 817 3079 
Q 1281 3584 2069 3584 
Q 2775 3584 3186 3129 
Q 3597 2675 3597 1894 
z
M 3022 2063 
Q 3016 2534 2758 2815 
Q 2500 3097 2075 3097 
Q 1594 3097 1305 2825 
Q 1016 2553 972 2059 
L 3022 2063 
z
" transform="scale(0.015625)"/>
      </defs>
      <use xlink:href="#DejaVuSans-44"/>
      <use xlink:href="#DejaVuSans-61" x="77.001953"/>
      <use xlink:href="#DejaVuSans-74" x="138.28125"/>
      <use xlink:href="#DejaVuSans-65" x="177.490234"/>
     </g>
    </g>
   </g>
   <g id="matplotlib.axis_2">
    <g id="ytick_1">
     <g id="line2d_7">
      <defs>
       <path id="m5eb9661777" d="M 0 0 
L -3.5 0 
" style="stroke: #000000; stroke-width: 0.8"/>
      </defs>
      <g>
       <use xlink:href="#m5eb9661777" x="59.690625" y="341.357812" style="stroke: #000000; stroke-width: 0.8"/>
      </g>
     </g>
     <g id="text_8">
      <!-- 0 -->
      <g transform="translate(46.328125 345.157031) scale(0.1 -0.1)">
       <use xlink:href="#DejaVuSans-30"/>
      </g>
     </g>
    </g>
    <g id="ytick_2">
     <g id="line2d_8">
      <g>
       <use xlink:href="#m5eb9661777" x="59.690625" y="275.036205" style="stroke: #000000; stroke-width: 0.8"/>
      </g>
     </g>
     <g id="text_9">
      <!-- 5000 -->
      <g transform="translate(27.240625 278.835424) scale(0.1 -0.1)">
       <defs>
        <path id="DejaVuSans-35" d="M 691 4666 
L 3169 4666 
L 3169 4134 
L 1269 4134 
L 1269 2991 
Q 1406 3038 1543 3061 
Q 1681 3084 1819 3084 
Q 2600 3084 3056 2656 
Q 3513 2228 3513 1497 
Q 3513 744 3044 326 
Q 2575 -91 1722 -91 
Q 1428 -91 1123 -41 
Q 819 9 494 109 
L 494 744 
Q 775 591 1075 516 
Q 1375 441 1709 441 
Q 2250 441 2565 725 
Q 2881 1009 2881 1497 
Q 2881 1984 2565 2268 
Q 2250 2553 1709 2553 
Q 1456 2553 1204 2497 
Q 953 2441 691 2322 
L 691 4666 
z
" transform="scale(0.015625)"/>
       </defs>
       <use xlink:href="#DejaVuSans-35"/>
       <use xlink:href="#DejaVuSans-30" x="63.623047"/>
       <use xlink:href="#DejaVuSans-30" x="127.246094"/>
       <use xlink:href="#DejaVuSans-30" x="190.869141"/>
      </g>
     </g>
    </g>
    <g id="ytick_3">
     <g id="line2d_9">
      <g>
       <use xlink:href="#m5eb9661777" x="59.690625" y="208.714598" style="stroke: #000000; stroke-width: 0.8"/>
      </g>
     </g>
     <g id="text_10">
      <!-- 10000 -->
      <g transform="translate(20.878125 212.513817) scale(0.1 -0.1)">
       <use xlink:href="#DejaVuSans-31"/>
       <use xlink:href="#DejaVuSans-30" x="63.623047"/>
       <use xlink:href="#DejaVuSans-30" x="127.246094"/>
       <use xlink:href="#DejaVuSans-30" x="190.869141"/>
       <use xlink:href="#DejaVuSans-30" x="254.492188"/>
      </g>
     </g>
    </g>
    <g id="ytick_4">
     <g id="line2d_10">
      <g>
       <use xlink:href="#m5eb9661777" x="59.690625" y="142.392991" style="stroke: #000000; stroke-width: 0.8"/>
      </g>
     </g>
     <g id="text_11">
      <!-- 15000 -->
      <g transform="translate(20.878125 146.19221) scale(0.1 -0.1)">
       <use xlink:href="#DejaVuSans-31"/>
       <use xlink:href="#DejaVuSans-35" x="63.623047"/>
       <use xlink:href="#DejaVuSans-30" x="127.246094"/>
       <use xlink:href="#DejaVuSans-30" x="190.869141"/>
       <use xlink:href="#DejaVuSans-30" x="254.492188"/>
      </g>
     </g>
    </g>
    <g id="ytick_5">
     <g id="line2d_11">
      <g>
       <use xlink:href="#m5eb9661777" x="59.690625" y="76.071384" style="stroke: #000000; stroke-width: 0.8"/>
      </g>
     </g>
     <g id="text_12">
      <!-- 20000 -->
      <g transform="translate(20.878125 79.870603) scale(0.1 -0.1)">
       <use xlink:href="#DejaVuSans-32"/>
       <use xlink:href="#DejaVuSans-30" x="63.623047"/>
       <use xlink:href="#DejaVuSans-30" x="127.246094"/>
       <use xlink:href="#DejaVuSans-30" x="190.869141"/>
       <use xlink:href="#DejaVuSans-30" x="254.492188"/>
      </g>
     </g>
    </g>
    <g id="text_13">
     <!-- Ticket Redemptions -->
     <g transform="translate(14.798438 239.336719) rotate(-90) scale(0.1 -0.1)">
      <defs>
       <path id="DejaVuSans-54" d="M -19 4666 
L 3928 4666 
L 3928 4134 
L 2272 4134 
L 2272 0 
L 1638 0 
L 1638 4134 
L -19 4134 
L -19 4666 
z
" transform="scale(0.015625)"/>
       <path id="DejaVuSans-69" d="M 603 3500 
L 1178 3500 
L 1178 0 
L 603 0 
L 603 3500 
z
M 603 4863 
L 1178 4863 
L 1178 4134 
L 603 4134 
L 603 4863 
z
" transform="scale(0.015625)"/>
       <path id="DejaVuSans-63" d="M 3122 3366 
L 3122 2828 
Q 2878 2963 2633 3030 
Q 2388 3097 2138 3097 
Q 1578 3097 1268 2742 
Q 959 2388 959 1747 
Q 959 1106 1268 751 
Q 1578 397 2138 397 
Q 2388 397 2633 464 
Q 2878 531 3122 666 
L 3122 134 
Q 2881 22 2623 -34 
Q 2366 -91 2075 -91 
Q 1284 -91 818 406 
Q 353 903 353 1747 
Q 353 2603 823 3093 
Q 1294 3584 2113 3584 
Q 2378 3584 2631 3529 
Q 2884 3475 3122 3366 
z
" transform="scale(0.015625)"/>
       <path id="DejaVuSans-6b" d="M 581 4863 
L 1159 4863 
L 1159 1991 
L 2875 3500 
L 3609 3500 
L 1753 1863 
L 3688 0 
L 2938 0 
L 1159 1709 
L 1159 0 
L 581 0 
L 581 4863 
z
" transform="scale(0.015625)"/>
       <path id="DejaVuSans-20" transform="scale(0.015625)"/>
       <path id="DejaVuSans-52" d="M 2841 2188 
Q 3044 2119 3236 1894 
Q 3428 1669 3622 1275 
L 4263 0 
L 3584 0 
L 2988 1197 
Q 2756 1666 2539 1819 
Q 2322 1972 1947 1972 
L 1259 1972 
L 1259 0 
L 628 0 
L 628 4666 
L 2053 4666 
Q 2853 4666 3247 4331 
Q 3641 3997 3641 3322 
Q 3641 2881 3436 2590 
Q 3231 2300 2841 2188 
z
M 1259 4147 
L 1259 2491 
L 2053 2491 
Q 2509 2491 2742 2702 
Q 2975 2913 2975 3322 
Q 2975 3731 2742 3939 
Q 2509 4147 2053 4147 
L 1259 4147 
z
" transform="scale(0.015625)"/>
       <path id="DejaVuSans-64" d="M 2906 2969 
L 2906 4863 
L 3481 4863 
L 3481 0 
L 2906 0 
L 2906 525 
Q 2725 213 2448 61 
Q 2172 -91 1784 -91 
Q 1150 -91 751 415 
Q 353 922 353 1747 
Q 353 2572 751 3078 
Q 1150 3584 1784 3584 
Q 2172 3584 2448 3432 
Q 2725 3281 2906 2969 
z
M 947 1747 
Q 947 1113 1208 752 
Q 1469 391 1925 391 
Q 2381 391 2643 752 
Q 2906 1113 2906 1747 
Q 2906 2381 2643 2742 
Q 2381 3103 1925 3103 
Q 1469 3103 1208 2742 
Q 947 2381 947 1747 
z
" transform="scale(0.015625)"/>
       <path id="DejaVuSans-6d" d="M 3328 2828 
Q 3544 3216 3844 3400 
Q 4144 3584 4550 3584 
Q 5097 3584 5394 3201 
Q 5691 2819 5691 2113 
L 5691 0 
L 5113 0 
L 5113 2094 
Q 5113 2597 4934 2840 
Q 4756 3084 4391 3084 
Q 3944 3084 3684 2787 
Q 3425 2491 3425 1978 
L 3425 0 
L 2847 0 
L 2847 2094 
Q 2847 2600 2669 2842 
Q 2491 3084 2119 3084 
Q 1678 3084 1418 2786 
Q 1159 2488 1159 1978 
L 1159 0 
L 581 0 
L 581 3500 
L 1159 3500 
L 1159 2956 
Q 1356 3278 1631 3431 
Q 1906 3584 2284 3584 
Q 2666 3584 2933 3390 
Q 3200 3197 3328 2828 
z
" transform="scale(0.015625)"/>
       <path id="DejaVuSans-70" d="M 1159 525 
L 1159 -1331 
L 581 -1331 
L 581 3500 
L 1159 3500 
L 1159 2969 
Q 1341 3281 1617 3432 
Q 1894 3584 2278 3584 
Q 2916 3584 3314 3078 
Q 3713 2572 3713 1747 
Q 3713 922 3314 415 
Q 2916 -91 2278 -91 
Q 1894 -91 1617 61 
Q 1341 213 1159 525 
z
M 3116 1747 
Q 3116 2381 2855 2742 
Q 2594 3103 2138 3103 
Q 1681 3103 1420 2742 
Q 1159 2381 1159 1747 
Q 1159 1113 1420 752 
Q 1681 391 2138 391 
Q 2594 391 2855 752 
Q 3116 1113 3116 1747 
z
" transform="scale(0.015625)"/>
       <path id="DejaVuSans-6f" d="M 1959 3097 
Q 1497 3097 1228 2736 
Q 959 2375 959 1747 
Q 959 1119 1226 758 
Q 1494 397 1959 397 
Q 2419 397 2687 759 
Q 2956 1122 2956 1747 
Q 2956 2369 2687 2733 
Q 2419 3097 1959 3097 
z
M 1959 3584 
Q 2709 3584 3137 3096 
Q 3566 2609 3566 1747 
Q 3566 888 3137 398 
Q 2709 -91 1959 -91 
Q 1206 -91 779 398 
Q 353 888 353 1747 
Q 353 2609 779 3096 
Q 1206 3584 1959 3584 
z
" transform="scale(0.015625)"/>
       <path id="DejaVuSans-6e" d="M 3513 2113 
L 3513 0 
L 2938 0 
L 2938 2094 
Q 2938 2591 2744 2837 
Q 2550 3084 2163 3084 
Q 1697 3084 1428 2787 
Q 1159 2491 1159 1978 
L 1159 0 
L 581 0 
L 581 3500 
L 1159 3500 
L 1159 2956 
Q 1366 3272 1645 3428 
Q 1925 3584 2291 3584 
Q 2894 3584 3203 3211 
Q 3513 2838 3513 2113 
z
" transform="scale(0.015625)"/>
       <path id="DejaVuSans-73" d="M 2834 3397 
L 2834 2853 
Q 2591 2978 2328 3040 
Q 2066 3103 1784 3103 
Q 1356 3103 1142 2972 
Q 928 2841 928 2578 
Q 928 2378 1081 2264 
Q 1234 2150 1697 2047 
L 1894 2003 
Q 2506 1872 2764 1633 
Q 3022 1394 3022 966 
Q 3022 478 2636 193 
Q 2250 -91 1575 -91 
Q 1294 -91 989 -36 
Q 684 19 347 128 
L 347 722 
Q 666 556 975 473 
Q 1284 391 1588 391 
Q 1994 391 2212 530 
Q 2431 669 2431 922 
Q 2431 1156 2273 1281 
Q 2116 1406 1581 1522 
L 1381 1569 
Q 847 1681 609 1914 
Q 372 2147 372 2553 
Q 372 3047 722 3315 
Q 1072 3584 1716 3584 
Q 2034 3584 2315 3537 
Q 2597 3491 2834 3397 
z
" transform="scale(0.015625)"/>
      </defs>
      <use xlink:href="#DejaVuSans-54"/>
      <use xlink:href="#DejaVuSans-69" x="57.958984"/>
      <use xlink:href="#DejaVuSans-63" x="85.742188"/>
      <use xlink:href="#DejaVuSans-6b" x="140.722656"/>
      <use xlink:href="#DejaVuSans-65" x="195.007812"/>
      <use xlink:href="#DejaVuSans-74" x="256.53125"/>
      <use xlink:href="#DejaVuSans-20" x="295.740234"/>
      <use xlink:href="#DejaVuSans-52" x="327.527344"/>
      <use xlink:href="#DejaVuSans-65" x="392.509766"/>
      <use xlink:href="#DejaVuSans-64" x="454.033203"/>
      <use xlink:href="#DejaVuSans-65" x="517.509766"/>
      <use xlink:href="#DejaVuSans-6d" x="579.033203"/>
      <use xlink:href="#DejaVuSans-70" x="676.445312"/>
      <use xlink:href="#DejaVuSans-74" x="739.921875"/>
      <use xlink:href="#DejaVuSans-69" x="779.130859"/>
      <use xlink:href="#DejaVuSans-6f" x="806.914062"/>
      <use xlink:href="#DejaVuSans-6e" x="868.095703"/>
      <use xlink:href="#DejaVuSans-73" x="931.474609"/>
     </g>
    </g>
   </g>
   <g id="line2d_12">
    <path d="M 110.417898 217.071121 
L 110.89421 203.674156 
L 111.370523 186.642767 
L 112.323147 289.494316 
L 112.79946 77.517195 
L 113.275772 68.802536 
L 114.228397 326.926231 
L 114.70471 226.448996 
L 115.181022 169.133863 
L 115.657334 170.672524 
L 116.133647 226.196974 
L 116.609959 122.337337 
L 117.086272 278.219642 
L 117.562584 213.012238 
L 118.038896 272.59557 
L 118.515209 195.689035 
L 118.991521 185.448978 
L 119.467834 63.218256 
L 119.944146 129.447013 
L 120.420459 149.44961 
L 120.896771 291.523757 
L 121.373083 285.077297 
L 121.849396 305.557409 
L 122.325708 285.342583 
L 122.802021 221.726898 
L 123.278333 266.520511 
L 123.754645 330.932056 
L 124.230958 306.923634 
L 124.70727 294.733723 
L 125.183583 291.550286 
L 125.659895 276.243259 
L 126.136208 163.788341 
L 126.61252 169.412414 
L 127.088832 291.457435 
L 127.565145 287.464875 
L 128.041457 295.158181 
L 128.51777 314.563883 
L 128.994082 301.418941 
L 129.470395 250.70944 
L 129.946707 238.413414 
L 130.423019 313.94046 
L 130.899332 325.533477 
L 131.375644 306.485911 
L 131.851957 302.427029 
L 132.328269 293.142004 
L 132.804581 261.466805 
L 133.280894 303.249417 
L 133.757206 323.663208 
L 134.233519 328.942408 
L 134.709831 310.425415 
L 135.186144 304.217712 
L 135.662456 312.627292 
L 136.138768 316.129073 
L 136.615081 311.977341 
L 137.091393 306.764462 
L 137.567706 289.547373 
L 138.044018 283.273349 
L 138.520331 312.481385 
L 138.996643 315.916844 
L 139.472955 312.600764 
L 139.949268 298.911984 
L 140.42558 326.170164 
L 140.901893 316.938197 
L 141.378205 323.305071 
L 141.854517 320.997079 
L 142.33083 309.496912 
L 142.807142 312.68035 
L 143.283455 323.013256 
L 143.759767 320.453242 
L 144.23608 325.414098 
L 144.712392 321.302158 
L 145.188704 321.434802 
L 145.665017 324.485596 
L 146.141329 329.207694 
L 146.617642 331.489157 
L 147.093954 329.605624 
L 147.570266 317.110633 
L 148.046579 326.010993 
L 148.522891 331.688122 
L 148.999204 330.441276 
L 149.475516 325.878349 
L 149.951829 315.943373 
L 150.428141 330.003553 
L 150.904453 329.419923 
L 151.857078 327.417011 
L 152.333391 330.255575 
L 152.809703 329.075051 
L 153.762328 327.695561 
L 154.23864 329.950496 
L 154.714953 328.769971 
L 155.191265 326.435451 
L 155.667578 333.651242 
L 156.14389 331.4361 
L 156.620202 332.205431 
L 157.096515 328.531214 
L 157.572827 329.459716 
L 158.04914 329.486245 
L 158.525452 330.520862 
L 159.001765 328.478156 
L 159.478077 336.675507 
L 159.954389 332.072787 
L 160.430702 332.444188 
L 160.907014 331.462629 
L 161.383327 329.96376 
L 161.859639 331.210607 
L 162.335952 330.573919 
L 162.812264 331.714651 
L 163.288576 333.916528 
L 163.764889 331.475893 
L 164.241201 330.85247 
L 164.717514 329.28728 
L 165.193826 331.34325 
L 165.670138 334.009378 
L 166.146451 334.142022 
L 166.622763 331.714651 
L 167.099076 331.913616 
L 167.575388 331.741179 
L 168.051701 327.655768 
L 168.528013 330.083139 
L 169.480638 333.319634 
L 169.95695 333.133933 
L 171.385887 328.411835 
L 171.8622 329.141372 
L 172.338512 330.401483 
L 172.814825 332.616625 
L 173.291137 333.89 
L 173.76745 332.815589 
L 174.243762 332.483981 
L 174.720074 333.372691 
L 175.196387 332.656418 
L 175.672699 331.356514 
L 176.149012 328.955672 
L 177.101637 333.518599 
L 177.577949 331.913616 
L 178.054261 333.200255 
L 178.530574 333.664506 
L 179.006886 327.974112 
L 179.959511 333.903264 
L 180.435823 333.200255 
L 180.912136 330.932056 
L 181.388448 331.568743 
L 181.864761 331.714651 
L 182.341073 331.648329 
L 182.817386 335.508247 
L 183.293698 335.879648 
L 183.77001 331.688122 
L 184.246323 331.900351 
L 184.722635 331.329985 
L 185.198948 334.75218 
L 185.67526 331.223871 
L 186.151573 336.609185 
L 186.627885 337.69686 
L 187.104197 336.635714 
L 187.58051 331.913616 
L 188.056822 332.550303 
L 188.533135 330.958584 
L 189.009447 330.467805 
L 189.962072 336.834679 
L 190.438384 333.412484 
L 190.914697 336.542864 
L 191.391009 331.316721 
L 191.867322 333.173726 
L 192.343634 331.767708 
L 192.819946 333.903264 
L 193.296259 334.632802 
L 193.772571 331.34325 
L 194.248884 333.18699 
L 194.725196 336.582657 
L 195.201508 331.913616 
L 195.677821 330.719827 
L 196.154133 334.261401 
L 196.630446 335.362339 
L 197.106758 331.502422 
L 197.583071 340.61501 
L 198.059383 337.458102 
L 198.535695 331.316721 
L 199.012008 334.367515 
L 199.48832 333.200255 
L 199.964633 335.999027 
L 200.440945 333.89 
L 200.917258 330.799413 
L 201.39357 331.475893 
L 201.869882 331.2504 
L 202.346195 330.17599 
L 202.822507 332.32481 
L 203.29882 338.784534 
L 203.775132 333.372691 
L 204.251444 332.046259 
L 204.727757 334.009378 
L 205.680382 328.836293 
L 206.156694 336.065348 
L 207.109319 331.993202 
L 207.585631 332.60336 
L 208.061944 330.096404 
L 208.538256 331.462629 
L 209.014569 330.985113 
L 209.490881 330.255575 
L 209.967194 336.940793 
L 210.443506 335.15011 
L 210.919818 332.802325 
L 211.396131 335.163374 
L 211.872443 334.420572 
L 212.348756 332.523774 
L 212.825068 333.173726 
L 213.30138 332.895175 
L 213.777693 333.518599 
L 214.254005 327.841469 
L 214.730318 328.876086 
L 215.20663 327.828205 
L 215.682943 330.587183 
L 216.159255 327.191517 
L 216.635567 329.446452 
L 217.588192 328.318985 
L 218.064505 326.422187 
L 218.540817 330.706562 
L 219.017129 322.296983 
L 219.493442 337.046908 
L 219.969754 335.999027 
L 220.446067 329.313809 
L 220.922379 329.366866 
L 221.398692 328.265927 
L 221.875004 327.775147 
L 222.351316 331.290193 
L 222.827629 318.596237 
L 223.303941 327.23131 
L 223.780254 323.557093 
L 224.256566 327.615975 
L 224.732879 326.024257 
L 225.209191 330.706562 
L 225.685503 327.164989 
L 226.161816 301.14039 
L 226.638128 337.988675 
L 227.114441 325.440627 
L 227.590753 326.475244 
L 228.067065 314.895491 
L 228.543378 321.103194 
L 229.01969 334.088964 
L 229.496003 311.831433 
L 229.972315 262.6208 
L 230.92494 327.271103 
L 231.401252 315.452593 
L 231.877565 312.163041 
L 232.353877 329.618888 
L 232.83019 320.400185 
L 233.306502 308.289859 
L 233.782815 327.72209 
L 234.259127 319.03396 
L 234.735439 328.265927 
L 235.688064 319.339039 
L 236.164377 314.842434 
L 236.640689 269.743741 
L 237.117001 316.301509 
L 237.593314 322.628591 
L 238.069626 318.755409 
L 238.545939 329.539302 
L 239.022251 317.734056 
L 239.498564 289.547373 
L 239.974876 329.977025 
L 240.451188 332.125845 
L 240.927501 324.949847 
L 241.403813 315.983166 
L 241.880126 314.82917 
L 242.356438 300.530231 
L 242.83275 273.431222 
L 243.309063 167.92681 
L 243.785375 266.228696 
L 244.261688 300.530231 
L 244.738 321.18278 
L 245.214313 316.407624 
L 245.690625 294.733723 
L 246.166937 324.167252 
L 246.64325 224.141004 
L 247.119562 293.12874 
L 247.595875 328.093491 
L 248.072187 320.174691 
L 248.5485 314.802641 
L 249.024812 295.27756 
L 249.501124 296.630521 
L 249.977437 279.320581 
L 250.453749 306.790991 
L 251.406374 328.716914 
L 251.882686 289.839188 
L 252.358999 268.748917 
L 252.835311 192.227047 
L 253.311624 235.283034 
L 253.787936 331.144285 
L 254.264249 282.437697 
L 254.740561 281.389815 
L 255.216873 330.109668 
L 256.169498 234.526968 
L 256.645811 187.597798 
L 257.122123 304.681964 
L 257.598435 274.691333 
L 258.074748 277.145232 
L 258.55106 316.195395 
L 259.503685 175.301772 
L 259.979998 208.542162 
L 260.45631 295.224503 
L 260.932622 272.966971 
L 261.408935 271.308931 
L 261.885247 255.550917 
L 262.36156 276.866682 
L 262.837872 151.240293 
L 263.314185 63.801887 
L 263.790497 110.134161 
L 264.266809 289.32188 
L 264.743122 232.311826 
L 265.219434 224.578727 
L 265.695747 231.118037 
L 266.172059 192.890263 
L 266.648371 134.381341 
L 267.124684 239.912282 
L 267.600996 245.960813 
L 268.077309 237.060453 
L 268.553621 293.89807 
L 269.029934 217.243557 
L 269.506246 97.678963 
L 269.982558 66.26905 
L 270.458871 228.756988 
L 270.935183 259.835293 
L 271.411496 311.513089 
L 271.887808 231.714932 
L 272.364121 268.324459 
L 273.316745 149.515932 
L 273.793058 248.759585 
L 274.26937 216.39464 
L 274.745683 208.024853 
L 275.221995 222.283999 
L 275.698307 205.212817 
L 276.17462 95.264857 
L 276.650932 173.855961 
L 277.603557 288.92395 
L 278.07987 194.243224 
L 278.556182 195.291105 
L 279.032494 201.910001 
L 279.508807 114.869524 
L 279.985119 56.347338 
L 280.461432 87.903159 
L 280.937744 300.318002 
L 281.414056 231.502702 
L 281.890369 262.408571 
L 282.842994 100.636907 
L 283.319306 127.65633 
L 283.795619 254.542829 
L 284.271931 217.813923 
L 284.748243 204.562866 
L 285.224556 220.546373 
L 285.700868 206.870858 
L 286.177181 247.817818 
L 286.653493 184.241925 
L 287.129806 214.325406 
L 287.606118 192.107668 
L 288.08243 247.990254 
L 288.558743 191.616888 
L 289.035055 203.713949 
L 289.511368 112.495211 
L 289.98768 113.158427 
L 290.940305 318.198307 
L 291.416617 189.255839 
L 291.89293 206.976972 
L 292.369242 198.355163 
L 292.845555 98.474823 
L 293.321867 225.918423 
L 293.798179 173.086631 
L 294.274492 302.572937 
L 294.750804 309.656084 
L 295.227117 296.829485 
L 295.703429 310.239714 
L 296.179742 239.673524 
L 296.656054 230.932337 
L 297.132366 304.655435 
L 297.608679 307.295035 
L 298.084991 285.859892 
L 298.561304 310.584587 
L 299.037616 312.216098 
L 299.513928 225.679665 
L 299.990241 312.852786 
L 300.466553 312.415063 
L 300.942866 295.503053 
L 301.419178 296.657049 
L 301.895491 293.592991 
L 302.371803 284.307966 
L 302.848115 177.68935 
L 303.324428 211.141969 
L 303.80074 310.863138 
L 304.277053 303.076981 
L 304.753365 303.395325 
L 305.229677 310.929459 
L 305.70599 294.030714 
L 306.182302 307.454207 
L 306.658615 270.062085 
L 307.134927 315.691351 
L 307.61124 305.756374 
L 308.087552 328.39857 
L 308.563864 322.999992 
L 309.040177 305.34518 
L 309.516489 301.259769 
L 309.992802 316.407624 
L 310.469114 316.208659 
L 310.945427 310.438679 
L 311.421739 309.351005 
L 311.898051 311.141688 
L 312.374364 302.665787 
L 312.850676 306.432854 
L 313.326989 278.418607 
L 314.755926 329.645417 
L 315.232238 324.711089 
L 316.184863 302.002571 
L 316.661176 296.9356 
L 317.137488 319.445153 
L 317.6138 329.817853 
L 318.090113 319.71044 
L 318.566425 318.72888 
L 319.042738 322.164339 
L 319.51905 313.383359 
L 319.995363 333.00129 
L 320.471675 318.065664 
L 320.947987 323.596886 
L 321.4243 331.754444 
L 321.900612 330.693298 
L 322.376925 327.164989 
L 322.853237 331.157549 
L 323.329549 324.551917 
L 323.805862 328.517949 
L 324.282174 326.806852 
L 325.234799 330.507598 
L 325.711112 326.1569 
L 326.187424 330.096404 
L 326.663736 329.804589 
L 327.140049 333.478806 
L 327.616361 331.184078 
L 328.092674 331.369778 
L 328.568986 330.401483 
L 329.045298 330.626976 
L 329.521611 334.367515 
L 329.997923 331.940144 
L 330.474236 332.006466 
L 330.950548 330.706562 
L 331.426861 330.547391 
L 331.903173 331.011642 
L 332.379485 331.820765 
L 332.855798 329.075051 
L 333.33211 332.046259 
L 333.808423 333.823678 
L 334.284735 327.496597 
L 334.761048 331.144285 
L 335.23736 328.279192 
L 335.713672 329.008729 
L 336.189985 332.338074 
L 336.666297 338.917177 
L 337.14261 333.041083 
L 337.618922 328.6108 
L 338.095234 331.688122 
L 338.571547 330.918792 
L 339.047859 333.545127 
L 339.524172 332.550303 
L 340.000484 333.67777 
L 340.476797 332.404396 
L 340.953109 331.993202 
L 341.429421 329.764796 
L 341.905734 330.003553 
L 342.382046 329.035258 
L 342.858359 337.418309 
L 343.334671 334.65933 
L 343.810984 330.587183 
L 344.287296 330.772884 
L 344.763608 331.303457 
L 345.239921 331.290193 
L 345.716233 329.38013 
L 346.192546 331.184078 
L 346.668858 331.515686 
L 347.14517 329.831117 
L 347.621483 333.730828 
L 348.097795 333.823678 
L 348.574108 334.937881 
L 349.526733 324.339688 
L 350.003045 337.046908 
L 350.479357 332.11258 
L 350.95567 334.380779 
L 351.431982 332.842118 
L 351.908295 330.45454 
L 352.860919 333.876735 
L 353.337232 334.420572 
L 353.813544 331.555479 
L 354.289857 331.674858 
L 354.766169 332.364603 
L 355.242482 331.555479 
L 355.718794 331.290193 
L 356.195106 337.564217 
L 356.671419 335.853119 
L 357.147731 331.489157 
L 357.624044 332.046259 
L 358.100356 331.369778 
L 358.576669 331.489157 
L 359.529293 337.139758 
L 360.005606 336.383692 
L 360.481918 334.778709 
L 360.958231 331.979937 
L 361.434543 331.064699 
L 361.910855 331.064699 
L 362.387168 331.422836 
L 362.86348 336.503071 
L 363.339793 335.561304 
L 363.816105 331.674858 
L 364.292418 331.184078 
L 364.76873 330.136197 
L 365.245042 331.104492 
L 365.721355 330.680034 
L 366.67398 336.144934 
L 367.150292 329.698474 
L 367.626605 330.786148 
L 368.102917 330.401483 
L 368.579229 335.402132 
L 369.055542 335.587833 
L 369.531854 334.738916 
L 370.008167 336.13167 
L 370.484479 330.680034 
L 370.960791 334.685859 
L 371.437104 334.274665 
L 371.913416 331.940144 
L 372.389729 335.415396 
L 372.866041 335.017467 
L 373.818666 330.282104 
L 374.294978 331.383043 
L 374.771291 330.441276 
L 375.247603 332.563567 
L 375.723916 332.736004 
L 376.200228 330.746355 
L 376.67654 327.178253 
L 377.629165 331.184078 
L 378.58179 332.470717 
L 379.058103 331.542215 
L 379.534415 334.115493 
L 380.010727 334.16855 
L 380.48704 332.338074 
L 380.963352 331.807501 
L 381.439665 329.035258 
L 381.915977 328.902615 
L 382.39229 331.727915 
L 382.868602 330.016818 
L 383.344914 320.811379 
L 384.297539 331.648329 
L 385.250164 330.600448 
L 385.726476 331.701386 
L 386.202789 334.314458 
L 386.679101 331.993202 
L 387.155414 337.365252 
L 388.108039 338.293754 
L 388.584351 338.413133 
L 389.060663 338.784534 
L 389.536976 338.704948 
L 390.013288 340.057909 
L 390.965913 338.612098 
L 391.442226 339.275314 
L 392.39485 339.129406 
L 393.347475 340.349724 
L 393.823788 339.925266 
L 394.3001 339.341636 
L 394.776412 339.368164 
L 395.252725 339.248785 
L 395.729037 339.381429 
L 396.20535 339.805887 
L 396.681662 340.416046 
L 397.157975 339.686508 
L 398.586912 339.155935 
L 399.063224 340.734389 
L 399.539537 339.421222 
L 400.015849 340.933354 
L 400.492161 340.535425 
L 400.968474 339.461015 
L 401.921099 339.049821 
L 402.873724 339.553865 
L 403.350036 340.508896 
L 403.826348 339.288578 
L 404.302661 339.593658 
L 404.778973 338.824327 
L 405.731598 339.235521 
L 406.207911 339.580393 
L 406.684223 340.641539 
L 407.160535 339.328371 
L 407.636848 339.155935 
L 408.589473 339.3549 
L 409.065785 338.704948 
L 409.542097 339.407957 
L 410.01841 339.620186 
L 410.494722 339.527336 
L 410.971035 338.638627 
L 411.92366 339.049821 
L 412.399972 338.293754 
L 412.876284 339.75283 
L 413.352597 339.832416 
L 413.828909 339.487543 
L 414.781534 338.227433 
L 415.257847 338.903913 
L 415.734159 339.102878 
L 416.210471 338.28049 
L 416.686784 340.071173 
L 417.163096 340.455839 
L 417.639409 338.638627 
L 418.115721 337.975411 
L 418.592033 337.710124 
L 419.068346 337.895825 
L 420.020971 339.965059 
L 420.497283 338.519248 
L 420.973596 338.360076 
L 421.449908 338.704948 
L 421.92622 338.108054 
L 422.402533 338.598834 
L 422.878845 338.532512 
L 423.355158 339.235521 
L 423.83147 338.413133 
L 424.784095 338.18764 
L 425.260407 337.272401 
L 425.73672 337.710124 
L 426.213032 338.333547 
L 426.689345 338.718213 
L 427.165657 338.37334 
L 427.641969 337.69686 
L 428.118282 338.227433 
L 428.594594 337.550952 
L 429.070907 337.20608 
L 430.023532 338.585569 
L 430.499844 337.802974 
L 431.452469 337.126494 
L 432.405094 336.755093 
L 432.881406 336.980586 
L 433.357718 337.78971 
L 433.834031 338.108054 
L 434.310343 337.856032 
L 434.786656 336.781622 
L 435.262968 336.821415 
L 435.739281 335.601097 
L 436.215593 318.105457 
L 436.691905 285.753777 
L 437.168218 314.723055 
L 437.64453 315.850522 
L 438.120843 265.790973 
L 438.597155 305.889017 
L 439.073468 304.880929 
L 439.54978 272.038469 
L 440.026092 287.968919 
L 440.502405 315.4128 
L 440.978717 317.707527 
L 441.45503 317.322862 
L 442.407654 310.146864 
L 442.883967 327.204782 
L 443.360279 290.343232 
L 443.836592 322.681648 
L 444.312904 312.003869 
L 444.789217 308.263331 
L 445.265529 334.16855 
L 445.741841 298.805869 
L 446.218154 272.370077 
L 446.694466 317.123897 
L 447.170779 308.953075 
L 447.647091 312.18957 
L 448.123403 333.09414 
L 449.076028 298.394675 
L 449.552341 262.793237 
L 450.028653 275.102527 
L 450.504966 328.066962 
L 450.981278 307.043013 
L 451.45759 319.484946 
L 451.933903 307.321564 
L 452.410215 292.14718 
L 452.886528 273.218993 
L 453.36284 325.268191 
L 453.839153 313.728231 
L 454.315465 332.90844 
L 454.791777 303.952426 
L 455.26809 301.830135 
L 455.744402 297.82431 
L 456.220715 269.133582 
L 456.697027 274.25361 
L 457.173339 308.47556 
L 457.649652 325.427362 
L 458.125964 297.625345 
L 458.602277 302.586201 
L 459.078589 290.67484 
L 459.554902 271.985411 
L 460.031214 310.014221 
L 460.507526 323.039785 
L 460.983839 305.676788 
L 461.460151 304.284034 
L 461.936464 299.774165 
L 462.412776 305.186008 
L 462.889089 269.080525 
L 463.365401 268.576481 
L 463.841713 309.24489 
L 464.318026 300.318002 
L 465.270651 319.790026 
L 466.223275 290.09121 
L 466.699588 271.269138 
L 467.1759 303.753461 
L 467.652213 306.737934 
L 468.128525 328.279192 
L 468.604838 300.079244 
L 469.08115 297.346794 
L 469.557462 268.629538 
L 470.033775 270.168199 
L 470.510087 311.990605 
L 470.9864 333.624713 
L 471.462712 327.125196 
L 471.939024 328.995465 
L 472.415337 320.081841 
L 472.891649 298.858927 
L 473.367962 318.357479 
L 473.844274 328.982201 
L 474.320587 330.215782 
L 474.796899 316.155602 
L 475.273211 329.526038 
L 475.749524 326.952759 
L 476.225836 312.720143 
L 476.702149 315.585236 
L 477.178461 330.162725 
L 477.654774 329.128108 
L 478.131086 319.378832 
L 478.607398 329.366866 
L 479.083711 319.988991 
L 479.560023 293.062418 
L 480.036336 303.793254 
L 480.512648 327.549654 
L 480.98896 332.736004 
L 481.465273 334.765445 
L 481.941585 331.489157 
L 482.417898 334.208343 
L 482.89421 324.49886 
L 483.370523 336.662243 
L 483.846835 330.985113 
L 484.323147 330.441276 
L 484.79946 334.022643 
L 485.275772 331.913616 
L 485.752085 328.929143 
L 486.228397 319.630854 
L 486.70471 326.873173 
L 487.181022 331.210607 
L 487.657334 329.38013 
L 488.133647 330.109668 
L 488.609959 335.05726 
L 489.086272 331.608536 
L 489.562584 325.029433 
L 490.038896 334.208343 
L 490.515209 334.725652 
L 490.991521 333.39922 
L 491.467834 334.195079 
L 491.944146 334.407308 
L 492.420459 325.533477 
L 492.896771 330.75962 
L 493.373083 334.248136 
L 493.849396 334.221608 
L 494.325708 334.606273 
L 494.802021 331.356514 
L 495.278333 334.301193 
L 495.754645 333.041083 
L 496.230958 331.4361 
L 496.70727 338.744741 
L 497.183583 335.05726 
L 497.659895 334.500158 
L 498.136208 330.75962 
L 498.61252 332.537039 
L 499.565145 323.212221 
L 500.51777 326.515037 
L 500.994082 323.106106 
L 501.470395 328.690386 
L 501.946707 332.152373 
L 502.423019 332.802325 
L 502.899332 331.913616 
L 503.375644 339.965059 
L 503.851957 335.362339 
L 504.328269 334.526687 
L 505.280894 333.810414 
L 505.757206 332.444188 
L 506.233519 335.654154 
L 506.709831 339.726301 
L 507.186144 335.229696 
L 507.662456 334.831766 
L 508.138768 335.070524 
L 508.615081 334.367515 
L 509.091393 334.181815 
L 509.567706 335.667419 
L 510.044018 335.455189 
L 510.520331 335.813326 
L 510.996643 337.962146 
L 511.472955 334.977674 
L 511.949268 334.301193 
L 512.42558 335.070524 
L 513.378205 338.333547 
L 513.854517 334.818502 
L 514.33083 334.632802 
L 514.807142 335.083788 
L 515.283455 334.128757 
L 515.759767 333.545127 
L 516.23608 339.010028 
L 516.712392 338.108054 
L 517.188704 334.990938 
L 517.665017 334.248136 
L 518.141329 335.282753 
L 519.093954 333.704299 
L 519.570266 337.710124 
L 520.046579 338.890649 
L 520.522891 337.351987 
L 520.999204 336.794886 
L 521.475516 335.508247 
L 521.951829 338.174375 
L 522.428141 339.527336 
L 522.904453 338.333547 
L 523.380766 337.444838 
L 523.857078 338.86412 
L 524.333391 336.582657 
L 524.809703 338.333547 
L 525.286016 336.343899 
L 525.762328 338.625362 
L 526.23864 336.755093 
L 526.714953 339.235521 
L 527.191265 338.37334 
L 528.14389 337.829503 
L 528.620202 337.444838 
L 529.096515 337.564217 
L 529.572827 334.65933 
L 530.04914 337.471366 
L 530.525452 338.015203 
L 531.001765 338.001939 
L 531.478077 337.564217 
L 531.954389 338.37334 
L 532.430702 338.651891 
L 532.907014 337.259137 
L 533.383327 339.195728 
L 533.859639 338.67842 
L 534.335952 338.426397 
L 534.812264 338.346812 
L 535.288576 338.054996 
L 535.764889 338.161111 
L 536.241201 337.139758 
L 536.717514 338.638627 
L 537.193826 338.147847 
L 537.670138 339.023292 
L 538.146451 338.028468 
L 538.622763 338.293754 
L 539.099076 337.975411 
L 539.575388 334.433837 
L 540.051701 338.081525 
L 540.528013 338.28049 
L 541.004325 337.816239 
L 541.480638 336.091877 
L 541.95695 337.338723 
L 542.433263 338.121318 
L 542.909575 335.110317 
L 543.385887 335.428661 
L 543.8622 337.60401 
L 545.291137 336.755093 
L 545.76745 337.099965 
L 546.243762 333.969585 
L 546.720074 329.618888 
L 547.196387 332.338074 
L 547.672699 338.452926 
L 548.149012 334.380779 
L 548.625324 335.959234 
L 549.101637 335.707212 
L 549.577949 336.648978 
L 550.054261 341.357812 
L 550.530574 341.357812 
L 551.006886 340.535425 
L 551.483199 336.755093 
L 552.435823 335.176639 
L 552.912136 332.961497 
L 553.388448 338.386604 
L 553.864761 337.365252 
L 554.341073 336.794886 
L 554.817386 334.765445 
L 555.293698 336.091877 
L 555.77001 336.03882 
L 556.246323 334.75218 
L 556.722635 332.736004 
L 557.198948 336.091877 
L 557.67526 334.274665 
L 558.151573 333.836942 
L 558.627885 335.892912 
L 559.104197 333.664506 
L 559.58051 329.857646 
L 560.056822 336.423485 
L 560.533135 336.556128 
L 561.009447 336.980586 
L 561.485759 335.627626 
L 561.962072 337.060172 
L 562.438384 335.269489 
L 562.914697 317.362655 
L 563.391009 321.978639 
L 563.867322 332.90844 
L 564.343634 334.526687 
L 564.819946 335.747005 
L 565.296259 332.444188 
L 565.772571 336.675507 
L 566.248884 330.706562 
L 566.725196 338.77127 
L 567.201508 335.972498 
L 567.677821 329.512773 
L 568.154133 336.343899 
L 568.630446 336.144934 
L 569.106758 329.923967 
L 569.583071 331.83403 
L 570.059383 319.31251 
L 570.535695 334.181815 
L 571.012008 335.256225 
L 571.48832 333.98285 
L 571.964633 333.319634 
L 572.440945 335.693947 
L 572.917258 318.927845 
L 573.39357 339.421222 
L 573.869882 337.909089 
L 574.346195 335.667419 
L 574.822507 331.714651 
L 575.29882 337.179551 
L 575.775132 335.800062 
L 576.251444 335.932705 
L 576.727757 334.858295 
L 577.204069 336.847943 
L 577.680382 337.378516 
L 578.156694 338.479455 
L 578.633007 337.657067 
L 579.109319 331.131021 
L 579.585631 327.244574 
L 580.061944 334.314458 
L 580.538256 336.383692 
L 581.014569 336.595921 
L 581.490881 337.763181 
L 581.967194 337.537688 
L 582.443506 336.728564 
L 582.919818 329.977025 
L 583.396131 335.54804 
L 583.872443 337.511159 
L 584.348756 337.550952 
L 584.825068 336.211256 
L 585.30138 333.571656 
L 585.777693 336.277577 
L 586.254005 325.75897 
L 586.730318 329.804589 
L 587.20663 335.892912 
L 587.682943 336.078613 
L 588.159255 329.897439 
L 588.635567 327.523125 
L 589.11188 325.75897 
L 589.588192 309.682613 
L 590.064505 306.485911 
L 590.540817 328.902615 
L 591.017129 324.631503 
L 591.493442 324.49886 
L 591.969754 327.32416 
L 592.446067 309.351005 
L 592.922379 309.762199 
L 593.398692 263.562567 
L 593.875004 263.124845 
L 594.351316 321.036872 
L 594.827629 332.563567 
L 595.303941 320.665471 
L 595.780254 337.086701 
L 596.256566 293.831749 
L 596.732879 283.114177 
L 597.209191 317.773849 
L 597.685503 318.874788 
L 598.161816 321.010343 
L 598.638128 333.027819 
L 599.114441 316.699439 
L 599.590753 264.292105 
L 600.067065 256.57227 
L 600.543378 316.274981 
L 601.01969 333.09414 
L 601.972315 312.149777 
L 602.448628 308.873489 
L 602.92494 263.11158 
L 603.401252 273.033293 
L 603.877565 330.162725 
L 604.353877 317.933021 
L 604.83019 314.497562 
L 605.306502 312.560971 
L 605.782815 331.635065 
L 606.259127 252.075665 
L 606.735439 257.567094 
L 607.211752 326.753795 
L 607.688064 322.416361 
L 608.640689 304.390149 
L 609.117001 318.795202 
L 609.593314 313.75476 
L 610.069626 255.816204 
L 610.545939 310.942723 
L 611.022251 327.708826 
L 611.498564 318.065664 
L 611.974876 263.005466 
L 612.451188 307.865401 
L 612.927501 237.392061 
L 613.403813 244.369094 
L 613.880126 294.322529 
L 614.356438 304.257505 
L 615.309063 331.847294 
L 615.785375 311.154953 
L 616.261688 235.667699 
L 616.738 302.201536 
L 617.214313 311.446768 
L 617.690625 317.16369 
L 618.166937 287.823011 
L 618.64325 292.969568 
L 619.595875 305.942074 
L 620.072187 239.050101 
L 620.5485 278.551251 
L 621.024812 298.328354 
L 621.501124 256.903878 
L 621.977437 277.29114 
L 622.453749 251.438978 
L 622.930062 276.176937 
L 623.406374 197.691947 
L 624.358999 318.556444 
L 624.835311 244.820081 
L 625.311624 319.71044 
L 625.787936 229.605904 
L 626.264249 208.900299 
L 626.740561 281.641837 
L 627.216873 151.532108 
L 627.693186 258.654768 
L 628.169498 244.820081 
L 628.645811 236.675788 
L 629.598435 255.98864 
L 630.074748 190.834293 
L 630.55106 260.949496 
L 631.027373 314.550619 
L 631.979998 271.295667 
L 632.45631 284.069208 
L 632.932622 164.70358 
L 633.408935 169.942987 
L 633.885247 243.86505 
L 634.36156 294.87963 
L 634.837872 288.724985 
L 635.314185 268.231608 
L 635.790497 235.707492 
L 636.266809 169.054277 
L 637.219434 255.855997 
L 637.695747 222.443171 
L 638.172059 287.159795 
L 638.648371 274.532161 
L 639.124684 237.856312 
L 639.600996 183.286894 
L 640.077309 257.089578 
L 640.553621 270.221257 
L 641.029934 253.53474 
L 641.506246 257.381394 
L 641.982558 247.207659 
L 642.458871 233.518879 
L 642.935183 147.658927 
L 643.411496 155.445083 
L 643.887808 196.829766 
L 644.364121 275.102527 
L 644.840433 315.10772 
L 645.316745 325.838556 
L 645.793058 305.690052 
L 646.26937 253.83982 
L 646.745683 310.345829 
L 647.221995 319.020695 
L 647.698307 324.856997 
L 648.17462 323.384657 
L 648.650932 314.815905 
L 649.127245 302.984131 
L 649.603557 248.520827 
L 650.07987 260.127108 
L 650.556182 311.261067 
L 651.032494 324.936583 
L 651.508807 334.022643 
L 651.985119 326.979288 
L 652.461432 318.224836 
L 652.937744 315.054663 
L 653.414056 294.043978 
L 653.890369 324.644767 
L 654.366681 319.909405 
L 654.842994 318.397272 
L 655.795619 313.94046 
L 656.271931 272.078262 
L 656.748243 332.192166 
L 657.224556 331.276928 
L 657.700868 326.541565 
L 658.177181 324.697825 
L 658.653493 324.578446 
L 659.129806 324.856997 
L 659.606118 326.939495 
L 660.08243 289.454523 
L 660.558743 278.378814 
L 661.035055 321.540916 
L 661.511368 315.094456 
L 662.463992 329.300544 
L 662.940305 325.851821 
L 663.416617 317.548356 
L 663.89293 326.24975 
L 664.369242 316.885139 
L 665.321867 332.006466 
L 666.274492 318.317686 
L 666.750804 308.223538 
L 667.227117 334.049171 
L 667.703429 332.921704 
L 668.179742 317.65447 
L 668.656054 325.997728 
L 669.132366 329.751531 
L 669.608679 334.911352 
L 670.084991 318.423801 
L 670.561304 326.926231 
L 671.037616 327.907791 
L 671.513928 330.401483 
L 671.990241 330.388219 
L 672.466553 325.08249 
L 672.942866 316.076016 
L 673.419178 312.096719 
L 674.371803 329.77806 
L 674.848115 326.568094 
L 675.324428 325.307984 
L 675.80074 323.61015 
L 676.277053 323.291807 
L 676.753365 336.821415 
L 677.229677 331.117756 
L 677.70599 330.428012 
L 678.182302 333.147198 
L 678.658615 332.404396 
L 679.134927 330.560655 
L 679.61124 329.831117 
L 680.087552 334.951145 
L 680.563864 332.629889 
L 681.040177 331.754444 
L 681.516489 330.189254 
L 681.992802 332.868647 
L 682.469114 331.117756 
L 682.945427 330.520862 
L 683.421739 338.121318 
L 683.898051 333.439013 
L 684.374364 333.332898 
L 684.850676 332.762532 
L 685.326989 332.842118 
L 685.803301 331.873823 
L 686.279613 331.92688 
L 686.755926 337.577481 
L 687.232238 333.836942 
L 687.708551 332.669682 
L 688.184863 333.757356 
L 688.661176 333.439013 
L 689.137488 332.629889 
L 689.6138 334.977674 
L 690.090113 332.205431 
L 690.566425 331.595272 
L 691.042738 332.086052 
L 691.51905 334.102229 
L 691.995363 332.90844 
L 692.471675 332.338074 
L 692.947987 337.139758 
L 693.4243 334.035907 
L 693.900612 334.924617 
L 694.376925 334.181815 
L 694.853237 335.64089 
L 695.329549 335.24296 
L 695.805862 336.901 
L 696.282174 335.110317 
L 696.758487 331.767708 
L 697.234799 337.617274 
L 697.711112 332.51051 
L 698.187424 333.717563 
L 698.663736 331.714651 
L 699.140049 331.873823 
L 699.616361 334.685859 
L 700.092674 336.781622 
L 700.568986 334.301193 
L 701.045298 335.05726 
L 701.521611 338.37334 
L 701.997923 336.609185 
L 702.474236 336.463278 
L 702.950548 334.155286 
L 703.426861 337.20608 
L 703.903173 338.386604 
L 704.379485 338.081525 
L 704.855798 336.13167 
L 705.33211 336.330635 
L 705.808423 335.985762 
L 706.284735 336.03882 
L 706.761048 327.191517 
L 707.23736 339.646715 
L 707.713672 337.338723 
L 708.189985 334.181815 
L 708.666297 335.136846 
L 709.14261 334.234872 
L 709.618922 330.573919 
L 710.095234 331.873823 
L 710.571547 335.070524 
L 711.047859 333.863471 
L 712.000484 334.447101 
L 712.476797 332.974761 
L 712.953109 326.196693 
L 713.429421 329.207694 
L 713.905734 335.017467 
L 714.382046 332.258488 
L 714.858359 334.858295 
L 715.334671 335.136846 
L 715.810984 333.823678 
L 716.287296 330.613712 
L 716.763608 328.756707 
L 717.239921 332.921704 
L 717.716233 333.850207 
L 718.192546 332.895175 
L 718.668858 336.542864 
L 719.14517 341.357812 
L 719.621483 341.357812 
L 720.097795 340.203817 
L 721.05042 333.850207 
L 721.526733 332.775797 
L 722.003045 335.468454 
L 722.479357 336.489807 
L 722.95567 335.587833 
L 723.431982 333.107405 
L 723.908295 328.12002 
L 724.384607 334.208343 
L 724.860919 332.311545 
L 725.337232 331.727915 
L 725.813544 333.903264 
L 726.289857 333.00129 
L 726.766169 336.22452 
L 727.718794 332.271752 
L 728.671419 332.165638 
L 729.147731 331.303457 
L 729.624044 332.298281 
L 730.100356 321.779674 
L 730.576669 334.911352 
L 731.052981 331.582008 
L 731.529293 331.157549 
L 732.005606 331.223871 
L 732.481918 334.088964 
L 732.958231 334.765445 
L 733.434543 337.29893 
L 733.910855 332.351338 
L 734.387168 336.635714 
L 734.86348 334.049171 
L 735.339793 320.254277 
L 736.292418 335.123581 
L 736.76873 323.238749 
L 737.245042 328.027169 
L 737.721355 330.428012 
L 738.197667 334.778709 
L 738.67398 330.905527 
L 739.150292 331.648329 
L 739.626605 331.290193 
L 740.102917 337.033644 
L 741.055542 329.671945 
L 741.531854 334.367515 
L 742.008167 329.884174 
L 742.484479 334.791973 
L 742.960791 320.10837 
L 743.437104 333.558391 
L 743.913416 329.274016 
L 744.389729 330.467805 
L 744.866041 332.338074 
L 745.342354 328.88935 
L 745.818666 329.96376 
L 746.294978 329.738267 
L 746.771291 320.731793 
L 747.247603 328.982201 
L 747.723916 313.927196 
L 748.200228 328.730178 
L 748.67654 325.095754 
L 749.152853 316.434153 
L 749.629165 302.493351 
L 750.105478 301.312826 
L 750.58179 331.011642 
L 751.058103 330.414747 
L 751.534415 318.622766 
L 752.010727 329.406659 
L 752.48704 310.677437 
L 752.963352 328.6108 
L 753.439665 284.002887 
L 753.915977 328.88935 
L 754.39229 323.703001 
L 754.868602 327.350689 
L 755.821227 311.194746 
L 756.297539 286.164971 
L 756.773852 332.60336 
L 757.250164 323.238749 
L 757.726476 328.066962 
L 758.202789 316.97799 
L 758.679101 310.279507 
L 759.155414 317.813642 
L 759.631726 276.21673 
L 760.108039 256.890614 
L 760.584351 313.529266 
L 761.060663 316.235188 
L 762.489601 294.720458 
L 762.965913 203.329284 
L 763.442226 248.189219 
L 763.918538 327.337425 
L 764.39485 314.33839 
L 764.871163 313.688438 
L 765.347475 311.181481 
L 765.823788 298.248768 
L 766.3001 270.221257 
L 766.776412 266.016467 
L 767.252725 182.212484 
L 767.729037 308.157216 
L 768.20535 313.675174 
L 768.681662 313.423152 
L 769.157975 322.575533 
L 769.634287 204.841416 
L 770.110599 200.132582 
L 770.586912 285.316054 
L 771.063224 287.504667 
L 771.539537 324.910054 
L 772.015849 305.995132 
L 772.492161 272.966971 
L 772.968474 165.525968 
L 773.444786 215.824274 
L 773.921099 311.035574 
L 774.397411 325.984464 
L 774.873724 286.47005 
L 775.350036 308.555146 
L 775.826348 259.662857 
L 776.302661 236.768638 
L 776.778973 296.219327 
L 777.255286 271.322195 
L 777.731598 278.697158 
L 778.207911 296.35197 
L 778.684223 299.455821 
L 779.160535 253.640855 
L 779.636848 121.037434 
L 780.11316 86.152268 
L 780.589473 289.812659 
L 781.065785 259.21187 
L 781.542097 281.323494 
L 782.494722 230.919072 
L 782.971035 100.650171 
L 783.447347 254.569357 
L 783.92366 250.457418 
L 784.399972 251.160427 
L 784.876284 301.007747 
L 785.352597 234.221888 
L 786.305222 77.437609 
L 786.781534 113.264541 
L 787.734159 309.722406 
L 788.210471 233.174007 
L 788.686784 241.198921 
L 789.163096 243.559971 
L 789.639409 115.081753 
L 790.115721 105.783464 
L 790.592033 224.857277 
L 791.068346 262.819765 
L 791.544658 274.346461 
L 792.020971 215.373288 
L 792.497283 209.006413 
L 792.973596 38.957812 
L 793.449908 108.568971 
L 793.92622 296.948864 
L 794.402533 256.850821 
L 794.878845 244.249715 
L 795.355158 217.256821 
L 795.83147 205.597483 
L 796.307782 94.933249 
L 796.784095 282.543811 
L 797.260407 205.995412 
L 797.73672 216.620134 
L 798.213032 220.984096 
L 798.689345 196.047171 
L 799.165657 196.949145 
L 799.641969 108.370007 
L 800.118282 73.683806 
L 801.070907 215.386552 
L 801.547219 219.92295 
L 802.023532 296.325441 
L 802.976156 96.246417 
L 803.928781 300.543495 
L 804.405094 234.394324 
L 804.881406 203.037469 
L 805.357718 198.40822 
L 805.834031 185.661208 
L 806.310343 67.568954 
L 807.739281 215.665103 
L 808.215593 248.74632 
L 809.168218 193.739179 
L 809.64453 104.045838 
L 810.120843 262.34225 
L 810.597155 311.685525 
L 811.073468 231.144566 
L 811.54978 218.875068 
L 812.026092 278.4584 
L 812.502405 253.176604 
L 812.978717 131.317283 
L 813.45503 145.788657 
L 814.407654 310.306036 
L 814.883967 237.498176 
L 815.360279 225.4807 
L 815.836592 193.4341 
L 816.312904 133.585482 
L 816.789217 241.145864 
L 817.265529 228.160093 
L 817.741841 292.982832 
L 818.218154 309.748935 
L 818.694466 294.587815 
L 819.170779 283.976358 
L 819.647091 195.277841 
L 820.123403 240.33674 
L 820.599716 322.999992 
L 821.076028 316.871875 
L 821.552341 295.131652 
L 822.028653 301.219976 
L 822.504966 295.980569 
L 822.981278 204.019028 
L 823.45759 290.887069 
L 823.933903 287.053681 
L 824.410215 292.889982 
L 824.886528 317.521827 
L 825.36284 312.362006 
L 825.839153 305.743109 
L 826.315465 250.430889 
L 826.791777 325.374305 
L 827.26809 324.936583 
L 827.744402 328.013905 
L 829.173339 298.10286 
L 829.649652 286.390464 
L 830.125964 289.0168 
L 830.602277 318.277893 
L 831.078589 316.022959 
L 831.554902 307.560321 
L 832.031214 317.25654 
L 832.507526 322.641855 
L 832.983839 295.410203 
L 833.936464 280.302141 
L 834.412776 304.496263 
L 834.889089 321.315423 
L 835.365401 329.061787 
L 835.841713 314.33839 
L 836.318026 311.433503 
L 836.794338 307.6797 
L 837.270651 327.576183 
L 837.746963 328.88935 
L 838.223275 319.405361 
L 838.699588 327.987376 
L 839.1759 316.818818 
L 839.652213 278.975709 
L 840.128525 282.450961 
L 840.604838 310.425415 
L 841.08115 317.535091 
L 841.557462 328.332249 
L 842.033775 318.463594 
L 842.510087 319.471682 
L 842.9864 299.548671 
L 843.462712 315.691351 
L 843.939024 326.010993 
L 844.891649 322.164339 
L 845.367962 329.220958 
L 845.844274 319.89614 
L 846.320587 295.927512 
L 846.796899 295.927512 
L 847.273211 323.862173 
L 847.749524 325.825292 
L 848.225836 326.223222 
L 848.702149 315.90358 
L 849.178461 332.231959 
L 849.654774 318.569708 
L 850.131086 327.867998 
L 850.607398 328.544478 
L 851.083711 333.704299 
L 851.560023 333.757356 
L 852.036336 331.329985 
L 852.512648 332.974761 
L 852.98896 330.693298 
L 853.465273 334.712387 
L 853.941585 331.303457 
L 854.417898 329.791324 
L 854.89421 327.669033 
L 855.370523 331.064699 
L 855.846835 326.806852 
L 856.323147 315.956637 
L 856.79946 336.834679 
L 857.275772 330.693298 
L 857.752085 331.117756 
L 858.228397 333.545127 
L 858.70471 332.430924 
L 859.181022 332.51051 
L 859.657334 333.133933 
L 860.133647 329.671945 
L 860.609959 334.035907 
L 861.086272 332.298281 
L 861.562584 331.131021 
L 862.038896 328.159813 
L 862.515209 332.178902 
L 862.991521 333.505334 
L 863.467834 336.927529 
L 863.944146 332.842118 
L 864.420459 332.60336 
L 864.896771 334.553216 
L 865.373083 335.82659 
L 865.849396 332.231959 
L 866.325708 332.430924 
L 866.802021 334.394044 
L 867.278333 330.666769 
L 867.754645 331.449364 
L 868.230958 328.597535 
L 868.70727 332.457453 
L 869.183583 340.309931 
L 869.659895 341.357812 
L 870.136208 334.685859 
L 870.61252 334.340986 
L 871.088832 331.170814 
L 871.565145 331.03817 
L 872.041457 323.955023 
L 872.51777 330.17599 
L 872.994082 333.943057 
L 873.470395 331.661594 
L 873.946707 326.037521 
L 874.423019 335.773533 
L 874.899332 335.906176 
L 875.375644 332.90844 
L 875.851957 332.457453 
L 876.328269 328.345513 
L 876.804581 334.195079 
L 877.280894 331.489157 
L 877.757206 332.576832 
L 878.233519 333.359427 
L 878.709831 333.876735 
L 879.186144 336.052084 
L 879.662456 330.149461 
L 880.138768 329.68521 
L 880.615081 331.184078 
L 881.091393 336.80815 
L 881.567706 331.077963 
L 882.044018 334.195079 
L 882.520331 332.364603 
L 882.996643 331.887087 
L 883.472955 336.211256 
L 883.949268 328.730178 
L 884.42558 332.483981 
L 884.901893 332.231959 
L 885.378205 335.349075 
L 885.854517 332.789061 
L 886.33083 331.674858 
L 886.807142 337.007115 
L 887.283455 332.41766 
L 887.759767 334.526687 
L 888.23608 330.36169 
L 888.712392 331.396307 
L 889.188704 334.619537 
L 889.665017 339.885473 
L 890.141329 331.03817 
L 890.617642 331.502422 
L 891.093954 335.296018 
L 891.570266 330.069875 
L 892.046579 334.831766 
L 892.522891 332.377867 
L 892.999204 325.838556 
L 893.475516 323.583622 
L 893.951829 330.003553 
L 894.428141 329.47298 
L 894.904453 332.736004 
L 895.380766 330.374954 
L 895.857078 334.526687 
L 896.333391 329.075051 
L 896.809703 322.111282 
L 897.286016 319.790026 
L 897.762328 330.043346 
L 898.23864 334.022643 
L 898.714953 336.794886 
L 899.191265 330.26884 
L 899.667578 334.301193 
L 900.14389 329.47298 
L 900.620202 334.646066 
L 901.096515 330.016818 
L 901.572827 330.680034 
L 902.04914 328.637328 
L 902.525452 333.18699 
L 903.001765 331.847294 
L 903.478077 329.857646 
L 903.954389 331.52895 
L 904.430702 332.789061 
L 904.907014 327.562918 
L 905.383327 331.276928 
L 905.859639 331.887087 
L 906.335952 331.396307 
L 907.288576 333.518599 
L 907.764889 334.142022 
L 908.241201 327.417011 
L 908.717514 329.539302 
L 909.193826 335.043995 
L 909.670138 331.887087 
L 910.146451 332.921704 
L 910.622763 326.329336 
L 911.099076 326.010993 
L 911.575388 330.666769 
L 912.051701 332.01973 
L 912.528013 326.448715 
L 913.004325 337.153023 
L 913.480638 312.454856 
L 913.95695 331.4361 
L 914.433263 330.653505 
L 914.909575 333.240048 
L 915.385887 328.663857 
L 915.8622 335.335811 
L 916.338512 324.392745 
L 916.814825 318.662559 
L 917.291137 324.40601 
L 917.76745 331.860558 
L 918.243762 320.665471 
L 918.720074 321.501123 
L 919.196387 286.324143 
L 919.672699 287.902597 
L 920.149012 278.511458 
L 921.101637 315.877051 
L 921.577949 299.588464 
L 922.054261 291.908422 
L 922.530574 295.967305 
L 923.006886 262.992201 
L 923.483199 275.14232 
L 923.959511 330.520862 
L 924.435823 327.735354 
L 924.912136 323.066313 
L 925.388448 322.575533 
L 925.864761 315.147513 
L 926.341073 325.414098 
L 926.817386 306.830784 
L 927.293698 324.034609 
L 928.246323 314.497562 
L 928.722635 299.416028 
L 929.198948 322.694912 
L 930.151573 331.860558 
L 930.627885 322.641855 
L 931.104197 326.408922 
L 931.58051 326.64768 
L 932.056822 316.911668 
L 932.533135 297.61208 
L 933.009447 221.567726 
L 933.485759 315.784201 
L 933.962072 303.023924 
L 934.438384 306.379797 
L 934.914697 303.514703 
L 935.391009 298.155918 
L 935.867322 287.84954 
L 936.343634 199.588745 
L 936.819946 237.299211 
L 937.296259 301.777077 
L 937.772571 304.297298 
L 938.248884 317.919757 
L 938.725196 307.905194 
L 939.201508 295.144917 
L 939.677821 270.420221 
L 940.154133 78.379376 
L 941.106758 280.341934 
L 941.583071 313.104808 
L 942.535695 287.199588 
L 943.012008 166.494263 
L 943.48832 165.897369 
L 943.964633 277.596219 
L 944.440945 289.348408 
L 944.917258 278.126792 
L 945.39357 281.933652 
L 945.869882 270.911001 
L 946.346195 155.829749 
L 946.822507 194.932968 
L 947.29882 281.960181 
L 947.775132 288.698456 
L 948.251444 282.782569 
L 948.727757 314.497562 
L 949.204069 305.544145 
L 949.680382 160.711019 
L 950.156694 274.028117 
L 950.633007 307.480736 
L 951.109319 294.123564 
L 951.585631 308.236802 
L 952.061944 300.543495 
L 952.538256 284.493667 
L 953.014569 57.116669 
L 953.490881 98.050364 
L 953.967194 255.00708 
L 954.443506 244.621116 
L 954.919818 250.590061 
L 955.396131 261.373954 
L 955.872443 283.193763 
L 956.348756 267.555128 
L 956.825068 159.02645 
L 957.30138 295.330617 
L 957.777693 315.001606 
L 958.254005 262.965673 
L 958.730318 230.97213 
L 959.20663 246.451593 
L 959.682943 94.177183 
L 960.159255 237.140039 
L 960.635567 168.072717 
L 961.11188 211.937828 
L 961.588192 149.104738 
L 962.064505 268.457102 
L 963.017129 118.915142 
L 963.493442 179.931021 
L 964.446067 251.492035 
L 964.922379 217.707808 
L 965.398692 268.868296 
L 965.875004 182.716528 
L 966.351316 155.285911 
L 966.827629 115.758234 
L 967.303941 236.211537 
L 967.780254 230.680314 
L 968.256566 191.86891 
L 968.732879 246.862787 
L 969.209191 216.169147 
L 969.685503 64.650803 
L 970.161816 136.384253 
L 970.638128 261.771884 
L 971.114441 239.514353 
L 971.590753 203.050733 
L 972.067065 228.849838 
L 972.543378 209.842066 
L 973.01969 244.93946 
L 973.496003 89.879542 
L 973.972315 224.207326 
L 974.448628 207.149408 
L 974.92494 213.834626 
L 975.401252 228.531494 
L 975.877565 194.787061 
L 976.353877 96.326003 
L 976.83019 64.067173 
L 977.306502 273.099614 
L 977.782815 254.662208 
L 978.259127 170.699053 
L 978.735439 266.852119 
L 979.211752 169.545057 
L 979.688064 217.973095 
L 980.164377 104.470296 
L 980.640689 213.808098 
L 981.117001 198.262313 
L 981.593314 175.275244 
L 982.545939 238.439943 
L 983.022251 62.793798 
L 983.498564 110.134161 
L 983.974876 225.520493 
L 984.451188 216.646662 
L 984.927501 288.8311 
L 985.403813 246.557707 
L 985.880126 225.308264 
L 986.356438 187.345776 
L 986.83275 123.54439 
L 987.309063 210.797097 
L 987.785375 214.975358 
L 988.261688 245.589412 
L 988.738 212.866331 
L 989.214313 195.662506 
L 989.690625 130.813238 
L 990.166937 83.061681 
L 990.64325 141.172673 
L 991.119562 282.119353 
L 991.595875 286.841451 
L 992.072187 308.117423 
L 992.5485 295.808133 
L 993.024812 216.368112 
L 993.501124 216.39464 
L 993.977437 292.836925 
L 994.453749 318.768673 
L 994.930062 309.908106 
L 995.882686 280.182762 
L 996.358999 190.250663 
L 997.311624 303.541232 
L 997.787936 302.4005 
L 998.264249 302.055628 
L 998.740561 297.691666 
L 999.216873 286.324143 
L 999.693186 231.370059 
L 1000.169498 242.153953 
L 1000.645811 299.124213 
L 1001.122123 313.144601 
L 1001.598435 309.404062 
L 1002.074748 311.964076 
L 1002.55106 288.565813 
L 1003.027373 242.512089 
L 1003.503685 243.533442 
L 1003.979998 282.450961 
L 1004.45631 287.743425 
L 1004.932622 288.260734 
L 1005.408935 296.736635 
L 1005.885247 302.135214 
L 1006.36156 279.612396 
L 1006.837872 310.451944 
L 1007.314185 306.154303 
L 1007.790497 251.810379 
L 1008.266809 317.428977 
L 1008.743122 309.417326 
L 1009.219434 313.94046 
L 1009.695747 312.056926 
L 1010.172059 317.680999 
L 1010.648371 321.142987 
L 1011.124684 315.797465 
L 1012.077309 320.028784 
L 1012.553621 328.544478 
L 1013.029934 312.017133 
L 1013.506246 310.505001 
L 1013.982558 317.972814 
L 1014.458871 312.454856 
L 1014.935183 319.166603 
L 1015.411496 328.265927 
L 1015.887808 311.274331 
L 1016.364121 288.685192 
L 1016.840433 326.422187 
L 1017.316745 316.513738 
L 1018.26937 329.141372 
L 1018.745683 328.70365 
L 1020.17462 316.540267 
L 1020.650932 332.139109 
L 1021.127245 330.786148 
L 1021.603557 328.345513 
L 1022.07987 328.7965 
L 1022.556182 323.185692 
L 1023.032494 325.002904 
L 1023.508807 322.893877 
L 1023.985119 315.5985 
L 1024.461432 330.255575 
L 1025.414056 326.090579 
L 1025.890369 330.308633 
L 1026.366681 317.349391 
L 1026.842994 325.374305 
L 1027.319306 329.433188 
L 1027.795619 336.450014 
L 1028.271931 331.223871 
L 1028.748243 329.764796 
L 1029.224556 329.433188 
L 1029.700868 325.719178 
L 1030.177181 333.120669 
L 1030.653493 310.703966 
L 1031.129806 334.593009 
L 1031.606118 334.951145 
L 1032.08243 327.13846 
L 1032.558743 335.216432 
L 1033.035055 331.489157 
L 1033.511368 335.335811 
L 1033.98768 333.18699 
L 1034.463992 333.730828 
L 1034.940305 332.828854 
L 1035.416617 334.367515 
L 1035.89293 332.802325 
L 1036.369242 330.030082 
L 1036.845555 333.744092 
L 1037.321867 334.128757 
L 1037.798179 308.342916 
L 1038.274492 333.664506 
L 1038.750804 325.812028 
L 1039.227117 327.81494 
L 1040.179742 333.783885 
L 1040.656054 334.234872 
L 1041.132366 327.907791 
L 1041.608679 331.263664 
L 1042.084991 329.021994 
L 1042.561304 331.555479 
L 1043.037616 335.468454 
L 1043.513928 328.743443 
L 1043.990241 328.584271 
L 1044.466553 331.727915 
L 1044.942866 335.680683 
L 1045.419178 331.820765 
L 1045.895491 330.36169 
L 1046.371803 325.838556 
L 1047.324428 328.88935 
L 1047.80074 330.321897 
L 1048.277053 331.104492 
L 1048.753365 329.327073 
L 1049.229677 333.439013 
L 1049.70599 333.810414 
L 1050.182302 334.805238 
L 1050.658615 334.593009 
L 1051.134927 336.383692 
L 1051.61124 335.083788 
L 1052.087552 335.070524 
L 1052.563864 327.23131 
L 1053.040177 339.699772 
L 1053.516489 337.511159 
L 1053.992802 334.778709 
L 1054.469114 335.866383 
L 1054.945427 334.937881 
L 1055.421739 334.858295 
L 1055.898051 334.035907 
L 1056.374364 335.441925 
L 1056.850676 330.414747 
L 1057.803301 338.147847 
L 1058.279613 335.256225 
L 1058.755926 334.128757 
L 1059.232238 334.500158 
L 1059.708551 333.505334 
L 1060.184863 333.412484 
L 1060.661176 323.756058 
L 1061.137488 334.287929 
L 1061.6138 332.483981 
L 1062.090113 335.176639 
L 1062.566425 331.263664 
L 1063.042738 323.278542 
L 1063.51905 325.042697 
L 1063.995363 334.049171 
L 1064.471675 332.775797 
L 1064.947987 332.590096 
L 1065.4243 332.749268 
L 1065.900612 327.191517 
L 1066.376925 319.179867 
L 1066.853237 331.621801 
L 1067.329549 332.430924 
L 1067.805862 329.313809 
L 1068.282174 321.76641 
L 1068.758487 334.420572 
L 1069.234799 334.221608 
L 1069.711112 330.825941 
L 1070.187424 333.425748 
L 1070.663736 329.28728 
L 1071.140049 329.101579 
L 1071.616361 330.666769 
L 1072.092674 330.985113 
L 1072.568986 329.526038 
L 1073.045298 331.144285 
L 1073.521611 331.157549 
L 1073.997923 325.838556 
L 1074.474236 325.228398 
L 1074.950548 333.916528 
L 1075.426861 332.51051 
L 1075.903173 326.170164 
L 1076.379485 330.428012 
L 1076.855798 329.141372 
L 1077.33211 323.013256 
L 1077.808423 328.823029 
L 1078.284735 330.255575 
L 1078.761048 322.283718 
L 1079.713672 335.256225 
L 1080.189985 334.460365 
L 1080.666297 325.042697 
L 1081.14261 323.5173 
L 1081.618922 300.06598 
L 1082.095234 331.157549 
L 1082.571547 326.488508 
L 1083.047859 324.856997 
L 1083.524172 330.308633 
L 1084.000484 330.45454 
L 1084.476797 332.351338 
L 1084.953109 331.210607 
L 1085.429421 330.573919 
L 1085.905734 333.956321 
L 1086.382046 328.584271 
L 1086.858359 325.228398 
L 1087.334671 325.75897 
L 1087.810984 330.534126 
L 1089.239921 313.250715 
L 1089.716233 306.552233 
L 1090.192546 308.608203 
L 1090.668858 318.927845 
L 1091.14517 331.780972 
L 1091.621483 333.943057 
L 1092.097795 334.022643 
L 1092.574108 326.170164 
L 1093.05042 305.782902 
L 1093.526733 296.84275 
L 1094.003045 325.679385 
L 1094.479357 323.02652 
L 1094.95567 313.728231 
L 1095.431982 331.807501 
L 1095.908295 333.452277 
L 1096.384607 320.134898 
L 1096.860919 311.30086 
L 1097.337232 314.391447 
L 1097.813544 315.240364 
L 1098.289857 332.802325 
L 1098.766169 325.17534 
L 1099.242482 323.676472 
L 1099.718794 320.890965 
L 1100.195106 312.37527 
L 1100.671419 310.266243 
L 1101.147731 326.926231 
L 1102.576669 307.00322 
L 1103.052981 323.941758 
L 1103.529293 311.844697 
L 1104.005606 316.540267 
L 1104.481918 325.719178 
L 1105.434543 293.009361 
L 1105.910855 320.453242 
L 1106.387168 261.506597 
L 1106.86348 316.593324 
L 1107.339793 296.405027 
L 1107.816105 300.530231 
L 1108.292418 306.737934 
L 1108.76873 316.818818 
L 1109.245042 310.62438 
L 1109.721355 295.158181 
L 1110.197667 259.914879 
L 1110.67398 318.450329 
L 1111.150292 318.901316 
L 1111.626605 311.247803 
L 1112.102917 298.049803 
L 1112.579229 313.608852 
L 1113.055542 194.840118 
L 1113.531854 122.28428 
L 1114.008167 133.015116 
L 1114.484479 292.624696 
L 1114.960791 306.247154 
L 1115.913416 271.176288 
L 1116.389729 284.268173 
L 1116.866041 174.134512 
L 1117.342354 315.147513 
L 1117.818666 318.304422 
L 1118.294978 285.713984 
L 1118.771291 287.624046 
L 1119.247603 274.346461 
L 1119.723916 189.242574 
L 1120.200228 294.78678 
L 1120.67654 281.323494 
L 1121.152853 281.535723 
L 1121.629165 290.449347 
L 1122.105478 287.305703 
L 1122.58179 306.02166 
L 1123.058103 211.619485 
L 1123.534415 281.734688 
L 1124.010727 293.062418 
L 1124.48704 287.769954 
L 1124.963352 303.939162 
L 1124.963352 303.939162 
" clip-path="url(#p48cb35f6ae)" style="fill: none; stroke: #008080; stroke-width: 1.5; stroke-linecap: square"/>
   </g>
   <g id="patch_3">
    <path d="M 59.690625 356.477812 
L 59.690625 23.837812 
" style="fill: none; stroke: #000000; stroke-width: 0.8; stroke-linejoin: miter; stroke-linecap: square"/>
   </g>
   <g id="patch_4">
    <path d="M 1175.690625 356.477812 
L 1175.690625 23.837812 
" style="fill: none; stroke: #000000; stroke-width: 0.8; stroke-linejoin: miter; stroke-linecap: square"/>
   </g>
   <g id="patch_5">
    <path d="M 59.690625 356.477812 
L 1175.690625 356.477812 
" style="fill: none; stroke: #000000; stroke-width: 0.8; stroke-linejoin: miter; stroke-linecap: square"/>
   </g>
   <g id="patch_6">
    <path d="M 59.690625 23.837812 
L 1175.690625 23.837812 
" style="fill: none; stroke: #000000; stroke-width: 0.8; stroke-linejoin: miter; stroke-linecap: square"/>
   </g>
   <g id="text_14">
    <!-- Toronto Island Ferry Ticket Redemptions -->
    <g transform="translate(477.780313 17.837812) scale(0.14 -0.14)">
     <defs>
      <path id="DejaVuSans-72" d="M 2631 2963 
Q 2534 3019 2420 3045 
Q 2306 3072 2169 3072 
Q 1681 3072 1420 2755 
Q 1159 2438 1159 1844 
L 1159 0 
L 581 0 
L 581 3500 
L 1159 3500 
L 1159 2956 
Q 1341 3275 1631 3429 
Q 1922 3584 2338 3584 
Q 2397 3584 2469 3576 
Q 2541 3569 2628 3553 
L 2631 2963 
z
" transform="scale(0.015625)"/>
      <path id="DejaVuSans-49" d="M 628 4666 
L 1259 4666 
L 1259 0 
L 628 0 
L 628 4666 
z
" transform="scale(0.015625)"/>
      <path id="DejaVuSans-6c" d="M 603 4863 
L 1178 4863 
L 1178 0 
L 603 0 
L 603 4863 
z
" transform="scale(0.015625)"/>
      <path id="DejaVuSans-46" d="M 628 4666 
L 3309 4666 
L 3309 4134 
L 1259 4134 
L 1259 2759 
L 3109 2759 
L 3109 2228 
L 1259 2228 
L 1259 0 
L 628 0 
L 628 4666 
z
" transform="scale(0.015625)"/>
      <path id="DejaVuSans-79" d="M 2059 -325 
Q 1816 -950 1584 -1140 
Q 1353 -1331 966 -1331 
L 506 -1331 
L 506 -850 
L 844 -850 
Q 1081 -850 1212 -737 
Q 1344 -625 1503 -206 
L 1606 56 
L 191 3500 
L 800 3500 
L 1894 763 
L 2988 3500 
L 3597 3500 
L 2059 -325 
z
" transform="scale(0.015625)"/>
     </defs>
     <use xlink:href="#DejaVuSans-54"/>
     <use xlink:href="#DejaVuSans-6f" x="44.083984"/>
     <use xlink:href="#DejaVuSans-72" x="105.265625"/>
     <use xlink:href="#DejaVuSans-6f" x="144.128906"/>
     <use xlink:href="#DejaVuSans-6e" x="205.310547"/>
     <use xlink:href="#DejaVuSans-74" x="268.689453"/>
     <use xlink:href="#DejaVuSans-6f" x="307.898438"/>
     <use xlink:href="#DejaVuSans-20" x="369.080078"/>
     <use xlink:href="#DejaVuSans-49" x="400.867188"/>
     <use xlink:href="#DejaVuSans-73" x="430.359375"/>
     <use xlink:href="#DejaVuSans-6c" x="482.458984"/>
     <use xlink:href="#DejaVuSans-61" x="510.242188"/>
     <use xlink:href="#DejaVuSans-6e" x="571.521484"/>
     <use xlink:href="#DejaVuSans-64" x="634.900391"/>
     <use xlink:href="#DejaVuSans-20" x="698.376953"/>
     <use xlink:href="#DejaVuSans-46" x="730.164062"/>
     <use xlink:href="#DejaVuSans-65" x="782.183594"/>
     <use xlink:href="#DejaVuSans-72" x="843.707031"/>
     <use xlink:href="#DejaVuSans-72" x="883.070312"/>
     <use xlink:href="#DejaVuSans-79" x="924.183594"/>
     <use xlink:href="#DejaVuSans-20" x="983.363281"/>
     <use xlink:href="#DejaVuSans-54" x="1015.150391"/>
     <use xlink:href="#DejaVuSans-69" x="1073.109375"/>
     <use xlink:href="#DejaVuSans-63" x="1100.892578"/>
     <use xlink:href="#DejaVuSans-6b" x="1155.873047"/>
     <use xlink:href="#DejaVuSans-65" x="1210.158203"/>
     <use xlink:href="#DejaVuSans-74" x="1271.681641"/>
     <use xlink:href="#DejaVuSans-20" x="1310.890625"/>
     <use xlink:href="#DejaVuSans-52" x="1342.677734"/>
     <use xlink:href="#DejaVuSans-65" x="1407.660156"/>
     <use xlink:href="#DejaVuSans-64" x="1469.183594"/>
     <use xlink:href="#DejaVuSans-65" x="1532.660156"/>
     <use xlink:href="#DejaVuSans-6d" x="1594.183594"/>
     <use xlink:href="#DejaVuSans-70" x="1691.595703"/>
     <use xlink:href="#DejaVuSans-74" x="1755.072266"/>
     <use xlink:href="#DejaVuSans-69" x="1794.28125"/>
     <use xlink:href="#DejaVuSans-6f" x="1822.064453"/>
     <use xlink:href="#DejaVuSans-6e" x="1883.246094"/>
     <use xlink:href="#DejaVuSans-73" x="1946.625"/>
    </g>
   </g>
  </g>
  <g id="text_15">
   <!-- (Data from 2018-08-13 09:15:00 to 2024-06-12 13:00:00) -->
   <g style="fill: #808080" transform="translate(454.635938 399.677812) scale(0.1 -0.1)">
    <defs>
     <path id="DejaVuSans-28" d="M 1984 4856 
Q 1566 4138 1362 3434 
Q 1159 2731 1159 2009 
Q 1159 1288 1364 580 
Q 1569 -128 1984 -844 
L 1484 -844 
Q 1016 -109 783 600 
Q 550 1309 550 2009 
Q 550 2706 781 3412 
Q 1013 4119 1484 4856 
L 1984 4856 
z
" transform="scale(0.015625)"/>
     <path id="DejaVuSans-66" d="M 2375 4863 
L 2375 4384 
L 1825 4384 
Q 1516 4384 1395 4259 
Q 1275 4134 1275 3809 
L 1275 3500 
L 2222 3500 
L 2222 3053 
L 1275 3053 
L 1275 0 
L 697 0 
L 697 3053 
L 147 3053 
L 147 3500 
L 697 3500 
L 697 3744 
Q 697 4328 969 4595 
Q 1241 4863 1831 4863 
L 2375 4863 
z
" transform="scale(0.015625)"/>
     <path id="DejaVuSans-38" d="M 2034 2216 
Q 1584 2216 1326 1975 
Q 1069 1734 1069 1313 
Q 1069 891 1326 650 
Q 1584 409 2034 409 
Q 2484 409 2743 651 
Q 3003 894 3003 1313 
Q 3003 1734 2745 1975 
Q 2488 2216 2034 2216 
z
M 1403 2484 
Q 997 2584 770 2862 
Q 544 3141 544 3541 
Q 544 4100 942 4425 
Q 1341 4750 2034 4750 
Q 2731 4750 3128 4425 
Q 3525 4100 3525 3541 
Q 3525 3141 3298 2862 
Q 3072 2584 2669 2484 
Q 3125 2378 3379 2068 
Q 3634 1759 3634 1313 
Q 3634 634 3220 271 
Q 2806 -91 2034 -91 
Q 1263 -91 848 271 
Q 434 634 434 1313 
Q 434 1759 690 2068 
Q 947 2378 1403 2484 
z
M 1172 3481 
Q 1172 3119 1398 2916 
Q 1625 2713 2034 2713 
Q 2441 2713 2670 2916 
Q 2900 3119 2900 3481 
Q 2900 3844 2670 4047 
Q 2441 4250 2034 4250 
Q 1625 4250 1398 4047 
Q 1172 3844 1172 3481 
z
" transform="scale(0.015625)"/>
     <path id="DejaVuSans-2d" d="M 313 2009 
L 1997 2009 
L 1997 1497 
L 313 1497 
L 313 2009 
z
" transform="scale(0.015625)"/>
     <path id="DejaVuSans-3a" d="M 750 794 
L 1409 794 
L 1409 0 
L 750 0 
L 750 794 
z
M 750 3309 
L 1409 3309 
L 1409 2516 
L 750 2516 
L 750 3309 
z
" transform="scale(0.015625)"/>
     <path id="DejaVuSans-36" d="M 2113 2584 
Q 1688 2584 1439 2293 
Q 1191 2003 1191 1497 
Q 1191 994 1439 701 
Q 1688 409 2113 409 
Q 2538 409 2786 701 
Q 3034 994 3034 1497 
Q 3034 2003 2786 2293 
Q 2538 2584 2113 2584 
z
M 3366 4563 
L 3366 3988 
Q 3128 4100 2886 4159 
Q 2644 4219 2406 4219 
Q 1781 4219 1451 3797 
Q 1122 3375 1075 2522 
Q 1259 2794 1537 2939 
Q 1816 3084 2150 3084 
Q 2853 3084 3261 2657 
Q 3669 2231 3669 1497 
Q 3669 778 3244 343 
Q 2819 -91 2113 -91 
Q 1303 -91 875 529 
Q 447 1150 447 2328 
Q 447 3434 972 4092 
Q 1497 4750 2381 4750 
Q 2619 4750 2861 4703 
Q 3103 4656 3366 4563 
z
" transform="scale(0.015625)"/>
     <path id="DejaVuSans-29" d="M 513 4856 
L 1013 4856 
Q 1481 4119 1714 3412 
Q 1947 2706 1947 2009 
Q 1947 1309 1714 600 
Q 1481 -109 1013 -844 
L 513 -844 
Q 928 -128 1133 580 
Q 1338 1288 1338 2009 
Q 1338 2731 1133 3434 
Q 928 4138 513 4856 
z
" transform="scale(0.015625)"/>
    </defs>
    <use xlink:href="#DejaVuSans-28"/>
    <use xlink:href="#DejaVuSans-44" x="39.013672"/>
    <use xlink:href="#DejaVuSans-61" x="116.015625"/>
    <use xlink:href="#DejaVuSans-74" x="177.294922"/>
    <use xlink:href="#DejaVuSans-61" x="216.503906"/>
    <use xlink:href="#DejaVuSans-20" x="277.783203"/>
    <use xlink:href="#DejaVuSans-66" x="309.570312"/>
    <use xlink:href="#DejaVuSans-72" x="344.775391"/>
    <use xlink:href="#DejaVuSans-6f" x="383.638672"/>
    <use xlink:href="#DejaVuSans-6d" x="444.820312"/>
    <use xlink:href="#DejaVuSans-20" x="542.232422"/>
    <use xlink:href="#DejaVuSans-32" x="574.019531"/>
    <use xlink:href="#DejaVuSans-30" x="637.642578"/>
    <use xlink:href="#DejaVuSans-31" x="701.265625"/>
    <use xlink:href="#DejaVuSans-38" x="764.888672"/>
    <use xlink:href="#DejaVuSans-2d" x="828.511719"/>
    <use xlink:href="#DejaVuSans-30" x="864.595703"/>
    <use xlink:href="#DejaVuSans-38" x="928.21875"/>
    <use xlink:href="#DejaVuSans-2d" x="991.841797"/>
    <use xlink:href="#DejaVuSans-31" x="1027.925781"/>
    <use xlink:href="#DejaVuSans-33" x="1091.548828"/>
    <use xlink:href="#DejaVuSans-20" x="1155.171875"/>
    <use xlink:href="#DejaVuSans-30" x="1186.958984"/>
    <use xlink:href="#DejaVuSans-39" x="1250.582031"/>
    <use xlink:href="#DejaVuSans-3a" x="1314.205078"/>
    <use xlink:href="#DejaVuSans-31" x="1347.896484"/>
    <use xlink:href="#DejaVuSans-35" x="1411.519531"/>
    <use xlink:href="#DejaVuSans-3a" x="1475.142578"/>
    <use xlink:href="#DejaVuSans-30" x="1508.833984"/>
    <use xlink:href="#DejaVuSans-30" x="1572.457031"/>
    <use xlink:href="#DejaVuSans-20" x="1636.080078"/>
    <use xlink:href="#DejaVuSans-74" x="1667.867188"/>
    <use xlink:href="#DejaVuSans-6f" x="1707.076172"/>
    <use xlink:href="#DejaVuSans-20" x="1768.257812"/>
    <use xlink:href="#DejaVuSans-32" x="1800.044922"/>
    <use xlink:href="#DejaVuSans-30" x="1863.667969"/>
    <use xlink:href="#DejaVuSans-32" x="1927.291016"/>
    <use xlink:href="#DejaVuSans-34" x="1990.914062"/>
    <use xlink:href="#DejaVuSans-2d" x="2054.537109"/>
    <use xlink:href="#DejaVuSans-30" x="2090.621094"/>
    <use xlink:href="#DejaVuSans-36" x="2154.244141"/>
    <use xlink:href="#DejaVuSans-2d" x="2217.867188"/>
    <use xlink:href="#DejaVuSans-31" x="2253.951172"/>
    <use xlink:href="#DejaVuSans-32" x="2317.574219"/>
    <use xlink:href="#DejaVuSans-20" x="2381.197266"/>
    <use xlink:href="#DejaVuSans-31" x="2412.984375"/>
    <use xlink:href="#DejaVuSans-33" x="2476.607422"/>
    <use xlink:href="#DejaVuSans-3a" x="2540.230469"/>
    <use xlink:href="#DejaVuSans-30" x="2573.921875"/>
    <use xlink:href="#DejaVuSans-30" x="2637.544922"/>
    <use xlink:href="#DejaVuSans-3a" x="2701.167969"/>
    <use xlink:href="#DejaVuSans-30" x="2734.859375"/>
    <use xlink:href="#DejaVuSans-30" x="2798.482422"/>
    <use xlink:href="#DejaVuSans-29" x="2862.105469"/>
   </g>
  </g>
 </g>
 <defs>
  <clipPath id="p48cb35f6ae">
   <rect x="59.690625" y="23.837812" width="1116" height="332.64"/>
  </clipPath>
 </defs>
</svg>
