<?xml version="1.0" encoding="utf-8" standalone="no"?>
<!DOCTYPE svg PUBLIC "-//W3C//DTD SVG 1.1//EN"
  "http://www.w3.org/Graphics/SVG/1.1/DTD/svg11.dtd">
<svg xmlns:xlink="http://www.w3.org/1999/xlink" width="1182.890625pt" height="408.9575pt" viewBox="0 0 1182.890625 408.9575" xmlns="http://www.w3.org/2000/svg" version="1.1">
 <metadata>
  <rdf:RDF xmlns:dc="http://purl.org/dc/elements/1.1/" xmlns:cc="http://creativecommons.org/ns#" xmlns:rdf="http://www.w3.org/1999/02/22-rdf-syntax-ns#">
   <cc:Work>
    <dc:type rdf:resource="http://purl.org/dc/dcmitype/StillImage"/>
    <dc:date>2024-06-28T01:34:09.668835</dc:date>
    <dc:format>image/svg+xml</dc:format>
    <dc:creator>
     <cc:Agent>
      <dc:title>Matplotlib v3.8.4, https://matplotlib.org/</dc:title>
     </cc:Agent>
    </dc:creator>
   </cc:Work>
  </rdf:RDF>
 </metadata>
 <defs>
  <style type="text/css">*{stroke-linejoin: round; stroke-linecap: butt}</style>
 </defs>
 <g id="figure_1">
  <g id="patch_1">
   <path d="M 0 408.9575 
L 1182.890625 408.9575 
L 1182.890625 0 
L 0 0 
z
" style="fill: #ffffff"/>
  </g>
  <g id="axes_1">
   <g id="patch_2">
    <path d="M 59.690625 356.477812 
L 1175.690625 356.477812 
L 1175.690625 23.837812 
L 59.690625 23.837812 
z
" style="fill: #ffffff"/>
   </g>
   <g id="matplotlib.axis_1">
    <g id="xtick_1">
     <g id="line2d_1">
      <defs>
       <path id="mfaf698ad2b" d="M 0 0 
L 0 3.5 
" style="stroke: #000000; stroke-width: 0.8"/>
      </defs>
      <g>
       <use xlink:href="#mfaf698ad2b" x="166.646693" y="356.477812" style="stroke: #000000; stroke-width: 0.8"/>
      </g>
     </g>
     <g id="text_1">
      <!-- 2018 -->
      <g transform="translate(153.921693 371.07625) scale(0.1 -0.1)">
       <defs>
        <path id="DejaVuSans-32" d="M 1228 531 
L 3431 531 
L 3431 0 
L 469 0 
L 469 531 
Q 828 903 1448 1529 
Q 2069 2156 2228 2338 
Q 2531 2678 2651 2914 
Q 2772 3150 2772 3378 
Q 2772 3750 2511 3984 
Q 2250 4219 1831 4219 
Q 1534 4219 1204 4116 
Q 875 4013 500 3803 
L 500 4441 
Q 881 4594 1212 4672 
Q 1544 4750 1819 4750 
Q 2544 4750 2975 4387 
Q 3406 4025 3406 3419 
Q 3406 3131 3298 2873 
Q 3191 2616 2906 2266 
Q 2828 2175 2409 1742 
Q 1991 1309 1228 531 
z
" transform="scale(0.015625)"/>
        <path id="DejaVuSans-30" d="M 2034 4250 
Q 1547 4250 1301 3770 
Q 1056 3291 1056 2328 
Q 1056 1369 1301 889 
Q 1547 409 2034 409 
Q 2525 409 2770 889 
Q 3016 1369 3016 2328 
Q 3016 3291 2770 3770 
Q 2525 4250 2034 4250 
z
M 2034 4750 
Q 2819 4750 3233 4129 
Q 3647 3509 3647 2328 
Q 3647 1150 3233 529 
Q 2819 -91 2034 -91 
Q 1250 -91 836 529 
Q 422 1150 422 2328 
Q 422 3509 836 4129 
Q 1250 4750 2034 4750 
z
" transform="scale(0.015625)"/>
        <path id="DejaVuSans-31" d="M 794 531 
L 1825 531 
L 1825 4091 
L 703 3866 
L 703 4441 
L 1819 4666 
L 2450 4666 
L 2450 531 
L 3481 531 
L 3481 0 
L 794 0 
L 794 531 
z
" transform="scale(0.015625)"/>
        <path id="DejaVuSans-38" d="M 2034 2216 
Q 1584 2216 1326 1975 
Q 1069 1734 1069 1313 
Q 1069 891 1326 650 
Q 1584 409 2034 409 
Q 2484 409 2743 651 
Q 3003 894 3003 1313 
Q 3003 1734 2745 1975 
Q 2488 2216 2034 2216 
z
M 1403 2484 
Q 997 2584 770 2862 
Q 544 3141 544 3541 
Q 544 4100 942 4425 
Q 1341 4750 2034 4750 
Q 2731 4750 3128 4425 
Q 3525 4100 3525 3541 
Q 3525 3141 3298 2862 
Q 3072 2584 2669 2484 
Q 3125 2378 3379 2068 
Q 3634 1759 3634 1313 
Q 3634 634 3220 271 
Q 2806 -91 2034 -91 
Q 1263 -91 848 271 
Q 434 634 434 1313 
Q 434 1759 690 2068 
Q 947 2378 1403 2484 
z
M 1172 3481 
Q 1172 3119 1398 2916 
Q 1625 2713 2034 2713 
Q 2441 2713 2670 2916 
Q 2900 3119 2900 3481 
Q 2900 3844 2670 4047 
Q 2441 4250 2034 4250 
Q 1625 4250 1398 4047 
Q 1172 3844 1172 3481 
z
" transform="scale(0.015625)"/>
       </defs>
       <use xlink:href="#DejaVuSans-32"/>
       <use xlink:href="#DejaVuSans-30" x="63.623047"/>
       <use xlink:href="#DejaVuSans-31" x="127.246094"/>
       <use xlink:href="#DejaVuSans-38" x="190.869141"/>
      </g>
     </g>
    </g>
    <g id="xtick_2">
     <g id="line2d_2">
      <g>
       <use xlink:href="#mfaf698ad2b" x="314.297846" y="356.477812" style="stroke: #000000; stroke-width: 0.8"/>
      </g>
     </g>
     <g id="text_2">
      <!-- 2019 -->
      <g transform="translate(301.572846 371.07625) scale(0.1 -0.1)">
       <defs>
        <path id="DejaVuSans-39" d="M 703 97 
L 703 672 
Q 941 559 1184 500 
Q 1428 441 1663 441 
Q 2288 441 2617 861 
Q 2947 1281 2994 2138 
Q 2813 1869 2534 1725 
Q 2256 1581 1919 1581 
Q 1219 1581 811 2004 
Q 403 2428 403 3163 
Q 403 3881 828 4315 
Q 1253 4750 1959 4750 
Q 2769 4750 3195 4129 
Q 3622 3509 3622 2328 
Q 3622 1225 3098 567 
Q 2575 -91 1691 -91 
Q 1453 -91 1209 -44 
Q 966 3 703 97 
z
M 1959 2075 
Q 2384 2075 2632 2365 
Q 2881 2656 2881 3163 
Q 2881 3666 2632 3958 
Q 2384 4250 1959 4250 
Q 1534 4250 1286 3958 
Q 1038 3666 1038 3163 
Q 1038 2656 1286 2365 
Q 1534 2075 1959 2075 
z
" transform="scale(0.015625)"/>
       </defs>
       <use xlink:href="#DejaVuSans-32"/>
       <use xlink:href="#DejaVuSans-30" x="63.623047"/>
       <use xlink:href="#DejaVuSans-31" x="127.246094"/>
       <use xlink:href="#DejaVuSans-39" x="190.869141"/>
      </g>
     </g>
    </g>
    <g id="xtick_3">
     <g id="line2d_3">
      <g>
       <use xlink:href="#mfaf698ad2b" x="461.948998" y="356.477812" style="stroke: #000000; stroke-width: 0.8"/>
      </g>
     </g>
     <g id="text_3">
      <!-- 2020 -->
      <g transform="translate(449.223998 371.07625) scale(0.1 -0.1)">
       <use xlink:href="#DejaVuSans-32"/>
       <use xlink:href="#DejaVuSans-30" x="63.623047"/>
       <use xlink:href="#DejaVuSans-32" x="127.246094"/>
       <use xlink:href="#DejaVuSans-30" x="190.869141"/>
      </g>
     </g>
    </g>
    <g id="xtick_4">
     <g id="line2d_4">
      <g>
       <use xlink:href="#mfaf698ad2b" x="610.004675" y="356.477812" style="stroke: #000000; stroke-width: 0.8"/>
      </g>
     </g>
     <g id="text_4">
      <!-- 2021 -->
      <g transform="translate(597.279675 371.07625) scale(0.1 -0.1)">
       <use xlink:href="#DejaVuSans-32"/>
       <use xlink:href="#DejaVuSans-30" x="63.623047"/>
       <use xlink:href="#DejaVuSans-32" x="127.246094"/>
       <use xlink:href="#DejaVuSans-31" x="190.869141"/>
      </g>
     </g>
    </g>
    <g id="xtick_5">
     <g id="line2d_5">
      <g>
       <use xlink:href="#mfaf698ad2b" x="757.655827" y="356.477812" style="stroke: #000000; stroke-width: 0.8"/>
      </g>
     </g>
     <g id="text_5">
      <!-- 2022 -->
      <g transform="translate(744.930827 371.07625) scale(0.1 -0.1)">
       <use xlink:href="#DejaVuSans-32"/>
       <use xlink:href="#DejaVuSans-30" x="63.623047"/>
       <use xlink:href="#DejaVuSans-32" x="127.246094"/>
       <use xlink:href="#DejaVuSans-32" x="190.869141"/>
      </g>
     </g>
    </g>
    <g id="xtick_6">
     <g id="line2d_6">
      <g>
       <use xlink:href="#mfaf698ad2b" x="905.30698" y="356.477812" style="stroke: #000000; stroke-width: 0.8"/>
      </g>
     </g>
     <g id="text_6">
      <!-- 2023 -->
      <g transform="translate(892.58198 371.07625) scale(0.1 -0.1)">
       <defs>
        <path id="DejaVuSans-33" d="M 2597 2516 
Q 3050 2419 3304 2112 
Q 3559 1806 3559 1356 
Q 3559 666 3084 287 
Q 2609 -91 1734 -91 
Q 1441 -91 1130 -33 
Q 819 25 488 141 
L 488 750 
Q 750 597 1062 519 
Q 1375 441 1716 441 
Q 2309 441 2620 675 
Q 2931 909 2931 1356 
Q 2931 1769 2642 2001 
Q 2353 2234 1838 2234 
L 1294 2234 
L 1294 2753 
L 1863 2753 
Q 2328 2753 2575 2939 
Q 2822 3125 2822 3475 
Q 2822 3834 2567 4026 
Q 2313 4219 1838 4219 
Q 1578 4219 1281 4162 
Q 984 4106 628 3988 
L 628 4550 
Q 988 4650 1302 4700 
Q 1616 4750 1894 4750 
Q 2613 4750 3031 4423 
Q 3450 4097 3450 3541 
Q 3450 3153 3228 2886 
Q 3006 2619 2597 2516 
z
" transform="scale(0.015625)"/>
       </defs>
       <use xlink:href="#DejaVuSans-32"/>
       <use xlink:href="#DejaVuSans-30" x="63.623047"/>
       <use xlink:href="#DejaVuSans-32" x="127.246094"/>
       <use xlink:href="#DejaVuSans-33" x="190.869141"/>
      </g>
     </g>
    </g>
    <g id="xtick_7">
     <g id="line2d_7">
      <g>
       <use xlink:href="#mfaf698ad2b" x="1052.958133" y="356.477812" style="stroke: #000000; stroke-width: 0.8"/>
      </g>
     </g>
     <g id="text_7">
      <!-- 2024 -->
      <g transform="translate(1040.233133 371.07625) scale(0.1 -0.1)">
       <defs>
        <path id="DejaVuSans-34" d="M 2419 4116 
L 825 1625 
L 2419 1625 
L 2419 4116 
z
M 2253 4666 
L 3047 4666 
L 3047 1625 
L 3713 1625 
L 3713 1100 
L 3047 1100 
L 3047 0 
L 2419 0 
L 2419 1100 
L 313 1100 
L 313 1709 
L 2253 4666 
z
" transform="scale(0.015625)"/>
       </defs>
       <use xlink:href="#DejaVuSans-32"/>
       <use xlink:href="#DejaVuSans-30" x="63.623047"/>
       <use xlink:href="#DejaVuSans-32" x="127.246094"/>
       <use xlink:href="#DejaVuSans-34" x="190.869141"/>
      </g>
     </g>
    </g>
    <g id="text_8">
     <!-- Date -->
     <g transform="translate(605.739844 384.754375) scale(0.1 -0.1)">
      <defs>
       <path id="DejaVuSans-44" d="M 1259 4147 
L 1259 519 
L 2022 519 
Q 2988 519 3436 956 
Q 3884 1394 3884 2338 
Q 3884 3275 3436 3711 
Q 2988 4147 2022 4147 
L 1259 4147 
z
M 628 4666 
L 1925 4666 
Q 3281 4666 3915 4102 
Q 4550 3538 4550 2338 
Q 4550 1131 3912 565 
Q 3275 0 1925 0 
L 628 0 
L 628 4666 
z
" transform="scale(0.015625)"/>
       <path id="DejaVuSans-61" d="M 2194 1759 
Q 1497 1759 1228 1600 
Q 959 1441 959 1056 
Q 959 750 1161 570 
Q 1363 391 1709 391 
Q 2188 391 2477 730 
Q 2766 1069 2766 1631 
L 2766 1759 
L 2194 1759 
z
M 3341 1997 
L 3341 0 
L 2766 0 
L 2766 531 
Q 2569 213 2275 61 
Q 1981 -91 1556 -91 
Q 1019 -91 701 211 
Q 384 513 384 1019 
Q 384 1609 779 1909 
Q 1175 2209 1959 2209 
L 2766 2209 
L 2766 2266 
Q 2766 2663 2505 2880 
Q 2244 3097 1772 3097 
Q 1472 3097 1187 3025 
Q 903 2953 641 2809 
L 641 3341 
Q 956 3463 1253 3523 
Q 1550 3584 1831 3584 
Q 2591 3584 2966 3190 
Q 3341 2797 3341 1997 
z
" transform="scale(0.015625)"/>
       <path id="DejaVuSans-74" d="M 1172 4494 
L 1172 3500 
L 2356 3500 
L 2356 3053 
L 1172 3053 
L 1172 1153 
Q 1172 725 1289 603 
Q 1406 481 1766 481 
L 2356 481 
L 2356 0 
L 1766 0 
Q 1100 0 847 248 
Q 594 497 594 1153 
L 594 3053 
L 172 3053 
L 172 3500 
L 594 3500 
L 594 4494 
L 1172 4494 
z
" transform="scale(0.015625)"/>
       <path id="DejaVuSans-65" d="M 3597 1894 
L 3597 1613 
L 953 1613 
Q 991 1019 1311 708 
Q 1631 397 2203 397 
Q 2534 397 2845 478 
Q 3156 559 3463 722 
L 3463 178 
Q 3153 47 2828 -22 
Q 2503 -91 2169 -91 
Q 1331 -91 842 396 
Q 353 884 353 1716 
Q 353 2575 817 3079 
Q 1281 3584 2069 3584 
Q 2775 3584 3186 3129 
Q 3597 2675 3597 1894 
z
M 3022 2063 
Q 3016 2534 2758 2815 
Q 2500 3097 2075 3097 
Q 1594 3097 1305 2825 
Q 1016 2553 972 2059 
L 3022 2063 
z
" transform="scale(0.015625)"/>
      </defs>
      <use xlink:href="#DejaVuSans-44"/>
      <use xlink:href="#DejaVuSans-61" x="77.001953"/>
      <use xlink:href="#DejaVuSans-74" x="138.28125"/>
      <use xlink:href="#DejaVuSans-65" x="177.490234"/>
     </g>
    </g>
   </g>
   <g id="matplotlib.axis_2">
    <g id="ytick_1">
     <g id="line2d_8">
      <defs>
       <path id="md8f38171f2" d="M 0 0 
L -3.5 0 
" style="stroke: #000000; stroke-width: 0.8"/>
      </defs>
      <g>
       <use xlink:href="#md8f38171f2" x="59.690625" y="341.357812" style="stroke: #000000; stroke-width: 0.8"/>
      </g>
     </g>
     <g id="text_9">
      <!-- 0 -->
      <g transform="translate(46.328125 345.157031) scale(0.1 -0.1)">
       <use xlink:href="#DejaVuSans-30"/>
      </g>
     </g>
    </g>
    <g id="ytick_2">
     <g id="line2d_9">
      <g>
       <use xlink:href="#md8f38171f2" x="59.690625" y="282.634805" style="stroke: #000000; stroke-width: 0.8"/>
      </g>
     </g>
     <g id="text_10">
      <!-- 5000 -->
      <g transform="translate(27.240625 286.434024) scale(0.1 -0.1)">
       <defs>
        <path id="DejaVuSans-35" d="M 691 4666 
L 3169 4666 
L 3169 4134 
L 1269 4134 
L 1269 2991 
Q 1406 3038 1543 3061 
Q 1681 3084 1819 3084 
Q 2600 3084 3056 2656 
Q 3513 2228 3513 1497 
Q 3513 744 3044 326 
Q 2575 -91 1722 -91 
Q 1428 -91 1123 -41 
Q 819 9 494 109 
L 494 744 
Q 775 591 1075 516 
Q 1375 441 1709 441 
Q 2250 441 2565 725 
Q 2881 1009 2881 1497 
Q 2881 1984 2565 2268 
Q 2250 2553 1709 2553 
Q 1456 2553 1204 2497 
Q 953 2441 691 2322 
L 691 4666 
z
" transform="scale(0.015625)"/>
       </defs>
       <use xlink:href="#DejaVuSans-35"/>
       <use xlink:href="#DejaVuSans-30" x="63.623047"/>
       <use xlink:href="#DejaVuSans-30" x="127.246094"/>
       <use xlink:href="#DejaVuSans-30" x="190.869141"/>
      </g>
     </g>
    </g>
    <g id="ytick_3">
     <g id="line2d_10">
      <g>
       <use xlink:href="#md8f38171f2" x="59.690625" y="223.911797" style="stroke: #000000; stroke-width: 0.8"/>
      </g>
     </g>
     <g id="text_11">
      <!-- 10000 -->
      <g transform="translate(20.878125 227.711016) scale(0.1 -0.1)">
       <use xlink:href="#DejaVuSans-31"/>
       <use xlink:href="#DejaVuSans-30" x="63.623047"/>
       <use xlink:href="#DejaVuSans-30" x="127.246094"/>
       <use xlink:href="#DejaVuSans-30" x="190.869141"/>
       <use xlink:href="#DejaVuSans-30" x="254.492188"/>
      </g>
     </g>
    </g>
    <g id="ytick_4">
     <g id="line2d_11">
      <g>
       <use xlink:href="#md8f38171f2" x="59.690625" y="165.18879" style="stroke: #000000; stroke-width: 0.8"/>
      </g>
     </g>
     <g id="text_12">
      <!-- 15000 -->
      <g transform="translate(20.878125 168.988008) scale(0.1 -0.1)">
       <use xlink:href="#DejaVuSans-31"/>
       <use xlink:href="#DejaVuSans-35" x="63.623047"/>
       <use xlink:href="#DejaVuSans-30" x="127.246094"/>
       <use xlink:href="#DejaVuSans-30" x="190.869141"/>
       <use xlink:href="#DejaVuSans-30" x="254.492188"/>
      </g>
     </g>
    </g>
    <g id="ytick_5">
     <g id="line2d_12">
      <g>
       <use xlink:href="#md8f38171f2" x="59.690625" y="106.465782" style="stroke: #000000; stroke-width: 0.8"/>
      </g>
     </g>
     <g id="text_13">
      <!-- 20000 -->
      <g transform="translate(20.878125 110.265001) scale(0.1 -0.1)">
       <use xlink:href="#DejaVuSans-32"/>
       <use xlink:href="#DejaVuSans-30" x="63.623047"/>
       <use xlink:href="#DejaVuSans-30" x="127.246094"/>
       <use xlink:href="#DejaVuSans-30" x="190.869141"/>
       <use xlink:href="#DejaVuSans-30" x="254.492188"/>
      </g>
     </g>
    </g>
    <g id="ytick_6">
     <g id="line2d_13">
      <g>
       <use xlink:href="#md8f38171f2" x="59.690625" y="47.742774" style="stroke: #000000; stroke-width: 0.8"/>
      </g>
     </g>
     <g id="text_14">
      <!-- 25000 -->
      <g transform="translate(20.878125 51.541993) scale(0.1 -0.1)">
       <use xlink:href="#DejaVuSans-32"/>
       <use xlink:href="#DejaVuSans-35" x="63.623047"/>
       <use xlink:href="#DejaVuSans-30" x="127.246094"/>
       <use xlink:href="#DejaVuSans-30" x="190.869141"/>
       <use xlink:href="#DejaVuSans-30" x="254.492188"/>
      </g>
     </g>
    </g>
    <g id="text_15">
     <!-- Ticket Redemptions -->
     <g transform="translate(14.798438 239.336719) rotate(-90) scale(0.1 -0.1)">
      <defs>
       <path id="DejaVuSans-54" d="M -19 4666 
L 3928 4666 
L 3928 4134 
L 2272 4134 
L 2272 0 
L 1638 0 
L 1638 4134 
L -19 4134 
L -19 4666 
z
" transform="scale(0.015625)"/>
       <path id="DejaVuSans-69" d="M 603 3500 
L 1178 3500 
L 1178 0 
L 603 0 
L 603 3500 
z
M 603 4863 
L 1178 4863 
L 1178 4134 
L 603 4134 
L 603 4863 
z
" transform="scale(0.015625)"/>
       <path id="DejaVuSans-63" d="M 3122 3366 
L 3122 2828 
Q 2878 2963 2633 3030 
Q 2388 3097 2138 3097 
Q 1578 3097 1268 2742 
Q 959 2388 959 1747 
Q 959 1106 1268 751 
Q 1578 397 2138 397 
Q 2388 397 2633 464 
Q 2878 531 3122 666 
L 3122 134 
Q 2881 22 2623 -34 
Q 2366 -91 2075 -91 
Q 1284 -91 818 406 
Q 353 903 353 1747 
Q 353 2603 823 3093 
Q 1294 3584 2113 3584 
Q 2378 3584 2631 3529 
Q 2884 3475 3122 3366 
z
" transform="scale(0.015625)"/>
       <path id="DejaVuSans-6b" d="M 581 4863 
L 1159 4863 
L 1159 1991 
L 2875 3500 
L 3609 3500 
L 1753 1863 
L 3688 0 
L 2938 0 
L 1159 1709 
L 1159 0 
L 581 0 
L 581 4863 
z
" transform="scale(0.015625)"/>
       <path id="DejaVuSans-20" transform="scale(0.015625)"/>
       <path id="DejaVuSans-52" d="M 2841 2188 
Q 3044 2119 3236 1894 
Q 3428 1669 3622 1275 
L 4263 0 
L 3584 0 
L 2988 1197 
Q 2756 1666 2539 1819 
Q 2322 1972 1947 1972 
L 1259 1972 
L 1259 0 
L 628 0 
L 628 4666 
L 2053 4666 
Q 2853 4666 3247 4331 
Q 3641 3997 3641 3322 
Q 3641 2881 3436 2590 
Q 3231 2300 2841 2188 
z
M 1259 4147 
L 1259 2491 
L 2053 2491 
Q 2509 2491 2742 2702 
Q 2975 2913 2975 3322 
Q 2975 3731 2742 3939 
Q 2509 4147 2053 4147 
L 1259 4147 
z
" transform="scale(0.015625)"/>
       <path id="DejaVuSans-64" d="M 2906 2969 
L 2906 4863 
L 3481 4863 
L 3481 0 
L 2906 0 
L 2906 525 
Q 2725 213 2448 61 
Q 2172 -91 1784 -91 
Q 1150 -91 751 415 
Q 353 922 353 1747 
Q 353 2572 751 3078 
Q 1150 3584 1784 3584 
Q 2172 3584 2448 3432 
Q 2725 3281 2906 2969 
z
M 947 1747 
Q 947 1113 1208 752 
Q 1469 391 1925 391 
Q 2381 391 2643 752 
Q 2906 1113 2906 1747 
Q 2906 2381 2643 2742 
Q 2381 3103 1925 3103 
Q 1469 3103 1208 2742 
Q 947 2381 947 1747 
z
" transform="scale(0.015625)"/>
       <path id="DejaVuSans-6d" d="M 3328 2828 
Q 3544 3216 3844 3400 
Q 4144 3584 4550 3584 
Q 5097 3584 5394 3201 
Q 5691 2819 5691 2113 
L 5691 0 
L 5113 0 
L 5113 2094 
Q 5113 2597 4934 2840 
Q 4756 3084 4391 3084 
Q 3944 3084 3684 2787 
Q 3425 2491 3425 1978 
L 3425 0 
L 2847 0 
L 2847 2094 
Q 2847 2600 2669 2842 
Q 2491 3084 2119 3084 
Q 1678 3084 1418 2786 
Q 1159 2488 1159 1978 
L 1159 0 
L 581 0 
L 581 3500 
L 1159 3500 
L 1159 2956 
Q 1356 3278 1631 3431 
Q 1906 3584 2284 3584 
Q 2666 3584 2933 3390 
Q 3200 3197 3328 2828 
z
" transform="scale(0.015625)"/>
       <path id="DejaVuSans-70" d="M 1159 525 
L 1159 -1331 
L 581 -1331 
L 581 3500 
L 1159 3500 
L 1159 2969 
Q 1341 3281 1617 3432 
Q 1894 3584 2278 3584 
Q 2916 3584 3314 3078 
Q 3713 2572 3713 1747 
Q 3713 922 3314 415 
Q 2916 -91 2278 -91 
Q 1894 -91 1617 61 
Q 1341 213 1159 525 
z
M 3116 1747 
Q 3116 2381 2855 2742 
Q 2594 3103 2138 3103 
Q 1681 3103 1420 2742 
Q 1159 2381 1159 1747 
Q 1159 1113 1420 752 
Q 1681 391 2138 391 
Q 2594 391 2855 752 
Q 3116 1113 3116 1747 
z
" transform="scale(0.015625)"/>
       <path id="DejaVuSans-6f" d="M 1959 3097 
Q 1497 3097 1228 2736 
Q 959 2375 959 1747 
Q 959 1119 1226 758 
Q 1494 397 1959 397 
Q 2419 397 2687 759 
Q 2956 1122 2956 1747 
Q 2956 2369 2687 2733 
Q 2419 3097 1959 3097 
z
M 1959 3584 
Q 2709 3584 3137 3096 
Q 3566 2609 3566 1747 
Q 3566 888 3137 398 
Q 2709 -91 1959 -91 
Q 1206 -91 779 398 
Q 353 888 353 1747 
Q 353 2609 779 3096 
Q 1206 3584 1959 3584 
z
" transform="scale(0.015625)"/>
       <path id="DejaVuSans-6e" d="M 3513 2113 
L 3513 0 
L 2938 0 
L 2938 2094 
Q 2938 2591 2744 2837 
Q 2550 3084 2163 3084 
Q 1697 3084 1428 2787 
Q 1159 2491 1159 1978 
L 1159 0 
L 581 0 
L 581 3500 
L 1159 3500 
L 1159 2956 
Q 1366 3272 1645 3428 
Q 1925 3584 2291 3584 
Q 2894 3584 3203 3211 
Q 3513 2838 3513 2113 
z
" transform="scale(0.015625)"/>
       <path id="DejaVuSans-73" d="M 2834 3397 
L 2834 2853 
Q 2591 2978 2328 3040 
Q 2066 3103 1784 3103 
Q 1356 3103 1142 2972 
Q 928 2841 928 2578 
Q 928 2378 1081 2264 
Q 1234 2150 1697 2047 
L 1894 2003 
Q 2506 1872 2764 1633 
Q 3022 1394 3022 966 
Q 3022 478 2636 193 
Q 2250 -91 1575 -91 
Q 1294 -91 989 -36 
Q 684 19 347 128 
L 347 722 
Q 666 556 975 473 
Q 1284 391 1588 391 
Q 1994 391 2212 530 
Q 2431 669 2431 922 
Q 2431 1156 2273 1281 
Q 2116 1406 1581 1522 
L 1381 1569 
Q 847 1681 609 1914 
Q 372 2147 372 2553 
Q 372 3047 722 3315 
Q 1072 3584 1716 3584 
Q 2034 3584 2315 3537 
Q 2597 3491 2834 3397 
z
" transform="scale(0.015625)"/>
      </defs>
      <use xlink:href="#DejaVuSans-54"/>
      <use xlink:href="#DejaVuSans-69" x="57.958984"/>
      <use xlink:href="#DejaVuSans-63" x="85.742188"/>
      <use xlink:href="#DejaVuSans-6b" x="140.722656"/>
      <use xlink:href="#DejaVuSans-65" x="195.007812"/>
      <use xlink:href="#DejaVuSans-74" x="256.53125"/>
      <use xlink:href="#DejaVuSans-20" x="295.740234"/>
      <use xlink:href="#DejaVuSans-52" x="327.527344"/>
      <use xlink:href="#DejaVuSans-65" x="392.509766"/>
      <use xlink:href="#DejaVuSans-64" x="454.033203"/>
      <use xlink:href="#DejaVuSans-65" x="517.509766"/>
      <use xlink:href="#DejaVuSans-6d" x="579.033203"/>
      <use xlink:href="#DejaVuSans-70" x="676.445312"/>
      <use xlink:href="#DejaVuSans-74" x="739.921875"/>
      <use xlink:href="#DejaVuSans-69" x="779.130859"/>
      <use xlink:href="#DejaVuSans-6f" x="806.914062"/>
      <use xlink:href="#DejaVuSans-6e" x="868.095703"/>
      <use xlink:href="#DejaVuSans-73" x="931.474609"/>
     </g>
    </g>
   </g>
   <g id="line2d_14">
    <path d="M 110.417898 316.506236 
L 110.822421 226.765735 
L 111.226945 285.817592 
L 111.631469 256.467833 
L 112.440516 119.561013 
L 112.84504 237.042262 
L 113.249564 312.301668 
L 113.654087 246.297008 
L 114.058611 266.685636 
L 114.463135 234.317514 
L 114.867658 172.916737 
L 115.272182 181.619487 
L 115.676706 254.330315 
L 116.08123 254.271592 
L 116.485753 242.632692 
L 116.890277 266.732614 
L 117.294801 250.219705 
L 117.699324 185.671375 
L 118.103848 220.411906 
L 118.508372 153.902228 
L 118.912896 319.219239 
L 119.317419 311.643971 
L 119.721943 324.081504 
L 120.126467 312.677496 
L 120.53099 259.591897 
L 120.935514 226.847948 
L 121.340038 310.457766 
L 121.744561 298.807121 
L 122.149085 314.380463 
L 122.958133 294.485108 
L 123.362656 187.609234 
L 123.76718 198.508224 
L 124.171704 311.831884 
L 124.576227 312.289924 
L 124.980751 304.973037 
L 125.385275 303.258325 
L 125.789799 294.661277 
L 126.194322 180.515495 
L 126.598846 190.68632 
L 127.00337 292.006997 
L 127.407893 295.506888 
L 127.812417 306.288432 
L 128.216941 313.851956 
L 128.621464 331.140009 
L 129.025988 285.841081 
L 129.430512 275.482343 
L 129.835036 315.507945 
L 130.239559 307.134044 
L 130.644083 327.146845 
L 131.048607 308.696076 
L 131.45313 315.413988 
L 131.857654 295.178039 
L 132.262178 268.376859 
L 132.666702 301.872462 
L 133.071225 311.221165 
L 133.475749 332.020854 
L 133.880273 328.203859 
L 134.284796 322.120155 
L 134.68932 320.922206 
L 135.093844 328.967258 
L 135.498367 325.925406 
L 135.902891 321.685605 
L 136.307415 320.100084 
L 136.711939 317.939077 
L 137.116462 312.372136 
L 137.520986 292.817374 
L 137.92551 290.163094 
L 138.330033 327.792798 
L 138.734557 328.979002 
L 139.139081 328.650154 
L 139.543605 325.831449 
L 139.948128 325.150262 
L 140.352652 334.545944 
L 140.757176 326.089831 
L 141.161699 330.317887 
L 141.566223 327.099866 
L 141.970747 332.655063 
L 142.37527 333.864757 
L 142.779794 325.678769 
L 143.184318 329.143427 
L 143.588842 337.482094 
L 143.993365 331.562815 
L 144.397889 331.692005 
L 144.802413 327.510927 
L 145.206936 333.806034 
L 145.61146 333.829523 
L 146.015984 332.044343 
L 146.420508 333.629865 
L 146.825031 333.524163 
L 147.229555 332.760764 
L 147.634079 334.017437 
L 148.038602 332.302725 
L 148.443126 329.472276 
L 148.84765 336.201932 
L 149.252173 333.841268 
L 150.061221 332.525872 
L 150.465745 333.500674 
L 150.870268 333.394973 
L 151.274792 329.307851 
L 151.679316 330.541034 
L 152.083839 335.344577 
L 152.892887 329.906826 
L 153.297411 333.911735 
L 153.701934 334.804325 
L 154.106458 334.51071 
L 154.510982 330.576268 
L 154.915505 333.265782 
L 155.320029 334.66339 
L 155.724553 334.921771 
L 156.129077 333.888246 
L 156.5336 332.361448 
L 157.342648 335.509001 
L 158.151695 335.4033 
L 158.556219 336.014019 
L 158.960742 332.091322 
L 159.365266 334.898282 
L 159.76979 334.874792 
L 160.174314 335.732148 
L 160.578837 335.896573 
L 160.983361 335.415044 
L 161.387885 333.477185 
L 161.792408 333.254037 
L 162.196932 332.795998 
L 162.601456 335.344577 
L 163.00598 336.448569 
L 163.410503 335.074451 
L 163.815027 335.978785 
L 164.219551 337.200224 
L 164.624074 335.732148 
L 165.028598 335.544235 
L 165.433122 336.107976 
L 165.837645 334.980494 
L 166.646693 337.258947 
L 167.051217 340.888028 
L 167.45574 341.357812 
L 168.669311 341.357812 
L 169.073835 336.542526 
L 169.478359 335.861339 
L 169.882883 334.94526 
L 170.287406 334.79258 
L 170.69193 334.968749 
L 171.096454 336.213677 
L 171.500977 336.107976 
L 171.905501 336.366357 
L 172.310025 336.436824 
L 172.714548 335.344577 
L 173.119072 335.297598 
L 173.523596 334.94526 
L 173.92812 334.933515 
L 174.332643 333.148336 
L 174.737167 335.567724 
L 175.141691 336.11972 
L 175.546214 334.94526 
L 175.950738 334.804325 
L 176.355262 334.804325 
L 176.759786 334.029181 
L 177.164309 335.931807 
L 177.568833 334.322796 
L 177.973357 335.873084 
L 178.37788 335.708659 
L 178.782404 335.708659 
L 179.186928 335.227131 
L 179.591451 335.215386 
L 179.995975 341.193388 
L 180.400499 337.775709 
L 180.805023 335.344577 
L 181.209546 334.933515 
L 181.61407 336.166699 
L 182.018594 335.309343 
L 182.827641 336.977076 
L 183.232165 336.988821 
L 183.636689 334.416753 
L 184.041212 334.628156 
L 184.445736 333.430206 
L 184.85026 334.604667 
L 185.254783 333.676843 
L 185.659307 335.68517 
L 186.063831 330.752437 
L 186.468354 337.176734 
L 186.872878 335.238875 
L 187.277402 334.628156 
L 187.681926 333.430206 
L 188.086449 334.240584 
L 188.490973 332.995656 
L 188.895497 333.289271 
L 189.30002 332.326214 
L 189.704544 330.96384 
L 190.109068 334.040926 
L 190.513592 335.203641 
L 190.918115 334.475476 
L 191.322639 329.977294 
L 192.131686 333.794289 
L 192.53621 334.592922 
L 192.940734 334.957005 
L 193.345257 333.46544 
L 193.749781 334.040926 
L 194.558829 332.431915 
L 194.963352 335.215386 
L 195.367876 332.584595 
L 195.7724 333.876501 
L 196.176923 333.136591 
L 196.581447 333.993947 
L 196.985971 329.777635 
L 197.390495 330.658481 
L 197.795018 333.383228 
L 198.199542 333.864757 
L 198.604066 332.572851 
L 199.008589 333.441951 
L 199.413113 331.821196 
L 199.817637 328.89679 
L 200.22216 331.128265 
L 200.626684 330.705459 
L 201.031208 335.285854 
L 201.435732 330.494056 
L 201.840255 335.274109 
L 202.244779 324.187205 
L 202.649303 325.279453 
L 203.053826 327.005909 
L 203.45835 327.828032 
L 203.862874 334.957005 
L 204.267398 335.555979 
L 204.671921 332.572851 
L 205.076445 334.66339 
L 205.480969 332.514128 
L 205.885492 333.759055 
L 206.290016 332.1383 
L 206.69454 332.772509 
L 207.099063 333.629865 
L 207.503587 334.05267 
L 207.908111 332.784253 
L 208.312635 337.822687 
L 208.717158 339.784036 
L 209.930729 331.128265 
L 210.335253 332.831232 
L 210.739777 326.559615 
L 211.144301 315.719347 
L 211.548824 311.620481 
L 212.762395 332.619829 
L 213.166919 319.947404 
L 213.571443 317.821631 
L 213.975966 328.262582 
L 214.38049 316.576703 
L 215.189538 303.70462 
L 215.594061 311.878863 
L 215.998585 327.428715 
L 216.403109 327.851521 
L 216.807632 261.318353 
L 217.212156 312.630517 
L 217.61668 312.301668 
L 218.021204 308.226292 
L 218.425727 312.184222 
L 218.830251 321.356756 
L 219.234775 316.377045 
L 219.639298 309.588665 
L 220.043822 255.08197 
L 220.852869 326.277744 
L 221.257393 295.812248 
L 222.066441 306.51158 
L 222.470964 325.103284 
L 222.875488 159.398701 
L 223.280012 162.651956 
L 223.684535 323.975802 
L 224.089059 294.87268 
L 224.493583 293.451583 
L 224.898107 274.131713 
L 225.30263 237.512046 
L 225.707154 215.385217 
L 226.111678 275.40013 
L 226.516201 289.963436 
L 226.920725 292.558993 
L 227.325249 310.03496 
L 227.729772 284.983725 
L 228.134296 206.858636 
L 228.53882 304.949548 
L 229.347867 310.422532 
L 229.752391 303.70462 
L 230.156915 289.41144 
L 230.561438 257.12553 
L 230.965962 209.031387 
L 231.370486 180.19839 
L 231.77501 273.50925 
L 232.179533 278.406748 
L 232.584057 314.45093 
L 232.988581 270.890203 
L 233.393104 249.280137 
L 233.797628 88.649222 
L 234.202152 110.21231 
L 234.606675 299.828902 
L 235.011199 262.070008 
L 235.415723 264.994413 
L 235.820247 253.684362 
L 236.22477 232.309187 
L 236.629294 304.092192 
L 237.033818 321.345012 
L 237.438341 222.596402 
L 237.842865 250.889147 
L 238.247389 322.56645 
L 238.651913 240.142837 
L 239.056436 213.435613 
L 239.865484 38.957812 
L 240.270007 174.478769 
L 240.674531 239.684797 
L 241.079055 220.552841 
L 241.483578 265.217561 
L 241.888102 199.694429 
L 242.292626 101.439093 
L 242.69715 91.373969 
L 243.101673 235.398018 
L 243.506197 238.028808 
L 244.719768 219.906888 
L 245.124292 118.586211 
L 245.528816 87.885822 
L 245.933339 277.92522 
L 246.742387 166.504185 
L 247.14691 194.702973 
L 247.551434 163.039528 
L 247.955958 90.281721 
L 248.360481 306.311922 
L 248.765005 241.5287 
L 249.169529 266.955762 
L 249.574053 227.329476 
L 249.978576 247.048662 
L 250.3831 198.602181 
L 250.787624 107.722454 
L 251.192147 111.198856 
L 251.596671 199.729663 
L 252.001195 236.114438 
L 252.405719 258.593606 
L 252.810242 201.86718 
L 253.214766 196.311984 
L 253.61929 103.012869 
L 254.023813 66.545881 
L 254.428337 172.881504 
L 255.237384 309.670878 
L 255.641908 209.125344 
L 256.046432 182.371142 
L 256.450956 68.178381 
L 256.855479 117.106391 
L 257.260003 228.985465 
L 257.664527 219.448849 
L 258.06905 204.36878 
L 258.878098 295.436421 
L 259.282622 107.745944 
L 259.687145 100.02974 
L 260.496193 328.579686 
L 260.900716 239.61433 
L 261.30524 188.865906 
L 261.709764 190.22828 
L 262.114287 239.391182 
L 262.518811 147.430952 
L 262.923335 285.453509 
L 263.327859 227.717048 
L 263.732382 280.473798 
L 264.136906 212.378599 
L 264.54143 203.311766 
L 264.945953 95.085263 
L 265.350477 153.726059 
L 265.755001 171.436918 
L 266.159525 297.233345 
L 266.564048 291.525468 
L 266.968572 309.659133 
L 267.373096 291.76036 
L 267.777619 235.433251 
L 268.182143 275.094771 
L 268.586667 332.126556 
L 268.99119 310.868827 
L 269.395714 300.075538 
L 269.800238 297.256834 
L 270.204762 283.703564 
L 270.609285 184.132832 
L 271.013809 189.112543 
L 271.418333 297.174622 
L 271.822856 293.639497 
L 272.22738 300.451365 
L 272.631904 317.633717 
L 273.036428 305.994817 
L 273.440951 261.095206 
L 273.845475 250.20796 
L 274.249999 317.081721 
L 274.654522 327.346503 
L 275.059046 310.481255 
L 275.46357 306.887407 
L 275.868093 298.666186 
L 276.272617 270.620078 
L 276.677141 307.615572 
L 277.081665 325.690514 
L 277.486188 330.364865 
L 277.890712 313.969402 
L 278.295236 308.472928 
L 278.699759 315.919006 
L 279.104283 319.01958 
L 279.913331 310.727892 
L 280.317854 295.483399 
L 280.722378 289.928202 
L 281.126902 315.789815 
L 281.531425 318.831667 
L 281.935949 315.895516 
L 282.340473 303.775088 
L 282.744996 327.910244 
L 283.14952 319.736001 
L 283.554044 325.37341 
L 283.958568 323.329849 
L 284.363091 313.14728 
L 284.767615 315.965984 
L 285.172139 325.115029 
L 285.576662 322.848321 
L 285.981186 327.240801 
L 286.38571 323.599975 
L 286.790234 323.717421 
L 287.194757 326.418679 
L 287.599281 330.599758 
L 288.003805 332.619829 
L 288.408328 330.952096 
L 288.812852 319.888681 
L 289.217376 327.769309 
L 289.621899 332.795998 
L 290.026423 331.692005 
L 290.430947 327.651863 
L 290.835471 318.855156 
L 291.239994 331.304434 
L 291.644518 330.787671 
L 292.453565 329.014236 
L 292.858089 331.527581 
L 293.262613 330.482311 
L 294.07166 329.260873 
L 294.476184 331.257455 
L 294.880708 330.212186 
L 295.285231 328.145136 
L 295.689755 334.534199 
L 296.094279 332.572851 
L 296.498802 333.254037 
L 296.903326 330.000783 
L 297.30785 330.822905 
L 297.712374 330.846394 
L 298.116897 331.762473 
L 298.521421 329.953804 
L 298.925945 337.211968 
L 299.330468 333.136591 
L 299.734992 333.46544 
L 300.139516 332.59634 
L 300.54404 331.2692 
L 300.948563 332.373192 
L 301.353087 331.809451 
L 301.757611 332.819487 
L 302.162134 334.769091 
L 302.566658 332.608084 
L 302.971182 332.056088 
L 303.375705 330.670225 
L 303.780229 332.490638 
L 304.184753 334.851303 
L 304.589277 334.968749 
L 304.9938 332.819487 
L 305.398324 332.995656 
L 305.802848 332.842976 
L 306.207371 329.225639 
L 306.611895 331.374901 
L 307.420943 334.240584 
L 307.825466 334.07616 
L 309.039037 329.895081 
L 309.443561 330.541034 
L 309.848085 331.656772 
L 310.252608 333.61812 
L 310.657132 334.745602 
L 311.061656 333.794289 
L 311.46618 333.500674 
L 311.870703 334.287562 
L 312.275227 333.653354 
L 312.679751 332.502383 
L 313.084274 330.37661 
L 313.893322 334.416753 
L 314.297846 332.995656 
L 314.702369 334.134883 
L 315.106893 334.545944 
L 315.511417 329.50751 
L 316.320464 334.757346 
L 316.724988 334.134883 
L 317.129511 332.126556 
L 317.534035 332.690297 
L 317.938559 332.819487 
L 318.343083 332.760764 
L 318.747606 336.178443 
L 319.15213 336.507292 
L 319.556654 332.795998 
L 319.961177 332.983912 
L 320.365701 332.478894 
L 320.770225 335.509001 
L 321.174749 332.384937 
L 321.579272 337.153245 
L 321.983796 338.116302 
L 322.38832 337.176734 
L 322.792843 332.995656 
L 323.197367 333.559397 
L 323.601891 332.150045 
L 324.006414 331.715495 
L 324.815462 337.352903 
L 325.219986 334.322796 
L 325.624509 337.094522 
L 326.029033 332.467149 
L 326.433557 334.111393 
L 326.83808 332.866466 
L 327.242604 334.757346 
L 327.647128 335.4033 
L 328.051652 332.490638 
L 328.456175 334.123138 
L 328.860699 337.129756 
L 329.265223 332.995656 
L 329.669746 331.938642 
L 330.07427 335.074451 
L 330.478794 336.049253 
L 330.883317 332.631574 
L 331.287841 340.700115 
L 331.692365 337.9049 
L 332.096889 332.467149 
L 332.501412 335.168407 
L 332.905936 334.134883 
L 333.31046 336.612993 
L 333.714983 334.745602 
L 334.119507 332.00911 
L 334.524031 332.608084 
L 334.928555 332.408426 
L 335.333078 331.457113 
L 335.737602 333.359739 
L 336.142126 339.07936 
L 336.546649 334.287562 
L 336.951173 333.113102 
L 337.355697 334.851303 
L 338.164744 330.270909 
L 338.569268 336.671716 
L 339.378315 333.066124 
L 339.782839 333.606375 
L 340.187363 331.386646 
L 340.591886 332.59634 
L 340.99641 332.173534 
L 341.400934 331.527581 
L 341.805458 337.44686 
L 342.209981 335.861339 
L 342.614505 333.782545 
L 343.019029 335.873084 
L 343.423552 335.215386 
L 343.828076 333.535908 
L 344.2326 334.111393 
L 344.637123 333.864757 
L 345.041647 334.416753 
L 345.446171 329.390064 
L 345.850695 330.306142 
L 346.255218 329.378319 
L 346.659742 331.821196 
L 347.064266 328.814578 
L 347.468789 330.81116 
L 348.277837 329.812869 
L 348.682361 328.133391 
L 349.086884 331.926897 
L 349.491408 324.48082 
L 349.895932 337.540817 
L 350.300455 336.612993 
L 350.704979 330.693714 
L 351.109503 330.740693 
L 351.514026 329.765891 
L 351.91855 329.331341 
L 352.323074 332.44366 
L 352.727598 321.204076 
L 353.132121 328.849812 
L 353.536645 325.596557 
L 353.941169 329.190405 
L 354.345692 327.781053 
L 354.750216 331.926897 
L 355.15474 328.791089 
L 355.559264 305.748181 
L 355.963787 338.374684 
L 356.368311 327.264291 
L 356.772835 328.18037 
L 357.177358 317.927332 
L 357.581882 323.423806 
L 357.986406 334.921771 
L 358.390929 315.21433 
L 358.795453 271.641858 
L 359.604501 328.885046 
L 360.009024 318.420606 
L 360.413548 315.507945 
L 360.818072 330.96384 
L 361.222595 322.801342 
L 361.627119 312.078521 
L 362.031643 329.284362 
L 362.436167 321.591648 
L 362.84069 329.765891 
L 363.649738 321.861774 
L 364.054261 317.880354 
L 364.458785 277.948709 
L 364.863309 319.17226 
L 365.267832 324.774435 
L 365.672356 321.345012 
L 366.07688 330.893373 
L 366.481404 320.440677 
L 366.885927 295.483399 
L 367.290451 331.280944 
L 367.694975 333.18357 
L 368.504022 318.89039 
L 368.908546 317.868609 
L 369.31307 305.207929 
L 369.717593 281.213708 
L 370.122117 187.797148 
L 370.526641 274.836389 
L 370.931164 305.207929 
L 371.335688 323.494274 
L 371.740212 319.266217 
L 372.144735 300.075538 
L 372.549259 326.136809 
L 372.953783 237.570769 
L 373.358307 298.654441 
L 373.76283 329.613211 
L 374.167354 322.601684 
L 374.571878 317.84512 
L 374.976401 300.557067 
L 375.380925 301.755016 
L 375.785449 286.428311 
L 376.189973 310.751381 
L 376.99902 330.165207 
L 377.403544 295.74178 
L 377.808067 277.067864 
L 378.212591 209.313258 
L 378.617115 247.436234 
L 379.021638 332.314469 
L 379.426162 289.188293 
L 379.830686 288.260469 
L 380.23521 331.39839 
L 381.448781 205.214392 
L 381.853304 308.883989 
L 382.257828 282.329445 
L 382.662352 284.502197 
L 383.066876 319.078303 
L 383.875923 194.327146 
L 384.280447 223.759117 
L 384.68497 300.510088 
L 385.089494 280.802647 
L 385.494018 279.334572 
L 385.898541 265.381985 
L 386.303065 284.25556 
L 386.707589 173.022439 
L 387.112113 95.602026 
L 387.516636 136.625919 
L 387.92116 295.283741 
L 388.325684 244.805443 
L 388.730207 237.958341 
L 389.134731 243.748429 
L 389.539255 209.900488 
L 389.943779 158.09505 
L 390.348302 251.5351 
L 390.752826 256.890638 
L 391.15735 249.010011 
L 391.561873 299.335628 
L 391.966397 231.463576 
L 392.370921 125.597738 
L 392.775444 97.786522 
L 393.179968 241.65789 
L 393.584492 269.175492 
L 393.989016 314.932459 
L 394.393539 244.276936 
L 394.798063 276.692037 
L 395.60711 171.495641 
L 396.011634 259.368749 
L 396.416158 230.711922 
L 396.820682 223.301078 
L 397.225205 235.926525 
L 397.629729 220.811222 
L 398.034253 123.46022 
L 398.8433 243.630983 
L 399.247824 294.931403 
L 399.652347 211.098437 
L 400.056871 212.026261 
L 400.461395 217.886817 
L 400.865919 140.818742 
L 401.270442 89.00156 
L 401.674966 116.941967 
L 402.07949 305.020015 
L 402.484013 244.089023 
L 402.888537 271.453944 
L 403.697585 128.216784 
L 404.102108 152.140537 
L 404.506632 264.489396 
L 404.911156 231.968594 
L 405.315679 220.235737 
L 405.720203 234.387982 
L 406.124727 222.279298 
L 406.52925 258.534883 
L 406.933774 202.243007 
L 407.338298 228.879764 
L 407.742822 209.207556 
L 408.147345 258.687562 
L 408.551869 208.773006 
L 408.956393 219.484083 
L 409.360916 138.716458 
L 409.76544 139.303688 
L 410.574488 320.851738 
L 410.979011 206.682467 
L 411.383535 222.373254 
L 411.788059 214.739263 
L 412.192582 126.302414 
L 412.597106 239.144545 
L 413.00163 192.365798 
L 413.406153 307.016598 
L 413.810677 313.288215 
L 414.215201 301.931185 
L 414.619725 313.804977 
L 415.024248 251.323697 
L 415.428772 243.584005 
L 415.833296 308.8605 
L 416.237819 311.197676 
L 416.642343 292.2184 
L 417.046867 314.110337 
L 417.451391 315.554923 
L 417.855914 238.933143 
L 418.260438 316.118664 
L 418.664962 315.731092 
L 419.069485 300.756725 
L 419.474009 301.778505 
L 419.878533 299.065502 
L 420.283056 290.844281 
L 420.68758 196.441174 
L 421.092104 226.061059 
L 421.496628 314.356974 
L 421.901151 307.462893 
L 422.305675 307.744763 
L 422.710199 314.415697 
L 423.114722 299.453074 
L 423.519246 311.338611 
L 423.92377 278.230579 
L 424.328294 318.632009 
L 424.732817 309.835302 
L 425.137341 329.883337 
L 425.541865 325.103284 
L 425.946388 309.471219 
L 426.350912 305.853882 
L 426.755436 319.266217 
L 427.159959 319.090048 
L 427.564483 313.981146 
L 427.969007 313.018089 
L 428.373531 314.60361 
L 428.778054 307.09881 
L 429.182578 310.434277 
L 429.587102 285.629678 
L 430.800673 330.987329 
L 431.205197 326.618338 
L 432.014244 306.51158 
L 432.418768 302.025142 
L 432.823291 321.955731 
L 433.227815 331.140009 
L 433.632339 322.190623 
L 434.036862 321.321522 
L 434.441386 324.363374 
L 434.84591 316.588448 
L 435.250434 333.958714 
L 435.654957 320.734292 
L 436.059481 325.631791 
L 436.464005 332.854721 
L 436.868528 331.915153 
L 437.273052 328.791089 
L 437.677576 332.326214 
L 438.0821 326.477402 
L 438.486623 329.989038 
L 438.891147 328.473985 
L 439.700194 331.750728 
L 440.104718 327.898499 
L 440.509242 331.386646 
L 440.913765 331.128265 
L 441.318289 334.381519 
L 441.722813 332.349703 
L 442.127337 332.514128 
L 442.53186 331.656772 
L 442.936384 331.85643 
L 443.340908 335.168407 
L 443.745431 333.019145 
L 444.149955 333.077868 
L 444.554479 331.926897 
L 444.959003 331.785962 
L 445.363526 332.197023 
L 445.76805 332.913444 
L 446.172574 330.482311 
L 446.577097 333.113102 
L 446.981621 334.686879 
L 447.386145 329.084704 
L 447.790668 332.314469 
L 448.195192 329.777635 
L 448.599716 330.423588 
L 449.00424 333.371483 
L 449.408763 339.196806 
L 450.217811 330.07125 
L 450.622334 332.795998 
L 451.026858 332.114811 
L 451.431382 334.440242 
L 451.835906 333.559397 
L 452.240429 334.557688 
L 452.644953 333.430206 
L 453.049477 333.066124 
L 453.454 331.093031 
L 453.858524 331.304434 
L 454.263048 330.447078 
L 454.667571 337.869666 
L 455.072095 335.426789 
L 455.476619 331.821196 
L 455.881143 331.98562 
L 456.285666 332.455405 
L 456.69019 332.44366 
L 457.094714 330.752437 
L 457.499237 332.349703 
L 457.903761 332.643318 
L 458.308285 331.151754 
L 458.712809 334.604667 
L 459.117332 334.686879 
L 459.521856 335.673425 
L 460.330903 326.289489 
L 460.735427 337.540817 
L 461.139951 333.171825 
L 461.544474 335.180152 
L 461.948998 333.817778 
L 462.353522 331.70375 
L 463.162569 334.733857 
L 463.567093 335.215386 
L 463.971617 332.678552 
L 464.37614 332.784253 
L 464.780664 333.394973 
L 465.185188 332.678552 
L 465.589712 332.44366 
L 465.994235 337.998856 
L 466.398759 336.483803 
L 466.803283 332.619829 
L 467.207806 333.113102 
L 467.61233 332.514128 
L 468.016854 332.619829 
L 468.825901 337.623029 
L 469.230425 336.953587 
L 469.634949 335.53249 
L 470.039472 333.054379 
L 470.443996 332.244002 
L 470.84852 332.244002 
L 471.253043 332.561106 
L 471.657567 337.059288 
L 472.062091 336.225422 
L 472.466615 332.784253 
L 472.871138 332.349703 
L 473.275662 331.42188 
L 473.680186 332.279236 
L 474.084709 331.903408 
L 474.893757 336.742184 
L 475.298281 331.034308 
L 475.702804 331.997365 
L 476.107328 331.656772 
L 476.511852 336.084486 
L 476.916375 336.248911 
L 477.320899 335.497256 
L 477.725423 336.73044 
L 478.129946 331.903408 
L 478.53447 335.450278 
L 478.938994 335.086195 
L 479.343518 333.019145 
L 479.748041 336.096231 
L 480.152565 335.743893 
L 480.961612 331.55107 
L 481.366136 332.525872 
L 481.77066 331.692005 
L 482.175184 333.571142 
L 482.579707 333.723822 
L 482.984231 331.962131 
L 483.388755 328.802833 
L 484.197802 332.349703 
L 485.006849 333.488929 
L 485.411373 332.666807 
L 485.815897 334.94526 
L 486.220421 334.992238 
L 486.624944 333.371483 
L 487.029468 332.901699 
L 487.433992 330.447078 
L 487.838515 330.329632 
L 488.243039 332.831232 
L 488.647563 331.316178 
L 489.052087 323.165425 
L 489.861134 332.760764 
L 490.670181 331.832941 
L 491.074705 332.807743 
L 491.479229 335.121429 
L 491.883752 333.066124 
L 492.288276 337.822687 
L 493.097324 338.64481 
L 493.501847 338.750511 
L 493.906371 339.07936 
L 494.310895 339.008892 
L 494.715418 340.206842 
L 495.524466 338.92668 
L 495.92899 339.51391 
L 496.738037 339.384719 
L 497.547084 340.465223 
L 498.356132 339.572633 
L 498.760655 339.596122 
L 499.165179 339.490421 
L 499.569703 339.607867 
L 499.974227 339.983694 
L 500.37875 340.523946 
L 500.783274 339.877993 
L 501.996845 339.408209 
L 502.401369 340.805816 
L 502.805893 339.643101 
L 503.210416 340.981985 
L 503.61494 340.629647 
L 504.019464 339.678334 
L 504.828511 339.314252 
L 505.637558 339.760547 
L 506.042082 340.606158 
L 506.446606 339.525655 
L 506.85113 339.79578 
L 507.255653 339.114594 
L 508.064701 339.478676 
L 508.469224 339.784036 
L 508.873748 340.723604 
L 509.278272 339.560888 
L 509.682796 339.408209 
L 510.491843 339.584378 
L 510.896367 339.008892 
L 511.30089 339.631356 
L 511.705414 339.81927 
L 512.109938 339.737057 
L 512.514461 338.950169 
L 513.323509 339.314252 
L 513.728033 338.64481 
L 514.132556 339.936716 
L 514.53708 340.007183 
L 514.941604 339.701824 
L 515.750651 338.586087 
L 516.155175 339.185061 
L 516.559699 339.36123 
L 516.964222 338.633065 
L 517.368746 340.218586 
L 517.77327 340.55918 
L 518.177793 338.950169 
L 518.582317 338.362939 
L 518.986841 338.128047 
L 519.391364 338.292472 
L 520.200412 340.124629 
L 520.604936 338.844468 
L 521.009459 338.703533 
L 521.413983 339.008892 
L 521.818507 338.480385 
L 522.22303 338.914935 
L 522.627554 338.856212 
L 523.032078 339.478676 
L 523.436602 338.750511 
L 524.245649 338.550853 
L 524.650173 337.740475 
L 525.054696 338.128047 
L 525.45922 338.680043 
L 525.863744 339.020637 
L 526.268267 338.715277 
L 526.672791 338.116302 
L 527.077315 338.586087 
L 527.481839 337.987112 
L 527.886362 337.681752 
L 528.69541 338.903191 
L 529.099933 338.210259 
L 529.908981 337.611285 
L 530.718028 337.282436 
L 531.122552 337.482094 
L 531.527076 338.198515 
L 531.931599 338.480385 
L 532.336123 338.257238 
L 532.740647 337.305925 
L 533.14517 337.341159 
L 533.549694 336.260655 
L 533.954218 320.769526 
L 534.358742 292.124443 
L 534.763265 317.774653 
L 535.167789 318.772944 
L 535.572313 274.448818 
L 535.976836 309.952748 
L 536.38136 309.060158 
L 536.785884 279.980525 
L 537.190408 294.085791 
L 537.594931 318.385372 
L 537.999455 320.417188 
L 538.403979 320.076595 
L 539.213026 313.722765 
L 539.61755 328.826323 
L 540.022073 296.188075 
L 540.426597 324.821414 
L 540.831121 315.367009 
L 541.235645 312.055032 
L 541.640168 334.992238 
L 542.449216 280.27414 
L 542.853739 319.900426 
L 543.258263 312.665751 
L 543.662787 315.531434 
L 544.067311 334.040926 
L 544.876358 303.317048 
L 545.280882 271.794538 
L 545.685405 282.693528 
L 546.089929 329.589722 
L 546.494453 310.974528 
L 546.898976 321.990965 
L 547.708024 297.785341 
L 548.112548 281.025794 
L 548.517071 327.111611 
L 548.921595 316.893808 
L 549.326119 333.876501 
L 549.730642 308.238036 
L 550.135166 306.3589 
L 550.53969 302.81203 
L 550.944214 277.408457 
L 551.348737 281.941873 
L 551.753261 312.242945 
L 552.157785 327.252546 
L 552.562308 302.635861 
L 552.966832 307.028342 
L 553.371356 296.48169 
L 553.775879 279.933547 
L 554.180403 313.605319 
L 554.584927 325.138518 
L 554.989451 309.764834 
L 555.393974 308.531651 
L 555.798498 304.538487 
L 556.203022 309.330284 
L 556.607545 277.361479 
L 557.012069 276.915184 
L 557.416593 312.924132 
L 557.821117 305.020015 
L 558.630164 322.26109 
L 559.439211 295.964928 
L 559.843735 279.299338 
L 560.248259 308.061867 
L 560.652782 310.704403 
L 561.057306 329.777635 
L 561.46183 304.808613 
L 561.866354 302.389225 
L 562.270877 276.962162 
L 562.675401 278.324536 
L 563.079925 315.355265 
L 563.484448 334.51071 
L 563.888972 328.755855 
L 564.293496 330.411844 
L 564.69802 322.519472 
L 565.102543 303.728109 
L 565.507067 320.992673 
L 565.911591 330.400099 
L 566.316114 331.492347 
L 566.720638 319.04307 
L 567.125162 330.881628 
L 567.529685 328.603175 
L 567.934209 316.001218 
L 568.338733 318.538052 
L 568.743257 331.445369 
L 569.14778 330.52929 
L 569.552304 321.897008 
L 569.956828 330.740693 
L 570.361351 322.437259 
L 570.765875 298.595718 
L 571.170399 308.097101 
L 571.574923 329.131682 
L 571.979446 333.723822 
L 572.38397 335.520746 
L 572.788494 332.619829 
L 573.193017 335.027472 
L 573.597541 326.430424 
L 574.002065 337.200224 
L 574.406588 332.173534 
L 574.811112 331.692005 
L 575.215636 334.863048 
L 575.62016 332.995656 
L 576.024683 330.353121 
L 576.429207 322.120155 
L 576.833731 328.532708 
L 577.238254 332.373192 
L 577.642778 330.752437 
L 578.047302 331.39839 
L 578.451826 335.779127 
L 578.856349 332.72553 
L 579.260873 326.900208 
L 579.665397 335.027472 
L 580.06992 335.485512 
L 580.474444 334.311052 
L 580.878968 335.015728 
L 581.283491 335.203641 
L 581.688015 327.346503 
L 582.092539 331.973876 
L 582.497063 335.062706 
L 582.901586 335.039217 
L 583.30611 335.37981 
L 583.710634 332.502383 
L 584.115157 335.109684 
L 584.924205 332.572851 
L 585.328729 339.044126 
L 585.733252 335.779127 
L 586.137776 335.285854 
L 586.5423 331.973876 
L 586.946823 333.547652 
L 587.755871 325.291198 
L 588.564918 328.215603 
L 588.969442 325.197241 
L 589.373966 330.141718 
L 589.778489 333.207059 
L 590.183013 333.782545 
L 590.587537 332.995656 
L 590.99206 340.124629 
L 591.396584 336.049253 
L 591.801108 335.309343 
L 592.610155 334.675134 
L 593.014679 333.46544 
L 593.823726 339.913227 
L 594.22825 335.931807 
L 594.632774 335.579469 
L 595.037297 335.790871 
L 595.441821 335.168407 
L 595.846345 335.003983 
L 596.250869 336.319378 
L 596.655392 336.131465 
L 597.059916 336.448569 
L 597.46444 338.351195 
L 597.868963 335.708659 
L 598.273487 335.109684 
L 598.678011 335.790871 
L 599.487058 338.680043 
L 599.891582 335.567724 
L 600.296106 335.4033 
L 600.700629 335.802616 
L 601.105153 334.957005 
L 601.509677 334.440242 
L 601.9142 339.279018 
L 602.318724 338.480385 
L 602.723248 335.720404 
L 603.127772 335.062706 
L 603.532295 335.978785 
L 604.341343 334.581177 
L 604.745866 338.128047 
L 605.15039 339.173317 
L 605.554914 337.810943 
L 605.959438 337.31767 
L 606.363961 336.178443 
L 606.768485 338.539108 
L 607.173009 339.737057 
L 607.982056 337.893155 
L 608.38658 339.149827 
L 608.791103 337.129756 
L 609.195627 338.680043 
L 609.600151 336.918353 
L 610.004675 338.938425 
L 610.409198 337.282436 
L 610.813722 339.478676 
L 611.218246 338.715277 
L 612.027293 338.233748 
L 612.431817 337.893155 
L 612.836341 337.998856 
L 613.240864 335.426789 
L 613.645388 337.916644 
L 614.049912 338.398173 
L 614.454435 338.386428 
L 614.858959 337.998856 
L 615.263483 338.715277 
L 615.668006 338.961914 
L 616.07253 337.728731 
L 616.477054 339.443442 
L 616.881578 338.985403 
L 617.286101 338.762256 
L 617.690625 338.691788 
L 618.095149 338.433407 
L 618.499672 338.527364 
L 618.904196 337.623029 
L 619.30872 338.950169 
L 619.713244 338.515619 
L 620.117767 339.290763 
L 620.522291 338.409918 
L 620.926815 338.64481 
L 621.331338 338.362939 
L 621.735862 335.227131 
L 622.140386 338.456896 
L 622.544909 338.633065 
L 622.949433 338.222004 
L 623.353957 336.695206 
L 623.758481 337.799198 
L 624.163004 338.49213 
L 624.567528 335.826105 
L 624.972052 336.107976 
L 625.376575 338.03409 
L 626.590147 337.282436 
L 626.99467 337.587795 
L 627.399194 334.816069 
L 627.803718 330.96384 
L 628.208241 333.371483 
L 628.612765 338.785745 
L 629.017289 335.180152 
L 629.421812 336.57776 
L 629.826336 336.354612 
L 630.23086 337.188479 
L 630.635384 341.357812 
L 631.039907 341.357812 
L 631.444431 340.629647 
L 631.848955 337.282436 
L 632.658002 335.884828 
L 633.062526 333.92348 
L 633.46705 338.727022 
L 633.871573 337.822687 
L 634.276097 337.31767 
L 634.680621 335.520746 
L 635.085144 336.695206 
L 635.489668 336.648227 
L 635.894192 335.509001 
L 636.298715 333.723822 
L 636.703239 336.695206 
L 637.107763 335.086195 
L 637.512287 334.698623 
L 637.91681 336.519037 
L 638.321334 334.545944 
L 638.725858 331.175243 
L 639.130381 336.988821 
L 639.534905 337.106267 
L 639.939429 337.482094 
L 640.343953 336.284145 
L 640.748476 337.552562 
L 641.153 335.96704 
L 641.557524 320.111828 
L 641.962047 324.19895 
L 642.366571 333.876501 
L 643.175618 336.389846 
L 643.580142 333.46544 
L 643.984666 337.211968 
L 644.38919 331.926897 
L 644.793713 339.067615 
L 645.198237 336.589504 
L 645.602761 330.869883 
L 646.007284 336.918353 
L 646.411808 336.742184 
L 646.816332 331.233966 
L 647.220856 332.925189 
L 647.625379 321.838285 
L 648.029903 335.003983 
L 648.434427 335.955296 
L 648.83895 334.827814 
L 649.243474 334.240584 
L 649.647998 336.342868 
L 650.052521 321.497691 
L 650.457045 339.643101 
L 650.861569 338.304216 
L 651.266093 336.319378 
L 651.670616 332.819487 
L 652.07514 337.658263 
L 652.479664 336.436824 
L 652.884187 336.55427 
L 653.288711 335.602958 
L 653.693235 337.364648 
L 654.097759 337.834432 
L 654.502282 338.809234 
L 654.906806 338.081069 
L 655.31133 332.302725 
L 655.715853 328.861556 
L 656.120377 335.121429 
L 656.524901 336.953587 
L 656.929424 337.141501 
L 657.333948 338.175025 
L 657.738472 337.975367 
L 658.142996 337.258947 
L 658.547519 331.280944 
L 658.952043 336.213677 
L 659.356567 337.951878 
L 659.76109 337.987112 
L 660.165614 336.800907 
L 660.570138 334.463731 
L 660.974662 336.85963 
L 661.379185 327.546161 
L 661.783709 331.128265 
L 662.188233 336.519037 
L 662.592756 336.683461 
L 662.99728 331.210477 
L 663.806327 327.546161 
L 664.210851 313.311704 
L 664.615375 310.481255 
L 665.019899 330.329632 
L 665.424422 326.54787 
L 665.828946 326.430424 
L 666.23347 328.932024 
L 666.637993 313.018089 
L 667.042517 313.382172 
L 667.447041 272.475725 
L 667.851565 272.088153 
L 668.256088 323.365083 
L 668.660612 333.571142 
L 669.065136 323.036234 
L 669.469659 337.576051 
L 669.874183 299.276905 
L 670.278707 289.787267 
L 670.68323 320.475911 
L 671.087754 321.450713 
L 671.492278 323.341594 
L 671.896802 333.982203 
L 672.301325 319.524598 
L 672.705849 273.121678 
L 673.110373 266.28632 
L 673.514896 319.148771 
L 673.91942 334.040926 
L 674.728468 315.4962 
L 675.132991 312.595283 
L 675.537515 272.076408 
L 675.942039 280.86137 
L 676.346562 331.445369 
L 676.751086 320.616846 
L 677.15561 317.574994 
L 677.560133 315.860283 
L 677.964657 332.74902 
L 678.369181 262.3049 
L 678.773705 267.167165 
L 679.178228 328.427006 
L 679.582752 324.586522 
L 680.391799 308.625608 
L 680.796323 321.380245 
L 681.200847 316.917297 
L 681.605371 265.616877 
L 682.009894 314.427441 
L 682.414418 329.272618 
L 682.818942 320.734292 
L 683.223465 271.982451 
L 683.627989 311.702694 
L 684.032513 249.303626 
L 684.437036 255.481286 
L 684.84156 299.711456 
L 685.246084 308.508162 
L 686.055131 332.936933 
L 686.459655 314.615355 
L 686.864179 247.776828 
L 687.268702 306.687749 
L 687.673226 314.873736 
L 688.07775 319.935659 
L 688.482274 293.956601 
L 689.291321 304.162659 
L 689.695845 309.999726 
L 690.100368 250.771701 
L 690.504892 285.747124 
L 690.909416 303.258325 
L 691.313939 266.579935 
L 691.718463 284.631387 
L 692.122987 261.741159 
L 692.527511 283.644841 
L 692.932034 214.152033 
L 693.741082 321.168842 
L 694.145605 255.880603 
L 694.550129 322.190623 
L 694.954653 242.409545 
L 695.359177 224.076222 
L 695.7637 288.483616 
L 696.168224 173.28082 
L 696.572748 268.130222 
L 696.977271 255.880603 
L 697.381795 248.669417 
L 698.190842 265.769557 
L 698.595366 208.080074 
L 699.404414 317.621973 
L 700.213461 279.322827 
L 700.617985 290.632879 
L 701.022508 184.943209 
L 701.427032 189.582327 
L 701.831556 255.034991 
L 702.23608 300.204729 
L 702.640603 294.755234 
L 703.045127 276.609824 
L 703.449651 247.812061 
L 703.854174 188.795439 
L 704.663222 265.652111 
L 705.067745 236.06746 
L 705.472269 293.369371 
L 705.876793 282.18851 
L 706.281317 249.714687 
L 706.68584 201.397396 
L 707.090364 266.744359 
L 707.494888 278.371515 
L 707.899411 263.596806 
L 708.303935 267.00274 
L 708.708459 257.994631 
L 709.112983 245.874202 
L 709.517506 169.851396 
L 709.92203 176.745478 
L 710.326554 213.388634 
L 710.731077 282.693528 
L 711.135601 318.115246 
L 711.540125 327.616629 
L 711.944648 309.776579 
L 712.349172 263.866932 
L 712.753696 313.898934 
L 713.15822 321.579904 
L 713.562743 326.747528 
L 713.967267 325.443877 
L 714.371791 317.856865 
L 714.776314 307.38068 
L 715.180838 259.157346 
L 715.585362 269.433873 
L 715.989886 314.709312 
L 716.394409 326.817996 
L 716.798933 334.863048 
L 717.60798 320.875227 
L 718.012504 318.068268 
L 718.417028 299.464819 
L 718.821551 326.559615 
L 719.226075 322.366792 
L 719.630599 321.027907 
L 720.439646 317.081721 
L 720.84417 280.015759 
L 721.248694 333.242293 
L 721.653217 332.431915 
L 722.057741 328.239093 
L 722.462265 326.606593 
L 722.866789 326.500892 
L 723.271312 326.747528 
L 723.675836 328.591431 
L 724.08036 295.401187 
L 724.484883 285.594444 
L 724.889407 323.811378 
L 725.293931 318.103501 
L 726.102978 330.68197 
L 726.507502 327.628373 
L 726.912026 320.276253 
L 727.316549 327.980711 
L 727.721073 319.689023 
L 728.53012 333.077868 
L 729.339168 320.95744 
L 729.743692 312.019798 
L 730.148215 334.886537 
L 730.552739 333.888246 
L 730.957263 320.37021 
L 731.361786 327.757564 
L 731.76631 331.081286 
L 732.170834 335.649936 
L 732.575357 321.051396 
L 732.979881 328.579686 
L 733.384405 329.448787 
L 733.788929 331.656772 
L 734.193452 331.645027 
L 734.597976 326.947186 
L 735.0025 318.972602 
L 735.407023 315.449222 
L 736.216071 331.104775 
L 736.620595 328.262582 
L 737.025118 327.146845 
L 737.429642 325.643536 
L 737.834166 325.361665 
L 738.238689 337.341159 
L 738.643213 332.29098 
L 739.047737 331.680261 
L 739.45226 334.087904 
L 739.856784 333.430206 
L 740.261308 331.797707 
L 740.665832 331.151754 
L 741.070355 335.68517 
L 741.474879 333.629865 
L 741.879403 332.854721 
L 742.283926 331.468858 
L 742.68845 333.841268 
L 743.092974 332.29098 
L 743.497498 331.762473 
L 743.902021 338.49213 
L 744.306545 334.346285 
L 744.711069 334.252329 
L 745.115592 333.747311 
L 745.520116 333.817778 
L 745.92464 332.960422 
L 746.329163 333.007401 
L 746.733687 338.010601 
L 747.138211 334.698623 
L 747.542735 333.665099 
L 747.947258 334.628156 
L 748.351782 334.346285 
L 748.756306 333.629865 
L 749.160829 335.708659 
L 749.565353 333.254037 
L 749.969877 332.713786 
L 750.374401 333.148336 
L 750.778924 334.933515 
L 751.183448 333.876501 
L 751.587972 333.371483 
L 751.992495 337.623029 
L 752.397019 334.874792 
L 752.801543 335.661681 
L 753.206066 335.003983 
L 753.61059 336.295889 
L 754.015114 335.943551 
L 754.419638 337.411626 
L 754.824161 335.826105 
L 755.228685 332.866466 
L 755.633209 338.045835 
L 756.037732 333.524163 
L 756.442256 334.592922 
L 756.84678 332.819487 
L 757.251304 332.960422 
L 758.060351 337.305925 
L 758.464875 335.109684 
L 758.869398 335.779127 
L 759.273922 338.715277 
L 759.678446 337.153245 
L 760.082969 337.024055 
L 760.487493 334.980494 
L 760.892017 337.681752 
L 761.296541 338.727022 
L 761.701064 338.456896 
L 762.105588 336.73044 
L 762.510112 336.906609 
L 762.914635 336.601249 
L 763.319159 336.648227 
L 763.723683 328.814578 
L 764.128207 339.842759 
L 764.53273 337.799198 
L 764.937254 335.003983 
L 765.341778 335.849594 
L 765.746301 335.050961 
L 766.150825 331.809451 
L 766.555349 332.960422 
L 766.959872 335.790871 
L 767.364396 334.722113 
L 768.173444 335.238875 
L 768.577967 333.935224 
L 768.982491 327.933733 
L 769.387015 330.599758 
L 769.791538 335.743893 
L 770.196062 333.301016 
L 770.600586 335.602958 
L 771.00511 335.849594 
L 771.409633 334.686879 
L 771.814157 331.844685 
L 772.218681 330.200441 
L 772.623204 333.888246 
L 773.027728 334.710368 
L 773.432252 333.864757 
L 773.836776 337.094522 
L 774.241299 341.357812 
L 774.645823 341.357812 
L 775.050347 340.336032 
L 775.859394 334.710368 
L 776.263918 333.759055 
L 776.668441 336.143209 
L 777.072965 337.047544 
L 777.477489 336.248911 
L 777.882013 334.05267 
L 778.286536 329.6367 
L 778.69106 335.027472 
L 779.095584 333.347994 
L 779.500107 332.831232 
L 779.904631 334.757346 
L 780.309155 333.958714 
L 780.713679 336.812652 
L 781.522726 333.31276 
L 782.331773 333.218804 
L 782.736297 332.455405 
L 783.140821 333.33625 
L 783.545344 324.022781 
L 783.949868 335.649936 
L 784.354392 332.702041 
L 784.758916 332.326214 
L 785.163439 332.384937 
L 785.567963 334.921771 
L 785.972487 335.520746 
L 786.37701 337.763964 
L 786.781534 333.383228 
L 787.186058 337.176734 
L 787.590582 334.886537 
L 787.995105 322.672151 
L 788.804153 335.83785 
L 789.208676 325.314687 
L 789.6132 329.554488 
L 790.017724 331.680261 
L 790.422247 335.53249 
L 790.826771 332.103067 
L 791.231295 332.760764 
L 791.635819 332.44366 
L 792.040342 337.529072 
L 792.84939 331.010819 
L 793.253913 335.168407 
L 793.658437 331.198732 
L 794.062961 335.544235 
L 794.467485 322.542961 
L 794.872008 334.451987 
L 795.276532 330.658481 
L 795.681056 331.715495 
L 796.085579 333.371483 
L 796.490103 330.317887 
L 796.894627 331.2692 
L 797.29915 331.069542 
L 797.703674 323.094957 
L 798.108198 330.400099 
L 798.512722 317.069977 
L 798.917245 330.176952 
L 799.321769 326.958931 
L 799.726293 319.289706 
L 800.130816 306.94613 
L 800.53534 305.900861 
L 800.939864 332.197023 
L 801.344388 331.668516 
L 801.748911 321.227565 
L 802.153435 330.775927 
L 802.557959 314.192549 
L 802.962482 330.07125 
L 803.367006 290.574156 
L 803.77153 330.317887 
L 804.176053 325.725748 
L 804.580577 328.955513 
L 805.389625 314.650589 
L 805.794148 292.488526 
L 806.198672 333.606375 
L 806.603196 325.314687 
L 807.007719 329.589722 
L 807.412243 319.771235 
L 807.816767 313.840211 
L 808.221291 320.511145 
L 808.625814 283.680074 
L 809.030338 266.56819 
L 809.434862 316.717639 
L 809.839385 319.113537 
L 811.052956 300.063794 
L 811.45748 219.143489 
L 811.862004 258.863731 
L 812.266528 328.943769 
L 812.671051 317.434059 
L 813.075575 316.858574 
L 813.480099 314.638844 
L 813.884622 303.187858 
L 814.289146 278.371515 
L 814.69367 274.648476 
L 815.098194 200.446083 
L 815.502717 311.961075 
L 815.907241 316.846829 
L 816.311765 316.623682 
L 816.716288 324.727457 
L 817.120812 220.482374 
L 817.525336 216.31304 
L 817.929859 291.736871 
L 818.334383 293.67473 
L 818.738907 326.794507 
L 819.143431 310.046705 
L 819.547954 280.802647 
L 819.952478 185.671375 
L 820.357002 230.206904 
L 820.761525 314.509653 
L 821.166049 327.745819 
L 821.570573 292.758651 
L 821.975097 312.313413 
L 822.37962 269.022812 
L 822.784144 248.751629 
L 823.188668 301.390934 
L 823.593191 279.346316 
L 823.997715 285.876315 
L 824.402239 301.50838 
L 824.806762 304.256616 
L 825.211286 263.690763 
L 825.61581 146.279981 
L 826.020334 115.391679 
L 826.424857 295.718291 
L 826.829381 268.623495 
L 827.233905 288.201746 
L 828.042952 243.57226 
L 828.447476 128.228529 
L 828.852 264.512885 
L 829.256523 260.872058 
L 829.661047 261.494522 
L 830.065571 305.630735 
L 830.470094 246.496666 
L 831.279142 107.675476 
L 831.683665 139.397645 
L 832.492713 313.346938 
L 832.897237 245.568842 
L 833.30176 252.674326 
L 833.706284 254.764865 
L 834.110808 141.006655 
L 834.515331 132.773689 
L 834.919855 238.204977 
L 835.324379 271.818027 
L 835.728903 282.024086 
L 836.133426 229.807587 
L 836.53795 224.170179 
L 836.942474 73.604387 
L 837.346997 135.240056 
L 837.751521 302.036887 
L 838.156045 266.532956 
L 838.560568 255.375585 
L 838.965092 231.475321 
L 839.369616 221.151816 
L 839.77414 123.166605 
L 840.178663 289.282249 
L 840.583187 221.504154 
L 840.987711 230.91158 
L 841.392234 234.775554 
L 841.796758 212.695703 
L 842.201282 213.494336 
L 842.605806 135.063887 
L 843.010329 104.351754 
L 843.819377 229.819332 
L 844.2239 233.835986 
L 844.628424 301.48489 
L 845.437471 124.329321 
L 846.246519 305.219674 
L 846.651043 246.649346 
L 847.055566 218.885108 
L 847.46009 214.786242 
L 847.864614 203.49968 
L 848.269137 98.937492 
L 849.482709 230.065968 
L 849.887232 259.357005 
L 850.69628 210.652142 
L 851.100803 131.235147 
L 851.505327 271.395221 
L 851.909851 315.085139 
L 852.314374 243.771918 
L 852.718898 232.908162 
L 853.123422 285.664912 
L 853.527946 263.279702 
L 853.932469 155.382047 
L 854.336993 168.195408 
L 855.14604 313.8637 
L 855.550564 249.397583 
L 855.955088 238.756974 
L 856.359612 210.382016 
L 856.764135 157.390374 
L 857.168659 252.627348 
L 857.573183 241.129383 
L 857.977706 298.525251 
L 858.38223 313.370427 
L 858.786754 299.946348 
L 859.191277 290.550666 
L 859.595801 212.014516 
L 860.000325 251.910927 
L 860.404849 325.103284 
L 860.809372 319.677278 
L 861.213896 300.427876 
L 861.61842 305.818648 
L 862.022943 301.179531 
L 862.427467 219.754208 
L 862.831991 296.669604 
L 863.236515 293.275414 
L 863.641038 298.443039 
L 864.045562 320.252764 
L 864.450086 315.684114 
L 864.854609 309.823557 
L 865.259133 260.848569 
L 865.663657 327.205568 
L 866.06818 326.817996 
L 866.472704 329.542743 
L 867.686275 303.058667 
L 868.090799 292.688184 
L 868.495323 295.013615 
L 868.899846 320.922206 
L 869.30437 318.925624 
L 869.708894 311.432568 
L 870.113418 320.017872 
L 870.517941 324.78618 
L 870.922465 300.674513 
L 871.731512 287.297412 
L 872.136036 308.719565 
L 872.54056 323.61172 
L 872.945083 330.470567 
L 873.349607 317.434059 
L 873.754131 314.861991 
L 874.158655 311.538269 
L 874.563178 329.155172 
L 874.967702 330.317887 
L 875.372226 321.920497 
L 875.776749 329.519254 
L 876.181273 319.6303 
L 876.585797 286.122952 
L 876.990321 289.200037 
L 877.394844 313.969402 
L 877.799368 320.264508 
L 878.203892 329.824614 
L 878.608415 321.08663 
L 879.012939 321.97922 
L 879.417463 304.338829 
L 879.821986 318.632009 
L 880.22651 327.769309 
L 881.035558 324.363374 
L 881.440081 330.611502 
L 881.844605 322.355047 
L 882.249129 301.132552 
L 882.653652 301.132552 
L 883.058176 325.866683 
L 883.4627 327.604884 
L 883.867224 327.957222 
L 884.271747 318.819922 
L 884.676271 333.277527 
L 885.080795 321.180587 
L 885.485318 329.413553 
L 885.889842 330.012527 
L 886.294366 334.581177 
L 886.698889 334.628156 
L 887.103413 332.478894 
L 887.507937 333.935224 
L 887.912461 331.915153 
L 888.316984 335.473767 
L 888.721508 332.455405 
L 889.126032 331.11652 
L 889.530555 329.237384 
L 889.935079 332.244002 
L 890.339603 328.473985 
L 890.744127 318.866901 
L 891.14865 337.352903 
L 891.553174 331.915153 
L 891.957698 332.29098 
L 892.362221 334.440242 
L 892.766745 333.453696 
L 893.171269 333.524163 
L 893.575792 334.07616 
L 893.980316 331.010819 
L 894.38484 334.874792 
L 894.789364 333.33625 
L 895.193887 332.302725 
L 895.598411 329.671934 
L 896.002935 333.230548 
L 896.407458 334.405008 
L 896.811982 337.435116 
L 897.216506 333.817778 
L 897.62103 333.606375 
L 898.025553 335.332832 
L 898.430077 336.460314 
L 898.834601 333.277527 
L 899.239124 333.453696 
L 899.643648 335.191897 
L 900.048172 331.891664 
L 900.452695 332.584595 
L 900.857219 330.059506 
L 901.261743 333.477185 
L 901.666267 340.429989 
L 902.07079 341.357812 
L 902.475314 335.450278 
L 902.879838 335.144918 
L 903.284361 332.337959 
L 903.688885 332.220513 
L 904.093409 325.948895 
L 904.497933 331.457113 
L 904.902456 334.79258 
L 905.30698 332.772509 
L 905.711504 327.792798 
L 906.116027 336.413335 
L 906.520551 336.530781 
L 906.925075 333.876501 
L 907.329598 333.477185 
L 907.734122 329.836358 
L 908.138646 335.015728 
L 908.54317 332.619829 
L 909.352217 334.275818 
L 909.756741 334.733857 
L 910.161264 336.659972 
L 910.565788 331.433624 
L 910.970312 331.022563 
L 911.374836 332.349703 
L 911.779359 337.329414 
L 912.183883 332.255746 
L 912.588407 335.015728 
L 912.99293 333.394973 
L 913.397454 332.972167 
L 913.801978 336.800907 
L 914.206501 330.176952 
L 914.611025 333.500674 
L 915.015549 333.277527 
L 915.420073 336.037508 
L 915.824596 333.7708 
L 916.22912 332.784253 
L 916.633644 337.505583 
L 917.038167 333.441951 
L 917.442691 335.309343 
L 917.847215 331.621538 
L 918.251739 332.537617 
L 918.656262 335.391555 
L 919.060786 340.054162 
L 919.46531 332.220513 
L 919.869833 332.631574 
L 920.274357 335.99053 
L 920.678881 331.363157 
L 921.083404 335.579469 
L 921.487928 333.406717 
L 921.892452 327.616629 
L 922.296976 325.620046 
L 922.701499 331.304434 
L 923.106023 330.83465 
L 923.510547 333.723822 
L 923.91507 331.633282 
L 924.319594 335.309343 
L 924.724118 330.482311 
L 925.128642 324.316396 
L 925.533165 322.26109 
L 925.937689 331.339667 
L 926.342213 334.863048 
L 926.746736 337.31767 
L 927.15126 331.539326 
L 927.555784 335.109684 
L 927.960307 330.83465 
L 928.364831 335.415044 
L 928.769355 331.316178 
L 929.173879 331.903408 
L 929.578402 330.09474 
L 929.982926 334.123138 
L 930.38745 332.936933 
L 930.791973 331.175243 
L 931.601021 333.7708 
L 932.005545 329.143427 
L 932.410068 332.431915 
L 932.814592 332.972167 
L 933.219116 332.537617 
L 934.028163 334.416753 
L 934.432687 334.968749 
L 934.83721 329.014236 
L 935.241734 330.893373 
L 935.646258 335.767382 
L 936.050782 332.972167 
L 936.455305 333.888246 
L 936.859829 328.051179 
L 937.264353 327.769309 
L 937.668876 331.891664 
L 938.0734 333.089613 
L 938.477924 328.15688 
L 938.882448 337.634774 
L 939.286971 315.766326 
L 939.691495 332.572851 
L 940.096019 331.879919 
L 940.500542 334.170116 
L 940.905066 330.118229 
L 941.30959 336.025763 
L 941.714113 326.336467 
L 942.118637 321.262799 
L 942.523161 326.348212 
L 942.927685 332.948678 
L 943.332208 323.036234 
L 943.736732 323.776144 
L 944.141256 292.629461 
L 944.545779 294.027068 
L 944.950303 285.71189 
L 945.759351 318.796433 
L 946.163874 304.374062 
L 946.568398 297.573938 
L 946.972922 301.167786 
L 947.377445 271.970707 
L 947.781969 282.728762 
L 948.186493 331.762473 
L 948.591016 329.296107 
L 948.99554 325.162007 
L 949.400064 324.727457 
L 949.804588 318.15048 
L 950.209111 327.240801 
L 950.613635 310.786615 
L 951.018159 326.019363 
L 951.827206 317.574994 
L 952.23173 304.221382 
L 952.636254 324.833158 
L 953.445301 332.948678 
L 953.849825 324.78618 
L 954.254348 328.121647 
L 954.658872 328.333049 
L 955.063396 319.712512 
L 955.467919 302.624117 
L 955.872443 235.292316 
L 956.276967 318.714221 
L 956.681491 307.415914 
L 957.086014 310.387298 
L 957.490538 307.850464 
L 957.895062 303.105645 
L 958.299585 293.98009 
L 958.704109 215.831511 
L 959.108633 249.221414 
L 959.513157 306.311922 
L 959.91768 308.543396 
L 960.322204 320.605102 
L 961.131251 300.439621 
L 961.535775 278.547684 
L 961.940299 108.509343 
L 962.749346 287.332645 
L 963.15387 316.341811 
L 963.962917 293.404604 
L 964.367441 186.528731 
L 964.771965 186.000224 
L 965.176488 284.901513 
L 965.581012 295.30723 
L 965.985536 285.371297 
L 966.39006 288.741998 
L 966.794583 278.982234 
L 967.199107 177.086071 
L 967.603631 211.709156 
L 968.008154 288.765487 
L 968.412678 294.731744 
L 968.817202 289.493652 
L 969.221725 317.574994 
L 969.626249 309.647388 
L 970.030773 181.408084 
L 970.435297 281.742215 
L 970.83982 311.3621 
L 971.244344 299.535286 
L 971.648868 312.031542 
L 972.053391 305.219674 
L 972.457915 291.008706 
L 972.862439 89.682746 
L 973.266963 125.926587 
L 973.671486 264.900457 
L 974.07601 255.704434 
L 974.480534 260.989504 
L 974.885057 270.537865 
L 975.289581 289.857735 
L 975.694105 276.01085 
L 976.098628 179.91652 
L 976.503152 300.604045 
L 976.907676 318.021289 
L 977.3122 271.947218 
L 977.716723 243.619239 
L 978.121247 257.325189 
L 978.525771 122.497163 
L 978.930294 249.080478 
L 979.334818 187.926338 
L 979.739342 226.765735 
L 980.143866 171.131558 
L 980.548389 276.809483 
L 981.357437 144.400845 
L 981.76196 198.426012 
L 982.571008 261.788137 
L 982.975531 231.874637 
L 983.380055 277.173565 
L 983.784579 200.892378 
L 984.189103 176.604542 
L 984.593626 141.60563 
L 984.99815 248.258356 
L 985.402674 243.360857 
L 985.807197 208.996153 
L 986.211721 257.689271 
L 986.616245 230.512263 
L 987.020769 96.35368 
L 987.425292 159.868485 
L 987.829816 270.890203 
L 988.23434 251.182762 
L 988.638863 218.896852 
L 989.043387 241.740102 
L 989.447911 224.910088 
L 989.852434 255.986304 
L 990.256958 118.691912 
L 990.661482 237.629492 
L 991.066006 222.525934 
L 991.470529 228.445213 
L 991.875053 241.458232 
L 992.279577 211.579966 
L 992.6841 124.399789 
L 993.088624 95.836918 
L 993.493148 280.920093 
L 993.897672 264.595097 
L 994.302195 190.251769 
L 994.706719 275.388386 
L 995.111243 189.229989 
L 995.515766 232.109529 
L 995.92029 131.610974 
L 996.324814 228.421724 
L 996.729337 214.657051 
L 997.133861 194.303657 
L 997.942909 250.231449 
L 998.347432 94.709436 
L 998.751956 136.625919 
L 999.15648 238.792207 
L 999.561003 230.935069 
L 999.965527 294.84919 
L 1000.370051 257.419145 
L 1000.774575 238.604294 
L 1001.179098 204.991244 
L 1001.583622 148.499711 
L 1001.988146 225.7557 
L 1002.392669 229.455249 
L 1002.797193 256.56179 
L 1003.201717 227.587858 
L 1003.60624 212.355109 
L 1004.415288 112.655187 
L 1004.819812 164.108286 
L 1005.224335 288.906422 
L 1005.628859 293.0875 
L 1006.033383 311.925841 
L 1006.437906 301.026851 
L 1006.84243 230.688432 
L 1007.246954 230.711922 
L 1007.651478 298.39606 
L 1008.056001 321.356756 
L 1008.460525 313.511362 
L 1009.269572 287.19171 
L 1009.674096 207.563312 
L 1010.483143 307.873954 
L 1010.887667 306.863918 
L 1011.292191 306.558558 
L 1011.696715 302.694584 
L 1012.101238 292.629461 
L 1012.505762 243.971577 
L 1012.910286 253.519938 
L 1013.314809 303.963001 
L 1013.719333 316.377045 
L 1014.123857 313.065067 
L 1014.528381 315.331776 
L 1014.932904 294.614298 
L 1015.337428 253.837042 
L 1015.741952 254.741376 
L 1016.146475 289.200037 
L 1016.550999 293.886133 
L 1016.955523 294.344173 
L 1017.360046 301.848973 
L 1017.76457 306.629026 
L 1018.169094 286.686692 
L 1018.573618 313.992891 
L 1018.978141 310.18764 
L 1019.382665 262.070008 
L 1019.787189 320.170551 
L 1020.191712 313.076812 
L 1020.596236 317.081721 
L 1021.00076 315.413988 
L 1021.405284 320.393699 
L 1021.809807 323.45904 
L 1022.214331 318.725965 
L 1023.023378 322.472493 
L 1023.427902 330.012527 
L 1023.832426 315.378754 
L 1024.236949 314.039869 
L 1024.641473 320.65208 
L 1025.045997 315.766326 
L 1025.450521 321.709094 
L 1025.855044 329.765891 
L 1026.259568 314.721056 
L 1026.664092 294.72 
L 1027.068615 328.133391 
L 1027.473139 319.360174 
L 1028.282187 330.541034 
L 1028.68671 330.153463 
L 1029.900281 319.383663 
L 1030.304805 333.195314 
L 1030.709329 331.997365 
L 1031.113852 329.836358 
L 1031.518376 330.235675 
L 1031.9229 325.267708 
L 1032.327424 326.876719 
L 1032.731947 325.009327 
L 1033.136471 318.549796 
L 1033.540995 331.527581 
L 1034.350042 327.839776 
L 1034.754566 331.574559 
L 1035.15909 320.100084 
L 1035.563613 327.205568 
L 1035.968137 330.799416 
L 1036.372661 337.01231 
L 1036.777184 332.384937 
L 1037.181708 331.093031 
L 1037.586232 330.799416 
L 1037.990755 327.510927 
L 1038.395279 334.064415 
L 1038.799803 314.216038 
L 1039.204327 335.368066 
L 1039.60885 335.68517 
L 1040.013374 328.7676 
L 1040.417898 335.920062 
L 1040.822421 332.619829 
L 1041.226945 336.025763 
L 1041.631469 334.123138 
L 1042.035993 334.604667 
L 1042.440516 333.806034 
L 1042.84504 335.168407 
L 1043.249564 333.782545 
L 1043.654087 331.327923 
L 1044.058611 334.616411 
L 1044.463135 334.957005 
L 1044.867658 312.125499 
L 1045.272182 334.545944 
L 1045.676706 327.59314 
L 1046.08123 329.366574 
L 1046.890277 334.651645 
L 1047.294801 335.050961 
L 1047.699324 329.448787 
L 1048.103848 332.420171 
L 1048.508372 330.435333 
L 1048.912896 332.678552 
L 1049.317419 336.143209 
L 1049.721943 330.188696 
L 1050.126467 330.047761 
L 1050.935514 336.331123 
L 1051.340038 332.913444 
L 1051.744561 331.621538 
L 1052.149085 327.616629 
L 1053.362656 331.586304 
L 1053.76718 332.279236 
L 1054.171704 330.705459 
L 1054.576227 334.346285 
L 1054.980751 334.675134 
L 1055.385275 335.555979 
L 1055.789799 335.368066 
L 1056.194322 336.953587 
L 1056.598846 335.802616 
L 1057.00337 335.790871 
L 1057.407893 328.849812 
L 1057.812417 339.889737 
L 1058.621464 335.53249 
L 1059.025988 336.495547 
L 1059.430512 335.673425 
L 1059.835036 335.602958 
L 1060.239559 334.874792 
L 1060.644083 336.11972 
L 1061.048607 331.668516 
L 1061.857654 338.515619 
L 1062.262178 335.955296 
L 1062.666702 334.957005 
L 1063.071225 335.285854 
L 1063.475749 334.405008 
L 1063.880273 334.322796 
L 1064.284796 325.772726 
L 1064.68932 335.09794 
L 1065.093844 333.500674 
L 1065.498367 335.884828 
L 1065.902891 332.420171 
L 1066.307415 325.349921 
L 1066.711939 326.911953 
L 1067.116462 334.886537 
L 1067.520986 333.759055 
L 1067.92551 333.594631 
L 1068.330033 333.735566 
L 1068.734557 328.814578 
L 1069.139081 321.720839 
L 1069.543605 332.737275 
L 1069.948128 333.453696 
L 1070.352652 330.693714 
L 1070.757176 324.011036 
L 1071.161699 335.215386 
L 1071.566223 335.039217 
L 1071.970747 332.032599 
L 1072.37527 334.334541 
L 1072.779794 330.670225 
L 1073.184318 330.505801 
L 1073.588842 331.891664 
L 1073.993365 332.173534 
L 1074.397889 330.881628 
L 1074.802413 332.314469 
L 1075.206936 332.326214 
L 1075.61146 327.616629 
L 1076.015984 327.076377 
L 1076.420508 334.769091 
L 1076.825031 333.524163 
L 1077.229555 327.910244 
L 1077.634079 331.680261 
L 1078.038602 330.541034 
L 1078.443126 325.115029 
L 1078.84765 330.259164 
L 1079.252173 331.527581 
L 1079.656697 324.469076 
L 1080.465745 335.955296 
L 1080.870268 335.25062 
L 1081.274792 326.911953 
L 1081.679316 325.561323 
L 1082.083839 304.796868 
L 1082.488363 332.326214 
L 1082.892887 328.192114 
L 1083.297411 326.747528 
L 1083.701934 331.574559 
L 1084.106458 331.70375 
L 1084.510982 333.383228 
L 1084.915505 332.373192 
L 1085.320029 331.809451 
L 1085.724553 334.804325 
L 1086.129077 330.047761 
L 1086.5336 327.076377 
L 1086.938124 327.546161 
L 1087.342648 331.774218 
L 1088.556219 316.471002 
L 1088.960742 310.539978 
L 1089.365266 312.360391 
L 1090.174314 332.87821 
L 1090.578837 334.79258 
L 1090.983361 334.863048 
L 1091.387885 327.910244 
L 1091.792408 309.858791 
L 1092.196932 301.94293 
L 1092.601456 327.475694 
L 1093.00598 325.126773 
L 1093.410503 316.893808 
L 1093.815027 332.901699 
L 1094.219551 334.35803 
L 1094.624074 322.56645 
L 1095.028598 314.744545 
L 1095.433122 317.481038 
L 1095.837645 318.232692 
L 1096.242169 333.782545 
L 1096.646693 327.029399 
L 1097.051217 325.702259 
L 1097.45574 323.235892 
L 1097.860264 315.695858 
L 1098.264788 313.828467 
L 1098.669311 328.579686 
L 1099.882883 310.939295 
L 1100.287406 325.937151 
L 1100.69193 315.226074 
L 1101.096454 319.383663 
L 1101.500977 327.510927 
L 1102.310025 298.54874 
L 1102.714548 322.848321 
L 1103.119072 270.655311 
L 1103.523596 319.430641 
L 1103.92812 301.555358 
L 1104.332643 305.207929 
L 1104.737167 310.704403 
L 1105.141691 319.6303 
L 1105.546214 314.145571 
L 1105.950738 300.451365 
L 1106.355262 269.245959 
L 1106.759786 321.074886 
L 1107.164309 321.474202 
L 1107.568833 314.697567 
L 1107.973357 303.011689 
L 1108.37788 316.788106 
L 1108.782404 211.626944 
L 1109.186928 147.383974 
L 1109.591451 156.885356 
L 1109.995975 298.208147 
L 1110.400499 310.269852 
L 1111.209546 279.217126 
L 1111.61407 290.809048 
L 1112.018594 193.293621 
L 1112.423117 318.15048 
L 1112.827641 320.945695 
L 1113.232165 292.089209 
L 1113.636689 293.780432 
L 1114.041212 282.024086 
L 1114.445736 206.670722 
L 1114.85026 300.122517 
L 1115.254783 288.201746 
L 1115.659307 288.38966 
L 1116.063831 296.282032 
L 1116.468354 293.498561 
L 1116.872878 310.070194 
L 1117.277402 226.483865 
L 1117.681926 288.565829 
L 1118.086449 298.595718 
L 1118.490973 293.909622 
L 1118.895497 274.942091 
L 1119.30002 278.829554 
L 1119.704544 267.237632 
L 1120.109068 141.946223 
L 1120.513592 183.228498 
L 1120.918115 254.118912 
L 1121.322639 273.344825 
L 1121.727163 212.543023 
L 1122.131686 284.337772 
L 1122.940734 258.182545 
L 1123.345257 261.670691 
L 1123.749781 245.709778 
L 1124.154305 276.280975 
L 1124.558829 286.287376 
L 1124.963352 253.496449 
L 1124.963352 253.496449 
" clip-path="url(#p99f7edfb29)" style="fill: none; stroke: #008080; stroke-width: 1.5; stroke-linecap: square"/>
   </g>
   <g id="patch_3">
    <path d="M 59.690625 356.477812 
L 59.690625 23.837812 
" style="fill: none; stroke: #000000; stroke-width: 0.8; stroke-linejoin: miter; stroke-linecap: square"/>
   </g>
   <g id="patch_4">
    <path d="M 1175.690625 356.477812 
L 1175.690625 23.837812 
" style="fill: none; stroke: #000000; stroke-width: 0.8; stroke-linejoin: miter; stroke-linecap: square"/>
   </g>
   <g id="patch_5">
    <path d="M 59.690625 356.477812 
L 1175.690625 356.477812 
" style="fill: none; stroke: #000000; stroke-width: 0.8; stroke-linejoin: miter; stroke-linecap: square"/>
   </g>
   <g id="patch_6">
    <path d="M 59.690625 23.837812 
L 1175.690625 23.837812 
" style="fill: none; stroke: #000000; stroke-width: 0.8; stroke-linejoin: miter; stroke-linecap: square"/>
   </g>
   <g id="text_16">
    <!-- Toronto Island Ferry Ticket Redemptions -->
    <g transform="translate(477.780313 17.837812) scale(0.14 -0.14)">
     <defs>
      <path id="DejaVuSans-72" d="M 2631 2963 
Q 2534 3019 2420 3045 
Q 2306 3072 2169 3072 
Q 1681 3072 1420 2755 
Q 1159 2438 1159 1844 
L 1159 0 
L 581 0 
L 581 3500 
L 1159 3500 
L 1159 2956 
Q 1341 3275 1631 3429 
Q 1922 3584 2338 3584 
Q 2397 3584 2469 3576 
Q 2541 3569 2628 3553 
L 2631 2963 
z
" transform="scale(0.015625)"/>
      <path id="DejaVuSans-49" d="M 628 4666 
L 1259 4666 
L 1259 0 
L 628 0 
L 628 4666 
z
" transform="scale(0.015625)"/>
      <path id="DejaVuSans-6c" d="M 603 4863 
L 1178 4863 
L 1178 0 
L 603 0 
L 603 4863 
z
" transform="scale(0.015625)"/>
      <path id="DejaVuSans-46" d="M 628 4666 
L 3309 4666 
L 3309 4134 
L 1259 4134 
L 1259 2759 
L 3109 2759 
L 3109 2228 
L 1259 2228 
L 1259 0 
L 628 0 
L 628 4666 
z
" transform="scale(0.015625)"/>
      <path id="DejaVuSans-79" d="M 2059 -325 
Q 1816 -950 1584 -1140 
Q 1353 -1331 966 -1331 
L 506 -1331 
L 506 -850 
L 844 -850 
Q 1081 -850 1212 -737 
Q 1344 -625 1503 -206 
L 1606 56 
L 191 3500 
L 800 3500 
L 1894 763 
L 2988 3500 
L 3597 3500 
L 2059 -325 
z
" transform="scale(0.015625)"/>
     </defs>
     <use xlink:href="#DejaVuSans-54"/>
     <use xlink:href="#DejaVuSans-6f" x="44.083984"/>
     <use xlink:href="#DejaVuSans-72" x="105.265625"/>
     <use xlink:href="#DejaVuSans-6f" x="144.128906"/>
     <use xlink:href="#DejaVuSans-6e" x="205.310547"/>
     <use xlink:href="#DejaVuSans-74" x="268.689453"/>
     <use xlink:href="#DejaVuSans-6f" x="307.898438"/>
     <use xlink:href="#DejaVuSans-20" x="369.080078"/>
     <use xlink:href="#DejaVuSans-49" x="400.867188"/>
     <use xlink:href="#DejaVuSans-73" x="430.359375"/>
     <use xlink:href="#DejaVuSans-6c" x="482.458984"/>
     <use xlink:href="#DejaVuSans-61" x="510.242188"/>
     <use xlink:href="#DejaVuSans-6e" x="571.521484"/>
     <use xlink:href="#DejaVuSans-64" x="634.900391"/>
     <use xlink:href="#DejaVuSans-20" x="698.376953"/>
     <use xlink:href="#DejaVuSans-46" x="730.164062"/>
     <use xlink:href="#DejaVuSans-65" x="782.183594"/>
     <use xlink:href="#DejaVuSans-72" x="843.707031"/>
     <use xlink:href="#DejaVuSans-72" x="883.070312"/>
     <use xlink:href="#DejaVuSans-79" x="924.183594"/>
     <use xlink:href="#DejaVuSans-20" x="983.363281"/>
     <use xlink:href="#DejaVuSans-54" x="1015.150391"/>
     <use xlink:href="#DejaVuSans-69" x="1073.109375"/>
     <use xlink:href="#DejaVuSans-63" x="1100.892578"/>
     <use xlink:href="#DejaVuSans-6b" x="1155.873047"/>
     <use xlink:href="#DejaVuSans-65" x="1210.158203"/>
     <use xlink:href="#DejaVuSans-74" x="1271.681641"/>
     <use xlink:href="#DejaVuSans-20" x="1310.890625"/>
     <use xlink:href="#DejaVuSans-52" x="1342.677734"/>
     <use xlink:href="#DejaVuSans-65" x="1407.660156"/>
     <use xlink:href="#DejaVuSans-64" x="1469.183594"/>
     <use xlink:href="#DejaVuSans-65" x="1532.660156"/>
     <use xlink:href="#DejaVuSans-6d" x="1594.183594"/>
     <use xlink:href="#DejaVuSans-70" x="1691.595703"/>
     <use xlink:href="#DejaVuSans-74" x="1755.072266"/>
     <use xlink:href="#DejaVuSans-69" x="1794.28125"/>
     <use xlink:href="#DejaVuSans-6f" x="1822.064453"/>
     <use xlink:href="#DejaVuSans-6e" x="1883.246094"/>
     <use xlink:href="#DejaVuSans-73" x="1946.625"/>
    </g>
   </g>
  </g>
  <g id="text_17">
   <!-- (Data from 2017-08-15 15:15:00 to 2024-06-27 21:00:00) -->
   <g style="fill: #808080" transform="translate(454.635938 399.677812) scale(0.1 -0.1)">
    <defs>
     <path id="DejaVuSans-28" d="M 1984 4856 
Q 1566 4138 1362 3434 
Q 1159 2731 1159 2009 
Q 1159 1288 1364 580 
Q 1569 -128 1984 -844 
L 1484 -844 
Q 1016 -109 783 600 
Q 550 1309 550 2009 
Q 550 2706 781 3412 
Q 1013 4119 1484 4856 
L 1984 4856 
z
" transform="scale(0.015625)"/>
     <path id="DejaVuSans-66" d="M 2375 4863 
L 2375 4384 
L 1825 4384 
Q 1516 4384 1395 4259 
Q 1275 4134 1275 3809 
L 1275 3500 
L 2222 3500 
L 2222 3053 
L 1275 3053 
L 1275 0 
L 697 0 
L 697 3053 
L 147 3053 
L 147 3500 
L 697 3500 
L 697 3744 
Q 697 4328 969 4595 
Q 1241 4863 1831 4863 
L 2375 4863 
z
" transform="scale(0.015625)"/>
     <path id="DejaVuSans-37" d="M 525 4666 
L 3525 4666 
L 3525 4397 
L 1831 0 
L 1172 0 
L 2766 4134 
L 525 4134 
L 525 4666 
z
" transform="scale(0.015625)"/>
     <path id="DejaVuSans-2d" d="M 313 2009 
L 1997 2009 
L 1997 1497 
L 313 1497 
L 313 2009 
z
" transform="scale(0.015625)"/>
     <path id="DejaVuSans-3a" d="M 750 794 
L 1409 794 
L 1409 0 
L 750 0 
L 750 794 
z
M 750 3309 
L 1409 3309 
L 1409 2516 
L 750 2516 
L 750 3309 
z
" transform="scale(0.015625)"/>
     <path id="DejaVuSans-36" d="M 2113 2584 
Q 1688 2584 1439 2293 
Q 1191 2003 1191 1497 
Q 1191 994 1439 701 
Q 1688 409 2113 409 
Q 2538 409 2786 701 
Q 3034 994 3034 1497 
Q 3034 2003 2786 2293 
Q 2538 2584 2113 2584 
z
M 3366 4563 
L 3366 3988 
Q 3128 4100 2886 4159 
Q 2644 4219 2406 4219 
Q 1781 4219 1451 3797 
Q 1122 3375 1075 2522 
Q 1259 2794 1537 2939 
Q 1816 3084 2150 3084 
Q 2853 3084 3261 2657 
Q 3669 2231 3669 1497 
Q 3669 778 3244 343 
Q 2819 -91 2113 -91 
Q 1303 -91 875 529 
Q 447 1150 447 2328 
Q 447 3434 972 4092 
Q 1497 4750 2381 4750 
Q 2619 4750 2861 4703 
Q 3103 4656 3366 4563 
z
" transform="scale(0.015625)"/>
     <path id="DejaVuSans-29" d="M 513 4856 
L 1013 4856 
Q 1481 4119 1714 3412 
Q 1947 2706 1947 2009 
Q 1947 1309 1714 600 
Q 1481 -109 1013 -844 
L 513 -844 
Q 928 -128 1133 580 
Q 1338 1288 1338 2009 
Q 1338 2731 1133 3434 
Q 928 4138 513 4856 
z
" transform="scale(0.015625)"/>
    </defs>
    <use xlink:href="#DejaVuSans-28"/>
    <use xlink:href="#DejaVuSans-44" x="39.013672"/>
    <use xlink:href="#DejaVuSans-61" x="116.015625"/>
    <use xlink:href="#DejaVuSans-74" x="177.294922"/>
    <use xlink:href="#DejaVuSans-61" x="216.503906"/>
    <use xlink:href="#DejaVuSans-20" x="277.783203"/>
    <use xlink:href="#DejaVuSans-66" x="309.570312"/>
    <use xlink:href="#DejaVuSans-72" x="344.775391"/>
    <use xlink:href="#DejaVuSans-6f" x="383.638672"/>
    <use xlink:href="#DejaVuSans-6d" x="444.820312"/>
    <use xlink:href="#DejaVuSans-20" x="542.232422"/>
    <use xlink:href="#DejaVuSans-32" x="574.019531"/>
    <use xlink:href="#DejaVuSans-30" x="637.642578"/>
    <use xlink:href="#DejaVuSans-31" x="701.265625"/>
    <use xlink:href="#DejaVuSans-37" x="764.888672"/>
    <use xlink:href="#DejaVuSans-2d" x="828.511719"/>
    <use xlink:href="#DejaVuSans-30" x="864.595703"/>
    <use xlink:href="#DejaVuSans-38" x="928.21875"/>
    <use xlink:href="#DejaVuSans-2d" x="991.841797"/>
    <use xlink:href="#DejaVuSans-31" x="1027.925781"/>
    <use xlink:href="#DejaVuSans-35" x="1091.548828"/>
    <use xlink:href="#DejaVuSans-20" x="1155.171875"/>
    <use xlink:href="#DejaVuSans-31" x="1186.958984"/>
    <use xlink:href="#DejaVuSans-35" x="1250.582031"/>
    <use xlink:href="#DejaVuSans-3a" x="1314.205078"/>
    <use xlink:href="#DejaVuSans-31" x="1347.896484"/>
    <use xlink:href="#DejaVuSans-35" x="1411.519531"/>
    <use xlink:href="#DejaVuSans-3a" x="1475.142578"/>
    <use xlink:href="#DejaVuSans-30" x="1508.833984"/>
    <use xlink:href="#DejaVuSans-30" x="1572.457031"/>
    <use xlink:href="#DejaVuSans-20" x="1636.080078"/>
    <use xlink:href="#DejaVuSans-74" x="1667.867188"/>
    <use xlink:href="#DejaVuSans-6f" x="1707.076172"/>
    <use xlink:href="#DejaVuSans-20" x="1768.257812"/>
    <use xlink:href="#DejaVuSans-32" x="1800.044922"/>
    <use xlink:href="#DejaVuSans-30" x="1863.667969"/>
    <use xlink:href="#DejaVuSans-32" x="1927.291016"/>
    <use xlink:href="#DejaVuSans-34" x="1990.914062"/>
    <use xlink:href="#DejaVuSans-2d" x="2054.537109"/>
    <use xlink:href="#DejaVuSans-30" x="2090.621094"/>
    <use xlink:href="#DejaVuSans-36" x="2154.244141"/>
    <use xlink:href="#DejaVuSans-2d" x="2217.867188"/>
    <use xlink:href="#DejaVuSans-32" x="2253.951172"/>
    <use xlink:href="#DejaVuSans-37" x="2317.574219"/>
    <use xlink:href="#DejaVuSans-20" x="2381.197266"/>
    <use xlink:href="#DejaVuSans-32" x="2412.984375"/>
    <use xlink:href="#DejaVuSans-31" x="2476.607422"/>
    <use xlink:href="#DejaVuSans-3a" x="2540.230469"/>
    <use xlink:href="#DejaVuSans-30" x="2573.921875"/>
    <use xlink:href="#DejaVuSans-30" x="2637.544922"/>
    <use xlink:href="#DejaVuSans-3a" x="2701.167969"/>
    <use xlink:href="#DejaVuSans-30" x="2734.859375"/>
    <use xlink:href="#DejaVuSans-30" x="2798.482422"/>
    <use xlink:href="#DejaVuSans-29" x="2862.105469"/>
   </g>
  </g>
 </g>
 <defs>
  <clipPath id="p99f7edfb29">
   <rect x="59.690625" y="23.837812" width="1116" height="332.64"/>
  </clipPath>
 </defs>
</svg>
