<?xml version="1.0" encoding="utf-8" standalone="no"?>
<!DOCTYPE svg PUBLIC "-//W3C//DTD SVG 1.1//EN"
  "http://www.w3.org/Graphics/SVG/1.1/DTD/svg11.dtd">
<svg xmlns:xlink="http://www.w3.org/1999/xlink" width="1182.890625pt" height="408.9575pt" viewBox="0 0 1182.890625 408.9575" xmlns="http://www.w3.org/2000/svg" version="1.1">
 <metadata>
  <rdf:RDF xmlns:dc="http://purl.org/dc/elements/1.1/" xmlns:cc="http://creativecommons.org/ns#" xmlns:rdf="http://www.w3.org/1999/02/22-rdf-syntax-ns#">
   <cc:Work>
    <dc:type rdf:resource="http://purl.org/dc/dcmitype/StillImage"/>
    <dc:date>2024-05-31T19:36:10.362700</dc:date>
    <dc:format>image/svg+xml</dc:format>
    <dc:creator>
     <cc:Agent>
      <dc:title>Matplotlib v3.8.4, https://matplotlib.org/</dc:title>
     </cc:Agent>
    </dc:creator>
   </cc:Work>
  </rdf:RDF>
 </metadata>
 <defs>
  <style type="text/css">*{stroke-linejoin: round; stroke-linecap: butt}</style>
 </defs>
 <g id="figure_1">
  <g id="patch_1">
   <path d="M 0 408.9575 
L 1182.890625 408.9575 
L 1182.890625 0 
L 0 0 
z
" style="fill: #ffffff"/>
  </g>
  <g id="axes_1">
   <g id="patch_2">
    <path d="M 59.690625 356.477812 
L 1175.690625 356.477812 
L 1175.690625 23.837812 
L 59.690625 23.837812 
z
" style="fill: #ffffff"/>
   </g>
   <g id="matplotlib.axis_1">
    <g id="xtick_1">
     <g id="line2d_1">
      <defs>
       <path id="m8531051318" d="M 0 0 
L 0 3.5 
" style="stroke: #000000; stroke-width: 0.8"/>
      </defs>
      <g>
       <use xlink:href="#m8531051318" x="63.716599" y="356.477812" style="stroke: #000000; stroke-width: 0.8"/>
      </g>
     </g>
     <g id="text_1">
      <!-- 2019 -->
      <g transform="translate(50.991599 371.07625) scale(0.1 -0.1)">
       <defs>
        <path id="DejaVuSans-32" d="M 1228 531 
L 3431 531 
L 3431 0 
L 469 0 
L 469 531 
Q 828 903 1448 1529 
Q 2069 2156 2228 2338 
Q 2531 2678 2651 2914 
Q 2772 3150 2772 3378 
Q 2772 3750 2511 3984 
Q 2250 4219 1831 4219 
Q 1534 4219 1204 4116 
Q 875 4013 500 3803 
L 500 4441 
Q 881 4594 1212 4672 
Q 1544 4750 1819 4750 
Q 2544 4750 2975 4387 
Q 3406 4025 3406 3419 
Q 3406 3131 3298 2873 
Q 3191 2616 2906 2266 
Q 2828 2175 2409 1742 
Q 1991 1309 1228 531 
z
" transform="scale(0.015625)"/>
        <path id="DejaVuSans-30" d="M 2034 4250 
Q 1547 4250 1301 3770 
Q 1056 3291 1056 2328 
Q 1056 1369 1301 889 
Q 1547 409 2034 409 
Q 2525 409 2770 889 
Q 3016 1369 3016 2328 
Q 3016 3291 2770 3770 
Q 2525 4250 2034 4250 
z
M 2034 4750 
Q 2819 4750 3233 4129 
Q 3647 3509 3647 2328 
Q 3647 1150 3233 529 
Q 2819 -91 2034 -91 
Q 1250 -91 836 529 
Q 422 1150 422 2328 
Q 422 3509 836 4129 
Q 1250 4750 2034 4750 
z
" transform="scale(0.015625)"/>
        <path id="DejaVuSans-31" d="M 794 531 
L 1825 531 
L 1825 4091 
L 703 3866 
L 703 4441 
L 1819 4666 
L 2450 4666 
L 2450 531 
L 3481 531 
L 3481 0 
L 794 0 
L 794 531 
z
" transform="scale(0.015625)"/>
        <path id="DejaVuSans-39" d="M 703 97 
L 703 672 
Q 941 559 1184 500 
Q 1428 441 1663 441 
Q 2288 441 2617 861 
Q 2947 1281 2994 2138 
Q 2813 1869 2534 1725 
Q 2256 1581 1919 1581 
Q 1219 1581 811 2004 
Q 403 2428 403 3163 
Q 403 3881 828 4315 
Q 1253 4750 1959 4750 
Q 2769 4750 3195 4129 
Q 3622 3509 3622 2328 
Q 3622 1225 3098 567 
Q 2575 -91 1691 -91 
Q 1453 -91 1209 -44 
Q 966 3 703 97 
z
M 1959 2075 
Q 2384 2075 2632 2365 
Q 2881 2656 2881 3163 
Q 2881 3666 2632 3958 
Q 2384 4250 1959 4250 
Q 1534 4250 1286 3958 
Q 1038 3666 1038 3163 
Q 1038 2656 1286 2365 
Q 1534 2075 1959 2075 
z
" transform="scale(0.015625)"/>
       </defs>
       <use xlink:href="#DejaVuSans-32"/>
       <use xlink:href="#DejaVuSans-30" x="63.623047"/>
       <use xlink:href="#DejaVuSans-31" x="127.246094"/>
       <use xlink:href="#DejaVuSans-39" x="190.869141"/>
      </g>
     </g>
    </g>
    <g id="xtick_2">
     <g id="line2d_2">
      <g>
       <use xlink:href="#m8531051318" x="259.647335" y="356.477812" style="stroke: #000000; stroke-width: 0.8"/>
      </g>
     </g>
     <g id="text_2">
      <!-- 2020 -->
      <g transform="translate(246.922335 371.07625) scale(0.1 -0.1)">
       <use xlink:href="#DejaVuSans-32"/>
       <use xlink:href="#DejaVuSans-30" x="63.623047"/>
       <use xlink:href="#DejaVuSans-32" x="127.246094"/>
       <use xlink:href="#DejaVuSans-30" x="190.869141"/>
      </g>
     </g>
    </g>
    <g id="xtick_3">
     <g id="line2d_3">
      <g>
       <use xlink:href="#m8531051318" x="456.114867" y="356.477812" style="stroke: #000000; stroke-width: 0.8"/>
      </g>
     </g>
     <g id="text_3">
      <!-- 2021 -->
      <g transform="translate(443.389867 371.07625) scale(0.1 -0.1)">
       <use xlink:href="#DejaVuSans-32"/>
       <use xlink:href="#DejaVuSans-30" x="63.623047"/>
       <use xlink:href="#DejaVuSans-32" x="127.246094"/>
       <use xlink:href="#DejaVuSans-31" x="190.869141"/>
      </g>
     </g>
    </g>
    <g id="xtick_4">
     <g id="line2d_4">
      <g>
       <use xlink:href="#m8531051318" x="652.045603" y="356.477812" style="stroke: #000000; stroke-width: 0.8"/>
      </g>
     </g>
     <g id="text_4">
      <!-- 2022 -->
      <g transform="translate(639.320603 371.07625) scale(0.1 -0.1)">
       <use xlink:href="#DejaVuSans-32"/>
       <use xlink:href="#DejaVuSans-30" x="63.623047"/>
       <use xlink:href="#DejaVuSans-32" x="127.246094"/>
       <use xlink:href="#DejaVuSans-32" x="190.869141"/>
      </g>
     </g>
    </g>
    <g id="xtick_5">
     <g id="line2d_5">
      <g>
       <use xlink:href="#m8531051318" x="847.976339" y="356.477812" style="stroke: #000000; stroke-width: 0.8"/>
      </g>
     </g>
     <g id="text_5">
      <!-- 2023 -->
      <g transform="translate(835.251339 371.07625) scale(0.1 -0.1)">
       <defs>
        <path id="DejaVuSans-33" d="M 2597 2516 
Q 3050 2419 3304 2112 
Q 3559 1806 3559 1356 
Q 3559 666 3084 287 
Q 2609 -91 1734 -91 
Q 1441 -91 1130 -33 
Q 819 25 488 141 
L 488 750 
Q 750 597 1062 519 
Q 1375 441 1716 441 
Q 2309 441 2620 675 
Q 2931 909 2931 1356 
Q 2931 1769 2642 2001 
Q 2353 2234 1838 2234 
L 1294 2234 
L 1294 2753 
L 1863 2753 
Q 2328 2753 2575 2939 
Q 2822 3125 2822 3475 
Q 2822 3834 2567 4026 
Q 2313 4219 1838 4219 
Q 1578 4219 1281 4162 
Q 984 4106 628 3988 
L 628 4550 
Q 988 4650 1302 4700 
Q 1616 4750 1894 4750 
Q 2613 4750 3031 4423 
Q 3450 4097 3450 3541 
Q 3450 3153 3228 2886 
Q 3006 2619 2597 2516 
z
" transform="scale(0.015625)"/>
       </defs>
       <use xlink:href="#DejaVuSans-32"/>
       <use xlink:href="#DejaVuSans-30" x="63.623047"/>
       <use xlink:href="#DejaVuSans-32" x="127.246094"/>
       <use xlink:href="#DejaVuSans-33" x="190.869141"/>
      </g>
     </g>
    </g>
    <g id="xtick_6">
     <g id="line2d_6">
      <g>
       <use xlink:href="#m8531051318" x="1043.907075" y="356.477812" style="stroke: #000000; stroke-width: 0.8"/>
      </g>
     </g>
     <g id="text_6">
      <!-- 2024 -->
      <g transform="translate(1031.182075 371.07625) scale(0.1 -0.1)">
       <defs>
        <path id="DejaVuSans-34" d="M 2419 4116 
L 825 1625 
L 2419 1625 
L 2419 4116 
z
M 2253 4666 
L 3047 4666 
L 3047 1625 
L 3713 1625 
L 3713 1100 
L 3047 1100 
L 3047 0 
L 2419 0 
L 2419 1100 
L 313 1100 
L 313 1709 
L 2253 4666 
z
" transform="scale(0.015625)"/>
       </defs>
       <use xlink:href="#DejaVuSans-32"/>
       <use xlink:href="#DejaVuSans-30" x="63.623047"/>
       <use xlink:href="#DejaVuSans-32" x="127.246094"/>
       <use xlink:href="#DejaVuSans-34" x="190.869141"/>
      </g>
     </g>
    </g>
    <g id="text_7">
     <!-- Date -->
     <g transform="translate(605.739844 384.754375) scale(0.1 -0.1)">
      <defs>
       <path id="DejaVuSans-44" d="M 1259 4147 
L 1259 519 
L 2022 519 
Q 2988 519 3436 956 
Q 3884 1394 3884 2338 
Q 3884 3275 3436 3711 
Q 2988 4147 2022 4147 
L 1259 4147 
z
M 628 4666 
L 1925 4666 
Q 3281 4666 3915 4102 
Q 4550 3538 4550 2338 
Q 4550 1131 3912 565 
Q 3275 0 1925 0 
L 628 0 
L 628 4666 
z
" transform="scale(0.015625)"/>
       <path id="DejaVuSans-61" d="M 2194 1759 
Q 1497 1759 1228 1600 
Q 959 1441 959 1056 
Q 959 750 1161 570 
Q 1363 391 1709 391 
Q 2188 391 2477 730 
Q 2766 1069 2766 1631 
L 2766 1759 
L 2194 1759 
z
M 3341 1997 
L 3341 0 
L 2766 0 
L 2766 531 
Q 2569 213 2275 61 
Q 1981 -91 1556 -91 
Q 1019 -91 701 211 
Q 384 513 384 1019 
Q 384 1609 779 1909 
Q 1175 2209 1959 2209 
L 2766 2209 
L 2766 2266 
Q 2766 2663 2505 2880 
Q 2244 3097 1772 3097 
Q 1472 3097 1187 3025 
Q 903 2953 641 2809 
L 641 3341 
Q 956 3463 1253 3523 
Q 1550 3584 1831 3584 
Q 2591 3584 2966 3190 
Q 3341 2797 3341 1997 
z
" transform="scale(0.015625)"/>
       <path id="DejaVuSans-74" d="M 1172 4494 
L 1172 3500 
L 2356 3500 
L 2356 3053 
L 1172 3053 
L 1172 1153 
Q 1172 725 1289 603 
Q 1406 481 1766 481 
L 2356 481 
L 2356 0 
L 1766 0 
Q 1100 0 847 248 
Q 594 497 594 1153 
L 594 3053 
L 172 3053 
L 172 3500 
L 594 3500 
L 594 4494 
L 1172 4494 
z
" transform="scale(0.015625)"/>
       <path id="DejaVuSans-65" d="M 3597 1894 
L 3597 1613 
L 953 1613 
Q 991 1019 1311 708 
Q 1631 397 2203 397 
Q 2534 397 2845 478 
Q 3156 559 3463 722 
L 3463 178 
Q 3153 47 2828 -22 
Q 2503 -91 2169 -91 
Q 1331 -91 842 396 
Q 353 884 353 1716 
Q 353 2575 817 3079 
Q 1281 3584 2069 3584 
Q 2775 3584 3186 3129 
Q 3597 2675 3597 1894 
z
M 3022 2063 
Q 3016 2534 2758 2815 
Q 2500 3097 2075 3097 
Q 1594 3097 1305 2825 
Q 1016 2553 972 2059 
L 3022 2063 
z
" transform="scale(0.015625)"/>
      </defs>
      <use xlink:href="#DejaVuSans-44"/>
      <use xlink:href="#DejaVuSans-61" x="77.001953"/>
      <use xlink:href="#DejaVuSans-74" x="138.28125"/>
      <use xlink:href="#DejaVuSans-65" x="177.490234"/>
     </g>
    </g>
   </g>
   <g id="matplotlib.axis_2">
    <g id="ytick_1">
     <g id="line2d_7">
      <defs>
       <path id="m9311b21ff9" d="M 0 0 
L -3.5 0 
" style="stroke: #000000; stroke-width: 0.8"/>
      </defs>
      <g>
       <use xlink:href="#m9311b21ff9" x="59.690625" y="341.357812" style="stroke: #000000; stroke-width: 0.8"/>
      </g>
     </g>
     <g id="text_8">
      <!-- 0 -->
      <g transform="translate(46.328125 345.157031) scale(0.1 -0.1)">
       <use xlink:href="#DejaVuSans-30"/>
      </g>
     </g>
    </g>
    <g id="ytick_2">
     <g id="line2d_8">
      <g>
       <use xlink:href="#m9311b21ff9" x="59.690625" y="275.036205" style="stroke: #000000; stroke-width: 0.8"/>
      </g>
     </g>
     <g id="text_9">
      <!-- 5000 -->
      <g transform="translate(27.240625 278.835424) scale(0.1 -0.1)">
       <defs>
        <path id="DejaVuSans-35" d="M 691 4666 
L 3169 4666 
L 3169 4134 
L 1269 4134 
L 1269 2991 
Q 1406 3038 1543 3061 
Q 1681 3084 1819 3084 
Q 2600 3084 3056 2656 
Q 3513 2228 3513 1497 
Q 3513 744 3044 326 
Q 2575 -91 1722 -91 
Q 1428 -91 1123 -41 
Q 819 9 494 109 
L 494 744 
Q 775 591 1075 516 
Q 1375 441 1709 441 
Q 2250 441 2565 725 
Q 2881 1009 2881 1497 
Q 2881 1984 2565 2268 
Q 2250 2553 1709 2553 
Q 1456 2553 1204 2497 
Q 953 2441 691 2322 
L 691 4666 
z
" transform="scale(0.015625)"/>
       </defs>
       <use xlink:href="#DejaVuSans-35"/>
       <use xlink:href="#DejaVuSans-30" x="63.623047"/>
       <use xlink:href="#DejaVuSans-30" x="127.246094"/>
       <use xlink:href="#DejaVuSans-30" x="190.869141"/>
      </g>
     </g>
    </g>
    <g id="ytick_3">
     <g id="line2d_9">
      <g>
       <use xlink:href="#m9311b21ff9" x="59.690625" y="208.714598" style="stroke: #000000; stroke-width: 0.8"/>
      </g>
     </g>
     <g id="text_10">
      <!-- 10000 -->
      <g transform="translate(20.878125 212.513817) scale(0.1 -0.1)">
       <use xlink:href="#DejaVuSans-31"/>
       <use xlink:href="#DejaVuSans-30" x="63.623047"/>
       <use xlink:href="#DejaVuSans-30" x="127.246094"/>
       <use xlink:href="#DejaVuSans-30" x="190.869141"/>
       <use xlink:href="#DejaVuSans-30" x="254.492188"/>
      </g>
     </g>
    </g>
    <g id="ytick_4">
     <g id="line2d_10">
      <g>
       <use xlink:href="#m9311b21ff9" x="59.690625" y="142.392991" style="stroke: #000000; stroke-width: 0.8"/>
      </g>
     </g>
     <g id="text_11">
      <!-- 15000 -->
      <g transform="translate(20.878125 146.19221) scale(0.1 -0.1)">
       <use xlink:href="#DejaVuSans-31"/>
       <use xlink:href="#DejaVuSans-35" x="63.623047"/>
       <use xlink:href="#DejaVuSans-30" x="127.246094"/>
       <use xlink:href="#DejaVuSans-30" x="190.869141"/>
       <use xlink:href="#DejaVuSans-30" x="254.492188"/>
      </g>
     </g>
    </g>
    <g id="ytick_5">
     <g id="line2d_11">
      <g>
       <use xlink:href="#m9311b21ff9" x="59.690625" y="76.071384" style="stroke: #000000; stroke-width: 0.8"/>
      </g>
     </g>
     <g id="text_12">
      <!-- 20000 -->
      <g transform="translate(20.878125 79.870603) scale(0.1 -0.1)">
       <use xlink:href="#DejaVuSans-32"/>
       <use xlink:href="#DejaVuSans-30" x="63.623047"/>
       <use xlink:href="#DejaVuSans-30" x="127.246094"/>
       <use xlink:href="#DejaVuSans-30" x="190.869141"/>
       <use xlink:href="#DejaVuSans-30" x="254.492188"/>
      </g>
     </g>
    </g>
    <g id="text_13">
     <!-- Ticket Redemptions -->
     <g transform="translate(14.798438 239.336719) rotate(-90) scale(0.1 -0.1)">
      <defs>
       <path id="DejaVuSans-54" d="M -19 4666 
L 3928 4666 
L 3928 4134 
L 2272 4134 
L 2272 0 
L 1638 0 
L 1638 4134 
L -19 4134 
L -19 4666 
z
" transform="scale(0.015625)"/>
       <path id="DejaVuSans-69" d="M 603 3500 
L 1178 3500 
L 1178 0 
L 603 0 
L 603 3500 
z
M 603 4863 
L 1178 4863 
L 1178 4134 
L 603 4134 
L 603 4863 
z
" transform="scale(0.015625)"/>
       <path id="DejaVuSans-63" d="M 3122 3366 
L 3122 2828 
Q 2878 2963 2633 3030 
Q 2388 3097 2138 3097 
Q 1578 3097 1268 2742 
Q 959 2388 959 1747 
Q 959 1106 1268 751 
Q 1578 397 2138 397 
Q 2388 397 2633 464 
Q 2878 531 3122 666 
L 3122 134 
Q 2881 22 2623 -34 
Q 2366 -91 2075 -91 
Q 1284 -91 818 406 
Q 353 903 353 1747 
Q 353 2603 823 3093 
Q 1294 3584 2113 3584 
Q 2378 3584 2631 3529 
Q 2884 3475 3122 3366 
z
" transform="scale(0.015625)"/>
       <path id="DejaVuSans-6b" d="M 581 4863 
L 1159 4863 
L 1159 1991 
L 2875 3500 
L 3609 3500 
L 1753 1863 
L 3688 0 
L 2938 0 
L 1159 1709 
L 1159 0 
L 581 0 
L 581 4863 
z
" transform="scale(0.015625)"/>
       <path id="DejaVuSans-20" transform="scale(0.015625)"/>
       <path id="DejaVuSans-52" d="M 2841 2188 
Q 3044 2119 3236 1894 
Q 3428 1669 3622 1275 
L 4263 0 
L 3584 0 
L 2988 1197 
Q 2756 1666 2539 1819 
Q 2322 1972 1947 1972 
L 1259 1972 
L 1259 0 
L 628 0 
L 628 4666 
L 2053 4666 
Q 2853 4666 3247 4331 
Q 3641 3997 3641 3322 
Q 3641 2881 3436 2590 
Q 3231 2300 2841 2188 
z
M 1259 4147 
L 1259 2491 
L 2053 2491 
Q 2509 2491 2742 2702 
Q 2975 2913 2975 3322 
Q 2975 3731 2742 3939 
Q 2509 4147 2053 4147 
L 1259 4147 
z
" transform="scale(0.015625)"/>
       <path id="DejaVuSans-64" d="M 2906 2969 
L 2906 4863 
L 3481 4863 
L 3481 0 
L 2906 0 
L 2906 525 
Q 2725 213 2448 61 
Q 2172 -91 1784 -91 
Q 1150 -91 751 415 
Q 353 922 353 1747 
Q 353 2572 751 3078 
Q 1150 3584 1784 3584 
Q 2172 3584 2448 3432 
Q 2725 3281 2906 2969 
z
M 947 1747 
Q 947 1113 1208 752 
Q 1469 391 1925 391 
Q 2381 391 2643 752 
Q 2906 1113 2906 1747 
Q 2906 2381 2643 2742 
Q 2381 3103 1925 3103 
Q 1469 3103 1208 2742 
Q 947 2381 947 1747 
z
" transform="scale(0.015625)"/>
       <path id="DejaVuSans-6d" d="M 3328 2828 
Q 3544 3216 3844 3400 
Q 4144 3584 4550 3584 
Q 5097 3584 5394 3201 
Q 5691 2819 5691 2113 
L 5691 0 
L 5113 0 
L 5113 2094 
Q 5113 2597 4934 2840 
Q 4756 3084 4391 3084 
Q 3944 3084 3684 2787 
Q 3425 2491 3425 1978 
L 3425 0 
L 2847 0 
L 2847 2094 
Q 2847 2600 2669 2842 
Q 2491 3084 2119 3084 
Q 1678 3084 1418 2786 
Q 1159 2488 1159 1978 
L 1159 0 
L 581 0 
L 581 3500 
L 1159 3500 
L 1159 2956 
Q 1356 3278 1631 3431 
Q 1906 3584 2284 3584 
Q 2666 3584 2933 3390 
Q 3200 3197 3328 2828 
z
" transform="scale(0.015625)"/>
       <path id="DejaVuSans-70" d="M 1159 525 
L 1159 -1331 
L 581 -1331 
L 581 3500 
L 1159 3500 
L 1159 2969 
Q 1341 3281 1617 3432 
Q 1894 3584 2278 3584 
Q 2916 3584 3314 3078 
Q 3713 2572 3713 1747 
Q 3713 922 3314 415 
Q 2916 -91 2278 -91 
Q 1894 -91 1617 61 
Q 1341 213 1159 525 
z
M 3116 1747 
Q 3116 2381 2855 2742 
Q 2594 3103 2138 3103 
Q 1681 3103 1420 2742 
Q 1159 2381 1159 1747 
Q 1159 1113 1420 752 
Q 1681 391 2138 391 
Q 2594 391 2855 752 
Q 3116 1113 3116 1747 
z
" transform="scale(0.015625)"/>
       <path id="DejaVuSans-6f" d="M 1959 3097 
Q 1497 3097 1228 2736 
Q 959 2375 959 1747 
Q 959 1119 1226 758 
Q 1494 397 1959 397 
Q 2419 397 2687 759 
Q 2956 1122 2956 1747 
Q 2956 2369 2687 2733 
Q 2419 3097 1959 3097 
z
M 1959 3584 
Q 2709 3584 3137 3096 
Q 3566 2609 3566 1747 
Q 3566 888 3137 398 
Q 2709 -91 1959 -91 
Q 1206 -91 779 398 
Q 353 888 353 1747 
Q 353 2609 779 3096 
Q 1206 3584 1959 3584 
z
" transform="scale(0.015625)"/>
       <path id="DejaVuSans-6e" d="M 3513 2113 
L 3513 0 
L 2938 0 
L 2938 2094 
Q 2938 2591 2744 2837 
Q 2550 3084 2163 3084 
Q 1697 3084 1428 2787 
Q 1159 2491 1159 1978 
L 1159 0 
L 581 0 
L 581 3500 
L 1159 3500 
L 1159 2956 
Q 1366 3272 1645 3428 
Q 1925 3584 2291 3584 
Q 2894 3584 3203 3211 
Q 3513 2838 3513 2113 
z
" transform="scale(0.015625)"/>
       <path id="DejaVuSans-73" d="M 2834 3397 
L 2834 2853 
Q 2591 2978 2328 3040 
Q 2066 3103 1784 3103 
Q 1356 3103 1142 2972 
Q 928 2841 928 2578 
Q 928 2378 1081 2264 
Q 1234 2150 1697 2047 
L 1894 2003 
Q 2506 1872 2764 1633 
Q 3022 1394 3022 966 
Q 3022 478 2636 193 
Q 2250 -91 1575 -91 
Q 1294 -91 989 -36 
Q 684 19 347 128 
L 347 722 
Q 666 556 975 473 
Q 1284 391 1588 391 
Q 1994 391 2212 530 
Q 2431 669 2431 922 
Q 2431 1156 2273 1281 
Q 2116 1406 1581 1522 
L 1381 1569 
Q 847 1681 609 1914 
Q 372 2147 372 2553 
Q 372 3047 722 3315 
Q 1072 3584 1716 3584 
Q 2034 3584 2315 3537 
Q 2597 3491 2834 3397 
z
" transform="scale(0.015625)"/>
      </defs>
      <use xlink:href="#DejaVuSans-54"/>
      <use xlink:href="#DejaVuSans-69" x="57.958984"/>
      <use xlink:href="#DejaVuSans-63" x="85.742188"/>
      <use xlink:href="#DejaVuSans-6b" x="140.722656"/>
      <use xlink:href="#DejaVuSans-65" x="195.007812"/>
      <use xlink:href="#DejaVuSans-74" x="256.53125"/>
      <use xlink:href="#DejaVuSans-20" x="295.740234"/>
      <use xlink:href="#DejaVuSans-52" x="327.527344"/>
      <use xlink:href="#DejaVuSans-65" x="392.509766"/>
      <use xlink:href="#DejaVuSans-64" x="454.033203"/>
      <use xlink:href="#DejaVuSans-65" x="517.509766"/>
      <use xlink:href="#DejaVuSans-6d" x="579.033203"/>
      <use xlink:href="#DejaVuSans-70" x="676.445312"/>
      <use xlink:href="#DejaVuSans-74" x="739.921875"/>
      <use xlink:href="#DejaVuSans-69" x="779.130859"/>
      <use xlink:href="#DejaVuSans-6f" x="806.914062"/>
      <use xlink:href="#DejaVuSans-6e" x="868.095703"/>
      <use xlink:href="#DejaVuSans-73" x="931.474609"/>
     </g>
    </g>
   </g>
   <g id="line2d_12">
    <path d="M 110.417898 323.994816 
L 110.954694 337.046908 
L 111.491491 335.999027 
L 112.028287 329.313809 
L 112.565084 329.366866 
L 113.10188 328.265927 
L 113.638677 327.775147 
L 114.175473 331.290193 
L 114.71227 318.596237 
L 115.249067 327.23131 
L 115.785863 323.557093 
L 116.32266 327.615975 
L 116.859456 326.024257 
L 117.396253 330.706562 
L 117.933049 327.164989 
L 118.469846 301.14039 
L 119.006642 337.988675 
L 119.543439 325.440627 
L 120.080235 326.475244 
L 120.617032 314.895491 
L 121.153828 321.103194 
L 121.690625 334.088964 
L 122.227422 311.831433 
L 122.764218 262.6208 
L 123.301015 299.097684 
L 123.837811 327.271103 
L 124.374608 315.452593 
L 124.911404 312.163041 
L 125.448201 329.618888 
L 125.984997 320.400185 
L 126.521794 308.289859 
L 127.05859 327.72209 
L 127.595387 319.03396 
L 128.132183 328.265927 
L 128.66898 323.238749 
L 129.742573 314.842434 
L 130.27937 269.743741 
L 130.816166 316.301509 
L 131.352963 322.628591 
L 131.889759 318.755409 
L 132.426556 329.539302 
L 132.963352 317.734056 
L 133.500149 289.547373 
L 134.036945 329.977025 
L 134.573742 332.125845 
L 135.110538 324.949847 
L 135.647335 315.983166 
L 136.184131 314.82917 
L 136.720928 300.530231 
L 137.257725 273.431222 
L 137.794521 167.92681 
L 138.331318 266.228696 
L 138.868114 300.530231 
L 139.404911 321.18278 
L 139.941707 316.407624 
L 140.478504 294.733723 
L 141.0153 324.167252 
L 141.552097 224.141004 
L 142.088893 293.12874 
L 142.62569 328.093491 
L 143.162486 320.174691 
L 143.699283 314.802641 
L 144.23608 295.27756 
L 144.772876 296.630521 
L 145.309673 279.320581 
L 145.846469 306.790991 
L 146.383266 319.087017 
L 146.920062 328.716914 
L 147.456859 289.839188 
L 147.993655 268.748917 
L 148.530452 192.227047 
L 149.067248 235.283034 
L 149.604045 331.144285 
L 150.140841 282.437697 
L 150.677638 281.389815 
L 151.214435 330.109668 
L 152.288028 234.526968 
L 152.824824 187.597798 
L 153.361621 304.681964 
L 153.898417 274.691333 
L 154.435214 277.145232 
L 154.97201 316.195395 
L 156.045603 175.301772 
L 156.5824 208.542162 
L 157.119196 295.224503 
L 157.655993 272.966971 
L 158.19279 271.308931 
L 158.729586 255.550917 
L 159.266383 276.866682 
L 159.803179 151.240293 
L 160.339976 63.801887 
L 160.876772 110.134161 
L 161.413569 289.32188 
L 161.950365 232.311826 
L 162.487162 224.578727 
L 163.023958 231.118037 
L 163.560755 192.890263 
L 164.097551 134.381341 
L 164.634348 239.912282 
L 165.171144 245.960813 
L 165.707941 237.060453 
L 166.244738 293.89807 
L 166.781534 217.243557 
L 167.318331 97.678963 
L 167.855127 66.26905 
L 168.391924 228.756988 
L 168.92872 259.835293 
L 169.465517 311.513089 
L 170.002313 231.714932 
L 170.53911 268.324459 
L 171.612703 149.515932 
L 172.149499 248.759585 
L 172.686296 216.39464 
L 173.223093 208.024853 
L 173.759889 222.283999 
L 174.296686 205.212817 
L 174.833482 95.264857 
L 175.370279 173.855961 
L 176.443872 288.92395 
L 176.980668 194.243224 
L 177.517465 195.291105 
L 178.054261 201.910001 
L 178.591058 114.869524 
L 179.127854 56.347338 
L 179.664651 87.903159 
L 180.201448 300.318002 
L 180.738244 231.502702 
L 181.275041 262.408571 
L 182.348634 100.636907 
L 182.88543 127.65633 
L 183.422227 254.542829 
L 183.959023 217.813923 
L 184.49582 204.562866 
L 185.032616 220.546373 
L 185.569413 206.870858 
L 186.106209 247.817818 
L 186.643006 184.241925 
L 187.179802 214.325406 
L 187.716599 192.107668 
L 188.253396 247.990254 
L 188.790192 191.616888 
L 189.326989 203.713949 
L 189.863785 112.495211 
L 190.400582 113.158427 
L 191.474175 318.198307 
L 192.010971 189.255839 
L 192.547768 206.976972 
L 193.084564 198.355163 
L 193.621361 98.474823 
L 194.158157 225.918423 
L 194.694954 173.086631 
L 195.231751 302.572937 
L 195.768547 309.656084 
L 196.305344 296.829485 
L 196.84214 310.239714 
L 197.378937 239.673524 
L 197.915733 230.932337 
L 198.45253 304.655435 
L 198.989326 307.295035 
L 199.526123 285.859892 
L 200.062919 310.584587 
L 200.599716 312.216098 
L 201.136512 225.679665 
L 201.673309 312.852786 
L 202.210106 312.415063 
L 202.746902 295.503053 
L 203.283699 296.657049 
L 203.820495 293.592991 
L 204.357292 284.307966 
L 204.894088 177.68935 
L 205.430885 211.141969 
L 205.967681 310.863138 
L 206.504478 303.076981 
L 207.041274 303.395325 
L 207.578071 310.929459 
L 208.114867 294.030714 
L 208.651664 307.454207 
L 209.18846 270.062085 
L 209.725257 315.691351 
L 210.262054 305.756374 
L 210.79885 328.39857 
L 211.335647 322.999992 
L 211.872443 305.34518 
L 212.40924 301.259769 
L 212.946036 316.407624 
L 213.482833 316.208659 
L 214.019629 310.438679 
L 214.556426 309.351005 
L 215.093222 311.141688 
L 215.630019 302.665787 
L 216.166815 306.432854 
L 216.703612 278.418607 
L 217.777205 311.592675 
L 218.314002 329.645417 
L 218.850798 324.711089 
L 219.924391 302.002571 
L 220.461188 296.9356 
L 220.997984 319.445153 
L 221.534781 329.817853 
L 222.071577 319.71044 
L 222.608374 318.72888 
L 223.14517 322.164339 
L 223.681967 313.383359 
L 224.218764 333.00129 
L 224.75556 318.065664 
L 225.292357 323.596886 
L 225.829153 331.754444 
L 226.36595 330.693298 
L 226.902746 327.164989 
L 227.439543 331.157549 
L 227.976339 324.551917 
L 228.513136 328.517949 
L 229.049932 326.806852 
L 230.123525 330.507598 
L 230.660322 326.1569 
L 231.197119 330.096404 
L 231.733915 329.804589 
L 232.270712 333.478806 
L 232.807508 331.184078 
L 233.344305 331.369778 
L 233.881101 330.401483 
L 234.417898 330.626976 
L 234.954694 334.367515 
L 235.491491 331.940144 
L 236.028287 332.006466 
L 236.565084 330.706562 
L 237.10188 330.547391 
L 237.638677 331.011642 
L 238.175473 331.820765 
L 238.71227 329.075051 
L 239.249067 332.046259 
L 239.785863 333.823678 
L 240.32266 327.496597 
L 240.859456 331.144285 
L 241.396253 328.279192 
L 241.933049 329.008729 
L 242.469846 332.338074 
L 243.006642 338.917177 
L 243.543439 333.041083 
L 244.080235 328.6108 
L 244.617032 331.688122 
L 245.153828 330.918792 
L 245.690625 333.545127 
L 246.227422 332.550303 
L 246.764218 333.67777 
L 247.301015 332.404396 
L 247.837811 331.993202 
L 248.374608 329.764796 
L 248.911404 330.003553 
L 249.448201 329.035258 
L 249.984997 337.418309 
L 250.521794 334.65933 
L 251.05859 330.587183 
L 251.595387 330.772884 
L 252.132183 331.303457 
L 252.66898 331.290193 
L 253.205777 329.38013 
L 253.742573 331.184078 
L 254.27937 331.515686 
L 254.816166 329.831117 
L 255.352963 333.730828 
L 255.889759 333.823678 
L 256.426556 334.937881 
L 256.963352 328.995465 
L 257.500149 324.339688 
L 258.036945 337.046908 
L 258.573742 332.11258 
L 259.110538 334.380779 
L 259.647335 332.842118 
L 260.184131 330.45454 
L 260.720928 331.993202 
L 261.257725 333.876735 
L 261.794521 334.420572 
L 262.331318 331.555479 
L 262.868114 331.674858 
L 263.404911 332.364603 
L 263.941707 331.555479 
L 264.478504 331.290193 
L 265.0153 337.564217 
L 265.552097 335.853119 
L 266.088893 331.489157 
L 266.62569 332.046259 
L 267.162486 331.369778 
L 267.699283 331.489157 
L 268.23608 334.685859 
L 268.772876 337.139758 
L 269.309673 336.383692 
L 269.846469 334.778709 
L 270.383266 331.979937 
L 270.920062 331.064699 
L 271.456859 331.064699 
L 271.993655 331.422836 
L 272.530452 336.503071 
L 273.067248 335.561304 
L 273.604045 331.674858 
L 274.140841 331.184078 
L 274.677638 330.136197 
L 275.214435 331.104492 
L 275.751231 330.680034 
L 276.824824 336.144934 
L 277.361621 329.698474 
L 277.898417 330.786148 
L 278.435214 330.401483 
L 278.97201 335.402132 
L 279.508807 335.587833 
L 280.045603 334.738916 
L 280.5824 336.13167 
L 281.119196 330.680034 
L 281.655993 334.685859 
L 282.19279 334.274665 
L 282.729586 331.940144 
L 283.266383 335.415396 
L 283.803179 335.017467 
L 284.876772 330.282104 
L 285.413569 331.383043 
L 285.950365 330.441276 
L 286.487162 332.563567 
L 287.023958 332.736004 
L 287.560755 330.746355 
L 288.097551 327.178253 
L 289.171144 331.184078 
L 290.244738 332.470717 
L 290.781534 331.542215 
L 291.318331 334.115493 
L 291.855127 334.16855 
L 292.391924 332.338074 
L 292.92872 331.807501 
L 293.465517 329.035258 
L 294.002313 328.902615 
L 294.53911 331.727915 
L 295.075906 330.016818 
L 295.612703 320.811379 
L 296.686296 331.648329 
L 297.759889 330.600448 
L 298.296686 331.701386 
L 298.833482 334.314458 
L 299.370279 331.993202 
L 299.907075 337.365252 
L 300.980668 338.293754 
L 301.517465 338.413133 
L 302.054261 338.784534 
L 302.591058 338.704948 
L 303.127854 340.057909 
L 304.201448 338.612098 
L 304.738244 339.275314 
L 305.811837 339.129406 
L 306.88543 340.349724 
L 307.422227 339.925266 
L 307.959023 339.341636 
L 308.49582 339.368164 
L 309.032616 339.248785 
L 309.569413 339.381429 
L 310.106209 339.805887 
L 310.643006 340.416046 
L 311.179802 339.686508 
L 312.790192 339.155935 
L 313.326989 340.734389 
L 313.863785 339.421222 
L 314.400582 340.933354 
L 314.937378 340.535425 
L 315.474175 339.461015 
L 316.547768 339.049821 
L 317.621361 339.553865 
L 318.158157 340.508896 
L 318.694954 339.288578 
L 319.231751 339.593658 
L 319.768547 338.824327 
L 320.84214 339.235521 
L 321.378937 339.580393 
L 321.915733 340.641539 
L 322.45253 339.328371 
L 322.989326 339.155935 
L 324.062919 339.3549 
L 324.599716 338.704948 
L 325.136512 339.407957 
L 325.673309 339.620186 
L 326.210106 339.527336 
L 326.746902 338.638627 
L 327.820495 339.049821 
L 328.357292 338.293754 
L 328.894088 339.75283 
L 329.430885 339.832416 
L 329.967681 339.487543 
L 331.041274 338.227433 
L 331.578071 338.903913 
L 332.114867 339.102878 
L 332.651664 338.28049 
L 333.18846 340.071173 
L 333.725257 340.455839 
L 334.262054 338.638627 
L 334.79885 337.975411 
L 335.335647 337.710124 
L 335.872443 337.895825 
L 336.946036 339.965059 
L 337.482833 338.519248 
L 338.019629 338.360076 
L 338.556426 338.704948 
L 339.093222 338.108054 
L 339.630019 338.598834 
L 340.166815 338.532512 
L 340.703612 339.235521 
L 341.240409 338.413133 
L 342.314002 338.18764 
L 342.850798 337.272401 
L 343.387595 337.710124 
L 343.924391 338.333547 
L 344.461188 338.718213 
L 344.997984 338.37334 
L 345.534781 337.69686 
L 346.071577 338.227433 
L 346.608374 337.550952 
L 347.14517 337.20608 
L 348.218764 338.585569 
L 348.75556 337.802974 
L 349.829153 337.126494 
L 350.902746 336.755093 
L 351.439543 336.980586 
L 351.976339 337.78971 
L 352.513136 338.108054 
L 353.049932 337.856032 
L 353.586729 336.781622 
L 354.123525 336.821415 
L 354.660322 335.601097 
L 355.197119 318.105457 
L 355.733915 285.753777 
L 356.270712 314.723055 
L 356.807508 315.850522 
L 357.344305 265.790973 
L 357.881101 305.889017 
L 358.417898 304.880929 
L 358.954694 272.038469 
L 359.491491 287.968919 
L 360.028287 315.4128 
L 360.565084 317.707527 
L 361.10188 317.322862 
L 362.175473 310.146864 
L 362.71227 327.204782 
L 363.249067 290.343232 
L 363.785863 322.681648 
L 364.32266 312.003869 
L 364.859456 308.263331 
L 365.396253 334.16855 
L 365.933049 298.805869 
L 366.469846 272.370077 
L 367.006642 317.123897 
L 367.543439 308.953075 
L 368.080235 312.18957 
L 368.617032 333.09414 
L 369.690625 298.394675 
L 370.227422 262.793237 
L 370.764218 275.102527 
L 371.301015 328.066962 
L 371.837811 307.043013 
L 372.374608 319.484946 
L 372.911404 307.321564 
L 373.448201 292.14718 
L 373.984997 273.218993 
L 374.521794 325.268191 
L 375.05859 313.728231 
L 375.595387 332.90844 
L 376.132183 303.952426 
L 376.66898 301.830135 
L 377.205777 297.82431 
L 377.742573 269.133582 
L 378.27937 274.25361 
L 378.816166 308.47556 
L 379.352963 325.427362 
L 379.889759 297.625345 
L 380.426556 302.586201 
L 380.963352 290.67484 
L 381.500149 271.985411 
L 382.036945 310.014221 
L 382.573742 323.039785 
L 383.110538 305.676788 
L 383.647335 304.284034 
L 384.184131 299.774165 
L 384.720928 305.186008 
L 385.257725 269.080525 
L 385.794521 268.576481 
L 386.331318 309.24489 
L 386.868114 300.318002 
L 387.941707 319.790026 
L 389.0153 290.09121 
L 389.552097 271.269138 
L 390.088893 303.753461 
L 390.62569 306.737934 
L 391.162486 328.279192 
L 391.699283 300.079244 
L 392.23608 297.346794 
L 392.772876 268.629538 
L 393.309673 270.168199 
L 393.846469 311.990605 
L 394.383266 333.624713 
L 394.920062 327.125196 
L 395.456859 328.995465 
L 395.993655 320.081841 
L 396.530452 298.858927 
L 397.067248 318.357479 
L 397.604045 328.982201 
L 398.140841 330.215782 
L 398.677638 316.155602 
L 399.214435 329.526038 
L 399.751231 326.952759 
L 400.288028 312.720143 
L 400.824824 315.585236 
L 401.361621 330.162725 
L 401.898417 329.128108 
L 402.435214 319.378832 
L 402.97201 329.366866 
L 403.508807 319.988991 
L 404.045603 293.062418 
L 404.5824 303.793254 
L 405.119196 327.549654 
L 405.655993 332.736004 
L 406.19279 334.765445 
L 406.729586 331.489157 
L 407.266383 334.208343 
L 407.803179 324.49886 
L 408.339976 336.662243 
L 408.876772 330.985113 
L 409.413569 330.441276 
L 409.950365 334.022643 
L 410.487162 331.913616 
L 411.023958 328.929143 
L 411.560755 319.630854 
L 412.097551 326.873173 
L 412.634348 331.210607 
L 413.171144 329.38013 
L 413.707941 330.109668 
L 414.244738 335.05726 
L 414.781534 331.608536 
L 415.318331 325.029433 
L 415.855127 334.208343 
L 416.391924 334.725652 
L 416.92872 333.39922 
L 417.465517 334.195079 
L 418.002313 334.407308 
L 418.53911 325.533477 
L 419.075906 330.75962 
L 419.612703 334.248136 
L 420.149499 334.221608 
L 420.686296 334.606273 
L 421.223093 331.356514 
L 421.759889 334.301193 
L 422.296686 333.041083 
L 422.833482 331.4361 
L 423.370279 338.744741 
L 423.907075 335.05726 
L 424.443872 334.500158 
L 424.980668 330.75962 
L 425.517465 332.537039 
L 426.591058 323.212221 
L 427.664651 326.515037 
L 428.201448 323.106106 
L 428.738244 328.690386 
L 429.275041 332.152373 
L 429.811837 332.802325 
L 430.348634 331.913616 
L 430.88543 339.965059 
L 431.422227 335.362339 
L 431.959023 334.526687 
L 433.032616 333.810414 
L 433.569413 332.444188 
L 434.106209 335.654154 
L 434.643006 339.726301 
L 435.179802 335.229696 
L 435.716599 334.831766 
L 436.253396 335.070524 
L 436.790192 334.367515 
L 437.326989 334.181815 
L 437.863785 335.667419 
L 438.400582 335.455189 
L 438.937378 335.813326 
L 439.474175 337.962146 
L 440.010971 334.977674 
L 440.547768 334.301193 
L 441.084564 335.070524 
L 442.158157 338.333547 
L 442.694954 334.818502 
L 443.231751 334.632802 
L 443.768547 335.083788 
L 444.305344 334.128757 
L 444.84214 333.545127 
L 445.378937 339.010028 
L 445.915733 338.108054 
L 446.45253 334.990938 
L 446.989326 334.248136 
L 447.526123 335.282753 
L 448.599716 333.704299 
L 449.136512 337.710124 
L 449.673309 338.890649 
L 450.210106 337.351987 
L 450.746902 336.794886 
L 451.283699 335.508247 
L 451.820495 338.174375 
L 452.357292 339.527336 
L 452.894088 338.333547 
L 453.430885 337.444838 
L 453.967681 338.86412 
L 454.504478 336.582657 
L 455.041274 338.333547 
L 455.578071 336.343899 
L 456.114867 338.625362 
L 456.651664 336.755093 
L 457.18846 339.235521 
L 457.725257 338.37334 
L 458.79885 337.829503 
L 459.335647 337.444838 
L 459.872443 337.564217 
L 460.40924 334.65933 
L 460.946036 337.471366 
L 461.482833 338.015203 
L 462.019629 338.001939 
L 462.556426 337.564217 
L 463.093222 338.37334 
L 463.630019 338.651891 
L 464.166815 337.259137 
L 464.703612 339.195728 
L 465.240409 338.67842 
L 465.777205 338.426397 
L 466.314002 338.346812 
L 466.850798 338.054996 
L 467.387595 338.161111 
L 467.924391 337.139758 
L 468.461188 338.638627 
L 468.997984 338.147847 
L 469.534781 339.023292 
L 470.071577 338.028468 
L 470.608374 338.293754 
L 471.14517 337.975411 
L 471.681967 334.433837 
L 472.218764 338.081525 
L 472.75556 338.28049 
L 473.292357 337.816239 
L 473.829153 336.091877 
L 474.36595 337.338723 
L 474.902746 338.121318 
L 475.439543 335.110317 
L 475.976339 335.428661 
L 476.513136 337.60401 
L 478.123525 336.755093 
L 478.660322 337.099965 
L 479.197119 333.969585 
L 479.733915 329.618888 
L 480.270712 332.338074 
L 480.807508 338.452926 
L 481.344305 334.380779 
L 481.881101 335.959234 
L 482.417898 335.707212 
L 482.954694 336.648978 
L 483.491491 341.357812 
L 484.028287 341.357812 
L 484.565084 340.535425 
L 485.10188 336.755093 
L 486.175473 335.176639 
L 486.71227 332.961497 
L 487.249067 338.386604 
L 487.785863 337.365252 
L 488.32266 336.794886 
L 488.859456 334.765445 
L 489.396253 336.091877 
L 489.933049 336.03882 
L 490.469846 334.75218 
L 491.006642 332.736004 
L 491.543439 336.091877 
L 492.080235 334.274665 
L 492.617032 333.836942 
L 493.153828 335.892912 
L 493.690625 333.664506 
L 494.227422 329.857646 
L 494.764218 336.423485 
L 495.301015 336.556128 
L 495.837811 336.980586 
L 496.374608 335.627626 
L 496.911404 337.060172 
L 497.448201 335.269489 
L 497.984997 317.362655 
L 498.521794 321.978639 
L 499.05859 332.90844 
L 499.595387 334.526687 
L 500.132183 335.747005 
L 500.66898 332.444188 
L 501.205777 336.675507 
L 501.742573 330.706562 
L 502.27937 338.77127 
L 502.816166 335.972498 
L 503.352963 329.512773 
L 503.889759 336.343899 
L 504.426556 336.144934 
L 504.963352 329.923967 
L 505.500149 331.83403 
L 506.036945 319.31251 
L 506.573742 334.181815 
L 507.110538 335.256225 
L 507.647335 333.98285 
L 508.184131 333.319634 
L 508.720928 335.693947 
L 509.257725 318.927845 
L 509.794521 339.421222 
L 510.331318 337.909089 
L 510.868114 335.667419 
L 511.404911 331.714651 
L 511.941707 337.179551 
L 512.478504 335.800062 
L 513.0153 335.932705 
L 513.552097 334.858295 
L 514.088893 336.847943 
L 514.62569 337.378516 
L 515.162486 338.479455 
L 515.699283 337.657067 
L 516.23608 331.131021 
L 516.772876 327.244574 
L 517.309673 334.314458 
L 517.846469 336.383692 
L 518.383266 336.595921 
L 518.920062 337.763181 
L 519.456859 337.537688 
L 519.993655 336.728564 
L 520.530452 329.977025 
L 521.067248 335.54804 
L 521.604045 337.511159 
L 522.140841 337.550952 
L 522.677638 336.211256 
L 523.214435 333.571656 
L 523.751231 336.277577 
L 524.288028 325.75897 
L 524.824824 329.804589 
L 525.361621 335.892912 
L 525.898417 336.078613 
L 526.435214 329.897439 
L 526.97201 327.523125 
L 527.508807 325.75897 
L 528.045603 309.682613 
L 528.5824 306.485911 
L 529.119196 328.902615 
L 529.655993 324.631503 
L 530.19279 324.49886 
L 530.729586 327.32416 
L 531.266383 309.351005 
L 531.803179 309.762199 
L 532.339976 263.562567 
L 532.876772 263.124845 
L 533.413569 321.036872 
L 533.950365 332.563567 
L 534.487162 320.665471 
L 535.023958 337.086701 
L 535.560755 293.831749 
L 536.097551 283.114177 
L 536.634348 317.773849 
L 537.171144 318.874788 
L 537.707941 321.010343 
L 538.244738 333.027819 
L 538.781534 316.699439 
L 539.318331 264.292105 
L 539.855127 256.57227 
L 540.391924 316.274981 
L 540.92872 333.09414 
L 542.002313 312.149777 
L 542.53911 308.873489 
L 543.075906 263.11158 
L 543.612703 273.033293 
L 544.149499 330.162725 
L 544.686296 317.933021 
L 545.223093 314.497562 
L 545.759889 312.560971 
L 546.296686 331.635065 
L 546.833482 252.075665 
L 547.370279 257.567094 
L 547.907075 326.753795 
L 548.443872 322.416361 
L 548.980668 312.28242 
L 549.517465 304.390149 
L 550.054261 318.795202 
L 550.591058 313.75476 
L 551.127854 255.816204 
L 551.664651 310.942723 
L 552.201448 327.708826 
L 552.738244 318.065664 
L 553.275041 263.005466 
L 553.811837 307.865401 
L 554.348634 237.392061 
L 554.88543 244.369094 
L 555.422227 294.322529 
L 555.959023 304.257505 
L 557.032616 331.847294 
L 557.569413 311.154953 
L 558.106209 235.667699 
L 558.643006 302.201536 
L 559.179802 311.446768 
L 559.716599 317.16369 
L 560.253396 287.823011 
L 560.790192 292.969568 
L 561.863785 305.942074 
L 562.400582 239.050101 
L 562.937378 278.551251 
L 563.474175 298.328354 
L 564.010971 256.903878 
L 564.547768 277.29114 
L 565.084564 251.438978 
L 565.621361 276.176937 
L 566.158157 197.691947 
L 567.231751 318.556444 
L 567.768547 244.820081 
L 568.305344 319.71044 
L 568.84214 229.605904 
L 569.378937 208.900299 
L 569.915733 281.641837 
L 570.45253 151.532108 
L 570.989326 258.654768 
L 571.526123 244.820081 
L 572.062919 236.675788 
L 572.599716 247.48621 
L 573.136512 255.98864 
L 573.673309 190.834293 
L 574.210106 260.949496 
L 574.746902 314.550619 
L 575.820495 271.295667 
L 576.357292 284.069208 
L 576.894088 164.70358 
L 577.430885 169.942987 
L 577.967681 243.86505 
L 578.504478 294.87963 
L 579.041274 288.724985 
L 579.578071 268.231608 
L 580.114867 235.707492 
L 580.651664 169.054277 
L 581.725257 255.855997 
L 582.262054 222.443171 
L 582.79885 287.159795 
L 583.335647 274.532161 
L 583.872443 237.856312 
L 584.40924 183.286894 
L 584.946036 257.089578 
L 585.482833 270.221257 
L 586.019629 253.53474 
L 586.556426 257.381394 
L 587.093222 247.207659 
L 587.630019 233.518879 
L 588.166815 147.658927 
L 588.703612 155.445083 
L 589.240409 196.829766 
L 589.777205 275.102527 
L 590.314002 315.10772 
L 590.850798 325.838556 
L 591.387595 305.690052 
L 591.924391 253.83982 
L 592.461188 310.345829 
L 592.997984 319.020695 
L 593.534781 324.856997 
L 594.071577 323.384657 
L 594.608374 314.815905 
L 595.14517 302.984131 
L 595.681967 248.520827 
L 596.218764 260.127108 
L 596.75556 311.261067 
L 597.292357 324.936583 
L 597.829153 334.022643 
L 598.36595 326.979288 
L 598.902746 318.224836 
L 599.439543 315.054663 
L 599.976339 294.043978 
L 600.513136 324.644767 
L 601.049932 319.909405 
L 601.586729 318.397272 
L 602.660322 313.94046 
L 603.197119 272.078262 
L 603.733915 332.192166 
L 604.270712 331.276928 
L 604.807508 326.541565 
L 605.344305 324.697825 
L 605.881101 324.578446 
L 606.417898 324.856997 
L 606.954694 326.939495 
L 607.491491 289.454523 
L 608.028287 278.378814 
L 608.565084 321.540916 
L 609.10188 315.094456 
L 610.175473 329.300544 
L 610.71227 325.851821 
L 611.249067 317.548356 
L 611.785863 326.24975 
L 612.32266 316.885139 
L 613.396253 332.006466 
L 614.469846 318.317686 
L 615.006642 308.223538 
L 615.543439 334.049171 
L 616.080235 332.921704 
L 616.617032 317.65447 
L 617.153828 325.997728 
L 617.690625 329.751531 
L 618.227422 334.911352 
L 618.764218 318.423801 
L 619.301015 326.926231 
L 619.837811 327.907791 
L 620.374608 330.401483 
L 620.911404 330.388219 
L 621.448201 325.08249 
L 621.984997 316.076016 
L 622.521794 312.096719 
L 623.05859 322.058225 
L 623.595387 329.77806 
L 624.132183 326.568094 
L 624.66898 325.307984 
L 625.205777 323.61015 
L 625.742573 323.291807 
L 626.27937 336.821415 
L 626.816166 331.117756 
L 627.352963 330.428012 
L 627.889759 333.147198 
L 628.426556 332.404396 
L 628.963352 330.560655 
L 629.500149 329.831117 
L 630.036945 334.951145 
L 630.573742 332.629889 
L 631.110538 331.754444 
L 631.647335 330.189254 
L 632.184131 332.868647 
L 632.720928 331.117756 
L 633.257725 330.520862 
L 633.794521 338.121318 
L 634.331318 333.439013 
L 634.868114 333.332898 
L 635.404911 332.762532 
L 635.941707 332.842118 
L 636.478504 331.873823 
L 637.0153 331.92688 
L 637.552097 337.577481 
L 638.088893 333.836942 
L 638.62569 332.669682 
L 639.162486 333.757356 
L 639.699283 333.439013 
L 640.23608 332.629889 
L 640.772876 334.977674 
L 641.309673 332.205431 
L 641.846469 331.595272 
L 642.383266 332.086052 
L 642.920062 334.102229 
L 643.456859 332.90844 
L 643.993655 332.338074 
L 644.530452 337.139758 
L 645.067248 334.035907 
L 645.604045 334.924617 
L 646.140841 334.181815 
L 646.677638 335.64089 
L 647.214435 335.24296 
L 647.751231 336.901 
L 648.288028 335.110317 
L 648.824824 331.767708 
L 649.361621 337.617274 
L 649.898417 332.51051 
L 650.435214 333.717563 
L 650.97201 331.714651 
L 651.508807 331.873823 
L 652.045603 334.685859 
L 652.5824 336.781622 
L 653.119196 334.301193 
L 653.655993 335.05726 
L 654.19279 338.37334 
L 654.729586 336.609185 
L 655.266383 336.463278 
L 655.803179 334.155286 
L 656.339976 337.20608 
L 656.876772 338.386604 
L 657.413569 338.081525 
L 657.950365 336.13167 
L 658.487162 336.330635 
L 659.023958 335.985762 
L 659.560755 336.03882 
L 660.097551 327.191517 
L 660.634348 339.646715 
L 661.171144 337.338723 
L 661.707941 334.181815 
L 662.244738 335.136846 
L 662.781534 334.234872 
L 663.318331 330.573919 
L 663.855127 331.873823 
L 664.391924 335.070524 
L 664.92872 333.863471 
L 666.002313 334.447101 
L 666.53911 332.974761 
L 667.075906 326.196693 
L 667.612703 329.207694 
L 668.149499 335.017467 
L 668.686296 332.258488 
L 669.223093 334.858295 
L 669.759889 335.136846 
L 670.296686 333.823678 
L 670.833482 330.613712 
L 671.370279 328.756707 
L 671.907075 332.921704 
L 672.443872 333.850207 
L 672.980668 332.895175 
L 673.517465 336.542864 
L 674.054261 341.357812 
L 674.591058 341.357812 
L 675.127854 340.203817 
L 676.201448 333.850207 
L 676.738244 332.775797 
L 677.275041 335.468454 
L 677.811837 336.489807 
L 678.348634 335.587833 
L 678.88543 333.107405 
L 679.422227 328.12002 
L 679.959023 334.208343 
L 680.49582 332.311545 
L 681.032616 331.727915 
L 681.569413 333.903264 
L 682.106209 333.00129 
L 682.643006 336.22452 
L 683.716599 332.271752 
L 684.790192 332.165638 
L 685.326989 331.303457 
L 685.863785 332.298281 
L 686.400582 321.779674 
L 686.937378 334.911352 
L 687.474175 331.582008 
L 688.010971 331.157549 
L 688.547768 331.223871 
L 689.084564 334.088964 
L 689.621361 334.765445 
L 690.158157 337.29893 
L 690.694954 332.351338 
L 691.231751 336.635714 
L 691.768547 334.049171 
L 692.305344 320.254277 
L 693.378937 335.123581 
L 693.915733 323.238749 
L 694.45253 328.027169 
L 694.989326 330.428012 
L 695.526123 334.778709 
L 696.062919 330.905527 
L 696.599716 331.648329 
L 697.136512 331.290193 
L 697.673309 337.033644 
L 698.746902 329.671945 
L 699.283699 334.367515 
L 699.820495 329.884174 
L 700.357292 334.791973 
L 700.894088 320.10837 
L 701.430885 333.558391 
L 701.967681 329.274016 
L 702.504478 330.467805 
L 703.041274 332.338074 
L 703.578071 328.88935 
L 704.114867 329.96376 
L 704.651664 329.738267 
L 705.18846 320.731793 
L 705.725257 328.982201 
L 706.262054 313.927196 
L 706.79885 328.730178 
L 707.335647 325.095754 
L 707.872443 316.434153 
L 708.40924 302.493351 
L 708.946036 301.312826 
L 709.482833 331.011642 
L 710.019629 330.414747 
L 710.556426 318.622766 
L 711.093222 329.406659 
L 711.630019 310.677437 
L 712.166815 328.6108 
L 712.703612 284.002887 
L 713.240409 328.88935 
L 713.777205 323.703001 
L 714.314002 327.350689 
L 715.387595 311.194746 
L 715.924391 286.164971 
L 716.461188 332.60336 
L 716.997984 323.238749 
L 717.534781 328.066962 
L 718.071577 316.97799 
L 718.608374 310.279507 
L 719.14517 317.813642 
L 719.681967 276.21673 
L 720.218764 256.890614 
L 720.75556 313.529266 
L 721.292357 316.235188 
L 722.902746 294.720458 
L 723.439543 203.329284 
L 723.976339 248.189219 
L 724.513136 327.337425 
L 725.049932 314.33839 
L 725.586729 313.688438 
L 726.123525 311.181481 
L 726.660322 298.248768 
L 727.197119 270.221257 
L 727.733915 266.016467 
L 728.270712 182.212484 
L 728.807508 308.157216 
L 729.344305 313.675174 
L 729.881101 313.423152 
L 730.417898 322.575533 
L 730.954694 204.841416 
L 731.491491 200.132582 
L 732.028287 285.316054 
L 732.565084 287.504667 
L 733.10188 324.910054 
L 733.638677 305.995132 
L 734.175473 272.966971 
L 734.71227 165.525968 
L 735.249067 215.824274 
L 735.785863 311.035574 
L 736.32266 325.984464 
L 736.859456 286.47005 
L 737.396253 308.555146 
L 737.933049 259.662857 
L 738.469846 236.768638 
L 739.006642 296.219327 
L 739.543439 271.322195 
L 740.080235 278.697158 
L 740.617032 296.35197 
L 741.153828 299.455821 
L 741.690625 253.640855 
L 742.227422 121.037434 
L 742.764218 86.152268 
L 743.301015 289.812659 
L 743.837811 259.21187 
L 744.374608 281.323494 
L 744.911404 253.123546 
L 745.448201 230.919072 
L 745.984997 100.650171 
L 746.521794 254.569357 
L 747.05859 250.457418 
L 747.595387 251.160427 
L 748.132183 301.007747 
L 748.66898 234.221888 
L 749.205777 145.868243 
L 749.742573 77.437609 
L 750.27937 113.264541 
L 751.352963 309.722406 
L 751.889759 233.174007 
L 752.426556 241.198921 
L 752.963352 243.559971 
L 753.500149 115.081753 
L 754.036945 105.783464 
L 754.573742 224.857277 
L 755.110538 262.819765 
L 755.647335 274.346461 
L 756.184131 215.373288 
L 756.720928 209.006413 
L 757.257725 38.957812 
L 757.794521 108.568971 
L 758.331318 296.948864 
L 758.868114 256.850821 
L 759.404911 244.249715 
L 759.941707 217.256821 
L 760.478504 205.597483 
L 761.0153 94.933249 
L 761.552097 282.543811 
L 762.088893 205.995412 
L 762.62569 216.620134 
L 763.162486 220.984096 
L 763.699283 196.047171 
L 764.23608 196.949145 
L 764.772876 108.370007 
L 765.309673 73.683806 
L 766.383266 215.386552 
L 766.920062 219.92295 
L 767.456859 296.325441 
L 768.530452 96.246417 
L 769.604045 300.543495 
L 770.140841 234.394324 
L 770.677638 203.037469 
L 771.214435 198.40822 
L 771.751231 185.661208 
L 772.288028 67.568954 
L 773.898417 215.665103 
L 774.435214 248.74632 
L 775.508807 193.739179 
L 776.045603 104.045838 
L 776.5824 262.34225 
L 777.119196 311.685525 
L 777.655993 231.144566 
L 778.19279 218.875068 
L 778.729586 278.4584 
L 779.266383 253.176604 
L 779.803179 131.317283 
L 780.339976 145.788657 
L 781.413569 310.306036 
L 781.950365 237.498176 
L 782.487162 225.4807 
L 783.023958 193.4341 
L 783.560755 133.585482 
L 784.097551 241.145864 
L 784.634348 228.160093 
L 785.171144 292.982832 
L 785.707941 309.748935 
L 786.244738 294.587815 
L 786.781534 283.976358 
L 787.318331 195.277841 
L 787.855127 240.33674 
L 788.391924 322.999992 
L 788.92872 316.871875 
L 789.465517 295.131652 
L 790.002313 301.219976 
L 790.53911 295.980569 
L 791.075906 204.019028 
L 791.612703 290.887069 
L 792.149499 287.053681 
L 792.686296 292.889982 
L 793.223093 317.521827 
L 793.759889 312.362006 
L 794.296686 305.743109 
L 794.833482 250.430889 
L 795.370279 325.374305 
L 795.907075 324.936583 
L 796.443872 328.013905 
L 798.054261 298.10286 
L 798.591058 286.390464 
L 799.127854 289.0168 
L 799.664651 318.277893 
L 800.201448 316.022959 
L 800.738244 307.560321 
L 801.275041 317.25654 
L 801.811837 322.641855 
L 802.348634 295.410203 
L 803.422227 280.302141 
L 803.959023 304.496263 
L 804.49582 321.315423 
L 805.032616 329.061787 
L 805.569413 314.33839 
L 806.106209 311.433503 
L 806.643006 307.6797 
L 807.179802 327.576183 
L 807.716599 328.88935 
L 808.253396 319.405361 
L 808.790192 327.987376 
L 809.326989 316.818818 
L 809.863785 278.975709 
L 810.400582 282.450961 
L 810.937378 310.425415 
L 811.474175 317.535091 
L 812.010971 328.332249 
L 812.547768 318.463594 
L 813.084564 319.471682 
L 813.621361 299.548671 
L 814.158157 315.691351 
L 814.694954 326.010993 
L 815.768547 322.164339 
L 816.305344 329.220958 
L 816.84214 319.89614 
L 817.378937 295.927512 
L 817.915733 295.927512 
L 818.45253 323.862173 
L 818.989326 325.825292 
L 819.526123 326.223222 
L 820.062919 315.90358 
L 820.599716 332.231959 
L 821.136512 318.569708 
L 821.673309 327.867998 
L 822.210106 328.544478 
L 822.746902 333.704299 
L 823.283699 333.757356 
L 823.820495 331.329985 
L 824.357292 332.974761 
L 824.894088 330.693298 
L 825.430885 334.712387 
L 825.967681 331.303457 
L 826.504478 329.791324 
L 827.041274 327.669033 
L 827.578071 331.064699 
L 828.114867 326.806852 
L 828.651664 315.956637 
L 829.18846 336.834679 
L 829.725257 330.693298 
L 830.262054 331.117756 
L 830.79885 333.545127 
L 831.335647 332.430924 
L 831.872443 332.51051 
L 832.40924 333.133933 
L 832.946036 329.671945 
L 833.482833 334.035907 
L 834.019629 332.298281 
L 834.556426 331.131021 
L 835.093222 328.159813 
L 835.630019 332.178902 
L 836.166815 333.505334 
L 836.703612 336.927529 
L 837.240409 332.842118 
L 837.777205 332.60336 
L 838.314002 334.553216 
L 838.850798 335.82659 
L 839.387595 332.231959 
L 839.924391 332.430924 
L 840.461188 334.394044 
L 840.997984 330.666769 
L 841.534781 331.449364 
L 842.071577 328.597535 
L 842.608374 332.457453 
L 843.14517 340.309931 
L 843.681967 341.357812 
L 844.218764 334.685859 
L 844.75556 334.340986 
L 845.292357 331.170814 
L 845.829153 331.03817 
L 846.36595 323.955023 
L 846.902746 330.17599 
L 847.439543 333.943057 
L 847.976339 331.661594 
L 848.513136 326.037521 
L 849.049932 335.773533 
L 849.586729 335.906176 
L 850.123525 332.90844 
L 850.660322 332.457453 
L 851.197119 328.345513 
L 851.733915 334.195079 
L 852.270712 331.489157 
L 852.807508 332.576832 
L 853.344305 333.359427 
L 853.881101 333.876735 
L 854.417898 336.052084 
L 854.954694 330.149461 
L 855.491491 329.68521 
L 856.028287 331.184078 
L 856.565084 336.80815 
L 857.10188 331.077963 
L 857.638677 334.195079 
L 858.175473 332.364603 
L 858.71227 331.887087 
L 859.249067 336.211256 
L 859.785863 328.730178 
L 860.32266 332.483981 
L 860.859456 332.231959 
L 861.396253 335.349075 
L 861.933049 332.789061 
L 862.469846 331.674858 
L 863.006642 337.007115 
L 863.543439 332.41766 
L 864.080235 334.526687 
L 864.617032 330.36169 
L 865.153828 331.396307 
L 865.690625 334.619537 
L 866.227422 339.885473 
L 866.764218 331.03817 
L 867.301015 331.502422 
L 867.837811 335.296018 
L 868.374608 330.069875 
L 868.911404 334.831766 
L 869.448201 332.377867 
L 869.984997 325.838556 
L 870.521794 323.583622 
L 871.05859 330.003553 
L 871.595387 329.47298 
L 872.132183 332.736004 
L 872.66898 330.374954 
L 873.205777 334.526687 
L 873.742573 329.075051 
L 874.27937 322.111282 
L 874.816166 319.790026 
L 875.352963 330.043346 
L 875.889759 334.022643 
L 876.426556 336.794886 
L 876.963352 330.26884 
L 877.500149 334.301193 
L 878.036945 329.47298 
L 878.573742 334.646066 
L 879.110538 330.016818 
L 879.647335 330.680034 
L 880.184131 328.637328 
L 880.720928 333.18699 
L 881.257725 331.847294 
L 881.794521 329.857646 
L 882.331318 331.52895 
L 882.868114 332.789061 
L 883.404911 327.562918 
L 883.941707 331.276928 
L 884.478504 331.887087 
L 885.0153 331.396307 
L 886.088893 333.518599 
L 886.62569 334.142022 
L 887.162486 327.417011 
L 887.699283 329.539302 
L 888.23608 335.043995 
L 888.772876 331.887087 
L 889.309673 332.921704 
L 889.846469 326.329336 
L 890.383266 326.010993 
L 890.920062 330.666769 
L 891.456859 332.01973 
L 891.993655 326.448715 
L 892.530452 337.153023 
L 893.067248 312.454856 
L 893.604045 331.4361 
L 894.140841 330.653505 
L 894.677638 333.240048 
L 895.214435 328.663857 
L 895.751231 335.335811 
L 896.288028 324.392745 
L 896.824824 318.662559 
L 897.361621 324.40601 
L 897.898417 331.860558 
L 898.435214 320.665471 
L 898.97201 321.501123 
L 899.508807 286.324143 
L 900.045603 287.902597 
L 900.5824 278.511458 
L 901.655993 315.877051 
L 902.19279 299.588464 
L 902.729586 291.908422 
L 903.266383 295.967305 
L 903.803179 262.992201 
L 904.339976 275.14232 
L 904.876772 330.520862 
L 905.413569 327.735354 
L 905.950365 323.066313 
L 906.487162 322.575533 
L 907.023958 315.147513 
L 907.560755 325.414098 
L 908.097551 306.830784 
L 908.634348 324.034609 
L 909.171144 318.675823 
L 909.707941 314.497562 
L 910.244738 299.416028 
L 910.781534 322.694912 
L 911.855127 331.860558 
L 912.391924 322.641855 
L 912.92872 326.408922 
L 913.465517 326.64768 
L 914.002313 316.911668 
L 914.53911 297.61208 
L 915.075906 221.567726 
L 915.612703 315.784201 
L 916.149499 303.023924 
L 916.686296 306.379797 
L 917.223093 303.514703 
L 917.759889 298.155918 
L 918.296686 287.84954 
L 918.833482 199.588745 
L 919.370279 237.299211 
L 919.907075 301.777077 
L 920.443872 304.297298 
L 920.980668 317.919757 
L 921.517465 307.905194 
L 922.054261 295.144917 
L 922.591058 270.420221 
L 923.127854 78.379376 
L 923.664651 168.934898 
L 924.201448 280.341934 
L 924.738244 313.104808 
L 925.275041 301.405676 
L 925.811837 287.199588 
L 926.348634 166.494263 
L 926.88543 165.897369 
L 927.422227 277.596219 
L 927.959023 289.348408 
L 928.49582 278.126792 
L 929.032616 281.933652 
L 929.569413 270.911001 
L 930.106209 155.829749 
L 930.643006 194.932968 
L 931.179802 281.960181 
L 931.716599 288.698456 
L 932.253396 282.782569 
L 932.790192 314.497562 
L 933.326989 305.544145 
L 933.863785 160.711019 
L 934.400582 274.028117 
L 934.937378 307.480736 
L 935.474175 294.123564 
L 936.010971 308.236802 
L 936.547768 300.543495 
L 937.084564 284.493667 
L 937.621361 57.116669 
L 938.158157 98.050364 
L 938.694954 255.00708 
L 939.231751 244.621116 
L 939.768547 250.590061 
L 940.305344 261.373954 
L 940.84214 283.193763 
L 941.378937 267.555128 
L 941.915733 159.02645 
L 942.45253 295.330617 
L 942.989326 315.001606 
L 943.526123 262.965673 
L 944.062919 230.97213 
L 944.599716 246.451593 
L 945.136512 94.177183 
L 945.673309 237.140039 
L 946.210106 168.072717 
L 946.746902 211.937828 
L 947.283699 149.104738 
L 947.820495 268.457102 
L 948.894088 118.915142 
L 949.430885 179.931021 
L 950.504478 251.492035 
L 951.041274 217.707808 
L 951.578071 268.868296 
L 952.114867 182.716528 
L 952.651664 155.285911 
L 953.18846 115.758234 
L 953.725257 236.211537 
L 954.262054 230.680314 
L 954.79885 191.86891 
L 955.335647 246.862787 
L 955.872443 216.169147 
L 956.40924 64.650803 
L 956.946036 136.384253 
L 957.482833 261.771884 
L 958.019629 239.514353 
L 958.556426 203.050733 
L 959.093222 228.849838 
L 959.630019 209.842066 
L 960.166815 244.93946 
L 960.703612 89.879542 
L 961.240409 224.207326 
L 961.777205 207.149408 
L 962.314002 213.834626 
L 962.850798 228.531494 
L 963.387595 194.787061 
L 963.924391 96.326003 
L 964.461188 64.067173 
L 964.997984 273.099614 
L 965.534781 254.662208 
L 966.071577 170.699053 
L 966.608374 266.852119 
L 967.14517 169.545057 
L 967.681967 217.973095 
L 968.218764 104.470296 
L 968.75556 213.808098 
L 969.292357 198.262313 
L 969.829153 175.275244 
L 970.902746 238.439943 
L 971.439543 62.793798 
L 971.976339 110.134161 
L 972.513136 225.520493 
L 973.049932 216.646662 
L 973.586729 288.8311 
L 974.123525 246.557707 
L 974.660322 225.308264 
L 975.197119 187.345776 
L 975.733915 123.54439 
L 976.270712 210.797097 
L 976.807508 214.975358 
L 977.344305 245.589412 
L 977.881101 212.866331 
L 978.417898 195.662506 
L 978.954694 130.813238 
L 979.491491 83.061681 
L 980.028287 141.172673 
L 980.565084 282.119353 
L 981.10188 286.841451 
L 981.638677 308.117423 
L 982.175473 295.808133 
L 982.71227 216.368112 
L 983.249067 216.39464 
L 983.785863 292.836925 
L 984.32266 318.768673 
L 984.859456 309.908106 
L 985.933049 280.182762 
L 986.469846 190.250663 
L 987.543439 303.541232 
L 988.080235 302.4005 
L 988.617032 302.055628 
L 989.153828 297.691666 
L 989.690625 286.324143 
L 990.227422 231.370059 
L 990.764218 242.153953 
L 991.301015 299.124213 
L 991.837811 313.144601 
L 992.374608 309.404062 
L 992.911404 311.964076 
L 993.448201 288.565813 
L 993.984997 242.512089 
L 994.521794 243.533442 
L 995.05859 282.450961 
L 995.595387 287.743425 
L 996.132183 288.260734 
L 996.66898 296.736635 
L 997.205777 302.135214 
L 997.742573 279.612396 
L 998.27937 310.451944 
L 998.816166 306.154303 
L 999.352963 251.810379 
L 999.889759 317.428977 
L 1000.426556 309.417326 
L 1000.963352 313.94046 
L 1001.500149 312.056926 
L 1002.036945 317.680999 
L 1002.573742 321.142987 
L 1003.110538 315.797465 
L 1004.184131 320.028784 
L 1004.720928 328.544478 
L 1005.257725 312.017133 
L 1005.794521 310.505001 
L 1006.331318 317.972814 
L 1006.868114 312.454856 
L 1007.404911 319.166603 
L 1007.941707 328.265927 
L 1008.478504 311.274331 
L 1009.0153 288.685192 
L 1009.552097 326.422187 
L 1010.088893 316.513738 
L 1011.162486 329.141372 
L 1011.699283 328.70365 
L 1013.309673 316.540267 
L 1013.846469 332.139109 
L 1014.383266 330.786148 
L 1014.920062 328.345513 
L 1015.456859 328.7965 
L 1015.993655 323.185692 
L 1016.530452 325.002904 
L 1017.067248 322.893877 
L 1017.604045 315.5985 
L 1018.140841 330.255575 
L 1019.214435 326.090579 
L 1019.751231 330.308633 
L 1020.288028 317.349391 
L 1020.824824 325.374305 
L 1021.361621 329.433188 
L 1021.898417 336.450014 
L 1022.435214 331.223871 
L 1022.97201 329.764796 
L 1023.508807 329.433188 
L 1024.045603 325.719178 
L 1024.5824 333.120669 
L 1025.119196 310.703966 
L 1025.655993 334.593009 
L 1026.19279 334.951145 
L 1026.729586 327.13846 
L 1027.266383 335.216432 
L 1027.803179 331.489157 
L 1028.339976 335.335811 
L 1028.876772 333.18699 
L 1029.413569 333.730828 
L 1029.950365 332.828854 
L 1030.487162 334.367515 
L 1031.023958 332.802325 
L 1031.560755 330.030082 
L 1032.097551 333.744092 
L 1032.634348 334.128757 
L 1033.171144 308.342916 
L 1033.707941 333.664506 
L 1034.244738 325.812028 
L 1034.781534 327.81494 
L 1035.855127 333.783885 
L 1036.391924 334.234872 
L 1036.92872 327.907791 
L 1037.465517 331.263664 
L 1038.002313 329.021994 
L 1038.53911 331.555479 
L 1039.075906 335.468454 
L 1039.612703 328.743443 
L 1040.149499 328.584271 
L 1040.686296 331.727915 
L 1041.223093 335.680683 
L 1041.759889 331.820765 
L 1042.296686 330.36169 
L 1042.833482 325.838556 
L 1043.907075 328.88935 
L 1044.443872 330.321897 
L 1044.980668 331.104492 
L 1045.517465 329.327073 
L 1046.054261 333.439013 
L 1046.591058 333.810414 
L 1047.127854 334.805238 
L 1047.664651 334.593009 
L 1048.201448 336.383692 
L 1048.738244 335.083788 
L 1049.275041 335.070524 
L 1049.811837 327.23131 
L 1050.348634 339.699772 
L 1050.88543 337.511159 
L 1051.422227 334.778709 
L 1051.959023 335.866383 
L 1052.49582 334.937881 
L 1053.032616 334.858295 
L 1053.569413 334.035907 
L 1054.106209 335.441925 
L 1054.643006 330.414747 
L 1055.716599 338.147847 
L 1056.253396 335.256225 
L 1056.790192 334.128757 
L 1057.326989 334.500158 
L 1057.863785 333.505334 
L 1058.400582 333.412484 
L 1058.937378 323.756058 
L 1059.474175 334.287929 
L 1060.010971 332.483981 
L 1060.547768 335.176639 
L 1061.084564 331.263664 
L 1061.621361 323.278542 
L 1062.158157 325.042697 
L 1062.694954 334.049171 
L 1063.231751 332.775797 
L 1063.768547 332.590096 
L 1064.305344 332.749268 
L 1064.84214 327.191517 
L 1065.378937 319.179867 
L 1065.915733 331.621801 
L 1066.45253 332.430924 
L 1066.989326 329.313809 
L 1067.526123 321.76641 
L 1068.062919 334.420572 
L 1068.599716 334.221608 
L 1069.136512 330.825941 
L 1069.673309 333.425748 
L 1070.210106 329.28728 
L 1070.746902 329.101579 
L 1071.283699 330.666769 
L 1071.820495 330.985113 
L 1072.357292 329.526038 
L 1072.894088 331.144285 
L 1073.430885 331.157549 
L 1073.967681 325.838556 
L 1074.504478 325.228398 
L 1075.041274 333.916528 
L 1075.578071 332.51051 
L 1076.114867 326.170164 
L 1076.651664 330.428012 
L 1077.18846 329.141372 
L 1077.725257 323.013256 
L 1078.262054 328.823029 
L 1078.79885 330.255575 
L 1079.335647 322.283718 
L 1080.40924 335.256225 
L 1080.946036 334.460365 
L 1081.482833 325.042697 
L 1082.019629 323.5173 
L 1082.556426 300.06598 
L 1083.093222 331.157549 
L 1083.630019 326.488508 
L 1084.166815 324.856997 
L 1084.703612 330.308633 
L 1085.240409 330.45454 
L 1085.777205 332.351338 
L 1086.314002 331.210607 
L 1086.850798 330.573919 
L 1087.387595 333.956321 
L 1087.924391 328.584271 
L 1088.461188 325.228398 
L 1088.997984 325.75897 
L 1089.534781 330.534126 
L 1091.14517 313.250715 
L 1091.681967 306.552233 
L 1092.218764 308.608203 
L 1092.75556 318.927845 
L 1093.292357 331.780972 
L 1093.829153 333.943057 
L 1094.36595 334.022643 
L 1094.902746 326.170164 
L 1095.439543 305.782902 
L 1095.976339 296.84275 
L 1096.513136 325.679385 
L 1097.049932 323.02652 
L 1097.586729 313.728231 
L 1098.123525 331.807501 
L 1098.660322 333.452277 
L 1099.197119 320.134898 
L 1099.733915 311.30086 
L 1100.270712 314.391447 
L 1100.807508 315.240364 
L 1101.344305 332.802325 
L 1101.881101 325.17534 
L 1102.417898 323.676472 
L 1102.954694 320.890965 
L 1103.491491 312.37527 
L 1104.028287 310.266243 
L 1104.565084 326.926231 
L 1106.175473 307.00322 
L 1106.71227 323.941758 
L 1107.249067 311.844697 
L 1107.785863 316.540267 
L 1108.32266 325.719178 
L 1109.396253 293.009361 
L 1109.933049 320.439978 
L 1110.469846 261.506597 
L 1111.006642 316.593324 
L 1111.543439 296.405027 
L 1112.080235 300.503702 
L 1112.617032 306.698141 
L 1113.153828 316.818818 
L 1113.690625 310.62438 
L 1114.227422 295.158181 
L 1114.764218 259.914879 
L 1115.301015 318.450329 
L 1115.837811 318.901316 
L 1116.374608 311.247803 
L 1116.911404 297.983481 
L 1117.448201 313.595588 
L 1117.984997 194.840118 
L 1118.521794 122.257751 
L 1119.05859 132.948794 
L 1119.595387 292.624696 
L 1120.132183 306.247154 
L 1121.205777 271.043645 
L 1121.742573 284.268173 
L 1122.27937 174.121248 
L 1122.816166 315.147513 
L 1123.352963 318.291158 
L 1123.889759 285.713984 
L 1124.426556 287.610782 
L 1124.963352 303.647347 
L 1124.963352 303.647347 
" clip-path="url(#p3b0ce3d2f9)" style="fill: none; stroke: #008080; stroke-width: 1.5; stroke-linecap: square"/>
   </g>
   <g id="patch_3">
    <path d="M 59.690625 356.477812 
L 59.690625 23.837812 
" style="fill: none; stroke: #000000; stroke-width: 0.8; stroke-linejoin: miter; stroke-linecap: square"/>
   </g>
   <g id="patch_4">
    <path d="M 1175.690625 356.477812 
L 1175.690625 23.837812 
" style="fill: none; stroke: #000000; stroke-width: 0.8; stroke-linejoin: miter; stroke-linecap: square"/>
   </g>
   <g id="patch_5">
    <path d="M 59.690625 356.477812 
L 1175.690625 356.477812 
" style="fill: none; stroke: #000000; stroke-width: 0.8; stroke-linejoin: miter; stroke-linecap: square"/>
   </g>
   <g id="patch_6">
    <path d="M 59.690625 23.837812 
L 1175.690625 23.837812 
" style="fill: none; stroke: #000000; stroke-width: 0.8; stroke-linejoin: miter; stroke-linecap: square"/>
   </g>
   <g id="text_14">
    <!-- Toronto Island Ferry Ticket Redemptions -->
    <g transform="translate(477.780313 17.837812) scale(0.14 -0.14)">
     <defs>
      <path id="DejaVuSans-72" d="M 2631 2963 
Q 2534 3019 2420 3045 
Q 2306 3072 2169 3072 
Q 1681 3072 1420 2755 
Q 1159 2438 1159 1844 
L 1159 0 
L 581 0 
L 581 3500 
L 1159 3500 
L 1159 2956 
Q 1341 3275 1631 3429 
Q 1922 3584 2338 3584 
Q 2397 3584 2469 3576 
Q 2541 3569 2628 3553 
L 2631 2963 
z
" transform="scale(0.015625)"/>
      <path id="DejaVuSans-49" d="M 628 4666 
L 1259 4666 
L 1259 0 
L 628 0 
L 628 4666 
z
" transform="scale(0.015625)"/>
      <path id="DejaVuSans-6c" d="M 603 4863 
L 1178 4863 
L 1178 0 
L 603 0 
L 603 4863 
z
" transform="scale(0.015625)"/>
      <path id="DejaVuSans-46" d="M 628 4666 
L 3309 4666 
L 3309 4134 
L 1259 4134 
L 1259 2759 
L 3109 2759 
L 3109 2228 
L 1259 2228 
L 1259 0 
L 628 0 
L 628 4666 
z
" transform="scale(0.015625)"/>
      <path id="DejaVuSans-79" d="M 2059 -325 
Q 1816 -950 1584 -1140 
Q 1353 -1331 966 -1331 
L 506 -1331 
L 506 -850 
L 844 -850 
Q 1081 -850 1212 -737 
Q 1344 -625 1503 -206 
L 1606 56 
L 191 3500 
L 800 3500 
L 1894 763 
L 2988 3500 
L 3597 3500 
L 2059 -325 
z
" transform="scale(0.015625)"/>
     </defs>
     <use xlink:href="#DejaVuSans-54"/>
     <use xlink:href="#DejaVuSans-6f" x="44.083984"/>
     <use xlink:href="#DejaVuSans-72" x="105.265625"/>
     <use xlink:href="#DejaVuSans-6f" x="144.128906"/>
     <use xlink:href="#DejaVuSans-6e" x="205.310547"/>
     <use xlink:href="#DejaVuSans-74" x="268.689453"/>
     <use xlink:href="#DejaVuSans-6f" x="307.898438"/>
     <use xlink:href="#DejaVuSans-20" x="369.080078"/>
     <use xlink:href="#DejaVuSans-49" x="400.867188"/>
     <use xlink:href="#DejaVuSans-73" x="430.359375"/>
     <use xlink:href="#DejaVuSans-6c" x="482.458984"/>
     <use xlink:href="#DejaVuSans-61" x="510.242188"/>
     <use xlink:href="#DejaVuSans-6e" x="571.521484"/>
     <use xlink:href="#DejaVuSans-64" x="634.900391"/>
     <use xlink:href="#DejaVuSans-20" x="698.376953"/>
     <use xlink:href="#DejaVuSans-46" x="730.164062"/>
     <use xlink:href="#DejaVuSans-65" x="782.183594"/>
     <use xlink:href="#DejaVuSans-72" x="843.707031"/>
     <use xlink:href="#DejaVuSans-72" x="883.070312"/>
     <use xlink:href="#DejaVuSans-79" x="924.183594"/>
     <use xlink:href="#DejaVuSans-20" x="983.363281"/>
     <use xlink:href="#DejaVuSans-54" x="1015.150391"/>
     <use xlink:href="#DejaVuSans-69" x="1073.109375"/>
     <use xlink:href="#DejaVuSans-63" x="1100.892578"/>
     <use xlink:href="#DejaVuSans-6b" x="1155.873047"/>
     <use xlink:href="#DejaVuSans-65" x="1210.158203"/>
     <use xlink:href="#DejaVuSans-74" x="1271.681641"/>
     <use xlink:href="#DejaVuSans-20" x="1310.890625"/>
     <use xlink:href="#DejaVuSans-52" x="1342.677734"/>
     <use xlink:href="#DejaVuSans-65" x="1407.660156"/>
     <use xlink:href="#DejaVuSans-64" x="1469.183594"/>
     <use xlink:href="#DejaVuSans-65" x="1532.660156"/>
     <use xlink:href="#DejaVuSans-6d" x="1594.183594"/>
     <use xlink:href="#DejaVuSans-70" x="1691.595703"/>
     <use xlink:href="#DejaVuSans-74" x="1755.072266"/>
     <use xlink:href="#DejaVuSans-69" x="1794.28125"/>
     <use xlink:href="#DejaVuSans-6f" x="1822.064453"/>
     <use xlink:href="#DejaVuSans-6e" x="1883.246094"/>
     <use xlink:href="#DejaVuSans-73" x="1946.625"/>
    </g>
   </g>
  </g>
  <g id="text_15">
   <!-- (Data from 2019-03-29 09:15:00 to 2024-05-31 15:00:00) -->
   <g style="fill: #808080" transform="translate(454.635938 399.677812) scale(0.1 -0.1)">
    <defs>
     <path id="DejaVuSans-28" d="M 1984 4856 
Q 1566 4138 1362 3434 
Q 1159 2731 1159 2009 
Q 1159 1288 1364 580 
Q 1569 -128 1984 -844 
L 1484 -844 
Q 1016 -109 783 600 
Q 550 1309 550 2009 
Q 550 2706 781 3412 
Q 1013 4119 1484 4856 
L 1984 4856 
z
" transform="scale(0.015625)"/>
     <path id="DejaVuSans-66" d="M 2375 4863 
L 2375 4384 
L 1825 4384 
Q 1516 4384 1395 4259 
Q 1275 4134 1275 3809 
L 1275 3500 
L 2222 3500 
L 2222 3053 
L 1275 3053 
L 1275 0 
L 697 0 
L 697 3053 
L 147 3053 
L 147 3500 
L 697 3500 
L 697 3744 
Q 697 4328 969 4595 
Q 1241 4863 1831 4863 
L 2375 4863 
z
" transform="scale(0.015625)"/>
     <path id="DejaVuSans-2d" d="M 313 2009 
L 1997 2009 
L 1997 1497 
L 313 1497 
L 313 2009 
z
" transform="scale(0.015625)"/>
     <path id="DejaVuSans-3a" d="M 750 794 
L 1409 794 
L 1409 0 
L 750 0 
L 750 794 
z
M 750 3309 
L 1409 3309 
L 1409 2516 
L 750 2516 
L 750 3309 
z
" transform="scale(0.015625)"/>
     <path id="DejaVuSans-29" d="M 513 4856 
L 1013 4856 
Q 1481 4119 1714 3412 
Q 1947 2706 1947 2009 
Q 1947 1309 1714 600 
Q 1481 -109 1013 -844 
L 513 -844 
Q 928 -128 1133 580 
Q 1338 1288 1338 2009 
Q 1338 2731 1133 3434 
Q 928 4138 513 4856 
z
" transform="scale(0.015625)"/>
    </defs>
    <use xlink:href="#DejaVuSans-28"/>
    <use xlink:href="#DejaVuSans-44" x="39.013672"/>
    <use xlink:href="#DejaVuSans-61" x="116.015625"/>
    <use xlink:href="#DejaVuSans-74" x="177.294922"/>
    <use xlink:href="#DejaVuSans-61" x="216.503906"/>
    <use xlink:href="#DejaVuSans-20" x="277.783203"/>
    <use xlink:href="#DejaVuSans-66" x="309.570312"/>
    <use xlink:href="#DejaVuSans-72" x="344.775391"/>
    <use xlink:href="#DejaVuSans-6f" x="383.638672"/>
    <use xlink:href="#DejaVuSans-6d" x="444.820312"/>
    <use xlink:href="#DejaVuSans-20" x="542.232422"/>
    <use xlink:href="#DejaVuSans-32" x="574.019531"/>
    <use xlink:href="#DejaVuSans-30" x="637.642578"/>
    <use xlink:href="#DejaVuSans-31" x="701.265625"/>
    <use xlink:href="#DejaVuSans-39" x="764.888672"/>
    <use xlink:href="#DejaVuSans-2d" x="828.511719"/>
    <use xlink:href="#DejaVuSans-30" x="864.595703"/>
    <use xlink:href="#DejaVuSans-33" x="928.21875"/>
    <use xlink:href="#DejaVuSans-2d" x="991.841797"/>
    <use xlink:href="#DejaVuSans-32" x="1027.925781"/>
    <use xlink:href="#DejaVuSans-39" x="1091.548828"/>
    <use xlink:href="#DejaVuSans-20" x="1155.171875"/>
    <use xlink:href="#DejaVuSans-30" x="1186.958984"/>
    <use xlink:href="#DejaVuSans-39" x="1250.582031"/>
    <use xlink:href="#DejaVuSans-3a" x="1314.205078"/>
    <use xlink:href="#DejaVuSans-31" x="1347.896484"/>
    <use xlink:href="#DejaVuSans-35" x="1411.519531"/>
    <use xlink:href="#DejaVuSans-3a" x="1475.142578"/>
    <use xlink:href="#DejaVuSans-30" x="1508.833984"/>
    <use xlink:href="#DejaVuSans-30" x="1572.457031"/>
    <use xlink:href="#DejaVuSans-20" x="1636.080078"/>
    <use xlink:href="#DejaVuSans-74" x="1667.867188"/>
    <use xlink:href="#DejaVuSans-6f" x="1707.076172"/>
    <use xlink:href="#DejaVuSans-20" x="1768.257812"/>
    <use xlink:href="#DejaVuSans-32" x="1800.044922"/>
    <use xlink:href="#DejaVuSans-30" x="1863.667969"/>
    <use xlink:href="#DejaVuSans-32" x="1927.291016"/>
    <use xlink:href="#DejaVuSans-34" x="1990.914062"/>
    <use xlink:href="#DejaVuSans-2d" x="2054.537109"/>
    <use xlink:href="#DejaVuSans-30" x="2090.621094"/>
    <use xlink:href="#DejaVuSans-35" x="2154.244141"/>
    <use xlink:href="#DejaVuSans-2d" x="2217.867188"/>
    <use xlink:href="#DejaVuSans-33" x="2253.951172"/>
    <use xlink:href="#DejaVuSans-31" x="2317.574219"/>
    <use xlink:href="#DejaVuSans-20" x="2381.197266"/>
    <use xlink:href="#DejaVuSans-31" x="2412.984375"/>
    <use xlink:href="#DejaVuSans-35" x="2476.607422"/>
    <use xlink:href="#DejaVuSans-3a" x="2540.230469"/>
    <use xlink:href="#DejaVuSans-30" x="2573.921875"/>
    <use xlink:href="#DejaVuSans-30" x="2637.544922"/>
    <use xlink:href="#DejaVuSans-3a" x="2701.167969"/>
    <use xlink:href="#DejaVuSans-30" x="2734.859375"/>
    <use xlink:href="#DejaVuSans-30" x="2798.482422"/>
    <use xlink:href="#DejaVuSans-29" x="2862.105469"/>
   </g>
  </g>
 </g>
 <defs>
  <clipPath id="p3b0ce3d2f9">
   <rect x="59.690625" y="23.837812" width="1116" height="332.64"/>
  </clipPath>
 </defs>
</svg>
