<?xml version="1.0" encoding="utf-8" standalone="no"?>
<!DOCTYPE svg PUBLIC "-//W3C//DTD SVG 1.1//EN"
  "http://www.w3.org/Graphics/SVG/1.1/DTD/svg11.dtd">
<svg xmlns:xlink="http://www.w3.org/1999/xlink" width="1182.890625pt" height="408.9575pt" viewBox="0 0 1182.890625 408.9575" xmlns="http://www.w3.org/2000/svg" version="1.1">
 <metadata>
  <rdf:RDF xmlns:dc="http://purl.org/dc/elements/1.1/" xmlns:cc="http://creativecommons.org/ns#" xmlns:rdf="http://www.w3.org/1999/02/22-rdf-syntax-ns#">
   <cc:Work>
    <dc:type rdf:resource="http://purl.org/dc/dcmitype/StillImage"/>
    <dc:date>2024-06-25T18:27:08.902761</dc:date>
    <dc:format>image/svg+xml</dc:format>
    <dc:creator>
     <cc:Agent>
      <dc:title>Matplotlib v3.8.4, https://matplotlib.org/</dc:title>
     </cc:Agent>
    </dc:creator>
   </cc:Work>
  </rdf:RDF>
 </metadata>
 <defs>
  <style type="text/css">*{stroke-linejoin: round; stroke-linecap: butt}</style>
 </defs>
 <g id="figure_1">
  <g id="patch_1">
   <path d="M 0 408.9575 
L 1182.890625 408.9575 
L 1182.890625 0 
L 0 0 
z
" style="fill: #ffffff"/>
  </g>
  <g id="axes_1">
   <g id="patch_2">
    <path d="M 59.690625 356.477812 
L 1175.690625 356.477812 
L 1175.690625 23.837812 
L 59.690625 23.837812 
z
" style="fill: #ffffff"/>
   </g>
   <g id="matplotlib.axis_1">
    <g id="xtick_1">
     <g id="line2d_1">
      <defs>
       <path id="mf27327ba17" d="M 0 0 
L 0 3.5 
" style="stroke: #000000; stroke-width: 0.8"/>
      </defs>
      <g>
       <use xlink:href="#mf27327ba17" x="68.660692" y="356.477812" style="stroke: #000000; stroke-width: 0.8"/>
      </g>
     </g>
     <g id="text_1">
      <!-- 2017 -->
      <g transform="translate(55.935692 371.07625) scale(0.1 -0.1)">
       <defs>
        <path id="DejaVuSans-32" d="M 1228 531 
L 3431 531 
L 3431 0 
L 469 0 
L 469 531 
Q 828 903 1448 1529 
Q 2069 2156 2228 2338 
Q 2531 2678 2651 2914 
Q 2772 3150 2772 3378 
Q 2772 3750 2511 3984 
Q 2250 4219 1831 4219 
Q 1534 4219 1204 4116 
Q 875 4013 500 3803 
L 500 4441 
Q 881 4594 1212 4672 
Q 1544 4750 1819 4750 
Q 2544 4750 2975 4387 
Q 3406 4025 3406 3419 
Q 3406 3131 3298 2873 
Q 3191 2616 2906 2266 
Q 2828 2175 2409 1742 
Q 1991 1309 1228 531 
z
" transform="scale(0.015625)"/>
        <path id="DejaVuSans-30" d="M 2034 4250 
Q 1547 4250 1301 3770 
Q 1056 3291 1056 2328 
Q 1056 1369 1301 889 
Q 1547 409 2034 409 
Q 2525 409 2770 889 
Q 3016 1369 3016 2328 
Q 3016 3291 2770 3770 
Q 2525 4250 2034 4250 
z
M 2034 4750 
Q 2819 4750 3233 4129 
Q 3647 3509 3647 2328 
Q 3647 1150 3233 529 
Q 2819 -91 2034 -91 
Q 1250 -91 836 529 
Q 422 1150 422 2328 
Q 422 3509 836 4129 
Q 1250 4750 2034 4750 
z
" transform="scale(0.015625)"/>
        <path id="DejaVuSans-31" d="M 794 531 
L 1825 531 
L 1825 4091 
L 703 3866 
L 703 4441 
L 1819 4666 
L 2450 4666 
L 2450 531 
L 3481 531 
L 3481 0 
L 794 0 
L 794 531 
z
" transform="scale(0.015625)"/>
        <path id="DejaVuSans-37" d="M 525 4666 
L 3525 4666 
L 3525 4397 
L 1831 0 
L 1172 0 
L 2766 4134 
L 525 4134 
L 525 4666 
z
" transform="scale(0.015625)"/>
       </defs>
       <use xlink:href="#DejaVuSans-32"/>
       <use xlink:href="#DejaVuSans-30" x="63.623047"/>
       <use xlink:href="#DejaVuSans-31" x="127.246094"/>
       <use xlink:href="#DejaVuSans-37" x="190.869141"/>
      </g>
     </g>
    </g>
    <g id="xtick_2">
     <g id="line2d_2">
      <g>
       <use xlink:href="#mf27327ba17" x="209.784583" y="356.477812" style="stroke: #000000; stroke-width: 0.8"/>
      </g>
     </g>
     <g id="text_2">
      <!-- 2018 -->
      <g transform="translate(197.059583 371.07625) scale(0.1 -0.1)">
       <defs>
        <path id="DejaVuSans-38" d="M 2034 2216 
Q 1584 2216 1326 1975 
Q 1069 1734 1069 1313 
Q 1069 891 1326 650 
Q 1584 409 2034 409 
Q 2484 409 2743 651 
Q 3003 894 3003 1313 
Q 3003 1734 2745 1975 
Q 2488 2216 2034 2216 
z
M 1403 2484 
Q 997 2584 770 2862 
Q 544 3141 544 3541 
Q 544 4100 942 4425 
Q 1341 4750 2034 4750 
Q 2731 4750 3128 4425 
Q 3525 4100 3525 3541 
Q 3525 3141 3298 2862 
Q 3072 2584 2669 2484 
Q 3125 2378 3379 2068 
Q 3634 1759 3634 1313 
Q 3634 634 3220 271 
Q 2806 -91 2034 -91 
Q 1263 -91 848 271 
Q 434 634 434 1313 
Q 434 1759 690 2068 
Q 947 2378 1403 2484 
z
M 1172 3481 
Q 1172 3119 1398 2916 
Q 1625 2713 2034 2713 
Q 2441 2713 2670 2916 
Q 2900 3119 2900 3481 
Q 2900 3844 2670 4047 
Q 2441 4250 2034 4250 
Q 1625 4250 1398 4047 
Q 1172 3844 1172 3481 
z
" transform="scale(0.015625)"/>
       </defs>
       <use xlink:href="#DejaVuSans-32"/>
       <use xlink:href="#DejaVuSans-30" x="63.623047"/>
       <use xlink:href="#DejaVuSans-31" x="127.246094"/>
       <use xlink:href="#DejaVuSans-38" x="190.869141"/>
      </g>
     </g>
    </g>
    <g id="xtick_3">
     <g id="line2d_3">
      <g>
       <use xlink:href="#mf27327ba17" x="350.908474" y="356.477812" style="stroke: #000000; stroke-width: 0.8"/>
      </g>
     </g>
     <g id="text_3">
      <!-- 2019 -->
      <g transform="translate(338.183474 371.07625) scale(0.1 -0.1)">
       <defs>
        <path id="DejaVuSans-39" d="M 703 97 
L 703 672 
Q 941 559 1184 500 
Q 1428 441 1663 441 
Q 2288 441 2617 861 
Q 2947 1281 2994 2138 
Q 2813 1869 2534 1725 
Q 2256 1581 1919 1581 
Q 1219 1581 811 2004 
Q 403 2428 403 3163 
Q 403 3881 828 4315 
Q 1253 4750 1959 4750 
Q 2769 4750 3195 4129 
Q 3622 3509 3622 2328 
Q 3622 1225 3098 567 
Q 2575 -91 1691 -91 
Q 1453 -91 1209 -44 
Q 966 3 703 97 
z
M 1959 2075 
Q 2384 2075 2632 2365 
Q 2881 2656 2881 3163 
Q 2881 3666 2632 3958 
Q 2384 4250 1959 4250 
Q 1534 4250 1286 3958 
Q 1038 3666 1038 3163 
Q 1038 2656 1286 2365 
Q 1534 2075 1959 2075 
z
" transform="scale(0.015625)"/>
       </defs>
       <use xlink:href="#DejaVuSans-32"/>
       <use xlink:href="#DejaVuSans-30" x="63.623047"/>
       <use xlink:href="#DejaVuSans-31" x="127.246094"/>
       <use xlink:href="#DejaVuSans-39" x="190.869141"/>
      </g>
     </g>
    </g>
    <g id="xtick_4">
     <g id="line2d_4">
      <g>
       <use xlink:href="#mf27327ba17" x="492.032366" y="356.477812" style="stroke: #000000; stroke-width: 0.8"/>
      </g>
     </g>
     <g id="text_4">
      <!-- 2020 -->
      <g transform="translate(479.307366 371.07625) scale(0.1 -0.1)">
       <use xlink:href="#DejaVuSans-32"/>
       <use xlink:href="#DejaVuSans-30" x="63.623047"/>
       <use xlink:href="#DejaVuSans-32" x="127.246094"/>
       <use xlink:href="#DejaVuSans-30" x="190.869141"/>
      </g>
     </g>
    </g>
    <g id="xtick_5">
     <g id="line2d_5">
      <g>
       <use xlink:href="#mf27327ba17" x="633.542898" y="356.477812" style="stroke: #000000; stroke-width: 0.8"/>
      </g>
     </g>
     <g id="text_5">
      <!-- 2021 -->
      <g transform="translate(620.817898 371.07625) scale(0.1 -0.1)">
       <use xlink:href="#DejaVuSans-32"/>
       <use xlink:href="#DejaVuSans-30" x="63.623047"/>
       <use xlink:href="#DejaVuSans-32" x="127.246094"/>
       <use xlink:href="#DejaVuSans-31" x="190.869141"/>
      </g>
     </g>
    </g>
    <g id="xtick_6">
     <g id="line2d_6">
      <g>
       <use xlink:href="#mf27327ba17" x="774.666789" y="356.477812" style="stroke: #000000; stroke-width: 0.8"/>
      </g>
     </g>
     <g id="text_6">
      <!-- 2022 -->
      <g transform="translate(761.941789 371.07625) scale(0.1 -0.1)">
       <use xlink:href="#DejaVuSans-32"/>
       <use xlink:href="#DejaVuSans-30" x="63.623047"/>
       <use xlink:href="#DejaVuSans-32" x="127.246094"/>
       <use xlink:href="#DejaVuSans-32" x="190.869141"/>
      </g>
     </g>
    </g>
    <g id="xtick_7">
     <g id="line2d_7">
      <g>
       <use xlink:href="#mf27327ba17" x="915.79068" y="356.477812" style="stroke: #000000; stroke-width: 0.8"/>
      </g>
     </g>
     <g id="text_7">
      <!-- 2023 -->
      <g transform="translate(903.06568 371.07625) scale(0.1 -0.1)">
       <defs>
        <path id="DejaVuSans-33" d="M 2597 2516 
Q 3050 2419 3304 2112 
Q 3559 1806 3559 1356 
Q 3559 666 3084 287 
Q 2609 -91 1734 -91 
Q 1441 -91 1130 -33 
Q 819 25 488 141 
L 488 750 
Q 750 597 1062 519 
Q 1375 441 1716 441 
Q 2309 441 2620 675 
Q 2931 909 2931 1356 
Q 2931 1769 2642 2001 
Q 2353 2234 1838 2234 
L 1294 2234 
L 1294 2753 
L 1863 2753 
Q 2328 2753 2575 2939 
Q 2822 3125 2822 3475 
Q 2822 3834 2567 4026 
Q 2313 4219 1838 4219 
Q 1578 4219 1281 4162 
Q 984 4106 628 3988 
L 628 4550 
Q 988 4650 1302 4700 
Q 1616 4750 1894 4750 
Q 2613 4750 3031 4423 
Q 3450 4097 3450 3541 
Q 3450 3153 3228 2886 
Q 3006 2619 2597 2516 
z
" transform="scale(0.015625)"/>
       </defs>
       <use xlink:href="#DejaVuSans-32"/>
       <use xlink:href="#DejaVuSans-30" x="63.623047"/>
       <use xlink:href="#DejaVuSans-32" x="127.246094"/>
       <use xlink:href="#DejaVuSans-33" x="190.869141"/>
      </g>
     </g>
    </g>
    <g id="xtick_8">
     <g id="line2d_8">
      <g>
       <use xlink:href="#mf27327ba17" x="1056.914572" y="356.477812" style="stroke: #000000; stroke-width: 0.8"/>
      </g>
     </g>
     <g id="text_8">
      <!-- 2024 -->
      <g transform="translate(1044.189572 371.07625) scale(0.1 -0.1)">
       <defs>
        <path id="DejaVuSans-34" d="M 2419 4116 
L 825 1625 
L 2419 1625 
L 2419 4116 
z
M 2253 4666 
L 3047 4666 
L 3047 1625 
L 3713 1625 
L 3713 1100 
L 3047 1100 
L 3047 0 
L 2419 0 
L 2419 1100 
L 313 1100 
L 313 1709 
L 2253 4666 
z
" transform="scale(0.015625)"/>
       </defs>
       <use xlink:href="#DejaVuSans-32"/>
       <use xlink:href="#DejaVuSans-30" x="63.623047"/>
       <use xlink:href="#DejaVuSans-32" x="127.246094"/>
       <use xlink:href="#DejaVuSans-34" x="190.869141"/>
      </g>
     </g>
    </g>
    <g id="text_9">
     <!-- Date -->
     <g transform="translate(605.739844 384.754375) scale(0.1 -0.1)">
      <defs>
       <path id="DejaVuSans-44" d="M 1259 4147 
L 1259 519 
L 2022 519 
Q 2988 519 3436 956 
Q 3884 1394 3884 2338 
Q 3884 3275 3436 3711 
Q 2988 4147 2022 4147 
L 1259 4147 
z
M 628 4666 
L 1925 4666 
Q 3281 4666 3915 4102 
Q 4550 3538 4550 2338 
Q 4550 1131 3912 565 
Q 3275 0 1925 0 
L 628 0 
L 628 4666 
z
" transform="scale(0.015625)"/>
       <path id="DejaVuSans-61" d="M 2194 1759 
Q 1497 1759 1228 1600 
Q 959 1441 959 1056 
Q 959 750 1161 570 
Q 1363 391 1709 391 
Q 2188 391 2477 730 
Q 2766 1069 2766 1631 
L 2766 1759 
L 2194 1759 
z
M 3341 1997 
L 3341 0 
L 2766 0 
L 2766 531 
Q 2569 213 2275 61 
Q 1981 -91 1556 -91 
Q 1019 -91 701 211 
Q 384 513 384 1019 
Q 384 1609 779 1909 
Q 1175 2209 1959 2209 
L 2766 2209 
L 2766 2266 
Q 2766 2663 2505 2880 
Q 2244 3097 1772 3097 
Q 1472 3097 1187 3025 
Q 903 2953 641 2809 
L 641 3341 
Q 956 3463 1253 3523 
Q 1550 3584 1831 3584 
Q 2591 3584 2966 3190 
Q 3341 2797 3341 1997 
z
" transform="scale(0.015625)"/>
       <path id="DejaVuSans-74" d="M 1172 4494 
L 1172 3500 
L 2356 3500 
L 2356 3053 
L 1172 3053 
L 1172 1153 
Q 1172 725 1289 603 
Q 1406 481 1766 481 
L 2356 481 
L 2356 0 
L 1766 0 
Q 1100 0 847 248 
Q 594 497 594 1153 
L 594 3053 
L 172 3053 
L 172 3500 
L 594 3500 
L 594 4494 
L 1172 4494 
z
" transform="scale(0.015625)"/>
       <path id="DejaVuSans-65" d="M 3597 1894 
L 3597 1613 
L 953 1613 
Q 991 1019 1311 708 
Q 1631 397 2203 397 
Q 2534 397 2845 478 
Q 3156 559 3463 722 
L 3463 178 
Q 3153 47 2828 -22 
Q 2503 -91 2169 -91 
Q 1331 -91 842 396 
Q 353 884 353 1716 
Q 353 2575 817 3079 
Q 1281 3584 2069 3584 
Q 2775 3584 3186 3129 
Q 3597 2675 3597 1894 
z
M 3022 2063 
Q 3016 2534 2758 2815 
Q 2500 3097 2075 3097 
Q 1594 3097 1305 2825 
Q 1016 2553 972 2059 
L 3022 2063 
z
" transform="scale(0.015625)"/>
      </defs>
      <use xlink:href="#DejaVuSans-44"/>
      <use xlink:href="#DejaVuSans-61" x="77.001953"/>
      <use xlink:href="#DejaVuSans-74" x="138.28125"/>
      <use xlink:href="#DejaVuSans-65" x="177.490234"/>
     </g>
    </g>
   </g>
   <g id="matplotlib.axis_2">
    <g id="ytick_1">
     <g id="line2d_9">
      <defs>
       <path id="m5693cc8840" d="M 0 0 
L -3.5 0 
" style="stroke: #000000; stroke-width: 0.8"/>
      </defs>
      <g>
       <use xlink:href="#m5693cc8840" x="59.690625" y="341.357812" style="stroke: #000000; stroke-width: 0.8"/>
      </g>
     </g>
     <g id="text_10">
      <!-- 0 -->
      <g transform="translate(46.328125 345.157031) scale(0.1 -0.1)">
       <use xlink:href="#DejaVuSans-30"/>
      </g>
     </g>
    </g>
    <g id="ytick_2">
     <g id="line2d_10">
      <g>
       <use xlink:href="#m5693cc8840" x="59.690625" y="282.634805" style="stroke: #000000; stroke-width: 0.8"/>
      </g>
     </g>
     <g id="text_11">
      <!-- 5000 -->
      <g transform="translate(27.240625 286.434024) scale(0.1 -0.1)">
       <defs>
        <path id="DejaVuSans-35" d="M 691 4666 
L 3169 4666 
L 3169 4134 
L 1269 4134 
L 1269 2991 
Q 1406 3038 1543 3061 
Q 1681 3084 1819 3084 
Q 2600 3084 3056 2656 
Q 3513 2228 3513 1497 
Q 3513 744 3044 326 
Q 2575 -91 1722 -91 
Q 1428 -91 1123 -41 
Q 819 9 494 109 
L 494 744 
Q 775 591 1075 516 
Q 1375 441 1709 441 
Q 2250 441 2565 725 
Q 2881 1009 2881 1497 
Q 2881 1984 2565 2268 
Q 2250 2553 1709 2553 
Q 1456 2553 1204 2497 
Q 953 2441 691 2322 
L 691 4666 
z
" transform="scale(0.015625)"/>
       </defs>
       <use xlink:href="#DejaVuSans-35"/>
       <use xlink:href="#DejaVuSans-30" x="63.623047"/>
       <use xlink:href="#DejaVuSans-30" x="127.246094"/>
       <use xlink:href="#DejaVuSans-30" x="190.869141"/>
      </g>
     </g>
    </g>
    <g id="ytick_3">
     <g id="line2d_11">
      <g>
       <use xlink:href="#m5693cc8840" x="59.690625" y="223.911797" style="stroke: #000000; stroke-width: 0.8"/>
      </g>
     </g>
     <g id="text_12">
      <!-- 10000 -->
      <g transform="translate(20.878125 227.711016) scale(0.1 -0.1)">
       <use xlink:href="#DejaVuSans-31"/>
       <use xlink:href="#DejaVuSans-30" x="63.623047"/>
       <use xlink:href="#DejaVuSans-30" x="127.246094"/>
       <use xlink:href="#DejaVuSans-30" x="190.869141"/>
       <use xlink:href="#DejaVuSans-30" x="254.492188"/>
      </g>
     </g>
    </g>
    <g id="ytick_4">
     <g id="line2d_12">
      <g>
       <use xlink:href="#m5693cc8840" x="59.690625" y="165.18879" style="stroke: #000000; stroke-width: 0.8"/>
      </g>
     </g>
     <g id="text_13">
      <!-- 15000 -->
      <g transform="translate(20.878125 168.988008) scale(0.1 -0.1)">
       <use xlink:href="#DejaVuSans-31"/>
       <use xlink:href="#DejaVuSans-35" x="63.623047"/>
       <use xlink:href="#DejaVuSans-30" x="127.246094"/>
       <use xlink:href="#DejaVuSans-30" x="190.869141"/>
       <use xlink:href="#DejaVuSans-30" x="254.492188"/>
      </g>
     </g>
    </g>
    <g id="ytick_5">
     <g id="line2d_13">
      <g>
       <use xlink:href="#m5693cc8840" x="59.690625" y="106.465782" style="stroke: #000000; stroke-width: 0.8"/>
      </g>
     </g>
     <g id="text_14">
      <!-- 20000 -->
      <g transform="translate(20.878125 110.265001) scale(0.1 -0.1)">
       <use xlink:href="#DejaVuSans-32"/>
       <use xlink:href="#DejaVuSans-30" x="63.623047"/>
       <use xlink:href="#DejaVuSans-30" x="127.246094"/>
       <use xlink:href="#DejaVuSans-30" x="190.869141"/>
       <use xlink:href="#DejaVuSans-30" x="254.492188"/>
      </g>
     </g>
    </g>
    <g id="ytick_6">
     <g id="line2d_14">
      <g>
       <use xlink:href="#m5693cc8840" x="59.690625" y="47.742774" style="stroke: #000000; stroke-width: 0.8"/>
      </g>
     </g>
     <g id="text_15">
      <!-- 25000 -->
      <g transform="translate(20.878125 51.541993) scale(0.1 -0.1)">
       <use xlink:href="#DejaVuSans-32"/>
       <use xlink:href="#DejaVuSans-35" x="63.623047"/>
       <use xlink:href="#DejaVuSans-30" x="127.246094"/>
       <use xlink:href="#DejaVuSans-30" x="190.869141"/>
       <use xlink:href="#DejaVuSans-30" x="254.492188"/>
      </g>
     </g>
    </g>
    <g id="text_16">
     <!-- Ticket Redemptions -->
     <g transform="translate(14.798438 239.336719) rotate(-90) scale(0.1 -0.1)">
      <defs>
       <path id="DejaVuSans-54" d="M -19 4666 
L 3928 4666 
L 3928 4134 
L 2272 4134 
L 2272 0 
L 1638 0 
L 1638 4134 
L -19 4134 
L -19 4666 
z
" transform="scale(0.015625)"/>
       <path id="DejaVuSans-69" d="M 603 3500 
L 1178 3500 
L 1178 0 
L 603 0 
L 603 3500 
z
M 603 4863 
L 1178 4863 
L 1178 4134 
L 603 4134 
L 603 4863 
z
" transform="scale(0.015625)"/>
       <path id="DejaVuSans-63" d="M 3122 3366 
L 3122 2828 
Q 2878 2963 2633 3030 
Q 2388 3097 2138 3097 
Q 1578 3097 1268 2742 
Q 959 2388 959 1747 
Q 959 1106 1268 751 
Q 1578 397 2138 397 
Q 2388 397 2633 464 
Q 2878 531 3122 666 
L 3122 134 
Q 2881 22 2623 -34 
Q 2366 -91 2075 -91 
Q 1284 -91 818 406 
Q 353 903 353 1747 
Q 353 2603 823 3093 
Q 1294 3584 2113 3584 
Q 2378 3584 2631 3529 
Q 2884 3475 3122 3366 
z
" transform="scale(0.015625)"/>
       <path id="DejaVuSans-6b" d="M 581 4863 
L 1159 4863 
L 1159 1991 
L 2875 3500 
L 3609 3500 
L 1753 1863 
L 3688 0 
L 2938 0 
L 1159 1709 
L 1159 0 
L 581 0 
L 581 4863 
z
" transform="scale(0.015625)"/>
       <path id="DejaVuSans-20" transform="scale(0.015625)"/>
       <path id="DejaVuSans-52" d="M 2841 2188 
Q 3044 2119 3236 1894 
Q 3428 1669 3622 1275 
L 4263 0 
L 3584 0 
L 2988 1197 
Q 2756 1666 2539 1819 
Q 2322 1972 1947 1972 
L 1259 1972 
L 1259 0 
L 628 0 
L 628 4666 
L 2053 4666 
Q 2853 4666 3247 4331 
Q 3641 3997 3641 3322 
Q 3641 2881 3436 2590 
Q 3231 2300 2841 2188 
z
M 1259 4147 
L 1259 2491 
L 2053 2491 
Q 2509 2491 2742 2702 
Q 2975 2913 2975 3322 
Q 2975 3731 2742 3939 
Q 2509 4147 2053 4147 
L 1259 4147 
z
" transform="scale(0.015625)"/>
       <path id="DejaVuSans-64" d="M 2906 2969 
L 2906 4863 
L 3481 4863 
L 3481 0 
L 2906 0 
L 2906 525 
Q 2725 213 2448 61 
Q 2172 -91 1784 -91 
Q 1150 -91 751 415 
Q 353 922 353 1747 
Q 353 2572 751 3078 
Q 1150 3584 1784 3584 
Q 2172 3584 2448 3432 
Q 2725 3281 2906 2969 
z
M 947 1747 
Q 947 1113 1208 752 
Q 1469 391 1925 391 
Q 2381 391 2643 752 
Q 2906 1113 2906 1747 
Q 2906 2381 2643 2742 
Q 2381 3103 1925 3103 
Q 1469 3103 1208 2742 
Q 947 2381 947 1747 
z
" transform="scale(0.015625)"/>
       <path id="DejaVuSans-6d" d="M 3328 2828 
Q 3544 3216 3844 3400 
Q 4144 3584 4550 3584 
Q 5097 3584 5394 3201 
Q 5691 2819 5691 2113 
L 5691 0 
L 5113 0 
L 5113 2094 
Q 5113 2597 4934 2840 
Q 4756 3084 4391 3084 
Q 3944 3084 3684 2787 
Q 3425 2491 3425 1978 
L 3425 0 
L 2847 0 
L 2847 2094 
Q 2847 2600 2669 2842 
Q 2491 3084 2119 3084 
Q 1678 3084 1418 2786 
Q 1159 2488 1159 1978 
L 1159 0 
L 581 0 
L 581 3500 
L 1159 3500 
L 1159 2956 
Q 1356 3278 1631 3431 
Q 1906 3584 2284 3584 
Q 2666 3584 2933 3390 
Q 3200 3197 3328 2828 
z
" transform="scale(0.015625)"/>
       <path id="DejaVuSans-70" d="M 1159 525 
L 1159 -1331 
L 581 -1331 
L 581 3500 
L 1159 3500 
L 1159 2969 
Q 1341 3281 1617 3432 
Q 1894 3584 2278 3584 
Q 2916 3584 3314 3078 
Q 3713 2572 3713 1747 
Q 3713 922 3314 415 
Q 2916 -91 2278 -91 
Q 1894 -91 1617 61 
Q 1341 213 1159 525 
z
M 3116 1747 
Q 3116 2381 2855 2742 
Q 2594 3103 2138 3103 
Q 1681 3103 1420 2742 
Q 1159 2381 1159 1747 
Q 1159 1113 1420 752 
Q 1681 391 2138 391 
Q 2594 391 2855 752 
Q 3116 1113 3116 1747 
z
" transform="scale(0.015625)"/>
       <path id="DejaVuSans-6f" d="M 1959 3097 
Q 1497 3097 1228 2736 
Q 959 2375 959 1747 
Q 959 1119 1226 758 
Q 1494 397 1959 397 
Q 2419 397 2687 759 
Q 2956 1122 2956 1747 
Q 2956 2369 2687 2733 
Q 2419 3097 1959 3097 
z
M 1959 3584 
Q 2709 3584 3137 3096 
Q 3566 2609 3566 1747 
Q 3566 888 3137 398 
Q 2709 -91 1959 -91 
Q 1206 -91 779 398 
Q 353 888 353 1747 
Q 353 2609 779 3096 
Q 1206 3584 1959 3584 
z
" transform="scale(0.015625)"/>
       <path id="DejaVuSans-6e" d="M 3513 2113 
L 3513 0 
L 2938 0 
L 2938 2094 
Q 2938 2591 2744 2837 
Q 2550 3084 2163 3084 
Q 1697 3084 1428 2787 
Q 1159 2491 1159 1978 
L 1159 0 
L 581 0 
L 581 3500 
L 1159 3500 
L 1159 2956 
Q 1366 3272 1645 3428 
Q 1925 3584 2291 3584 
Q 2894 3584 3203 3211 
Q 3513 2838 3513 2113 
z
" transform="scale(0.015625)"/>
       <path id="DejaVuSans-73" d="M 2834 3397 
L 2834 2853 
Q 2591 2978 2328 3040 
Q 2066 3103 1784 3103 
Q 1356 3103 1142 2972 
Q 928 2841 928 2578 
Q 928 2378 1081 2264 
Q 1234 2150 1697 2047 
L 1894 2003 
Q 2506 1872 2764 1633 
Q 3022 1394 3022 966 
Q 3022 478 2636 193 
Q 2250 -91 1575 -91 
Q 1294 -91 989 -36 
Q 684 19 347 128 
L 347 722 
Q 666 556 975 473 
Q 1284 391 1588 391 
Q 1994 391 2212 530 
Q 2431 669 2431 922 
Q 2431 1156 2273 1281 
Q 2116 1406 1581 1522 
L 1381 1569 
Q 847 1681 609 1914 
Q 372 2147 372 2553 
Q 372 3047 722 3315 
Q 1072 3584 1716 3584 
Q 2034 3584 2315 3537 
Q 2597 3491 2834 3397 
z
" transform="scale(0.015625)"/>
      </defs>
      <use xlink:href="#DejaVuSans-54"/>
      <use xlink:href="#DejaVuSans-69" x="57.958984"/>
      <use xlink:href="#DejaVuSans-63" x="85.742188"/>
      <use xlink:href="#DejaVuSans-6b" x="140.722656"/>
      <use xlink:href="#DejaVuSans-65" x="195.007812"/>
      <use xlink:href="#DejaVuSans-74" x="256.53125"/>
      <use xlink:href="#DejaVuSans-20" x="295.740234"/>
      <use xlink:href="#DejaVuSans-52" x="327.527344"/>
      <use xlink:href="#DejaVuSans-65" x="392.509766"/>
      <use xlink:href="#DejaVuSans-64" x="454.033203"/>
      <use xlink:href="#DejaVuSans-65" x="517.509766"/>
      <use xlink:href="#DejaVuSans-6d" x="579.033203"/>
      <use xlink:href="#DejaVuSans-70" x="676.445312"/>
      <use xlink:href="#DejaVuSans-74" x="739.921875"/>
      <use xlink:href="#DejaVuSans-69" x="779.130859"/>
      <use xlink:href="#DejaVuSans-6f" x="806.914062"/>
      <use xlink:href="#DejaVuSans-6e" x="868.095703"/>
      <use xlink:href="#DejaVuSans-73" x="931.474609"/>
     </g>
    </g>
   </g>
   <g id="line2d_15">
    <path d="M 110.417898 340.617903 
L 110.804539 337.094522 
L 111.191179 330.000783 
L 111.57782 308.085356 
L 111.964461 294.87268 
L 112.351102 323.259382 
L 112.737743 338.057579 
L 113.124383 324.457331 
L 113.511024 316.682405 
L 113.897665 311.20942 
L 114.284306 297.773596 
L 114.670947 334.369775 
L 115.057587 337.247202 
L 115.444228 334.252329 
L 115.830869 308.70782 
L 116.21751 335.074451 
L 116.60415 339.302507 
L 116.990791 339.643101 
L 117.377432 338.938425 
L 117.764073 334.099649 
L 118.150714 335.062706 
L 118.537354 334.264073 
L 118.923995 335.227131 
L 119.310636 337.200224 
L 119.697277 336.624738 
L 120.083918 337.047544 
L 120.470558 336.542526 
L 120.857199 336.495547 
L 121.24384 336.765673 
L 121.630481 336.847886 
L 122.017122 336.671716 
L 122.403762 337.106267 
L 122.790403 338.691788 
L 123.177044 339.114594 
L 123.563685 337.305925 
L 123.950326 336.894864 
L 124.336966 337.423371 
L 124.723607 336.765673 
L 125.110248 337.223713 
L 125.496889 339.384719 
L 125.88353 337.728731 
L 126.27017 337.846177 
L 126.656811 338.398173 
L 127.043452 337.282436 
L 127.430093 336.918353 
L 127.816734 337.705241 
L 128.203374 338.797489 
L 128.590015 337.987112 
L 128.976656 338.233748 
L 129.363297 337.493839 
L 129.749938 337.857921 
L 130.136578 339.279018 
L 130.523219 339.07936 
L 130.90986 338.433407 
L 131.296501 338.33945 
L 131.683142 338.022346 
L 132.069782 337.940133 
L 132.456423 338.609576 
L 132.843064 337.364648 
L 133.229705 337.035799 
L 133.616346 337.728731 
L 134.002986 337.670008 
L 134.389627 337.846177 
L 134.776268 337.576051 
L 135.162909 337.082778 
L 135.54955 337.799198 
L 135.93619 335.931807 
L 136.322831 338.292472 
L 136.709472 338.844468 
L 137.096113 338.832723 
L 137.482754 338.092813 
L 137.869394 338.550853 
L 138.256035 337.364648 
L 138.642676 336.883119 
L 139.029317 337.305925 
L 139.415958 336.812652 
L 139.802598 335.99053 
L 140.189239 335.602958 
L 140.57588 334.757346 
L 140.962521 335.68517 
L 141.349162 333.488929 
L 141.735802 336.495547 
L 142.122443 336.965332 
L 142.509084 333.841268 
L 142.895725 336.284145 
L 143.282366 337.01231 
L 143.669006 335.755638 
L 144.055647 331.327923 
L 144.442288 336.495547 
L 144.828929 335.83785 
L 145.21557 333.33625 
L 145.988851 335.555979 
L 146.375492 331.163498 
L 146.762133 334.604667 
L 147.148774 336.671716 
L 147.535414 335.567724 
L 147.922055 333.171825 
L 148.308696 334.94526 
L 148.695337 335.391555 
L 149.081978 331.668516 
L 149.468618 331.069542 
L 149.855259 328.650154 
L 150.2419 271.818027 
L 150.628541 256.585279 
L 151.015182 260.6724 
L 151.401822 268.353369 
L 151.788463 304.550231 
L 152.175104 232.297443 
L 152.561745 134.723293 
L 152.948386 265.593388 
L 153.335026 229.466994 
L 153.721667 230.841112 
L 154.108308 233.777263 
L 154.494949 287.825919 
L 155.26823 133.865937 
L 155.654871 236.584222 
L 156.041512 271.019394 
L 156.428153 226.765735 
L 156.814794 285.817592 
L 157.201434 256.467833 
L 157.974716 119.561013 
L 158.361357 237.042262 
L 158.747998 312.301668 
L 159.134638 246.297008 
L 159.521279 266.685636 
L 159.90792 234.317514 
L 160.294561 172.916737 
L 160.681201 181.619487 
L 161.067842 254.330315 
L 161.454483 254.271592 
L 161.841124 242.632692 
L 162.227765 266.732614 
L 162.614405 250.219705 
L 163.001046 185.671375 
L 163.387687 220.411906 
L 163.774328 153.902228 
L 164.160969 319.219239 
L 164.547609 311.643971 
L 164.93425 324.081504 
L 165.320891 312.677496 
L 165.707532 259.591897 
L 166.094173 226.847948 
L 166.480813 310.457766 
L 166.867454 298.807121 
L 167.254095 314.380463 
L 168.027377 294.485108 
L 168.414017 187.609234 
L 168.800658 198.508224 
L 169.187299 311.831884 
L 169.57394 312.289924 
L 169.960581 304.973037 
L 170.347221 303.258325 
L 170.733862 294.661277 
L 171.120503 180.515495 
L 171.507144 190.68632 
L 171.893785 292.006997 
L 172.280425 295.506888 
L 172.667066 306.288432 
L 173.053707 313.851956 
L 173.440348 331.140009 
L 173.826989 285.841081 
L 174.213629 275.482343 
L 174.60027 315.507945 
L 174.986911 307.134044 
L 175.373552 327.146845 
L 175.760193 308.696076 
L 176.146833 315.413988 
L 176.533474 295.178039 
L 176.920115 268.376859 
L 177.306756 301.872462 
L 177.693397 311.221165 
L 178.080037 332.020854 
L 178.466678 328.203859 
L 178.853319 322.120155 
L 179.23996 320.922206 
L 179.626601 328.967258 
L 180.013241 325.925406 
L 180.399882 321.685605 
L 180.786523 320.100084 
L 181.173164 317.939077 
L 181.559805 312.372136 
L 181.946445 292.817374 
L 182.333086 290.163094 
L 182.719727 327.792798 
L 183.106368 328.979002 
L 183.493009 328.650154 
L 183.879649 325.831449 
L 184.26629 325.150262 
L 184.652931 334.545944 
L 185.039572 326.089831 
L 185.426213 330.317887 
L 185.812853 327.099866 
L 186.199494 332.655063 
L 186.586135 333.864757 
L 186.972776 325.678769 
L 187.359417 329.143427 
L 187.746057 337.482094 
L 188.132698 331.562815 
L 188.519339 331.692005 
L 188.90598 327.510927 
L 189.292621 333.806034 
L 189.679261 333.829523 
L 190.065902 332.044343 
L 190.452543 333.629865 
L 190.839184 333.524163 
L 191.225825 332.760764 
L 191.612465 334.017437 
L 191.999106 332.302725 
L 192.385747 329.472276 
L 192.772388 336.201932 
L 193.159029 333.841268 
L 193.93231 332.525872 
L 194.318951 333.500674 
L 194.705592 333.394973 
L 195.092233 329.307851 
L 195.478873 330.541034 
L 195.865514 335.344577 
L 196.638796 329.906826 
L 197.025437 333.911735 
L 197.412077 334.804325 
L 197.798718 334.51071 
L 198.185359 330.576268 
L 198.572 333.265782 
L 198.958641 334.66339 
L 199.345281 334.921771 
L 199.731922 333.888246 
L 200.118563 332.361448 
L 200.891845 335.509001 
L 201.665126 335.4033 
L 202.051767 336.014019 
L 202.438408 332.091322 
L 202.825049 334.898282 
L 203.211689 334.874792 
L 203.59833 335.732148 
L 203.984971 335.896573 
L 204.371612 335.415044 
L 204.758252 333.477185 
L 205.144893 333.254037 
L 205.531534 332.795998 
L 205.918175 335.344577 
L 206.304816 336.448569 
L 206.691456 335.074451 
L 207.078097 335.978785 
L 207.464738 337.200224 
L 207.851379 335.732148 
L 208.23802 335.544235 
L 208.62466 336.107976 
L 209.011301 334.980494 
L 209.784583 337.258947 
L 210.171224 340.888028 
L 210.557864 341.357812 
L 211.717787 341.357812 
L 212.104428 336.542526 
L 212.491068 335.861339 
L 212.877709 334.94526 
L 213.26435 334.79258 
L 213.650991 334.968749 
L 214.037632 336.213677 
L 214.424272 336.107976 
L 214.810913 336.366357 
L 215.197554 336.436824 
L 215.584195 335.344577 
L 215.970836 335.297598 
L 216.357476 334.94526 
L 216.744117 334.933515 
L 217.130758 333.148336 
L 217.517399 335.567724 
L 217.90404 336.11972 
L 218.29068 334.94526 
L 218.677321 334.804325 
L 219.063962 334.804325 
L 219.450603 334.029181 
L 219.837244 335.931807 
L 220.223884 334.322796 
L 220.610525 335.873084 
L 220.997166 335.708659 
L 221.383807 335.708659 
L 221.770448 335.227131 
L 222.157088 335.215386 
L 222.543729 341.193388 
L 223.317011 335.344577 
L 223.703652 334.933515 
L 224.090292 336.166699 
L 224.476933 335.309343 
L 225.250215 336.977076 
L 225.636856 336.988821 
L 226.023496 334.416753 
L 226.410137 334.628156 
L 226.796778 333.430206 
L 227.183419 334.604667 
L 227.57006 333.676843 
L 227.9567 335.68517 
L 228.343341 330.752437 
L 228.729982 337.176734 
L 229.116623 335.238875 
L 229.503264 334.628156 
L 229.889904 333.430206 
L 230.276545 334.240584 
L 230.663186 332.995656 
L 231.049827 333.289271 
L 231.436468 332.326214 
L 231.823108 330.96384 
L 232.209749 334.040926 
L 232.59639 335.203641 
L 232.983031 334.475476 
L 233.369672 329.977294 
L 234.142953 333.794289 
L 234.529594 334.592922 
L 234.916235 334.957005 
L 235.302876 333.46544 
L 235.689516 334.040926 
L 236.462798 332.431915 
L 236.849439 335.215386 
L 237.23608 332.584595 
L 237.62272 333.876501 
L 238.009361 333.136591 
L 238.396002 333.993947 
L 238.782643 329.777635 
L 239.169284 330.658481 
L 239.555924 333.383228 
L 239.942565 333.864757 
L 240.329206 332.572851 
L 240.715847 333.441951 
L 241.102488 331.821196 
L 241.489128 328.89679 
L 241.875769 331.128265 
L 242.26241 330.705459 
L 242.649051 335.285854 
L 243.035692 330.494056 
L 243.422332 335.274109 
L 243.808973 324.187205 
L 244.195614 325.279453 
L 244.582255 327.005909 
L 244.968896 327.828032 
L 245.355536 334.957005 
L 245.742177 335.555979 
L 246.128818 332.572851 
L 246.515459 334.66339 
L 246.9021 332.514128 
L 247.28874 333.759055 
L 247.675381 332.1383 
L 248.062022 332.772509 
L 248.448663 333.629865 
L 248.835303 334.05267 
L 249.221944 332.784253 
L 249.608585 337.822687 
L 249.995226 339.784036 
L 251.155148 331.128265 
L 251.541789 332.831232 
L 251.92843 326.559615 
L 252.315071 315.719347 
L 252.701711 311.620481 
L 253.861634 332.619829 
L 254.248275 319.947404 
L 254.634915 317.821631 
L 255.021556 328.262582 
L 255.408197 316.576703 
L 256.181479 303.70462 
L 256.568119 311.878863 
L 256.95476 327.428715 
L 257.341401 327.851521 
L 257.728042 261.318353 
L 258.114683 312.630517 
L 258.501323 312.301668 
L 258.887964 308.226292 
L 259.274605 312.184222 
L 259.661246 321.356756 
L 260.047887 316.377045 
L 260.434527 309.588665 
L 260.821168 255.08197 
L 261.59445 326.277744 
L 261.981091 295.812248 
L 262.754372 306.51158 
L 263.141013 325.103284 
L 263.527654 159.398701 
L 263.914295 162.651956 
L 264.300935 323.975802 
L 264.687576 294.87268 
L 265.074217 293.451583 
L 265.460858 274.131713 
L 265.847499 237.512046 
L 266.234139 215.385217 
L 266.62078 275.40013 
L 267.007421 289.963436 
L 267.394062 292.558993 
L 267.780703 310.03496 
L 268.167343 284.983725 
L 268.553984 206.858636 
L 268.940625 304.949548 
L 269.713907 310.422532 
L 270.100547 303.70462 
L 270.487188 289.41144 
L 270.873829 257.12553 
L 271.26047 209.031387 
L 271.647111 180.19839 
L 272.033751 273.50925 
L 272.420392 278.406748 
L 272.807033 314.45093 
L 273.193674 270.890203 
L 273.580315 249.280137 
L 273.966955 88.649222 
L 274.353596 110.21231 
L 274.740237 299.828902 
L 275.126878 262.070008 
L 275.513519 264.994413 
L 275.900159 253.684362 
L 276.2868 232.309187 
L 276.673441 304.092192 
L 277.060082 321.345012 
L 277.446723 222.596402 
L 277.833363 250.889147 
L 278.220004 322.56645 
L 278.606645 240.142837 
L 278.993286 213.435613 
L 279.766567 38.957812 
L 280.153208 174.478769 
L 280.539849 239.684797 
L 280.92649 220.552841 
L 281.313131 265.217561 
L 281.699771 199.694429 
L 282.086412 101.439093 
L 282.473053 91.373969 
L 282.859694 235.398018 
L 283.246335 238.028808 
L 284.406257 219.906888 
L 284.792898 118.586211 
L 285.179539 87.885822 
L 285.566179 277.92522 
L 286.339461 166.504185 
L 286.726102 194.702973 
L 287.112743 163.039528 
L 287.499383 90.281721 
L 287.886024 306.311922 
L 288.272665 241.5287 
L 288.659306 266.955762 
L 289.045947 227.329476 
L 289.432587 247.048662 
L 289.819228 198.602181 
L 290.205869 107.722454 
L 290.59251 111.198856 
L 290.97915 199.729663 
L 291.365791 236.114438 
L 291.752432 258.593606 
L 292.139073 201.86718 
L 292.525714 196.311984 
L 292.912354 103.012869 
L 293.298995 66.545881 
L 293.685636 172.881504 
L 294.458918 309.670878 
L 294.845558 209.125344 
L 295.232199 182.371142 
L 295.61884 68.178381 
L 296.005481 117.106391 
L 296.392122 228.985465 
L 296.778762 219.448849 
L 297.165403 204.36878 
L 297.938685 295.436421 
L 298.325326 107.745944 
L 298.711966 100.02974 
L 299.485248 328.579686 
L 299.871889 239.61433 
L 300.25853 188.865906 
L 300.64517 190.22828 
L 301.031811 239.391182 
L 301.418452 147.430952 
L 301.805093 285.453509 
L 302.191734 227.717048 
L 302.578374 280.473798 
L 302.965015 212.378599 
L 303.351656 203.311766 
L 303.738297 95.085263 
L 304.124938 153.726059 
L 304.511578 171.436918 
L 304.898219 297.233345 
L 305.28486 291.525468 
L 305.671501 309.659133 
L 306.058142 291.76036 
L 306.444782 235.433251 
L 306.831423 275.094771 
L 307.218064 332.126556 
L 307.604705 310.868827 
L 307.991346 300.075538 
L 308.377986 297.256834 
L 308.764627 283.703564 
L 309.151268 184.132832 
L 309.537909 189.112543 
L 309.92455 297.174622 
L 310.31119 293.639497 
L 310.697831 300.451365 
L 311.084472 317.633717 
L 311.471113 305.994817 
L 311.857754 261.095206 
L 312.244394 250.20796 
L 312.631035 317.081721 
L 313.017676 327.346503 
L 313.404317 310.481255 
L 313.790958 306.887407 
L 314.177598 298.666186 
L 314.564239 270.620078 
L 314.95088 307.615572 
L 315.337521 325.690514 
L 315.724162 330.364865 
L 316.110802 313.969402 
L 316.497443 308.472928 
L 316.884084 315.919006 
L 317.270725 319.01958 
L 318.044006 310.727892 
L 318.430647 295.483399 
L 318.817288 289.928202 
L 319.203929 315.789815 
L 319.59057 318.831667 
L 319.97721 315.895516 
L 320.363851 303.775088 
L 320.750492 327.910244 
L 321.137133 319.736001 
L 321.523774 325.37341 
L 321.910414 323.329849 
L 322.297055 313.14728 
L 322.683696 315.965984 
L 323.070337 325.115029 
L 323.456978 322.848321 
L 323.843618 327.240801 
L 324.230259 323.599975 
L 324.6169 323.717421 
L 325.003541 326.418679 
L 325.390182 330.599758 
L 325.776822 332.619829 
L 326.163463 330.952096 
L 326.550104 319.888681 
L 326.936745 327.769309 
L 327.323386 332.795998 
L 327.710026 331.692005 
L 328.096667 327.651863 
L 328.483308 318.855156 
L 328.869949 331.304434 
L 329.25659 330.787671 
L 330.029871 329.014236 
L 330.416512 331.527581 
L 330.803153 330.482311 
L 331.576434 329.260873 
L 331.963075 331.257455 
L 332.349716 330.212186 
L 332.736357 328.145136 
L 333.122998 334.534199 
L 333.509638 332.572851 
L 333.896279 333.254037 
L 334.28292 330.000783 
L 334.669561 330.822905 
L 335.056201 330.846394 
L 335.442842 331.762473 
L 335.829483 329.953804 
L 336.216124 337.211968 
L 336.602765 333.136591 
L 336.989405 333.46544 
L 337.376046 332.59634 
L 337.762687 331.2692 
L 338.149328 332.373192 
L 338.535969 331.809451 
L 338.922609 332.819487 
L 339.30925 334.769091 
L 339.695891 332.608084 
L 340.082532 332.056088 
L 340.469173 330.670225 
L 340.855813 332.490638 
L 341.242454 334.851303 
L 341.629095 334.968749 
L 342.015736 332.819487 
L 342.402377 332.995656 
L 342.789017 332.842976 
L 343.175658 329.225639 
L 343.562299 331.374901 
L 344.335581 334.240584 
L 344.722221 334.07616 
L 345.882144 329.895081 
L 346.268785 330.541034 
L 346.655425 331.656772 
L 347.042066 333.61812 
L 347.428707 334.745602 
L 347.815348 333.794289 
L 348.201989 333.500674 
L 348.588629 334.287562 
L 348.97527 333.653354 
L 349.361911 332.502383 
L 349.748552 330.37661 
L 350.521833 334.416753 
L 350.908474 332.995656 
L 351.295115 334.134883 
L 351.681756 334.545944 
L 352.068397 329.50751 
L 352.841678 334.757346 
L 353.228319 334.134883 
L 353.61496 332.126556 
L 354.001601 332.690297 
L 354.388241 332.819487 
L 354.774882 332.760764 
L 355.161523 336.178443 
L 355.548164 336.507292 
L 355.934805 332.795998 
L 356.321445 332.983912 
L 356.708086 332.478894 
L 357.094727 335.509001 
L 357.481368 332.384937 
L 357.868009 337.153245 
L 358.254649 338.116302 
L 358.64129 337.176734 
L 359.027931 332.995656 
L 359.414572 333.559397 
L 359.801213 332.150045 
L 360.187853 331.715495 
L 360.961135 337.352903 
L 361.347776 334.322796 
L 361.734417 337.094522 
L 362.121057 332.467149 
L 362.507698 334.111393 
L 362.894339 332.866466 
L 363.28098 334.757346 
L 363.667621 335.4033 
L 364.054261 332.490638 
L 364.440902 334.123138 
L 364.827543 337.129756 
L 365.214184 332.995656 
L 365.600825 331.938642 
L 365.987465 335.074451 
L 366.374106 336.049253 
L 366.760747 332.631574 
L 367.147388 340.700115 
L 367.534029 337.9049 
L 367.920669 332.467149 
L 368.30731 335.168407 
L 368.693951 334.134883 
L 369.080592 336.612993 
L 369.467233 334.745602 
L 369.853873 332.00911 
L 370.240514 332.608084 
L 370.627155 332.408426 
L 371.013796 331.457113 
L 371.400437 333.359739 
L 371.787077 339.07936 
L 372.173718 334.287562 
L 372.560359 333.113102 
L 372.947 334.851303 
L 373.720281 330.270909 
L 374.106922 336.671716 
L 374.880204 333.066124 
L 375.266845 333.606375 
L 375.653485 331.386646 
L 376.040126 332.59634 
L 376.426767 332.173534 
L 376.813408 331.527581 
L 377.200049 337.44686 
L 377.586689 335.861339 
L 377.97333 333.782545 
L 378.359971 335.873084 
L 378.746612 335.215386 
L 379.133252 333.535908 
L 379.519893 334.111393 
L 379.906534 333.864757 
L 380.293175 334.416753 
L 380.679816 329.390064 
L 381.066456 330.306142 
L 381.453097 329.378319 
L 381.839738 331.821196 
L 382.226379 328.814578 
L 382.61302 330.81116 
L 383.386301 329.812869 
L 383.772942 328.133391 
L 384.159583 331.926897 
L 384.546224 324.48082 
L 384.932864 337.540817 
L 385.319505 336.612993 
L 385.706146 330.693714 
L 386.092787 330.740693 
L 386.479428 329.765891 
L 386.866068 329.331341 
L 387.252709 332.44366 
L 387.63935 321.204076 
L 388.025991 328.849812 
L 388.412632 325.596557 
L 388.799272 329.190405 
L 389.185913 327.781053 
L 389.572554 331.926897 
L 389.959195 328.791089 
L 390.345836 305.748181 
L 390.732476 338.374684 
L 391.119117 327.264291 
L 391.505758 328.18037 
L 391.892399 317.927332 
L 392.27904 323.423806 
L 392.66568 334.921771 
L 393.052321 315.21433 
L 393.438962 271.641858 
L 394.212244 328.885046 
L 394.598884 318.420606 
L 394.985525 315.507945 
L 395.372166 330.96384 
L 395.758807 322.801342 
L 396.145448 312.078521 
L 396.532088 329.284362 
L 396.918729 321.591648 
L 397.30537 329.765891 
L 398.078652 321.861774 
L 398.465292 317.880354 
L 398.851933 277.948709 
L 399.238574 319.17226 
L 399.625215 324.774435 
L 400.011856 321.345012 
L 400.398496 330.893373 
L 400.785137 320.440677 
L 401.171778 295.483399 
L 401.558419 331.280944 
L 401.94506 333.18357 
L 402.718341 318.89039 
L 403.104982 317.868609 
L 403.491623 305.207929 
L 403.878264 281.213708 
L 404.264904 187.797148 
L 404.651545 274.836389 
L 405.038186 305.207929 
L 405.424827 323.494274 
L 405.811468 319.266217 
L 406.198108 300.075538 
L 406.584749 326.136809 
L 406.97139 237.570769 
L 407.358031 298.654441 
L 407.744672 329.613211 
L 408.131312 322.601684 
L 408.517953 317.84512 
L 408.904594 300.557067 
L 409.291235 301.755016 
L 409.677876 286.428311 
L 410.064516 310.751381 
L 410.837798 330.165207 
L 411.224439 295.74178 
L 411.61108 277.067864 
L 411.99772 209.313258 
L 412.384361 247.436234 
L 412.771002 332.314469 
L 413.157643 289.188293 
L 413.544284 288.260469 
L 413.930924 331.39839 
L 415.090847 205.214392 
L 415.477488 308.883989 
L 415.864128 282.329445 
L 416.250769 284.502197 
L 416.63741 319.078303 
L 417.410692 194.327146 
L 417.797332 223.759117 
L 418.183973 300.510088 
L 418.570614 280.802647 
L 418.957255 279.334572 
L 419.343896 265.381985 
L 419.730536 284.25556 
L 420.117177 173.022439 
L 420.503818 95.602026 
L 420.890459 136.625919 
L 421.2771 295.283741 
L 421.66374 244.805443 
L 422.050381 237.958341 
L 422.437022 243.748429 
L 422.823663 209.900488 
L 423.210303 158.09505 
L 423.596944 251.5351 
L 423.983585 256.890638 
L 424.370226 249.010011 
L 424.756867 299.335628 
L 425.143507 231.463576 
L 425.530148 125.597738 
L 425.916789 97.786522 
L 426.30343 241.65789 
L 426.690071 269.175492 
L 427.076711 314.932459 
L 427.463352 244.276936 
L 427.849993 276.692037 
L 428.623275 171.495641 
L 429.009915 259.368749 
L 429.396556 230.711922 
L 429.783197 223.301078 
L 430.169838 235.926525 
L 430.556479 220.811222 
L 430.943119 123.46022 
L 431.716401 243.630983 
L 432.103042 294.931403 
L 432.489683 211.098437 
L 432.876323 212.026261 
L 433.262964 217.886817 
L 433.649605 140.818742 
L 434.036246 89.00156 
L 434.422887 116.941967 
L 434.809527 305.020015 
L 435.196168 244.089023 
L 435.582809 271.453944 
L 436.356091 128.216784 
L 436.742731 152.140537 
L 437.129372 264.489396 
L 437.516013 231.968594 
L 437.902654 220.235737 
L 438.289295 234.387982 
L 438.675935 222.279298 
L 439.062576 258.534883 
L 439.449217 202.243007 
L 439.835858 228.879764 
L 440.222499 209.207556 
L 440.609139 258.687562 
L 440.99578 208.773006 
L 441.382421 219.484083 
L 441.769062 138.716458 
L 442.155703 139.303688 
L 442.928984 320.851738 
L 443.315625 206.682467 
L 443.702266 222.373254 
L 444.088907 214.739263 
L 444.475547 126.302414 
L 444.862188 239.144545 
L 445.248829 192.365798 
L 445.63547 307.016598 
L 446.022111 313.288215 
L 446.408751 301.931185 
L 446.795392 313.804977 
L 447.182033 251.323697 
L 447.568674 243.584005 
L 447.955315 308.8605 
L 448.341955 311.197676 
L 448.728596 292.2184 
L 449.115237 314.110337 
L 449.501878 315.554923 
L 449.888519 238.933143 
L 450.275159 316.118664 
L 450.6618 315.731092 
L 451.048441 300.756725 
L 451.435082 301.778505 
L 451.821723 299.065502 
L 452.208363 290.844281 
L 452.595004 196.441174 
L 452.981645 226.061059 
L 453.368286 314.356974 
L 453.754927 307.462893 
L 454.141567 307.744763 
L 454.528208 314.415697 
L 454.914849 299.453074 
L 455.30149 311.338611 
L 455.688131 278.230579 
L 456.074771 318.632009 
L 456.461412 309.835302 
L 456.848053 329.883337 
L 457.234694 325.103284 
L 457.621335 309.471219 
L 458.007975 305.853882 
L 458.394616 319.266217 
L 458.781257 319.090048 
L 459.167898 313.981146 
L 459.554539 313.018089 
L 459.941179 314.60361 
L 460.32782 307.09881 
L 460.714461 310.434277 
L 461.101102 285.629678 
L 462.261024 330.987329 
L 462.647665 326.618338 
L 463.420947 306.51158 
L 463.807587 302.025142 
L 464.194228 321.955731 
L 464.580869 331.140009 
L 464.96751 322.190623 
L 465.35415 321.321522 
L 465.740791 324.363374 
L 466.127432 316.588448 
L 466.514073 333.958714 
L 466.900714 320.734292 
L 467.287354 325.631791 
L 467.673995 332.854721 
L 468.060636 331.915153 
L 468.447277 328.791089 
L 468.833918 332.326214 
L 469.220558 326.477402 
L 469.607199 329.989038 
L 469.99384 328.473985 
L 470.767122 331.750728 
L 471.153762 327.898499 
L 471.540403 331.386646 
L 471.927044 331.128265 
L 472.313685 334.381519 
L 472.700326 332.349703 
L 473.086966 332.514128 
L 473.473607 331.656772 
L 473.860248 331.85643 
L 474.246889 335.168407 
L 474.63353 333.019145 
L 475.02017 333.077868 
L 475.406811 331.926897 
L 475.793452 331.785962 
L 476.180093 332.197023 
L 476.566734 332.913444 
L 476.953374 330.482311 
L 477.340015 333.113102 
L 477.726656 334.686879 
L 478.113297 329.084704 
L 478.499938 332.314469 
L 478.886578 329.777635 
L 479.273219 330.423588 
L 479.65986 333.371483 
L 480.046501 339.196806 
L 480.819782 330.07125 
L 481.206423 332.795998 
L 481.593064 332.114811 
L 481.979705 334.440242 
L 482.366346 333.559397 
L 482.752986 334.557688 
L 483.139627 333.430206 
L 483.526268 333.066124 
L 483.912909 331.093031 
L 484.29955 331.304434 
L 484.68619 330.447078 
L 485.072831 337.869666 
L 485.459472 335.426789 
L 485.846113 331.821196 
L 486.232754 331.98562 
L 486.619394 332.455405 
L 487.006035 332.44366 
L 487.392676 330.752437 
L 487.779317 332.349703 
L 488.165958 332.643318 
L 488.552598 331.151754 
L 488.939239 334.604667 
L 489.32588 334.686879 
L 489.712521 335.673425 
L 490.485802 326.289489 
L 490.872443 337.540817 
L 491.259084 333.171825 
L 491.645725 335.180152 
L 492.032366 333.817778 
L 492.419006 331.70375 
L 493.192288 334.733857 
L 493.578929 335.215386 
L 493.96557 332.678552 
L 494.35221 332.784253 
L 494.738851 333.394973 
L 495.125492 332.678552 
L 495.512133 332.44366 
L 495.898774 337.998856 
L 496.285414 336.483803 
L 496.672055 332.619829 
L 497.058696 333.113102 
L 497.445337 332.514128 
L 497.831978 332.619829 
L 498.605259 337.623029 
L 498.9919 336.953587 
L 499.378541 335.53249 
L 499.765182 333.054379 
L 500.151822 332.244002 
L 500.538463 332.244002 
L 500.925104 332.561106 
L 501.311745 337.059288 
L 501.698386 336.225422 
L 502.085026 332.784253 
L 502.471667 332.349703 
L 502.858308 331.42188 
L 503.244949 332.279236 
L 503.63159 331.903408 
L 504.404871 336.742184 
L 504.791512 331.034308 
L 505.178153 331.997365 
L 505.564794 331.656772 
L 505.951434 336.084486 
L 506.338075 336.248911 
L 506.724716 335.497256 
L 507.111357 336.73044 
L 507.497998 331.903408 
L 507.884638 335.450278 
L 508.271279 335.086195 
L 508.65792 333.019145 
L 509.044561 336.096231 
L 509.431201 335.743893 
L 510.204483 331.55107 
L 510.591124 332.525872 
L 510.977765 331.692005 
L 511.364405 333.571142 
L 511.751046 333.723822 
L 512.137687 331.962131 
L 512.524328 328.802833 
L 513.297609 332.349703 
L 514.070891 333.488929 
L 514.457532 332.666807 
L 514.844173 334.94526 
L 515.230813 334.992238 
L 515.617454 333.371483 
L 516.004095 332.901699 
L 516.390736 330.447078 
L 516.777377 330.329632 
L 517.164017 332.831232 
L 517.550658 331.316178 
L 517.937299 323.165425 
L 518.710581 332.760764 
L 519.483862 331.832941 
L 519.870503 332.807743 
L 520.257144 335.121429 
L 520.643785 333.066124 
L 521.030425 337.822687 
L 521.803707 338.64481 
L 522.190348 338.750511 
L 522.576989 339.07936 
L 522.963629 339.008892 
L 523.35027 340.206842 
L 524.123552 338.92668 
L 524.510193 339.51391 
L 525.283474 339.384719 
L 526.056756 340.465223 
L 526.830037 339.572633 
L 527.216678 339.596122 
L 527.603319 339.490421 
L 527.98996 339.607867 
L 528.376601 339.983694 
L 528.763241 340.523946 
L 529.149882 339.877993 
L 530.309805 339.408209 
L 530.696445 340.805816 
L 531.083086 339.643101 
L 531.469727 340.981985 
L 531.856368 340.629647 
L 532.243009 339.678334 
L 533.01629 339.314252 
L 533.789572 339.760547 
L 534.176213 340.606158 
L 534.562853 339.525655 
L 534.949494 339.79578 
L 535.336135 339.114594 
L 536.109417 339.478676 
L 536.496057 339.784036 
L 536.882698 340.723604 
L 537.269339 339.560888 
L 537.65598 339.408209 
L 538.429261 339.584378 
L 538.815902 339.008892 
L 539.202543 339.631356 
L 539.589184 339.81927 
L 539.975825 339.737057 
L 540.362465 338.950169 
L 541.135747 339.314252 
L 541.522388 338.64481 
L 541.909029 339.936716 
L 542.295669 340.007183 
L 542.68231 339.701824 
L 543.455592 338.586087 
L 543.842233 339.185061 
L 544.228873 339.36123 
L 544.615514 338.633065 
L 545.002155 340.218586 
L 545.388796 340.55918 
L 545.775437 338.950169 
L 546.162077 338.362939 
L 546.548718 338.128047 
L 546.935359 338.292472 
L 547.708641 340.124629 
L 548.095281 338.844468 
L 548.481922 338.703533 
L 548.868563 339.008892 
L 549.255204 338.480385 
L 549.641845 338.914935 
L 550.028485 338.856212 
L 550.415126 339.478676 
L 550.801767 338.750511 
L 551.575049 338.550853 
L 551.961689 337.740475 
L 552.34833 338.128047 
L 552.734971 338.680043 
L 553.121612 339.020637 
L 553.508252 338.715277 
L 553.894893 338.116302 
L 554.281534 338.586087 
L 554.668175 337.987112 
L 555.054816 337.681752 
L 555.828097 338.903191 
L 556.214738 338.210259 
L 556.98802 337.611285 
L 557.761301 337.282436 
L 558.147942 337.482094 
L 558.534583 338.198515 
L 558.921224 338.480385 
L 559.307864 338.257238 
L 559.694505 337.305925 
L 560.081146 337.341159 
L 560.467787 336.260655 
L 560.854428 320.769526 
L 561.241068 292.124443 
L 561.627709 317.774653 
L 562.01435 318.772944 
L 562.400991 274.448818 
L 562.787632 309.952748 
L 563.174272 309.060158 
L 563.560913 279.980525 
L 563.947554 294.085791 
L 564.334195 318.385372 
L 564.720836 320.417188 
L 565.107476 320.076595 
L 565.880758 313.722765 
L 566.267399 328.826323 
L 566.65404 296.188075 
L 567.04068 324.821414 
L 567.427321 315.367009 
L 567.813962 312.055032 
L 568.200603 334.992238 
L 568.973884 280.27414 
L 569.360525 319.900426 
L 569.747166 312.665751 
L 570.133807 315.531434 
L 570.520448 334.040926 
L 571.293729 303.317048 
L 571.68037 271.794538 
L 572.067011 282.693528 
L 572.453652 329.589722 
L 572.840292 310.974528 
L 573.226933 321.990965 
L 574.000215 297.785341 
L 574.386856 281.025794 
L 574.773496 327.111611 
L 575.160137 316.893808 
L 575.546778 333.876501 
L 575.933419 308.238036 
L 576.32006 306.3589 
L 576.7067 302.81203 
L 577.093341 277.408457 
L 577.479982 281.941873 
L 577.866623 312.242945 
L 578.253264 327.252546 
L 578.639904 302.635861 
L 579.026545 307.028342 
L 579.413186 296.48169 
L 579.799827 279.933547 
L 580.186468 313.605319 
L 580.573108 325.138518 
L 580.959749 309.764834 
L 581.34639 308.531651 
L 581.733031 304.538487 
L 582.119672 309.330284 
L 582.506312 277.361479 
L 582.892953 276.915184 
L 583.279594 312.924132 
L 583.666235 305.020015 
L 584.439516 322.26109 
L 585.212798 295.964928 
L 585.599439 279.299338 
L 585.98608 308.061867 
L 586.37272 310.704403 
L 586.759361 329.777635 
L 587.146002 304.808613 
L 587.532643 302.389225 
L 587.919284 276.962162 
L 588.305924 278.324536 
L 588.692565 315.355265 
L 589.079206 334.51071 
L 589.465847 328.755855 
L 589.852488 330.411844 
L 590.239128 322.519472 
L 590.625769 303.728109 
L 591.01241 320.992673 
L 591.399051 330.400099 
L 591.785692 331.492347 
L 592.172332 319.04307 
L 592.558973 330.881628 
L 592.945614 328.603175 
L 593.332255 316.001218 
L 593.718896 318.538052 
L 594.105536 331.445369 
L 594.492177 330.52929 
L 594.878818 321.897008 
L 595.265459 330.740693 
L 595.6521 322.437259 
L 596.03874 298.595718 
L 596.425381 308.097101 
L 596.812022 329.131682 
L 597.198663 333.723822 
L 597.585303 335.520746 
L 597.971944 332.619829 
L 598.358585 335.027472 
L 598.745226 326.430424 
L 599.131867 337.200224 
L 599.518507 332.173534 
L 599.905148 331.692005 
L 600.291789 334.863048 
L 600.67843 332.995656 
L 601.065071 330.353121 
L 601.451711 322.120155 
L 601.838352 328.532708 
L 602.224993 332.373192 
L 602.611634 330.752437 
L 602.998275 331.39839 
L 603.384915 335.779127 
L 603.771556 332.72553 
L 604.158197 326.900208 
L 604.544838 335.027472 
L 604.931479 335.485512 
L 605.318119 334.311052 
L 605.70476 335.015728 
L 606.091401 335.203641 
L 606.478042 327.346503 
L 606.864683 331.973876 
L 607.251323 335.062706 
L 607.637964 335.039217 
L 608.024605 335.37981 
L 608.411246 332.502383 
L 608.797887 335.109684 
L 609.571168 332.572851 
L 609.957809 339.044126 
L 610.34445 335.779127 
L 610.731091 335.285854 
L 611.117731 331.973876 
L 611.504372 333.547652 
L 612.277654 325.291198 
L 613.050935 328.215603 
L 613.437576 325.197241 
L 613.824217 330.141718 
L 614.210858 333.207059 
L 614.597499 333.782545 
L 614.984139 332.995656 
L 615.37078 340.124629 
L 615.757421 336.049253 
L 616.144062 335.309343 
L 616.917343 334.675134 
L 617.303984 333.46544 
L 618.077266 339.913227 
L 618.463907 335.931807 
L 618.850547 335.579469 
L 619.237188 335.790871 
L 619.623829 335.168407 
L 620.01047 335.003983 
L 620.397111 336.319378 
L 620.783751 336.131465 
L 621.170392 336.448569 
L 621.557033 338.351195 
L 621.943674 335.708659 
L 622.330315 335.109684 
L 622.716955 335.790871 
L 623.490237 338.680043 
L 623.876878 335.567724 
L 624.263519 335.4033 
L 624.650159 335.802616 
L 625.0368 334.957005 
L 625.423441 334.440242 
L 625.810082 339.279018 
L 626.196723 338.480385 
L 626.583363 335.720404 
L 626.970004 335.062706 
L 627.356645 335.978785 
L 628.129927 334.581177 
L 628.516567 338.128047 
L 628.903208 339.173317 
L 629.289849 337.810943 
L 629.67649 337.31767 
L 630.063131 336.178443 
L 630.449771 338.539108 
L 630.836412 339.737057 
L 631.609694 337.893155 
L 631.996335 339.149827 
L 632.382975 337.129756 
L 632.769616 338.680043 
L 633.156257 336.918353 
L 633.542898 338.938425 
L 633.929539 337.282436 
L 634.316179 339.478676 
L 634.70282 338.715277 
L 635.476102 338.233748 
L 635.862743 337.893155 
L 636.249383 337.998856 
L 636.636024 335.426789 
L 637.022665 337.916644 
L 637.409306 338.398173 
L 637.795947 338.386428 
L 638.182587 337.998856 
L 638.569228 338.715277 
L 638.955869 338.961914 
L 639.34251 337.728731 
L 639.72915 339.443442 
L 640.115791 338.985403 
L 640.502432 338.762256 
L 640.889073 338.691788 
L 641.275714 338.433407 
L 641.662354 338.527364 
L 642.048995 337.623029 
L 642.435636 338.950169 
L 642.822277 338.515619 
L 643.208918 339.290763 
L 643.595558 338.409918 
L 643.982199 338.64481 
L 644.36884 338.362939 
L 644.755481 335.227131 
L 645.142122 338.456896 
L 645.528762 338.633065 
L 645.915403 338.222004 
L 646.302044 336.695206 
L 646.688685 337.799198 
L 647.075326 338.49213 
L 647.461966 335.826105 
L 647.848607 336.107976 
L 648.235248 338.03409 
L 649.39517 337.282436 
L 649.781811 337.587795 
L 650.168452 334.816069 
L 650.555093 330.96384 
L 650.941734 333.371483 
L 651.328374 338.785745 
L 651.715015 335.180152 
L 652.101656 336.57776 
L 652.488297 336.354612 
L 652.874938 337.188479 
L 653.261578 341.357812 
L 653.648219 341.357812 
L 654.03486 340.629647 
L 654.421501 337.282436 
L 655.194782 335.884828 
L 655.581423 333.92348 
L 655.968064 338.727022 
L 656.354705 337.822687 
L 656.741346 337.31767 
L 657.127986 335.520746 
L 657.514627 336.695206 
L 657.901268 336.648227 
L 658.287909 335.509001 
L 658.67455 333.723822 
L 659.06119 336.695206 
L 659.447831 335.086195 
L 659.834472 334.698623 
L 660.221113 336.519037 
L 660.607754 334.545944 
L 660.994394 331.175243 
L 661.381035 336.988821 
L 661.767676 337.106267 
L 662.154317 337.482094 
L 662.540958 336.284145 
L 662.927598 337.552562 
L 663.314239 335.96704 
L 663.70088 320.111828 
L 664.087521 324.19895 
L 664.474162 333.876501 
L 665.247443 336.389846 
L 665.634084 333.46544 
L 666.020725 337.211968 
L 666.407366 331.926897 
L 666.794006 339.067615 
L 667.180647 336.589504 
L 667.567288 330.869883 
L 667.953929 336.918353 
L 668.34057 336.742184 
L 668.72721 331.233966 
L 669.113851 332.925189 
L 669.500492 321.838285 
L 669.887133 335.003983 
L 670.273774 335.955296 
L 670.660414 334.827814 
L 671.047055 334.240584 
L 671.433696 336.342868 
L 671.820337 321.497691 
L 672.206978 339.643101 
L 672.593618 338.304216 
L 672.980259 336.319378 
L 673.3669 332.819487 
L 673.753541 337.658263 
L 674.140182 336.436824 
L 674.526822 336.55427 
L 674.913463 335.602958 
L 675.300104 337.364648 
L 675.686745 337.834432 
L 676.073386 338.809234 
L 676.460026 338.081069 
L 676.846667 332.302725 
L 677.233308 328.861556 
L 677.619949 335.121429 
L 678.00659 336.953587 
L 678.39323 337.141501 
L 678.779871 338.175025 
L 679.166512 337.975367 
L 679.553153 337.258947 
L 679.939794 331.280944 
L 680.326434 336.213677 
L 680.713075 337.951878 
L 681.099716 337.987112 
L 681.486357 336.800907 
L 681.872998 334.463731 
L 682.259638 336.85963 
L 682.646279 327.546161 
L 683.03292 331.128265 
L 683.419561 336.519037 
L 683.806201 336.683461 
L 684.192842 331.210477 
L 684.966124 327.546161 
L 685.352765 313.311704 
L 685.739405 310.481255 
L 686.126046 330.329632 
L 686.512687 326.54787 
L 686.899328 326.430424 
L 687.285969 328.932024 
L 687.672609 313.018089 
L 688.05925 313.382172 
L 688.445891 272.475725 
L 688.832532 272.088153 
L 689.219173 323.365083 
L 689.605813 333.571142 
L 689.992454 323.036234 
L 690.379095 337.576051 
L 690.765736 299.276905 
L 691.152377 289.787267 
L 691.539017 320.475911 
L 691.925658 321.450713 
L 692.312299 323.341594 
L 692.69894 333.982203 
L 693.085581 319.524598 
L 693.472221 273.121678 
L 693.858862 266.28632 
L 694.245503 319.148771 
L 694.632144 334.040926 
L 695.405425 315.4962 
L 695.792066 312.595283 
L 696.178707 272.076408 
L 696.565348 280.86137 
L 696.951989 331.445369 
L 697.338629 320.616846 
L 697.72527 317.574994 
L 698.111911 315.860283 
L 698.498552 332.74902 
L 698.885193 262.3049 
L 699.271833 267.167165 
L 699.658474 328.427006 
L 700.045115 324.586522 
L 700.818397 308.625608 
L 701.205037 321.380245 
L 701.591678 316.917297 
L 701.978319 265.616877 
L 702.36496 314.427441 
L 702.751601 329.272618 
L 703.138241 320.734292 
L 703.524882 271.982451 
L 703.911523 311.702694 
L 704.298164 249.303626 
L 704.684805 255.481286 
L 705.071445 299.711456 
L 705.458086 308.508162 
L 706.231368 332.936933 
L 706.618009 314.615355 
L 707.004649 247.776828 
L 707.39129 306.687749 
L 707.777931 314.873736 
L 708.164572 319.935659 
L 708.551213 293.956601 
L 709.324494 304.162659 
L 709.711135 309.999726 
L 710.097776 250.771701 
L 710.484417 285.747124 
L 710.871057 303.258325 
L 711.257698 266.579935 
L 711.644339 284.631387 
L 712.03098 261.741159 
L 712.417621 283.644841 
L 712.804261 214.152033 
L 713.577543 321.168842 
L 713.964184 255.880603 
L 714.350825 322.190623 
L 714.737465 242.409545 
L 715.124106 224.076222 
L 715.510747 288.483616 
L 715.897388 173.28082 
L 716.284029 268.130222 
L 716.670669 255.880603 
L 717.05731 248.669417 
L 717.830592 265.769557 
L 718.217233 208.080074 
L 718.990514 317.621973 
L 719.763796 279.322827 
L 720.150437 290.632879 
L 720.537077 184.943209 
L 720.923718 189.582327 
L 721.310359 255.034991 
L 721.697 300.204729 
L 722.083641 294.755234 
L 722.470281 276.609824 
L 722.856922 247.812061 
L 723.243563 188.795439 
L 724.016845 265.652111 
L 724.403485 236.06746 
L 724.790126 293.369371 
L 725.176767 282.18851 
L 725.563408 249.714687 
L 725.950049 201.397396 
L 726.336689 266.744359 
L 726.72333 278.371515 
L 727.109971 263.596806 
L 727.496612 267.00274 
L 727.883252 257.994631 
L 728.269893 245.874202 
L 728.656534 169.851396 
L 729.043175 176.745478 
L 729.429816 213.388634 
L 729.816456 282.693528 
L 730.203097 318.115246 
L 730.589738 327.616629 
L 730.976379 309.776579 
L 731.36302 263.866932 
L 731.74966 313.898934 
L 732.136301 321.579904 
L 732.522942 326.747528 
L 732.909583 325.443877 
L 733.296224 317.856865 
L 733.682864 307.38068 
L 734.069505 259.157346 
L 734.456146 269.433873 
L 734.842787 314.709312 
L 735.229428 326.817996 
L 735.616068 334.863048 
L 736.38935 320.875227 
L 736.775991 318.068268 
L 737.162632 299.464819 
L 737.549272 326.559615 
L 737.935913 322.366792 
L 738.322554 321.027907 
L 739.095836 317.081721 
L 739.482476 280.015759 
L 739.869117 333.242293 
L 740.255758 332.431915 
L 740.642399 328.239093 
L 741.02904 326.606593 
L 741.41568 326.500892 
L 741.802321 326.747528 
L 742.188962 328.591431 
L 742.575603 295.401187 
L 742.962244 285.594444 
L 743.348884 323.811378 
L 743.735525 318.103501 
L 744.508807 330.68197 
L 744.895448 327.628373 
L 745.282088 320.276253 
L 745.668729 327.980711 
L 746.05537 319.689023 
L 746.828652 333.077868 
L 747.601933 320.95744 
L 747.988574 312.019798 
L 748.375215 334.886537 
L 748.761856 333.888246 
L 749.148496 320.37021 
L 749.535137 327.757564 
L 749.921778 331.081286 
L 750.308419 335.649936 
L 750.69506 321.051396 
L 751.0817 328.579686 
L 751.468341 329.448787 
L 751.854982 331.656772 
L 752.241623 331.645027 
L 752.628264 326.947186 
L 753.014904 318.972602 
L 753.401545 315.449222 
L 754.174827 331.104775 
L 754.561468 328.262582 
L 754.948108 327.146845 
L 755.334749 325.643536 
L 755.72139 325.361665 
L 756.108031 337.341159 
L 756.494672 332.29098 
L 756.881312 331.680261 
L 757.267953 334.087904 
L 757.654594 333.430206 
L 758.041235 331.797707 
L 758.427876 331.151754 
L 758.814516 335.68517 
L 759.201157 333.629865 
L 759.587798 332.854721 
L 759.974439 331.468858 
L 760.36108 333.841268 
L 760.74772 332.29098 
L 761.134361 331.762473 
L 761.521002 338.49213 
L 761.907643 334.346285 
L 762.294284 334.252329 
L 762.680924 333.747311 
L 763.067565 333.817778 
L 763.454206 332.960422 
L 763.840847 333.007401 
L 764.227488 338.010601 
L 764.614128 334.698623 
L 765.000769 333.665099 
L 765.38741 334.628156 
L 765.774051 334.346285 
L 766.160692 333.629865 
L 766.547332 335.708659 
L 766.933973 333.254037 
L 767.320614 332.713786 
L 767.707255 333.148336 
L 768.093896 334.933515 
L 768.480536 333.876501 
L 768.867177 333.371483 
L 769.253818 337.623029 
L 769.640459 334.874792 
L 770.0271 335.661681 
L 770.41374 335.003983 
L 770.800381 336.295889 
L 771.187022 335.943551 
L 771.573663 337.411626 
L 771.960303 335.826105 
L 772.346944 332.866466 
L 772.733585 338.045835 
L 773.120226 333.524163 
L 773.506867 334.592922 
L 773.893507 332.819487 
L 774.280148 332.960422 
L 775.05343 337.305925 
L 775.440071 335.109684 
L 775.826711 335.779127 
L 776.213352 338.715277 
L 776.599993 337.153245 
L 776.986634 337.024055 
L 777.373275 334.980494 
L 777.759915 337.681752 
L 778.146556 338.727022 
L 778.533197 338.456896 
L 778.919838 336.73044 
L 779.306479 336.906609 
L 779.693119 336.601249 
L 780.07976 336.648227 
L 780.466401 328.814578 
L 780.853042 339.842759 
L 781.239683 337.799198 
L 781.626323 335.003983 
L 782.012964 335.849594 
L 782.399605 335.050961 
L 782.786246 331.809451 
L 783.172887 332.960422 
L 783.559527 335.790871 
L 783.946168 334.722113 
L 784.71945 335.238875 
L 785.106091 333.935224 
L 785.492731 327.933733 
L 785.879372 330.599758 
L 786.266013 335.743893 
L 786.652654 333.301016 
L 787.039295 335.602958 
L 787.425935 335.849594 
L 787.812576 334.686879 
L 788.199217 331.844685 
L 788.585858 330.200441 
L 788.972499 333.888246 
L 789.359139 334.710368 
L 789.74578 333.864757 
L 790.132421 337.094522 
L 790.519062 341.357812 
L 790.905703 341.357812 
L 791.292343 340.336032 
L 792.065625 334.710368 
L 792.452266 333.759055 
L 792.838907 336.143209 
L 793.225547 337.047544 
L 793.612188 336.248911 
L 793.998829 334.05267 
L 794.38547 329.6367 
L 794.772111 335.027472 
L 795.158751 333.347994 
L 795.545392 332.831232 
L 795.932033 334.757346 
L 796.318674 333.958714 
L 796.705315 336.812652 
L 797.478596 333.31276 
L 798.251878 333.218804 
L 798.638519 332.455405 
L 799.025159 333.33625 
L 799.4118 324.022781 
L 799.798441 335.649936 
L 800.185082 332.702041 
L 800.571723 332.326214 
L 800.958363 332.384937 
L 801.345004 334.921771 
L 801.731645 335.520746 
L 802.118286 337.763964 
L 802.504927 333.383228 
L 802.891567 337.176734 
L 803.278208 334.886537 
L 803.664849 322.672151 
L 804.438131 335.83785 
L 804.824771 325.314687 
L 805.211412 329.554488 
L 805.598053 331.680261 
L 805.984694 335.53249 
L 806.371335 332.103067 
L 806.757975 332.760764 
L 807.144616 332.44366 
L 807.531257 337.529072 
L 808.304539 331.010819 
L 808.691179 335.168407 
L 809.07782 331.198732 
L 809.464461 335.544235 
L 809.851102 322.542961 
L 810.237743 334.451987 
L 810.624383 330.658481 
L 811.011024 331.715495 
L 811.397665 333.371483 
L 811.784306 330.317887 
L 812.170947 331.2692 
L 812.557587 331.069542 
L 812.944228 323.094957 
L 813.330869 330.400099 
L 813.71751 317.069977 
L 814.10415 330.176952 
L 814.490791 326.958931 
L 814.877432 319.289706 
L 815.264073 306.94613 
L 815.650714 305.900861 
L 816.037354 332.197023 
L 816.423995 331.668516 
L 816.810636 321.227565 
L 817.197277 330.775927 
L 817.583918 314.192549 
L 817.970558 330.07125 
L 818.357199 290.574156 
L 818.74384 330.317887 
L 819.130481 325.725748 
L 819.517122 328.955513 
L 820.290403 314.650589 
L 820.677044 292.488526 
L 821.063685 333.606375 
L 821.450326 325.314687 
L 821.836966 329.589722 
L 822.223607 319.771235 
L 822.610248 313.840211 
L 822.996889 320.511145 
L 823.38353 283.680074 
L 823.77017 266.56819 
L 824.156811 316.717639 
L 824.543452 319.113537 
L 825.703374 300.063794 
L 826.090015 219.143489 
L 826.476656 258.863731 
L 826.863297 328.943769 
L 827.249938 317.434059 
L 827.636578 316.858574 
L 828.023219 314.638844 
L 828.40986 303.187858 
L 828.796501 278.371515 
L 829.183142 274.648476 
L 829.569782 200.446083 
L 829.956423 311.961075 
L 830.343064 316.846829 
L 830.729705 316.623682 
L 831.116346 324.727457 
L 831.502986 220.482374 
L 831.889627 216.31304 
L 832.276268 291.736871 
L 832.662909 293.67473 
L 833.04955 326.794507 
L 833.43619 310.046705 
L 833.822831 280.802647 
L 834.209472 185.671375 
L 834.596113 230.206904 
L 834.982754 314.509653 
L 835.369394 327.745819 
L 835.756035 292.758651 
L 836.142676 312.313413 
L 836.529317 269.022812 
L 836.915958 248.751629 
L 837.302598 301.390934 
L 837.689239 279.346316 
L 838.07588 285.876315 
L 838.462521 301.50838 
L 838.849162 304.256616 
L 839.235802 263.690763 
L 839.622443 146.279981 
L 840.009084 115.391679 
L 840.395725 295.718291 
L 840.782366 268.623495 
L 841.169006 288.201746 
L 841.942288 243.57226 
L 842.328929 128.228529 
L 842.71557 264.512885 
L 843.10221 260.872058 
L 843.488851 261.494522 
L 843.875492 305.630735 
L 844.262133 246.496666 
L 845.035414 107.675476 
L 845.422055 139.397645 
L 846.195337 313.346938 
L 846.581978 245.568842 
L 846.968618 252.674326 
L 847.355259 254.764865 
L 847.7419 141.006655 
L 848.128541 132.773689 
L 848.515182 238.204977 
L 848.901822 271.818027 
L 849.288463 282.024086 
L 849.675104 229.807587 
L 850.061745 224.170179 
L 850.448386 73.604387 
L 850.835026 135.240056 
L 851.221667 302.036887 
L 851.608308 266.532956 
L 851.994949 255.375585 
L 852.38159 231.475321 
L 852.76823 221.151816 
L 853.154871 123.166605 
L 853.541512 289.282249 
L 853.928153 221.504154 
L 854.314794 230.91158 
L 854.701434 234.775554 
L 855.088075 212.695703 
L 855.474716 213.494336 
L 855.861357 135.063887 
L 856.247998 104.351754 
L 857.021279 229.819332 
L 857.40792 233.835986 
L 857.794561 301.48489 
L 858.567842 124.329321 
L 859.341124 305.219674 
L 859.727765 246.649346 
L 860.114405 218.885108 
L 860.501046 214.786242 
L 860.887687 203.49968 
L 861.274328 98.937492 
L 862.43425 230.065968 
L 862.820891 259.357005 
L 863.594173 210.652142 
L 863.980813 131.235147 
L 864.367454 271.395221 
L 864.754095 315.085139 
L 865.140736 243.771918 
L 865.527377 232.908162 
L 865.914017 285.664912 
L 866.300658 263.279702 
L 866.687299 155.382047 
L 867.07394 168.195408 
L 867.847221 313.8637 
L 868.233862 249.397583 
L 868.620503 238.756974 
L 869.007144 210.382016 
L 869.393785 157.390374 
L 869.780425 252.627348 
L 870.167066 241.129383 
L 870.553707 298.525251 
L 870.940348 313.370427 
L 871.326989 299.946348 
L 871.713629 290.550666 
L 872.10027 212.014516 
L 872.486911 251.910927 
L 872.873552 325.103284 
L 873.260193 319.677278 
L 873.646833 300.427876 
L 874.033474 305.818648 
L 874.420115 301.179531 
L 874.806756 219.754208 
L 875.193397 296.669604 
L 875.580037 293.275414 
L 875.966678 298.443039 
L 876.353319 320.252764 
L 877.126601 309.823557 
L 877.513241 260.848569 
L 877.899882 327.205568 
L 878.286523 326.817996 
L 878.673164 329.542743 
L 879.833086 303.058667 
L 880.219727 292.688184 
L 880.606368 295.013615 
L 880.993009 320.922206 
L 881.379649 318.925624 
L 881.76629 311.432568 
L 882.152931 320.017872 
L 882.539572 324.78618 
L 882.926213 300.674513 
L 883.699494 287.297412 
L 884.086135 308.719565 
L 884.472776 323.61172 
L 884.859417 330.470567 
L 885.246057 317.434059 
L 885.632698 314.861991 
L 886.019339 311.538269 
L 886.40598 329.155172 
L 886.792621 330.317887 
L 887.179261 321.920497 
L 887.565902 329.519254 
L 887.952543 319.6303 
L 888.339184 286.122952 
L 888.725825 289.200037 
L 889.112465 313.969402 
L 889.499106 320.264508 
L 889.885747 329.824614 
L 890.272388 321.08663 
L 890.659029 321.97922 
L 891.045669 304.338829 
L 891.43231 318.632009 
L 891.818951 327.769309 
L 892.592233 324.363374 
L 892.978873 330.611502 
L 893.365514 322.355047 
L 893.752155 301.132552 
L 894.138796 301.132552 
L 894.525437 325.866683 
L 894.912077 327.604884 
L 895.298718 327.957222 
L 895.685359 318.819922 
L 896.072 333.277527 
L 896.458641 321.180587 
L 896.845281 329.413553 
L 897.231922 330.012527 
L 897.618563 334.581177 
L 898.005204 334.628156 
L 898.391845 332.478894 
L 898.778485 333.935224 
L 899.165126 331.915153 
L 899.551767 335.473767 
L 899.938408 332.455405 
L 900.325049 331.11652 
L 900.711689 329.237384 
L 901.09833 332.244002 
L 901.484971 328.473985 
L 901.871612 318.866901 
L 902.258252 337.352903 
L 902.644893 331.915153 
L 903.031534 332.29098 
L 903.418175 334.440242 
L 903.804816 333.453696 
L 904.191456 333.524163 
L 904.578097 334.07616 
L 904.964738 331.010819 
L 905.351379 334.874792 
L 905.73802 333.33625 
L 906.12466 332.302725 
L 906.511301 329.671934 
L 906.897942 333.230548 
L 907.284583 334.405008 
L 907.671224 337.435116 
L 908.057864 333.817778 
L 908.444505 333.606375 
L 908.831146 335.332832 
L 909.217787 336.460314 
L 909.604428 333.277527 
L 909.991068 333.453696 
L 910.377709 335.191897 
L 910.76435 331.891664 
L 911.150991 332.584595 
L 911.537632 330.059506 
L 911.924272 333.477185 
L 912.310913 340.429989 
L 912.697554 341.357812 
L 913.084195 335.450278 
L 913.470836 335.144918 
L 913.857476 332.337959 
L 914.244117 332.220513 
L 914.630758 325.948895 
L 915.017399 331.457113 
L 915.40404 334.79258 
L 915.79068 332.772509 
L 916.177321 327.792798 
L 916.563962 336.413335 
L 916.950603 336.530781 
L 917.337244 333.876501 
L 917.723884 333.477185 
L 918.110525 329.836358 
L 918.497166 335.015728 
L 918.883807 332.619829 
L 919.657088 334.275818 
L 920.043729 334.733857 
L 920.43037 336.659972 
L 920.817011 331.433624 
L 921.203652 331.022563 
L 921.590292 332.349703 
L 921.976933 337.329414 
L 922.363574 332.255746 
L 922.750215 335.015728 
L 923.136856 333.394973 
L 923.523496 332.972167 
L 923.910137 336.800907 
L 924.296778 330.176952 
L 924.683419 333.500674 
L 925.07006 333.277527 
L 925.4567 336.037508 
L 925.843341 333.7708 
L 926.229982 332.784253 
L 926.616623 337.505583 
L 927.003264 333.441951 
L 927.389904 335.309343 
L 927.776545 331.621538 
L 928.163186 332.537617 
L 928.549827 335.391555 
L 928.936468 340.054162 
L 929.323108 332.220513 
L 929.709749 332.631574 
L 930.09639 335.99053 
L 930.483031 331.363157 
L 930.869672 335.579469 
L 931.256312 333.406717 
L 931.642953 327.616629 
L 932.029594 325.620046 
L 932.416235 331.304434 
L 932.802876 330.83465 
L 933.189516 333.723822 
L 933.576157 331.633282 
L 933.962798 335.309343 
L 934.73608 324.316396 
L 935.12272 322.26109 
L 935.509361 331.339667 
L 935.896002 334.863048 
L 936.282643 337.31767 
L 936.669284 331.539326 
L 937.055924 335.109684 
L 937.442565 330.83465 
L 937.829206 335.415044 
L 938.215847 331.316178 
L 938.602488 331.903408 
L 938.989128 330.09474 
L 939.375769 334.123138 
L 939.76241 332.936933 
L 940.149051 331.175243 
L 940.922332 333.7708 
L 941.308973 329.143427 
L 941.695614 332.431915 
L 942.082255 332.972167 
L 942.468896 332.537617 
L 943.242177 334.416753 
L 943.628818 334.968749 
L 944.015459 329.014236 
L 944.4021 330.893373 
L 944.78874 335.767382 
L 945.175381 332.972167 
L 945.562022 333.888246 
L 945.948663 328.051179 
L 946.335303 327.769309 
L 946.721944 331.891664 
L 947.108585 333.089613 
L 947.495226 328.15688 
L 947.881867 337.634774 
L 948.268507 315.766326 
L 948.655148 332.572851 
L 949.041789 331.879919 
L 949.42843 334.170116 
L 949.815071 330.118229 
L 950.201711 336.025763 
L 950.588352 326.336467 
L 950.974993 321.262799 
L 951.361634 326.348212 
L 951.748275 332.948678 
L 952.134915 323.036234 
L 952.521556 323.776144 
L 952.908197 292.629461 
L 953.294838 294.027068 
L 953.681479 285.71189 
L 954.45476 318.796433 
L 954.841401 304.374062 
L 955.228042 297.573938 
L 955.614683 301.167786 
L 956.001323 271.970707 
L 956.387964 282.728762 
L 956.774605 331.762473 
L 957.161246 329.296107 
L 957.547887 325.162007 
L 957.934527 324.727457 
L 958.321168 318.15048 
L 958.707809 327.240801 
L 959.09445 310.786615 
L 959.481091 326.019363 
L 960.254372 317.574994 
L 960.641013 304.221382 
L 961.027654 324.833158 
L 961.800935 332.948678 
L 962.187576 324.78618 
L 962.574217 328.121647 
L 962.960858 328.333049 
L 963.347499 319.712512 
L 963.734139 302.624117 
L 964.12078 235.292316 
L 964.507421 318.714221 
L 964.894062 307.415914 
L 965.280703 310.387298 
L 965.667343 307.850464 
L 966.053984 303.105645 
L 966.440625 293.98009 
L 966.827266 215.831511 
L 967.213907 249.221414 
L 967.600547 306.311922 
L 967.987188 308.543396 
L 968.373829 320.605102 
L 969.147111 300.439621 
L 969.533751 278.547684 
L 969.920392 108.509343 
L 970.693674 287.332645 
L 971.080315 316.341811 
L 971.853596 293.404604 
L 972.240237 186.528731 
L 972.626878 186.000224 
L 973.013519 284.901513 
L 973.400159 295.30723 
L 973.7868 285.371297 
L 974.173441 288.741998 
L 974.560082 278.982234 
L 974.946723 177.086071 
L 975.333363 211.709156 
L 975.720004 288.765487 
L 976.106645 294.731744 
L 976.493286 289.493652 
L 976.879927 317.574994 
L 977.266567 309.647388 
L 977.653208 181.408084 
L 978.039849 281.742215 
L 978.42649 311.3621 
L 978.813131 299.535286 
L 979.199771 312.031542 
L 979.586412 305.219674 
L 979.973053 291.008706 
L 980.359694 89.682746 
L 980.746335 125.926587 
L 981.132975 264.900457 
L 981.519616 255.704434 
L 981.906257 260.989504 
L 982.292898 270.537865 
L 982.679539 289.857735 
L 983.066179 276.01085 
L 983.45282 179.91652 
L 983.839461 300.604045 
L 984.226102 318.021289 
L 984.612743 271.947218 
L 984.999383 243.619239 
L 985.386024 257.325189 
L 985.772665 122.497163 
L 986.159306 249.080478 
L 986.545947 187.926338 
L 986.932587 226.765735 
L 987.319228 171.131558 
L 987.705869 276.809483 
L 988.47915 144.400845 
L 988.865791 198.426012 
L 989.639073 261.788137 
L 990.025714 231.874637 
L 990.412354 277.173565 
L 990.798995 200.892378 
L 991.185636 176.604542 
L 991.572277 141.60563 
L 991.958918 248.258356 
L 992.345558 243.360857 
L 992.732199 208.996153 
L 993.11884 257.689271 
L 993.505481 230.512263 
L 993.892122 96.35368 
L 994.278762 159.868485 
L 994.665403 270.890203 
L 995.052044 251.182762 
L 995.438685 218.896852 
L 995.825326 241.740102 
L 996.211966 224.910088 
L 996.598607 255.986304 
L 996.985248 118.691912 
L 997.371889 237.629492 
L 997.75853 222.525934 
L 998.14517 228.445213 
L 998.531811 241.458232 
L 998.918452 211.579966 
L 999.305093 124.399789 
L 999.691734 95.836918 
L 1000.078374 280.920093 
L 1000.465015 264.595097 
L 1000.851656 190.251769 
L 1001.238297 275.388386 
L 1001.624938 189.229989 
L 1002.011578 232.109529 
L 1002.398219 131.610974 
L 1002.78486 228.421724 
L 1003.171501 214.657051 
L 1003.558142 194.303657 
L 1004.331423 250.231449 
L 1004.718064 94.709436 
L 1005.104705 136.625919 
L 1005.491346 238.792207 
L 1005.877986 230.935069 
L 1006.264627 294.84919 
L 1006.651268 257.419145 
L 1007.037909 238.604294 
L 1007.42455 204.991244 
L 1007.81119 148.499711 
L 1008.197831 225.7557 
L 1008.584472 229.455249 
L 1008.971113 256.56179 
L 1009.357754 227.587858 
L 1009.744394 212.355109 
L 1010.517676 112.655187 
L 1010.904317 164.108286 
L 1011.290958 288.906422 
L 1011.677598 293.0875 
L 1012.064239 311.925841 
L 1012.45088 301.026851 
L 1012.837521 230.688432 
L 1013.224162 230.711922 
L 1013.610802 298.39606 
L 1013.997443 321.356756 
L 1014.384084 313.511362 
L 1015.157366 287.19171 
L 1015.544006 207.563312 
L 1016.317288 307.873954 
L 1016.703929 306.863918 
L 1017.09057 306.558558 
L 1017.47721 302.694584 
L 1017.863851 292.629461 
L 1018.250492 243.971577 
L 1018.637133 253.519938 
L 1019.023774 303.963001 
L 1019.410414 316.377045 
L 1019.797055 313.065067 
L 1020.183696 315.331776 
L 1020.570337 294.614298 
L 1020.956978 253.837042 
L 1021.343618 254.741376 
L 1021.730259 289.200037 
L 1022.1169 293.886133 
L 1022.503541 294.344173 
L 1022.890182 301.848973 
L 1023.276822 306.629026 
L 1023.663463 286.686692 
L 1024.050104 313.992891 
L 1024.436745 310.18764 
L 1024.823386 262.070008 
L 1025.210026 320.170551 
L 1025.596667 313.076812 
L 1025.983308 317.081721 
L 1026.369949 315.413988 
L 1026.75659 320.393699 
L 1027.14323 323.45904 
L 1027.529871 318.725965 
L 1028.303153 322.472493 
L 1028.689794 330.012527 
L 1029.076434 315.378754 
L 1029.463075 314.039869 
L 1029.849716 320.65208 
L 1030.236357 315.766326 
L 1030.622998 321.709094 
L 1031.009638 329.765891 
L 1031.396279 314.721056 
L 1031.78292 294.72 
L 1032.169561 328.133391 
L 1032.556201 319.360174 
L 1033.329483 330.541034 
L 1033.716124 330.153463 
L 1034.876046 319.383663 
L 1035.262687 333.195314 
L 1035.649328 331.997365 
L 1036.035969 329.836358 
L 1036.422609 330.235675 
L 1036.80925 325.267708 
L 1037.195891 326.876719 
L 1037.582532 325.009327 
L 1037.969173 318.549796 
L 1038.355813 331.527581 
L 1039.129095 327.839776 
L 1039.515736 331.574559 
L 1039.902377 320.100084 
L 1040.289017 327.205568 
L 1040.675658 330.799416 
L 1041.062299 337.01231 
L 1041.44894 332.384937 
L 1041.835581 331.093031 
L 1042.222221 330.799416 
L 1042.608862 327.510927 
L 1042.995503 334.064415 
L 1043.382144 314.216038 
L 1043.768785 335.368066 
L 1044.155425 335.68517 
L 1044.542066 328.7676 
L 1044.928707 335.920062 
L 1045.315348 332.619829 
L 1045.701989 336.025763 
L 1046.088629 334.123138 
L 1046.47527 334.604667 
L 1046.861911 333.806034 
L 1047.248552 335.168407 
L 1047.635193 333.782545 
L 1048.021833 331.327923 
L 1048.408474 334.616411 
L 1048.795115 334.957005 
L 1049.181756 312.125499 
L 1049.568397 334.545944 
L 1049.955037 327.59314 
L 1050.341678 329.366574 
L 1051.11496 334.651645 
L 1051.501601 335.050961 
L 1051.888241 329.448787 
L 1052.274882 332.420171 
L 1052.661523 330.435333 
L 1053.048164 332.678552 
L 1053.434805 336.143209 
L 1053.821445 330.188696 
L 1054.208086 330.047761 
L 1054.981368 336.331123 
L 1055.368009 332.913444 
L 1055.754649 331.621538 
L 1056.14129 327.616629 
L 1057.301213 331.586304 
L 1057.687853 332.279236 
L 1058.074494 330.705459 
L 1058.461135 334.346285 
L 1058.847776 334.675134 
L 1059.234417 335.555979 
L 1059.621057 335.368066 
L 1060.007698 336.953587 
L 1060.394339 335.802616 
L 1060.78098 335.790871 
L 1061.167621 328.849812 
L 1061.554261 339.889737 
L 1062.327543 335.53249 
L 1062.714184 336.495547 
L 1063.100825 335.673425 
L 1063.487465 335.602958 
L 1063.874106 334.874792 
L 1064.260747 336.11972 
L 1064.647388 331.668516 
L 1065.420669 338.515619 
L 1065.80731 335.955296 
L 1066.193951 334.957005 
L 1066.580592 335.285854 
L 1066.967233 334.405008 
L 1067.353873 334.322796 
L 1067.740514 325.772726 
L 1068.127155 335.09794 
L 1068.513796 333.500674 
L 1068.900437 335.884828 
L 1069.287077 332.420171 
L 1069.673718 325.349921 
L 1070.060359 326.911953 
L 1070.447 334.886537 
L 1070.833641 333.759055 
L 1071.220281 333.594631 
L 1071.606922 333.735566 
L 1071.993563 328.814578 
L 1072.380204 321.720839 
L 1072.766845 332.737275 
L 1073.153485 333.453696 
L 1073.540126 330.693714 
L 1073.926767 324.011036 
L 1074.313408 335.215386 
L 1074.700049 335.039217 
L 1075.086689 332.032599 
L 1075.47333 334.334541 
L 1075.859971 330.670225 
L 1076.246612 330.505801 
L 1076.633252 331.891664 
L 1077.019893 332.173534 
L 1077.406534 330.881628 
L 1077.793175 332.314469 
L 1078.179816 332.326214 
L 1078.566456 327.616629 
L 1078.953097 327.076377 
L 1079.339738 334.769091 
L 1079.726379 333.524163 
L 1080.11302 327.910244 
L 1080.49966 331.680261 
L 1080.886301 330.541034 
L 1081.272942 325.115029 
L 1081.659583 330.259164 
L 1082.046224 331.527581 
L 1082.432864 324.469076 
L 1083.206146 335.955296 
L 1083.592787 335.25062 
L 1083.979428 326.911953 
L 1084.366068 325.561323 
L 1084.752709 304.796868 
L 1085.13935 332.326214 
L 1085.525991 328.192114 
L 1085.912632 326.747528 
L 1086.299272 331.574559 
L 1086.685913 331.70375 
L 1087.072554 333.383228 
L 1087.459195 332.373192 
L 1087.845836 331.809451 
L 1088.232476 334.804325 
L 1088.619117 330.047761 
L 1089.005758 327.076377 
L 1089.392399 327.546161 
L 1089.77904 331.774218 
L 1090.938962 316.471002 
L 1091.325603 310.539978 
L 1091.712244 312.360391 
L 1092.485525 332.87821 
L 1092.872166 334.79258 
L 1093.258807 334.863048 
L 1093.645448 327.910244 
L 1094.032088 309.858791 
L 1094.418729 301.94293 
L 1094.80537 327.475694 
L 1095.192011 325.126773 
L 1095.578652 316.893808 
L 1095.965292 332.901699 
L 1096.351933 334.35803 
L 1096.738574 322.56645 
L 1097.125215 314.744545 
L 1097.511856 317.481038 
L 1097.898496 318.232692 
L 1098.285137 333.782545 
L 1098.671778 327.029399 
L 1099.058419 325.702259 
L 1099.44506 323.235892 
L 1099.8317 315.695858 
L 1100.218341 313.828467 
L 1100.604982 328.579686 
L 1101.764904 310.939295 
L 1102.151545 325.937151 
L 1102.538186 315.226074 
L 1102.924827 319.383663 
L 1103.311468 327.510927 
L 1104.084749 298.54874 
L 1104.47139 322.848321 
L 1104.858031 270.655311 
L 1105.244672 319.430641 
L 1105.631312 301.555358 
L 1106.017953 305.207929 
L 1106.404594 310.704403 
L 1106.791235 319.6303 
L 1107.177876 314.145571 
L 1107.564516 300.451365 
L 1107.951157 269.245959 
L 1108.337798 321.074886 
L 1108.724439 321.474202 
L 1109.11108 314.697567 
L 1109.49772 303.011689 
L 1109.884361 316.788106 
L 1110.271002 211.626944 
L 1110.657643 147.383974 
L 1111.044284 156.885356 
L 1111.430924 298.208147 
L 1111.817565 310.269852 
L 1112.590847 279.217126 
L 1112.977488 290.809048 
L 1113.364128 193.293621 
L 1113.750769 318.15048 
L 1114.13741 320.945695 
L 1114.524051 292.089209 
L 1114.910692 293.780432 
L 1115.297332 282.024086 
L 1115.683973 206.670722 
L 1116.070614 300.122517 
L 1116.457255 288.201746 
L 1116.843896 288.38966 
L 1117.230536 296.282032 
L 1117.617177 293.498561 
L 1118.003818 310.070194 
L 1118.390459 226.483865 
L 1118.7771 288.565829 
L 1119.16374 298.595718 
L 1119.550381 293.909622 
L 1119.937022 274.942091 
L 1120.323663 278.829554 
L 1120.710303 267.237632 
L 1121.096944 141.946223 
L 1121.483585 183.228498 
L 1121.870226 254.118912 
L 1122.256867 273.344825 
L 1122.643507 212.543023 
L 1123.030148 284.337772 
L 1123.80343 258.182545 
L 1124.190071 261.670691 
L 1124.576711 245.709778 
L 1124.963352 301.332211 
L 1124.963352 301.332211 
" clip-path="url(#p38c4b46e4b)" style="fill: none; stroke: #008080; stroke-width: 1.5; stroke-linecap: square"/>
   </g>
   <g id="patch_3">
    <path d="M 59.690625 356.477812 
L 59.690625 23.837812 
" style="fill: none; stroke: #000000; stroke-width: 0.8; stroke-linejoin: miter; stroke-linecap: square"/>
   </g>
   <g id="patch_4">
    <path d="M 1175.690625 356.477812 
L 1175.690625 23.837812 
" style="fill: none; stroke: #000000; stroke-width: 0.8; stroke-linejoin: miter; stroke-linecap: square"/>
   </g>
   <g id="patch_5">
    <path d="M 59.690625 356.477812 
L 1175.690625 356.477812 
" style="fill: none; stroke: #000000; stroke-width: 0.8; stroke-linejoin: miter; stroke-linecap: square"/>
   </g>
   <g id="patch_6">
    <path d="M 59.690625 23.837812 
L 1175.690625 23.837812 
" style="fill: none; stroke: #000000; stroke-width: 0.8; stroke-linejoin: miter; stroke-linecap: square"/>
   </g>
   <g id="text_17">
    <!-- Toronto Island Ferry Ticket Redemptions -->
    <g transform="translate(477.780313 17.837812) scale(0.14 -0.14)">
     <defs>
      <path id="DejaVuSans-72" d="M 2631 2963 
Q 2534 3019 2420 3045 
Q 2306 3072 2169 3072 
Q 1681 3072 1420 2755 
Q 1159 2438 1159 1844 
L 1159 0 
L 581 0 
L 581 3500 
L 1159 3500 
L 1159 2956 
Q 1341 3275 1631 3429 
Q 1922 3584 2338 3584 
Q 2397 3584 2469 3576 
Q 2541 3569 2628 3553 
L 2631 2963 
z
" transform="scale(0.015625)"/>
      <path id="DejaVuSans-49" d="M 628 4666 
L 1259 4666 
L 1259 0 
L 628 0 
L 628 4666 
z
" transform="scale(0.015625)"/>
      <path id="DejaVuSans-6c" d="M 603 4863 
L 1178 4863 
L 1178 0 
L 603 0 
L 603 4863 
z
" transform="scale(0.015625)"/>
      <path id="DejaVuSans-46" d="M 628 4666 
L 3309 4666 
L 3309 4134 
L 1259 4134 
L 1259 2759 
L 3109 2759 
L 3109 2228 
L 1259 2228 
L 1259 0 
L 628 0 
L 628 4666 
z
" transform="scale(0.015625)"/>
      <path id="DejaVuSans-79" d="M 2059 -325 
Q 1816 -950 1584 -1140 
Q 1353 -1331 966 -1331 
L 506 -1331 
L 506 -850 
L 844 -850 
Q 1081 -850 1212 -737 
Q 1344 -625 1503 -206 
L 1606 56 
L 191 3500 
L 800 3500 
L 1894 763 
L 2988 3500 
L 3597 3500 
L 2059 -325 
z
" transform="scale(0.015625)"/>
     </defs>
     <use xlink:href="#DejaVuSans-54"/>
     <use xlink:href="#DejaVuSans-6f" x="44.083984"/>
     <use xlink:href="#DejaVuSans-72" x="105.265625"/>
     <use xlink:href="#DejaVuSans-6f" x="144.128906"/>
     <use xlink:href="#DejaVuSans-6e" x="205.310547"/>
     <use xlink:href="#DejaVuSans-74" x="268.689453"/>
     <use xlink:href="#DejaVuSans-6f" x="307.898438"/>
     <use xlink:href="#DejaVuSans-20" x="369.080078"/>
     <use xlink:href="#DejaVuSans-49" x="400.867188"/>
     <use xlink:href="#DejaVuSans-73" x="430.359375"/>
     <use xlink:href="#DejaVuSans-6c" x="482.458984"/>
     <use xlink:href="#DejaVuSans-61" x="510.242188"/>
     <use xlink:href="#DejaVuSans-6e" x="571.521484"/>
     <use xlink:href="#DejaVuSans-64" x="634.900391"/>
     <use xlink:href="#DejaVuSans-20" x="698.376953"/>
     <use xlink:href="#DejaVuSans-46" x="730.164062"/>
     <use xlink:href="#DejaVuSans-65" x="782.183594"/>
     <use xlink:href="#DejaVuSans-72" x="843.707031"/>
     <use xlink:href="#DejaVuSans-72" x="883.070312"/>
     <use xlink:href="#DejaVuSans-79" x="924.183594"/>
     <use xlink:href="#DejaVuSans-20" x="983.363281"/>
     <use xlink:href="#DejaVuSans-54" x="1015.150391"/>
     <use xlink:href="#DejaVuSans-69" x="1073.109375"/>
     <use xlink:href="#DejaVuSans-63" x="1100.892578"/>
     <use xlink:href="#DejaVuSans-6b" x="1155.873047"/>
     <use xlink:href="#DejaVuSans-65" x="1210.158203"/>
     <use xlink:href="#DejaVuSans-74" x="1271.681641"/>
     <use xlink:href="#DejaVuSans-20" x="1310.890625"/>
     <use xlink:href="#DejaVuSans-52" x="1342.677734"/>
     <use xlink:href="#DejaVuSans-65" x="1407.660156"/>
     <use xlink:href="#DejaVuSans-64" x="1469.183594"/>
     <use xlink:href="#DejaVuSans-65" x="1532.660156"/>
     <use xlink:href="#DejaVuSans-6d" x="1594.183594"/>
     <use xlink:href="#DejaVuSans-70" x="1691.595703"/>
     <use xlink:href="#DejaVuSans-74" x="1755.072266"/>
     <use xlink:href="#DejaVuSans-69" x="1794.28125"/>
     <use xlink:href="#DejaVuSans-6f" x="1822.064453"/>
     <use xlink:href="#DejaVuSans-6e" x="1883.246094"/>
     <use xlink:href="#DejaVuSans-73" x="1946.625"/>
    </g>
   </g>
  </g>
  <g id="text_18">
   <!-- (Data from 2017-04-19 20:00:00 to 2024-06-25 14:00:00) -->
   <g style="fill: #808080" transform="translate(454.635938 399.677812) scale(0.1 -0.1)">
    <defs>
     <path id="DejaVuSans-28" d="M 1984 4856 
Q 1566 4138 1362 3434 
Q 1159 2731 1159 2009 
Q 1159 1288 1364 580 
Q 1569 -128 1984 -844 
L 1484 -844 
Q 1016 -109 783 600 
Q 550 1309 550 2009 
Q 550 2706 781 3412 
Q 1013 4119 1484 4856 
L 1984 4856 
z
" transform="scale(0.015625)"/>
     <path id="DejaVuSans-66" d="M 2375 4863 
L 2375 4384 
L 1825 4384 
Q 1516 4384 1395 4259 
Q 1275 4134 1275 3809 
L 1275 3500 
L 2222 3500 
L 2222 3053 
L 1275 3053 
L 1275 0 
L 697 0 
L 697 3053 
L 147 3053 
L 147 3500 
L 697 3500 
L 697 3744 
Q 697 4328 969 4595 
Q 1241 4863 1831 4863 
L 2375 4863 
z
" transform="scale(0.015625)"/>
     <path id="DejaVuSans-2d" d="M 313 2009 
L 1997 2009 
L 1997 1497 
L 313 1497 
L 313 2009 
z
" transform="scale(0.015625)"/>
     <path id="DejaVuSans-3a" d="M 750 794 
L 1409 794 
L 1409 0 
L 750 0 
L 750 794 
z
M 750 3309 
L 1409 3309 
L 1409 2516 
L 750 2516 
L 750 3309 
z
" transform="scale(0.015625)"/>
     <path id="DejaVuSans-36" d="M 2113 2584 
Q 1688 2584 1439 2293 
Q 1191 2003 1191 1497 
Q 1191 994 1439 701 
Q 1688 409 2113 409 
Q 2538 409 2786 701 
Q 3034 994 3034 1497 
Q 3034 2003 2786 2293 
Q 2538 2584 2113 2584 
z
M 3366 4563 
L 3366 3988 
Q 3128 4100 2886 4159 
Q 2644 4219 2406 4219 
Q 1781 4219 1451 3797 
Q 1122 3375 1075 2522 
Q 1259 2794 1537 2939 
Q 1816 3084 2150 3084 
Q 2853 3084 3261 2657 
Q 3669 2231 3669 1497 
Q 3669 778 3244 343 
Q 2819 -91 2113 -91 
Q 1303 -91 875 529 
Q 447 1150 447 2328 
Q 447 3434 972 4092 
Q 1497 4750 2381 4750 
Q 2619 4750 2861 4703 
Q 3103 4656 3366 4563 
z
" transform="scale(0.015625)"/>
     <path id="DejaVuSans-29" d="M 513 4856 
L 1013 4856 
Q 1481 4119 1714 3412 
Q 1947 2706 1947 2009 
Q 1947 1309 1714 600 
Q 1481 -109 1013 -844 
L 513 -844 
Q 928 -128 1133 580 
Q 1338 1288 1338 2009 
Q 1338 2731 1133 3434 
Q 928 4138 513 4856 
z
" transform="scale(0.015625)"/>
    </defs>
    <use xlink:href="#DejaVuSans-28"/>
    <use xlink:href="#DejaVuSans-44" x="39.013672"/>
    <use xlink:href="#DejaVuSans-61" x="116.015625"/>
    <use xlink:href="#DejaVuSans-74" x="177.294922"/>
    <use xlink:href="#DejaVuSans-61" x="216.503906"/>
    <use xlink:href="#DejaVuSans-20" x="277.783203"/>
    <use xlink:href="#DejaVuSans-66" x="309.570312"/>
    <use xlink:href="#DejaVuSans-72" x="344.775391"/>
    <use xlink:href="#DejaVuSans-6f" x="383.638672"/>
    <use xlink:href="#DejaVuSans-6d" x="444.820312"/>
    <use xlink:href="#DejaVuSans-20" x="542.232422"/>
    <use xlink:href="#DejaVuSans-32" x="574.019531"/>
    <use xlink:href="#DejaVuSans-30" x="637.642578"/>
    <use xlink:href="#DejaVuSans-31" x="701.265625"/>
    <use xlink:href="#DejaVuSans-37" x="764.888672"/>
    <use xlink:href="#DejaVuSans-2d" x="828.511719"/>
    <use xlink:href="#DejaVuSans-30" x="864.595703"/>
    <use xlink:href="#DejaVuSans-34" x="928.21875"/>
    <use xlink:href="#DejaVuSans-2d" x="991.841797"/>
    <use xlink:href="#DejaVuSans-31" x="1027.925781"/>
    <use xlink:href="#DejaVuSans-39" x="1091.548828"/>
    <use xlink:href="#DejaVuSans-20" x="1155.171875"/>
    <use xlink:href="#DejaVuSans-32" x="1186.958984"/>
    <use xlink:href="#DejaVuSans-30" x="1250.582031"/>
    <use xlink:href="#DejaVuSans-3a" x="1314.205078"/>
    <use xlink:href="#DejaVuSans-30" x="1347.896484"/>
    <use xlink:href="#DejaVuSans-30" x="1411.519531"/>
    <use xlink:href="#DejaVuSans-3a" x="1475.142578"/>
    <use xlink:href="#DejaVuSans-30" x="1508.833984"/>
    <use xlink:href="#DejaVuSans-30" x="1572.457031"/>
    <use xlink:href="#DejaVuSans-20" x="1636.080078"/>
    <use xlink:href="#DejaVuSans-74" x="1667.867188"/>
    <use xlink:href="#DejaVuSans-6f" x="1707.076172"/>
    <use xlink:href="#DejaVuSans-20" x="1768.257812"/>
    <use xlink:href="#DejaVuSans-32" x="1800.044922"/>
    <use xlink:href="#DejaVuSans-30" x="1863.667969"/>
    <use xlink:href="#DejaVuSans-32" x="1927.291016"/>
    <use xlink:href="#DejaVuSans-34" x="1990.914062"/>
    <use xlink:href="#DejaVuSans-2d" x="2054.537109"/>
    <use xlink:href="#DejaVuSans-30" x="2090.621094"/>
    <use xlink:href="#DejaVuSans-36" x="2154.244141"/>
    <use xlink:href="#DejaVuSans-2d" x="2217.867188"/>
    <use xlink:href="#DejaVuSans-32" x="2253.951172"/>
    <use xlink:href="#DejaVuSans-35" x="2317.574219"/>
    <use xlink:href="#DejaVuSans-20" x="2381.197266"/>
    <use xlink:href="#DejaVuSans-31" x="2412.984375"/>
    <use xlink:href="#DejaVuSans-34" x="2476.607422"/>
    <use xlink:href="#DejaVuSans-3a" x="2540.230469"/>
    <use xlink:href="#DejaVuSans-30" x="2573.921875"/>
    <use xlink:href="#DejaVuSans-30" x="2637.544922"/>
    <use xlink:href="#DejaVuSans-3a" x="2701.167969"/>
    <use xlink:href="#DejaVuSans-30" x="2734.859375"/>
    <use xlink:href="#DejaVuSans-30" x="2798.482422"/>
    <use xlink:href="#DejaVuSans-29" x="2862.105469"/>
   </g>
  </g>
 </g>
 <defs>
  <clipPath id="p38c4b46e4b">
   <rect x="59.690625" y="23.837812" width="1116" height="332.64"/>
  </clipPath>
 </defs>
</svg>
