<?xml version="1.0" encoding="utf-8" standalone="no"?>
<!DOCTYPE svg PUBLIC "-//W3C//DTD SVG 1.1//EN"
  "http://www.w3.org/Graphics/SVG/1.1/DTD/svg11.dtd">
<svg xmlns:xlink="http://www.w3.org/1999/xlink" width="1182.890625pt" height="408.9575pt" viewBox="0 0 1182.890625 408.9575" xmlns="http://www.w3.org/2000/svg" version="1.1">
 <metadata>
  <rdf:RDF xmlns:dc="http://purl.org/dc/elements/1.1/" xmlns:cc="http://creativecommons.org/ns#" xmlns:rdf="http://www.w3.org/1999/02/22-rdf-syntax-ns#">
   <cc:Work>
    <dc:type rdf:resource="http://purl.org/dc/dcmitype/StillImage"/>
    <dc:date>2024-06-25T18:08:48.720081</dc:date>
    <dc:format>image/svg+xml</dc:format>
    <dc:creator>
     <cc:Agent>
      <dc:title>Matplotlib v3.8.4, https://matplotlib.org/</dc:title>
     </cc:Agent>
    </dc:creator>
   </cc:Work>
  </rdf:RDF>
 </metadata>
 <defs>
  <style type="text/css">*{stroke-linejoin: round; stroke-linecap: butt}</style>
 </defs>
 <g id="figure_1">
  <g id="patch_1">
   <path d="M 0 408.9575 
L 1182.890625 408.9575 
L 1182.890625 0 
L 0 0 
z
" style="fill: #ffffff"/>
  </g>
  <g id="axes_1">
   <g id="patch_2">
    <path d="M 59.690625 356.477812 
L 1175.690625 356.477812 
L 1175.690625 23.837812 
L 59.690625 23.837812 
z
" style="fill: #ffffff"/>
   </g>
   <g id="matplotlib.axis_1">
    <g id="xtick_1">
     <g id="line2d_1">
      <defs>
       <path id="mc10682267c" d="M 0 0 
L 0 3.5 
" style="stroke: #000000; stroke-width: 0.8"/>
      </defs>
      <g>
       <use xlink:href="#mc10682267c" x="184.194478" y="356.477812" style="stroke: #000000; stroke-width: 0.8"/>
      </g>
     </g>
     <g id="text_1">
      <!-- 2019 -->
      <g transform="translate(171.469478 371.07625) scale(0.1 -0.1)">
       <defs>
        <path id="DejaVuSans-32" d="M 1228 531 
L 3431 531 
L 3431 0 
L 469 0 
L 469 531 
Q 828 903 1448 1529 
Q 2069 2156 2228 2338 
Q 2531 2678 2651 2914 
Q 2772 3150 2772 3378 
Q 2772 3750 2511 3984 
Q 2250 4219 1831 4219 
Q 1534 4219 1204 4116 
Q 875 4013 500 3803 
L 500 4441 
Q 881 4594 1212 4672 
Q 1544 4750 1819 4750 
Q 2544 4750 2975 4387 
Q 3406 4025 3406 3419 
Q 3406 3131 3298 2873 
Q 3191 2616 2906 2266 
Q 2828 2175 2409 1742 
Q 1991 1309 1228 531 
z
" transform="scale(0.015625)"/>
        <path id="DejaVuSans-30" d="M 2034 4250 
Q 1547 4250 1301 3770 
Q 1056 3291 1056 2328 
Q 1056 1369 1301 889 
Q 1547 409 2034 409 
Q 2525 409 2770 889 
Q 3016 1369 3016 2328 
Q 3016 3291 2770 3770 
Q 2525 4250 2034 4250 
z
M 2034 4750 
Q 2819 4750 3233 4129 
Q 3647 3509 3647 2328 
Q 3647 1150 3233 529 
Q 2819 -91 2034 -91 
Q 1250 -91 836 529 
Q 422 1150 422 2328 
Q 422 3509 836 4129 
Q 1250 4750 2034 4750 
z
" transform="scale(0.015625)"/>
        <path id="DejaVuSans-31" d="M 794 531 
L 1825 531 
L 1825 4091 
L 703 3866 
L 703 4441 
L 1819 4666 
L 2450 4666 
L 2450 531 
L 3481 531 
L 3481 0 
L 794 0 
L 794 531 
z
" transform="scale(0.015625)"/>
        <path id="DejaVuSans-39" d="M 703 97 
L 703 672 
Q 941 559 1184 500 
Q 1428 441 1663 441 
Q 2288 441 2617 861 
Q 2947 1281 2994 2138 
Q 2813 1869 2534 1725 
Q 2256 1581 1919 1581 
Q 1219 1581 811 2004 
Q 403 2428 403 3163 
Q 403 3881 828 4315 
Q 1253 4750 1959 4750 
Q 2769 4750 3195 4129 
Q 3622 3509 3622 2328 
Q 3622 1225 3098 567 
Q 2575 -91 1691 -91 
Q 1453 -91 1209 -44 
Q 966 3 703 97 
z
M 1959 2075 
Q 2384 2075 2632 2365 
Q 2881 2656 2881 3163 
Q 2881 3666 2632 3958 
Q 2384 4250 1959 4250 
Q 1534 4250 1286 3958 
Q 1038 3666 1038 3163 
Q 1038 2656 1286 2365 
Q 1534 2075 1959 2075 
z
" transform="scale(0.015625)"/>
       </defs>
       <use xlink:href="#DejaVuSans-32"/>
       <use xlink:href="#DejaVuSans-30" x="63.623047"/>
       <use xlink:href="#DejaVuSans-31" x="127.246094"/>
       <use xlink:href="#DejaVuSans-39" x="190.869141"/>
      </g>
     </g>
    </g>
    <g id="xtick_2">
     <g id="line2d_2">
      <g>
       <use xlink:href="#mc10682267c" x="355.713279" y="356.477812" style="stroke: #000000; stroke-width: 0.8"/>
      </g>
     </g>
     <g id="text_2">
      <!-- 2020 -->
      <g transform="translate(342.988279 371.07625) scale(0.1 -0.1)">
       <use xlink:href="#DejaVuSans-32"/>
       <use xlink:href="#DejaVuSans-30" x="63.623047"/>
       <use xlink:href="#DejaVuSans-32" x="127.246094"/>
       <use xlink:href="#DejaVuSans-30" x="190.869141"/>
      </g>
     </g>
    </g>
    <g id="xtick_3">
     <g id="line2d_3">
      <g>
       <use xlink:href="#mc10682267c" x="527.701994" y="356.477812" style="stroke: #000000; stroke-width: 0.8"/>
      </g>
     </g>
     <g id="text_3">
      <!-- 2021 -->
      <g transform="translate(514.976994 371.07625) scale(0.1 -0.1)">
       <use xlink:href="#DejaVuSans-32"/>
       <use xlink:href="#DejaVuSans-30" x="63.623047"/>
       <use xlink:href="#DejaVuSans-32" x="127.246094"/>
       <use xlink:href="#DejaVuSans-31" x="190.869141"/>
      </g>
     </g>
    </g>
    <g id="xtick_4">
     <g id="line2d_4">
      <g>
       <use xlink:href="#mc10682267c" x="699.220795" y="356.477812" style="stroke: #000000; stroke-width: 0.8"/>
      </g>
     </g>
     <g id="text_4">
      <!-- 2022 -->
      <g transform="translate(686.495795 371.07625) scale(0.1 -0.1)">
       <use xlink:href="#DejaVuSans-32"/>
       <use xlink:href="#DejaVuSans-30" x="63.623047"/>
       <use xlink:href="#DejaVuSans-32" x="127.246094"/>
       <use xlink:href="#DejaVuSans-32" x="190.869141"/>
      </g>
     </g>
    </g>
    <g id="xtick_5">
     <g id="line2d_5">
      <g>
       <use xlink:href="#mc10682267c" x="870.739595" y="356.477812" style="stroke: #000000; stroke-width: 0.8"/>
      </g>
     </g>
     <g id="text_5">
      <!-- 2023 -->
      <g transform="translate(858.014595 371.07625) scale(0.1 -0.1)">
       <defs>
        <path id="DejaVuSans-33" d="M 2597 2516 
Q 3050 2419 3304 2112 
Q 3559 1806 3559 1356 
Q 3559 666 3084 287 
Q 2609 -91 1734 -91 
Q 1441 -91 1130 -33 
Q 819 25 488 141 
L 488 750 
Q 750 597 1062 519 
Q 1375 441 1716 441 
Q 2309 441 2620 675 
Q 2931 909 2931 1356 
Q 2931 1769 2642 2001 
Q 2353 2234 1838 2234 
L 1294 2234 
L 1294 2753 
L 1863 2753 
Q 2328 2753 2575 2939 
Q 2822 3125 2822 3475 
Q 2822 3834 2567 4026 
Q 2313 4219 1838 4219 
Q 1578 4219 1281 4162 
Q 984 4106 628 3988 
L 628 4550 
Q 988 4650 1302 4700 
Q 1616 4750 1894 4750 
Q 2613 4750 3031 4423 
Q 3450 4097 3450 3541 
Q 3450 3153 3228 2886 
Q 3006 2619 2597 2516 
z
" transform="scale(0.015625)"/>
       </defs>
       <use xlink:href="#DejaVuSans-32"/>
       <use xlink:href="#DejaVuSans-30" x="63.623047"/>
       <use xlink:href="#DejaVuSans-32" x="127.246094"/>
       <use xlink:href="#DejaVuSans-33" x="190.869141"/>
      </g>
     </g>
    </g>
    <g id="xtick_6">
     <g id="line2d_6">
      <g>
       <use xlink:href="#mc10682267c" x="1042.258396" y="356.477812" style="stroke: #000000; stroke-width: 0.8"/>
      </g>
     </g>
     <g id="text_6">
      <!-- 2024 -->
      <g transform="translate(1029.533396 371.07625) scale(0.1 -0.1)">
       <defs>
        <path id="DejaVuSans-34" d="M 2419 4116 
L 825 1625 
L 2419 1625 
L 2419 4116 
z
M 2253 4666 
L 3047 4666 
L 3047 1625 
L 3713 1625 
L 3713 1100 
L 3047 1100 
L 3047 0 
L 2419 0 
L 2419 1100 
L 313 1100 
L 313 1709 
L 2253 4666 
z
" transform="scale(0.015625)"/>
       </defs>
       <use xlink:href="#DejaVuSans-32"/>
       <use xlink:href="#DejaVuSans-30" x="63.623047"/>
       <use xlink:href="#DejaVuSans-32" x="127.246094"/>
       <use xlink:href="#DejaVuSans-34" x="190.869141"/>
      </g>
     </g>
    </g>
    <g id="text_7">
     <!-- Date -->
     <g transform="translate(605.739844 384.754375) scale(0.1 -0.1)">
      <defs>
       <path id="DejaVuSans-44" d="M 1259 4147 
L 1259 519 
L 2022 519 
Q 2988 519 3436 956 
Q 3884 1394 3884 2338 
Q 3884 3275 3436 3711 
Q 2988 4147 2022 4147 
L 1259 4147 
z
M 628 4666 
L 1925 4666 
Q 3281 4666 3915 4102 
Q 4550 3538 4550 2338 
Q 4550 1131 3912 565 
Q 3275 0 1925 0 
L 628 0 
L 628 4666 
z
" transform="scale(0.015625)"/>
       <path id="DejaVuSans-61" d="M 2194 1759 
Q 1497 1759 1228 1600 
Q 959 1441 959 1056 
Q 959 750 1161 570 
Q 1363 391 1709 391 
Q 2188 391 2477 730 
Q 2766 1069 2766 1631 
L 2766 1759 
L 2194 1759 
z
M 3341 1997 
L 3341 0 
L 2766 0 
L 2766 531 
Q 2569 213 2275 61 
Q 1981 -91 1556 -91 
Q 1019 -91 701 211 
Q 384 513 384 1019 
Q 384 1609 779 1909 
Q 1175 2209 1959 2209 
L 2766 2209 
L 2766 2266 
Q 2766 2663 2505 2880 
Q 2244 3097 1772 3097 
Q 1472 3097 1187 3025 
Q 903 2953 641 2809 
L 641 3341 
Q 956 3463 1253 3523 
Q 1550 3584 1831 3584 
Q 2591 3584 2966 3190 
Q 3341 2797 3341 1997 
z
" transform="scale(0.015625)"/>
       <path id="DejaVuSans-74" d="M 1172 4494 
L 1172 3500 
L 2356 3500 
L 2356 3053 
L 1172 3053 
L 1172 1153 
Q 1172 725 1289 603 
Q 1406 481 1766 481 
L 2356 481 
L 2356 0 
L 1766 0 
Q 1100 0 847 248 
Q 594 497 594 1153 
L 594 3053 
L 172 3053 
L 172 3500 
L 594 3500 
L 594 4494 
L 1172 4494 
z
" transform="scale(0.015625)"/>
       <path id="DejaVuSans-65" d="M 3597 1894 
L 3597 1613 
L 953 1613 
Q 991 1019 1311 708 
Q 1631 397 2203 397 
Q 2534 397 2845 478 
Q 3156 559 3463 722 
L 3463 178 
Q 3153 47 2828 -22 
Q 2503 -91 2169 -91 
Q 1331 -91 842 396 
Q 353 884 353 1716 
Q 353 2575 817 3079 
Q 1281 3584 2069 3584 
Q 2775 3584 3186 3129 
Q 3597 2675 3597 1894 
z
M 3022 2063 
Q 3016 2534 2758 2815 
Q 2500 3097 2075 3097 
Q 1594 3097 1305 2825 
Q 1016 2553 972 2059 
L 3022 2063 
z
" transform="scale(0.015625)"/>
      </defs>
      <use xlink:href="#DejaVuSans-44"/>
      <use xlink:href="#DejaVuSans-61" x="77.001953"/>
      <use xlink:href="#DejaVuSans-74" x="138.28125"/>
      <use xlink:href="#DejaVuSans-65" x="177.490234"/>
     </g>
    </g>
   </g>
   <g id="matplotlib.axis_2">
    <g id="ytick_1">
     <g id="line2d_7">
      <defs>
       <path id="mf5af899501" d="M 0 0 
L -3.5 0 
" style="stroke: #000000; stroke-width: 0.8"/>
      </defs>
      <g>
       <use xlink:href="#mf5af899501" x="59.690625" y="341.357812" style="stroke: #000000; stroke-width: 0.8"/>
      </g>
     </g>
     <g id="text_8">
      <!-- 0 -->
      <g transform="translate(46.328125 345.157031) scale(0.1 -0.1)">
       <use xlink:href="#DejaVuSans-30"/>
      </g>
     </g>
    </g>
    <g id="ytick_2">
     <g id="line2d_8">
      <g>
       <use xlink:href="#mf5af899501" x="59.690625" y="276.739666" style="stroke: #000000; stroke-width: 0.8"/>
      </g>
     </g>
     <g id="text_9">
      <!-- 5000 -->
      <g transform="translate(27.240625 280.538885) scale(0.1 -0.1)">
       <defs>
        <path id="DejaVuSans-35" d="M 691 4666 
L 3169 4666 
L 3169 4134 
L 1269 4134 
L 1269 2991 
Q 1406 3038 1543 3061 
Q 1681 3084 1819 3084 
Q 2600 3084 3056 2656 
Q 3513 2228 3513 1497 
Q 3513 744 3044 326 
Q 2575 -91 1722 -91 
Q 1428 -91 1123 -41 
Q 819 9 494 109 
L 494 744 
Q 775 591 1075 516 
Q 1375 441 1709 441 
Q 2250 441 2565 725 
Q 2881 1009 2881 1497 
Q 2881 1984 2565 2268 
Q 2250 2553 1709 2553 
Q 1456 2553 1204 2497 
Q 953 2441 691 2322 
L 691 4666 
z
" transform="scale(0.015625)"/>
       </defs>
       <use xlink:href="#DejaVuSans-35"/>
       <use xlink:href="#DejaVuSans-30" x="63.623047"/>
       <use xlink:href="#DejaVuSans-30" x="127.246094"/>
       <use xlink:href="#DejaVuSans-30" x="190.869141"/>
      </g>
     </g>
    </g>
    <g id="ytick_3">
     <g id="line2d_9">
      <g>
       <use xlink:href="#mf5af899501" x="59.690625" y="212.12152" style="stroke: #000000; stroke-width: 0.8"/>
      </g>
     </g>
     <g id="text_10">
      <!-- 10000 -->
      <g transform="translate(20.878125 215.920739) scale(0.1 -0.1)">
       <use xlink:href="#DejaVuSans-31"/>
       <use xlink:href="#DejaVuSans-30" x="63.623047"/>
       <use xlink:href="#DejaVuSans-30" x="127.246094"/>
       <use xlink:href="#DejaVuSans-30" x="190.869141"/>
       <use xlink:href="#DejaVuSans-30" x="254.492188"/>
      </g>
     </g>
    </g>
    <g id="ytick_4">
     <g id="line2d_10">
      <g>
       <use xlink:href="#mf5af899501" x="59.690625" y="147.503374" style="stroke: #000000; stroke-width: 0.8"/>
      </g>
     </g>
     <g id="text_11">
      <!-- 15000 -->
      <g transform="translate(20.878125 151.302593) scale(0.1 -0.1)">
       <use xlink:href="#DejaVuSans-31"/>
       <use xlink:href="#DejaVuSans-35" x="63.623047"/>
       <use xlink:href="#DejaVuSans-30" x="127.246094"/>
       <use xlink:href="#DejaVuSans-30" x="190.869141"/>
       <use xlink:href="#DejaVuSans-30" x="254.492188"/>
      </g>
     </g>
    </g>
    <g id="ytick_5">
     <g id="line2d_11">
      <g>
       <use xlink:href="#mf5af899501" x="59.690625" y="82.885228" style="stroke: #000000; stroke-width: 0.8"/>
      </g>
     </g>
     <g id="text_12">
      <!-- 20000 -->
      <g transform="translate(20.878125 86.684447) scale(0.1 -0.1)">
       <use xlink:href="#DejaVuSans-32"/>
       <use xlink:href="#DejaVuSans-30" x="63.623047"/>
       <use xlink:href="#DejaVuSans-30" x="127.246094"/>
       <use xlink:href="#DejaVuSans-30" x="190.869141"/>
       <use xlink:href="#DejaVuSans-30" x="254.492188"/>
      </g>
     </g>
    </g>
    <g id="text_13">
     <!-- Ticket Redemptions -->
     <g transform="translate(14.798438 239.336719) rotate(-90) scale(0.1 -0.1)">
      <defs>
       <path id="DejaVuSans-54" d="M -19 4666 
L 3928 4666 
L 3928 4134 
L 2272 4134 
L 2272 0 
L 1638 0 
L 1638 4134 
L -19 4134 
L -19 4666 
z
" transform="scale(0.015625)"/>
       <path id="DejaVuSans-69" d="M 603 3500 
L 1178 3500 
L 1178 0 
L 603 0 
L 603 3500 
z
M 603 4863 
L 1178 4863 
L 1178 4134 
L 603 4134 
L 603 4863 
z
" transform="scale(0.015625)"/>
       <path id="DejaVuSans-63" d="M 3122 3366 
L 3122 2828 
Q 2878 2963 2633 3030 
Q 2388 3097 2138 3097 
Q 1578 3097 1268 2742 
Q 959 2388 959 1747 
Q 959 1106 1268 751 
Q 1578 397 2138 397 
Q 2388 397 2633 464 
Q 2878 531 3122 666 
L 3122 134 
Q 2881 22 2623 -34 
Q 2366 -91 2075 -91 
Q 1284 -91 818 406 
Q 353 903 353 1747 
Q 353 2603 823 3093 
Q 1294 3584 2113 3584 
Q 2378 3584 2631 3529 
Q 2884 3475 3122 3366 
z
" transform="scale(0.015625)"/>
       <path id="DejaVuSans-6b" d="M 581 4863 
L 1159 4863 
L 1159 1991 
L 2875 3500 
L 3609 3500 
L 1753 1863 
L 3688 0 
L 2938 0 
L 1159 1709 
L 1159 0 
L 581 0 
L 581 4863 
z
" transform="scale(0.015625)"/>
       <path id="DejaVuSans-20" transform="scale(0.015625)"/>
       <path id="DejaVuSans-52" d="M 2841 2188 
Q 3044 2119 3236 1894 
Q 3428 1669 3622 1275 
L 4263 0 
L 3584 0 
L 2988 1197 
Q 2756 1666 2539 1819 
Q 2322 1972 1947 1972 
L 1259 1972 
L 1259 0 
L 628 0 
L 628 4666 
L 2053 4666 
Q 2853 4666 3247 4331 
Q 3641 3997 3641 3322 
Q 3641 2881 3436 2590 
Q 3231 2300 2841 2188 
z
M 1259 4147 
L 1259 2491 
L 2053 2491 
Q 2509 2491 2742 2702 
Q 2975 2913 2975 3322 
Q 2975 3731 2742 3939 
Q 2509 4147 2053 4147 
L 1259 4147 
z
" transform="scale(0.015625)"/>
       <path id="DejaVuSans-64" d="M 2906 2969 
L 2906 4863 
L 3481 4863 
L 3481 0 
L 2906 0 
L 2906 525 
Q 2725 213 2448 61 
Q 2172 -91 1784 -91 
Q 1150 -91 751 415 
Q 353 922 353 1747 
Q 353 2572 751 3078 
Q 1150 3584 1784 3584 
Q 2172 3584 2448 3432 
Q 2725 3281 2906 2969 
z
M 947 1747 
Q 947 1113 1208 752 
Q 1469 391 1925 391 
Q 2381 391 2643 752 
Q 2906 1113 2906 1747 
Q 2906 2381 2643 2742 
Q 2381 3103 1925 3103 
Q 1469 3103 1208 2742 
Q 947 2381 947 1747 
z
" transform="scale(0.015625)"/>
       <path id="DejaVuSans-6d" d="M 3328 2828 
Q 3544 3216 3844 3400 
Q 4144 3584 4550 3584 
Q 5097 3584 5394 3201 
Q 5691 2819 5691 2113 
L 5691 0 
L 5113 0 
L 5113 2094 
Q 5113 2597 4934 2840 
Q 4756 3084 4391 3084 
Q 3944 3084 3684 2787 
Q 3425 2491 3425 1978 
L 3425 0 
L 2847 0 
L 2847 2094 
Q 2847 2600 2669 2842 
Q 2491 3084 2119 3084 
Q 1678 3084 1418 2786 
Q 1159 2488 1159 1978 
L 1159 0 
L 581 0 
L 581 3500 
L 1159 3500 
L 1159 2956 
Q 1356 3278 1631 3431 
Q 1906 3584 2284 3584 
Q 2666 3584 2933 3390 
Q 3200 3197 3328 2828 
z
" transform="scale(0.015625)"/>
       <path id="DejaVuSans-70" d="M 1159 525 
L 1159 -1331 
L 581 -1331 
L 581 3500 
L 1159 3500 
L 1159 2969 
Q 1341 3281 1617 3432 
Q 1894 3584 2278 3584 
Q 2916 3584 3314 3078 
Q 3713 2572 3713 1747 
Q 3713 922 3314 415 
Q 2916 -91 2278 -91 
Q 1894 -91 1617 61 
Q 1341 213 1159 525 
z
M 3116 1747 
Q 3116 2381 2855 2742 
Q 2594 3103 2138 3103 
Q 1681 3103 1420 2742 
Q 1159 2381 1159 1747 
Q 1159 1113 1420 752 
Q 1681 391 2138 391 
Q 2594 391 2855 752 
Q 3116 1113 3116 1747 
z
" transform="scale(0.015625)"/>
       <path id="DejaVuSans-6f" d="M 1959 3097 
Q 1497 3097 1228 2736 
Q 959 2375 959 1747 
Q 959 1119 1226 758 
Q 1494 397 1959 397 
Q 2419 397 2687 759 
Q 2956 1122 2956 1747 
Q 2956 2369 2687 2733 
Q 2419 3097 1959 3097 
z
M 1959 3584 
Q 2709 3584 3137 3096 
Q 3566 2609 3566 1747 
Q 3566 888 3137 398 
Q 2709 -91 1959 -91 
Q 1206 -91 779 398 
Q 353 888 353 1747 
Q 353 2609 779 3096 
Q 1206 3584 1959 3584 
z
" transform="scale(0.015625)"/>
       <path id="DejaVuSans-6e" d="M 3513 2113 
L 3513 0 
L 2938 0 
L 2938 2094 
Q 2938 2591 2744 2837 
Q 2550 3084 2163 3084 
Q 1697 3084 1428 2787 
Q 1159 2491 1159 1978 
L 1159 0 
L 581 0 
L 581 3500 
L 1159 3500 
L 1159 2956 
Q 1366 3272 1645 3428 
Q 1925 3584 2291 3584 
Q 2894 3584 3203 3211 
Q 3513 2838 3513 2113 
z
" transform="scale(0.015625)"/>
       <path id="DejaVuSans-73" d="M 2834 3397 
L 2834 2853 
Q 2591 2978 2328 3040 
Q 2066 3103 1784 3103 
Q 1356 3103 1142 2972 
Q 928 2841 928 2578 
Q 928 2378 1081 2264 
Q 1234 2150 1697 2047 
L 1894 2003 
Q 2506 1872 2764 1633 
Q 3022 1394 3022 966 
Q 3022 478 2636 193 
Q 2250 -91 1575 -91 
Q 1294 -91 989 -36 
Q 684 19 347 128 
L 347 722 
Q 666 556 975 473 
Q 1284 391 1588 391 
Q 1994 391 2212 530 
Q 2431 669 2431 922 
Q 2431 1156 2273 1281 
Q 2116 1406 1581 1522 
L 1381 1569 
Q 847 1681 609 1914 
Q 372 2147 372 2553 
Q 372 3047 722 3315 
Q 1072 3584 1716 3584 
Q 2034 3584 2315 3537 
Q 2597 3491 2834 3397 
z
" transform="scale(0.015625)"/>
      </defs>
      <use xlink:href="#DejaVuSans-54"/>
      <use xlink:href="#DejaVuSans-69" x="57.958984"/>
      <use xlink:href="#DejaVuSans-63" x="85.742188"/>
      <use xlink:href="#DejaVuSans-6b" x="140.722656"/>
      <use xlink:href="#DejaVuSans-65" x="195.007812"/>
      <use xlink:href="#DejaVuSans-74" x="256.53125"/>
      <use xlink:href="#DejaVuSans-20" x="295.740234"/>
      <use xlink:href="#DejaVuSans-52" x="327.527344"/>
      <use xlink:href="#DejaVuSans-65" x="392.509766"/>
      <use xlink:href="#DejaVuSans-64" x="454.033203"/>
      <use xlink:href="#DejaVuSans-65" x="517.509766"/>
      <use xlink:href="#DejaVuSans-6d" x="579.033203"/>
      <use xlink:href="#DejaVuSans-70" x="676.445312"/>
      <use xlink:href="#DejaVuSans-74" x="739.921875"/>
      <use xlink:href="#DejaVuSans-69" x="779.130859"/>
      <use xlink:href="#DejaVuSans-6f" x="806.914062"/>
      <use xlink:href="#DejaVuSans-6e" x="868.095703"/>
      <use xlink:href="#DejaVuSans-73" x="931.474609"/>
     </g>
    </g>
   </g>
   <g id="line2d_12">
    <path d="M 110.417898 108.629098 
L 110.887812 88.093451 
L 111.357727 185.511768 
L 111.827641 225.549171 
L 112.297556 250.284997 
L 112.76747 187.863868 
L 113.237385 181.750992 
L 113.707299 79.085681 
L 114.177214 38.957812 
L 114.647128 155.968351 
L 115.586957 306.489861 
L 116.056872 195.850671 
L 116.526787 166.410644 
L 116.996701 40.754197 
L 117.466616 94.594036 
L 117.93653 217.704528 
L 118.406445 207.210541 
L 118.876359 190.616601 
L 119.816188 290.826422 
L 120.286103 84.293904 
L 120.756017 75.803079 
L 121.695846 327.296904 
L 122.165761 229.400413 
L 122.635675 173.557411 
L 123.10559 175.056552 
L 123.575504 229.154864 
L 124.045419 127.962847 
L 124.515333 279.841337 
L 124.985248 216.308776 
L 125.455162 274.361719 
L 125.925077 199.430516 
L 126.394991 189.453475 
L 126.864906 70.362231 
L 127.334821 134.889912 
L 127.804735 154.378745 
L 128.27465 292.803738 
L 128.744564 286.522854 
L 129.214479 306.476937 
L 129.684393 286.781326 
L 130.154308 224.799601 
L 130.624222 268.442696 
L 131.094137 331.19984 
L 131.564051 307.808071 
L 132.033966 295.931256 
L 132.50388 292.829585 
L 132.973795 277.915717 
L 133.443709 168.349188 
L 133.913624 173.828807 
L 134.383538 292.739119 
L 134.853453 288.849107 
L 135.323367 296.344812 
L 135.793282 315.252081 
L 136.263196 302.444765 
L 136.733111 253.03773 
L 137.203026 241.057526 
L 137.67294 314.644671 
L 138.142855 325.939923 
L 138.612769 307.381591 
L 139.082684 303.426961 
L 139.552598 294.38042 
L 140.022513 263.518794 
L 140.492427 304.228226 
L 140.962342 324.117691 
L 141.432256 329.261296 
L 141.902171 311.219909 
L 142.372085 305.171651 
L 142.842 313.365232 
L 143.311914 316.77707 
L 143.781829 312.731974 
L 144.251743 307.652988 
L 144.721658 290.878117 
L 145.191572 284.76524 
L 145.661487 313.223072 
L 146.131401 316.570292 
L 146.601316 313.339384 
L 147.07123 300.002199 
L 147.541145 326.560257 
L 148.01106 317.565411 
L 148.480974 323.768753 
L 148.950889 321.520042 
L 149.420803 310.315255 
L 149.890718 313.416926 
L 150.360632 323.484433 
L 150.830547 320.990173 
L 151.300461 325.82361 
L 151.770376 321.817285 
L 152.24029 321.946521 
L 152.710205 324.918956 
L 153.180119 329.519768 
L 153.650034 331.742632 
L 154.119948 329.907477 
L 154.589863 317.733418 
L 155.059777 326.405173 
L 155.529692 331.936487 
L 155.999606 330.721666 
L 156.469521 326.275937 
L 156.939435 316.596139 
L 157.40935 330.295186 
L 157.879265 329.726546 
L 158.819094 327.775078 
L 159.289008 330.540735 
L 159.758923 329.390532 
L 160.698752 328.046474 
L 161.168666 330.243491 
L 161.638581 329.093288 
L 162.108495 326.81873 
L 162.57841 333.849184 
L 163.048324 331.690938 
L 163.518239 332.440508 
L 163.988153 328.860663 
L 164.458068 329.765317 
L 164.927982 329.791164 
L 165.397897 330.799207 
L 165.867811 328.808969 
L 166.337726 336.795771 
L 166.80764 332.311272 
L 167.277555 332.673134 
L 167.747469 331.716785 
L 168.217384 330.256415 
L 168.687299 331.471236 
L 169.157213 330.850902 
L 169.627128 331.962334 
L 170.097042 334.107657 
L 170.566957 331.729709 
L 171.036871 331.122298 
L 171.506786 329.59731 
L 171.9767 331.600472 
L 172.446615 334.198122 
L 172.916529 334.327358 
L 173.386444 331.962334 
L 173.856358 332.156188 
L 174.326273 331.988181 
L 174.796187 328.007704 
L 175.266102 330.372728 
L 176.205931 333.526093 
L 176.675845 333.345162 
L 178.085589 328.74435 
L 178.555504 329.45515 
L 179.025418 330.682895 
L 179.495333 332.841141 
L 179.965247 334.081809 
L 180.435162 333.034995 
L 180.905076 332.711905 
L 181.374991 333.577788 
L 181.844905 332.879912 
L 182.31482 331.613396 
L 182.784734 329.274219 
L 183.724563 333.719948 
L 184.194478 332.156188 
L 184.664392 333.409781 
L 185.134307 333.862108 
L 185.604221 328.317871 
L 186.54405 334.094733 
L 187.013965 333.409781 
L 187.483879 331.19984 
L 187.953794 331.820174 
L 188.423708 331.962334 
L 188.893623 331.897716 
L 189.363538 335.658492 
L 189.833452 336.020354 
L 190.303367 331.936487 
L 190.773281 332.143265 
L 191.243196 331.587549 
L 191.71311 334.921845 
L 192.183025 331.48416 
L 192.652939 336.731153 
L 193.122854 337.790891 
L 193.592768 336.757 
L 194.062683 332.156188 
L 194.532597 332.776523 
L 195.002512 331.225687 
L 195.472426 330.747513 
L 196.412255 336.950855 
L 196.88217 333.616559 
L 197.352084 336.666535 
L 197.821999 331.574625 
L 198.291913 333.383933 
L 198.761828 332.014029 
L 199.231743 334.094733 
L 199.701657 334.805532 
L 200.171572 331.600472 
L 200.641486 333.396857 
L 201.111401 336.705306 
L 201.581315 332.156188 
L 202.05123 330.993062 
L 202.521144 334.443671 
L 202.991059 335.516332 
L 203.460973 331.755556 
L 203.930888 340.634089 
L 204.400802 337.558266 
L 204.870717 331.574625 
L 205.340631 334.54706 
L 205.810546 333.409781 
L 206.28046 336.136666 
L 206.750375 334.081809 
L 207.220289 331.070604 
L 207.690204 331.729709 
L 208.160118 331.510007 
L 208.630033 330.463193 
L 209.099947 332.556821 
L 209.569862 338.850628 
L 210.039777 333.577788 
L 210.509691 332.285425 
L 210.979606 334.198122 
L 211.919435 329.157907 
L 212.389349 336.201284 
L 213.329178 332.23373 
L 213.799093 332.828217 
L 214.269007 330.385651 
L 214.738922 331.716785 
L 215.208836 331.251534 
L 215.678751 330.540735 
L 216.148665 337.054244 
L 216.61858 335.309554 
L 217.088494 333.022072 
L 217.558409 335.322478 
L 218.028323 334.598754 
L 218.498238 332.750675 
L 218.968152 333.383933 
L 219.438067 333.112537 
L 219.907982 333.719948 
L 220.377896 328.188634 
L 220.847811 329.196677 
L 221.317725 328.175711 
L 221.78764 330.863826 
L 222.257554 327.555376 
L 222.727469 329.752393 
L 223.667298 328.653885 
L 224.137212 326.805806 
L 224.607127 330.980138 
L 225.077041 322.786557 
L 225.546956 337.157633 
L 226.01687 336.136666 
L 226.486785 329.623157 
L 226.956699 329.674852 
L 227.426614 328.60219 
L 227.896528 328.124016 
L 228.366443 331.548778 
L 228.836357 319.180865 
L 229.306272 327.594147 
L 229.776186 324.014302 
L 230.246101 327.968933 
L 230.716016 326.418097 
L 231.18593 330.980138 
L 231.655845 327.529529 
L 232.125759 302.173369 
L 232.595674 338.075211 
L 233.065588 325.849457 
L 233.535503 326.857501 
L 234.005417 315.575172 
L 234.475332 321.623431 
L 234.945246 334.275664 
L 235.415161 312.589814 
L 235.885075 264.643149 
L 236.824904 327.632918 
L 237.294819 316.117965 
L 237.764733 312.912905 
L 238.234648 329.920401 
L 238.704562 320.938478 
L 239.174477 309.139205 
L 239.644391 328.072322 
L 240.114306 319.607345 
L 240.584221 328.60219 
L 241.52405 319.904588 
L 241.993964 315.523478 
L 242.463879 271.583138 
L 242.933793 316.945077 
L 243.403708 323.109648 
L 243.873622 319.335948 
L 244.343537 329.842859 
L 244.813451 318.340829 
L 245.283366 290.878117 
L 245.75328 330.269339 
L 246.223195 332.362967 
L 246.693109 325.371283 
L 247.163024 316.63491 
L 247.632938 315.510554 
L 248.102853 301.578882 
L 248.572767 275.175907 
L 249.042682 172.381361 
L 249.512596 268.158377 
L 249.982511 301.578882 
L 250.452425 321.700972 
L 250.92234 317.048466 
L 251.392255 295.931256 
L 251.862169 324.608789 
L 252.332084 227.151701 
L 252.801998 294.367497 
L 253.271913 328.434183 
L 253.741827 320.718777 
L 254.211742 315.484707 
L 254.681656 296.461125 
L 255.151571 297.779335 
L 255.621485 280.913999 
L 256.0914 307.678835 
L 257.031229 329.041594 
L 257.501143 291.162437 
L 257.971058 270.613866 
L 258.440972 196.057449 
L 258.910887 238.00755 
L 259.380801 331.406618 
L 259.850716 283.951052 
L 260.32063 282.930085 
L 260.790545 330.398575 
L 261.730374 237.270903 
L 262.200289 191.547103 
L 262.670203 305.623978 
L 263.140118 276.403652 
L 263.610032 278.794523 
L 264.079947 316.841688 
L 265.019776 179.566898 
L 265.48969 211.953513 
L 265.959605 296.40943 
L 266.429519 274.72358 
L 266.899434 273.108127 
L 267.369348 257.754855 
L 267.839263 278.523127 
L 268.309177 156.123435 
L 268.779092 70.930871 
L 269.249006 116.073108 
L 269.718921 290.658415 
L 270.188835 235.112657 
L 270.65875 227.578181 
L 271.128664 233.94953 
L 271.598579 196.703631 
L 272.068494 139.697502 
L 272.538408 242.517896 
L 273.008323 248.411071 
L 273.478237 239.739316 
L 273.948152 295.117067 
L 274.418066 220.431414 
L 274.887981 103.93782 
L 275.357895 73.334666 
L 275.82781 231.649124 
L 276.297724 261.929187 
L 276.767639 312.279647 
L 277.237553 234.531093 
L 277.707468 270.20031 
L 278.647297 154.443363 
L 279.117211 251.137957 
L 279.587126 219.604302 
L 280.05704 211.449492 
L 280.526955 225.342393 
L 280.996869 208.709682 
L 281.466784 101.58572 
L 281.936699 178.158223 
L 282.876528 290.270706 
L 283.346442 198.021841 
L 283.816357 199.042808 
L 284.286271 205.491699 
L 284.756186 120.686844 
L 285.2261 63.667792 
L 285.696015 94.413105 
L 286.165929 301.372104 
L 286.635844 234.324315 
L 287.105758 264.436371 
L 288.045587 106.81979 
L 288.515502 133.145222 
L 288.985416 256.772659 
L 289.455331 220.98713 
L 289.925245 208.076424 
L 290.39516 223.649398 
L 290.865074 210.325136 
L 291.334989 250.220379 
L 291.804903 188.277424 
L 292.274818 217.588216 
L 292.744733 195.941137 
L 293.214647 250.388386 
L 293.684562 195.462962 
L 294.154476 207.249312 
L 294.624391 118.373514 
L 295.094305 119.019695 
L 296.034134 318.793156 
L 296.504049 193.162556 
L 296.973963 210.428525 
L 297.443878 202.028166 
L 297.913792 104.713238 
L 298.383707 228.883467 
L 298.853621 177.408652 
L 299.323536 303.569121 
L 299.79345 310.470339 
L 300.263365 297.973189 
L 300.733279 311.038978 
L 301.203194 242.285271 
L 301.673108 233.768599 
L 302.143023 305.59813 
L 302.612938 308.169933 
L 303.082852 287.285348 
L 303.552767 311.374993 
L 304.022681 312.964599 
L 304.492596 228.650842 
L 304.96251 313.584933 
L 305.432425 313.158454 
L 305.902339 296.680826 
L 306.372254 297.805182 
L 306.842168 294.819824 
L 307.312083 285.773283 
L 307.781997 181.893152 
L 308.251912 214.486544 
L 308.721826 311.646389 
L 309.191741 304.060219 
L 309.661655 304.370386 
L 310.13157 311.711007 
L 310.601484 295.246303 
L 311.071399 308.325016 
L 311.541313 271.893305 
L 312.011228 316.35059 
L 312.481142 306.670792 
L 312.951057 328.731427 
L 313.420972 323.47151 
L 313.890886 306.270159 
L 314.360801 302.289681 
L 314.830715 317.048466 
L 315.30063 316.854612 
L 315.770544 311.232833 
L 316.240459 310.173095 
L 316.710373 311.917785 
L 317.180288 303.659586 
L 317.650202 307.329897 
L 318.120117 280.035192 
L 319.52986 329.946248 
L 319.999775 325.138658 
L 320.939604 303.013405 
L 321.409518 298.076578 
L 321.879433 320.007977 
L 322.349347 330.114255 
L 322.819262 320.26645 
L 323.289177 319.310101 
L 323.759091 322.657321 
L 324.229006 314.101878 
L 324.69892 333.215926 
L 325.168835 318.66392 
L 325.638749 324.053073 
L 326.108664 332.001105 
L 326.578578 330.967215 
L 327.048493 327.529529 
L 327.518407 331.419542 
L 327.988322 324.983574 
L 328.458236 328.847739 
L 328.928151 327.180591 
L 329.86798 330.786284 
L 330.337894 326.547333 
L 330.807809 330.385651 
L 331.277723 330.101331 
L 331.747638 333.681177 
L 332.217552 331.445389 
L 332.687467 331.62632 
L 333.157381 330.682895 
L 333.627296 330.902596 
L 334.097211 334.54706 
L 334.567125 332.182036 
L 335.03704 332.246654 
L 335.506954 330.980138 
L 335.976869 330.825055 
L 336.446783 331.277382 
L 336.916698 332.065723 
L 337.386612 329.390532 
L 337.856527 332.285425 
L 338.326441 334.017191 
L 338.796356 327.85262 
L 339.26627 331.406618 
L 339.736185 328.615114 
L 340.206099 329.325914 
L 340.676014 332.569745 
L 341.145928 338.979865 
L 341.615843 333.254697 
L 342.085757 328.938205 
L 342.555672 331.936487 
L 343.025586 331.186916 
L 343.495501 333.745795 
L 343.965416 332.776523 
L 344.43533 333.875031 
L 344.905245 332.634363 
L 345.375159 332.23373 
L 345.845074 330.062561 
L 346.314988 330.295186 
L 346.784903 329.351761 
L 347.254817 337.519495 
L 347.724732 334.83138 
L 348.194646 330.863826 
L 348.664561 331.044756 
L 349.134475 331.561702 
L 349.60439 331.548778 
L 350.074304 329.687775 
L 350.544219 331.445389 
L 351.014133 331.76848 
L 351.484048 330.127179 
L 351.953962 333.926726 
L 352.423877 334.017191 
L 352.893791 335.102776 
L 353.83362 324.776796 
L 354.303535 337.157633 
L 354.77345 332.350043 
L 355.243364 334.559984 
L 355.713279 333.060843 
L 356.183193 330.734589 
L 357.123022 334.068886 
L 357.592937 334.598754 
L 358.062851 331.807251 
L 358.532766 331.923563 
L 359.00268 332.595592 
L 359.472595 331.807251 
L 359.942509 331.548778 
L 360.412424 337.661655 
L 360.882338 335.994506 
L 361.352253 331.742632 
L 361.822167 332.285425 
L 362.292082 331.62632 
L 362.761996 331.742632 
L 363.701825 337.248098 
L 364.17174 336.511452 
L 364.641655 334.947692 
L 365.111569 332.220807 
L 365.581484 331.329076 
L 366.051398 331.329076 
L 366.521313 331.678014 
L 366.991227 336.627764 
L 367.461142 335.710187 
L 367.931056 331.923563 
L 368.400971 331.445389 
L 368.870885 330.424422 
L 369.3408 331.367847 
L 369.810714 330.954291 
L 370.750543 336.278826 
L 371.220458 329.997942 
L 371.690372 331.05768 
L 372.160287 330.682895 
L 372.630201 335.555103 
L 373.100116 335.736034 
L 373.57003 334.908922 
L 374.039945 336.265903 
L 374.509859 330.954291 
L 374.979774 334.857227 
L 375.449689 334.456594 
L 375.919603 332.182036 
L 376.389518 335.568027 
L 376.859432 335.180318 
L 377.799261 330.566582 
L 378.269176 331.639243 
L 378.73909 330.721666 
L 379.209005 332.789446 
L 379.678919 332.957454 
L 380.148834 331.018909 
L 380.618748 327.542453 
L 381.558577 331.445389 
L 382.498406 332.698981 
L 382.968321 331.794327 
L 383.438235 334.301511 
L 383.90815 334.353205 
L 384.378064 332.569745 
L 384.847979 332.052799 
L 385.317894 329.351761 
L 385.787808 329.222525 
L 386.257723 331.975258 
L 386.727637 330.30811 
L 387.197552 321.339111 
L 388.137381 331.897716 
L 389.07721 330.876749 
L 389.547124 331.94941 
L 390.017039 334.495365 
L 390.486953 332.23373 
L 390.956868 337.4678 
L 391.896697 338.372454 
L 392.366611 338.488767 
L 392.836526 338.850628 
L 393.30644 338.773087 
L 393.776355 340.091297 
L 394.716184 338.682621 
L 395.186098 339.328803 
L 396.125928 339.186643 
L 397.065757 340.375617 
L 397.535671 339.962061 
L 398.005586 339.393421 
L 398.4755 339.419268 
L 398.945415 339.302955 
L 399.415329 339.432192 
L 399.885244 339.845748 
L 400.355158 340.440235 
L 400.825073 339.729435 
L 402.234816 339.21249 
L 402.704731 340.750402 
L 403.174645 339.470963 
L 403.64456 340.944256 
L 404.114474 340.556547 
L 404.584389 339.509734 
L 405.524218 339.109101 
L 406.464047 339.600199 
L 406.933962 340.5307 
L 407.403876 339.341726 
L 407.873791 339.63897 
L 408.343705 338.889399 
L 409.283534 339.290032 
L 409.753449 339.626046 
L 410.223363 340.659937 
L 410.693278 339.380497 
L 411.163192 339.21249 
L 412.103021 339.406344 
L 412.572936 338.773087 
L 413.04285 339.458039 
L 413.512765 339.664817 
L 413.982679 339.574352 
L 414.452594 338.708469 
L 415.392423 339.109101 
L 415.862337 338.372454 
L 416.332252 339.794053 
L 416.802167 339.871595 
L 417.272081 339.535581 
L 418.21191 338.307836 
L 418.681825 338.966941 
L 419.151739 339.160796 
L 419.621654 338.359531 
L 420.091568 340.10422 
L 420.561483 340.479006 
L 421.031397 338.708469 
L 421.501312 338.062287 
L 421.971226 337.803814 
L 422.441141 337.984745 
L 423.38097 340.000831 
L 423.850884 338.592156 
L 424.320799 338.437072 
L 424.790713 338.773087 
L 425.260628 338.191523 
L 425.730542 338.669698 
L 426.200457 338.605079 
L 426.670372 339.290032 
L 427.140286 338.488767 
L 428.080115 338.269065 
L 428.55003 337.377335 
L 429.019944 337.803814 
L 429.489859 338.411225 
L 429.959773 338.78601 
L 430.429688 338.449996 
L 430.899602 337.790891 
L 431.369517 338.307836 
L 431.839431 337.648731 
L 432.309346 337.312717 
L 433.249175 338.656774 
L 433.719089 337.89428 
L 434.658918 337.235175 
L 435.598747 336.873313 
L 436.068662 337.093015 
L 436.538576 337.881356 
L 437.008491 338.191523 
L 437.478406 337.945974 
L 437.94832 336.89916 
L 438.418235 336.937931 
L 438.888149 335.748957 
L 439.358064 318.70269 
L 439.827978 287.181959 
L 440.297893 315.407165 
L 440.767807 316.505674 
L 441.237722 267.731897 
L 441.707636 306.800028 
L 442.177551 305.817832 
L 442.647465 273.818926 
L 443.11738 289.340205 
L 443.587294 316.079194 
L 444.057209 318.314982 
L 444.527123 317.940196 
L 445.466952 310.948513 
L 445.936867 327.5683 
L 446.406781 291.653535 
L 446.876696 323.161343 
L 447.346611 312.757821 
L 447.816525 309.113358 
L 448.28644 334.353205 
L 448.756354 299.89881 
L 449.226269 274.142017 
L 449.696183 317.746342 
L 450.166098 309.785386 
L 450.636012 312.938752 
L 451.105927 333.306391 
L 452.045756 299.498177 
L 452.51567 264.811157 
L 452.985585 276.804285 
L 453.455499 328.408336 
L 453.925414 307.924384 
L 454.395328 320.046748 
L 454.865243 308.19578 
L 455.335157 293.411148 
L 455.805072 274.969129 
L 456.274986 325.68145 
L 456.744901 314.437893 
L 457.214815 333.125461 
L 457.68473 304.913178 
L 458.154645 302.845397 
L 458.624559 298.942461 
L 459.094474 270.988651 
L 459.564388 275.977172 
L 460.034303 309.320136 
L 460.504217 325.836534 
L 460.974132 298.748607 
L 461.444046 303.582044 
L 461.913961 291.976625 
L 462.383875 273.767232 
L 462.85379 310.819277 
L 463.323704 323.510281 
L 463.793619 306.59325 
L 464.263533 305.236269 
L 464.733448 300.842235 
L 465.203362 306.115076 
L 465.673277 270.936957 
L 466.143191 270.445859 
L 466.613106 310.069706 
L 467.08302 301.372104 
L 468.02285 320.343991 
L 468.962679 291.407986 
L 469.432593 273.069356 
L 469.902508 304.719324 
L 470.372422 307.62714 
L 470.842337 328.615114 
L 471.312251 301.139478 
L 471.782166 298.477211 
L 472.25208 270.497554 
L 472.721995 271.996695 
L 473.191909 312.744897 
L 473.661824 333.823337 
L 474.131738 327.490758 
L 474.601653 329.31299 
L 475.071567 320.628311 
L 475.541482 299.950504 
L 476.011396 318.948239 
L 476.481311 329.300066 
L 476.951225 330.501964 
L 477.42114 316.802917 
L 477.891054 329.829935 
L 478.360969 327.322751 
L 478.830884 313.455697 
L 479.300798 316.247201 
L 479.770713 330.450269 
L 480.240627 329.442226 
L 480.710542 319.943359 
L 481.180456 329.674852 
L 481.650371 320.537846 
L 482.120285 294.302879 
L 482.5902 304.758095 
L 483.060114 327.904314 
L 483.530029 332.957454 
L 483.999943 334.934769 
L 484.469858 331.742632 
L 484.939772 334.391976 
L 485.409687 324.93188 
L 485.879601 336.782848 
L 486.349516 331.251534 
L 486.81943 330.721666 
L 487.289345 334.211046 
L 487.759259 332.156188 
L 488.229174 329.248372 
L 488.699089 320.188908 
L 489.169003 327.245209 
L 489.638918 331.471236 
L 490.108832 329.687775 
L 490.578747 330.398575 
L 491.048661 335.219089 
L 491.518576 331.858945 
L 491.98849 325.448825 
L 492.458405 334.391976 
L 492.928319 334.895998 
L 493.398234 333.603635 
L 493.868148 334.379053 
L 494.338063 334.585831 
L 494.807977 325.939923 
L 495.277892 331.031833 
L 495.747806 334.430747 
L 496.217721 334.4049 
L 496.687635 334.779685 
L 497.15755 331.613396 
L 497.627464 334.482442 
L 498.097379 333.254697 
L 498.567293 331.690938 
L 499.037208 338.811858 
L 499.507123 335.219089 
L 499.977037 334.676296 
L 500.446952 331.031833 
L 500.916866 332.763599 
L 501.856695 323.678288 
L 502.796524 326.896271 
L 503.266439 323.574899 
L 503.736353 329.015747 
L 504.206268 332.388814 
L 504.676182 333.022072 
L 505.146097 332.156188 
L 505.616011 340.000831 
L 506.085926 335.516332 
L 506.55584 334.702143 
L 507.495669 334.004267 
L 507.965584 332.673134 
L 508.435498 335.800652 
L 508.905413 339.768206 
L 509.375328 335.387096 
L 509.845242 334.999387 
L 510.315157 335.232012 
L 510.785071 334.54706 
L 511.254986 334.366129 
L 511.7249 335.813576 
L 512.194815 335.606797 
L 512.664729 335.955735 
L 513.134644 338.049363 
L 513.604558 335.141547 
L 514.074473 334.482442 
L 514.544387 335.232012 
L 515.484216 338.411225 
L 515.954131 334.986463 
L 516.424045 334.805532 
L 516.89396 335.244936 
L 517.363874 334.314435 
L 517.833789 333.745795 
L 518.303703 339.07033 
L 518.773618 338.191523 
L 519.243532 335.15447 
L 519.713447 334.430747 
L 520.183362 335.43879 
L 521.123191 333.900878 
L 521.593105 337.803814 
L 522.06302 338.954017 
L 522.532934 337.454876 
L 523.002849 336.912084 
L 523.472763 335.658492 
L 523.942678 338.256141 
L 524.412592 339.574352 
L 524.882507 338.411225 
L 525.352421 337.545342 
L 525.822336 338.92817 
L 526.29225 336.705306 
L 526.762165 338.411225 
L 527.232079 336.472681 
L 527.701994 338.695545 
L 528.171908 336.873313 
L 528.641823 339.290032 
L 529.111737 338.449996 
L 530.051567 337.920127 
L 530.521481 337.545342 
L 530.991396 337.661655 
L 531.46131 334.83138 
L 531.931225 337.571189 
L 532.401139 338.101058 
L 532.871054 338.088134 
L 533.340968 337.661655 
L 533.810883 338.449996 
L 534.280797 338.721392 
L 534.750712 337.364411 
L 535.220626 339.251261 
L 535.690541 338.747239 
L 536.160455 338.50169 
L 536.63037 338.424149 
L 537.100284 338.139829 
L 537.570199 338.243218 
L 538.040113 337.248098 
L 538.510028 338.708469 
L 538.979942 338.230294 
L 539.449857 339.083254 
L 539.919771 338.113982 
L 540.389686 338.372454 
L 540.859601 338.062287 
L 541.329515 334.611678 
L 541.79943 338.165676 
L 542.269344 338.359531 
L 542.739259 337.907203 
L 543.209173 336.227132 
L 543.679088 337.441953 
L 544.149002 338.204447 
L 544.618917 335.270783 
L 545.088831 335.58095 
L 545.558746 337.700425 
L 546.968489 336.873313 
L 547.438404 337.209328 
L 547.908318 334.159351 
L 548.378233 329.920401 
L 548.848147 332.569745 
L 549.318062 338.527538 
L 549.787976 334.559984 
L 550.257891 336.097895 
L 550.727806 335.852346 
L 551.19772 336.769924 
L 551.667635 341.357812 
L 552.137549 341.357812 
L 552.607464 340.556547 
L 553.077378 336.873313 
L 554.017207 335.335401 
L 554.487122 333.177155 
L 554.957036 338.46292 
L 555.426951 337.4678 
L 555.896865 336.912084 
L 556.36678 334.934769 
L 556.836694 336.227132 
L 557.306609 336.175437 
L 557.776523 334.921845 
L 558.246438 332.957454 
L 558.716352 336.227132 
L 559.186267 334.456594 
L 559.656181 334.030115 
L 560.126096 336.033277 
L 560.59601 333.862108 
L 561.065925 330.153026 
L 561.53584 336.550222 
L 562.005754 336.679459 
L 562.475669 337.093015 
L 562.945583 335.774805 
L 563.415498 337.170557 
L 563.885412 335.425867 
L 564.355327 317.978967 
L 564.825241 322.47639 
L 565.295156 333.125461 
L 566.234985 335.891117 
L 566.704899 332.673134 
L 567.174814 336.795771 
L 567.644728 330.980138 
L 568.114643 338.837705 
L 568.584557 336.110819 
L 569.054472 329.817012 
L 569.524386 336.472681 
L 569.994301 336.278826 
L 570.464215 330.217644 
L 570.93413 332.078647 
L 571.404045 319.878741 
L 571.873959 334.366129 
L 572.343874 335.412943 
L 572.813788 334.172275 
L 573.283703 333.526093 
L 573.753617 335.839423 
L 574.223532 319.503955 
L 574.693446 339.470963 
L 575.163361 337.997669 
L 575.633275 335.813576 
L 576.10319 331.962334 
L 576.573104 337.286869 
L 577.043019 335.942812 
L 577.512933 336.072048 
L 577.982848 335.025234 
L 578.452762 336.963779 
L 578.922677 337.480724 
L 579.392591 338.553385 
L 579.862506 337.75212 
L 580.33242 331.393694 
L 580.802335 327.607071 
L 581.272249 334.495365 
L 581.742164 336.511452 
L 582.212079 336.71823 
L 582.681993 337.855509 
L 583.151908 337.635807 
L 583.621822 336.847466 
L 584.091737 330.269339 
L 584.561651 335.697263 
L 585.031566 337.60996 
L 585.50148 337.648731 
L 585.971395 336.343444 
L 586.441309 333.771642 
L 586.911224 336.408063 
L 587.381138 326.159625 
L 587.851053 330.101331 
L 588.320967 336.033277 
L 588.790882 336.214208 
L 589.260796 330.191797 
L 589.730711 327.878467 
L 590.200625 326.159625 
L 590.67054 310.496186 
L 591.140454 307.381591 
L 591.610369 329.222525 
L 592.080284 325.061116 
L 592.550198 324.93188 
L 593.020113 327.684613 
L 593.490027 310.173095 
L 593.959942 310.573728 
L 594.429856 265.560727 
L 594.899771 265.134247 
L 595.369685 321.558813 
L 595.8396 332.789446 
L 596.309514 321.196951 
L 596.779429 337.196404 
L 597.249343 295.052449 
L 597.719258 284.610157 
L 598.189172 318.3796 
L 598.659087 319.452261 
L 599.129001 321.532965 
L 599.598916 333.241773 
L 600.06883 317.332786 
L 600.538745 266.271527 
L 601.008659 258.749975 
L 601.478574 316.91923 
L 601.948488 333.306391 
L 602.888318 312.899981 
L 603.358232 309.707845 
L 603.828147 265.121324 
L 604.298061 274.788198 
L 604.767976 330.450269 
L 605.23789 318.534683 
L 605.707805 315.187463 
L 606.177719 313.300613 
L 606.647634 331.884792 
L 607.117548 254.368864 
L 607.587463 259.719247 
L 608.057377 327.128897 
L 608.527292 322.90287 
L 609.467121 305.339658 
L 609.937035 319.374719 
L 610.40695 314.46374 
L 610.876864 258.013328 
L 611.346779 311.723931 
L 611.816693 328.059398 
L 612.286608 318.66392 
L 612.756523 265.017935 
L 613.226437 308.725649 
L 613.696352 240.062407 
L 614.166266 246.860236 
L 614.636181 295.530623 
L 615.106095 305.210422 
L 616.045924 332.09157 
L 616.515839 311.930709 
L 616.985753 238.382335 
L 617.455668 303.207259 
L 617.925582 312.215029 
L 618.395497 317.785113 
L 618.865411 289.198045 
L 619.335326 294.212413 
L 620.275155 306.851722 
L 620.745069 241.67786 
L 621.214984 280.164428 
L 621.684898 299.433559 
L 622.154813 259.073065 
L 622.624727 278.936683 
L 623.094642 253.74853 
L 623.564557 277.851099 
L 624.034471 201.381984 
L 624.9743 319.142094 
L 625.444215 247.299639 
L 625.914129 320.26645 
L 626.384044 232.476236 
L 626.853958 212.302451 
L 627.323873 283.175634 
L 627.793787 156.407755 
L 628.263702 260.778984 
L 628.733616 247.299639 
L 629.203531 239.364531 
L 630.14336 258.181335 
L 630.613274 194.700468 
L 631.553103 315.239158 
L 632.492932 273.095203 
L 632.962847 285.540658 
L 633.432762 169.240919 
L 633.902676 174.345752 
L 634.372591 246.369138 
L 634.842505 296.073416 
L 635.31242 290.076852 
L 635.782334 270.109845 
L 636.252249 238.421106 
L 636.722163 173.479869 
L 637.661992 258.052099 
L 638.131907 225.497477 
L 638.601821 288.551864 
L 639.071736 276.248569 
L 639.54165 240.514734 
L 640.011565 187.346923 
L 640.481479 259.253996 
L 640.951394 272.048389 
L 641.421308 255.790463 
L 641.891223 259.538316 
L 642.361137 249.625892 
L 642.831052 236.288707 
L 643.300966 152.634055 
L 643.770881 160.220225 
L 644.240796 200.541949 
L 644.71071 276.804285 
L 645.180625 315.78195 
L 645.650539 326.237166 
L 646.120454 306.606174 
L 646.590368 256.087707 
L 647.060283 311.142367 
L 647.530197 319.594421 
L 648.000112 325.280818 
L 648.470026 323.846295 
L 648.939941 315.49763 
L 649.409855 303.969753 
L 649.87977 250.905332 
L 650.349684 262.213507 
L 650.819599 312.034098 
L 651.289513 325.35836 
L 651.759428 334.211046 
L 652.229342 327.348598 
L 652.699257 318.819003 
L 653.169171 315.730256 
L 653.639086 295.259227 
L 654.109001 325.07404 
L 654.578915 320.460304 
L 655.04883 318.98701 
L 655.988659 314.644671 
L 656.458573 273.857697 
L 656.928488 332.427585 
L 657.398402 331.535854 
L 657.868317 326.922119 
L 658.338231 325.125734 
L 658.808146 325.009422 
L 659.27806 325.280818 
L 659.747975 327.309828 
L 660.217889 290.787651 
L 660.687804 279.996421 
L 661.157718 322.04991 
L 661.627633 315.769027 
L 662.567462 329.610234 
L 663.037376 326.25009 
L 663.507291 318.159898 
L 663.977205 326.637799 
L 664.44712 317.513717 
L 665.386949 332.246654 
L 666.326778 318.909469 
L 666.796693 309.074587 
L 667.266607 334.236893 
L 667.736522 333.138384 
L 668.206436 318.263287 
L 668.676351 326.39225 
L 669.146265 330.049637 
L 669.61618 335.076929 
L 670.086094 319.012858 
L 670.556009 327.296904 
L 671.025923 328.253252 
L 671.495838 330.682895 
L 671.965752 330.669971 
L 672.435667 325.500519 
L 672.905581 316.725375 
L 673.375496 312.848286 
L 674.315325 330.075484 
L 674.78524 326.947966 
L 675.255154 325.720221 
L 675.725069 324.065997 
L 676.194983 323.75583 
L 676.664898 336.937931 
L 677.134812 331.380771 
L 677.604727 330.708742 
L 678.074641 333.358086 
L 678.544556 332.634363 
L 679.01447 330.837978 
L 679.484385 330.127179 
L 679.954299 335.1157 
L 680.424214 332.854064 
L 680.894128 332.001105 
L 681.364043 330.476117 
L 681.833957 333.08669 
L 682.303872 331.380771 
L 682.773786 330.799207 
L 683.243701 338.204447 
L 683.713615 333.642406 
L 684.18353 333.539017 
L 684.653444 332.983301 
L 685.123359 333.060843 
L 685.593274 332.117418 
L 686.063188 332.169112 
L 686.533103 337.674578 
L 687.003017 334.030115 
L 687.472932 332.892835 
L 687.942846 333.952573 
L 688.412761 333.642406 
L 688.882675 332.854064 
L 689.35259 335.141547 
L 689.822504 332.440508 
L 690.292419 331.846021 
L 690.762333 332.324196 
L 691.232248 334.288587 
L 691.702162 333.125461 
L 692.172077 332.569745 
L 692.641991 337.248098 
L 693.111906 334.223969 
L 693.58182 335.089852 
L 694.051735 334.366129 
L 694.521649 335.787728 
L 694.991564 335.400019 
L 695.461479 337.015473 
L 695.931393 335.270783 
L 696.401308 332.014029 
L 696.871222 337.713349 
L 697.341137 332.737752 
L 697.811051 333.913802 
L 698.280966 331.962334 
L 698.75088 332.117418 
L 699.220795 334.857227 
L 699.690709 336.89916 
L 700.160624 334.482442 
L 700.630538 335.219089 
L 701.100453 338.449996 
L 701.570367 336.731153 
L 702.040282 336.588993 
L 702.510196 334.340282 
L 702.980111 337.312717 
L 703.450025 338.46292 
L 703.91994 338.165676 
L 704.389854 336.265903 
L 704.859769 336.459757 
L 705.329683 336.123743 
L 705.799598 336.175437 
L 706.269513 327.555376 
L 706.739427 339.690664 
L 707.209342 337.441953 
L 707.679256 334.366129 
L 708.149171 335.29663 
L 708.619085 334.417824 
L 709.089 330.850902 
L 709.558914 332.117418 
L 710.028829 335.232012 
L 710.498743 334.055962 
L 711.438572 334.624602 
L 711.908487 333.190079 
L 712.378401 326.586104 
L 712.848316 329.519768 
L 713.31823 335.180318 
L 713.788145 332.492203 
L 714.258059 335.025234 
L 714.727974 335.29663 
L 715.197888 334.017191 
L 715.667803 330.889673 
L 716.137718 329.080365 
L 716.607632 333.138384 
L 717.077547 334.043038 
L 717.547461 333.112537 
L 718.017376 336.666535 
L 718.48729 341.357812 
L 718.957205 341.357812 
L 719.427119 340.233457 
L 720.366948 334.043038 
L 720.836863 332.996224 
L 721.306777 335.619721 
L 721.776692 336.614841 
L 722.246606 335.736034 
L 722.716521 333.319315 
L 723.186435 328.460031 
L 723.65635 334.391976 
L 724.126264 332.543897 
L 724.596179 331.975258 
L 725.066093 334.094733 
L 725.536008 333.215926 
L 726.005922 336.356368 
L 726.945752 332.505126 
L 727.885581 332.401737 
L 728.355495 331.561702 
L 728.82541 332.530974 
L 729.295324 322.282536 
L 729.765239 335.076929 
L 730.235153 331.833098 
L 730.705068 331.419542 
L 731.174982 331.48416 
L 731.644897 334.275664 
L 732.114811 334.934769 
L 732.584726 337.403182 
L 733.05464 332.582668 
L 733.524555 336.757 
L 733.994469 334.236893 
L 734.464384 320.796318 
L 735.404213 335.283707 
L 735.874127 323.704135 
L 736.344042 328.369565 
L 736.813957 330.708742 
L 737.283871 334.947692 
L 737.753786 331.173993 
L 738.2237 331.897716 
L 738.693615 331.548778 
L 739.163529 337.144709 
L 740.103358 329.972095 
L 740.573273 334.54706 
L 741.043187 330.178873 
L 741.513102 334.960616 
L 741.983016 320.654158 
L 742.452931 333.758719 
L 742.922845 329.584386 
L 743.39276 330.747513 
L 743.862674 332.569745 
L 744.332589 329.209601 
L 744.802503 330.256415 
L 745.272418 330.036713 
L 745.742332 321.261569 
L 746.212247 329.300066 
L 746.682161 314.631747 
L 747.152076 329.054517 
L 747.621991 325.513443 
L 748.091905 317.074313 
L 748.56182 303.491579 
L 749.031734 302.341376 
L 749.501649 331.277382 
L 749.971563 330.695818 
L 750.441478 319.206712 
L 750.911392 329.713623 
L 751.381307 311.465458 
L 751.851221 328.938205 
L 752.321136 285.47604 
L 752.79105 329.209601 
L 753.260965 324.156462 
L 753.730879 327.71046 
L 754.670708 311.96948 
L 755.140623 287.582591 
L 755.610537 332.828217 
L 756.080452 323.704135 
L 756.550366 328.408336 
L 757.020281 317.604182 
L 757.490196 311.077749 
L 757.96011 318.418371 
L 758.430025 277.889869 
L 758.899939 259.060142 
L 759.369854 314.244038 
L 759.839768 316.880459 
L 761.249512 295.918332 
L 761.719426 206.874527 
L 762.189341 250.582241 
L 762.659255 327.697536 
L 763.12917 315.03238 
L 763.599084 314.399122 
L 764.068999 311.956556 
L 764.538913 299.356018 
L 765.008828 272.048389 
L 765.478742 267.951599 
L 765.948657 186.300109 
L 766.418571 309.009969 
L 766.888486 314.386198 
L 767.3584 314.140649 
L 767.828315 323.057954 
L 768.29823 208.347821 
L 768.768144 203.759932 
L 769.238059 286.755479 
L 769.707973 288.887878 
L 770.177888 325.332512 
L 770.647802 306.903417 
L 771.117717 274.72358 
L 771.587631 170.042184 
L 772.057546 219.048586 
L 772.52746 311.814396 
L 772.997375 326.379326 
L 773.467289 287.879835 
L 773.937204 309.397677 
L 774.407118 261.76118 
L 774.877033 239.454996 
L 775.346947 297.378702 
L 775.816862 273.12105 
L 776.286776 280.306588 
L 776.756691 297.507939 
L 777.226605 300.532068 
L 777.69652 255.893853 
L 778.166435 126.696331 
L 778.636349 92.707186 
L 779.106264 291.136589 
L 779.576178 261.321777 
L 780.046093 282.865467 
L 780.985922 233.755676 
L 781.455836 106.832713 
L 781.925751 256.798507 
L 782.395665 252.792181 
L 782.86558 253.477134 
L 783.335494 302.044132 
L 783.805409 236.973659 
L 784.745238 84.216362 
L 785.215152 119.123085 
L 786.154981 310.534957 
L 786.624896 235.952693 
L 787.09481 243.771488 
L 787.564725 246.071894 
L 788.034639 120.893622 
L 788.504554 111.834158 
L 788.974469 227.849577 
L 789.444383 264.837004 
L 789.914298 276.067638 
L 790.384212 218.609182 
L 790.854127 212.40584 
L 791.324041 46.724914 
L 791.793956 114.54812 
L 792.26387 298.089502 
L 792.733785 259.021371 
L 793.203699 246.743923 
L 793.673614 220.444338 
L 794.143528 209.084467 
L 794.613443 101.262629 
L 795.083357 284.054441 
L 795.553272 209.472176 
L 796.023186 219.824003 
L 796.493101 224.075877 
L 796.963015 199.779454 
L 797.43293 200.658261 
L 797.902844 114.354265 
L 798.372759 80.558975 
L 799.312588 218.622106 
L 799.782503 223.041987 
L 800.252417 297.482091 
L 801.192246 102.542068 
L 802.132075 301.591805 
L 802.60199 237.141667 
L 803.071904 206.590207 
L 803.541819 202.07986 
L 804.011733 189.660253 
L 804.481648 74.601182 
L 805.891391 218.893502 
L 806.361306 251.125033 
L 807.301135 197.530743 
L 807.771049 110.141162 
L 808.240964 264.371753 
L 808.710878 312.447654 
L 809.180793 233.975377 
L 809.650708 222.02102 
L 810.120622 280.073963 
L 810.590537 255.441525 
L 811.060451 136.712144 
L 811.530366 150.811823 
L 812.470195 311.103597 
L 812.940109 240.165796 
L 813.410024 228.456988 
L 813.879938 197.233499 
L 814.349853 138.922084 
L 814.819767 243.719794 
L 815.289682 231.067561 
L 815.759596 294.225337 
L 816.229511 310.560804 
L 816.699425 295.789096 
L 817.16934 285.450193 
L 817.639254 199.029884 
L 818.109169 242.931452 
L 818.579083 323.47151 
L 819.048998 317.500793 
L 819.518913 296.318965 
L 819.988827 302.25091 
L 820.458742 297.146077 
L 820.928656 207.546556 
L 821.398571 292.183403 
L 821.868485 288.448474 
L 822.3384 294.134871 
L 822.808314 318.134051 
L 823.278229 313.106759 
L 823.748143 306.657868 
L 824.218058 252.766334 
L 824.687972 325.784839 
L 825.157887 325.35836 
L 825.627801 328.356642 
L 827.037545 299.213858 
L 827.507459 287.802293 
L 827.977374 290.361172 
L 828.447288 318.870698 
L 828.917203 316.673681 
L 829.387117 308.428405 
L 829.857032 317.875578 
L 830.326947 323.122572 
L 830.796861 296.590361 
L 831.73669 281.870347 
L 832.206605 305.443047 
L 832.676519 321.830209 
L 833.146434 329.377608 
L 833.616348 315.03238 
L 834.086263 312.202105 
L 834.556177 308.544718 
L 835.026092 327.930162 
L 835.496006 329.209601 
L 835.965921 319.969206 
L 836.435835 328.330794 
L 836.90575 317.449098 
L 837.375664 280.577984 
L 837.845579 283.963975 
L 838.315493 311.219909 
L 838.785408 318.146974 
L 839.255322 328.666809 
L 839.725237 319.051628 
L 840.195152 320.033824 
L 840.665066 300.622533 
L 841.134981 316.35059 
L 841.604895 326.405173 
L 842.544724 322.657321 
L 843.014639 329.532692 
L 843.484553 320.44738 
L 843.954468 297.094382 
L 844.424382 297.094382 
L 844.894297 324.311546 
L 845.364211 326.224243 
L 845.834126 326.611952 
L 846.30404 316.557368 
L 846.773955 332.466356 
L 847.243869 319.155018 
L 847.713784 328.214482 
L 848.183698 328.873587 
L 848.653613 333.900878 
L 849.123527 333.952573 
L 849.593442 331.587549 
L 850.063356 333.190079 
L 850.533271 330.967215 
L 851.003186 334.883074 
L 851.4731 331.561702 
L 851.943015 330.088408 
L 852.412929 328.020627 
L 852.882844 331.329076 
L 853.352758 327.180591 
L 853.822673 316.609063 
L 854.292587 336.950855 
L 854.762502 330.967215 
L 855.232416 331.380771 
L 855.702331 333.745795 
L 856.172245 332.66021 
L 856.64216 332.737752 
L 857.112074 333.345162 
L 857.581989 329.972095 
L 858.051903 334.223969 
L 858.521818 332.530974 
L 858.991732 331.393694 
L 859.461647 328.498801 
L 859.931561 332.414661 
L 860.401476 333.707024 
L 860.871391 337.04132 
L 861.341305 333.060843 
L 861.81122 332.828217 
L 862.281134 334.727991 
L 862.751049 335.968659 
L 863.220963 332.466356 
L 863.690878 332.66021 
L 864.160792 334.572907 
L 864.630707 330.941367 
L 865.100621 331.703861 
L 865.570536 328.925281 
L 866.04045 332.686057 
L 866.510365 340.336846 
L 866.980279 341.357812 
L 867.450194 334.857227 
L 867.920108 334.521213 
L 868.390023 331.432465 
L 868.859937 331.303229 
L 869.329852 324.402011 
L 869.799766 330.463193 
L 870.269681 334.133504 
L 870.739595 331.91064 
L 871.20951 326.431021 
L 871.679425 335.916965 
L 872.149339 336.046201 
L 872.619254 333.125461 
L 873.089168 332.686057 
L 873.559083 328.679732 
L 874.028997 334.379053 
L 874.498912 331.742632 
L 874.968826 332.80237 
L 875.438741 333.564864 
L 875.908655 334.068886 
L 876.37857 336.188361 
L 876.848484 330.437346 
L 877.318399 329.985019 
L 877.788313 331.445389 
L 878.258228 336.925008 
L 878.728142 331.342 
L 879.198057 334.379053 
L 879.667971 332.595592 
L 880.137886 332.130341 
L 880.6078 336.343444 
L 881.077715 329.054517 
L 881.54763 332.711905 
L 882.017544 332.466356 
L 882.487459 335.503408 
L 882.957373 333.009148 
L 883.427288 331.923563 
L 883.897202 337.118862 
L 884.367117 332.647286 
L 884.837031 334.702143 
L 885.306946 330.644124 
L 885.77686 331.652167 
L 886.246775 334.792609 
L 886.716689 339.92329 
L 887.186604 331.303229 
L 887.656518 331.755556 
L 888.126433 335.451714 
L 888.596347 330.359804 
L 889.066262 334.999387 
L 889.536176 332.608516 
L 890.006091 326.237166 
L 890.476005 324.040149 
L 890.94592 330.295186 
L 891.415834 329.778241 
L 891.885749 332.957454 
L 892.355664 330.657048 
L 892.825578 334.702143 
L 893.295493 329.390532 
L 893.765407 322.605627 
L 894.235322 320.343991 
L 894.705236 330.333957 
L 895.175151 334.211046 
L 895.645065 336.912084 
L 896.11498 330.553658 
L 896.584894 334.482442 
L 897.054809 329.778241 
L 897.524723 334.818456 
L 897.994638 330.30811 
L 898.464552 330.954291 
L 898.934467 328.964052 
L 899.404381 333.396857 
L 899.874296 332.09157 
L 900.34421 330.153026 
L 901.284039 333.009148 
L 901.753954 327.917238 
L 902.223869 331.535854 
L 902.693783 332.130341 
L 903.163698 331.652167 
L 904.103527 333.719948 
L 904.573441 334.327358 
L 905.043356 327.775078 
L 905.51327 329.842859 
L 905.983185 335.206165 
L 906.453099 332.130341 
L 906.923014 333.138384 
L 907.392928 326.715341 
L 907.862843 326.405173 
L 908.332757 330.941367 
L 908.802672 332.259578 
L 909.272586 326.831653 
L 909.742501 337.261022 
L 910.212415 313.197224 
L 910.68233 331.690938 
L 911.152244 330.928444 
L 911.622159 333.448551 
L 912.092073 328.989899 
L 912.561988 335.490485 
L 913.031903 324.828491 
L 913.501817 319.245483 
L 913.971732 324.841414 
L 914.441646 332.104494 
L 914.911561 321.196951 
L 915.381475 322.01114 
L 915.85139 287.737675 
L 916.321304 289.275587 
L 916.791219 280.125657 
L 917.731048 316.531521 
L 918.200962 300.661304 
L 918.670877 293.178523 
L 919.140791 297.133153 
L 919.610706 265.005011 
L 920.08062 276.843055 
L 920.550535 330.799207 
L 921.020449 328.085245 
L 921.490364 323.536128 
L 921.960278 323.057954 
L 922.430193 315.820721 
L 922.900108 325.82361 
L 923.370022 307.717606 
L 923.839937 324.479553 
L 924.779766 315.187463 
L 925.24968 300.493297 
L 925.719595 323.174266 
L 926.659424 332.104494 
L 927.129338 323.122572 
L 927.599253 326.792882 
L 928.069167 327.025508 
L 928.539082 317.539564 
L 929.008996 298.735683 
L 929.478911 224.644517 
L 929.948825 316.441055 
L 930.41874 304.008524 
L 930.888654 307.278202 
L 931.358569 304.486698 
L 931.828483 299.265552 
L 932.298398 289.223892 
L 932.768312 203.230063 
L 933.238227 239.971941 
L 933.708142 302.793703 
L 934.178056 305.249192 
L 934.647971 318.52176 
L 935.117885 308.76442 
L 935.5878 296.331888 
L 936.057714 272.242243 
L 936.527629 85.13394 
L 937.467458 281.909118 
L 937.937372 313.830482 
L 938.877201 288.590634 
L 939.347116 170.985609 
L 939.81703 170.404045 
L 940.286945 279.233927 
L 940.756859 290.684262 
L 941.226774 279.750872 
L 941.696688 283.459954 
L 942.166603 272.720418 
L 942.636517 160.595011 
L 943.106432 198.69387 
L 943.576347 283.485801 
L 944.046261 290.051005 
L 944.516176 284.287066 
L 944.98609 315.187463 
L 945.456005 306.464014 
L 945.925919 165.350906 
L 946.395834 275.757471 
L 946.865748 308.350863 
L 947.335663 295.336769 
L 947.805577 309.08751 
L 948.275492 301.591805 
L 948.745406 285.954214 
L 949.215321 64.417362 
L 949.685235 104.299682 
L 950.15515 257.224986 
L 950.625064 247.105785 
L 951.094979 252.921418 
L 951.564893 263.428328 
L 952.034808 284.687698 
L 952.504722 269.45074 
L 952.974637 163.709605 
L 953.444551 296.512819 
L 953.914466 315.678561 
L 954.384381 264.979164 
L 954.854295 233.80737 
L 955.32421 248.889245 
L 955.794124 100.525982 
L 956.264039 239.816858 
L 956.733953 172.52352 
L 957.203868 215.261962 
L 957.673782 154.042731 
L 958.143697 270.329546 
L 959.083526 124.628551 
L 959.55344 184.077245 
L 960.493269 253.800225 
L 960.963184 220.883741 
L 961.433098 270.730179 
L 961.903013 186.791207 
L 962.372927 160.065142 
L 962.842842 121.552727 
L 963.312756 238.912204 
L 963.782671 233.52305 
L 964.252586 195.708511 
L 964.7225 249.289878 
L 965.192415 219.3846 
L 965.662329 71.757983 
L 966.132244 141.64897 
L 966.602158 263.816037 
L 967.072073 242.130187 
L 967.541987 206.603131 
L 968.011902 231.739589 
L 968.481816 213.220029 
L 968.951731 247.415952 
L 969.421645 96.338726 
L 969.89156 227.216319 
L 970.361474 210.596532 
L 970.831389 217.110041 
L 971.301303 231.429422 
L 971.771218 198.55171 
L 972.241132 102.61961 
L 972.711047 71.189344 
L 973.180961 274.852817 
L 973.650876 256.888972 
L 974.12079 175.082399 
L 974.590705 268.765787 
L 975.06062 173.958043 
L 975.530534 221.142214 
L 976.000449 110.554718 
L 976.470363 217.084194 
L 976.940278 201.937701 
L 977.410192 179.541051 
L 978.350021 241.083373 
L 978.819936 69.948675 
L 979.28985 116.073108 
L 979.759765 228.495759 
L 980.229679 219.849851 
L 980.699594 290.180241 
L 981.169508 248.992635 
L 981.639423 228.28898 
L 982.109337 191.301554 
L 982.579252 129.138897 
L 983.049166 214.15053 
L 983.519081 218.221473 
L 983.988995 248.04921 
L 984.45891 216.166616 
L 984.928825 199.404669 
L 985.398739 136.221046 
L 985.868654 89.695981 
L 986.338568 146.3144 
L 986.808483 283.640884 
L 987.278397 288.241696 
L 987.748312 308.971198 
L 988.218226 296.97807 
L 988.688141 219.578454 
L 989.158055 219.604302 
L 989.62797 294.083177 
L 990.097884 319.348872 
L 990.567799 310.715888 
L 991.507628 281.754035 
L 991.977542 194.131828 
L 992.917371 304.512546 
L 993.387286 303.401113 
L 993.8572 303.065099 
L 994.327115 298.813225 
L 994.797029 287.737675 
L 995.266944 234.195079 
L 995.736859 244.70199 
L 996.206773 300.208977 
L 996.676688 313.869253 
L 997.146602 310.22479 
L 997.616517 312.71905 
L 998.086431 289.921768 
L 998.556346 245.050928 
L 999.02626 246.046047 
L 999.496175 283.963975 
L 999.966089 289.120503 
L 1000.436004 289.624525 
L 1000.905918 297.882724 
L 1001.375833 303.142641 
L 1001.845747 281.198319 
L 1002.315662 311.245756 
L 1002.785576 307.058501 
L 1003.255491 254.110392 
L 1003.725405 318.043585 
L 1004.19532 310.237713 
L 1004.665234 314.644671 
L 1005.135149 312.809516 
L 1005.605064 318.289134 
L 1006.074978 321.662202 
L 1006.544893 316.453979 
L 1007.484722 320.576617 
L 1007.954636 328.873587 
L 1008.424551 312.770745 
L 1008.894465 311.297451 
L 1009.36438 318.573454 
L 1009.834294 313.197224 
L 1010.304209 319.736581 
L 1010.774123 328.60219 
L 1011.244038 312.047021 
L 1011.713952 290.038081 
L 1012.183867 326.805806 
L 1012.653781 317.151855 
L 1013.59361 329.45515 
L 1014.063525 329.02867 
L 1015.473268 317.177702 
L 1015.943183 332.37589 
L 1016.413098 331.05768 
L 1016.883012 328.679732 
L 1017.352927 329.119136 
L 1017.822841 323.65244 
L 1018.292756 325.422978 
L 1018.76267 323.368121 
L 1019.232585 316.260125 
L 1019.702499 330.540735 
L 1020.642328 326.482715 
L 1021.112243 330.592429 
L 1021.582157 317.966044 
L 1022.052072 325.784839 
L 1022.521986 329.73947 
L 1022.991901 336.57607 
L 1023.461815 331.48416 
L 1023.93173 330.062561 
L 1024.401644 329.73947 
L 1024.871559 326.120854 
L 1025.341473 333.332239 
L 1025.811388 311.491305 
L 1026.281303 334.766762 
L 1026.751217 335.1157 
L 1027.221132 327.503682 
L 1027.691046 335.374172 
L 1028.160961 331.742632 
L 1028.630875 335.490485 
L 1029.10079 333.396857 
L 1029.570704 333.926726 
L 1030.040619 333.047919 
L 1030.510533 334.54706 
L 1030.980448 333.022072 
L 1031.450362 330.321033 
L 1031.920277 333.939649 
L 1032.390191 334.314435 
L 1032.860106 309.190899 
L 1033.33002 333.862108 
L 1033.799935 326.211319 
L 1034.269849 328.162787 
L 1035.209678 333.97842 
L 1035.679593 334.417824 
L 1036.149507 328.253252 
L 1036.619422 331.522931 
L 1037.089337 329.338837 
L 1037.559251 331.807251 
L 1038.029166 335.619721 
L 1038.49908 329.067441 
L 1038.968995 328.912358 
L 1039.438909 331.975258 
L 1039.908824 335.826499 
L 1040.378738 332.065723 
L 1040.848653 330.644124 
L 1041.318567 326.237166 
L 1042.258396 329.209601 
L 1042.728311 330.605353 
L 1043.198225 331.367847 
L 1043.66814 329.636081 
L 1044.138054 333.642406 
L 1044.607969 334.004267 
L 1045.077883 334.97354 
L 1045.547798 334.766762 
L 1046.017712 336.511452 
L 1046.487627 335.244936 
L 1046.957542 335.232012 
L 1047.427456 327.594147 
L 1047.897371 339.742359 
L 1048.367285 337.60996 
L 1048.8372 334.947692 
L 1049.307114 336.00743 
L 1049.777029 335.102776 
L 1050.246943 335.025234 
L 1050.716858 334.223969 
L 1051.186772 335.593874 
L 1051.656687 330.695818 
L 1052.596516 338.230294 
L 1053.06643 335.412943 
L 1053.536345 334.314435 
L 1054.006259 334.676296 
L 1054.476174 333.707024 
L 1054.946088 333.616559 
L 1055.416003 324.208157 
L 1055.885917 334.469518 
L 1056.355832 332.711905 
L 1056.825746 335.335401 
L 1057.295661 331.522931 
L 1057.765576 323.742906 
L 1058.23549 325.461749 
L 1058.705405 334.236893 
L 1059.175319 332.996224 
L 1059.645234 332.815294 
L 1060.115148 332.970377 
L 1060.585063 327.555376 
L 1061.054977 319.749504 
L 1061.524892 331.871869 
L 1061.994806 332.66021 
L 1062.464721 329.623157 
L 1062.934635 322.269612 
L 1063.40455 334.598754 
L 1063.874464 334.4049 
L 1064.344379 331.096451 
L 1064.814293 333.629482 
L 1065.284208 329.59731 
L 1065.754122 329.416379 
L 1066.224037 330.941367 
L 1066.693951 331.251534 
L 1067.163866 329.829935 
L 1067.633781 331.406618 
L 1068.103695 331.419542 
L 1068.57361 326.237166 
L 1069.043524 325.642679 
L 1069.513439 334.107657 
L 1069.983353 332.737752 
L 1070.453268 326.560257 
L 1070.923182 330.708742 
L 1071.393097 329.45515 
L 1071.863011 323.484433 
L 1072.332926 329.144983 
L 1072.80284 330.540735 
L 1073.272755 322.773634 
L 1074.212584 335.412943 
L 1074.682498 334.637525 
L 1075.152413 325.461749 
L 1075.622327 323.975531 
L 1076.092242 301.126555 
L 1076.562156 331.419542 
L 1077.032071 326.870424 
L 1077.501985 325.280818 
L 1077.9719 330.592429 
L 1078.441815 330.734589 
L 1078.911729 332.582668 
L 1079.381644 331.471236 
L 1079.851558 330.850902 
L 1080.321473 334.146427 
L 1080.791387 328.912358 
L 1081.261302 325.642679 
L 1081.731216 326.159625 
L 1082.201131 330.812131 
L 1083.610874 313.972642 
L 1084.080789 307.446209 
L 1084.550703 309.449372 
L 1085.020618 319.503955 
L 1085.490532 332.026952 
L 1085.960447 334.133504 
L 1086.430361 334.211046 
L 1086.900276 326.560257 
L 1087.37019 306.696639 
L 1087.840105 297.986113 
L 1088.31002 326.082083 
L 1088.779934 323.497357 
L 1089.249849 314.437893 
L 1089.719763 332.052799 
L 1090.189678 333.655329 
L 1090.659592 320.680006 
L 1091.129507 312.072869 
L 1091.599421 315.084074 
L 1092.069336 315.911187 
L 1092.53925 333.022072 
L 1093.009165 325.590985 
L 1093.479079 324.130615 
L 1093.948994 321.416653 
L 1094.418908 313.119683 
L 1094.888823 311.064826 
L 1095.358737 327.296904 
L 1096.768481 307.885613 
L 1097.238395 324.389087 
L 1097.70831 312.602737 
L 1098.178224 317.177702 
L 1098.648139 326.120854 
L 1099.587968 294.251184 
L 1100.057883 320.990173 
L 1100.527797 263.557565 
L 1100.997712 317.229397 
L 1101.467626 297.559633 
L 1101.937541 301.578882 
L 1102.407455 307.62714 
L 1102.87737 317.449098 
L 1103.347284 311.413764 
L 1103.817199 296.344812 
L 1104.287113 262.006729 
L 1104.757028 319.038705 
L 1105.226942 319.478108 
L 1105.696857 312.021174 
L 1106.166771 299.162163 
L 1106.636686 314.32158 
L 1107.1066 198.603404 
L 1107.576515 127.911152 
L 1108.046429 138.366368 
L 1108.516344 293.876399 
L 1108.986259 307.148966 
L 1109.926088 272.97889 
L 1110.396002 285.734512 
L 1110.865917 178.429619 
L 1111.335831 315.820721 
L 1111.805746 318.896545 
L 1112.27566 287.143188 
L 1112.745575 289.004191 
L 1113.215489 276.067638 
L 1113.685404 193.149633 
L 1114.155318 295.98295 
L 1114.625233 282.865467 
L 1115.095147 283.072245 
L 1115.565062 291.756924 
L 1116.034976 288.694023 
L 1116.504891 306.929264 
L 1116.974805 214.951795 
L 1117.44472 283.266099 
L 1117.914634 294.302879 
L 1118.384549 289.14635 
L 1118.854463 268.274689 
L 1119.324378 272.552411 
L 1119.794293 259.796789 
L 1120.264207 121.927512 
L 1120.734122 167.354069 
L 1121.204036 245.361095 
L 1121.673951 266.517076 
L 1122.143865 199.611447 
L 1122.61378 278.613593 
L 1123.553609 249.83267 
L 1124.023523 253.670988 
L 1124.493438 236.107776 
L 1124.963352 301.540111 
L 1124.963352 301.540111 
" clip-path="url(#pa793d933b4)" style="fill: none; stroke: #008080; stroke-width: 1.5; stroke-linecap: square"/>
   </g>
   <g id="patch_3">
    <path d="M 59.690625 356.477812 
L 59.690625 23.837812 
" style="fill: none; stroke: #000000; stroke-width: 0.8; stroke-linejoin: miter; stroke-linecap: square"/>
   </g>
   <g id="patch_4">
    <path d="M 1175.690625 356.477812 
L 1175.690625 23.837812 
" style="fill: none; stroke: #000000; stroke-width: 0.8; stroke-linejoin: miter; stroke-linecap: square"/>
   </g>
   <g id="patch_5">
    <path d="M 59.690625 356.477812 
L 1175.690625 356.477812 
" style="fill: none; stroke: #000000; stroke-width: 0.8; stroke-linejoin: miter; stroke-linecap: square"/>
   </g>
   <g id="patch_6">
    <path d="M 59.690625 23.837812 
L 1175.690625 23.837812 
" style="fill: none; stroke: #000000; stroke-width: 0.8; stroke-linejoin: miter; stroke-linecap: square"/>
   </g>
   <g id="text_14">
    <!-- Toronto Island Ferry Ticket Redemptions -->
    <g transform="translate(477.780313 17.837812) scale(0.14 -0.14)">
     <defs>
      <path id="DejaVuSans-72" d="M 2631 2963 
Q 2534 3019 2420 3045 
Q 2306 3072 2169 3072 
Q 1681 3072 1420 2755 
Q 1159 2438 1159 1844 
L 1159 0 
L 581 0 
L 581 3500 
L 1159 3500 
L 1159 2956 
Q 1341 3275 1631 3429 
Q 1922 3584 2338 3584 
Q 2397 3584 2469 3576 
Q 2541 3569 2628 3553 
L 2631 2963 
z
" transform="scale(0.015625)"/>
      <path id="DejaVuSans-49" d="M 628 4666 
L 1259 4666 
L 1259 0 
L 628 0 
L 628 4666 
z
" transform="scale(0.015625)"/>
      <path id="DejaVuSans-6c" d="M 603 4863 
L 1178 4863 
L 1178 0 
L 603 0 
L 603 4863 
z
" transform="scale(0.015625)"/>
      <path id="DejaVuSans-46" d="M 628 4666 
L 3309 4666 
L 3309 4134 
L 1259 4134 
L 1259 2759 
L 3109 2759 
L 3109 2228 
L 1259 2228 
L 1259 0 
L 628 0 
L 628 4666 
z
" transform="scale(0.015625)"/>
      <path id="DejaVuSans-79" d="M 2059 -325 
Q 1816 -950 1584 -1140 
Q 1353 -1331 966 -1331 
L 506 -1331 
L 506 -850 
L 844 -850 
Q 1081 -850 1212 -737 
Q 1344 -625 1503 -206 
L 1606 56 
L 191 3500 
L 800 3500 
L 1894 763 
L 2988 3500 
L 3597 3500 
L 2059 -325 
z
" transform="scale(0.015625)"/>
     </defs>
     <use xlink:href="#DejaVuSans-54"/>
     <use xlink:href="#DejaVuSans-6f" x="44.083984"/>
     <use xlink:href="#DejaVuSans-72" x="105.265625"/>
     <use xlink:href="#DejaVuSans-6f" x="144.128906"/>
     <use xlink:href="#DejaVuSans-6e" x="205.310547"/>
     <use xlink:href="#DejaVuSans-74" x="268.689453"/>
     <use xlink:href="#DejaVuSans-6f" x="307.898438"/>
     <use xlink:href="#DejaVuSans-20" x="369.080078"/>
     <use xlink:href="#DejaVuSans-49" x="400.867188"/>
     <use xlink:href="#DejaVuSans-73" x="430.359375"/>
     <use xlink:href="#DejaVuSans-6c" x="482.458984"/>
     <use xlink:href="#DejaVuSans-61" x="510.242188"/>
     <use xlink:href="#DejaVuSans-6e" x="571.521484"/>
     <use xlink:href="#DejaVuSans-64" x="634.900391"/>
     <use xlink:href="#DejaVuSans-20" x="698.376953"/>
     <use xlink:href="#DejaVuSans-46" x="730.164062"/>
     <use xlink:href="#DejaVuSans-65" x="782.183594"/>
     <use xlink:href="#DejaVuSans-72" x="843.707031"/>
     <use xlink:href="#DejaVuSans-72" x="883.070312"/>
     <use xlink:href="#DejaVuSans-79" x="924.183594"/>
     <use xlink:href="#DejaVuSans-20" x="983.363281"/>
     <use xlink:href="#DejaVuSans-54" x="1015.150391"/>
     <use xlink:href="#DejaVuSans-69" x="1073.109375"/>
     <use xlink:href="#DejaVuSans-63" x="1100.892578"/>
     <use xlink:href="#DejaVuSans-6b" x="1155.873047"/>
     <use xlink:href="#DejaVuSans-65" x="1210.158203"/>
     <use xlink:href="#DejaVuSans-74" x="1271.681641"/>
     <use xlink:href="#DejaVuSans-20" x="1310.890625"/>
     <use xlink:href="#DejaVuSans-52" x="1342.677734"/>
     <use xlink:href="#DejaVuSans-65" x="1407.660156"/>
     <use xlink:href="#DejaVuSans-64" x="1469.183594"/>
     <use xlink:href="#DejaVuSans-65" x="1532.660156"/>
     <use xlink:href="#DejaVuSans-6d" x="1594.183594"/>
     <use xlink:href="#DejaVuSans-70" x="1691.595703"/>
     <use xlink:href="#DejaVuSans-74" x="1755.072266"/>
     <use xlink:href="#DejaVuSans-69" x="1794.28125"/>
     <use xlink:href="#DejaVuSans-6f" x="1822.064453"/>
     <use xlink:href="#DejaVuSans-6e" x="1883.246094"/>
     <use xlink:href="#DejaVuSans-73" x="1946.625"/>
    </g>
   </g>
  </g>
  <g id="text_15">
   <!-- (Data from 2018-07-28 10:30:00 to 2024-06-25 13:00:00) -->
   <g style="fill: #808080" transform="translate(454.635938 399.677812) scale(0.1 -0.1)">
    <defs>
     <path id="DejaVuSans-28" d="M 1984 4856 
Q 1566 4138 1362 3434 
Q 1159 2731 1159 2009 
Q 1159 1288 1364 580 
Q 1569 -128 1984 -844 
L 1484 -844 
Q 1016 -109 783 600 
Q 550 1309 550 2009 
Q 550 2706 781 3412 
Q 1013 4119 1484 4856 
L 1984 4856 
z
" transform="scale(0.015625)"/>
     <path id="DejaVuSans-66" d="M 2375 4863 
L 2375 4384 
L 1825 4384 
Q 1516 4384 1395 4259 
Q 1275 4134 1275 3809 
L 1275 3500 
L 2222 3500 
L 2222 3053 
L 1275 3053 
L 1275 0 
L 697 0 
L 697 3053 
L 147 3053 
L 147 3500 
L 697 3500 
L 697 3744 
Q 697 4328 969 4595 
Q 1241 4863 1831 4863 
L 2375 4863 
z
" transform="scale(0.015625)"/>
     <path id="DejaVuSans-38" d="M 2034 2216 
Q 1584 2216 1326 1975 
Q 1069 1734 1069 1313 
Q 1069 891 1326 650 
Q 1584 409 2034 409 
Q 2484 409 2743 651 
Q 3003 894 3003 1313 
Q 3003 1734 2745 1975 
Q 2488 2216 2034 2216 
z
M 1403 2484 
Q 997 2584 770 2862 
Q 544 3141 544 3541 
Q 544 4100 942 4425 
Q 1341 4750 2034 4750 
Q 2731 4750 3128 4425 
Q 3525 4100 3525 3541 
Q 3525 3141 3298 2862 
Q 3072 2584 2669 2484 
Q 3125 2378 3379 2068 
Q 3634 1759 3634 1313 
Q 3634 634 3220 271 
Q 2806 -91 2034 -91 
Q 1263 -91 848 271 
Q 434 634 434 1313 
Q 434 1759 690 2068 
Q 947 2378 1403 2484 
z
M 1172 3481 
Q 1172 3119 1398 2916 
Q 1625 2713 2034 2713 
Q 2441 2713 2670 2916 
Q 2900 3119 2900 3481 
Q 2900 3844 2670 4047 
Q 2441 4250 2034 4250 
Q 1625 4250 1398 4047 
Q 1172 3844 1172 3481 
z
" transform="scale(0.015625)"/>
     <path id="DejaVuSans-2d" d="M 313 2009 
L 1997 2009 
L 1997 1497 
L 313 1497 
L 313 2009 
z
" transform="scale(0.015625)"/>
     <path id="DejaVuSans-37" d="M 525 4666 
L 3525 4666 
L 3525 4397 
L 1831 0 
L 1172 0 
L 2766 4134 
L 525 4134 
L 525 4666 
z
" transform="scale(0.015625)"/>
     <path id="DejaVuSans-3a" d="M 750 794 
L 1409 794 
L 1409 0 
L 750 0 
L 750 794 
z
M 750 3309 
L 1409 3309 
L 1409 2516 
L 750 2516 
L 750 3309 
z
" transform="scale(0.015625)"/>
     <path id="DejaVuSans-36" d="M 2113 2584 
Q 1688 2584 1439 2293 
Q 1191 2003 1191 1497 
Q 1191 994 1439 701 
Q 1688 409 2113 409 
Q 2538 409 2786 701 
Q 3034 994 3034 1497 
Q 3034 2003 2786 2293 
Q 2538 2584 2113 2584 
z
M 3366 4563 
L 3366 3988 
Q 3128 4100 2886 4159 
Q 2644 4219 2406 4219 
Q 1781 4219 1451 3797 
Q 1122 3375 1075 2522 
Q 1259 2794 1537 2939 
Q 1816 3084 2150 3084 
Q 2853 3084 3261 2657 
Q 3669 2231 3669 1497 
Q 3669 778 3244 343 
Q 2819 -91 2113 -91 
Q 1303 -91 875 529 
Q 447 1150 447 2328 
Q 447 3434 972 4092 
Q 1497 4750 2381 4750 
Q 2619 4750 2861 4703 
Q 3103 4656 3366 4563 
z
" transform="scale(0.015625)"/>
     <path id="DejaVuSans-29" d="M 513 4856 
L 1013 4856 
Q 1481 4119 1714 3412 
Q 1947 2706 1947 2009 
Q 1947 1309 1714 600 
Q 1481 -109 1013 -844 
L 513 -844 
Q 928 -128 1133 580 
Q 1338 1288 1338 2009 
Q 1338 2731 1133 3434 
Q 928 4138 513 4856 
z
" transform="scale(0.015625)"/>
    </defs>
    <use xlink:href="#DejaVuSans-28"/>
    <use xlink:href="#DejaVuSans-44" x="39.013672"/>
    <use xlink:href="#DejaVuSans-61" x="116.015625"/>
    <use xlink:href="#DejaVuSans-74" x="177.294922"/>
    <use xlink:href="#DejaVuSans-61" x="216.503906"/>
    <use xlink:href="#DejaVuSans-20" x="277.783203"/>
    <use xlink:href="#DejaVuSans-66" x="309.570312"/>
    <use xlink:href="#DejaVuSans-72" x="344.775391"/>
    <use xlink:href="#DejaVuSans-6f" x="383.638672"/>
    <use xlink:href="#DejaVuSans-6d" x="444.820312"/>
    <use xlink:href="#DejaVuSans-20" x="542.232422"/>
    <use xlink:href="#DejaVuSans-32" x="574.019531"/>
    <use xlink:href="#DejaVuSans-30" x="637.642578"/>
    <use xlink:href="#DejaVuSans-31" x="701.265625"/>
    <use xlink:href="#DejaVuSans-38" x="764.888672"/>
    <use xlink:href="#DejaVuSans-2d" x="828.511719"/>
    <use xlink:href="#DejaVuSans-30" x="864.595703"/>
    <use xlink:href="#DejaVuSans-37" x="928.21875"/>
    <use xlink:href="#DejaVuSans-2d" x="991.841797"/>
    <use xlink:href="#DejaVuSans-32" x="1027.925781"/>
    <use xlink:href="#DejaVuSans-38" x="1091.548828"/>
    <use xlink:href="#DejaVuSans-20" x="1155.171875"/>
    <use xlink:href="#DejaVuSans-31" x="1186.958984"/>
    <use xlink:href="#DejaVuSans-30" x="1250.582031"/>
    <use xlink:href="#DejaVuSans-3a" x="1314.205078"/>
    <use xlink:href="#DejaVuSans-33" x="1347.896484"/>
    <use xlink:href="#DejaVuSans-30" x="1411.519531"/>
    <use xlink:href="#DejaVuSans-3a" x="1475.142578"/>
    <use xlink:href="#DejaVuSans-30" x="1508.833984"/>
    <use xlink:href="#DejaVuSans-30" x="1572.457031"/>
    <use xlink:href="#DejaVuSans-20" x="1636.080078"/>
    <use xlink:href="#DejaVuSans-74" x="1667.867188"/>
    <use xlink:href="#DejaVuSans-6f" x="1707.076172"/>
    <use xlink:href="#DejaVuSans-20" x="1768.257812"/>
    <use xlink:href="#DejaVuSans-32" x="1800.044922"/>
    <use xlink:href="#DejaVuSans-30" x="1863.667969"/>
    <use xlink:href="#DejaVuSans-32" x="1927.291016"/>
    <use xlink:href="#DejaVuSans-34" x="1990.914062"/>
    <use xlink:href="#DejaVuSans-2d" x="2054.537109"/>
    <use xlink:href="#DejaVuSans-30" x="2090.621094"/>
    <use xlink:href="#DejaVuSans-36" x="2154.244141"/>
    <use xlink:href="#DejaVuSans-2d" x="2217.867188"/>
    <use xlink:href="#DejaVuSans-32" x="2253.951172"/>
    <use xlink:href="#DejaVuSans-35" x="2317.574219"/>
    <use xlink:href="#DejaVuSans-20" x="2381.197266"/>
    <use xlink:href="#DejaVuSans-31" x="2412.984375"/>
    <use xlink:href="#DejaVuSans-33" x="2476.607422"/>
    <use xlink:href="#DejaVuSans-3a" x="2540.230469"/>
    <use xlink:href="#DejaVuSans-30" x="2573.921875"/>
    <use xlink:href="#DejaVuSans-30" x="2637.544922"/>
    <use xlink:href="#DejaVuSans-3a" x="2701.167969"/>
    <use xlink:href="#DejaVuSans-30" x="2734.859375"/>
    <use xlink:href="#DejaVuSans-30" x="2798.482422"/>
    <use xlink:href="#DejaVuSans-29" x="2862.105469"/>
   </g>
  </g>
 </g>
 <defs>
  <clipPath id="pa793d933b4">
   <rect x="59.690625" y="23.837812" width="1116" height="332.64"/>
  </clipPath>
 </defs>
</svg>
