<?xml version="1.0" encoding="utf-8" standalone="no"?>
<!DOCTYPE svg PUBLIC "-//W3C//DTD SVG 1.1//EN"
  "http://www.w3.org/Graphics/SVG/1.1/DTD/svg11.dtd">
<svg xmlns:xlink="http://www.w3.org/1999/xlink" width="1182.890625pt" height="408.9575pt" viewBox="0 0 1182.890625 408.9575" xmlns="http://www.w3.org/2000/svg" version="1.1">
 <metadata>
  <rdf:RDF xmlns:dc="http://purl.org/dc/elements/1.1/" xmlns:cc="http://creativecommons.org/ns#" xmlns:rdf="http://www.w3.org/1999/02/22-rdf-syntax-ns#">
   <cc:Work>
    <dc:type rdf:resource="http://purl.org/dc/dcmitype/StillImage"/>
    <dc:date>2024-07-19T02:11:56.849603</dc:date>
    <dc:format>image/svg+xml</dc:format>
    <dc:creator>
     <cc:Agent>
      <dc:title>Matplotlib v3.8.4, https://matplotlib.org/</dc:title>
     </cc:Agent>
    </dc:creator>
   </cc:Work>
  </rdf:RDF>
 </metadata>
 <defs>
  <style type="text/css">*{stroke-linejoin: round; stroke-linecap: butt}</style>
 </defs>
 <g id="figure_1">
  <g id="patch_1">
   <path d="M 0 408.9575 
L 1182.890625 408.9575 
L 1182.890625 0 
L 0 0 
z
" style="fill: #ffffff"/>
  </g>
  <g id="axes_1">
   <g id="patch_2">
    <path d="M 59.690625 356.477812 
L 1175.690625 356.477812 
L 1175.690625 23.837812 
L 59.690625 23.837812 
z
" style="fill: #ffffff"/>
   </g>
   <g id="matplotlib.axis_1">
    <g id="xtick_1">
     <g id="line2d_1">
      <defs>
       <path id="m9f0776688e" d="M 0 0 
L 0 3.5 
" style="stroke: #000000; stroke-width: 0.8"/>
      </defs>
      <g>
       <use xlink:href="#m9f0776688e" x="89.906092" y="356.477812" style="stroke: #000000; stroke-width: 0.8"/>
      </g>
     </g>
     <g id="text_1">
      <!-- 2022-10 -->
      <g transform="translate(69.014686 371.07625) scale(0.1 -0.1)">
       <defs>
        <path id="DejaVuSans-32" d="M 1228 531 
L 3431 531 
L 3431 0 
L 469 0 
L 469 531 
Q 828 903 1448 1529 
Q 2069 2156 2228 2338 
Q 2531 2678 2651 2914 
Q 2772 3150 2772 3378 
Q 2772 3750 2511 3984 
Q 2250 4219 1831 4219 
Q 1534 4219 1204 4116 
Q 875 4013 500 3803 
L 500 4441 
Q 881 4594 1212 4672 
Q 1544 4750 1819 4750 
Q 2544 4750 2975 4387 
Q 3406 4025 3406 3419 
Q 3406 3131 3298 2873 
Q 3191 2616 2906 2266 
Q 2828 2175 2409 1742 
Q 1991 1309 1228 531 
z
" transform="scale(0.015625)"/>
        <path id="DejaVuSans-30" d="M 2034 4250 
Q 1547 4250 1301 3770 
Q 1056 3291 1056 2328 
Q 1056 1369 1301 889 
Q 1547 409 2034 409 
Q 2525 409 2770 889 
Q 3016 1369 3016 2328 
Q 3016 3291 2770 3770 
Q 2525 4250 2034 4250 
z
M 2034 4750 
Q 2819 4750 3233 4129 
Q 3647 3509 3647 2328 
Q 3647 1150 3233 529 
Q 2819 -91 2034 -91 
Q 1250 -91 836 529 
Q 422 1150 422 2328 
Q 422 3509 836 4129 
Q 1250 4750 2034 4750 
z
" transform="scale(0.015625)"/>
        <path id="DejaVuSans-2d" d="M 313 2009 
L 1997 2009 
L 1997 1497 
L 313 1497 
L 313 2009 
z
" transform="scale(0.015625)"/>
        <path id="DejaVuSans-31" d="M 794 531 
L 1825 531 
L 1825 4091 
L 703 3866 
L 703 4441 
L 1819 4666 
L 2450 4666 
L 2450 531 
L 3481 531 
L 3481 0 
L 794 0 
L 794 531 
z
" transform="scale(0.015625)"/>
       </defs>
       <use xlink:href="#DejaVuSans-32"/>
       <use xlink:href="#DejaVuSans-30" x="63.623047"/>
       <use xlink:href="#DejaVuSans-32" x="127.246094"/>
       <use xlink:href="#DejaVuSans-32" x="190.869141"/>
       <use xlink:href="#DejaVuSans-2d" x="254.492188"/>
       <use xlink:href="#DejaVuSans-31" x="290.576172"/>
       <use xlink:href="#DejaVuSans-30" x="354.199219"/>
      </g>
     </g>
    </g>
    <g id="xtick_2">
     <g id="line2d_2">
      <g>
       <use xlink:href="#m9f0776688e" x="235.066562" y="356.477812" style="stroke: #000000; stroke-width: 0.8"/>
      </g>
     </g>
     <g id="text_2">
      <!-- 2023-01 -->
      <g transform="translate(214.175155 371.07625) scale(0.1 -0.1)">
       <defs>
        <path id="DejaVuSans-33" d="M 2597 2516 
Q 3050 2419 3304 2112 
Q 3559 1806 3559 1356 
Q 3559 666 3084 287 
Q 2609 -91 1734 -91 
Q 1441 -91 1130 -33 
Q 819 25 488 141 
L 488 750 
Q 750 597 1062 519 
Q 1375 441 1716 441 
Q 2309 441 2620 675 
Q 2931 909 2931 1356 
Q 2931 1769 2642 2001 
Q 2353 2234 1838 2234 
L 1294 2234 
L 1294 2753 
L 1863 2753 
Q 2328 2753 2575 2939 
Q 2822 3125 2822 3475 
Q 2822 3834 2567 4026 
Q 2313 4219 1838 4219 
Q 1578 4219 1281 4162 
Q 984 4106 628 3988 
L 628 4550 
Q 988 4650 1302 4700 
Q 1616 4750 1894 4750 
Q 2613 4750 3031 4423 
Q 3450 4097 3450 3541 
Q 3450 3153 3228 2886 
Q 3006 2619 2597 2516 
z
" transform="scale(0.015625)"/>
       </defs>
       <use xlink:href="#DejaVuSans-32"/>
       <use xlink:href="#DejaVuSans-30" x="63.623047"/>
       <use xlink:href="#DejaVuSans-32" x="127.246094"/>
       <use xlink:href="#DejaVuSans-33" x="190.869141"/>
       <use xlink:href="#DejaVuSans-2d" x="254.492188"/>
       <use xlink:href="#DejaVuSans-30" x="290.576172"/>
       <use xlink:href="#DejaVuSans-31" x="354.199219"/>
      </g>
     </g>
    </g>
    <g id="xtick_3">
     <g id="line2d_3">
      <g>
       <use xlink:href="#m9f0776688e" x="377.071369" y="356.477812" style="stroke: #000000; stroke-width: 0.8"/>
      </g>
     </g>
     <g id="text_3">
      <!-- 2023-04 -->
      <g transform="translate(356.179962 371.07625) scale(0.1 -0.1)">
       <defs>
        <path id="DejaVuSans-34" d="M 2419 4116 
L 825 1625 
L 2419 1625 
L 2419 4116 
z
M 2253 4666 
L 3047 4666 
L 3047 1625 
L 3713 1625 
L 3713 1100 
L 3047 1100 
L 3047 0 
L 2419 0 
L 2419 1100 
L 313 1100 
L 313 1709 
L 2253 4666 
z
" transform="scale(0.015625)"/>
       </defs>
       <use xlink:href="#DejaVuSans-32"/>
       <use xlink:href="#DejaVuSans-30" x="63.623047"/>
       <use xlink:href="#DejaVuSans-32" x="127.246094"/>
       <use xlink:href="#DejaVuSans-33" x="190.869141"/>
       <use xlink:href="#DejaVuSans-2d" x="254.492188"/>
       <use xlink:href="#DejaVuSans-30" x="290.576172"/>
       <use xlink:href="#DejaVuSans-34" x="354.199219"/>
      </g>
     </g>
    </g>
    <g id="xtick_4">
     <g id="line2d_4">
      <g>
       <use xlink:href="#m9f0776688e" x="520.654007" y="356.477812" style="stroke: #000000; stroke-width: 0.8"/>
      </g>
     </g>
     <g id="text_4">
      <!-- 2023-07 -->
      <g transform="translate(499.762601 371.07625) scale(0.1 -0.1)">
       <defs>
        <path id="DejaVuSans-37" d="M 525 4666 
L 3525 4666 
L 3525 4397 
L 1831 0 
L 1172 0 
L 2766 4134 
L 525 4134 
L 525 4666 
z
" transform="scale(0.015625)"/>
       </defs>
       <use xlink:href="#DejaVuSans-32"/>
       <use xlink:href="#DejaVuSans-30" x="63.623047"/>
       <use xlink:href="#DejaVuSans-32" x="127.246094"/>
       <use xlink:href="#DejaVuSans-33" x="190.869141"/>
       <use xlink:href="#DejaVuSans-2d" x="254.492188"/>
       <use xlink:href="#DejaVuSans-30" x="290.576172"/>
       <use xlink:href="#DejaVuSans-37" x="354.199219"/>
      </g>
     </g>
    </g>
    <g id="xtick_5">
     <g id="line2d_5">
      <g>
       <use xlink:href="#m9f0776688e" x="665.814476" y="356.477812" style="stroke: #000000; stroke-width: 0.8"/>
      </g>
     </g>
     <g id="text_5">
      <!-- 2023-10 -->
      <g transform="translate(644.92307 371.07625) scale(0.1 -0.1)">
       <use xlink:href="#DejaVuSans-32"/>
       <use xlink:href="#DejaVuSans-30" x="63.623047"/>
       <use xlink:href="#DejaVuSans-32" x="127.246094"/>
       <use xlink:href="#DejaVuSans-33" x="190.869141"/>
       <use xlink:href="#DejaVuSans-2d" x="254.492188"/>
       <use xlink:href="#DejaVuSans-31" x="290.576172"/>
       <use xlink:href="#DejaVuSans-30" x="354.199219"/>
      </g>
     </g>
    </g>
    <g id="xtick_6">
     <g id="line2d_6">
      <g>
       <use xlink:href="#m9f0776688e" x="810.974946" y="356.477812" style="stroke: #000000; stroke-width: 0.8"/>
      </g>
     </g>
     <g id="text_6">
      <!-- 2024-01 -->
      <g transform="translate(790.083539 371.07625) scale(0.1 -0.1)">
       <use xlink:href="#DejaVuSans-32"/>
       <use xlink:href="#DejaVuSans-30" x="63.623047"/>
       <use xlink:href="#DejaVuSans-32" x="127.246094"/>
       <use xlink:href="#DejaVuSans-34" x="190.869141"/>
       <use xlink:href="#DejaVuSans-2d" x="254.492188"/>
       <use xlink:href="#DejaVuSans-30" x="290.576172"/>
       <use xlink:href="#DejaVuSans-31" x="354.199219"/>
      </g>
     </g>
    </g>
    <g id="xtick_7">
     <g id="line2d_7">
      <g>
       <use xlink:href="#m9f0776688e" x="954.557584" y="356.477812" style="stroke: #000000; stroke-width: 0.8"/>
      </g>
     </g>
     <g id="text_7">
      <!-- 2024-04 -->
      <g transform="translate(933.666178 371.07625) scale(0.1 -0.1)">
       <use xlink:href="#DejaVuSans-32"/>
       <use xlink:href="#DejaVuSans-30" x="63.623047"/>
       <use xlink:href="#DejaVuSans-32" x="127.246094"/>
       <use xlink:href="#DejaVuSans-34" x="190.869141"/>
       <use xlink:href="#DejaVuSans-2d" x="254.492188"/>
       <use xlink:href="#DejaVuSans-30" x="290.576172"/>
       <use xlink:href="#DejaVuSans-34" x="354.199219"/>
      </g>
     </g>
    </g>
    <g id="xtick_8">
     <g id="line2d_8">
      <g>
       <use xlink:href="#m9f0776688e" x="1098.140222" y="356.477812" style="stroke: #000000; stroke-width: 0.8"/>
      </g>
     </g>
     <g id="text_8">
      <!-- 2024-07 -->
      <g transform="translate(1077.248816 371.07625) scale(0.1 -0.1)">
       <use xlink:href="#DejaVuSans-32"/>
       <use xlink:href="#DejaVuSans-30" x="63.623047"/>
       <use xlink:href="#DejaVuSans-32" x="127.246094"/>
       <use xlink:href="#DejaVuSans-34" x="190.869141"/>
       <use xlink:href="#DejaVuSans-2d" x="254.492188"/>
       <use xlink:href="#DejaVuSans-30" x="290.576172"/>
       <use xlink:href="#DejaVuSans-37" x="354.199219"/>
      </g>
     </g>
    </g>
    <g id="text_9">
     <!-- Date -->
     <g transform="translate(605.739844 384.754375) scale(0.1 -0.1)">
      <defs>
       <path id="DejaVuSans-44" d="M 1259 4147 
L 1259 519 
L 2022 519 
Q 2988 519 3436 956 
Q 3884 1394 3884 2338 
Q 3884 3275 3436 3711 
Q 2988 4147 2022 4147 
L 1259 4147 
z
M 628 4666 
L 1925 4666 
Q 3281 4666 3915 4102 
Q 4550 3538 4550 2338 
Q 4550 1131 3912 565 
Q 3275 0 1925 0 
L 628 0 
L 628 4666 
z
" transform="scale(0.015625)"/>
       <path id="DejaVuSans-61" d="M 2194 1759 
Q 1497 1759 1228 1600 
Q 959 1441 959 1056 
Q 959 750 1161 570 
Q 1363 391 1709 391 
Q 2188 391 2477 730 
Q 2766 1069 2766 1631 
L 2766 1759 
L 2194 1759 
z
M 3341 1997 
L 3341 0 
L 2766 0 
L 2766 531 
Q 2569 213 2275 61 
Q 1981 -91 1556 -91 
Q 1019 -91 701 211 
Q 384 513 384 1019 
Q 384 1609 779 1909 
Q 1175 2209 1959 2209 
L 2766 2209 
L 2766 2266 
Q 2766 2663 2505 2880 
Q 2244 3097 1772 3097 
Q 1472 3097 1187 3025 
Q 903 2953 641 2809 
L 641 3341 
Q 956 3463 1253 3523 
Q 1550 3584 1831 3584 
Q 2591 3584 2966 3190 
Q 3341 2797 3341 1997 
z
" transform="scale(0.015625)"/>
       <path id="DejaVuSans-74" d="M 1172 4494 
L 1172 3500 
L 2356 3500 
L 2356 3053 
L 1172 3053 
L 1172 1153 
Q 1172 725 1289 603 
Q 1406 481 1766 481 
L 2356 481 
L 2356 0 
L 1766 0 
Q 1100 0 847 248 
Q 594 497 594 1153 
L 594 3053 
L 172 3053 
L 172 3500 
L 594 3500 
L 594 4494 
L 1172 4494 
z
" transform="scale(0.015625)"/>
       <path id="DejaVuSans-65" d="M 3597 1894 
L 3597 1613 
L 953 1613 
Q 991 1019 1311 708 
Q 1631 397 2203 397 
Q 2534 397 2845 478 
Q 3156 559 3463 722 
L 3463 178 
Q 3153 47 2828 -22 
Q 2503 -91 2169 -91 
Q 1331 -91 842 396 
Q 353 884 353 1716 
Q 353 2575 817 3079 
Q 1281 3584 2069 3584 
Q 2775 3584 3186 3129 
Q 3597 2675 3597 1894 
z
M 3022 2063 
Q 3016 2534 2758 2815 
Q 2500 3097 2075 3097 
Q 1594 3097 1305 2825 
Q 1016 2553 972 2059 
L 3022 2063 
z
" transform="scale(0.015625)"/>
      </defs>
      <use xlink:href="#DejaVuSans-44"/>
      <use xlink:href="#DejaVuSans-61" x="77.001953"/>
      <use xlink:href="#DejaVuSans-74" x="138.28125"/>
      <use xlink:href="#DejaVuSans-65" x="177.490234"/>
     </g>
    </g>
   </g>
   <g id="matplotlib.axis_2">
    <g id="ytick_1">
     <g id="line2d_9">
      <defs>
       <path id="mbacce31398" d="M 0 0 
L -3.5 0 
" style="stroke: #000000; stroke-width: 0.8"/>
      </defs>
      <g>
       <use xlink:href="#mbacce31398" x="59.690625" y="341.357812" style="stroke: #000000; stroke-width: 0.8"/>
      </g>
     </g>
     <g id="text_10">
      <!-- 0 -->
      <g transform="translate(46.328125 345.157031) scale(0.1 -0.1)">
       <use xlink:href="#DejaVuSans-30"/>
      </g>
     </g>
    </g>
    <g id="ytick_2">
     <g id="line2d_10">
      <g>
       <use xlink:href="#mbacce31398" x="59.690625" y="270.799224" style="stroke: #000000; stroke-width: 0.8"/>
      </g>
     </g>
     <g id="text_11">
      <!-- 5000 -->
      <g transform="translate(27.240625 274.598442) scale(0.1 -0.1)">
       <defs>
        <path id="DejaVuSans-35" d="M 691 4666 
L 3169 4666 
L 3169 4134 
L 1269 4134 
L 1269 2991 
Q 1406 3038 1543 3061 
Q 1681 3084 1819 3084 
Q 2600 3084 3056 2656 
Q 3513 2228 3513 1497 
Q 3513 744 3044 326 
Q 2575 -91 1722 -91 
Q 1428 -91 1123 -41 
Q 819 9 494 109 
L 494 744 
Q 775 591 1075 516 
Q 1375 441 1709 441 
Q 2250 441 2565 725 
Q 2881 1009 2881 1497 
Q 2881 1984 2565 2268 
Q 2250 2553 1709 2553 
Q 1456 2553 1204 2497 
Q 953 2441 691 2322 
L 691 4666 
z
" transform="scale(0.015625)"/>
       </defs>
       <use xlink:href="#DejaVuSans-35"/>
       <use xlink:href="#DejaVuSans-30" x="63.623047"/>
       <use xlink:href="#DejaVuSans-30" x="127.246094"/>
       <use xlink:href="#DejaVuSans-30" x="190.869141"/>
      </g>
     </g>
    </g>
    <g id="ytick_3">
     <g id="line2d_11">
      <g>
       <use xlink:href="#mbacce31398" x="59.690625" y="200.240635" style="stroke: #000000; stroke-width: 0.8"/>
      </g>
     </g>
     <g id="text_12">
      <!-- 10000 -->
      <g transform="translate(20.878125 204.039854) scale(0.1 -0.1)">
       <use xlink:href="#DejaVuSans-31"/>
       <use xlink:href="#DejaVuSans-30" x="63.623047"/>
       <use xlink:href="#DejaVuSans-30" x="127.246094"/>
       <use xlink:href="#DejaVuSans-30" x="190.869141"/>
       <use xlink:href="#DejaVuSans-30" x="254.492188"/>
      </g>
     </g>
    </g>
    <g id="ytick_4">
     <g id="line2d_12">
      <g>
       <use xlink:href="#mbacce31398" x="59.690625" y="129.682046" style="stroke: #000000; stroke-width: 0.8"/>
      </g>
     </g>
     <g id="text_13">
      <!-- 15000 -->
      <g transform="translate(20.878125 133.481265) scale(0.1 -0.1)">
       <use xlink:href="#DejaVuSans-31"/>
       <use xlink:href="#DejaVuSans-35" x="63.623047"/>
       <use xlink:href="#DejaVuSans-30" x="127.246094"/>
       <use xlink:href="#DejaVuSans-30" x="190.869141"/>
       <use xlink:href="#DejaVuSans-30" x="254.492188"/>
      </g>
     </g>
    </g>
    <g id="ytick_5">
     <g id="line2d_13">
      <g>
       <use xlink:href="#mbacce31398" x="59.690625" y="59.123457" style="stroke: #000000; stroke-width: 0.8"/>
      </g>
     </g>
     <g id="text_14">
      <!-- 20000 -->
      <g transform="translate(20.878125 62.922676) scale(0.1 -0.1)">
       <use xlink:href="#DejaVuSans-32"/>
       <use xlink:href="#DejaVuSans-30" x="63.623047"/>
       <use xlink:href="#DejaVuSans-30" x="127.246094"/>
       <use xlink:href="#DejaVuSans-30" x="190.869141"/>
       <use xlink:href="#DejaVuSans-30" x="254.492188"/>
      </g>
     </g>
    </g>
    <g id="text_15">
     <!-- Ticket Redemptions -->
     <g transform="translate(14.798438 239.336719) rotate(-90) scale(0.1 -0.1)">
      <defs>
       <path id="DejaVuSans-54" d="M -19 4666 
L 3928 4666 
L 3928 4134 
L 2272 4134 
L 2272 0 
L 1638 0 
L 1638 4134 
L -19 4134 
L -19 4666 
z
" transform="scale(0.015625)"/>
       <path id="DejaVuSans-69" d="M 603 3500 
L 1178 3500 
L 1178 0 
L 603 0 
L 603 3500 
z
M 603 4863 
L 1178 4863 
L 1178 4134 
L 603 4134 
L 603 4863 
z
" transform="scale(0.015625)"/>
       <path id="DejaVuSans-63" d="M 3122 3366 
L 3122 2828 
Q 2878 2963 2633 3030 
Q 2388 3097 2138 3097 
Q 1578 3097 1268 2742 
Q 959 2388 959 1747 
Q 959 1106 1268 751 
Q 1578 397 2138 397 
Q 2388 397 2633 464 
Q 2878 531 3122 666 
L 3122 134 
Q 2881 22 2623 -34 
Q 2366 -91 2075 -91 
Q 1284 -91 818 406 
Q 353 903 353 1747 
Q 353 2603 823 3093 
Q 1294 3584 2113 3584 
Q 2378 3584 2631 3529 
Q 2884 3475 3122 3366 
z
" transform="scale(0.015625)"/>
       <path id="DejaVuSans-6b" d="M 581 4863 
L 1159 4863 
L 1159 1991 
L 2875 3500 
L 3609 3500 
L 1753 1863 
L 3688 0 
L 2938 0 
L 1159 1709 
L 1159 0 
L 581 0 
L 581 4863 
z
" transform="scale(0.015625)"/>
       <path id="DejaVuSans-20" transform="scale(0.015625)"/>
       <path id="DejaVuSans-52" d="M 2841 2188 
Q 3044 2119 3236 1894 
Q 3428 1669 3622 1275 
L 4263 0 
L 3584 0 
L 2988 1197 
Q 2756 1666 2539 1819 
Q 2322 1972 1947 1972 
L 1259 1972 
L 1259 0 
L 628 0 
L 628 4666 
L 2053 4666 
Q 2853 4666 3247 4331 
Q 3641 3997 3641 3322 
Q 3641 2881 3436 2590 
Q 3231 2300 2841 2188 
z
M 1259 4147 
L 1259 2491 
L 2053 2491 
Q 2509 2491 2742 2702 
Q 2975 2913 2975 3322 
Q 2975 3731 2742 3939 
Q 2509 4147 2053 4147 
L 1259 4147 
z
" transform="scale(0.015625)"/>
       <path id="DejaVuSans-64" d="M 2906 2969 
L 2906 4863 
L 3481 4863 
L 3481 0 
L 2906 0 
L 2906 525 
Q 2725 213 2448 61 
Q 2172 -91 1784 -91 
Q 1150 -91 751 415 
Q 353 922 353 1747 
Q 353 2572 751 3078 
Q 1150 3584 1784 3584 
Q 2172 3584 2448 3432 
Q 2725 3281 2906 2969 
z
M 947 1747 
Q 947 1113 1208 752 
Q 1469 391 1925 391 
Q 2381 391 2643 752 
Q 2906 1113 2906 1747 
Q 2906 2381 2643 2742 
Q 2381 3103 1925 3103 
Q 1469 3103 1208 2742 
Q 947 2381 947 1747 
z
" transform="scale(0.015625)"/>
       <path id="DejaVuSans-6d" d="M 3328 2828 
Q 3544 3216 3844 3400 
Q 4144 3584 4550 3584 
Q 5097 3584 5394 3201 
Q 5691 2819 5691 2113 
L 5691 0 
L 5113 0 
L 5113 2094 
Q 5113 2597 4934 2840 
Q 4756 3084 4391 3084 
Q 3944 3084 3684 2787 
Q 3425 2491 3425 1978 
L 3425 0 
L 2847 0 
L 2847 2094 
Q 2847 2600 2669 2842 
Q 2491 3084 2119 3084 
Q 1678 3084 1418 2786 
Q 1159 2488 1159 1978 
L 1159 0 
L 581 0 
L 581 3500 
L 1159 3500 
L 1159 2956 
Q 1356 3278 1631 3431 
Q 1906 3584 2284 3584 
Q 2666 3584 2933 3390 
Q 3200 3197 3328 2828 
z
" transform="scale(0.015625)"/>
       <path id="DejaVuSans-70" d="M 1159 525 
L 1159 -1331 
L 581 -1331 
L 581 3500 
L 1159 3500 
L 1159 2969 
Q 1341 3281 1617 3432 
Q 1894 3584 2278 3584 
Q 2916 3584 3314 3078 
Q 3713 2572 3713 1747 
Q 3713 922 3314 415 
Q 2916 -91 2278 -91 
Q 1894 -91 1617 61 
Q 1341 213 1159 525 
z
M 3116 1747 
Q 3116 2381 2855 2742 
Q 2594 3103 2138 3103 
Q 1681 3103 1420 2742 
Q 1159 2381 1159 1747 
Q 1159 1113 1420 752 
Q 1681 391 2138 391 
Q 2594 391 2855 752 
Q 3116 1113 3116 1747 
z
" transform="scale(0.015625)"/>
       <path id="DejaVuSans-6f" d="M 1959 3097 
Q 1497 3097 1228 2736 
Q 959 2375 959 1747 
Q 959 1119 1226 758 
Q 1494 397 1959 397 
Q 2419 397 2687 759 
Q 2956 1122 2956 1747 
Q 2956 2369 2687 2733 
Q 2419 3097 1959 3097 
z
M 1959 3584 
Q 2709 3584 3137 3096 
Q 3566 2609 3566 1747 
Q 3566 888 3137 398 
Q 2709 -91 1959 -91 
Q 1206 -91 779 398 
Q 353 888 353 1747 
Q 353 2609 779 3096 
Q 1206 3584 1959 3584 
z
" transform="scale(0.015625)"/>
       <path id="DejaVuSans-6e" d="M 3513 2113 
L 3513 0 
L 2938 0 
L 2938 2094 
Q 2938 2591 2744 2837 
Q 2550 3084 2163 3084 
Q 1697 3084 1428 2787 
Q 1159 2491 1159 1978 
L 1159 0 
L 581 0 
L 581 3500 
L 1159 3500 
L 1159 2956 
Q 1366 3272 1645 3428 
Q 1925 3584 2291 3584 
Q 2894 3584 3203 3211 
Q 3513 2838 3513 2113 
z
" transform="scale(0.015625)"/>
       <path id="DejaVuSans-73" d="M 2834 3397 
L 2834 2853 
Q 2591 2978 2328 3040 
Q 2066 3103 1784 3103 
Q 1356 3103 1142 2972 
Q 928 2841 928 2578 
Q 928 2378 1081 2264 
Q 1234 2150 1697 2047 
L 1894 2003 
Q 2506 1872 2764 1633 
Q 3022 1394 3022 966 
Q 3022 478 2636 193 
Q 2250 -91 1575 -91 
Q 1294 -91 989 -36 
Q 684 19 347 128 
L 347 722 
Q 666 556 975 473 
Q 1284 391 1588 391 
Q 1994 391 2212 530 
Q 2431 669 2431 922 
Q 2431 1156 2273 1281 
Q 2116 1406 1581 1522 
L 1381 1569 
Q 847 1681 609 1914 
Q 372 2147 372 2553 
Q 372 3047 722 3315 
Q 1072 3584 1716 3584 
Q 2034 3584 2315 3537 
Q 2597 3491 2834 3397 
z
" transform="scale(0.015625)"/>
      </defs>
      <use xlink:href="#DejaVuSans-54"/>
      <use xlink:href="#DejaVuSans-69" x="57.958984"/>
      <use xlink:href="#DejaVuSans-63" x="85.742188"/>
      <use xlink:href="#DejaVuSans-6b" x="140.722656"/>
      <use xlink:href="#DejaVuSans-65" x="195.007812"/>
      <use xlink:href="#DejaVuSans-74" x="256.53125"/>
      <use xlink:href="#DejaVuSans-20" x="295.740234"/>
      <use xlink:href="#DejaVuSans-52" x="327.527344"/>
      <use xlink:href="#DejaVuSans-65" x="392.509766"/>
      <use xlink:href="#DejaVuSans-64" x="454.033203"/>
      <use xlink:href="#DejaVuSans-65" x="517.509766"/>
      <use xlink:href="#DejaVuSans-6d" x="579.033203"/>
      <use xlink:href="#DejaVuSans-70" x="676.445312"/>
      <use xlink:href="#DejaVuSans-74" x="739.921875"/>
      <use xlink:href="#DejaVuSans-69" x="779.130859"/>
      <use xlink:href="#DejaVuSans-6f" x="806.914062"/>
      <use xlink:href="#DejaVuSans-6e" x="868.095703"/>
      <use xlink:href="#DejaVuSans-73" x="931.474609"/>
     </g>
    </g>
   </g>
   <g id="line2d_14">
    <path d="M 110.417898 319.033075 
L 111.995729 309.521777 
L 113.57356 305.528161 
L 115.151391 326.695738 
L 116.729222 328.092798 
L 118.307054 318.00292 
L 119.884885 327.133201 
L 121.462716 315.251135 
L 123.040547 274.990404 
L 124.618378 278.687674 
L 126.19621 308.449287 
L 127.774041 316.013167 
L 129.351872 327.500106 
L 130.929703 317.000988 
L 132.507534 318.073478 
L 134.085366 296.877678 
L 135.663197 314.051639 
L 137.241028 325.030555 
L 138.818859 322.800904 
L 140.39669 320.938157 
L 141.974522 328.445591 
L 143.552353 318.525053 
L 145.130184 293.025179 
L 146.708015 293.025179 
L 148.285846 322.744457 
L 149.863677 324.832991 
L 151.441509 325.256343 
L 153.01934 314.277426 
L 154.597171 331.648951 
L 156.175002 317.113881 
L 157.752833 327.006196 
L 159.330665 327.725893 
L 160.908496 333.215351 
L 162.486327 333.271798 
L 164.064158 330.689354 
L 165.641989 332.439207 
L 167.219821 330.011991 
L 168.797652 334.287842 
L 170.375483 330.66113 
L 171.953314 329.052395 
L 173.531145 326.79452 
L 175.108976 330.40712 
L 176.686808 325.877258 
L 178.264639 314.333873 
L 179.84247 336.545717 
L 181.420301 330.011991 
L 182.998132 330.463566 
L 184.575964 333.046011 
L 186.153795 331.860626 
L 187.731626 331.945297 
L 189.309457 332.608547 
L 190.887288 328.925389 
L 192.46512 333.568144 
L 194.042951 331.719509 
L 195.620782 330.477678 
L 197.198613 327.316653 
L 198.776444 331.592504 
L 200.354276 333.003676 
L 201.932107 336.644499 
L 203.509938 332.29809 
L 205.087769 332.044079 
L 206.6656 334.118501 
L 208.243431 335.473226 
L 209.821263 331.648951 
L 211.399094 331.860626 
L 212.976925 333.949161 
L 214.554756 329.983768 
L 216.132587 330.816359 
L 217.710419 327.78234 
L 219.28825 331.88885 
L 220.866081 340.242987 
L 222.443912 341.357812 
L 224.021743 334.259618 
L 225.599575 333.892714 
L 227.177406 330.520013 
L 228.755237 330.378896 
L 230.333068 322.843239 
L 231.910899 329.461634 
L 233.48873 333.469362 
L 235.066562 331.042147 
L 236.644393 325.058778 
L 238.222224 335.416779 
L 239.800055 335.557896 
L 241.377886 332.368648 
L 242.955718 331.88885 
L 244.533549 327.514217 
L 246.11138 333.737485 
L 247.689211 330.858694 
L 249.267042 332.015855 
L 250.844874 332.848447 
L 252.422705 333.398804 
L 254.000536 335.713125 
L 255.578367 329.433411 
L 257.156198 328.939501 
L 258.734029 330.534125 
L 260.311861 336.517493 
L 261.889692 330.421231 
L 263.467523 333.737485 
L 265.045354 331.790068 
L 266.623185 331.282046 
L 268.201017 335.882466 
L 269.778848 327.923457 
L 271.356679 331.917073 
L 272.93451 331.648951 
L 274.512341 334.965204 
L 276.090173 332.241643 
L 277.668004 331.056259 
L 279.245835 336.729169 
L 280.823666 331.846515 
L 282.401497 334.090278 
L 283.979329 329.659198 
L 285.55716 330.759912 
L 287.134991 334.18906 
L 288.712822 339.791412 
L 290.290653 330.378896 
L 291.868484 330.872806 
L 293.446316 334.908757 
L 295.024147 329.348741 
L 296.601978 334.414847 
L 298.179809 331.80418 
L 299.75764 324.847103 
L 301.335472 322.448111 
L 302.913303 329.278182 
L 304.491134 328.713713 
L 306.068965 332.185196 
L 307.646796 329.67331 
L 309.224628 334.090278 
L 310.802459 328.290362 
L 312.38029 320.88171 
L 313.958121 318.412159 
L 315.535952 329.320517 
L 317.113783 333.554033 
L 318.691615 336.503382 
L 320.269446 329.560416 
L 321.847277 333.850379 
L 323.425108 328.713713 
L 325.002939 334.217283 
L 326.580771 329.292294 
L 328.158602 329.99788 
L 329.736433 327.824675 
L 331.314264 332.664994 
L 332.892095 331.239711 
L 334.469927 329.122953 
L 336.047758 330.90103 
L 337.625589 332.241643 
L 339.20342 326.681626 
L 340.781251 330.632907 
L 342.359083 331.282046 
L 343.936914 330.759912 
L 347.092576 333.017787 
L 348.670407 333.681038 
L 350.248238 326.526397 
L 351.82607 328.784272 
L 353.403901 334.640635 
L 354.981732 331.282046 
L 356.559563 332.38276 
L 358.137394 325.369236 
L 359.715226 325.030555 
L 361.293057 329.983768 
L 362.870888 331.423163 
L 364.448719 325.496242 
L 366.02655 336.884398 
L 367.604382 310.608379 
L 369.182213 330.802248 
L 370.760044 329.969656 
L 372.337875 332.721441 
L 373.915706 327.852899 
L 375.493537 334.951093 
L 377.071369 323.308925 
L 378.6492 317.212663 
L 380.227031 323.323037 
L 381.804862 331.253823 
L 383.382693 319.343533 
L 384.960525 320.232571 
L 386.538356 282.808295 
L 388.116187 284.48759 
L 389.694018 274.496494 
L 391.271849 295.960416 
L 392.849681 314.249203 
L 394.427512 296.920013 
L 396.005343 288.749329 
L 397.583174 293.067514 
L 399.161005 257.985784 
L 400.738837 270.912117 
L 402.316668 329.828539 
L 403.894499 326.865078 
L 405.47233 321.897754 
L 407.050161 321.37562 
L 408.627992 313.473058 
L 410.205824 324.395528 
L 411.783655 304.625011 
L 413.361486 322.927909 
L 414.939317 317.226775 
L 416.517148 312.781584 
L 418.09498 296.736561 
L 419.672811 321.502626 
L 422.828473 331.253823 
L 424.406304 321.446179 
L 425.984136 325.453907 
L 427.561967 325.707917 
L 429.139798 315.349917 
L 430.717629 294.817367 
L 432.29546 213.914889 
L 433.873291 314.150421 
L 435.451123 300.574948 
L 437.028954 304.145213 
L 438.606785 301.097082 
L 440.184616 295.395948 
L 441.762447 284.431143 
L 443.340279 190.531773 
L 444.91811 230.651387 
L 446.495941 299.248447 
L 448.073772 301.929673 
L 449.651603 316.422407 
L 451.229435 305.76806 
L 452.807266 292.192588 
L 454.385097 265.888346 
L 455.962928 61.578896 
L 457.540759 157.919593 
L 459.118591 276.443911 
L 460.696422 311.299854 
L 462.274253 298.853319 
L 463.852084 283.739669 
L 465.429915 155.323037 
L 467.007746 154.68801 
L 468.585578 273.522785 
L 470.163409 286.025767 
L 471.74124 274.087254 
L 473.319071 278.137317 
L 474.896902 266.410479 
L 476.474734 143.977216 
L 478.052565 185.57856 
L 479.630396 278.16554 
L 481.208227 285.334293 
L 482.786058 279.040467 
L 484.36389 312.781584 
L 485.941721 303.256175 
L 487.519552 149.170328 
L 489.097383 269.726733 
L 490.675214 305.316485 
L 492.253045 291.105986 
L 493.830877 306.120853 
L 495.408708 297.936057 
L 496.986539 280.860878 
L 498.56437 38.957812 
L 500.142201 82.506574 
L 501.720033 249.49053 
L 503.297864 238.441055 
L 504.875695 244.791328 
L 506.453526 256.264154 
L 508.031357 279.47793 
L 509.609189 262.840215 
L 511.18702 147.37814 
L 512.764851 292.390152 
L 514.342682 313.317829 
L 515.920513 257.957561 
L 517.498344 223.920097 
L 519.076176 240.388472 
L 520.654007 78.385952 
L 522.231838 230.482046 
L 523.809669 157.002332 
L 525.3875 203.669782 
L 526.965332 136.822575 
L 528.543163 263.799812 
L 530.120994 188.908925 
L 531.698825 104.704306 
L 533.276656 169.618207 
L 534.854488 206.252227 
L 536.432319 245.750925 
L 538.01015 209.808379 
L 539.587981 264.237275 
L 541.165812 172.581668 
L 542.743644 143.398636 
L 544.321475 101.345717 
L 545.899306 229.494226 
L 547.477137 223.609639 
L 549.054968 182.318753 
L 550.632799 240.825935 
L 552.210631 208.17142 
L 553.788462 46.973268 
L 555.366293 123.289438 
L 556.944124 256.687506 
L 558.521955 233.008043 
L 560.099787 194.214931 
L 561.677618 221.662222 
L 563.255449 201.440131 
L 564.83328 238.779736 
L 566.411111 73.813755 
L 567.988943 216.723121 
L 569.566774 198.575452 
L 571.144605 205.687758 
L 572.722436 221.323541 
L 574.300267 185.423331 
L 575.878098 80.67205 
L 577.45593 46.352353 
L 579.033761 268.738913 
L 580.611592 249.123625 
L 582.189423 159.796452 
L 583.767254 262.092294 
L 585.345086 158.568732 
L 586.922917 210.090614 
L 588.500748 89.336645 
L 590.078579 205.659534 
L 591.65641 189.120601 
L 593.234242 164.664994 
L 594.812073 201.482466 
L 596.389904 231.864994 
L 597.967735 44.997628 
L 599.545566 95.362348 
L 601.123398 218.120181 
L 602.701229 208.679442 
L 604.27906 285.47541 
L 605.856891 240.501366 
L 607.434722 217.894394 
L 609.012553 177.506658 
L 610.590385 109.629295 
L 612.168216 202.456175 
L 613.746047 206.901366 
L 615.323878 239.47121 
L 616.901709 204.657603 
L 618.479541 186.354705 
L 620.057372 117.362516 
L 621.635203 66.560332 
L 623.213034 128.383768 
L 624.790865 278.334881 
L 626.368697 283.358652 
L 627.946528 305.993848 
L 629.524359 292.898174 
L 631.10219 208.383096 
L 632.680021 208.411319 
L 634.257852 289.737149 
L 635.835684 317.325557 
L 637.413515 307.89893 
L 638.991346 292.742945 
L 640.569177 276.27457 
L 642.147008 180.597124 
L 643.72484 245.369908 
L 645.302671 301.125305 
L 646.880502 299.911697 
L 648.458333 299.544793 
L 650.036164 294.902038 
L 651.613996 282.808295 
L 653.191827 224.343449 
L 654.769658 235.816275 
L 656.347489 296.426103 
L 657.92532 311.342189 
L 659.503152 307.362684 
L 661.080983 310.086246 
L 662.658814 285.193176 
L 664.236645 236.197292 
L 665.814476 237.283894 
L 667.392307 278.687674 
L 668.970139 284.318249 
L 670.54797 284.868606 
L 672.125801 293.885994 
L 673.703632 299.629463 
L 675.281463 275.667766 
L 676.859295 308.47751 
L 678.437126 303.905314 
L 680.014957 246.089606 
L 681.592788 315.900274 
L 683.170619 307.376796 
L 684.748451 312.188892 
L 686.326282 310.185028 
L 687.904113 316.168396 
L 689.481944 319.851555 
L 691.059775 314.164532 
L 694.215438 318.66617 
L 695.793269 327.725893 
L 697.3711 310.142693 
L 698.948931 308.533957 
L 700.526762 316.478854 
L 702.104594 310.608379 
L 703.682425 317.748909 
L 705.260256 327.429547 
L 706.838087 309.352437 
L 708.415918 285.320181 
L 709.99375 325.468018 
L 711.571581 314.926565 
L 713.149412 322.095318 
L 714.727243 328.36092 
L 716.305074 327.895234 
L 721.038568 314.954789 
L 722.616399 331.550169 
L 724.19423 330.110773 
L 725.772061 327.514217 
L 727.349893 327.994016 
L 728.927724 322.024759 
L 730.505555 323.958064 
L 732.083386 321.714301 
L 733.661217 313.952857 
L 735.239049 329.546305 
L 736.81688 327.133201 
L 738.394711 325.115225 
L 739.972542 329.602752 
L 741.550373 315.815603 
L 743.128205 324.353193 
L 744.706036 328.671378 
L 746.283867 336.136477 
L 747.861698 330.57646 
L 749.439529 329.024171 
L 751.01736 328.671378 
L 752.595192 324.720097 
L 754.173023 332.594436 
L 755.750854 308.745633 
L 757.328685 334.160836 
L 758.906516 334.541853 
L 760.484348 326.230051 
L 762.062179 334.824087 
L 763.64001 330.858694 
L 765.217841 334.951093 
L 766.795672 332.664994 
L 768.373504 333.243575 
L 769.951335 332.283978 
L 771.529166 333.920937 
L 773.106997 332.255755 
L 774.684828 329.306406 
L 776.262659 333.257687 
L 777.840491 333.666926 
L 779.418322 306.233747 
L 780.996153 333.173016 
L 782.573984 324.818879 
L 784.151815 326.949749 
L 785.729647 330.266002 
L 787.307478 333.300022 
L 788.885309 333.77982 
L 790.46314 327.048531 
L 792.040971 330.618795 
L 793.618803 328.233915 
L 795.196634 330.929253 
L 796.774465 335.09221 
L 798.352296 327.937569 
L 799.930127 327.768228 
L 801.507959 331.112705 
L 803.08579 335.317997 
L 804.663621 331.211487 
L 806.241452 329.659198 
L 807.819283 324.847103 
L 809.397114 326.582844 
L 812.552777 329.616863 
L 814.130608 330.449455 
L 815.708439 328.558484 
L 817.28627 332.933117 
L 818.864102 333.328245 
L 820.441933 334.386624 
L 822.019764 334.160836 
L 823.597595 336.065918 
L 825.175426 334.68297 
L 826.753258 334.668858 
L 828.331089 326.328833 
L 829.90892 339.593848 
L 831.486751 337.265414 
L 833.064582 334.3584 
L 834.642413 335.515561 
L 836.220245 334.527741 
L 837.798076 334.443071 
L 839.375907 333.568144 
L 840.953738 335.063986 
L 842.531569 329.715645 
L 845.687232 337.942777 
L 847.265063 334.866422 
L 848.842894 333.666926 
L 850.420725 334.062054 
L 851.998557 333.003676 
L 853.576388 332.904894 
L 855.154219 322.631563 
L 856.73205 333.836267 
L 858.309881 331.917073 
L 859.887713 334.781752 
L 861.465544 330.618795 
L 863.043375 322.123541 
L 864.621206 324.0004 
L 866.199037 333.582256 
L 867.776868 332.227531 
L 869.3547 332.029967 
L 870.932531 332.199308 
L 872.510362 326.286498 
L 874.088193 317.76302 
L 875.666024 330.999812 
L 877.243856 331.860626 
L 878.821687 328.544373 
L 880.399518 320.514805 
L 881.977349 333.977384 
L 883.55518 333.765708 
L 885.133012 330.153109 
L 886.710843 332.919005 
L 888.288674 328.516149 
L 889.866505 328.318585 
L 891.444336 329.983768 
L 893.022167 330.322449 
L 894.599999 328.77016 
L 896.17783 330.49179 
L 897.755661 330.505902 
L 899.333492 324.847103 
L 900.911323 324.197964 
L 902.489155 333.441139 
L 904.066986 331.945297 
L 905.644817 325.199896 
L 907.222648 329.729757 
L 908.800479 328.36092 
L 910.378311 321.841307 
L 911.956142 328.022239 
L 913.533973 329.546305 
L 915.111804 321.065162 
L 916.689635 327.344877 
L 918.267467 334.866422 
L 919.845298 334.019719 
L 921.423129 324.0004 
L 923.00096 322.377552 
L 924.578791 297.428035 
L 926.156622 330.505902 
L 927.734454 325.538577 
L 929.312285 323.802836 
L 930.890116 329.602752 
L 932.467947 329.75798 
L 934.045778 331.775956 
L 935.62361 330.562348 
L 937.201441 329.884986 
L 938.779272 333.483474 
L 940.357103 327.768228 
L 941.934934 324.197964 
L 943.512766 324.762432 
L 945.090597 329.842651 
L 946.668428 324.028623 
L 948.246259 319.230639 
L 949.82409 311.455083 
L 951.401921 304.328665 
L 952.979753 306.515981 
L 954.557584 317.494898 
L 956.135415 331.169152 
L 957.713246 333.469362 
L 959.291077 333.554033 
L 960.868909 325.199896 
L 962.44674 303.510185 
L 964.024571 293.998888 
L 965.602402 324.677762 
L 967.180233 321.855419 
L 968.758065 311.963104 
L 970.335896 331.197376 
L 971.913727 332.947229 
L 973.491558 318.779064 
L 975.069389 309.38066 
L 976.647221 312.66869 
L 978.225052 313.57184 
L 979.802883 332.255755 
L 981.380714 324.141517 
L 982.958545 322.546893 
L 984.536376 319.583432 
L 986.114208 310.523709 
L 987.692039 308.279946 
L 989.26987 326.004264 
L 990.847701 318.637947 
L 992.425532 312.725137 
L 994.003364 304.808463 
L 995.581195 322.829127 
L 997.159026 309.95924 
L 998.736857 314.954789 
L 1000.314688 324.720097 
L 1001.89252 306.134965 
L 1003.470351 289.920601 
L 1005.048182 319.117745 
L 1006.626013 256.405272 
L 1008.203844 315.011235 
L 1009.781675 293.533201 
L 1011.359507 297.921945 
L 1012.937338 304.526229 
L 1014.515169 315.251135 
L 1016.093 308.660962 
L 1017.670831 292.2067 
L 1019.248663 254.711865 
L 1020.826494 316.986876 
L 1022.404325 317.466674 
L 1023.982156 309.324213 
L 1025.559987 295.283054 
L 1027.137819 311.836099 
L 1028.71565 185.479778 
L 1030.293481 108.288682 
L 1031.871312 119.705062 
L 1033.449143 289.511361 
L 1035.026974 304.004096 
L 1036.604806 284.48759 
L 1038.182637 266.692714 
L 1039.760468 280.620979 
L 1041.338299 163.451387 
L 1042.91613 313.473058 
L 1044.493962 316.831647 
L 1046.071793 282.159156 
L 1047.649624 284.191244 
L 1049.227455 270.065414 
L 1050.805286 179.524633 
L 1052.383118 291.811571 
L 1053.960949 277.488178 
L 1055.53878 277.713965 
L 1057.116611 287.19704 
L 1058.694442 283.852563 
L 1060.272274 303.764196 
L 1061.850105 203.331101 
L 1063.427936 277.925641 
L 1065.005767 289.99116 
L 1066.583598 284.360584 
L 1068.161429 261.584272 
L 1069.739261 266.227027 
L 1071.317092 252.298762 
L 1072.894923 101.924297 
L 1074.472754 151.39998 
L 1076.050585 236.578308 
L 1077.628417 259.636855 
L 1079.206248 186.622827 
L 1080.784079 272.873646 
L 1082.36191 256.278266 
L 1083.939741 241.418627 
L 1085.517573 245.638031 
L 1087.095404 226.431983 
L 1088.673235 263.193008 
L 1090.251066 275.20208 
L 1091.828897 233.812411 
L 1093.406728 215.834083 
L 1094.98456 302.296578 
L 1096.562391 114.314385 
L 1098.140222 81.024843 
L 1099.718053 232.373016 
L 1101.295884 251.240383 
L 1102.873716 199.577384 
L 1104.451547 206.238115 
L 1106.029378 110.631227 
L 1107.607209 114.441391 
L 1109.18504 215.453067 
L 1110.762872 246.160164 
L 1112.340703 320.938157 
L 1113.918534 246.343617 
L 1115.496365 149.59368 
L 1117.074196 65.530177 
L 1118.652028 150.976628 
L 1120.229859 290.513293 
L 1121.80769 310.453151 
L 1123.385521 221.3941 
L 1124.963352 210.951429 
L 1124.963352 210.951429 
" clip-path="url(#pe3f23d9228)" style="fill: none; stroke: #008080; stroke-width: 1.5; stroke-linecap: square"/>
   </g>
   <g id="patch_3">
    <path d="M 59.690625 356.477812 
L 59.690625 23.837812 
" style="fill: none; stroke: #000000; stroke-width: 0.8; stroke-linejoin: miter; stroke-linecap: square"/>
   </g>
   <g id="patch_4">
    <path d="M 1175.690625 356.477812 
L 1175.690625 23.837812 
" style="fill: none; stroke: #000000; stroke-width: 0.8; stroke-linejoin: miter; stroke-linecap: square"/>
   </g>
   <g id="patch_5">
    <path d="M 59.690625 356.477812 
L 1175.690625 356.477812 
" style="fill: none; stroke: #000000; stroke-width: 0.8; stroke-linejoin: miter; stroke-linecap: square"/>
   </g>
   <g id="patch_6">
    <path d="M 59.690625 23.837812 
L 1175.690625 23.837812 
" style="fill: none; stroke: #000000; stroke-width: 0.8; stroke-linejoin: miter; stroke-linecap: square"/>
   </g>
   <g id="text_16">
    <!-- Toronto Island Ferry Ticket Redemptions -->
    <g transform="translate(477.780313 17.837812) scale(0.14 -0.14)">
     <defs>
      <path id="DejaVuSans-72" d="M 2631 2963 
Q 2534 3019 2420 3045 
Q 2306 3072 2169 3072 
Q 1681 3072 1420 2755 
Q 1159 2438 1159 1844 
L 1159 0 
L 581 0 
L 581 3500 
L 1159 3500 
L 1159 2956 
Q 1341 3275 1631 3429 
Q 1922 3584 2338 3584 
Q 2397 3584 2469 3576 
Q 2541 3569 2628 3553 
L 2631 2963 
z
" transform="scale(0.015625)"/>
      <path id="DejaVuSans-49" d="M 628 4666 
L 1259 4666 
L 1259 0 
L 628 0 
L 628 4666 
z
" transform="scale(0.015625)"/>
      <path id="DejaVuSans-6c" d="M 603 4863 
L 1178 4863 
L 1178 0 
L 603 0 
L 603 4863 
z
" transform="scale(0.015625)"/>
      <path id="DejaVuSans-46" d="M 628 4666 
L 3309 4666 
L 3309 4134 
L 1259 4134 
L 1259 2759 
L 3109 2759 
L 3109 2228 
L 1259 2228 
L 1259 0 
L 628 0 
L 628 4666 
z
" transform="scale(0.015625)"/>
      <path id="DejaVuSans-79" d="M 2059 -325 
Q 1816 -950 1584 -1140 
Q 1353 -1331 966 -1331 
L 506 -1331 
L 506 -850 
L 844 -850 
Q 1081 -850 1212 -737 
Q 1344 -625 1503 -206 
L 1606 56 
L 191 3500 
L 800 3500 
L 1894 763 
L 2988 3500 
L 3597 3500 
L 2059 -325 
z
" transform="scale(0.015625)"/>
     </defs>
     <use xlink:href="#DejaVuSans-54"/>
     <use xlink:href="#DejaVuSans-6f" x="44.083984"/>
     <use xlink:href="#DejaVuSans-72" x="105.265625"/>
     <use xlink:href="#DejaVuSans-6f" x="144.128906"/>
     <use xlink:href="#DejaVuSans-6e" x="205.310547"/>
     <use xlink:href="#DejaVuSans-74" x="268.689453"/>
     <use xlink:href="#DejaVuSans-6f" x="307.898438"/>
     <use xlink:href="#DejaVuSans-20" x="369.080078"/>
     <use xlink:href="#DejaVuSans-49" x="400.867188"/>
     <use xlink:href="#DejaVuSans-73" x="430.359375"/>
     <use xlink:href="#DejaVuSans-6c" x="482.458984"/>
     <use xlink:href="#DejaVuSans-61" x="510.242188"/>
     <use xlink:href="#DejaVuSans-6e" x="571.521484"/>
     <use xlink:href="#DejaVuSans-64" x="634.900391"/>
     <use xlink:href="#DejaVuSans-20" x="698.376953"/>
     <use xlink:href="#DejaVuSans-46" x="730.164062"/>
     <use xlink:href="#DejaVuSans-65" x="782.183594"/>
     <use xlink:href="#DejaVuSans-72" x="843.707031"/>
     <use xlink:href="#DejaVuSans-72" x="883.070312"/>
     <use xlink:href="#DejaVuSans-79" x="924.183594"/>
     <use xlink:href="#DejaVuSans-20" x="983.363281"/>
     <use xlink:href="#DejaVuSans-54" x="1015.150391"/>
     <use xlink:href="#DejaVuSans-69" x="1073.109375"/>
     <use xlink:href="#DejaVuSans-63" x="1100.892578"/>
     <use xlink:href="#DejaVuSans-6b" x="1155.873047"/>
     <use xlink:href="#DejaVuSans-65" x="1210.158203"/>
     <use xlink:href="#DejaVuSans-74" x="1271.681641"/>
     <use xlink:href="#DejaVuSans-20" x="1310.890625"/>
     <use xlink:href="#DejaVuSans-52" x="1342.677734"/>
     <use xlink:href="#DejaVuSans-65" x="1407.660156"/>
     <use xlink:href="#DejaVuSans-64" x="1469.183594"/>
     <use xlink:href="#DejaVuSans-65" x="1532.660156"/>
     <use xlink:href="#DejaVuSans-6d" x="1594.183594"/>
     <use xlink:href="#DejaVuSans-70" x="1691.595703"/>
     <use xlink:href="#DejaVuSans-74" x="1755.072266"/>
     <use xlink:href="#DejaVuSans-69" x="1794.28125"/>
     <use xlink:href="#DejaVuSans-6f" x="1822.064453"/>
     <use xlink:href="#DejaVuSans-6e" x="1883.246094"/>
     <use xlink:href="#DejaVuSans-73" x="1946.625"/>
    </g>
   </g>
  </g>
  <g id="text_17">
   <!-- (Data from 2022-10-14 11:30:00 to 2024-07-18 21:00:00) -->
   <g style="fill: #808080" transform="translate(454.635938 399.677812) scale(0.1 -0.1)">
    <defs>
     <path id="DejaVuSans-28" d="M 1984 4856 
Q 1566 4138 1362 3434 
Q 1159 2731 1159 2009 
Q 1159 1288 1364 580 
Q 1569 -128 1984 -844 
L 1484 -844 
Q 1016 -109 783 600 
Q 550 1309 550 2009 
Q 550 2706 781 3412 
Q 1013 4119 1484 4856 
L 1984 4856 
z
" transform="scale(0.015625)"/>
     <path id="DejaVuSans-66" d="M 2375 4863 
L 2375 4384 
L 1825 4384 
Q 1516 4384 1395 4259 
Q 1275 4134 1275 3809 
L 1275 3500 
L 2222 3500 
L 2222 3053 
L 1275 3053 
L 1275 0 
L 697 0 
L 697 3053 
L 147 3053 
L 147 3500 
L 697 3500 
L 697 3744 
Q 697 4328 969 4595 
Q 1241 4863 1831 4863 
L 2375 4863 
z
" transform="scale(0.015625)"/>
     <path id="DejaVuSans-3a" d="M 750 794 
L 1409 794 
L 1409 0 
L 750 0 
L 750 794 
z
M 750 3309 
L 1409 3309 
L 1409 2516 
L 750 2516 
L 750 3309 
z
" transform="scale(0.015625)"/>
     <path id="DejaVuSans-38" d="M 2034 2216 
Q 1584 2216 1326 1975 
Q 1069 1734 1069 1313 
Q 1069 891 1326 650 
Q 1584 409 2034 409 
Q 2484 409 2743 651 
Q 3003 894 3003 1313 
Q 3003 1734 2745 1975 
Q 2488 2216 2034 2216 
z
M 1403 2484 
Q 997 2584 770 2862 
Q 544 3141 544 3541 
Q 544 4100 942 4425 
Q 1341 4750 2034 4750 
Q 2731 4750 3128 4425 
Q 3525 4100 3525 3541 
Q 3525 3141 3298 2862 
Q 3072 2584 2669 2484 
Q 3125 2378 3379 2068 
Q 3634 1759 3634 1313 
Q 3634 634 3220 271 
Q 2806 -91 2034 -91 
Q 1263 -91 848 271 
Q 434 634 434 1313 
Q 434 1759 690 2068 
Q 947 2378 1403 2484 
z
M 1172 3481 
Q 1172 3119 1398 2916 
Q 1625 2713 2034 2713 
Q 2441 2713 2670 2916 
Q 2900 3119 2900 3481 
Q 2900 3844 2670 4047 
Q 2441 4250 2034 4250 
Q 1625 4250 1398 4047 
Q 1172 3844 1172 3481 
z
" transform="scale(0.015625)"/>
     <path id="DejaVuSans-29" d="M 513 4856 
L 1013 4856 
Q 1481 4119 1714 3412 
Q 1947 2706 1947 2009 
Q 1947 1309 1714 600 
Q 1481 -109 1013 -844 
L 513 -844 
Q 928 -128 1133 580 
Q 1338 1288 1338 2009 
Q 1338 2731 1133 3434 
Q 928 4138 513 4856 
z
" transform="scale(0.015625)"/>
    </defs>
    <use xlink:href="#DejaVuSans-28"/>
    <use xlink:href="#DejaVuSans-44" x="39.013672"/>
    <use xlink:href="#DejaVuSans-61" x="116.015625"/>
    <use xlink:href="#DejaVuSans-74" x="177.294922"/>
    <use xlink:href="#DejaVuSans-61" x="216.503906"/>
    <use xlink:href="#DejaVuSans-20" x="277.783203"/>
    <use xlink:href="#DejaVuSans-66" x="309.570312"/>
    <use xlink:href="#DejaVuSans-72" x="344.775391"/>
    <use xlink:href="#DejaVuSans-6f" x="383.638672"/>
    <use xlink:href="#DejaVuSans-6d" x="444.820312"/>
    <use xlink:href="#DejaVuSans-20" x="542.232422"/>
    <use xlink:href="#DejaVuSans-32" x="574.019531"/>
    <use xlink:href="#DejaVuSans-30" x="637.642578"/>
    <use xlink:href="#DejaVuSans-32" x="701.265625"/>
    <use xlink:href="#DejaVuSans-32" x="764.888672"/>
    <use xlink:href="#DejaVuSans-2d" x="828.511719"/>
    <use xlink:href="#DejaVuSans-31" x="864.595703"/>
    <use xlink:href="#DejaVuSans-30" x="928.21875"/>
    <use xlink:href="#DejaVuSans-2d" x="991.841797"/>
    <use xlink:href="#DejaVuSans-31" x="1027.925781"/>
    <use xlink:href="#DejaVuSans-34" x="1091.548828"/>
    <use xlink:href="#DejaVuSans-20" x="1155.171875"/>
    <use xlink:href="#DejaVuSans-31" x="1186.958984"/>
    <use xlink:href="#DejaVuSans-31" x="1250.582031"/>
    <use xlink:href="#DejaVuSans-3a" x="1314.205078"/>
    <use xlink:href="#DejaVuSans-33" x="1347.896484"/>
    <use xlink:href="#DejaVuSans-30" x="1411.519531"/>
    <use xlink:href="#DejaVuSans-3a" x="1475.142578"/>
    <use xlink:href="#DejaVuSans-30" x="1508.833984"/>
    <use xlink:href="#DejaVuSans-30" x="1572.457031"/>
    <use xlink:href="#DejaVuSans-20" x="1636.080078"/>
    <use xlink:href="#DejaVuSans-74" x="1667.867188"/>
    <use xlink:href="#DejaVuSans-6f" x="1707.076172"/>
    <use xlink:href="#DejaVuSans-20" x="1768.257812"/>
    <use xlink:href="#DejaVuSans-32" x="1800.044922"/>
    <use xlink:href="#DejaVuSans-30" x="1863.667969"/>
    <use xlink:href="#DejaVuSans-32" x="1927.291016"/>
    <use xlink:href="#DejaVuSans-34" x="1990.914062"/>
    <use xlink:href="#DejaVuSans-2d" x="2054.537109"/>
    <use xlink:href="#DejaVuSans-30" x="2090.621094"/>
    <use xlink:href="#DejaVuSans-37" x="2154.244141"/>
    <use xlink:href="#DejaVuSans-2d" x="2217.867188"/>
    <use xlink:href="#DejaVuSans-31" x="2253.951172"/>
    <use xlink:href="#DejaVuSans-38" x="2317.574219"/>
    <use xlink:href="#DejaVuSans-20" x="2381.197266"/>
    <use xlink:href="#DejaVuSans-32" x="2412.984375"/>
    <use xlink:href="#DejaVuSans-31" x="2476.607422"/>
    <use xlink:href="#DejaVuSans-3a" x="2540.230469"/>
    <use xlink:href="#DejaVuSans-30" x="2573.921875"/>
    <use xlink:href="#DejaVuSans-30" x="2637.544922"/>
    <use xlink:href="#DejaVuSans-3a" x="2701.167969"/>
    <use xlink:href="#DejaVuSans-30" x="2734.859375"/>
    <use xlink:href="#DejaVuSans-30" x="2798.482422"/>
    <use xlink:href="#DejaVuSans-29" x="2862.105469"/>
   </g>
  </g>
 </g>
 <defs>
  <clipPath id="pe3f23d9228">
   <rect x="59.690625" y="23.837812" width="1116" height="332.64"/>
  </clipPath>
 </defs>
</svg>
