<?xml version="1.0" encoding="utf-8" standalone="no"?>
<!DOCTYPE svg PUBLIC "-//W3C//DTD SVG 1.1//EN"
  "http://www.w3.org/Graphics/SVG/1.1/DTD/svg11.dtd">
<svg xmlns:xlink="http://www.w3.org/1999/xlink" width="1182.890625pt" height="408.9575pt" viewBox="0 0 1182.890625 408.9575" xmlns="http://www.w3.org/2000/svg" version="1.1">
 <metadata>
  <rdf:RDF xmlns:dc="http://purl.org/dc/elements/1.1/" xmlns:cc="http://creativecommons.org/ns#" xmlns:rdf="http://www.w3.org/1999/02/22-rdf-syntax-ns#">
   <cc:Work>
    <dc:type rdf:resource="http://purl.org/dc/dcmitype/StillImage"/>
    <dc:date>2024-06-14T21:23:15.763099</dc:date>
    <dc:format>image/svg+xml</dc:format>
    <dc:creator>
     <cc:Agent>
      <dc:title>Matplotlib v3.8.4, https://matplotlib.org/</dc:title>
     </cc:Agent>
    </dc:creator>
   </cc:Work>
  </rdf:RDF>
 </metadata>
 <defs>
  <style type="text/css">*{stroke-linejoin: round; stroke-linecap: butt}</style>
 </defs>
 <g id="figure_1">
  <g id="patch_1">
   <path d="M 0 408.9575 
L 1182.890625 408.9575 
L 1182.890625 0 
L 0 0 
z
" style="fill: #ffffff"/>
  </g>
  <g id="axes_1">
   <g id="patch_2">
    <path d="M 59.690625 356.477812 
L 1175.690625 356.477812 
L 1175.690625 23.837812 
L 59.690625 23.837812 
z
" style="fill: #ffffff"/>
   </g>
   <g id="matplotlib.axis_1">
    <g id="xtick_1">
     <g id="line2d_1">
      <defs>
       <path id="m4e9cf8e518" d="M 0 0 
L 0 3.5 
" style="stroke: #000000; stroke-width: 0.8"/>
      </defs>
      <g>
       <use xlink:href="#m4e9cf8e518" x="223.514768" y="356.477812" style="stroke: #000000; stroke-width: 0.8"/>
      </g>
     </g>
     <g id="text_1">
      <!-- 2020 -->
      <g transform="translate(210.789768 371.07625) scale(0.1 -0.1)">
       <defs>
        <path id="DejaVuSans-32" d="M 1228 531 
L 3431 531 
L 3431 0 
L 469 0 
L 469 531 
Q 828 903 1448 1529 
Q 2069 2156 2228 2338 
Q 2531 2678 2651 2914 
Q 2772 3150 2772 3378 
Q 2772 3750 2511 3984 
Q 2250 4219 1831 4219 
Q 1534 4219 1204 4116 
Q 875 4013 500 3803 
L 500 4441 
Q 881 4594 1212 4672 
Q 1544 4750 1819 4750 
Q 2544 4750 2975 4387 
Q 3406 4025 3406 3419 
Q 3406 3131 3298 2873 
Q 3191 2616 2906 2266 
Q 2828 2175 2409 1742 
Q 1991 1309 1228 531 
z
" transform="scale(0.015625)"/>
        <path id="DejaVuSans-30" d="M 2034 4250 
Q 1547 4250 1301 3770 
Q 1056 3291 1056 2328 
Q 1056 1369 1301 889 
Q 1547 409 2034 409 
Q 2525 409 2770 889 
Q 3016 1369 3016 2328 
Q 3016 3291 2770 3770 
Q 2525 4250 2034 4250 
z
M 2034 4750 
Q 2819 4750 3233 4129 
Q 3647 3509 3647 2328 
Q 3647 1150 3233 529 
Q 2819 -91 2034 -91 
Q 1250 -91 836 529 
Q 422 1150 422 2328 
Q 422 3509 836 4129 
Q 1250 4750 2034 4750 
z
" transform="scale(0.015625)"/>
       </defs>
       <use xlink:href="#DejaVuSans-32"/>
       <use xlink:href="#DejaVuSans-30" x="63.623047"/>
       <use xlink:href="#DejaVuSans-32" x="127.246094"/>
       <use xlink:href="#DejaVuSans-30" x="190.869141"/>
      </g>
     </g>
    </g>
    <g id="xtick_2">
     <g id="line2d_2">
      <g>
       <use xlink:href="#m4e9cf8e518" x="426.423859" y="356.477812" style="stroke: #000000; stroke-width: 0.8"/>
      </g>
     </g>
     <g id="text_2">
      <!-- 2021 -->
      <g transform="translate(413.698859 371.07625) scale(0.1 -0.1)">
       <defs>
        <path id="DejaVuSans-31" d="M 794 531 
L 1825 531 
L 1825 4091 
L 703 3866 
L 703 4441 
L 1819 4666 
L 2450 4666 
L 2450 531 
L 3481 531 
L 3481 0 
L 794 0 
L 794 531 
z
" transform="scale(0.015625)"/>
       </defs>
       <use xlink:href="#DejaVuSans-32"/>
       <use xlink:href="#DejaVuSans-30" x="63.623047"/>
       <use xlink:href="#DejaVuSans-32" x="127.246094"/>
       <use xlink:href="#DejaVuSans-31" x="190.869141"/>
      </g>
     </g>
    </g>
    <g id="xtick_3">
     <g id="line2d_3">
      <g>
       <use xlink:href="#m4e9cf8e518" x="628.778553" y="356.477812" style="stroke: #000000; stroke-width: 0.8"/>
      </g>
     </g>
     <g id="text_3">
      <!-- 2022 -->
      <g transform="translate(616.053553 371.07625) scale(0.1 -0.1)">
       <use xlink:href="#DejaVuSans-32"/>
       <use xlink:href="#DejaVuSans-30" x="63.623047"/>
       <use xlink:href="#DejaVuSans-32" x="127.246094"/>
       <use xlink:href="#DejaVuSans-32" x="190.869141"/>
      </g>
     </g>
    </g>
    <g id="xtick_4">
     <g id="line2d_4">
      <g>
       <use xlink:href="#m4e9cf8e518" x="831.133248" y="356.477812" style="stroke: #000000; stroke-width: 0.8"/>
      </g>
     </g>
     <g id="text_4">
      <!-- 2023 -->
      <g transform="translate(818.408248 371.07625) scale(0.1 -0.1)">
       <defs>
        <path id="DejaVuSans-33" d="M 2597 2516 
Q 3050 2419 3304 2112 
Q 3559 1806 3559 1356 
Q 3559 666 3084 287 
Q 2609 -91 1734 -91 
Q 1441 -91 1130 -33 
Q 819 25 488 141 
L 488 750 
Q 750 597 1062 519 
Q 1375 441 1716 441 
Q 2309 441 2620 675 
Q 2931 909 2931 1356 
Q 2931 1769 2642 2001 
Q 2353 2234 1838 2234 
L 1294 2234 
L 1294 2753 
L 1863 2753 
Q 2328 2753 2575 2939 
Q 2822 3125 2822 3475 
Q 2822 3834 2567 4026 
Q 2313 4219 1838 4219 
Q 1578 4219 1281 4162 
Q 984 4106 628 3988 
L 628 4550 
Q 988 4650 1302 4700 
Q 1616 4750 1894 4750 
Q 2613 4750 3031 4423 
Q 3450 4097 3450 3541 
Q 3450 3153 3228 2886 
Q 3006 2619 2597 2516 
z
" transform="scale(0.015625)"/>
       </defs>
       <use xlink:href="#DejaVuSans-32"/>
       <use xlink:href="#DejaVuSans-30" x="63.623047"/>
       <use xlink:href="#DejaVuSans-32" x="127.246094"/>
       <use xlink:href="#DejaVuSans-33" x="190.869141"/>
      </g>
     </g>
    </g>
    <g id="xtick_5">
     <g id="line2d_5">
      <g>
       <use xlink:href="#m4e9cf8e518" x="1033.487942" y="356.477812" style="stroke: #000000; stroke-width: 0.8"/>
      </g>
     </g>
     <g id="text_5">
      <!-- 2024 -->
      <g transform="translate(1020.762942 371.07625) scale(0.1 -0.1)">
       <defs>
        <path id="DejaVuSans-34" d="M 2419 4116 
L 825 1625 
L 2419 1625 
L 2419 4116 
z
M 2253 4666 
L 3047 4666 
L 3047 1625 
L 3713 1625 
L 3713 1100 
L 3047 1100 
L 3047 0 
L 2419 0 
L 2419 1100 
L 313 1100 
L 313 1709 
L 2253 4666 
z
" transform="scale(0.015625)"/>
       </defs>
       <use xlink:href="#DejaVuSans-32"/>
       <use xlink:href="#DejaVuSans-30" x="63.623047"/>
       <use xlink:href="#DejaVuSans-32" x="127.246094"/>
       <use xlink:href="#DejaVuSans-34" x="190.869141"/>
      </g>
     </g>
    </g>
    <g id="text_6">
     <!-- Date -->
     <g transform="translate(605.739844 384.754375) scale(0.1 -0.1)">
      <defs>
       <path id="DejaVuSans-44" d="M 1259 4147 
L 1259 519 
L 2022 519 
Q 2988 519 3436 956 
Q 3884 1394 3884 2338 
Q 3884 3275 3436 3711 
Q 2988 4147 2022 4147 
L 1259 4147 
z
M 628 4666 
L 1925 4666 
Q 3281 4666 3915 4102 
Q 4550 3538 4550 2338 
Q 4550 1131 3912 565 
Q 3275 0 1925 0 
L 628 0 
L 628 4666 
z
" transform="scale(0.015625)"/>
       <path id="DejaVuSans-61" d="M 2194 1759 
Q 1497 1759 1228 1600 
Q 959 1441 959 1056 
Q 959 750 1161 570 
Q 1363 391 1709 391 
Q 2188 391 2477 730 
Q 2766 1069 2766 1631 
L 2766 1759 
L 2194 1759 
z
M 3341 1997 
L 3341 0 
L 2766 0 
L 2766 531 
Q 2569 213 2275 61 
Q 1981 -91 1556 -91 
Q 1019 -91 701 211 
Q 384 513 384 1019 
Q 384 1609 779 1909 
Q 1175 2209 1959 2209 
L 2766 2209 
L 2766 2266 
Q 2766 2663 2505 2880 
Q 2244 3097 1772 3097 
Q 1472 3097 1187 3025 
Q 903 2953 641 2809 
L 641 3341 
Q 956 3463 1253 3523 
Q 1550 3584 1831 3584 
Q 2591 3584 2966 3190 
Q 3341 2797 3341 1997 
z
" transform="scale(0.015625)"/>
       <path id="DejaVuSans-74" d="M 1172 4494 
L 1172 3500 
L 2356 3500 
L 2356 3053 
L 1172 3053 
L 1172 1153 
Q 1172 725 1289 603 
Q 1406 481 1766 481 
L 2356 481 
L 2356 0 
L 1766 0 
Q 1100 0 847 248 
Q 594 497 594 1153 
L 594 3053 
L 172 3053 
L 172 3500 
L 594 3500 
L 594 4494 
L 1172 4494 
z
" transform="scale(0.015625)"/>
       <path id="DejaVuSans-65" d="M 3597 1894 
L 3597 1613 
L 953 1613 
Q 991 1019 1311 708 
Q 1631 397 2203 397 
Q 2534 397 2845 478 
Q 3156 559 3463 722 
L 3463 178 
Q 3153 47 2828 -22 
Q 2503 -91 2169 -91 
Q 1331 -91 842 396 
Q 353 884 353 1716 
Q 353 2575 817 3079 
Q 1281 3584 2069 3584 
Q 2775 3584 3186 3129 
Q 3597 2675 3597 1894 
z
M 3022 2063 
Q 3016 2534 2758 2815 
Q 2500 3097 2075 3097 
Q 1594 3097 1305 2825 
Q 1016 2553 972 2059 
L 3022 2063 
z
" transform="scale(0.015625)"/>
      </defs>
      <use xlink:href="#DejaVuSans-44"/>
      <use xlink:href="#DejaVuSans-61" x="77.001953"/>
      <use xlink:href="#DejaVuSans-74" x="138.28125"/>
      <use xlink:href="#DejaVuSans-65" x="177.490234"/>
     </g>
    </g>
   </g>
   <g id="matplotlib.axis_2">
    <g id="ytick_1">
     <g id="line2d_6">
      <defs>
       <path id="mdc2fb8faf2" d="M 0 0 
L -3.5 0 
" style="stroke: #000000; stroke-width: 0.8"/>
      </defs>
      <g>
       <use xlink:href="#mdc2fb8faf2" x="59.690625" y="341.357812" style="stroke: #000000; stroke-width: 0.8"/>
      </g>
     </g>
     <g id="text_7">
      <!-- 0 -->
      <g transform="translate(46.328125 345.157031) scale(0.1 -0.1)">
       <use xlink:href="#DejaVuSans-30"/>
      </g>
     </g>
    </g>
    <g id="ytick_2">
     <g id="line2d_7">
      <g>
       <use xlink:href="#mdc2fb8faf2" x="59.690625" y="275.036205" style="stroke: #000000; stroke-width: 0.8"/>
      </g>
     </g>
     <g id="text_8">
      <!-- 5000 -->
      <g transform="translate(27.240625 278.835424) scale(0.1 -0.1)">
       <defs>
        <path id="DejaVuSans-35" d="M 691 4666 
L 3169 4666 
L 3169 4134 
L 1269 4134 
L 1269 2991 
Q 1406 3038 1543 3061 
Q 1681 3084 1819 3084 
Q 2600 3084 3056 2656 
Q 3513 2228 3513 1497 
Q 3513 744 3044 326 
Q 2575 -91 1722 -91 
Q 1428 -91 1123 -41 
Q 819 9 494 109 
L 494 744 
Q 775 591 1075 516 
Q 1375 441 1709 441 
Q 2250 441 2565 725 
Q 2881 1009 2881 1497 
Q 2881 1984 2565 2268 
Q 2250 2553 1709 2553 
Q 1456 2553 1204 2497 
Q 953 2441 691 2322 
L 691 4666 
z
" transform="scale(0.015625)"/>
       </defs>
       <use xlink:href="#DejaVuSans-35"/>
       <use xlink:href="#DejaVuSans-30" x="63.623047"/>
       <use xlink:href="#DejaVuSans-30" x="127.246094"/>
       <use xlink:href="#DejaVuSans-30" x="190.869141"/>
      </g>
     </g>
    </g>
    <g id="ytick_3">
     <g id="line2d_8">
      <g>
       <use xlink:href="#mdc2fb8faf2" x="59.690625" y="208.714598" style="stroke: #000000; stroke-width: 0.8"/>
      </g>
     </g>
     <g id="text_9">
      <!-- 10000 -->
      <g transform="translate(20.878125 212.513817) scale(0.1 -0.1)">
       <use xlink:href="#DejaVuSans-31"/>
       <use xlink:href="#DejaVuSans-30" x="63.623047"/>
       <use xlink:href="#DejaVuSans-30" x="127.246094"/>
       <use xlink:href="#DejaVuSans-30" x="190.869141"/>
       <use xlink:href="#DejaVuSans-30" x="254.492188"/>
      </g>
     </g>
    </g>
    <g id="ytick_4">
     <g id="line2d_9">
      <g>
       <use xlink:href="#mdc2fb8faf2" x="59.690625" y="142.392991" style="stroke: #000000; stroke-width: 0.8"/>
      </g>
     </g>
     <g id="text_10">
      <!-- 15000 -->
      <g transform="translate(20.878125 146.19221) scale(0.1 -0.1)">
       <use xlink:href="#DejaVuSans-31"/>
       <use xlink:href="#DejaVuSans-35" x="63.623047"/>
       <use xlink:href="#DejaVuSans-30" x="127.246094"/>
       <use xlink:href="#DejaVuSans-30" x="190.869141"/>
       <use xlink:href="#DejaVuSans-30" x="254.492188"/>
      </g>
     </g>
    </g>
    <g id="ytick_5">
     <g id="line2d_10">
      <g>
       <use xlink:href="#mdc2fb8faf2" x="59.690625" y="76.071384" style="stroke: #000000; stroke-width: 0.8"/>
      </g>
     </g>
     <g id="text_11">
      <!-- 20000 -->
      <g transform="translate(20.878125 79.870603) scale(0.1 -0.1)">
       <use xlink:href="#DejaVuSans-32"/>
       <use xlink:href="#DejaVuSans-30" x="63.623047"/>
       <use xlink:href="#DejaVuSans-30" x="127.246094"/>
       <use xlink:href="#DejaVuSans-30" x="190.869141"/>
       <use xlink:href="#DejaVuSans-30" x="254.492188"/>
      </g>
     </g>
    </g>
    <g id="text_12">
     <!-- Ticket Redemptions -->
     <g transform="translate(14.798438 239.336719) rotate(-90) scale(0.1 -0.1)">
      <defs>
       <path id="DejaVuSans-54" d="M -19 4666 
L 3928 4666 
L 3928 4134 
L 2272 4134 
L 2272 0 
L 1638 0 
L 1638 4134 
L -19 4134 
L -19 4666 
z
" transform="scale(0.015625)"/>
       <path id="DejaVuSans-69" d="M 603 3500 
L 1178 3500 
L 1178 0 
L 603 0 
L 603 3500 
z
M 603 4863 
L 1178 4863 
L 1178 4134 
L 603 4134 
L 603 4863 
z
" transform="scale(0.015625)"/>
       <path id="DejaVuSans-63" d="M 3122 3366 
L 3122 2828 
Q 2878 2963 2633 3030 
Q 2388 3097 2138 3097 
Q 1578 3097 1268 2742 
Q 959 2388 959 1747 
Q 959 1106 1268 751 
Q 1578 397 2138 397 
Q 2388 397 2633 464 
Q 2878 531 3122 666 
L 3122 134 
Q 2881 22 2623 -34 
Q 2366 -91 2075 -91 
Q 1284 -91 818 406 
Q 353 903 353 1747 
Q 353 2603 823 3093 
Q 1294 3584 2113 3584 
Q 2378 3584 2631 3529 
Q 2884 3475 3122 3366 
z
" transform="scale(0.015625)"/>
       <path id="DejaVuSans-6b" d="M 581 4863 
L 1159 4863 
L 1159 1991 
L 2875 3500 
L 3609 3500 
L 1753 1863 
L 3688 0 
L 2938 0 
L 1159 1709 
L 1159 0 
L 581 0 
L 581 4863 
z
" transform="scale(0.015625)"/>
       <path id="DejaVuSans-20" transform="scale(0.015625)"/>
       <path id="DejaVuSans-52" d="M 2841 2188 
Q 3044 2119 3236 1894 
Q 3428 1669 3622 1275 
L 4263 0 
L 3584 0 
L 2988 1197 
Q 2756 1666 2539 1819 
Q 2322 1972 1947 1972 
L 1259 1972 
L 1259 0 
L 628 0 
L 628 4666 
L 2053 4666 
Q 2853 4666 3247 4331 
Q 3641 3997 3641 3322 
Q 3641 2881 3436 2590 
Q 3231 2300 2841 2188 
z
M 1259 4147 
L 1259 2491 
L 2053 2491 
Q 2509 2491 2742 2702 
Q 2975 2913 2975 3322 
Q 2975 3731 2742 3939 
Q 2509 4147 2053 4147 
L 1259 4147 
z
" transform="scale(0.015625)"/>
       <path id="DejaVuSans-64" d="M 2906 2969 
L 2906 4863 
L 3481 4863 
L 3481 0 
L 2906 0 
L 2906 525 
Q 2725 213 2448 61 
Q 2172 -91 1784 -91 
Q 1150 -91 751 415 
Q 353 922 353 1747 
Q 353 2572 751 3078 
Q 1150 3584 1784 3584 
Q 2172 3584 2448 3432 
Q 2725 3281 2906 2969 
z
M 947 1747 
Q 947 1113 1208 752 
Q 1469 391 1925 391 
Q 2381 391 2643 752 
Q 2906 1113 2906 1747 
Q 2906 2381 2643 2742 
Q 2381 3103 1925 3103 
Q 1469 3103 1208 2742 
Q 947 2381 947 1747 
z
" transform="scale(0.015625)"/>
       <path id="DejaVuSans-6d" d="M 3328 2828 
Q 3544 3216 3844 3400 
Q 4144 3584 4550 3584 
Q 5097 3584 5394 3201 
Q 5691 2819 5691 2113 
L 5691 0 
L 5113 0 
L 5113 2094 
Q 5113 2597 4934 2840 
Q 4756 3084 4391 3084 
Q 3944 3084 3684 2787 
Q 3425 2491 3425 1978 
L 3425 0 
L 2847 0 
L 2847 2094 
Q 2847 2600 2669 2842 
Q 2491 3084 2119 3084 
Q 1678 3084 1418 2786 
Q 1159 2488 1159 1978 
L 1159 0 
L 581 0 
L 581 3500 
L 1159 3500 
L 1159 2956 
Q 1356 3278 1631 3431 
Q 1906 3584 2284 3584 
Q 2666 3584 2933 3390 
Q 3200 3197 3328 2828 
z
" transform="scale(0.015625)"/>
       <path id="DejaVuSans-70" d="M 1159 525 
L 1159 -1331 
L 581 -1331 
L 581 3500 
L 1159 3500 
L 1159 2969 
Q 1341 3281 1617 3432 
Q 1894 3584 2278 3584 
Q 2916 3584 3314 3078 
Q 3713 2572 3713 1747 
Q 3713 922 3314 415 
Q 2916 -91 2278 -91 
Q 1894 -91 1617 61 
Q 1341 213 1159 525 
z
M 3116 1747 
Q 3116 2381 2855 2742 
Q 2594 3103 2138 3103 
Q 1681 3103 1420 2742 
Q 1159 2381 1159 1747 
Q 1159 1113 1420 752 
Q 1681 391 2138 391 
Q 2594 391 2855 752 
Q 3116 1113 3116 1747 
z
" transform="scale(0.015625)"/>
       <path id="DejaVuSans-6f" d="M 1959 3097 
Q 1497 3097 1228 2736 
Q 959 2375 959 1747 
Q 959 1119 1226 758 
Q 1494 397 1959 397 
Q 2419 397 2687 759 
Q 2956 1122 2956 1747 
Q 2956 2369 2687 2733 
Q 2419 3097 1959 3097 
z
M 1959 3584 
Q 2709 3584 3137 3096 
Q 3566 2609 3566 1747 
Q 3566 888 3137 398 
Q 2709 -91 1959 -91 
Q 1206 -91 779 398 
Q 353 888 353 1747 
Q 353 2609 779 3096 
Q 1206 3584 1959 3584 
z
" transform="scale(0.015625)"/>
       <path id="DejaVuSans-6e" d="M 3513 2113 
L 3513 0 
L 2938 0 
L 2938 2094 
Q 2938 2591 2744 2837 
Q 2550 3084 2163 3084 
Q 1697 3084 1428 2787 
Q 1159 2491 1159 1978 
L 1159 0 
L 581 0 
L 581 3500 
L 1159 3500 
L 1159 2956 
Q 1366 3272 1645 3428 
Q 1925 3584 2291 3584 
Q 2894 3584 3203 3211 
Q 3513 2838 3513 2113 
z
" transform="scale(0.015625)"/>
       <path id="DejaVuSans-73" d="M 2834 3397 
L 2834 2853 
Q 2591 2978 2328 3040 
Q 2066 3103 1784 3103 
Q 1356 3103 1142 2972 
Q 928 2841 928 2578 
Q 928 2378 1081 2264 
Q 1234 2150 1697 2047 
L 1894 2003 
Q 2506 1872 2764 1633 
Q 3022 1394 3022 966 
Q 3022 478 2636 193 
Q 2250 -91 1575 -91 
Q 1294 -91 989 -36 
Q 684 19 347 128 
L 347 722 
Q 666 556 975 473 
Q 1284 391 1588 391 
Q 1994 391 2212 530 
Q 2431 669 2431 922 
Q 2431 1156 2273 1281 
Q 2116 1406 1581 1522 
L 1381 1569 
Q 847 1681 609 1914 
Q 372 2147 372 2553 
Q 372 3047 722 3315 
Q 1072 3584 1716 3584 
Q 2034 3584 2315 3537 
Q 2597 3491 2834 3397 
z
" transform="scale(0.015625)"/>
      </defs>
      <use xlink:href="#DejaVuSans-54"/>
      <use xlink:href="#DejaVuSans-69" x="57.958984"/>
      <use xlink:href="#DejaVuSans-63" x="85.742188"/>
      <use xlink:href="#DejaVuSans-6b" x="140.722656"/>
      <use xlink:href="#DejaVuSans-65" x="195.007812"/>
      <use xlink:href="#DejaVuSans-74" x="256.53125"/>
      <use xlink:href="#DejaVuSans-20" x="295.740234"/>
      <use xlink:href="#DejaVuSans-52" x="327.527344"/>
      <use xlink:href="#DejaVuSans-65" x="392.509766"/>
      <use xlink:href="#DejaVuSans-64" x="454.033203"/>
      <use xlink:href="#DejaVuSans-65" x="517.509766"/>
      <use xlink:href="#DejaVuSans-6d" x="579.033203"/>
      <use xlink:href="#DejaVuSans-70" x="676.445312"/>
      <use xlink:href="#DejaVuSans-74" x="739.921875"/>
      <use xlink:href="#DejaVuSans-69" x="779.130859"/>
      <use xlink:href="#DejaVuSans-6f" x="806.914062"/>
      <use xlink:href="#DejaVuSans-6e" x="868.095703"/>
      <use xlink:href="#DejaVuSans-73" x="931.474609"/>
     </g>
    </g>
   </g>
   <g id="line2d_11">
    <path d="M 110.417898 302.519879 
L 110.972294 281.389815 
L 111.526691 330.109668 
L 112.635483 234.526968 
L 113.18988 187.597798 
L 113.744276 304.681964 
L 114.298673 274.691333 
L 114.853069 277.145232 
L 115.407466 316.195395 
L 116.516258 175.301772 
L 117.070655 208.542162 
L 117.625051 295.224503 
L 118.179448 272.966971 
L 118.733844 271.308931 
L 119.28824 255.550917 
L 119.842637 276.866682 
L 120.397033 151.240293 
L 120.95143 63.801887 
L 121.505826 110.134161 
L 122.060223 289.32188 
L 122.614619 232.311826 
L 123.169015 224.578727 
L 123.723412 231.118037 
L 124.277808 192.890263 
L 124.832205 134.381341 
L 125.386601 239.912282 
L 125.940998 245.960813 
L 126.495394 237.060453 
L 127.04979 293.89807 
L 127.604187 217.243557 
L 128.158583 97.678963 
L 128.71298 66.26905 
L 129.267376 228.756988 
L 129.821773 259.835293 
L 130.376169 311.513089 
L 130.930565 231.714932 
L 131.484962 268.324459 
L 132.593755 149.515932 
L 133.148151 248.759585 
L 133.702548 216.39464 
L 134.256944 208.024853 
L 134.81134 222.283999 
L 135.365737 205.212817 
L 135.920133 95.264857 
L 136.47453 173.855961 
L 137.583322 288.92395 
L 138.137719 194.243224 
L 138.692115 195.291105 
L 139.246512 201.910001 
L 139.800908 114.869524 
L 140.355305 56.347338 
L 140.909701 87.903159 
L 141.464097 300.318002 
L 142.018494 231.502702 
L 142.57289 262.408571 
L 143.681683 100.636907 
L 144.23608 127.65633 
L 144.790476 254.542829 
L 145.344872 217.813923 
L 145.899269 204.562866 
L 146.453665 220.546373 
L 147.008062 206.870858 
L 147.562458 247.817818 
L 148.116855 184.241925 
L 148.671251 214.325406 
L 149.225647 192.107668 
L 149.780044 247.990254 
L 150.33444 191.616888 
L 150.888837 203.713949 
L 151.443233 112.495211 
L 151.997629 113.158427 
L 153.106422 318.198307 
L 153.660819 189.255839 
L 154.215215 206.976972 
L 154.769612 198.355163 
L 155.324008 98.474823 
L 155.878404 225.918423 
L 156.432801 173.086631 
L 156.987197 302.572937 
L 157.541594 309.656084 
L 158.09599 296.829485 
L 158.650387 310.239714 
L 159.204783 239.673524 
L 159.759179 230.932337 
L 160.313576 304.655435 
L 160.867972 307.295035 
L 161.422369 285.859892 
L 161.976765 310.584587 
L 162.531162 312.216098 
L 163.085558 225.679665 
L 163.639954 312.852786 
L 164.194351 312.415063 
L 164.748747 295.503053 
L 165.303144 296.657049 
L 165.85754 293.592991 
L 166.411936 284.307966 
L 166.966333 177.68935 
L 167.520729 211.141969 
L 168.075126 310.863138 
L 168.629522 303.076981 
L 169.183919 303.395325 
L 169.738315 310.929459 
L 170.292711 294.030714 
L 170.847108 307.454207 
L 171.401504 270.062085 
L 171.955901 315.691351 
L 172.510297 305.756374 
L 173.064694 328.39857 
L 173.61909 322.999992 
L 174.173486 305.34518 
L 174.727883 301.259769 
L 175.282279 316.407624 
L 175.836676 316.208659 
L 176.391072 310.438679 
L 176.945469 309.351005 
L 177.499865 311.141688 
L 178.054261 302.665787 
L 178.608658 306.432854 
L 179.163054 278.418607 
L 179.717451 296.909071 
L 180.271847 311.592675 
L 180.826243 329.645417 
L 181.38064 324.711089 
L 182.489433 302.002571 
L 183.043829 296.9356 
L 183.598226 319.445153 
L 184.152622 329.817853 
L 184.707018 319.71044 
L 185.261415 318.72888 
L 185.815811 322.164339 
L 186.370208 313.383359 
L 186.924604 333.00129 
L 187.479001 318.065664 
L 188.033397 323.596886 
L 188.587793 331.754444 
L 189.14219 330.693298 
L 189.696586 327.164989 
L 190.250983 331.157549 
L 190.805379 324.551917 
L 191.359776 328.517949 
L 191.914172 326.806852 
L 193.022965 330.507598 
L 193.577361 326.1569 
L 194.131758 330.096404 
L 194.686154 329.804589 
L 195.24055 333.478806 
L 195.794947 331.184078 
L 196.349343 331.369778 
L 196.90374 330.401483 
L 197.458136 330.626976 
L 198.012533 334.367515 
L 198.566929 331.940144 
L 199.121325 332.006466 
L 199.675722 330.706562 
L 200.230118 330.547391 
L 200.784515 331.011642 
L 201.338911 331.820765 
L 201.893308 329.075051 
L 202.447704 332.046259 
L 203.0021 333.823678 
L 203.556497 327.496597 
L 204.110893 331.144285 
L 204.66529 328.279192 
L 205.219686 329.008729 
L 205.774083 332.338074 
L 206.328479 338.917177 
L 206.882875 333.041083 
L 207.437272 328.6108 
L 207.991668 331.688122 
L 208.546065 330.918792 
L 209.100461 333.545127 
L 209.654857 332.550303 
L 210.209254 333.67777 
L 210.76365 332.404396 
L 211.318047 331.993202 
L 211.872443 329.764796 
L 212.42684 330.003553 
L 212.981236 329.035258 
L 213.535632 337.418309 
L 214.090029 334.65933 
L 214.644425 330.587183 
L 215.198822 330.772884 
L 215.753218 331.303457 
L 216.307615 331.290193 
L 216.862011 329.38013 
L 217.416407 331.184078 
L 217.970804 331.515686 
L 218.5252 329.831117 
L 219.079597 333.730828 
L 219.633993 333.823678 
L 220.18839 334.937881 
L 220.742786 328.995465 
L 221.297182 324.339688 
L 221.851579 337.046908 
L 222.405975 332.11258 
L 222.960372 334.380779 
L 223.514768 332.842118 
L 224.069164 330.45454 
L 224.623561 331.993202 
L 225.177957 333.876735 
L 225.732354 334.420572 
L 226.28675 331.555479 
L 226.841147 331.674858 
L 227.395543 332.364603 
L 227.949939 331.555479 
L 228.504336 331.290193 
L 229.058732 337.564217 
L 229.613129 335.853119 
L 230.167525 331.489157 
L 230.721922 332.046259 
L 231.276318 331.369778 
L 231.830714 331.489157 
L 232.385111 334.685859 
L 232.939507 337.139758 
L 233.493904 336.383692 
L 234.0483 334.778709 
L 234.602697 331.979937 
L 235.157093 331.064699 
L 235.711489 331.064699 
L 236.265886 331.422836 
L 236.820282 336.503071 
L 237.374679 335.561304 
L 237.929075 331.674858 
L 238.483471 331.184078 
L 239.037868 330.136197 
L 239.592264 331.104492 
L 240.146661 330.680034 
L 241.255454 336.144934 
L 241.80985 329.698474 
L 242.364246 330.786148 
L 242.918643 330.401483 
L 243.473039 335.402132 
L 244.027436 335.587833 
L 244.581832 334.738916 
L 245.136229 336.13167 
L 245.690625 330.680034 
L 246.245021 334.685859 
L 246.799418 334.274665 
L 247.353814 331.940144 
L 247.908211 335.415396 
L 248.462607 335.017467 
L 249.017004 332.377867 
L 249.5714 330.282104 
L 250.125796 331.383043 
L 250.680193 330.441276 
L 251.234589 332.563567 
L 251.788986 332.736004 
L 252.343382 330.746355 
L 252.897779 327.178253 
L 254.006571 331.184078 
L 255.115364 332.470717 
L 255.669761 331.542215 
L 256.224157 334.115493 
L 256.778553 334.16855 
L 257.33295 332.338074 
L 257.887346 331.807501 
L 258.441743 329.035258 
L 258.996139 328.902615 
L 259.550536 331.727915 
L 260.104932 330.016818 
L 260.659328 320.811379 
L 261.768121 331.648329 
L 262.876914 330.600448 
L 263.431311 331.701386 
L 263.985707 334.314458 
L 264.540103 331.993202 
L 265.0945 337.365252 
L 266.203293 338.293754 
L 266.757689 338.413133 
L 267.312086 338.784534 
L 267.866482 338.704948 
L 268.420878 340.057909 
L 269.529671 338.612098 
L 270.084068 339.275314 
L 271.19286 339.129406 
L 272.301653 340.349724 
L 272.85605 339.925266 
L 273.410446 339.341636 
L 273.964843 339.368164 
L 274.519239 339.248785 
L 275.073635 339.381429 
L 275.628032 339.805887 
L 276.182428 340.416046 
L 276.736825 339.686508 
L 278.400014 339.155935 
L 278.95441 340.734389 
L 279.508807 339.421222 
L 280.063203 340.933354 
L 280.6176 340.535425 
L 281.171996 339.461015 
L 282.280789 339.049821 
L 283.389582 339.553865 
L 283.943978 340.508896 
L 284.498375 339.288578 
L 285.052771 339.593658 
L 285.607167 338.824327 
L 286.71596 339.235521 
L 287.270357 339.580393 
L 287.824753 340.641539 
L 288.37915 339.328371 
L 288.933546 339.155935 
L 290.042339 339.3549 
L 290.596735 338.704948 
L 291.151132 339.407957 
L 291.705528 339.620186 
L 292.259925 339.527336 
L 292.814321 338.638627 
L 293.923114 339.049821 
L 294.47751 338.293754 
L 295.031907 339.75283 
L 295.586303 339.832416 
L 296.1407 339.487543 
L 297.249492 338.227433 
L 297.803889 338.903913 
L 298.358285 339.102878 
L 298.912682 338.28049 
L 299.467078 340.071173 
L 300.021474 340.455839 
L 300.575871 338.638627 
L 301.130267 337.975411 
L 301.684664 337.710124 
L 302.23906 337.895825 
L 303.347853 339.965059 
L 303.902249 338.519248 
L 304.456646 338.360076 
L 305.011042 338.704948 
L 305.565439 338.108054 
L 306.119835 338.598834 
L 306.674232 338.532512 
L 307.228628 339.235521 
L 307.783024 338.413133 
L 308.891817 338.18764 
L 309.446214 337.272401 
L 310.00061 337.710124 
L 310.555007 338.333547 
L 311.109403 338.718213 
L 311.663799 338.37334 
L 312.218196 337.69686 
L 312.772592 338.227433 
L 313.326989 337.550952 
L 313.881385 337.20608 
L 314.990178 338.585569 
L 315.544574 337.802974 
L 316.653367 337.126494 
L 317.76216 336.755093 
L 318.316556 336.980586 
L 318.870953 337.78971 
L 319.425349 338.108054 
L 319.979746 337.856032 
L 320.534142 336.781622 
L 321.088539 336.821415 
L 321.642935 335.601097 
L 322.197331 318.105457 
L 322.751728 285.753777 
L 323.306124 314.723055 
L 323.860521 315.850522 
L 324.414917 265.790973 
L 324.969314 305.889017 
L 325.52371 304.880929 
L 326.078106 272.038469 
L 326.632503 287.968919 
L 327.186899 315.4128 
L 327.741296 317.707527 
L 328.295692 317.322862 
L 329.404485 310.146864 
L 329.958881 327.204782 
L 330.513278 290.343232 
L 331.067674 322.681648 
L 331.622071 312.003869 
L 332.176467 308.263331 
L 332.730863 334.16855 
L 333.28526 298.805869 
L 333.839656 272.370077 
L 334.394053 317.123897 
L 334.948449 308.953075 
L 335.502846 312.18957 
L 336.057242 333.09414 
L 337.166035 298.394675 
L 337.720431 262.793237 
L 338.274828 275.102527 
L 338.829224 328.066962 
L 339.383621 307.043013 
L 339.938017 319.484946 
L 340.492413 307.321564 
L 341.04681 292.14718 
L 341.601206 273.218993 
L 342.155603 325.268191 
L 342.709999 313.728231 
L 343.264395 332.90844 
L 343.818792 303.952426 
L 344.373188 301.830135 
L 344.927585 297.82431 
L 345.481981 269.133582 
L 346.036378 274.25361 
L 346.590774 308.47556 
L 347.14517 325.427362 
L 347.699567 297.625345 
L 348.253963 302.586201 
L 348.80836 290.67484 
L 349.362756 271.985411 
L 349.917153 310.014221 
L 350.471549 323.039785 
L 351.025945 305.676788 
L 351.580342 304.284034 
L 352.134738 299.774165 
L 352.689135 305.186008 
L 353.243531 269.080525 
L 353.797928 268.576481 
L 354.352324 309.24489 
L 354.90672 300.318002 
L 356.015513 319.790026 
L 357.124306 290.09121 
L 357.678702 271.269138 
L 358.233099 303.753461 
L 358.787495 306.737934 
L 359.341892 328.279192 
L 359.896288 300.079244 
L 360.450685 297.346794 
L 361.005081 268.629538 
L 361.559477 270.168199 
L 362.113874 311.990605 
L 362.66827 333.624713 
L 363.222667 327.125196 
L 363.777063 328.995465 
L 364.33146 320.081841 
L 364.885856 298.858927 
L 365.440252 318.357479 
L 365.994649 328.982201 
L 366.549045 330.215782 
L 367.103442 316.155602 
L 367.657838 329.526038 
L 368.212235 326.952759 
L 368.766631 312.720143 
L 369.321027 315.585236 
L 369.875424 330.162725 
L 370.42982 329.128108 
L 370.984217 319.378832 
L 371.538613 329.366866 
L 372.09301 319.988991 
L 372.647406 293.062418 
L 373.201802 303.793254 
L 373.756199 327.549654 
L 374.310595 332.736004 
L 374.864992 334.765445 
L 375.419388 331.489157 
L 375.973784 334.208343 
L 376.528181 324.49886 
L 377.082577 336.662243 
L 377.636974 330.985113 
L 378.19137 330.441276 
L 378.745767 334.022643 
L 379.300163 331.913616 
L 379.854559 328.929143 
L 380.408956 319.630854 
L 380.963352 326.873173 
L 381.517749 331.210607 
L 382.072145 329.38013 
L 382.626542 330.109668 
L 383.180938 335.05726 
L 383.735334 331.608536 
L 384.289731 325.029433 
L 384.844127 334.208343 
L 385.398524 334.725652 
L 385.95292 333.39922 
L 386.507317 334.195079 
L 387.061713 334.407308 
L 387.616109 325.533477 
L 388.170506 330.75962 
L 388.724902 334.248136 
L 389.279299 334.221608 
L 389.833695 334.606273 
L 390.388091 331.356514 
L 390.942488 334.301193 
L 391.496884 333.041083 
L 392.051281 331.4361 
L 392.605677 338.744741 
L 393.160074 335.05726 
L 393.71447 334.500158 
L 394.268866 330.75962 
L 394.823263 332.537039 
L 395.932056 323.212221 
L 397.040849 326.515037 
L 397.595245 323.106106 
L 398.149641 328.690386 
L 398.704038 332.152373 
L 399.258434 332.802325 
L 399.812831 331.913616 
L 400.367227 339.965059 
L 400.921624 335.362339 
L 401.47602 334.526687 
L 402.584813 333.810414 
L 403.139209 332.444188 
L 403.693606 335.654154 
L 404.248002 339.726301 
L 404.802398 335.229696 
L 405.356795 334.831766 
L 405.911191 335.070524 
L 406.465588 334.367515 
L 407.019984 334.181815 
L 407.574381 335.667419 
L 408.128777 335.455189 
L 408.683173 335.813326 
L 409.23757 337.962146 
L 409.791966 334.977674 
L 410.346363 334.301193 
L 410.900759 335.070524 
L 412.009552 338.333547 
L 412.563948 334.818502 
L 413.118345 334.632802 
L 413.672741 335.083788 
L 414.227138 334.128757 
L 414.781534 333.545127 
L 415.335931 339.010028 
L 415.890327 338.108054 
L 416.444723 334.990938 
L 416.99912 334.248136 
L 417.553516 335.282753 
L 418.662309 333.704299 
L 419.216705 337.710124 
L 419.771102 338.890649 
L 420.325498 337.351987 
L 420.879895 336.794886 
L 421.434291 335.508247 
L 421.988688 338.174375 
L 422.543084 339.527336 
L 423.09748 338.333547 
L 423.651877 337.444838 
L 424.206273 338.86412 
L 424.76067 336.582657 
L 425.315066 338.333547 
L 425.869463 336.343899 
L 426.423859 338.625362 
L 426.978255 336.755093 
L 427.532652 339.235521 
L 428.087048 338.37334 
L 428.641445 338.161111 
L 429.750238 337.444838 
L 430.304634 337.564217 
L 430.85903 334.65933 
L 431.413427 337.471366 
L 431.967823 338.015203 
L 432.52222 338.001939 
L 433.076616 337.564217 
L 433.631012 338.37334 
L 434.185409 338.651891 
L 434.739805 337.259137 
L 435.294202 339.195728 
L 435.848598 338.67842 
L 436.402995 338.426397 
L 436.957391 338.346812 
L 437.511787 338.054996 
L 438.066184 338.161111 
L 438.62058 337.139758 
L 439.174977 338.638627 
L 439.729373 338.147847 
L 440.28377 339.023292 
L 440.838166 338.028468 
L 441.392562 338.293754 
L 441.946959 337.975411 
L 442.501355 334.433837 
L 443.055752 338.081525 
L 443.610148 338.28049 
L 444.164545 337.816239 
L 444.718941 336.091877 
L 445.273337 337.338723 
L 445.827734 338.121318 
L 446.38213 335.110317 
L 446.936527 335.428661 
L 447.490923 337.60401 
L 449.154112 336.755093 
L 449.708509 337.099965 
L 450.262905 333.969585 
L 450.817302 329.618888 
L 451.371698 332.338074 
L 451.926094 338.452926 
L 452.480491 334.380779 
L 453.034887 335.959234 
L 453.589284 335.707212 
L 454.14368 336.648978 
L 454.698077 341.357812 
L 455.252473 341.357812 
L 455.806869 340.535425 
L 456.361266 336.755093 
L 457.470059 335.176639 
L 458.024455 332.961497 
L 458.578852 338.386604 
L 459.133248 337.365252 
L 459.687644 336.794886 
L 460.242041 334.765445 
L 460.796437 336.091877 
L 461.350834 336.03882 
L 461.90523 334.75218 
L 462.459626 332.736004 
L 463.014023 336.091877 
L 463.568419 334.274665 
L 464.122816 333.836942 
L 464.677212 335.892912 
L 465.231609 333.664506 
L 465.786005 329.857646 
L 466.340401 336.423485 
L 466.894798 336.556128 
L 467.449194 336.980586 
L 468.003591 335.627626 
L 468.557987 337.060172 
L 469.112384 335.269489 
L 469.66678 317.362655 
L 470.221176 321.978639 
L 470.775573 332.90844 
L 471.329969 334.526687 
L 471.884366 335.747005 
L 472.438762 332.444188 
L 472.993159 336.675507 
L 473.547555 330.706562 
L 474.101951 338.77127 
L 474.656348 335.972498 
L 475.210744 329.512773 
L 475.765141 336.343899 
L 476.319537 336.144934 
L 476.873933 329.923967 
L 477.42833 331.83403 
L 477.982726 319.31251 
L 478.537123 334.181815 
L 479.091519 335.256225 
L 479.645916 333.98285 
L 480.200312 333.319634 
L 480.754708 335.693947 
L 481.309105 318.927845 
L 481.863501 339.421222 
L 482.417898 337.909089 
L 482.972294 335.667419 
L 483.526691 331.714651 
L 484.081087 337.179551 
L 484.635483 335.800062 
L 485.18988 335.932705 
L 485.744276 334.858295 
L 486.298673 336.847943 
L 486.853069 337.378516 
L 487.407466 338.479455 
L 487.961862 337.657067 
L 488.516258 331.131021 
L 489.070655 327.244574 
L 489.625051 334.314458 
L 490.179448 336.383692 
L 490.733844 336.595921 
L 491.28824 337.763181 
L 491.842637 337.537688 
L 492.397033 336.728564 
L 492.95143 329.977025 
L 493.505826 335.54804 
L 494.060223 337.511159 
L 494.614619 337.550952 
L 495.169015 336.211256 
L 495.723412 333.571656 
L 496.277808 336.277577 
L 496.832205 325.75897 
L 497.386601 329.804589 
L 497.940998 335.892912 
L 498.495394 336.078613 
L 499.04979 329.897439 
L 499.604187 327.523125 
L 500.158583 325.75897 
L 500.71298 309.682613 
L 501.267376 306.485911 
L 501.821773 328.902615 
L 502.376169 324.631503 
L 502.930565 324.49886 
L 503.484962 327.32416 
L 504.039358 309.351005 
L 504.593755 309.762199 
L 505.148151 263.562567 
L 505.702548 263.124845 
L 506.256944 321.036872 
L 506.81134 332.563567 
L 507.365737 320.665471 
L 507.920133 337.086701 
L 508.47453 293.831749 
L 509.028926 283.114177 
L 509.583322 317.773849 
L 510.137719 318.874788 
L 510.692115 321.010343 
L 511.246512 333.027819 
L 511.800908 316.699439 
L 512.355305 264.292105 
L 512.909701 256.57227 
L 513.464097 316.274981 
L 514.018494 333.09414 
L 515.127287 312.149777 
L 515.681683 308.873489 
L 516.23608 263.11158 
L 516.790476 273.033293 
L 517.344872 330.162725 
L 517.899269 317.933021 
L 518.453665 314.497562 
L 519.008062 312.560971 
L 519.562458 331.635065 
L 520.116855 252.075665 
L 520.671251 257.567094 
L 521.225647 326.753795 
L 521.780044 322.416361 
L 522.33444 312.28242 
L 522.888837 304.390149 
L 523.443233 318.795202 
L 523.997629 313.75476 
L 524.552026 255.816204 
L 525.106422 310.942723 
L 525.660819 327.708826 
L 526.215215 318.065664 
L 526.769612 263.005466 
L 527.324008 307.865401 
L 527.878404 237.392061 
L 528.432801 244.369094 
L 528.987197 294.322529 
L 529.541594 304.257505 
L 530.650387 331.847294 
L 531.204783 311.154953 
L 531.759179 235.667699 
L 532.313576 302.201536 
L 532.867972 311.446768 
L 533.422369 317.16369 
L 533.976765 287.823011 
L 534.531162 292.969568 
L 535.639954 305.942074 
L 536.194351 239.050101 
L 536.748747 278.551251 
L 537.303144 298.328354 
L 537.85754 256.903878 
L 538.411936 277.29114 
L 538.966333 251.438978 
L 539.520729 276.176937 
L 540.075126 197.691947 
L 541.183919 318.556444 
L 541.738315 244.820081 
L 542.292711 319.71044 
L 542.847108 229.605904 
L 543.401504 208.900299 
L 543.955901 281.641837 
L 544.510297 151.532108 
L 545.064694 258.654768 
L 545.61909 244.820081 
L 546.173486 236.675788 
L 546.727883 247.48621 
L 547.282279 255.98864 
L 547.836676 190.834293 
L 548.391072 260.949496 
L 548.945469 314.550619 
L 550.054261 271.295667 
L 550.608658 284.069208 
L 551.163054 164.70358 
L 551.717451 169.942987 
L 552.271847 243.86505 
L 552.826243 294.87963 
L 553.38064 288.724985 
L 553.935036 268.231608 
L 554.489433 235.707492 
L 555.043829 169.054277 
L 556.152622 255.855997 
L 556.707018 222.443171 
L 557.261415 287.159795 
L 557.815811 274.532161 
L 558.370208 237.856312 
L 558.924604 183.286894 
L 559.479001 257.089578 
L 560.033397 270.221257 
L 560.587793 253.53474 
L 561.14219 257.381394 
L 561.696586 247.207659 
L 562.250983 233.518879 
L 562.805379 147.658927 
L 563.359776 155.445083 
L 563.914172 196.829766 
L 564.468568 275.102527 
L 565.022965 315.10772 
L 565.577361 325.838556 
L 566.131758 305.690052 
L 566.686154 253.83982 
L 567.24055 310.345829 
L 567.794947 319.020695 
L 568.349343 324.856997 
L 568.90374 323.384657 
L 569.458136 314.815905 
L 570.012533 302.984131 
L 570.566929 248.520827 
L 571.121325 260.127108 
L 571.675722 311.261067 
L 572.230118 324.936583 
L 572.784515 334.022643 
L 573.338911 326.979288 
L 573.893308 318.224836 
L 574.447704 315.054663 
L 575.0021 294.043978 
L 575.556497 324.644767 
L 576.110893 319.909405 
L 576.66529 318.397272 
L 577.774083 313.94046 
L 578.328479 272.078262 
L 578.882875 332.192166 
L 579.437272 331.276928 
L 579.991668 326.541565 
L 580.546065 324.697825 
L 581.100461 324.578446 
L 581.654857 324.856997 
L 582.209254 326.939495 
L 582.76365 289.454523 
L 583.318047 278.378814 
L 583.872443 321.540916 
L 584.42684 315.094456 
L 585.535632 329.300544 
L 586.090029 325.851821 
L 586.644425 317.548356 
L 587.198822 326.24975 
L 587.753218 316.885139 
L 588.862011 332.006466 
L 589.970804 318.317686 
L 590.5252 308.223538 
L 591.079597 334.049171 
L 591.633993 332.921704 
L 592.18839 317.65447 
L 592.742786 325.997728 
L 593.297182 329.751531 
L 593.851579 334.911352 
L 594.405975 318.423801 
L 594.960372 326.926231 
L 595.514768 327.907791 
L 596.069164 330.401483 
L 596.623561 330.388219 
L 597.177957 325.08249 
L 597.732354 316.076016 
L 598.28675 312.096719 
L 598.841147 322.058225 
L 599.395543 329.77806 
L 599.949939 326.568094 
L 600.504336 325.307984 
L 601.058732 323.61015 
L 601.613129 323.291807 
L 602.167525 336.821415 
L 602.721922 331.117756 
L 603.276318 330.428012 
L 603.830714 333.147198 
L 604.385111 332.404396 
L 604.939507 330.560655 
L 605.493904 329.831117 
L 606.0483 334.951145 
L 606.602697 332.629889 
L 607.157093 331.754444 
L 607.711489 330.189254 
L 608.265886 332.868647 
L 608.820282 331.117756 
L 609.374679 330.520862 
L 609.929075 338.121318 
L 610.483471 333.439013 
L 611.037868 333.332898 
L 611.592264 332.762532 
L 612.146661 332.842118 
L 612.701057 331.873823 
L 613.255454 331.92688 
L 613.80985 337.577481 
L 614.364246 333.836942 
L 614.918643 332.669682 
L 615.473039 333.757356 
L 616.027436 333.439013 
L 616.581832 332.629889 
L 617.136229 334.977674 
L 617.690625 332.205431 
L 618.245021 331.595272 
L 618.799418 332.086052 
L 619.353814 334.102229 
L 619.908211 332.90844 
L 620.462607 332.338074 
L 621.017004 337.139758 
L 621.5714 334.035907 
L 622.125796 334.924617 
L 622.680193 334.181815 
L 623.234589 335.64089 
L 623.788986 335.24296 
L 624.343382 336.901 
L 624.897779 335.110317 
L 625.452175 331.767708 
L 626.006571 337.617274 
L 626.560968 332.51051 
L 627.115364 333.717563 
L 627.669761 331.714651 
L 628.224157 331.873823 
L 628.778553 334.685859 
L 629.33295 336.781622 
L 629.887346 334.301193 
L 630.441743 335.05726 
L 630.996139 338.37334 
L 631.550536 336.609185 
L 632.104932 336.463278 
L 632.659328 334.155286 
L 633.213725 337.20608 
L 633.768121 338.386604 
L 634.322518 338.081525 
L 634.876914 336.13167 
L 635.431311 336.330635 
L 635.985707 335.985762 
L 636.540103 336.03882 
L 637.0945 327.191517 
L 637.648896 339.646715 
L 638.203293 337.338723 
L 638.757689 334.181815 
L 639.312086 335.136846 
L 639.866482 334.234872 
L 640.420878 330.573919 
L 640.975275 331.873823 
L 641.529671 335.070524 
L 642.084068 333.863471 
L 643.19286 334.447101 
L 643.747257 332.974761 
L 644.301653 326.196693 
L 644.85605 329.207694 
L 645.410446 335.017467 
L 645.964843 332.258488 
L 646.519239 334.858295 
L 647.073635 335.136846 
L 647.628032 333.823678 
L 648.182428 330.613712 
L 648.736825 328.756707 
L 649.291221 332.921704 
L 649.845618 333.850207 
L 650.400014 332.895175 
L 650.95441 336.542864 
L 651.508807 341.357812 
L 652.063203 341.357812 
L 652.6176 340.203817 
L 653.171996 337.325459 
L 653.726393 333.850207 
L 654.280789 332.775797 
L 654.835185 335.468454 
L 655.389582 336.489807 
L 655.943978 335.587833 
L 656.498375 333.107405 
L 657.052771 328.12002 
L 657.607167 334.208343 
L 658.161564 332.311545 
L 658.71596 331.727915 
L 659.270357 333.903264 
L 659.824753 333.00129 
L 660.37915 336.22452 
L 661.487942 332.271752 
L 662.596735 332.165638 
L 663.151132 331.303457 
L 663.705528 332.298281 
L 664.259925 321.779674 
L 664.814321 334.911352 
L 665.368717 331.582008 
L 665.923114 331.157549 
L 666.47751 331.223871 
L 667.031907 334.088964 
L 667.586303 334.765445 
L 668.1407 337.29893 
L 668.695096 332.351338 
L 669.249492 336.635714 
L 669.803889 334.049171 
L 670.358285 320.254277 
L 671.467078 335.123581 
L 672.021474 323.238749 
L 672.575871 328.027169 
L 673.130267 330.428012 
L 673.684664 334.778709 
L 674.23906 330.905527 
L 674.793457 331.648329 
L 675.347853 331.290193 
L 675.902249 337.033644 
L 677.011042 329.671945 
L 677.565439 334.367515 
L 678.119835 329.884174 
L 678.674232 334.791973 
L 679.228628 320.10837 
L 679.783024 333.558391 
L 680.337421 329.274016 
L 680.891817 330.467805 
L 681.446214 332.338074 
L 682.00061 328.88935 
L 682.555007 329.96376 
L 683.109403 329.738267 
L 683.663799 320.731793 
L 684.218196 328.982201 
L 684.772592 313.927196 
L 685.326989 328.730178 
L 685.881385 325.095754 
L 686.435781 316.434153 
L 686.990178 302.493351 
L 687.544574 301.312826 
L 688.098971 331.011642 
L 688.653367 330.414747 
L 689.207764 318.622766 
L 689.76216 329.406659 
L 690.316556 310.677437 
L 690.870953 328.6108 
L 691.425349 284.002887 
L 691.979746 328.88935 
L 692.534142 323.703001 
L 693.088539 327.350689 
L 694.197331 311.194746 
L 694.751728 286.164971 
L 695.306124 332.60336 
L 695.860521 323.238749 
L 696.414917 328.066962 
L 696.969314 316.97799 
L 697.52371 310.279507 
L 698.078106 317.813642 
L 698.632503 276.21673 
L 699.186899 256.890614 
L 699.741296 313.529266 
L 700.295692 316.235188 
L 701.958881 294.720458 
L 702.513278 203.329284 
L 703.067674 248.189219 
L 703.622071 327.337425 
L 704.176467 314.33839 
L 704.730863 313.688438 
L 705.28526 311.181481 
L 705.839656 298.248768 
L 706.394053 270.221257 
L 706.948449 266.016467 
L 707.502846 182.212484 
L 708.057242 308.157216 
L 708.611638 313.675174 
L 709.166035 313.423152 
L 709.720431 322.575533 
L 710.274828 204.841416 
L 710.829224 200.132582 
L 711.383621 285.316054 
L 711.938017 287.504667 
L 712.492413 324.910054 
L 713.04681 305.995132 
L 713.601206 272.966971 
L 714.155603 165.525968 
L 714.709999 215.824274 
L 715.264395 311.035574 
L 715.818792 325.984464 
L 716.373188 286.47005 
L 716.927585 308.555146 
L 717.481981 259.662857 
L 718.036378 236.768638 
L 718.590774 296.219327 
L 719.14517 271.322195 
L 719.699567 278.697158 
L 720.253963 296.35197 
L 720.80836 299.455821 
L 721.362756 253.640855 
L 721.917153 121.037434 
L 722.471549 86.152268 
L 723.025945 289.812659 
L 723.580342 259.21187 
L 724.134738 281.323494 
L 724.689135 253.123546 
L 725.243531 230.919072 
L 725.797928 100.650171 
L 726.352324 254.569357 
L 726.90672 250.457418 
L 727.461117 251.160427 
L 728.015513 301.007747 
L 728.56991 234.221888 
L 729.124306 145.868243 
L 729.678702 77.437609 
L 730.233099 113.264541 
L 731.341892 309.722406 
L 731.896288 233.174007 
L 732.450685 241.198921 
L 733.005081 243.559971 
L 733.559477 115.081753 
L 734.113874 105.783464 
L 734.66827 224.857277 
L 735.222667 262.819765 
L 735.777063 274.346461 
L 736.33146 215.373288 
L 736.885856 209.006413 
L 737.440252 38.957812 
L 737.994649 108.568971 
L 738.549045 296.948864 
L 739.103442 256.850821 
L 739.657838 244.249715 
L 740.212235 217.256821 
L 740.766631 205.597483 
L 741.321027 94.933249 
L 741.875424 282.543811 
L 742.42982 205.995412 
L 742.984217 216.620134 
L 743.538613 220.984096 
L 744.09301 196.047171 
L 744.647406 196.949145 
L 745.201802 108.370007 
L 745.756199 73.683806 
L 746.864992 215.386552 
L 747.419388 219.92295 
L 747.973784 296.325441 
L 749.082577 96.246417 
L 750.19137 300.543495 
L 750.745767 234.394324 
L 751.300163 203.037469 
L 751.854559 198.40822 
L 752.408956 185.661208 
L 752.963352 67.568954 
L 754.626542 215.665103 
L 755.180938 248.74632 
L 756.289731 193.739179 
L 756.844127 104.045838 
L 757.398524 262.34225 
L 757.95292 311.685525 
L 758.507317 231.144566 
L 759.061713 218.875068 
L 759.616109 278.4584 
L 760.170506 253.176604 
L 760.724902 131.317283 
L 761.279299 145.788657 
L 762.388091 310.306036 
L 762.942488 237.498176 
L 763.496884 225.4807 
L 764.051281 193.4341 
L 764.605677 133.585482 
L 765.160074 241.145864 
L 765.71447 228.160093 
L 766.268866 292.982832 
L 766.823263 309.748935 
L 767.377659 294.587815 
L 767.932056 283.976358 
L 768.486452 195.277841 
L 769.040849 240.33674 
L 769.595245 322.999992 
L 770.149641 316.871875 
L 770.704038 295.131652 
L 771.258434 301.219976 
L 771.812831 295.980569 
L 772.367227 204.019028 
L 772.921624 290.887069 
L 773.47602 287.053681 
L 774.030416 292.889982 
L 774.584813 317.521827 
L 775.139209 312.362006 
L 775.693606 305.743109 
L 776.248002 250.430889 
L 776.802398 325.374305 
L 777.356795 324.936583 
L 777.911191 328.013905 
L 779.574381 298.10286 
L 780.128777 286.390464 
L 780.683173 289.0168 
L 781.23757 318.277893 
L 781.791966 316.022959 
L 782.346363 307.560321 
L 782.900759 317.25654 
L 783.455156 322.641855 
L 784.009552 295.410203 
L 785.118345 280.302141 
L 785.672741 304.496263 
L 786.227138 321.315423 
L 786.781534 329.061787 
L 787.335931 314.33839 
L 787.890327 311.433503 
L 788.444723 307.6797 
L 788.99912 327.576183 
L 789.553516 328.88935 
L 790.107913 319.405361 
L 790.662309 327.987376 
L 791.216705 316.818818 
L 791.771102 278.975709 
L 792.325498 282.450961 
L 792.879895 310.425415 
L 793.434291 317.535091 
L 793.988688 328.332249 
L 794.543084 318.463594 
L 795.09748 319.471682 
L 795.651877 299.548671 
L 796.206273 315.691351 
L 796.76067 326.010993 
L 797.869463 322.164339 
L 798.423859 329.220958 
L 798.978255 319.89614 
L 799.532652 295.927512 
L 800.087048 295.927512 
L 800.641445 323.862173 
L 801.195841 325.825292 
L 801.750238 326.223222 
L 802.304634 315.90358 
L 802.85903 332.231959 
L 803.413427 318.569708 
L 803.967823 327.867998 
L 804.52222 328.544478 
L 805.076616 333.704299 
L 805.631012 333.757356 
L 806.185409 331.329985 
L 806.739805 332.974761 
L 807.294202 330.693298 
L 807.848598 334.712387 
L 808.402995 331.303457 
L 808.957391 329.791324 
L 809.511787 327.669033 
L 810.066184 331.064699 
L 810.62058 326.806852 
L 811.174977 315.956637 
L 811.729373 336.834679 
L 812.28377 330.693298 
L 812.838166 331.117756 
L 813.392562 333.545127 
L 813.946959 332.430924 
L 814.501355 332.51051 
L 815.055752 333.133933 
L 815.610148 329.671945 
L 816.164545 334.035907 
L 816.718941 332.298281 
L 817.273337 331.131021 
L 817.827734 328.159813 
L 818.38213 332.178902 
L 818.936527 333.505334 
L 819.490923 336.927529 
L 820.045319 332.842118 
L 820.599716 332.60336 
L 821.154112 334.553216 
L 821.708509 335.82659 
L 822.262905 332.231959 
L 822.817302 332.430924 
L 823.371698 334.394044 
L 823.926094 330.666769 
L 824.480491 331.449364 
L 825.034887 328.597535 
L 825.589284 332.457453 
L 826.14368 340.309931 
L 826.698077 341.357812 
L 827.252473 334.685859 
L 827.806869 334.340986 
L 828.361266 331.170814 
L 828.915662 331.03817 
L 829.470059 323.955023 
L 830.024455 330.17599 
L 830.578852 333.943057 
L 831.133248 331.661594 
L 831.687644 326.037521 
L 832.242041 335.773533 
L 832.796437 335.906176 
L 833.350834 332.90844 
L 833.90523 332.457453 
L 834.459626 328.345513 
L 835.014023 334.195079 
L 835.568419 331.489157 
L 836.122816 332.576832 
L 836.677212 333.359427 
L 837.231609 333.876735 
L 837.786005 336.052084 
L 838.340401 330.149461 
L 838.894798 329.68521 
L 839.449194 331.184078 
L 840.003591 336.80815 
L 840.557987 331.077963 
L 841.112384 334.195079 
L 841.66678 332.364603 
L 842.221176 331.887087 
L 842.775573 336.211256 
L 843.329969 328.730178 
L 843.884366 332.483981 
L 844.438762 332.231959 
L 844.993159 335.349075 
L 845.547555 332.789061 
L 846.101951 331.674858 
L 846.656348 337.007115 
L 847.210744 332.41766 
L 847.765141 334.526687 
L 848.319537 330.36169 
L 848.873933 331.396307 
L 849.42833 334.619537 
L 849.982726 339.885473 
L 850.537123 331.03817 
L 851.091519 331.502422 
L 851.645916 335.296018 
L 852.200312 330.069875 
L 852.754708 334.831766 
L 853.309105 332.377867 
L 853.863501 325.838556 
L 854.417898 323.583622 
L 854.972294 330.003553 
L 855.526691 329.47298 
L 856.081087 332.736004 
L 856.635483 330.374954 
L 857.18988 334.526687 
L 857.744276 329.075051 
L 858.298673 322.111282 
L 858.853069 319.790026 
L 859.407466 330.043346 
L 859.961862 334.022643 
L 860.516258 336.794886 
L 861.070655 330.26884 
L 861.625051 334.301193 
L 862.179448 329.47298 
L 862.733844 334.646066 
L 863.28824 330.016818 
L 863.842637 330.680034 
L 864.397033 328.637328 
L 864.95143 333.18699 
L 865.505826 331.847294 
L 866.060223 329.857646 
L 866.614619 331.52895 
L 867.169015 332.789061 
L 867.723412 327.562918 
L 868.277808 331.276928 
L 868.832205 331.887087 
L 869.386601 331.396307 
L 870.495394 333.518599 
L 871.04979 334.142022 
L 871.604187 327.417011 
L 872.158583 329.539302 
L 872.71298 335.043995 
L 873.267376 331.887087 
L 873.821773 332.921704 
L 874.376169 326.329336 
L 874.930565 326.010993 
L 875.484962 330.666769 
L 876.039358 332.01973 
L 876.593755 326.448715 
L 877.148151 337.153023 
L 877.702548 312.454856 
L 878.256944 331.4361 
L 878.81134 330.653505 
L 879.365737 333.240048 
L 879.920133 328.663857 
L 880.47453 335.335811 
L 881.028926 324.392745 
L 881.583322 318.662559 
L 882.137719 324.40601 
L 882.692115 331.860558 
L 883.246512 320.665471 
L 883.800908 321.501123 
L 884.355305 286.324143 
L 884.909701 287.902597 
L 885.464097 278.511458 
L 886.57289 315.877051 
L 887.127287 299.588464 
L 887.681683 291.908422 
L 888.23608 295.967305 
L 888.790476 262.992201 
L 889.344872 275.14232 
L 889.899269 330.520862 
L 890.453665 327.735354 
L 891.008062 323.066313 
L 891.562458 322.575533 
L 892.116855 315.147513 
L 892.671251 325.414098 
L 893.225647 306.830784 
L 893.780044 324.034609 
L 894.33444 318.675823 
L 894.888837 314.497562 
L 895.443233 299.416028 
L 895.997629 322.694912 
L 897.106422 331.860558 
L 897.660819 322.641855 
L 898.215215 326.408922 
L 898.769612 326.64768 
L 899.324008 316.911668 
L 899.878404 297.61208 
L 900.432801 221.567726 
L 900.987197 315.784201 
L 901.541594 303.023924 
L 902.09599 306.379797 
L 902.650387 303.514703 
L 903.204783 298.155918 
L 903.759179 287.84954 
L 904.313576 199.588745 
L 904.867972 237.299211 
L 905.422369 301.777077 
L 905.976765 304.297298 
L 906.531162 317.919757 
L 907.085558 307.905194 
L 907.639954 295.144917 
L 908.194351 270.420221 
L 908.748747 78.379376 
L 909.303144 168.934898 
L 909.85754 280.341934 
L 910.411936 313.104808 
L 910.966333 301.405676 
L 911.520729 287.199588 
L 912.075126 166.494263 
L 912.629522 165.897369 
L 913.183919 277.596219 
L 913.738315 289.348408 
L 914.292711 278.126792 
L 914.847108 281.933652 
L 915.401504 270.911001 
L 915.955901 155.829749 
L 916.510297 194.932968 
L 917.064694 281.960181 
L 917.61909 288.698456 
L 918.173486 282.782569 
L 918.727883 314.497562 
L 919.282279 305.544145 
L 919.836676 160.711019 
L 920.391072 274.028117 
L 920.945469 307.480736 
L 921.499865 294.123564 
L 922.054261 308.236802 
L 922.608658 300.543495 
L 923.163054 284.493667 
L 923.717451 57.116669 
L 924.271847 98.050364 
L 924.826243 255.00708 
L 925.38064 244.621116 
L 925.935036 250.590061 
L 926.489433 261.373954 
L 927.043829 283.193763 
L 927.598226 267.555128 
L 928.152622 159.02645 
L 928.707018 295.330617 
L 929.261415 315.001606 
L 929.815811 262.965673 
L 930.370208 230.97213 
L 930.924604 246.451593 
L 931.479001 94.177183 
L 932.033397 237.140039 
L 932.587793 168.072717 
L 933.14219 211.937828 
L 933.696586 149.104738 
L 934.250983 268.457102 
L 935.359776 118.915142 
L 935.914172 179.931021 
L 937.022965 251.492035 
L 937.577361 217.707808 
L 938.131758 268.868296 
L 938.686154 182.716528 
L 939.24055 155.285911 
L 939.794947 115.758234 
L 940.349343 236.211537 
L 940.90374 230.680314 
L 941.458136 191.86891 
L 942.012533 246.862787 
L 942.566929 216.169147 
L 943.121325 64.650803 
L 943.675722 136.384253 
L 944.230118 261.771884 
L 944.784515 239.514353 
L 945.338911 203.050733 
L 945.893308 228.849838 
L 946.447704 209.842066 
L 947.0021 244.93946 
L 947.556497 89.879542 
L 948.110893 224.207326 
L 948.66529 207.149408 
L 949.219686 213.834626 
L 949.774083 228.531494 
L 950.328479 194.787061 
L 950.882875 96.326003 
L 951.437272 64.067173 
L 951.991668 273.099614 
L 952.546065 254.662208 
L 953.100461 170.699053 
L 953.654857 266.852119 
L 954.209254 169.545057 
L 954.76365 217.973095 
L 955.318047 104.470296 
L 955.872443 213.808098 
L 956.42684 198.262313 
L 956.981236 175.275244 
L 958.090029 238.439943 
L 958.644425 62.793798 
L 959.198822 110.134161 
L 959.753218 225.520493 
L 960.307615 216.646662 
L 960.862011 288.8311 
L 961.416407 246.557707 
L 961.970804 225.308264 
L 962.5252 187.345776 
L 963.079597 123.54439 
L 963.633993 210.797097 
L 964.18839 214.975358 
L 964.742786 245.589412 
L 965.297182 212.866331 
L 965.851579 195.662506 
L 966.405975 130.813238 
L 966.960372 83.061681 
L 967.514768 141.172673 
L 968.069164 282.119353 
L 968.623561 286.841451 
L 969.177957 308.117423 
L 969.732354 295.808133 
L 970.28675 216.368112 
L 970.841147 216.39464 
L 971.395543 292.836925 
L 971.949939 318.768673 
L 972.504336 309.908106 
L 973.613129 280.182762 
L 974.167525 190.250663 
L 975.276318 303.541232 
L 975.830714 302.4005 
L 976.385111 302.055628 
L 976.939507 297.691666 
L 977.493904 286.324143 
L 978.0483 231.370059 
L 978.602697 242.153953 
L 979.157093 299.124213 
L 979.711489 313.144601 
L 980.265886 309.404062 
L 980.820282 311.964076 
L 981.374679 288.565813 
L 981.929075 242.512089 
L 982.483471 243.533442 
L 983.037868 282.450961 
L 983.592264 287.743425 
L 984.146661 288.260734 
L 984.701057 296.736635 
L 985.255454 302.135214 
L 985.80985 279.612396 
L 986.364246 310.451944 
L 986.918643 306.154303 
L 987.473039 251.810379 
L 988.027436 317.428977 
L 988.581832 309.417326 
L 989.136229 313.94046 
L 989.690625 312.056926 
L 990.245021 317.680999 
L 990.799418 321.142987 
L 991.353814 315.797465 
L 992.462607 320.028784 
L 993.017004 328.544478 
L 993.5714 312.017133 
L 994.125796 310.505001 
L 994.680193 317.972814 
L 995.234589 312.454856 
L 995.788986 319.166603 
L 996.343382 328.265927 
L 996.897779 311.274331 
L 997.452175 288.685192 
L 998.006571 326.422187 
L 998.560968 316.513738 
L 999.669761 329.141372 
L 1000.224157 328.70365 
L 1001.887346 316.540267 
L 1002.441743 332.139109 
L 1002.996139 330.786148 
L 1003.550536 328.345513 
L 1004.104932 328.7965 
L 1004.659328 323.185692 
L 1005.213725 325.002904 
L 1005.768121 322.893877 
L 1006.322518 315.5985 
L 1006.876914 330.255575 
L 1007.985707 326.090579 
L 1008.540103 330.308633 
L 1009.0945 317.349391 
L 1009.648896 325.374305 
L 1010.203293 329.433188 
L 1010.757689 336.450014 
L 1011.312086 331.223871 
L 1011.866482 329.764796 
L 1012.420878 329.433188 
L 1012.975275 325.719178 
L 1013.529671 333.120669 
L 1014.084068 310.703966 
L 1014.638464 334.593009 
L 1015.19286 334.951145 
L 1015.747257 327.13846 
L 1016.301653 335.216432 
L 1016.85605 331.489157 
L 1017.410446 335.335811 
L 1017.964843 333.18699 
L 1018.519239 333.730828 
L 1019.073635 332.828854 
L 1019.628032 334.367515 
L 1020.182428 332.802325 
L 1020.736825 330.030082 
L 1021.291221 333.744092 
L 1021.845618 334.128757 
L 1022.400014 308.342916 
L 1022.95441 333.664506 
L 1023.508807 325.812028 
L 1024.063203 327.81494 
L 1025.171996 333.783885 
L 1025.726393 334.234872 
L 1026.280789 327.907791 
L 1026.835185 331.263664 
L 1027.389582 329.021994 
L 1027.943978 331.555479 
L 1028.498375 335.468454 
L 1029.052771 328.743443 
L 1029.607167 328.584271 
L 1030.161564 331.727915 
L 1030.71596 335.680683 
L 1031.270357 331.820765 
L 1031.824753 330.36169 
L 1032.37915 325.838556 
L 1033.487942 328.88935 
L 1034.042339 330.321897 
L 1034.596735 331.104492 
L 1035.151132 329.327073 
L 1035.705528 333.439013 
L 1036.259925 333.810414 
L 1036.814321 334.805238 
L 1037.368717 334.593009 
L 1037.923114 336.383692 
L 1038.47751 335.083788 
L 1039.031907 335.070524 
L 1039.586303 327.23131 
L 1040.1407 339.699772 
L 1040.695096 337.511159 
L 1041.249492 334.778709 
L 1041.803889 335.866383 
L 1042.358285 334.937881 
L 1042.912682 334.858295 
L 1043.467078 334.035907 
L 1044.021474 335.441925 
L 1044.575871 330.414747 
L 1045.684664 338.147847 
L 1046.23906 335.256225 
L 1046.793457 334.128757 
L 1047.347853 334.500158 
L 1047.902249 333.505334 
L 1048.456646 333.412484 
L 1049.011042 323.756058 
L 1049.565439 334.287929 
L 1050.119835 332.483981 
L 1050.674232 335.176639 
L 1051.228628 331.263664 
L 1051.783024 323.278542 
L 1052.337421 325.042697 
L 1052.891817 334.049171 
L 1053.446214 332.775797 
L 1054.00061 332.590096 
L 1054.555007 332.749268 
L 1055.109403 327.191517 
L 1055.663799 319.179867 
L 1056.218196 331.621801 
L 1056.772592 332.430924 
L 1057.326989 329.313809 
L 1057.881385 321.76641 
L 1058.435781 334.420572 
L 1058.990178 334.221608 
L 1059.544574 330.825941 
L 1060.098971 333.425748 
L 1060.653367 329.28728 
L 1061.207764 329.101579 
L 1061.76216 330.666769 
L 1062.316556 330.985113 
L 1062.870953 329.526038 
L 1063.425349 331.144285 
L 1063.979746 331.157549 
L 1064.534142 325.838556 
L 1065.088539 325.228398 
L 1065.642935 333.916528 
L 1066.197331 332.51051 
L 1066.751728 326.170164 
L 1067.306124 330.428012 
L 1067.860521 329.141372 
L 1068.414917 323.013256 
L 1068.969314 328.823029 
L 1069.52371 330.255575 
L 1070.078106 322.283718 
L 1071.186899 335.256225 
L 1071.741296 334.460365 
L 1072.295692 325.042697 
L 1072.850088 323.5173 
L 1073.404485 300.06598 
L 1073.958881 331.157549 
L 1074.513278 326.488508 
L 1075.067674 324.856997 
L 1075.622071 330.308633 
L 1076.176467 330.45454 
L 1076.730863 332.351338 
L 1077.28526 331.210607 
L 1077.839656 330.573919 
L 1078.394053 333.956321 
L 1078.948449 328.584271 
L 1079.502846 325.228398 
L 1080.057242 325.75897 
L 1080.611638 330.534126 
L 1082.274828 313.250715 
L 1082.829224 306.552233 
L 1083.383621 308.608203 
L 1083.938017 318.927845 
L 1084.492413 331.780972 
L 1085.04681 333.943057 
L 1085.601206 334.022643 
L 1086.155603 326.170164 
L 1086.709999 305.782902 
L 1087.264395 296.84275 
L 1087.818792 325.679385 
L 1088.373188 323.02652 
L 1088.927585 313.728231 
L 1089.481981 331.807501 
L 1090.036378 333.452277 
L 1090.590774 320.134898 
L 1091.14517 311.30086 
L 1091.699567 314.391447 
L 1092.253963 315.240364 
L 1092.80836 332.802325 
L 1093.362756 325.17534 
L 1093.917153 323.676472 
L 1094.471549 320.890965 
L 1095.025945 312.37527 
L 1095.580342 310.266243 
L 1096.134738 326.926231 
L 1097.797928 307.00322 
L 1098.352324 323.941758 
L 1098.90672 311.844697 
L 1099.461117 316.540267 
L 1100.015513 325.719178 
L 1101.124306 293.009361 
L 1101.678702 320.453242 
L 1102.233099 261.506597 
L 1102.787495 316.593324 
L 1103.341892 296.405027 
L 1103.896288 300.530231 
L 1104.450685 306.737934 
L 1105.005081 316.818818 
L 1105.559477 310.62438 
L 1106.113874 295.158181 
L 1106.66827 259.914879 
L 1107.222667 318.450329 
L 1107.777063 318.901316 
L 1108.33146 311.247803 
L 1108.885856 298.049803 
L 1109.440252 313.608852 
L 1109.994649 194.840118 
L 1110.549045 122.28428 
L 1111.103442 133.015116 
L 1111.657838 292.624696 
L 1112.212235 306.247154 
L 1113.321027 271.176288 
L 1113.875424 284.268173 
L 1114.42982 174.134512 
L 1114.984217 315.147513 
L 1115.538613 318.304422 
L 1116.09301 285.713984 
L 1116.647406 287.624046 
L 1117.201802 274.346461 
L 1117.756199 189.242574 
L 1118.310595 294.78678 
L 1118.864992 281.323494 
L 1119.419388 281.535723 
L 1119.973784 290.449347 
L 1120.528181 287.305703 
L 1121.082577 306.02166 
L 1121.636974 211.619485 
L 1122.19137 281.734688 
L 1122.745767 293.062418 
L 1123.300163 287.769954 
L 1123.854559 266.348075 
L 1124.963352 275.009677 
L 1124.963352 275.009677 
" clip-path="url(#pf4589f124f)" style="fill: none; stroke: #008080; stroke-width: 1.5; stroke-linecap: square"/>
   </g>
   <g id="patch_3">
    <path d="M 59.690625 356.477812 
L 59.690625 23.837812 
" style="fill: none; stroke: #000000; stroke-width: 0.8; stroke-linejoin: miter; stroke-linecap: square"/>
   </g>
   <g id="patch_4">
    <path d="M 1175.690625 356.477812 
L 1175.690625 23.837812 
" style="fill: none; stroke: #000000; stroke-width: 0.8; stroke-linejoin: miter; stroke-linecap: square"/>
   </g>
   <g id="patch_5">
    <path d="M 59.690625 356.477812 
L 1175.690625 356.477812 
" style="fill: none; stroke: #000000; stroke-width: 0.8; stroke-linejoin: miter; stroke-linecap: square"/>
   </g>
   <g id="patch_6">
    <path d="M 59.690625 23.837812 
L 1175.690625 23.837812 
" style="fill: none; stroke: #000000; stroke-width: 0.8; stroke-linejoin: miter; stroke-linecap: square"/>
   </g>
   <g id="text_13">
    <!-- Toronto Island Ferry Ticket Redemptions -->
    <g transform="translate(477.780313 17.837812) scale(0.14 -0.14)">
     <defs>
      <path id="DejaVuSans-72" d="M 2631 2963 
Q 2534 3019 2420 3045 
Q 2306 3072 2169 3072 
Q 1681 3072 1420 2755 
Q 1159 2438 1159 1844 
L 1159 0 
L 581 0 
L 581 3500 
L 1159 3500 
L 1159 2956 
Q 1341 3275 1631 3429 
Q 1922 3584 2338 3584 
Q 2397 3584 2469 3576 
Q 2541 3569 2628 3553 
L 2631 2963 
z
" transform="scale(0.015625)"/>
      <path id="DejaVuSans-49" d="M 628 4666 
L 1259 4666 
L 1259 0 
L 628 0 
L 628 4666 
z
" transform="scale(0.015625)"/>
      <path id="DejaVuSans-6c" d="M 603 4863 
L 1178 4863 
L 1178 0 
L 603 0 
L 603 4863 
z
" transform="scale(0.015625)"/>
      <path id="DejaVuSans-46" d="M 628 4666 
L 3309 4666 
L 3309 4134 
L 1259 4134 
L 1259 2759 
L 3109 2759 
L 3109 2228 
L 1259 2228 
L 1259 0 
L 628 0 
L 628 4666 
z
" transform="scale(0.015625)"/>
      <path id="DejaVuSans-79" d="M 2059 -325 
Q 1816 -950 1584 -1140 
Q 1353 -1331 966 -1331 
L 506 -1331 
L 506 -850 
L 844 -850 
Q 1081 -850 1212 -737 
Q 1344 -625 1503 -206 
L 1606 56 
L 191 3500 
L 800 3500 
L 1894 763 
L 2988 3500 
L 3597 3500 
L 2059 -325 
z
" transform="scale(0.015625)"/>
     </defs>
     <use xlink:href="#DejaVuSans-54"/>
     <use xlink:href="#DejaVuSans-6f" x="44.083984"/>
     <use xlink:href="#DejaVuSans-72" x="105.265625"/>
     <use xlink:href="#DejaVuSans-6f" x="144.128906"/>
     <use xlink:href="#DejaVuSans-6e" x="205.310547"/>
     <use xlink:href="#DejaVuSans-74" x="268.689453"/>
     <use xlink:href="#DejaVuSans-6f" x="307.898438"/>
     <use xlink:href="#DejaVuSans-20" x="369.080078"/>
     <use xlink:href="#DejaVuSans-49" x="400.867188"/>
     <use xlink:href="#DejaVuSans-73" x="430.359375"/>
     <use xlink:href="#DejaVuSans-6c" x="482.458984"/>
     <use xlink:href="#DejaVuSans-61" x="510.242188"/>
     <use xlink:href="#DejaVuSans-6e" x="571.521484"/>
     <use xlink:href="#DejaVuSans-64" x="634.900391"/>
     <use xlink:href="#DejaVuSans-20" x="698.376953"/>
     <use xlink:href="#DejaVuSans-46" x="730.164062"/>
     <use xlink:href="#DejaVuSans-65" x="782.183594"/>
     <use xlink:href="#DejaVuSans-72" x="843.707031"/>
     <use xlink:href="#DejaVuSans-72" x="883.070312"/>
     <use xlink:href="#DejaVuSans-79" x="924.183594"/>
     <use xlink:href="#DejaVuSans-20" x="983.363281"/>
     <use xlink:href="#DejaVuSans-54" x="1015.150391"/>
     <use xlink:href="#DejaVuSans-69" x="1073.109375"/>
     <use xlink:href="#DejaVuSans-63" x="1100.892578"/>
     <use xlink:href="#DejaVuSans-6b" x="1155.873047"/>
     <use xlink:href="#DejaVuSans-65" x="1210.158203"/>
     <use xlink:href="#DejaVuSans-74" x="1271.681641"/>
     <use xlink:href="#DejaVuSans-20" x="1310.890625"/>
     <use xlink:href="#DejaVuSans-52" x="1342.677734"/>
     <use xlink:href="#DejaVuSans-65" x="1407.660156"/>
     <use xlink:href="#DejaVuSans-64" x="1469.183594"/>
     <use xlink:href="#DejaVuSans-65" x="1532.660156"/>
     <use xlink:href="#DejaVuSans-6d" x="1594.183594"/>
     <use xlink:href="#DejaVuSans-70" x="1691.595703"/>
     <use xlink:href="#DejaVuSans-74" x="1755.072266"/>
     <use xlink:href="#DejaVuSans-69" x="1794.28125"/>
     <use xlink:href="#DejaVuSans-6f" x="1822.064453"/>
     <use xlink:href="#DejaVuSans-6e" x="1883.246094"/>
     <use xlink:href="#DejaVuSans-73" x="1946.625"/>
    </g>
   </g>
  </g>
  <g id="text_14">
   <!-- (Data from 2019-06-11 12:30:00 to 2024-06-14 17:00:00) -->
   <g style="fill: #808080" transform="translate(454.635938 399.677812) scale(0.1 -0.1)">
    <defs>
     <path id="DejaVuSans-28" d="M 1984 4856 
Q 1566 4138 1362 3434 
Q 1159 2731 1159 2009 
Q 1159 1288 1364 580 
Q 1569 -128 1984 -844 
L 1484 -844 
Q 1016 -109 783 600 
Q 550 1309 550 2009 
Q 550 2706 781 3412 
Q 1013 4119 1484 4856 
L 1984 4856 
z
" transform="scale(0.015625)"/>
     <path id="DejaVuSans-66" d="M 2375 4863 
L 2375 4384 
L 1825 4384 
Q 1516 4384 1395 4259 
Q 1275 4134 1275 3809 
L 1275 3500 
L 2222 3500 
L 2222 3053 
L 1275 3053 
L 1275 0 
L 697 0 
L 697 3053 
L 147 3053 
L 147 3500 
L 697 3500 
L 697 3744 
Q 697 4328 969 4595 
Q 1241 4863 1831 4863 
L 2375 4863 
z
" transform="scale(0.015625)"/>
     <path id="DejaVuSans-39" d="M 703 97 
L 703 672 
Q 941 559 1184 500 
Q 1428 441 1663 441 
Q 2288 441 2617 861 
Q 2947 1281 2994 2138 
Q 2813 1869 2534 1725 
Q 2256 1581 1919 1581 
Q 1219 1581 811 2004 
Q 403 2428 403 3163 
Q 403 3881 828 4315 
Q 1253 4750 1959 4750 
Q 2769 4750 3195 4129 
Q 3622 3509 3622 2328 
Q 3622 1225 3098 567 
Q 2575 -91 1691 -91 
Q 1453 -91 1209 -44 
Q 966 3 703 97 
z
M 1959 2075 
Q 2384 2075 2632 2365 
Q 2881 2656 2881 3163 
Q 2881 3666 2632 3958 
Q 2384 4250 1959 4250 
Q 1534 4250 1286 3958 
Q 1038 3666 1038 3163 
Q 1038 2656 1286 2365 
Q 1534 2075 1959 2075 
z
" transform="scale(0.015625)"/>
     <path id="DejaVuSans-2d" d="M 313 2009 
L 1997 2009 
L 1997 1497 
L 313 1497 
L 313 2009 
z
" transform="scale(0.015625)"/>
     <path id="DejaVuSans-36" d="M 2113 2584 
Q 1688 2584 1439 2293 
Q 1191 2003 1191 1497 
Q 1191 994 1439 701 
Q 1688 409 2113 409 
Q 2538 409 2786 701 
Q 3034 994 3034 1497 
Q 3034 2003 2786 2293 
Q 2538 2584 2113 2584 
z
M 3366 4563 
L 3366 3988 
Q 3128 4100 2886 4159 
Q 2644 4219 2406 4219 
Q 1781 4219 1451 3797 
Q 1122 3375 1075 2522 
Q 1259 2794 1537 2939 
Q 1816 3084 2150 3084 
Q 2853 3084 3261 2657 
Q 3669 2231 3669 1497 
Q 3669 778 3244 343 
Q 2819 -91 2113 -91 
Q 1303 -91 875 529 
Q 447 1150 447 2328 
Q 447 3434 972 4092 
Q 1497 4750 2381 4750 
Q 2619 4750 2861 4703 
Q 3103 4656 3366 4563 
z
" transform="scale(0.015625)"/>
     <path id="DejaVuSans-3a" d="M 750 794 
L 1409 794 
L 1409 0 
L 750 0 
L 750 794 
z
M 750 3309 
L 1409 3309 
L 1409 2516 
L 750 2516 
L 750 3309 
z
" transform="scale(0.015625)"/>
     <path id="DejaVuSans-37" d="M 525 4666 
L 3525 4666 
L 3525 4397 
L 1831 0 
L 1172 0 
L 2766 4134 
L 525 4134 
L 525 4666 
z
" transform="scale(0.015625)"/>
     <path id="DejaVuSans-29" d="M 513 4856 
L 1013 4856 
Q 1481 4119 1714 3412 
Q 1947 2706 1947 2009 
Q 1947 1309 1714 600 
Q 1481 -109 1013 -844 
L 513 -844 
Q 928 -128 1133 580 
Q 1338 1288 1338 2009 
Q 1338 2731 1133 3434 
Q 928 4138 513 4856 
z
" transform="scale(0.015625)"/>
    </defs>
    <use xlink:href="#DejaVuSans-28"/>
    <use xlink:href="#DejaVuSans-44" x="39.013672"/>
    <use xlink:href="#DejaVuSans-61" x="116.015625"/>
    <use xlink:href="#DejaVuSans-74" x="177.294922"/>
    <use xlink:href="#DejaVuSans-61" x="216.503906"/>
    <use xlink:href="#DejaVuSans-20" x="277.783203"/>
    <use xlink:href="#DejaVuSans-66" x="309.570312"/>
    <use xlink:href="#DejaVuSans-72" x="344.775391"/>
    <use xlink:href="#DejaVuSans-6f" x="383.638672"/>
    <use xlink:href="#DejaVuSans-6d" x="444.820312"/>
    <use xlink:href="#DejaVuSans-20" x="542.232422"/>
    <use xlink:href="#DejaVuSans-32" x="574.019531"/>
    <use xlink:href="#DejaVuSans-30" x="637.642578"/>
    <use xlink:href="#DejaVuSans-31" x="701.265625"/>
    <use xlink:href="#DejaVuSans-39" x="764.888672"/>
    <use xlink:href="#DejaVuSans-2d" x="828.511719"/>
    <use xlink:href="#DejaVuSans-30" x="864.595703"/>
    <use xlink:href="#DejaVuSans-36" x="928.21875"/>
    <use xlink:href="#DejaVuSans-2d" x="991.841797"/>
    <use xlink:href="#DejaVuSans-31" x="1027.925781"/>
    <use xlink:href="#DejaVuSans-31" x="1091.548828"/>
    <use xlink:href="#DejaVuSans-20" x="1155.171875"/>
    <use xlink:href="#DejaVuSans-31" x="1186.958984"/>
    <use xlink:href="#DejaVuSans-32" x="1250.582031"/>
    <use xlink:href="#DejaVuSans-3a" x="1314.205078"/>
    <use xlink:href="#DejaVuSans-33" x="1347.896484"/>
    <use xlink:href="#DejaVuSans-30" x="1411.519531"/>
    <use xlink:href="#DejaVuSans-3a" x="1475.142578"/>
    <use xlink:href="#DejaVuSans-30" x="1508.833984"/>
    <use xlink:href="#DejaVuSans-30" x="1572.457031"/>
    <use xlink:href="#DejaVuSans-20" x="1636.080078"/>
    <use xlink:href="#DejaVuSans-74" x="1667.867188"/>
    <use xlink:href="#DejaVuSans-6f" x="1707.076172"/>
    <use xlink:href="#DejaVuSans-20" x="1768.257812"/>
    <use xlink:href="#DejaVuSans-32" x="1800.044922"/>
    <use xlink:href="#DejaVuSans-30" x="1863.667969"/>
    <use xlink:href="#DejaVuSans-32" x="1927.291016"/>
    <use xlink:href="#DejaVuSans-34" x="1990.914062"/>
    <use xlink:href="#DejaVuSans-2d" x="2054.537109"/>
    <use xlink:href="#DejaVuSans-30" x="2090.621094"/>
    <use xlink:href="#DejaVuSans-36" x="2154.244141"/>
    <use xlink:href="#DejaVuSans-2d" x="2217.867188"/>
    <use xlink:href="#DejaVuSans-31" x="2253.951172"/>
    <use xlink:href="#DejaVuSans-34" x="2317.574219"/>
    <use xlink:href="#DejaVuSans-20" x="2381.197266"/>
    <use xlink:href="#DejaVuSans-31" x="2412.984375"/>
    <use xlink:href="#DejaVuSans-37" x="2476.607422"/>
    <use xlink:href="#DejaVuSans-3a" x="2540.230469"/>
    <use xlink:href="#DejaVuSans-30" x="2573.921875"/>
    <use xlink:href="#DejaVuSans-30" x="2637.544922"/>
    <use xlink:href="#DejaVuSans-3a" x="2701.167969"/>
    <use xlink:href="#DejaVuSans-30" x="2734.859375"/>
    <use xlink:href="#DejaVuSans-30" x="2798.482422"/>
    <use xlink:href="#DejaVuSans-29" x="2862.105469"/>
   </g>
  </g>
 </g>
 <defs>
  <clipPath id="pf4589f124f">
   <rect x="59.690625" y="23.837812" width="1116" height="332.64"/>
  </clipPath>
 </defs>
</svg>
