<?xml version="1.0" encoding="utf-8" standalone="no"?>
<!DOCTYPE svg PUBLIC "-//W3C//DTD SVG 1.1//EN"
  "http://www.w3.org/Graphics/SVG/1.1/DTD/svg11.dtd">
<svg xmlns:xlink="http://www.w3.org/1999/xlink" width="1182.890625pt" height="408.9575pt" viewBox="0 0 1182.890625 408.9575" xmlns="http://www.w3.org/2000/svg" version="1.1">
 <metadata>
  <rdf:RDF xmlns:dc="http://purl.org/dc/elements/1.1/" xmlns:cc="http://creativecommons.org/ns#" xmlns:rdf="http://www.w3.org/1999/02/22-rdf-syntax-ns#">
   <cc:Work>
    <dc:type rdf:resource="http://purl.org/dc/dcmitype/StillImage"/>
    <dc:date>2024-07-23T18:08:27.245656</dc:date>
    <dc:format>image/svg+xml</dc:format>
    <dc:creator>
     <cc:Agent>
      <dc:title>Matplotlib v3.8.4, https://matplotlib.org/</dc:title>
     </cc:Agent>
    </dc:creator>
   </cc:Work>
  </rdf:RDF>
 </metadata>
 <defs>
  <style type="text/css">*{stroke-linejoin: round; stroke-linecap: butt}</style>
 </defs>
 <g id="figure_1">
  <g id="patch_1">
   <path d="M 0 408.9575 
L 1182.890625 408.9575 
L 1182.890625 0 
L 0 0 
z
" style="fill: #ffffff"/>
  </g>
  <g id="axes_1">
   <g id="patch_2">
    <path d="M 59.690625 356.477812 
L 1175.690625 356.477812 
L 1175.690625 23.837812 
L 59.690625 23.837812 
z
" style="fill: #ffffff"/>
   </g>
   <g id="matplotlib.axis_1">
    <g id="xtick_1">
     <g id="line2d_1">
      <defs>
       <path id="m08c1c4087b" d="M 0 0 
L 0 3.5 
" style="stroke: #000000; stroke-width: 0.8"/>
      </defs>
      <g>
       <use xlink:href="#m08c1c4087b" x="176.83778" y="356.477812" style="stroke: #000000; stroke-width: 0.8"/>
      </g>
     </g>
     <g id="text_1">
      <!-- 2021-01 -->
      <g transform="translate(155.946374 371.07625) scale(0.1 -0.1)">
       <defs>
        <path id="DejaVuSans-32" d="M 1228 531 
L 3431 531 
L 3431 0 
L 469 0 
L 469 531 
Q 828 903 1448 1529 
Q 2069 2156 2228 2338 
Q 2531 2678 2651 2914 
Q 2772 3150 2772 3378 
Q 2772 3750 2511 3984 
Q 2250 4219 1831 4219 
Q 1534 4219 1204 4116 
Q 875 4013 500 3803 
L 500 4441 
Q 881 4594 1212 4672 
Q 1544 4750 1819 4750 
Q 2544 4750 2975 4387 
Q 3406 4025 3406 3419 
Q 3406 3131 3298 2873 
Q 3191 2616 2906 2266 
Q 2828 2175 2409 1742 
Q 1991 1309 1228 531 
z
" transform="scale(0.015625)"/>
        <path id="DejaVuSans-30" d="M 2034 4250 
Q 1547 4250 1301 3770 
Q 1056 3291 1056 2328 
Q 1056 1369 1301 889 
Q 1547 409 2034 409 
Q 2525 409 2770 889 
Q 3016 1369 3016 2328 
Q 3016 3291 2770 3770 
Q 2525 4250 2034 4250 
z
M 2034 4750 
Q 2819 4750 3233 4129 
Q 3647 3509 3647 2328 
Q 3647 1150 3233 529 
Q 2819 -91 2034 -91 
Q 1250 -91 836 529 
Q 422 1150 422 2328 
Q 422 3509 836 4129 
Q 1250 4750 2034 4750 
z
" transform="scale(0.015625)"/>
        <path id="DejaVuSans-31" d="M 794 531 
L 1825 531 
L 1825 4091 
L 703 3866 
L 703 4441 
L 1819 4666 
L 2450 4666 
L 2450 531 
L 3481 531 
L 3481 0 
L 794 0 
L 794 531 
z
" transform="scale(0.015625)"/>
        <path id="DejaVuSans-2d" d="M 313 2009 
L 1997 2009 
L 1997 1497 
L 313 1497 
L 313 2009 
z
" transform="scale(0.015625)"/>
       </defs>
       <use xlink:href="#DejaVuSans-32"/>
       <use xlink:href="#DejaVuSans-30" x="63.623047"/>
       <use xlink:href="#DejaVuSans-32" x="127.246094"/>
       <use xlink:href="#DejaVuSans-31" x="190.869141"/>
       <use xlink:href="#DejaVuSans-2d" x="254.492188"/>
       <use xlink:href="#DejaVuSans-30" x="290.576172"/>
       <use xlink:href="#DejaVuSans-31" x="354.199219"/>
      </g>
     </g>
    </g>
    <g id="xtick_2">
     <g id="line2d_2">
      <g>
       <use xlink:href="#m08c1c4087b" x="308.947656" y="356.477812" style="stroke: #000000; stroke-width: 0.8"/>
      </g>
     </g>
     <g id="text_2">
      <!-- 2021-07 -->
      <g transform="translate(288.056249 371.07625) scale(0.1 -0.1)">
       <defs>
        <path id="DejaVuSans-37" d="M 525 4666 
L 3525 4666 
L 3525 4397 
L 1831 0 
L 1172 0 
L 2766 4134 
L 525 4134 
L 525 4666 
z
" transform="scale(0.015625)"/>
       </defs>
       <use xlink:href="#DejaVuSans-32"/>
       <use xlink:href="#DejaVuSans-30" x="63.623047"/>
       <use xlink:href="#DejaVuSans-32" x="127.246094"/>
       <use xlink:href="#DejaVuSans-31" x="190.869141"/>
       <use xlink:href="#DejaVuSans-2d" x="254.492188"/>
       <use xlink:href="#DejaVuSans-30" x="290.576172"/>
       <use xlink:href="#DejaVuSans-37" x="354.199219"/>
      </g>
     </g>
    </g>
    <g id="xtick_3">
     <g id="line2d_3">
      <g>
       <use xlink:href="#m08c1c4087b" x="443.247198" y="356.477812" style="stroke: #000000; stroke-width: 0.8"/>
      </g>
     </g>
     <g id="text_3">
      <!-- 2022-01 -->
      <g transform="translate(422.355792 371.07625) scale(0.1 -0.1)">
       <use xlink:href="#DejaVuSans-32"/>
       <use xlink:href="#DejaVuSans-30" x="63.623047"/>
       <use xlink:href="#DejaVuSans-32" x="127.246094"/>
       <use xlink:href="#DejaVuSans-32" x="190.869141"/>
       <use xlink:href="#DejaVuSans-2d" x="254.492188"/>
       <use xlink:href="#DejaVuSans-30" x="290.576172"/>
       <use xlink:href="#DejaVuSans-31" x="354.199219"/>
      </g>
     </g>
    </g>
    <g id="xtick_4">
     <g id="line2d_4">
      <g>
       <use xlink:href="#m08c1c4087b" x="575.357074" y="356.477812" style="stroke: #000000; stroke-width: 0.8"/>
      </g>
     </g>
     <g id="text_4">
      <!-- 2022-07 -->
      <g transform="translate(554.465667 371.07625) scale(0.1 -0.1)">
       <use xlink:href="#DejaVuSans-32"/>
       <use xlink:href="#DejaVuSans-30" x="63.623047"/>
       <use xlink:href="#DejaVuSans-32" x="127.246094"/>
       <use xlink:href="#DejaVuSans-32" x="190.869141"/>
       <use xlink:href="#DejaVuSans-2d" x="254.492188"/>
       <use xlink:href="#DejaVuSans-30" x="290.576172"/>
       <use xlink:href="#DejaVuSans-37" x="354.199219"/>
      </g>
     </g>
    </g>
    <g id="xtick_5">
     <g id="line2d_5">
      <g>
       <use xlink:href="#m08c1c4087b" x="709.656616" y="356.477812" style="stroke: #000000; stroke-width: 0.8"/>
      </g>
     </g>
     <g id="text_5">
      <!-- 2023-01 -->
      <g transform="translate(688.76521 371.07625) scale(0.1 -0.1)">
       <defs>
        <path id="DejaVuSans-33" d="M 2597 2516 
Q 3050 2419 3304 2112 
Q 3559 1806 3559 1356 
Q 3559 666 3084 287 
Q 2609 -91 1734 -91 
Q 1441 -91 1130 -33 
Q 819 25 488 141 
L 488 750 
Q 750 597 1062 519 
Q 1375 441 1716 441 
Q 2309 441 2620 675 
Q 2931 909 2931 1356 
Q 2931 1769 2642 2001 
Q 2353 2234 1838 2234 
L 1294 2234 
L 1294 2753 
L 1863 2753 
Q 2328 2753 2575 2939 
Q 2822 3125 2822 3475 
Q 2822 3834 2567 4026 
Q 2313 4219 1838 4219 
Q 1578 4219 1281 4162 
Q 984 4106 628 3988 
L 628 4550 
Q 988 4650 1302 4700 
Q 1616 4750 1894 4750 
Q 2613 4750 3031 4423 
Q 3450 4097 3450 3541 
Q 3450 3153 3228 2886 
Q 3006 2619 2597 2516 
z
" transform="scale(0.015625)"/>
       </defs>
       <use xlink:href="#DejaVuSans-32"/>
       <use xlink:href="#DejaVuSans-30" x="63.623047"/>
       <use xlink:href="#DejaVuSans-32" x="127.246094"/>
       <use xlink:href="#DejaVuSans-33" x="190.869141"/>
       <use xlink:href="#DejaVuSans-2d" x="254.492188"/>
       <use xlink:href="#DejaVuSans-30" x="290.576172"/>
       <use xlink:href="#DejaVuSans-31" x="354.199219"/>
      </g>
     </g>
    </g>
    <g id="xtick_6">
     <g id="line2d_6">
      <g>
       <use xlink:href="#m08c1c4087b" x="841.766492" y="356.477812" style="stroke: #000000; stroke-width: 0.8"/>
      </g>
     </g>
     <g id="text_6">
      <!-- 2023-07 -->
      <g transform="translate(820.875085 371.07625) scale(0.1 -0.1)">
       <use xlink:href="#DejaVuSans-32"/>
       <use xlink:href="#DejaVuSans-30" x="63.623047"/>
       <use xlink:href="#DejaVuSans-32" x="127.246094"/>
       <use xlink:href="#DejaVuSans-33" x="190.869141"/>
       <use xlink:href="#DejaVuSans-2d" x="254.492188"/>
       <use xlink:href="#DejaVuSans-30" x="290.576172"/>
       <use xlink:href="#DejaVuSans-37" x="354.199219"/>
      </g>
     </g>
    </g>
    <g id="xtick_7">
     <g id="line2d_7">
      <g>
       <use xlink:href="#m08c1c4087b" x="976.066034" y="356.477812" style="stroke: #000000; stroke-width: 0.8"/>
      </g>
     </g>
     <g id="text_7">
      <!-- 2024-01 -->
      <g transform="translate(955.174628 371.07625) scale(0.1 -0.1)">
       <defs>
        <path id="DejaVuSans-34" d="M 2419 4116 
L 825 1625 
L 2419 1625 
L 2419 4116 
z
M 2253 4666 
L 3047 4666 
L 3047 1625 
L 3713 1625 
L 3713 1100 
L 3047 1100 
L 3047 0 
L 2419 0 
L 2419 1100 
L 313 1100 
L 313 1709 
L 2253 4666 
z
" transform="scale(0.015625)"/>
       </defs>
       <use xlink:href="#DejaVuSans-32"/>
       <use xlink:href="#DejaVuSans-30" x="63.623047"/>
       <use xlink:href="#DejaVuSans-32" x="127.246094"/>
       <use xlink:href="#DejaVuSans-34" x="190.869141"/>
       <use xlink:href="#DejaVuSans-2d" x="254.492188"/>
       <use xlink:href="#DejaVuSans-30" x="290.576172"/>
       <use xlink:href="#DejaVuSans-31" x="354.199219"/>
      </g>
     </g>
    </g>
    <g id="xtick_8">
     <g id="line2d_8">
      <g>
       <use xlink:href="#m08c1c4087b" x="1108.905798" y="356.477812" style="stroke: #000000; stroke-width: 0.8"/>
      </g>
     </g>
     <g id="text_8">
      <!-- 2024-07 -->
      <g transform="translate(1088.014392 371.07625) scale(0.1 -0.1)">
       <use xlink:href="#DejaVuSans-32"/>
       <use xlink:href="#DejaVuSans-30" x="63.623047"/>
       <use xlink:href="#DejaVuSans-32" x="127.246094"/>
       <use xlink:href="#DejaVuSans-34" x="190.869141"/>
       <use xlink:href="#DejaVuSans-2d" x="254.492188"/>
       <use xlink:href="#DejaVuSans-30" x="290.576172"/>
       <use xlink:href="#DejaVuSans-37" x="354.199219"/>
      </g>
     </g>
    </g>
    <g id="text_9">
     <!-- Date -->
     <g transform="translate(605.739844 384.754375) scale(0.1 -0.1)">
      <defs>
       <path id="DejaVuSans-44" d="M 1259 4147 
L 1259 519 
L 2022 519 
Q 2988 519 3436 956 
Q 3884 1394 3884 2338 
Q 3884 3275 3436 3711 
Q 2988 4147 2022 4147 
L 1259 4147 
z
M 628 4666 
L 1925 4666 
Q 3281 4666 3915 4102 
Q 4550 3538 4550 2338 
Q 4550 1131 3912 565 
Q 3275 0 1925 0 
L 628 0 
L 628 4666 
z
" transform="scale(0.015625)"/>
       <path id="DejaVuSans-61" d="M 2194 1759 
Q 1497 1759 1228 1600 
Q 959 1441 959 1056 
Q 959 750 1161 570 
Q 1363 391 1709 391 
Q 2188 391 2477 730 
Q 2766 1069 2766 1631 
L 2766 1759 
L 2194 1759 
z
M 3341 1997 
L 3341 0 
L 2766 0 
L 2766 531 
Q 2569 213 2275 61 
Q 1981 -91 1556 -91 
Q 1019 -91 701 211 
Q 384 513 384 1019 
Q 384 1609 779 1909 
Q 1175 2209 1959 2209 
L 2766 2209 
L 2766 2266 
Q 2766 2663 2505 2880 
Q 2244 3097 1772 3097 
Q 1472 3097 1187 3025 
Q 903 2953 641 2809 
L 641 3341 
Q 956 3463 1253 3523 
Q 1550 3584 1831 3584 
Q 2591 3584 2966 3190 
Q 3341 2797 3341 1997 
z
" transform="scale(0.015625)"/>
       <path id="DejaVuSans-74" d="M 1172 4494 
L 1172 3500 
L 2356 3500 
L 2356 3053 
L 1172 3053 
L 1172 1153 
Q 1172 725 1289 603 
Q 1406 481 1766 481 
L 2356 481 
L 2356 0 
L 1766 0 
Q 1100 0 847 248 
Q 594 497 594 1153 
L 594 3053 
L 172 3053 
L 172 3500 
L 594 3500 
L 594 4494 
L 1172 4494 
z
" transform="scale(0.015625)"/>
       <path id="DejaVuSans-65" d="M 3597 1894 
L 3597 1613 
L 953 1613 
Q 991 1019 1311 708 
Q 1631 397 2203 397 
Q 2534 397 2845 478 
Q 3156 559 3463 722 
L 3463 178 
Q 3153 47 2828 -22 
Q 2503 -91 2169 -91 
Q 1331 -91 842 396 
Q 353 884 353 1716 
Q 353 2575 817 3079 
Q 1281 3584 2069 3584 
Q 2775 3584 3186 3129 
Q 3597 2675 3597 1894 
z
M 3022 2063 
Q 3016 2534 2758 2815 
Q 2500 3097 2075 3097 
Q 1594 3097 1305 2825 
Q 1016 2553 972 2059 
L 3022 2063 
z
" transform="scale(0.015625)"/>
      </defs>
      <use xlink:href="#DejaVuSans-44"/>
      <use xlink:href="#DejaVuSans-61" x="77.001953"/>
      <use xlink:href="#DejaVuSans-74" x="138.28125"/>
      <use xlink:href="#DejaVuSans-65" x="177.490234"/>
     </g>
    </g>
   </g>
   <g id="matplotlib.axis_2">
    <g id="ytick_1">
     <g id="line2d_9">
      <defs>
       <path id="mc657db733e" d="M 0 0 
L -3.5 0 
" style="stroke: #000000; stroke-width: 0.8"/>
      </defs>
      <g>
       <use xlink:href="#mc657db733e" x="59.690625" y="341.357812" style="stroke: #000000; stroke-width: 0.8"/>
      </g>
     </g>
     <g id="text_10">
      <!-- 0 -->
      <g transform="translate(46.328125 345.157031) scale(0.1 -0.1)">
       <use xlink:href="#DejaVuSans-30"/>
      </g>
     </g>
    </g>
    <g id="ytick_2">
     <g id="line2d_10">
      <g>
       <use xlink:href="#mc657db733e" x="59.690625" y="275.036205" style="stroke: #000000; stroke-width: 0.8"/>
      </g>
     </g>
     <g id="text_11">
      <!-- 5000 -->
      <g transform="translate(27.240625 278.835424) scale(0.1 -0.1)">
       <defs>
        <path id="DejaVuSans-35" d="M 691 4666 
L 3169 4666 
L 3169 4134 
L 1269 4134 
L 1269 2991 
Q 1406 3038 1543 3061 
Q 1681 3084 1819 3084 
Q 2600 3084 3056 2656 
Q 3513 2228 3513 1497 
Q 3513 744 3044 326 
Q 2575 -91 1722 -91 
Q 1428 -91 1123 -41 
Q 819 9 494 109 
L 494 744 
Q 775 591 1075 516 
Q 1375 441 1709 441 
Q 2250 441 2565 725 
Q 2881 1009 2881 1497 
Q 2881 1984 2565 2268 
Q 2250 2553 1709 2553 
Q 1456 2553 1204 2497 
Q 953 2441 691 2322 
L 691 4666 
z
" transform="scale(0.015625)"/>
       </defs>
       <use xlink:href="#DejaVuSans-35"/>
       <use xlink:href="#DejaVuSans-30" x="63.623047"/>
       <use xlink:href="#DejaVuSans-30" x="127.246094"/>
       <use xlink:href="#DejaVuSans-30" x="190.869141"/>
      </g>
     </g>
    </g>
    <g id="ytick_3">
     <g id="line2d_11">
      <g>
       <use xlink:href="#mc657db733e" x="59.690625" y="208.714598" style="stroke: #000000; stroke-width: 0.8"/>
      </g>
     </g>
     <g id="text_12">
      <!-- 10000 -->
      <g transform="translate(20.878125 212.513817) scale(0.1 -0.1)">
       <use xlink:href="#DejaVuSans-31"/>
       <use xlink:href="#DejaVuSans-30" x="63.623047"/>
       <use xlink:href="#DejaVuSans-30" x="127.246094"/>
       <use xlink:href="#DejaVuSans-30" x="190.869141"/>
       <use xlink:href="#DejaVuSans-30" x="254.492188"/>
      </g>
     </g>
    </g>
    <g id="ytick_4">
     <g id="line2d_12">
      <g>
       <use xlink:href="#mc657db733e" x="59.690625" y="142.392991" style="stroke: #000000; stroke-width: 0.8"/>
      </g>
     </g>
     <g id="text_13">
      <!-- 15000 -->
      <g transform="translate(20.878125 146.19221) scale(0.1 -0.1)">
       <use xlink:href="#DejaVuSans-31"/>
       <use xlink:href="#DejaVuSans-35" x="63.623047"/>
       <use xlink:href="#DejaVuSans-30" x="127.246094"/>
       <use xlink:href="#DejaVuSans-30" x="190.869141"/>
       <use xlink:href="#DejaVuSans-30" x="254.492188"/>
      </g>
     </g>
    </g>
    <g id="ytick_5">
     <g id="line2d_13">
      <g>
       <use xlink:href="#mc657db733e" x="59.690625" y="76.071384" style="stroke: #000000; stroke-width: 0.8"/>
      </g>
     </g>
     <g id="text_14">
      <!-- 20000 -->
      <g transform="translate(20.878125 79.870603) scale(0.1 -0.1)">
       <use xlink:href="#DejaVuSans-32"/>
       <use xlink:href="#DejaVuSans-30" x="63.623047"/>
       <use xlink:href="#DejaVuSans-30" x="127.246094"/>
       <use xlink:href="#DejaVuSans-30" x="190.869141"/>
       <use xlink:href="#DejaVuSans-30" x="254.492188"/>
      </g>
     </g>
    </g>
    <g id="text_15">
     <!-- Ticket Redemptions -->
     <g transform="translate(14.798438 239.336719) rotate(-90) scale(0.1 -0.1)">
      <defs>
       <path id="DejaVuSans-54" d="M -19 4666 
L 3928 4666 
L 3928 4134 
L 2272 4134 
L 2272 0 
L 1638 0 
L 1638 4134 
L -19 4134 
L -19 4666 
z
" transform="scale(0.015625)"/>
       <path id="DejaVuSans-69" d="M 603 3500 
L 1178 3500 
L 1178 0 
L 603 0 
L 603 3500 
z
M 603 4863 
L 1178 4863 
L 1178 4134 
L 603 4134 
L 603 4863 
z
" transform="scale(0.015625)"/>
       <path id="DejaVuSans-63" d="M 3122 3366 
L 3122 2828 
Q 2878 2963 2633 3030 
Q 2388 3097 2138 3097 
Q 1578 3097 1268 2742 
Q 959 2388 959 1747 
Q 959 1106 1268 751 
Q 1578 397 2138 397 
Q 2388 397 2633 464 
Q 2878 531 3122 666 
L 3122 134 
Q 2881 22 2623 -34 
Q 2366 -91 2075 -91 
Q 1284 -91 818 406 
Q 353 903 353 1747 
Q 353 2603 823 3093 
Q 1294 3584 2113 3584 
Q 2378 3584 2631 3529 
Q 2884 3475 3122 3366 
z
" transform="scale(0.015625)"/>
       <path id="DejaVuSans-6b" d="M 581 4863 
L 1159 4863 
L 1159 1991 
L 2875 3500 
L 3609 3500 
L 1753 1863 
L 3688 0 
L 2938 0 
L 1159 1709 
L 1159 0 
L 581 0 
L 581 4863 
z
" transform="scale(0.015625)"/>
       <path id="DejaVuSans-20" transform="scale(0.015625)"/>
       <path id="DejaVuSans-52" d="M 2841 2188 
Q 3044 2119 3236 1894 
Q 3428 1669 3622 1275 
L 4263 0 
L 3584 0 
L 2988 1197 
Q 2756 1666 2539 1819 
Q 2322 1972 1947 1972 
L 1259 1972 
L 1259 0 
L 628 0 
L 628 4666 
L 2053 4666 
Q 2853 4666 3247 4331 
Q 3641 3997 3641 3322 
Q 3641 2881 3436 2590 
Q 3231 2300 2841 2188 
z
M 1259 4147 
L 1259 2491 
L 2053 2491 
Q 2509 2491 2742 2702 
Q 2975 2913 2975 3322 
Q 2975 3731 2742 3939 
Q 2509 4147 2053 4147 
L 1259 4147 
z
" transform="scale(0.015625)"/>
       <path id="DejaVuSans-64" d="M 2906 2969 
L 2906 4863 
L 3481 4863 
L 3481 0 
L 2906 0 
L 2906 525 
Q 2725 213 2448 61 
Q 2172 -91 1784 -91 
Q 1150 -91 751 415 
Q 353 922 353 1747 
Q 353 2572 751 3078 
Q 1150 3584 1784 3584 
Q 2172 3584 2448 3432 
Q 2725 3281 2906 2969 
z
M 947 1747 
Q 947 1113 1208 752 
Q 1469 391 1925 391 
Q 2381 391 2643 752 
Q 2906 1113 2906 1747 
Q 2906 2381 2643 2742 
Q 2381 3103 1925 3103 
Q 1469 3103 1208 2742 
Q 947 2381 947 1747 
z
" transform="scale(0.015625)"/>
       <path id="DejaVuSans-6d" d="M 3328 2828 
Q 3544 3216 3844 3400 
Q 4144 3584 4550 3584 
Q 5097 3584 5394 3201 
Q 5691 2819 5691 2113 
L 5691 0 
L 5113 0 
L 5113 2094 
Q 5113 2597 4934 2840 
Q 4756 3084 4391 3084 
Q 3944 3084 3684 2787 
Q 3425 2491 3425 1978 
L 3425 0 
L 2847 0 
L 2847 2094 
Q 2847 2600 2669 2842 
Q 2491 3084 2119 3084 
Q 1678 3084 1418 2786 
Q 1159 2488 1159 1978 
L 1159 0 
L 581 0 
L 581 3500 
L 1159 3500 
L 1159 2956 
Q 1356 3278 1631 3431 
Q 1906 3584 2284 3584 
Q 2666 3584 2933 3390 
Q 3200 3197 3328 2828 
z
" transform="scale(0.015625)"/>
       <path id="DejaVuSans-70" d="M 1159 525 
L 1159 -1331 
L 581 -1331 
L 581 3500 
L 1159 3500 
L 1159 2969 
Q 1341 3281 1617 3432 
Q 1894 3584 2278 3584 
Q 2916 3584 3314 3078 
Q 3713 2572 3713 1747 
Q 3713 922 3314 415 
Q 2916 -91 2278 -91 
Q 1894 -91 1617 61 
Q 1341 213 1159 525 
z
M 3116 1747 
Q 3116 2381 2855 2742 
Q 2594 3103 2138 3103 
Q 1681 3103 1420 2742 
Q 1159 2381 1159 1747 
Q 1159 1113 1420 752 
Q 1681 391 2138 391 
Q 2594 391 2855 752 
Q 3116 1113 3116 1747 
z
" transform="scale(0.015625)"/>
       <path id="DejaVuSans-6f" d="M 1959 3097 
Q 1497 3097 1228 2736 
Q 959 2375 959 1747 
Q 959 1119 1226 758 
Q 1494 397 1959 397 
Q 2419 397 2687 759 
Q 2956 1122 2956 1747 
Q 2956 2369 2687 2733 
Q 2419 3097 1959 3097 
z
M 1959 3584 
Q 2709 3584 3137 3096 
Q 3566 2609 3566 1747 
Q 3566 888 3137 398 
Q 2709 -91 1959 -91 
Q 1206 -91 779 398 
Q 353 888 353 1747 
Q 353 2609 779 3096 
Q 1206 3584 1959 3584 
z
" transform="scale(0.015625)"/>
       <path id="DejaVuSans-6e" d="M 3513 2113 
L 3513 0 
L 2938 0 
L 2938 2094 
Q 2938 2591 2744 2837 
Q 2550 3084 2163 3084 
Q 1697 3084 1428 2787 
Q 1159 2491 1159 1978 
L 1159 0 
L 581 0 
L 581 3500 
L 1159 3500 
L 1159 2956 
Q 1366 3272 1645 3428 
Q 1925 3584 2291 3584 
Q 2894 3584 3203 3211 
Q 3513 2838 3513 2113 
z
" transform="scale(0.015625)"/>
       <path id="DejaVuSans-73" d="M 2834 3397 
L 2834 2853 
Q 2591 2978 2328 3040 
Q 2066 3103 1784 3103 
Q 1356 3103 1142 2972 
Q 928 2841 928 2578 
Q 928 2378 1081 2264 
Q 1234 2150 1697 2047 
L 1894 2003 
Q 2506 1872 2764 1633 
Q 3022 1394 3022 966 
Q 3022 478 2636 193 
Q 2250 -91 1575 -91 
Q 1294 -91 989 -36 
Q 684 19 347 128 
L 347 722 
Q 666 556 975 473 
Q 1284 391 1588 391 
Q 1994 391 2212 530 
Q 2431 669 2431 922 
Q 2431 1156 2273 1281 
Q 2116 1406 1581 1522 
L 1381 1569 
Q 847 1681 609 1914 
Q 372 2147 372 2553 
Q 372 3047 722 3315 
Q 1072 3584 1716 3584 
Q 2034 3584 2315 3537 
Q 2597 3491 2834 3397 
z
" transform="scale(0.015625)"/>
      </defs>
      <use xlink:href="#DejaVuSans-54"/>
      <use xlink:href="#DejaVuSans-69" x="57.958984"/>
      <use xlink:href="#DejaVuSans-63" x="85.742188"/>
      <use xlink:href="#DejaVuSans-6b" x="140.722656"/>
      <use xlink:href="#DejaVuSans-65" x="195.007812"/>
      <use xlink:href="#DejaVuSans-74" x="256.53125"/>
      <use xlink:href="#DejaVuSans-20" x="295.740234"/>
      <use xlink:href="#DejaVuSans-52" x="327.527344"/>
      <use xlink:href="#DejaVuSans-65" x="392.509766"/>
      <use xlink:href="#DejaVuSans-64" x="454.033203"/>
      <use xlink:href="#DejaVuSans-65" x="517.509766"/>
      <use xlink:href="#DejaVuSans-6d" x="579.033203"/>
      <use xlink:href="#DejaVuSans-70" x="676.445312"/>
      <use xlink:href="#DejaVuSans-74" x="739.921875"/>
      <use xlink:href="#DejaVuSans-69" x="779.130859"/>
      <use xlink:href="#DejaVuSans-6f" x="806.914062"/>
      <use xlink:href="#DejaVuSans-6e" x="868.095703"/>
      <use xlink:href="#DejaVuSans-73" x="931.474609"/>
     </g>
    </g>
   </g>
   <g id="line2d_14">
    <path d="M 110.417898 339.925266 
L 111.147787 324.49886 
L 111.877675 336.662243 
L 112.607564 330.985113 
L 113.337453 330.441276 
L 114.067342 334.022643 
L 114.797231 331.913616 
L 115.527119 328.929143 
L 116.257008 319.630854 
L 116.986897 326.873173 
L 117.716786 331.210607 
L 118.446675 329.38013 
L 119.176564 330.109668 
L 119.906452 335.05726 
L 120.636341 331.608536 
L 121.36623 325.029433 
L 122.096119 334.208343 
L 122.826008 334.725652 
L 123.555896 333.39922 
L 124.285785 334.195079 
L 125.015674 334.407308 
L 125.745563 325.533477 
L 126.475452 330.75962 
L 127.205341 334.248136 
L 127.935229 334.221608 
L 128.665118 334.606273 
L 129.395007 331.356514 
L 130.124896 334.301193 
L 130.854785 333.041083 
L 131.584673 331.4361 
L 132.314562 338.744741 
L 133.044451 335.05726 
L 133.77434 334.500158 
L 134.504229 330.75962 
L 135.234117 332.537039 
L 135.964006 327.470068 
L 136.693895 323.212221 
L 138.153673 326.515037 
L 138.883562 323.106106 
L 139.61345 328.690386 
L 140.343339 332.152373 
L 141.073228 332.802325 
L 141.803117 331.913616 
L 142.533006 339.965059 
L 143.262894 335.362339 
L 143.992783 334.526687 
L 145.452561 333.810414 
L 146.18245 332.444188 
L 146.912339 335.654154 
L 147.642227 339.726301 
L 148.372116 335.229696 
L 149.102005 334.831766 
L 149.831894 335.070524 
L 150.561783 334.367515 
L 151.291671 334.181815 
L 152.02156 335.667419 
L 152.751449 335.455189 
L 153.481338 335.813326 
L 154.211227 337.962146 
L 154.941116 334.977674 
L 155.671004 334.301193 
L 156.400893 335.070524 
L 157.130782 336.861208 
L 157.860671 338.333547 
L 158.59056 334.818502 
L 159.320448 334.632802 
L 160.050337 335.083788 
L 160.780226 334.128757 
L 161.510115 333.545127 
L 162.240004 339.010028 
L 162.969892 338.108054 
L 163.699781 334.990938 
L 164.42967 334.248136 
L 165.159559 335.282753 
L 165.889448 334.394044 
L 166.619337 333.704299 
L 167.349225 337.710124 
L 168.079114 338.890649 
L 168.809003 337.351987 
L 169.538892 336.794886 
L 170.268781 335.508247 
L 170.998669 338.174375 
L 171.728558 339.527336 
L 172.458447 338.333547 
L 173.188336 337.444838 
L 173.918225 338.86412 
L 174.648114 336.582657 
L 175.378002 338.333547 
L 176.107891 336.343899 
L 176.83778 338.625362 
L 177.567669 336.755093 
L 178.297558 339.235521 
L 179.027446 338.37334 
L 179.757335 338.161111 
L 181.217113 337.444838 
L 181.947002 337.564217 
L 182.676891 334.65933 
L 183.406779 337.471366 
L 184.136668 338.015203 
L 184.866557 338.001939 
L 185.596446 337.564217 
L 186.326335 338.37334 
L 187.056223 338.651891 
L 187.786112 337.259137 
L 188.516001 339.195728 
L 189.24589 338.67842 
L 189.975779 338.426397 
L 190.705668 338.346812 
L 191.435556 338.054996 
L 192.165445 338.161111 
L 192.895334 337.139758 
L 193.625223 338.638627 
L 194.355112 338.147847 
L 195.085 339.023292 
L 195.814889 338.028468 
L 196.544778 338.293754 
L 197.274667 337.975411 
L 198.004556 334.433837 
L 198.734444 338.081525 
L 199.464333 338.28049 
L 200.194222 337.816239 
L 200.924111 336.091877 
L 201.654 337.338723 
L 202.383889 338.121318 
L 203.113777 335.110317 
L 203.843666 335.428661 
L 204.573555 337.60401 
L 206.763221 336.755093 
L 207.49311 337.099965 
L 208.222999 333.969585 
L 208.952888 329.618888 
L 209.682777 332.338074 
L 210.412666 338.452926 
L 211.142554 334.380779 
L 211.872443 335.959234 
L 212.602332 335.707212 
L 213.332221 336.648978 
L 214.06211 341.357812 
L 214.791998 341.357812 
L 215.521887 340.535425 
L 216.251776 336.755093 
L 216.981665 336.052084 
L 217.711554 335.176639 
L 218.441443 332.961497 
L 219.171331 338.386604 
L 219.90122 337.365252 
L 220.631109 336.794886 
L 221.360998 334.765445 
L 222.090887 336.091877 
L 222.820775 336.03882 
L 223.550664 334.75218 
L 224.280553 332.736004 
L 225.010442 336.091877 
L 225.740331 334.274665 
L 226.47022 333.836942 
L 227.200108 335.892912 
L 227.929997 333.664506 
L 228.659886 329.857646 
L 229.389775 336.423485 
L 230.119664 336.556128 
L 230.849552 336.980586 
L 231.579441 335.627626 
L 232.30933 337.060172 
L 233.039219 335.269489 
L 233.769108 317.362655 
L 234.498996 321.978639 
L 235.228885 332.90844 
L 235.958774 334.526687 
L 236.688663 335.747005 
L 237.418552 332.444188 
L 238.148441 336.675507 
L 238.878329 330.706562 
L 239.608218 338.77127 
L 240.338107 335.972498 
L 241.067996 329.512773 
L 241.797885 336.343899 
L 242.527773 336.144934 
L 243.257662 329.923967 
L 243.987551 331.83403 
L 244.71744 319.31251 
L 245.447329 334.181815 
L 246.177218 335.256225 
L 246.907106 333.98285 
L 247.636995 333.319634 
L 248.366884 335.693947 
L 249.096773 318.927845 
L 249.826662 339.421222 
L 250.55655 337.909089 
L 251.286439 335.667419 
L 252.016328 331.714651 
L 252.746217 337.179551 
L 253.476106 335.800062 
L 254.205995 335.932705 
L 254.935883 334.858295 
L 255.665772 336.847943 
L 256.395661 337.378516 
L 257.12555 338.479455 
L 257.855439 337.657067 
L 258.585327 331.131021 
L 259.315216 327.244574 
L 260.045105 334.314458 
L 260.774994 336.383692 
L 261.504883 336.595921 
L 262.234772 337.763181 
L 262.96466 337.537688 
L 263.694549 336.728564 
L 264.424438 329.977025 
L 265.154327 335.54804 
L 265.884216 337.511159 
L 266.614104 337.550952 
L 267.343993 336.211256 
L 268.073882 333.571656 
L 268.803771 336.277577 
L 269.53366 325.75897 
L 270.263548 329.804589 
L 270.993437 335.892912 
L 271.723326 336.078613 
L 272.453215 329.897439 
L 273.183104 327.523125 
L 273.912993 325.75897 
L 274.642881 309.682613 
L 275.37277 306.485911 
L 276.102659 328.902615 
L 276.832548 324.631503 
L 277.562437 324.49886 
L 278.292325 327.32416 
L 279.022214 309.351005 
L 279.752103 309.762199 
L 280.481992 263.562567 
L 281.211881 263.124845 
L 281.94177 321.036872 
L 282.671658 332.563567 
L 283.401547 320.665471 
L 284.131436 337.086701 
L 284.861325 293.831749 
L 285.591214 283.114177 
L 286.321102 317.773849 
L 287.050991 318.874788 
L 287.78088 321.010343 
L 288.510769 333.027819 
L 289.240658 316.699439 
L 289.970547 264.292105 
L 290.700435 256.57227 
L 291.430324 316.274981 
L 292.160213 333.09414 
L 293.619991 312.149777 
L 294.349879 308.873489 
L 295.079768 263.11158 
L 295.809657 273.033293 
L 296.539546 330.162725 
L 297.269435 317.933021 
L 297.999323 314.497562 
L 298.729212 312.560971 
L 299.459101 331.635065 
L 300.18899 252.075665 
L 300.918879 257.567094 
L 301.648768 326.753795 
L 302.378656 322.416361 
L 303.108545 312.28242 
L 303.838434 304.390149 
L 304.568323 318.795202 
L 305.298212 313.75476 
L 306.0281 255.816204 
L 306.757989 310.942723 
L 307.487878 327.708826 
L 308.217767 318.065664 
L 308.947656 263.005466 
L 309.677545 307.865401 
L 310.407433 237.392061 
L 311.137322 244.369094 
L 311.867211 294.322529 
L 312.5971 304.257505 
L 314.056877 331.847294 
L 314.786766 311.154953 
L 315.516655 235.667699 
L 316.246544 302.201536 
L 316.976433 311.446768 
L 317.706322 317.16369 
L 318.43621 287.823011 
L 319.166099 292.969568 
L 320.625877 305.942074 
L 321.355766 239.050101 
L 322.085654 278.551251 
L 322.815543 298.328354 
L 323.545432 256.903878 
L 324.275321 277.29114 
L 325.00521 251.438978 
L 325.735099 276.176937 
L 326.464987 197.691947 
L 327.194876 264.013554 
L 327.924765 318.556444 
L 328.654654 244.820081 
L 329.384543 319.71044 
L 330.114431 229.605904 
L 330.84432 208.900299 
L 331.574209 281.641837 
L 332.304098 151.532108 
L 333.033987 258.654768 
L 333.763875 244.820081 
L 334.493764 236.675788 
L 335.223653 247.48621 
L 335.953542 255.98864 
L 336.683431 190.834293 
L 337.41332 260.949496 
L 338.143208 314.550619 
L 339.602986 271.295667 
L 340.332875 284.069208 
L 341.062764 164.70358 
L 341.792652 169.942987 
L 342.522541 243.86505 
L 343.25243 294.87963 
L 343.982319 288.724985 
L 344.712208 268.231608 
L 345.442097 235.707492 
L 346.171985 169.054277 
L 347.631763 255.855997 
L 348.361652 222.443171 
L 349.091541 287.159795 
L 349.821429 274.532161 
L 350.551318 237.856312 
L 351.281207 183.286894 
L 352.011096 257.089578 
L 352.740985 270.221257 
L 353.470874 253.53474 
L 354.200762 257.381394 
L 354.930651 247.207659 
L 355.66054 233.518879 
L 356.390429 147.658927 
L 357.120318 155.445083 
L 357.850206 196.829766 
L 358.580095 275.102527 
L 359.309984 315.10772 
L 360.039873 325.838556 
L 360.769762 305.690052 
L 361.499651 253.83982 
L 362.229539 310.345829 
L 362.959428 319.020695 
L 363.689317 324.856997 
L 364.419206 323.384657 
L 365.149095 314.815905 
L 365.878983 302.984131 
L 366.608872 248.520827 
L 367.338761 260.127108 
L 368.06865 311.261067 
L 368.798539 324.936583 
L 369.528427 334.022643 
L 370.258316 326.979288 
L 370.988205 318.224836 
L 371.718094 315.054663 
L 372.447983 294.043978 
L 373.177872 324.644767 
L 373.90776 319.909405 
L 374.637649 318.397272 
L 376.097427 313.94046 
L 376.827316 272.078262 
L 377.557204 332.192166 
L 378.287093 331.276928 
L 379.016982 326.541565 
L 379.746871 324.697825 
L 380.47676 324.578446 
L 381.206649 324.856997 
L 381.936537 326.939495 
L 382.666426 289.454523 
L 383.396315 278.378814 
L 384.126204 321.540916 
L 384.856093 315.094456 
L 385.585981 321.580709 
L 386.31587 329.300544 
L 387.045759 325.851821 
L 387.775648 317.548356 
L 388.505537 326.24975 
L 389.235426 316.885139 
L 390.695203 332.006466 
L 391.425092 325.732442 
L 392.154981 318.317686 
L 392.88487 308.223538 
L 393.614758 334.049171 
L 394.344647 332.921704 
L 395.074536 317.65447 
L 395.804425 325.997728 
L 396.534314 329.751531 
L 397.264203 334.911352 
L 397.994091 318.423801 
L 398.72398 326.926231 
L 399.453869 327.907791 
L 400.183758 330.401483 
L 400.913647 330.388219 
L 401.643535 325.08249 
L 402.373424 316.076016 
L 403.103313 312.096719 
L 403.833202 322.058225 
L 404.563091 329.77806 
L 405.292979 326.568094 
L 406.022868 325.307984 
L 406.752757 323.61015 
L 407.482646 323.291807 
L 408.212535 336.821415 
L 408.942424 331.117756 
L 409.672312 330.428012 
L 410.402201 333.147198 
L 411.13209 332.404396 
L 411.861979 330.560655 
L 412.591868 329.831117 
L 413.321756 334.951145 
L 414.051645 332.629889 
L 414.781534 331.754444 
L 415.511423 330.189254 
L 416.241312 332.868647 
L 416.971201 331.117756 
L 417.701089 330.520862 
L 418.430978 338.121318 
L 419.160867 333.439013 
L 419.890756 333.332898 
L 420.620645 332.762532 
L 421.350533 332.842118 
L 422.080422 331.873823 
L 422.810311 331.92688 
L 423.5402 337.577481 
L 424.270089 333.836942 
L 424.999978 332.669682 
L 425.729866 333.757356 
L 426.459755 333.439013 
L 427.189644 332.629889 
L 427.919533 334.977674 
L 428.649422 332.205431 
L 429.37931 331.595272 
L 430.109199 332.086052 
L 430.839088 334.102229 
L 431.568977 332.90844 
L 432.298866 332.338074 
L 433.028754 337.139758 
L 433.758643 334.035907 
L 434.488532 334.924617 
L 435.218421 334.181815 
L 435.94831 335.64089 
L 436.678199 335.24296 
L 437.408087 336.901 
L 438.137976 335.110317 
L 438.867865 331.767708 
L 439.597754 337.617274 
L 440.327643 332.51051 
L 441.057531 333.717563 
L 441.78742 331.714651 
L 442.517309 331.873823 
L 443.247198 334.685859 
L 443.977087 336.781622 
L 444.706976 334.301193 
L 445.436864 335.05726 
L 446.166753 338.37334 
L 446.896642 336.609185 
L 447.626531 336.463278 
L 448.35642 334.155286 
L 449.086308 337.20608 
L 449.816197 338.386604 
L 450.546086 338.081525 
L 451.275975 336.13167 
L 452.005864 336.330635 
L 452.735753 335.985762 
L 453.465641 336.03882 
L 454.19553 327.191517 
L 454.925419 339.646715 
L 455.655308 337.338723 
L 456.385197 334.181815 
L 457.115085 335.136846 
L 457.844974 334.234872 
L 458.574863 330.573919 
L 459.304752 331.873823 
L 460.034641 335.070524 
L 460.76453 333.863471 
L 462.224307 334.447101 
L 462.954196 332.974761 
L 463.684085 326.196693 
L 464.413974 329.207694 
L 465.143862 335.017467 
L 465.873751 332.258488 
L 466.60364 334.858295 
L 467.333529 335.136846 
L 468.063418 333.823678 
L 468.793306 330.613712 
L 469.523195 328.756707 
L 470.253084 332.921704 
L 470.982973 333.850207 
L 471.712862 332.895175 
L 472.442751 336.542864 
L 473.172639 341.357812 
L 473.902528 341.357812 
L 474.632417 340.203817 
L 475.362306 337.325459 
L 476.092195 333.850207 
L 476.822083 332.775797 
L 477.551972 335.468454 
L 478.281861 336.489807 
L 479.01175 335.587833 
L 479.741639 333.107405 
L 480.471528 328.12002 
L 481.201416 334.208343 
L 481.931305 332.311545 
L 482.661194 331.727915 
L 483.391083 333.903264 
L 484.120972 333.00129 
L 484.85086 336.22452 
L 486.310638 332.271752 
L 487.770416 332.165638 
L 488.500305 331.303457 
L 489.230193 332.298281 
L 489.960082 321.779674 
L 490.689971 334.911352 
L 491.41986 331.582008 
L 492.149749 331.157549 
L 492.879637 331.223871 
L 493.609526 334.088964 
L 494.339415 334.765445 
L 495.069304 337.29893 
L 495.799193 332.351338 
L 496.529082 336.635714 
L 497.25897 334.049171 
L 497.988859 320.254277 
L 499.448637 335.123581 
L 500.178526 323.238749 
L 500.908414 328.027169 
L 501.638303 330.428012 
L 502.368192 334.778709 
L 503.098081 330.905527 
L 503.82797 331.648329 
L 504.557858 331.290193 
L 505.287747 337.033644 
L 506.017636 333.691035 
L 506.747525 329.671945 
L 507.477414 334.367515 
L 508.207303 329.884174 
L 508.937191 334.791973 
L 509.66708 320.10837 
L 510.396969 333.558391 
L 511.126858 329.274016 
L 511.856747 330.467805 
L 512.586635 332.338074 
L 513.316524 328.88935 
L 514.046413 329.96376 
L 514.776302 329.738267 
L 515.506191 320.731793 
L 516.23608 328.982201 
L 516.965968 313.927196 
L 517.695857 328.730178 
L 518.425746 325.095754 
L 519.155635 316.434153 
L 519.885524 302.493351 
L 520.615412 301.312826 
L 521.345301 331.011642 
L 522.07519 330.414747 
L 522.805079 318.622766 
L 523.534968 329.406659 
L 524.264857 310.677437 
L 524.994745 328.6108 
L 525.724634 284.002887 
L 526.454523 328.88935 
L 527.184412 323.703001 
L 527.914301 327.350689 
L 529.374078 311.194746 
L 530.103967 286.164971 
L 530.833856 332.60336 
L 531.563745 323.238749 
L 532.293634 328.066962 
L 533.023522 316.97799 
L 533.753411 310.279507 
L 534.4833 317.813642 
L 535.213189 276.21673 
L 535.943078 256.890614 
L 536.672966 313.529266 
L 537.402855 316.235188 
L 538.862633 301.869928 
L 539.592522 294.720458 
L 540.32241 203.329284 
L 541.052299 248.189219 
L 541.782188 327.337425 
L 542.512077 314.33839 
L 543.241966 313.688438 
L 543.971855 311.181481 
L 544.701743 298.248768 
L 545.431632 270.221257 
L 546.161521 266.016467 
L 546.89141 182.212484 
L 547.621299 308.157216 
L 548.351187 313.675174 
L 549.081076 313.423152 
L 549.810965 322.575533 
L 550.540854 204.841416 
L 551.270743 200.132582 
L 552.000632 285.316054 
L 552.73052 287.504667 
L 553.460409 324.910054 
L 554.190298 305.995132 
L 554.920187 272.966971 
L 555.650076 165.525968 
L 556.379964 215.824274 
L 557.109853 311.035574 
L 557.839742 325.984464 
L 558.569631 286.47005 
L 559.29952 308.555146 
L 560.029409 259.662857 
L 560.759297 236.768638 
L 561.489186 296.219327 
L 562.219075 271.322195 
L 562.948964 278.697158 
L 563.678853 296.35197 
L 564.408741 299.455821 
L 565.13863 253.640855 
L 565.868519 121.037434 
L 566.598408 86.152268 
L 567.328297 289.812659 
L 568.058185 259.21187 
L 568.788074 281.323494 
L 569.517963 253.123546 
L 570.247852 230.919072 
L 570.977741 100.650171 
L 571.70763 254.569357 
L 572.437518 250.457418 
L 573.167407 251.160427 
L 573.897296 301.007747 
L 574.627185 234.221888 
L 575.357074 145.868243 
L 576.086962 77.437609 
L 576.816851 113.264541 
L 578.276629 309.722406 
L 579.006518 233.174007 
L 579.736407 241.198921 
L 580.466295 243.559971 
L 581.196184 115.081753 
L 581.926073 105.783464 
L 582.655962 224.857277 
L 583.385851 262.819765 
L 584.115739 274.346461 
L 584.845628 215.373288 
L 585.575517 209.006413 
L 586.305406 38.957812 
L 587.035295 108.568971 
L 587.765184 296.948864 
L 588.495072 256.850821 
L 589.224961 244.249715 
L 589.95485 217.256821 
L 590.684739 205.597483 
L 591.414628 94.933249 
L 592.144516 282.543811 
L 592.874405 205.995412 
L 593.604294 216.620134 
L 594.334183 220.984096 
L 595.064072 196.047171 
L 595.793961 196.949145 
L 596.523849 108.370007 
L 597.253738 73.683806 
L 598.713516 215.386552 
L 599.443405 219.92295 
L 600.173293 296.325441 
L 600.903182 204.854681 
L 601.633071 96.246417 
L 602.36296 191.073051 
L 603.092849 300.543495 
L 603.822737 234.394324 
L 604.552626 203.037469 
L 605.282515 198.40822 
L 606.012404 185.661208 
L 606.742293 67.568954 
L 607.472182 117.09793 
L 608.20207 174.877314 
L 608.931959 215.665103 
L 609.661848 248.74632 
L 611.121626 193.739179 
L 611.851514 104.045838 
L 612.581403 262.34225 
L 613.311292 311.685525 
L 614.041181 231.144566 
L 614.77107 218.875068 
L 615.500959 278.4584 
L 616.230847 253.176604 
L 616.960736 131.317283 
L 617.690625 145.788657 
L 619.150403 310.306036 
L 619.880291 237.498176 
L 620.61018 225.4807 
L 621.340069 193.4341 
L 622.069958 133.585482 
L 622.799847 241.145864 
L 623.529736 228.160093 
L 624.259624 292.982832 
L 624.989513 309.748935 
L 625.719402 294.587815 
L 626.449291 283.976358 
L 627.17918 195.277841 
L 627.909068 240.33674 
L 628.638957 322.999992 
L 629.368846 316.871875 
L 630.098735 295.131652 
L 630.828624 301.219976 
L 631.558513 295.980569 
L 632.288401 204.019028 
L 633.01829 290.887069 
L 633.748179 287.053681 
L 634.478068 292.889982 
L 635.207957 317.521827 
L 635.937845 312.362006 
L 636.667734 305.743109 
L 637.397623 250.430889 
L 638.127512 325.374305 
L 638.857401 324.936583 
L 639.587289 328.013905 
L 640.317178 318.423801 
L 641.047067 310.531529 
L 642.506845 286.390464 
L 643.236734 289.0168 
L 643.966622 318.277893 
L 644.696511 316.022959 
L 645.4264 307.560321 
L 646.156289 317.25654 
L 646.886178 322.641855 
L 647.616066 295.410203 
L 648.345955 287.106738 
L 649.075844 280.302141 
L 649.805733 304.496263 
L 650.535622 321.315423 
L 651.265511 329.061787 
L 651.995399 314.33839 
L 652.725288 311.433503 
L 653.455177 307.6797 
L 654.185066 327.576183 
L 654.914955 328.88935 
L 655.644843 319.405361 
L 656.374732 327.987376 
L 657.104621 316.818818 
L 657.83451 278.975709 
L 658.564399 282.450961 
L 659.294288 310.425415 
L 660.024176 317.535091 
L 660.754065 328.332249 
L 661.483954 318.463594 
L 662.213843 319.471682 
L 662.943732 299.548671 
L 663.67362 315.691351 
L 664.403509 326.010993 
L 665.133398 323.91523 
L 665.863287 322.164339 
L 666.593176 329.220958 
L 667.323065 319.89614 
L 668.052953 295.927512 
L 668.782842 295.927512 
L 669.512731 323.862173 
L 670.24262 325.825292 
L 670.972509 326.223222 
L 671.702397 315.90358 
L 672.432286 332.231959 
L 673.162175 318.569708 
L 673.892064 327.867998 
L 674.621953 328.544478 
L 675.351841 333.704299 
L 676.08173 333.757356 
L 676.811619 331.329985 
L 677.541508 332.974761 
L 678.271397 330.693298 
L 679.001286 334.712387 
L 679.731174 331.303457 
L 680.461063 329.791324 
L 681.190952 327.669033 
L 681.920841 331.064699 
L 682.65073 326.806852 
L 683.380618 315.956637 
L 684.110507 336.834679 
L 684.840396 330.693298 
L 685.570285 331.117756 
L 686.300174 333.545127 
L 687.030063 332.430924 
L 687.759951 332.51051 
L 688.48984 333.133933 
L 689.219729 329.671945 
L 689.949618 334.035907 
L 690.679507 332.298281 
L 691.409395 331.131021 
L 692.139284 328.159813 
L 692.869173 332.178902 
L 693.599062 333.505334 
L 694.328951 336.927529 
L 695.05884 332.842118 
L 695.788728 332.60336 
L 696.518617 334.553216 
L 697.248506 335.82659 
L 697.978395 332.231959 
L 698.708284 332.430924 
L 699.438172 334.394044 
L 700.168061 330.666769 
L 700.89795 331.449364 
L 701.627839 328.597535 
L 702.357728 332.457453 
L 703.087616 340.309931 
L 703.817505 341.357812 
L 704.547394 334.685859 
L 705.277283 334.340986 
L 706.007172 331.170814 
L 706.737061 331.03817 
L 707.466949 323.955023 
L 708.196838 330.17599 
L 708.926727 333.943057 
L 709.656616 331.661594 
L 710.386505 326.037521 
L 711.116393 335.773533 
L 711.846282 335.906176 
L 712.576171 332.90844 
L 713.30606 332.457453 
L 714.035949 328.345513 
L 714.765838 334.195079 
L 715.495726 331.489157 
L 716.225615 332.576832 
L 716.955504 333.359427 
L 717.685393 333.876735 
L 718.415282 336.052084 
L 719.14517 330.149461 
L 719.875059 329.68521 
L 720.604948 331.184078 
L 721.334837 336.80815 
L 722.064726 331.077963 
L 722.794615 334.195079 
L 723.524503 332.364603 
L 724.254392 331.887087 
L 724.984281 336.211256 
L 725.71417 328.730178 
L 726.444059 332.483981 
L 727.173947 332.231959 
L 727.903836 335.349075 
L 728.633725 332.789061 
L 729.363614 331.674858 
L 730.093503 337.007115 
L 730.823392 332.41766 
L 731.55328 334.526687 
L 732.283169 330.36169 
L 733.013058 331.396307 
L 733.742947 334.619537 
L 734.472836 339.885473 
L 735.202724 331.03817 
L 735.932613 331.502422 
L 736.662502 335.296018 
L 737.392391 330.069875 
L 738.12228 334.831766 
L 738.852168 332.377867 
L 739.582057 325.838556 
L 740.311946 323.583622 
L 741.041835 330.003553 
L 741.771724 329.47298 
L 742.501613 332.736004 
L 743.231501 330.374954 
L 743.96139 334.526687 
L 744.691279 329.075051 
L 745.421168 322.111282 
L 746.151057 319.790026 
L 746.880945 330.043346 
L 747.610834 334.022643 
L 748.340723 336.794886 
L 749.070612 330.26884 
L 749.800501 334.301193 
L 750.53039 329.47298 
L 751.260278 334.646066 
L 751.990167 330.016818 
L 752.720056 330.680034 
L 753.449945 328.637328 
L 754.179834 333.18699 
L 754.909722 331.847294 
L 755.639611 329.857646 
L 756.3695 331.52895 
L 757.099389 332.789061 
L 757.829278 327.562918 
L 758.559167 331.276928 
L 759.289055 331.887087 
L 760.018944 331.396307 
L 761.478722 333.518599 
L 762.208611 334.142022 
L 762.938499 327.417011 
L 763.668388 329.539302 
L 764.398277 335.043995 
L 765.128166 331.887087 
L 765.858055 332.921704 
L 766.587944 326.329336 
L 767.317832 326.010993 
L 768.047721 330.666769 
L 768.77761 332.01973 
L 769.507499 326.448715 
L 770.237388 337.153023 
L 770.967276 312.454856 
L 771.697165 331.4361 
L 772.427054 330.653505 
L 773.156943 333.240048 
L 773.886832 328.663857 
L 774.61672 335.335811 
L 775.346609 324.392745 
L 776.076498 318.662559 
L 776.806387 324.40601 
L 777.536276 331.860558 
L 778.266165 320.665471 
L 778.996053 321.501123 
L 779.725942 286.324143 
L 780.455831 287.902597 
L 781.18572 278.511458 
L 782.645497 315.877051 
L 783.375386 299.588464 
L 784.105275 291.908422 
L 784.835164 295.967305 
L 785.565053 262.992201 
L 786.294942 275.14232 
L 787.02483 330.520862 
L 787.754719 327.735354 
L 788.484608 323.066313 
L 789.214497 322.575533 
L 789.944386 315.147513 
L 790.674274 325.414098 
L 791.404163 306.830784 
L 792.134052 324.034609 
L 792.863941 318.675823 
L 793.59383 314.497562 
L 794.323719 299.416028 
L 795.053607 322.694912 
L 796.513385 331.860558 
L 797.243274 322.641855 
L 797.973163 326.408922 
L 798.703051 326.64768 
L 799.43294 316.911668 
L 800.162829 297.61208 
L 800.892718 221.567726 
L 801.622607 315.784201 
L 802.352496 303.023924 
L 803.082384 306.379797 
L 803.812273 303.514703 
L 804.542162 298.155918 
L 805.272051 287.84954 
L 806.00194 199.588745 
L 806.731828 237.299211 
L 807.461717 301.777077 
L 808.191606 304.297298 
L 808.921495 317.919757 
L 809.651384 307.905194 
L 810.381272 295.144917 
L 811.111161 270.420221 
L 811.84105 78.379376 
L 812.570939 168.934898 
L 813.300828 280.341934 
L 814.030717 313.104808 
L 814.760605 301.405676 
L 815.490494 287.199588 
L 816.220383 166.494263 
L 816.950272 165.897369 
L 817.680161 277.596219 
L 818.410049 289.348408 
L 819.139938 278.126792 
L 819.869827 281.933652 
L 820.599716 270.911001 
L 821.329605 155.829749 
L 822.059494 194.932968 
L 822.789382 281.960181 
L 823.519271 288.698456 
L 824.24916 282.782569 
L 824.979049 314.497562 
L 825.708938 305.544145 
L 826.438826 160.711019 
L 827.168715 274.028117 
L 827.898604 307.480736 
L 828.628493 294.123564 
L 829.358382 308.236802 
L 830.088271 300.543495 
L 830.818159 284.493667 
L 831.548048 57.116669 
L 832.277937 98.050364 
L 833.007826 255.00708 
L 833.737715 244.621116 
L 834.467603 250.590061 
L 835.197492 261.373954 
L 835.927381 283.193763 
L 836.65727 267.555128 
L 837.387159 159.02645 
L 838.117047 295.330617 
L 838.846936 315.001606 
L 839.576825 262.965673 
L 840.306714 230.97213 
L 841.036603 246.451593 
L 841.766492 94.177183 
L 842.49638 237.140039 
L 843.226269 168.072717 
L 843.956158 211.937828 
L 844.686047 149.104738 
L 845.415936 268.457102 
L 846.875713 118.915142 
L 847.605602 179.931021 
L 849.06538 251.492035 
L 849.795269 217.707808 
L 850.525157 268.868296 
L 851.255046 182.716528 
L 851.984935 155.285911 
L 852.714824 115.758234 
L 853.444713 236.211537 
L 854.174601 230.680314 
L 854.90449 191.86891 
L 855.634379 246.862787 
L 856.364268 216.169147 
L 857.094157 64.650803 
L 857.824046 136.384253 
L 858.553934 261.771884 
L 859.283823 239.514353 
L 860.013712 203.050733 
L 860.743601 228.849838 
L 861.47349 209.842066 
L 862.203378 244.93946 
L 862.933267 89.879542 
L 863.663156 224.207326 
L 864.393045 207.149408 
L 865.122934 213.834626 
L 865.852823 228.531494 
L 866.582711 194.787061 
L 867.3126 96.326003 
L 868.042489 64.067173 
L 868.772378 273.099614 
L 869.502267 254.662208 
L 870.232155 170.699053 
L 870.962044 266.852119 
L 871.691933 169.545057 
L 872.421822 217.973095 
L 873.151711 104.470296 
L 873.881599 213.808098 
L 874.611488 198.262313 
L 875.341377 175.275244 
L 876.071266 209.881858 
L 876.801155 238.439943 
L 877.531044 62.793798 
L 878.260932 110.134161 
L 878.990821 225.520493 
L 879.72071 216.646662 
L 880.450599 288.8311 
L 881.180488 246.557707 
L 881.910376 225.308264 
L 882.640265 187.345776 
L 883.370154 123.54439 
L 884.100043 210.797097 
L 884.829932 214.975358 
L 885.559821 245.589412 
L 886.289709 212.866331 
L 887.019598 195.662506 
L 887.749487 130.813238 
L 888.479376 83.061681 
L 889.209265 141.172673 
L 889.939153 282.119353 
L 890.669042 286.841451 
L 891.398931 308.117423 
L 892.12882 295.808133 
L 892.858709 216.368112 
L 893.588598 216.39464 
L 894.318486 292.836925 
L 895.048375 318.768673 
L 895.778264 309.908106 
L 897.238042 280.182762 
L 897.96793 190.250663 
L 899.427708 303.541232 
L 900.157597 302.4005 
L 900.887486 302.055628 
L 901.617375 297.691666 
L 902.347263 286.324143 
L 903.077152 231.370059 
L 903.807041 242.153953 
L 904.53693 299.124213 
L 905.266819 313.144601 
L 905.996707 309.404062 
L 906.726596 311.964076 
L 907.456485 288.565813 
L 908.186374 242.512089 
L 908.916263 243.533442 
L 909.646151 282.450961 
L 910.37604 287.743425 
L 911.105929 288.260734 
L 911.835818 296.736635 
L 912.565707 302.135214 
L 913.295596 279.612396 
L 914.025484 310.451944 
L 914.755373 306.154303 
L 915.485262 251.810379 
L 916.215151 317.428977 
L 916.94504 309.417326 
L 917.674928 313.94046 
L 918.404817 312.056926 
L 919.134706 317.680999 
L 919.864595 321.142987 
L 920.594484 315.797465 
L 922.054261 320.028784 
L 922.78415 328.544478 
L 923.514039 312.017133 
L 924.243928 310.505001 
L 924.973817 317.972814 
L 925.703705 312.454856 
L 926.433594 319.166603 
L 927.163483 328.265927 
L 927.893372 311.274331 
L 928.623261 288.685192 
L 929.35315 326.422187 
L 930.083038 316.513738 
L 931.542816 329.141372 
L 932.272705 328.70365 
L 934.462371 316.540267 
L 935.19226 332.139109 
L 935.922149 330.786148 
L 936.652038 328.345513 
L 937.381927 328.7965 
L 938.111815 323.185692 
L 938.841704 325.002904 
L 939.571593 322.893877 
L 940.301482 315.5985 
L 941.031371 330.255575 
L 941.761259 327.987376 
L 942.491148 326.090579 
L 943.221037 330.308633 
L 943.950926 317.349391 
L 944.680815 325.374305 
L 945.410703 329.433188 
L 946.140592 336.450014 
L 946.870481 331.223871 
L 947.60037 329.764796 
L 948.330259 329.433188 
L 949.060148 325.719178 
L 949.790036 333.120669 
L 950.519925 310.703966 
L 951.249814 334.593009 
L 951.979703 334.951145 
L 952.709592 327.13846 
L 953.43948 335.216432 
L 954.169369 331.489157 
L 954.899258 335.335811 
L 955.629147 333.18699 
L 956.359036 333.730828 
L 957.088925 332.828854 
L 957.818813 334.367515 
L 958.548702 332.802325 
L 959.278591 330.030082 
L 960.00848 333.744092 
L 960.738369 334.128757 
L 961.468257 308.342916 
L 962.198146 333.664506 
L 962.928035 325.812028 
L 963.657924 327.81494 
L 965.117702 333.783885 
L 965.84759 334.234872 
L 966.577479 327.907791 
L 967.307368 331.263664 
L 968.037257 329.021994 
L 968.767146 331.555479 
L 969.497034 335.468454 
L 970.226923 328.743443 
L 970.956812 328.584271 
L 971.686701 331.727915 
L 972.41659 335.680683 
L 973.146478 331.820765 
L 973.876367 330.36169 
L 974.606256 325.838556 
L 976.066034 328.88935 
L 976.795923 330.321897 
L 977.525811 331.104492 
L 978.2557 329.327073 
L 978.985589 333.439013 
L 979.715478 333.810414 
L 980.445367 334.805238 
L 981.175255 334.593009 
L 981.905144 336.383692 
L 982.635033 335.083788 
L 983.364922 335.070524 
L 984.094811 327.23131 
L 984.8247 339.699772 
L 985.554588 337.511159 
L 986.284477 334.778709 
L 987.014366 335.866383 
L 987.744255 334.937881 
L 988.474144 334.858295 
L 989.204032 334.035907 
L 989.933921 335.441925 
L 990.66381 330.414747 
L 992.123588 338.147847 
L 992.853477 335.256225 
L 993.583365 334.128757 
L 994.313254 334.500158 
L 995.043143 333.505334 
L 995.773032 333.412484 
L 996.502921 323.756058 
L 997.232809 334.287929 
L 997.962698 332.483981 
L 998.692587 335.176639 
L 999.422476 331.263664 
L 1000.152365 323.278542 
L 1000.882254 325.042697 
L 1001.612142 334.049171 
L 1002.342031 332.775797 
L 1003.07192 332.590096 
L 1003.801809 332.749268 
L 1004.531698 327.191517 
L 1005.261586 319.179867 
L 1005.991475 331.621801 
L 1006.721364 332.430924 
L 1007.451253 329.313809 
L 1008.181142 321.76641 
L 1008.91103 334.420572 
L 1009.640919 334.221608 
L 1010.370808 330.825941 
L 1011.100697 333.425748 
L 1011.830586 329.28728 
L 1012.560475 329.101579 
L 1013.290363 330.666769 
L 1014.020252 330.985113 
L 1014.750141 329.526038 
L 1015.48003 331.144285 
L 1016.209919 331.157549 
L 1016.939807 325.838556 
L 1017.669696 325.228398 
L 1018.399585 333.916528 
L 1019.129474 332.51051 
L 1019.859363 326.170164 
L 1020.589252 330.428012 
L 1021.31914 329.141372 
L 1022.049029 323.013256 
L 1022.778918 328.823029 
L 1023.508807 330.255575 
L 1024.238696 322.283718 
L 1024.968584 328.186341 
L 1025.698473 335.256225 
L 1026.428362 334.460365 
L 1027.158251 325.042697 
L 1027.88814 323.5173 
L 1028.618029 300.06598 
L 1029.347917 331.157549 
L 1030.077806 326.488508 
L 1030.807695 324.856997 
L 1031.537584 330.308633 
L 1032.267473 330.45454 
L 1032.997361 332.351338 
L 1033.72725 331.210607 
L 1034.457139 330.573919 
L 1035.187028 333.956321 
L 1035.916917 328.584271 
L 1036.646806 325.228398 
L 1037.376694 325.75897 
L 1038.106583 330.534126 
L 1038.836472 325.069226 
L 1039.566361 320.559356 
L 1041.026138 306.552233 
L 1041.756027 308.608203 
L 1042.485916 318.927845 
L 1043.215805 331.780972 
L 1043.945694 333.943057 
L 1044.675582 334.022643 
L 1045.405471 326.170164 
L 1046.13536 305.782902 
L 1046.865249 296.84275 
L 1047.595138 325.679385 
L 1048.325027 323.02652 
L 1049.054915 313.728231 
L 1049.784804 331.807501 
L 1050.514693 333.452277 
L 1051.244582 320.134898 
L 1051.974471 311.30086 
L 1052.704359 314.391447 
L 1053.434248 315.240364 
L 1054.164137 332.802325 
L 1054.894026 325.17534 
L 1055.623915 323.676472 
L 1056.353804 320.890965 
L 1057.083692 312.37527 
L 1057.813581 310.266243 
L 1058.54347 326.926231 
L 1059.273359 320.002255 
L 1060.003248 314.444504 
L 1060.733136 307.00322 
L 1061.463025 323.941758 
L 1062.192914 311.844697 
L 1062.922803 316.540267 
L 1063.652692 325.719178 
L 1065.112469 293.009361 
L 1065.842358 320.453242 
L 1066.572247 261.506597 
L 1067.302136 316.593324 
L 1068.032025 296.405027 
L 1068.761913 300.530231 
L 1069.491802 306.737934 
L 1070.221691 316.818818 
L 1070.95158 310.62438 
L 1071.681469 295.158181 
L 1072.411358 259.914879 
L 1073.141246 318.450329 
L 1073.871135 318.901316 
L 1074.601024 311.247803 
L 1075.330913 298.049803 
L 1076.060802 313.608852 
L 1076.79069 194.840118 
L 1077.520579 122.28428 
L 1078.250468 133.015116 
L 1078.980357 292.624696 
L 1079.710246 306.247154 
L 1081.170023 271.176288 
L 1081.899912 284.268173 
L 1082.629801 174.134512 
L 1083.35969 315.147513 
L 1084.089579 318.304422 
L 1084.819467 285.713984 
L 1085.549356 287.624046 
L 1086.279245 274.346461 
L 1087.009134 189.242574 
L 1087.739023 294.78678 
L 1088.468911 281.323494 
L 1089.1988 281.535723 
L 1089.928689 290.449347 
L 1090.658578 287.305703 
L 1091.388467 306.02166 
L 1092.118356 211.619485 
L 1092.848244 281.734688 
L 1093.578133 293.075682 
L 1094.308022 287.783218 
L 1095.037911 266.374603 
L 1095.7678 270.738565 
L 1096.497688 257.64668 
L 1097.227577 116.302071 
L 1097.957466 162.806782 
L 1098.687355 242.870226 
L 1099.417244 264.544127 
L 1100.147133 195.914528 
L 1100.877021 276.986061 
L 1102.336799 247.419888 
L 1103.066688 251.38592 
L 1103.796577 233.333179 
L 1104.526465 267.886736 
L 1105.256354 279.174674 
L 1105.986243 240.270419 
L 1106.716132 223.371673 
L 1107.446021 304.642171 
L 1108.175909 127.948145 
L 1108.905798 96.657611 
L 1109.635687 238.917458 
L 1110.365576 256.651856 
L 1111.095465 208.091175 
L 1111.825354 214.351935 
L 1112.555242 124.486157 
L 1113.285131 128.067524 
L 1114.01502 223.013537 
L 1114.744909 251.8767 
L 1115.474798 322.164339 
L 1116.204686 252.049136 
L 1117.664464 82.093386 
L 1118.394353 162.408852 
L 1119.124242 293.566462 
L 1119.854131 312.308949 
L 1120.584019 228.597816 
L 1121.313908 217.402729 
L 1122.043797 190.436363 
L 1122.773686 105.385534 
L 1123.503575 157.646961 
L 1124.963352 282.106089 
L 1124.963352 282.106089 
" clip-path="url(#p39d5b638d0)" style="fill: none; stroke: #008080; stroke-width: 1.5; stroke-linecap: square"/>
   </g>
   <g id="patch_3">
    <path d="M 59.690625 356.477812 
L 59.690625 23.837812 
" style="fill: none; stroke: #000000; stroke-width: 0.8; stroke-linejoin: miter; stroke-linecap: square"/>
   </g>
   <g id="patch_4">
    <path d="M 1175.690625 356.477812 
L 1175.690625 23.837812 
" style="fill: none; stroke: #000000; stroke-width: 0.8; stroke-linejoin: miter; stroke-linecap: square"/>
   </g>
   <g id="patch_5">
    <path d="M 59.690625 356.477812 
L 1175.690625 356.477812 
" style="fill: none; stroke: #000000; stroke-width: 0.8; stroke-linejoin: miter; stroke-linecap: square"/>
   </g>
   <g id="patch_6">
    <path d="M 59.690625 23.837812 
L 1175.690625 23.837812 
" style="fill: none; stroke: #000000; stroke-width: 0.8; stroke-linejoin: miter; stroke-linecap: square"/>
   </g>
   <g id="text_16">
    <!-- Toronto Island Ferry Ticket Redemptions -->
    <g transform="translate(477.780313 17.837812) scale(0.14 -0.14)">
     <defs>
      <path id="DejaVuSans-72" d="M 2631 2963 
Q 2534 3019 2420 3045 
Q 2306 3072 2169 3072 
Q 1681 3072 1420 2755 
Q 1159 2438 1159 1844 
L 1159 0 
L 581 0 
L 581 3500 
L 1159 3500 
L 1159 2956 
Q 1341 3275 1631 3429 
Q 1922 3584 2338 3584 
Q 2397 3584 2469 3576 
Q 2541 3569 2628 3553 
L 2631 2963 
z
" transform="scale(0.015625)"/>
      <path id="DejaVuSans-49" d="M 628 4666 
L 1259 4666 
L 1259 0 
L 628 0 
L 628 4666 
z
" transform="scale(0.015625)"/>
      <path id="DejaVuSans-6c" d="M 603 4863 
L 1178 4863 
L 1178 0 
L 603 0 
L 603 4863 
z
" transform="scale(0.015625)"/>
      <path id="DejaVuSans-46" d="M 628 4666 
L 3309 4666 
L 3309 4134 
L 1259 4134 
L 1259 2759 
L 3109 2759 
L 3109 2228 
L 1259 2228 
L 1259 0 
L 628 0 
L 628 4666 
z
" transform="scale(0.015625)"/>
      <path id="DejaVuSans-79" d="M 2059 -325 
Q 1816 -950 1584 -1140 
Q 1353 -1331 966 -1331 
L 506 -1331 
L 506 -850 
L 844 -850 
Q 1081 -850 1212 -737 
Q 1344 -625 1503 -206 
L 1606 56 
L 191 3500 
L 800 3500 
L 1894 763 
L 2988 3500 
L 3597 3500 
L 2059 -325 
z
" transform="scale(0.015625)"/>
     </defs>
     <use xlink:href="#DejaVuSans-54"/>
     <use xlink:href="#DejaVuSans-6f" x="44.083984"/>
     <use xlink:href="#DejaVuSans-72" x="105.265625"/>
     <use xlink:href="#DejaVuSans-6f" x="144.128906"/>
     <use xlink:href="#DejaVuSans-6e" x="205.310547"/>
     <use xlink:href="#DejaVuSans-74" x="268.689453"/>
     <use xlink:href="#DejaVuSans-6f" x="307.898438"/>
     <use xlink:href="#DejaVuSans-20" x="369.080078"/>
     <use xlink:href="#DejaVuSans-49" x="400.867188"/>
     <use xlink:href="#DejaVuSans-73" x="430.359375"/>
     <use xlink:href="#DejaVuSans-6c" x="482.458984"/>
     <use xlink:href="#DejaVuSans-61" x="510.242188"/>
     <use xlink:href="#DejaVuSans-6e" x="571.521484"/>
     <use xlink:href="#DejaVuSans-64" x="634.900391"/>
     <use xlink:href="#DejaVuSans-20" x="698.376953"/>
     <use xlink:href="#DejaVuSans-46" x="730.164062"/>
     <use xlink:href="#DejaVuSans-65" x="782.183594"/>
     <use xlink:href="#DejaVuSans-72" x="843.707031"/>
     <use xlink:href="#DejaVuSans-72" x="883.070312"/>
     <use xlink:href="#DejaVuSans-79" x="924.183594"/>
     <use xlink:href="#DejaVuSans-20" x="983.363281"/>
     <use xlink:href="#DejaVuSans-54" x="1015.150391"/>
     <use xlink:href="#DejaVuSans-69" x="1073.109375"/>
     <use xlink:href="#DejaVuSans-63" x="1100.892578"/>
     <use xlink:href="#DejaVuSans-6b" x="1155.873047"/>
     <use xlink:href="#DejaVuSans-65" x="1210.158203"/>
     <use xlink:href="#DejaVuSans-74" x="1271.681641"/>
     <use xlink:href="#DejaVuSans-20" x="1310.890625"/>
     <use xlink:href="#DejaVuSans-52" x="1342.677734"/>
     <use xlink:href="#DejaVuSans-65" x="1407.660156"/>
     <use xlink:href="#DejaVuSans-64" x="1469.183594"/>
     <use xlink:href="#DejaVuSans-65" x="1532.660156"/>
     <use xlink:href="#DejaVuSans-6d" x="1594.183594"/>
     <use xlink:href="#DejaVuSans-70" x="1691.595703"/>
     <use xlink:href="#DejaVuSans-74" x="1755.072266"/>
     <use xlink:href="#DejaVuSans-69" x="1794.28125"/>
     <use xlink:href="#DejaVuSans-6f" x="1822.064453"/>
     <use xlink:href="#DejaVuSans-6e" x="1883.246094"/>
     <use xlink:href="#DejaVuSans-73" x="1946.625"/>
    </g>
   </g>
  </g>
  <g id="text_17">
   <!-- (Data from 2020-10-02 17:45:00 to 2024-07-23 13:00:00) -->
   <g style="fill: #808080" transform="translate(454.635938 399.677812) scale(0.1 -0.1)">
    <defs>
     <path id="DejaVuSans-28" d="M 1984 4856 
Q 1566 4138 1362 3434 
Q 1159 2731 1159 2009 
Q 1159 1288 1364 580 
Q 1569 -128 1984 -844 
L 1484 -844 
Q 1016 -109 783 600 
Q 550 1309 550 2009 
Q 550 2706 781 3412 
Q 1013 4119 1484 4856 
L 1984 4856 
z
" transform="scale(0.015625)"/>
     <path id="DejaVuSans-66" d="M 2375 4863 
L 2375 4384 
L 1825 4384 
Q 1516 4384 1395 4259 
Q 1275 4134 1275 3809 
L 1275 3500 
L 2222 3500 
L 2222 3053 
L 1275 3053 
L 1275 0 
L 697 0 
L 697 3053 
L 147 3053 
L 147 3500 
L 697 3500 
L 697 3744 
Q 697 4328 969 4595 
Q 1241 4863 1831 4863 
L 2375 4863 
z
" transform="scale(0.015625)"/>
     <path id="DejaVuSans-3a" d="M 750 794 
L 1409 794 
L 1409 0 
L 750 0 
L 750 794 
z
M 750 3309 
L 1409 3309 
L 1409 2516 
L 750 2516 
L 750 3309 
z
" transform="scale(0.015625)"/>
     <path id="DejaVuSans-29" d="M 513 4856 
L 1013 4856 
Q 1481 4119 1714 3412 
Q 1947 2706 1947 2009 
Q 1947 1309 1714 600 
Q 1481 -109 1013 -844 
L 513 -844 
Q 928 -128 1133 580 
Q 1338 1288 1338 2009 
Q 1338 2731 1133 3434 
Q 928 4138 513 4856 
z
" transform="scale(0.015625)"/>
    </defs>
    <use xlink:href="#DejaVuSans-28"/>
    <use xlink:href="#DejaVuSans-44" x="39.013672"/>
    <use xlink:href="#DejaVuSans-61" x="116.015625"/>
    <use xlink:href="#DejaVuSans-74" x="177.294922"/>
    <use xlink:href="#DejaVuSans-61" x="216.503906"/>
    <use xlink:href="#DejaVuSans-20" x="277.783203"/>
    <use xlink:href="#DejaVuSans-66" x="309.570312"/>
    <use xlink:href="#DejaVuSans-72" x="344.775391"/>
    <use xlink:href="#DejaVuSans-6f" x="383.638672"/>
    <use xlink:href="#DejaVuSans-6d" x="444.820312"/>
    <use xlink:href="#DejaVuSans-20" x="542.232422"/>
    <use xlink:href="#DejaVuSans-32" x="574.019531"/>
    <use xlink:href="#DejaVuSans-30" x="637.642578"/>
    <use xlink:href="#DejaVuSans-32" x="701.265625"/>
    <use xlink:href="#DejaVuSans-30" x="764.888672"/>
    <use xlink:href="#DejaVuSans-2d" x="828.511719"/>
    <use xlink:href="#DejaVuSans-31" x="864.595703"/>
    <use xlink:href="#DejaVuSans-30" x="928.21875"/>
    <use xlink:href="#DejaVuSans-2d" x="991.841797"/>
    <use xlink:href="#DejaVuSans-30" x="1027.925781"/>
    <use xlink:href="#DejaVuSans-32" x="1091.548828"/>
    <use xlink:href="#DejaVuSans-20" x="1155.171875"/>
    <use xlink:href="#DejaVuSans-31" x="1186.958984"/>
    <use xlink:href="#DejaVuSans-37" x="1250.582031"/>
    <use xlink:href="#DejaVuSans-3a" x="1314.205078"/>
    <use xlink:href="#DejaVuSans-34" x="1347.896484"/>
    <use xlink:href="#DejaVuSans-35" x="1411.519531"/>
    <use xlink:href="#DejaVuSans-3a" x="1475.142578"/>
    <use xlink:href="#DejaVuSans-30" x="1508.833984"/>
    <use xlink:href="#DejaVuSans-30" x="1572.457031"/>
    <use xlink:href="#DejaVuSans-20" x="1636.080078"/>
    <use xlink:href="#DejaVuSans-74" x="1667.867188"/>
    <use xlink:href="#DejaVuSans-6f" x="1707.076172"/>
    <use xlink:href="#DejaVuSans-20" x="1768.257812"/>
    <use xlink:href="#DejaVuSans-32" x="1800.044922"/>
    <use xlink:href="#DejaVuSans-30" x="1863.667969"/>
    <use xlink:href="#DejaVuSans-32" x="1927.291016"/>
    <use xlink:href="#DejaVuSans-34" x="1990.914062"/>
    <use xlink:href="#DejaVuSans-2d" x="2054.537109"/>
    <use xlink:href="#DejaVuSans-30" x="2090.621094"/>
    <use xlink:href="#DejaVuSans-37" x="2154.244141"/>
    <use xlink:href="#DejaVuSans-2d" x="2217.867188"/>
    <use xlink:href="#DejaVuSans-32" x="2253.951172"/>
    <use xlink:href="#DejaVuSans-33" x="2317.574219"/>
    <use xlink:href="#DejaVuSans-20" x="2381.197266"/>
    <use xlink:href="#DejaVuSans-31" x="2412.984375"/>
    <use xlink:href="#DejaVuSans-33" x="2476.607422"/>
    <use xlink:href="#DejaVuSans-3a" x="2540.230469"/>
    <use xlink:href="#DejaVuSans-30" x="2573.921875"/>
    <use xlink:href="#DejaVuSans-30" x="2637.544922"/>
    <use xlink:href="#DejaVuSans-3a" x="2701.167969"/>
    <use xlink:href="#DejaVuSans-30" x="2734.859375"/>
    <use xlink:href="#DejaVuSans-30" x="2798.482422"/>
    <use xlink:href="#DejaVuSans-29" x="2862.105469"/>
   </g>
  </g>
 </g>
 <defs>
  <clipPath id="p39d5b638d0">
   <rect x="59.690625" y="23.837812" width="1116" height="332.64"/>
  </clipPath>
 </defs>
</svg>
