<?xml version="1.0" encoding="utf-8" standalone="no"?>
<!DOCTYPE svg PUBLIC "-//W3C//DTD SVG 1.1//EN"
  "http://www.w3.org/Graphics/SVG/1.1/DTD/svg11.dtd">
<svg xmlns:xlink="http://www.w3.org/1999/xlink" width="1182.890625pt" height="408.9575pt" viewBox="0 0 1182.890625 408.9575" xmlns="http://www.w3.org/2000/svg" version="1.1">
 <metadata>
  <rdf:RDF xmlns:dc="http://purl.org/dc/elements/1.1/" xmlns:cc="http://creativecommons.org/ns#" xmlns:rdf="http://www.w3.org/1999/02/22-rdf-syntax-ns#">
   <cc:Work>
    <dc:type rdf:resource="http://purl.org/dc/dcmitype/StillImage"/>
    <dc:date>2024-06-27T23:08:09.758821</dc:date>
    <dc:format>image/svg+xml</dc:format>
    <dc:creator>
     <cc:Agent>
      <dc:title>Matplotlib v3.8.4, https://matplotlib.org/</dc:title>
     </cc:Agent>
    </dc:creator>
   </cc:Work>
  </rdf:RDF>
 </metadata>
 <defs>
  <style type="text/css">*{stroke-linejoin: round; stroke-linecap: butt}</style>
 </defs>
 <g id="figure_1">
  <g id="patch_1">
   <path d="M 0 408.9575 
L 1182.890625 408.9575 
L 1182.890625 0 
L 0 0 
z
" style="fill: #ffffff"/>
  </g>
  <g id="axes_1">
   <g id="patch_2">
    <path d="M 59.690625 356.477812 
L 1175.690625 356.477812 
L 1175.690625 23.837812 
L 59.690625 23.837812 
z
" style="fill: #ffffff"/>
   </g>
   <g id="matplotlib.axis_1">
    <g id="xtick_1">
     <g id="line2d_1">
      <defs>
       <path id="m4b0805cc32" d="M 0 0 
L 0 3.5 
" style="stroke: #000000; stroke-width: 0.8"/>
      </defs>
      <g>
       <use xlink:href="#m4b0805cc32" x="59.913942" y="356.477812" style="stroke: #000000; stroke-width: 0.8"/>
      </g>
     </g>
     <g id="text_1">
      <!-- 2016 -->
      <g transform="translate(47.188942 371.07625) scale(0.1 -0.1)">
       <defs>
        <path id="DejaVuSans-32" d="M 1228 531 
L 3431 531 
L 3431 0 
L 469 0 
L 469 531 
Q 828 903 1448 1529 
Q 2069 2156 2228 2338 
Q 2531 2678 2651 2914 
Q 2772 3150 2772 3378 
Q 2772 3750 2511 3984 
Q 2250 4219 1831 4219 
Q 1534 4219 1204 4116 
Q 875 4013 500 3803 
L 500 4441 
Q 881 4594 1212 4672 
Q 1544 4750 1819 4750 
Q 2544 4750 2975 4387 
Q 3406 4025 3406 3419 
Q 3406 3131 3298 2873 
Q 3191 2616 2906 2266 
Q 2828 2175 2409 1742 
Q 1991 1309 1228 531 
z
" transform="scale(0.015625)"/>
        <path id="DejaVuSans-30" d="M 2034 4250 
Q 1547 4250 1301 3770 
Q 1056 3291 1056 2328 
Q 1056 1369 1301 889 
Q 1547 409 2034 409 
Q 2525 409 2770 889 
Q 3016 1369 3016 2328 
Q 3016 3291 2770 3770 
Q 2525 4250 2034 4250 
z
M 2034 4750 
Q 2819 4750 3233 4129 
Q 3647 3509 3647 2328 
Q 3647 1150 3233 529 
Q 2819 -91 2034 -91 
Q 1250 -91 836 529 
Q 422 1150 422 2328 
Q 422 3509 836 4129 
Q 1250 4750 2034 4750 
z
" transform="scale(0.015625)"/>
        <path id="DejaVuSans-31" d="M 794 531 
L 1825 531 
L 1825 4091 
L 703 3866 
L 703 4441 
L 1819 4666 
L 2450 4666 
L 2450 531 
L 3481 531 
L 3481 0 
L 794 0 
L 794 531 
z
" transform="scale(0.015625)"/>
        <path id="DejaVuSans-36" d="M 2113 2584 
Q 1688 2584 1439 2293 
Q 1191 2003 1191 1497 
Q 1191 994 1439 701 
Q 1688 409 2113 409 
Q 2538 409 2786 701 
Q 3034 994 3034 1497 
Q 3034 2003 2786 2293 
Q 2538 2584 2113 2584 
z
M 3366 4563 
L 3366 3988 
Q 3128 4100 2886 4159 
Q 2644 4219 2406 4219 
Q 1781 4219 1451 3797 
Q 1122 3375 1075 2522 
Q 1259 2794 1537 2939 
Q 1816 3084 2150 3084 
Q 2853 3084 3261 2657 
Q 3669 2231 3669 1497 
Q 3669 778 3244 343 
Q 2819 -91 2113 -91 
Q 1303 -91 875 529 
Q 447 1150 447 2328 
Q 447 3434 972 4092 
Q 1497 4750 2381 4750 
Q 2619 4750 2861 4703 
Q 3103 4656 3366 4563 
z
" transform="scale(0.015625)"/>
       </defs>
       <use xlink:href="#DejaVuSans-32"/>
       <use xlink:href="#DejaVuSans-30" x="63.623047"/>
       <use xlink:href="#DejaVuSans-31" x="127.246094"/>
       <use xlink:href="#DejaVuSans-36" x="190.869141"/>
      </g>
     </g>
    </g>
    <g id="xtick_2">
     <g id="line2d_2">
      <g>
       <use xlink:href="#m4b0805cc32" x="185.658485" y="356.477812" style="stroke: #000000; stroke-width: 0.8"/>
      </g>
     </g>
     <g id="text_2">
      <!-- 2017 -->
      <g transform="translate(172.933485 371.07625) scale(0.1 -0.1)">
       <defs>
        <path id="DejaVuSans-37" d="M 525 4666 
L 3525 4666 
L 3525 4397 
L 1831 0 
L 1172 0 
L 2766 4134 
L 525 4134 
L 525 4666 
z
" transform="scale(0.015625)"/>
       </defs>
       <use xlink:href="#DejaVuSans-32"/>
       <use xlink:href="#DejaVuSans-30" x="63.623047"/>
       <use xlink:href="#DejaVuSans-31" x="127.246094"/>
       <use xlink:href="#DejaVuSans-37" x="190.869141"/>
      </g>
     </g>
    </g>
    <g id="xtick_3">
     <g id="line2d_3">
      <g>
       <use xlink:href="#m4b0805cc32" x="311.059464" y="356.477812" style="stroke: #000000; stroke-width: 0.8"/>
      </g>
     </g>
     <g id="text_3">
      <!-- 2018 -->
      <g transform="translate(298.334464 371.07625) scale(0.1 -0.1)">
       <defs>
        <path id="DejaVuSans-38" d="M 2034 2216 
Q 1584 2216 1326 1975 
Q 1069 1734 1069 1313 
Q 1069 891 1326 650 
Q 1584 409 2034 409 
Q 2484 409 2743 651 
Q 3003 894 3003 1313 
Q 3003 1734 2745 1975 
Q 2488 2216 2034 2216 
z
M 1403 2484 
Q 997 2584 770 2862 
Q 544 3141 544 3541 
Q 544 4100 942 4425 
Q 1341 4750 2034 4750 
Q 2731 4750 3128 4425 
Q 3525 4100 3525 3541 
Q 3525 3141 3298 2862 
Q 3072 2584 2669 2484 
Q 3125 2378 3379 2068 
Q 3634 1759 3634 1313 
Q 3634 634 3220 271 
Q 2806 -91 2034 -91 
Q 1263 -91 848 271 
Q 434 634 434 1313 
Q 434 1759 690 2068 
Q 947 2378 1403 2484 
z
M 1172 3481 
Q 1172 3119 1398 2916 
Q 1625 2713 2034 2713 
Q 2441 2713 2670 2916 
Q 2900 3119 2900 3481 
Q 2900 3844 2670 4047 
Q 2441 4250 2034 4250 
Q 1625 4250 1398 4047 
Q 1172 3844 1172 3481 
z
" transform="scale(0.015625)"/>
       </defs>
       <use xlink:href="#DejaVuSans-32"/>
       <use xlink:href="#DejaVuSans-30" x="63.623047"/>
       <use xlink:href="#DejaVuSans-31" x="127.246094"/>
       <use xlink:href="#DejaVuSans-38" x="190.869141"/>
      </g>
     </g>
    </g>
    <g id="xtick_4">
     <g id="line2d_4">
      <g>
       <use xlink:href="#m4b0805cc32" x="436.460443" y="356.477812" style="stroke: #000000; stroke-width: 0.8"/>
      </g>
     </g>
     <g id="text_4">
      <!-- 2019 -->
      <g transform="translate(423.735443 371.07625) scale(0.1 -0.1)">
       <defs>
        <path id="DejaVuSans-39" d="M 703 97 
L 703 672 
Q 941 559 1184 500 
Q 1428 441 1663 441 
Q 2288 441 2617 861 
Q 2947 1281 2994 2138 
Q 2813 1869 2534 1725 
Q 2256 1581 1919 1581 
Q 1219 1581 811 2004 
Q 403 2428 403 3163 
Q 403 3881 828 4315 
Q 1253 4750 1959 4750 
Q 2769 4750 3195 4129 
Q 3622 3509 3622 2328 
Q 3622 1225 3098 567 
Q 2575 -91 1691 -91 
Q 1453 -91 1209 -44 
Q 966 3 703 97 
z
M 1959 2075 
Q 2384 2075 2632 2365 
Q 2881 2656 2881 3163 
Q 2881 3666 2632 3958 
Q 2384 4250 1959 4250 
Q 1534 4250 1286 3958 
Q 1038 3666 1038 3163 
Q 1038 2656 1286 2365 
Q 1534 2075 1959 2075 
z
" transform="scale(0.015625)"/>
       </defs>
       <use xlink:href="#DejaVuSans-32"/>
       <use xlink:href="#DejaVuSans-30" x="63.623047"/>
       <use xlink:href="#DejaVuSans-31" x="127.246094"/>
       <use xlink:href="#DejaVuSans-39" x="190.869141"/>
      </g>
     </g>
    </g>
    <g id="xtick_5">
     <g id="line2d_5">
      <g>
       <use xlink:href="#m4b0805cc32" x="561.861422" y="356.477812" style="stroke: #000000; stroke-width: 0.8"/>
      </g>
     </g>
     <g id="text_5">
      <!-- 2020 -->
      <g transform="translate(549.136422 371.07625) scale(0.1 -0.1)">
       <use xlink:href="#DejaVuSans-32"/>
       <use xlink:href="#DejaVuSans-30" x="63.623047"/>
       <use xlink:href="#DejaVuSans-32" x="127.246094"/>
       <use xlink:href="#DejaVuSans-30" x="190.869141"/>
      </g>
     </g>
    </g>
    <g id="xtick_6">
     <g id="line2d_6">
      <g>
       <use xlink:href="#m4b0805cc32" x="687.605965" y="356.477812" style="stroke: #000000; stroke-width: 0.8"/>
      </g>
     </g>
     <g id="text_6">
      <!-- 2021 -->
      <g transform="translate(674.880965 371.07625) scale(0.1 -0.1)">
       <use xlink:href="#DejaVuSans-32"/>
       <use xlink:href="#DejaVuSans-30" x="63.623047"/>
       <use xlink:href="#DejaVuSans-32" x="127.246094"/>
       <use xlink:href="#DejaVuSans-31" x="190.869141"/>
      </g>
     </g>
    </g>
    <g id="xtick_7">
     <g id="line2d_7">
      <g>
       <use xlink:href="#m4b0805cc32" x="813.006944" y="356.477812" style="stroke: #000000; stroke-width: 0.8"/>
      </g>
     </g>
     <g id="text_7">
      <!-- 2022 -->
      <g transform="translate(800.281944 371.07625) scale(0.1 -0.1)">
       <use xlink:href="#DejaVuSans-32"/>
       <use xlink:href="#DejaVuSans-30" x="63.623047"/>
       <use xlink:href="#DejaVuSans-32" x="127.246094"/>
       <use xlink:href="#DejaVuSans-32" x="190.869141"/>
      </g>
     </g>
    </g>
    <g id="xtick_8">
     <g id="line2d_8">
      <g>
       <use xlink:href="#m4b0805cc32" x="938.407923" y="356.477812" style="stroke: #000000; stroke-width: 0.8"/>
      </g>
     </g>
     <g id="text_8">
      <!-- 2023 -->
      <g transform="translate(925.682923 371.07625) scale(0.1 -0.1)">
       <defs>
        <path id="DejaVuSans-33" d="M 2597 2516 
Q 3050 2419 3304 2112 
Q 3559 1806 3559 1356 
Q 3559 666 3084 287 
Q 2609 -91 1734 -91 
Q 1441 -91 1130 -33 
Q 819 25 488 141 
L 488 750 
Q 750 597 1062 519 
Q 1375 441 1716 441 
Q 2309 441 2620 675 
Q 2931 909 2931 1356 
Q 2931 1769 2642 2001 
Q 2353 2234 1838 2234 
L 1294 2234 
L 1294 2753 
L 1863 2753 
Q 2328 2753 2575 2939 
Q 2822 3125 2822 3475 
Q 2822 3834 2567 4026 
Q 2313 4219 1838 4219 
Q 1578 4219 1281 4162 
Q 984 4106 628 3988 
L 628 4550 
Q 988 4650 1302 4700 
Q 1616 4750 1894 4750 
Q 2613 4750 3031 4423 
Q 3450 4097 3450 3541 
Q 3450 3153 3228 2886 
Q 3006 2619 2597 2516 
z
" transform="scale(0.015625)"/>
       </defs>
       <use xlink:href="#DejaVuSans-32"/>
       <use xlink:href="#DejaVuSans-30" x="63.623047"/>
       <use xlink:href="#DejaVuSans-32" x="127.246094"/>
       <use xlink:href="#DejaVuSans-33" x="190.869141"/>
      </g>
     </g>
    </g>
    <g id="xtick_9">
     <g id="line2d_9">
      <g>
       <use xlink:href="#m4b0805cc32" x="1063.808902" y="356.477812" style="stroke: #000000; stroke-width: 0.8"/>
      </g>
     </g>
     <g id="text_9">
      <!-- 2024 -->
      <g transform="translate(1051.083902 371.07625) scale(0.1 -0.1)">
       <defs>
        <path id="DejaVuSans-34" d="M 2419 4116 
L 825 1625 
L 2419 1625 
L 2419 4116 
z
M 2253 4666 
L 3047 4666 
L 3047 1625 
L 3713 1625 
L 3713 1100 
L 3047 1100 
L 3047 0 
L 2419 0 
L 2419 1100 
L 313 1100 
L 313 1709 
L 2253 4666 
z
" transform="scale(0.015625)"/>
       </defs>
       <use xlink:href="#DejaVuSans-32"/>
       <use xlink:href="#DejaVuSans-30" x="63.623047"/>
       <use xlink:href="#DejaVuSans-32" x="127.246094"/>
       <use xlink:href="#DejaVuSans-34" x="190.869141"/>
      </g>
     </g>
    </g>
    <g id="text_10">
     <!-- Date -->
     <g transform="translate(605.739844 384.754375) scale(0.1 -0.1)">
      <defs>
       <path id="DejaVuSans-44" d="M 1259 4147 
L 1259 519 
L 2022 519 
Q 2988 519 3436 956 
Q 3884 1394 3884 2338 
Q 3884 3275 3436 3711 
Q 2988 4147 2022 4147 
L 1259 4147 
z
M 628 4666 
L 1925 4666 
Q 3281 4666 3915 4102 
Q 4550 3538 4550 2338 
Q 4550 1131 3912 565 
Q 3275 0 1925 0 
L 628 0 
L 628 4666 
z
" transform="scale(0.015625)"/>
       <path id="DejaVuSans-61" d="M 2194 1759 
Q 1497 1759 1228 1600 
Q 959 1441 959 1056 
Q 959 750 1161 570 
Q 1363 391 1709 391 
Q 2188 391 2477 730 
Q 2766 1069 2766 1631 
L 2766 1759 
L 2194 1759 
z
M 3341 1997 
L 3341 0 
L 2766 0 
L 2766 531 
Q 2569 213 2275 61 
Q 1981 -91 1556 -91 
Q 1019 -91 701 211 
Q 384 513 384 1019 
Q 384 1609 779 1909 
Q 1175 2209 1959 2209 
L 2766 2209 
L 2766 2266 
Q 2766 2663 2505 2880 
Q 2244 3097 1772 3097 
Q 1472 3097 1187 3025 
Q 903 2953 641 2809 
L 641 3341 
Q 956 3463 1253 3523 
Q 1550 3584 1831 3584 
Q 2591 3584 2966 3190 
Q 3341 2797 3341 1997 
z
" transform="scale(0.015625)"/>
       <path id="DejaVuSans-74" d="M 1172 4494 
L 1172 3500 
L 2356 3500 
L 2356 3053 
L 1172 3053 
L 1172 1153 
Q 1172 725 1289 603 
Q 1406 481 1766 481 
L 2356 481 
L 2356 0 
L 1766 0 
Q 1100 0 847 248 
Q 594 497 594 1153 
L 594 3053 
L 172 3053 
L 172 3500 
L 594 3500 
L 594 4494 
L 1172 4494 
z
" transform="scale(0.015625)"/>
       <path id="DejaVuSans-65" d="M 3597 1894 
L 3597 1613 
L 953 1613 
Q 991 1019 1311 708 
Q 1631 397 2203 397 
Q 2534 397 2845 478 
Q 3156 559 3463 722 
L 3463 178 
Q 3153 47 2828 -22 
Q 2503 -91 2169 -91 
Q 1331 -91 842 396 
Q 353 884 353 1716 
Q 353 2575 817 3079 
Q 1281 3584 2069 3584 
Q 2775 3584 3186 3129 
Q 3597 2675 3597 1894 
z
M 3022 2063 
Q 3016 2534 2758 2815 
Q 2500 3097 2075 3097 
Q 1594 3097 1305 2825 
Q 1016 2553 972 2059 
L 3022 2063 
z
" transform="scale(0.015625)"/>
      </defs>
      <use xlink:href="#DejaVuSans-44"/>
      <use xlink:href="#DejaVuSans-61" x="77.001953"/>
      <use xlink:href="#DejaVuSans-74" x="138.28125"/>
      <use xlink:href="#DejaVuSans-65" x="177.490234"/>
     </g>
    </g>
   </g>
   <g id="matplotlib.axis_2">
    <g id="ytick_1">
     <g id="line2d_10">
      <defs>
       <path id="m8bb4370962" d="M 0 0 
L -3.5 0 
" style="stroke: #000000; stroke-width: 0.8"/>
      </defs>
      <g>
       <use xlink:href="#m8bb4370962" x="59.690625" y="341.357812" style="stroke: #000000; stroke-width: 0.8"/>
      </g>
     </g>
     <g id="text_11">
      <!-- 0 -->
      <g transform="translate(46.328125 345.157031) scale(0.1 -0.1)">
       <use xlink:href="#DejaVuSans-30"/>
      </g>
     </g>
    </g>
    <g id="ytick_2">
     <g id="line2d_11">
      <g>
       <use xlink:href="#m8bb4370962" x="59.690625" y="282.634805" style="stroke: #000000; stroke-width: 0.8"/>
      </g>
     </g>
     <g id="text_12">
      <!-- 5000 -->
      <g transform="translate(27.240625 286.434024) scale(0.1 -0.1)">
       <defs>
        <path id="DejaVuSans-35" d="M 691 4666 
L 3169 4666 
L 3169 4134 
L 1269 4134 
L 1269 2991 
Q 1406 3038 1543 3061 
Q 1681 3084 1819 3084 
Q 2600 3084 3056 2656 
Q 3513 2228 3513 1497 
Q 3513 744 3044 326 
Q 2575 -91 1722 -91 
Q 1428 -91 1123 -41 
Q 819 9 494 109 
L 494 744 
Q 775 591 1075 516 
Q 1375 441 1709 441 
Q 2250 441 2565 725 
Q 2881 1009 2881 1497 
Q 2881 1984 2565 2268 
Q 2250 2553 1709 2553 
Q 1456 2553 1204 2497 
Q 953 2441 691 2322 
L 691 4666 
z
" transform="scale(0.015625)"/>
       </defs>
       <use xlink:href="#DejaVuSans-35"/>
       <use xlink:href="#DejaVuSans-30" x="63.623047"/>
       <use xlink:href="#DejaVuSans-30" x="127.246094"/>
       <use xlink:href="#DejaVuSans-30" x="190.869141"/>
      </g>
     </g>
    </g>
    <g id="ytick_3">
     <g id="line2d_12">
      <g>
       <use xlink:href="#m8bb4370962" x="59.690625" y="223.911797" style="stroke: #000000; stroke-width: 0.8"/>
      </g>
     </g>
     <g id="text_13">
      <!-- 10000 -->
      <g transform="translate(20.878125 227.711016) scale(0.1 -0.1)">
       <use xlink:href="#DejaVuSans-31"/>
       <use xlink:href="#DejaVuSans-30" x="63.623047"/>
       <use xlink:href="#DejaVuSans-30" x="127.246094"/>
       <use xlink:href="#DejaVuSans-30" x="190.869141"/>
       <use xlink:href="#DejaVuSans-30" x="254.492188"/>
      </g>
     </g>
    </g>
    <g id="ytick_4">
     <g id="line2d_13">
      <g>
       <use xlink:href="#m8bb4370962" x="59.690625" y="165.18879" style="stroke: #000000; stroke-width: 0.8"/>
      </g>
     </g>
     <g id="text_14">
      <!-- 15000 -->
      <g transform="translate(20.878125 168.988008) scale(0.1 -0.1)">
       <use xlink:href="#DejaVuSans-31"/>
       <use xlink:href="#DejaVuSans-35" x="63.623047"/>
       <use xlink:href="#DejaVuSans-30" x="127.246094"/>
       <use xlink:href="#DejaVuSans-30" x="190.869141"/>
       <use xlink:href="#DejaVuSans-30" x="254.492188"/>
      </g>
     </g>
    </g>
    <g id="ytick_5">
     <g id="line2d_14">
      <g>
       <use xlink:href="#m8bb4370962" x="59.690625" y="106.465782" style="stroke: #000000; stroke-width: 0.8"/>
      </g>
     </g>
     <g id="text_15">
      <!-- 20000 -->
      <g transform="translate(20.878125 110.265001) scale(0.1 -0.1)">
       <use xlink:href="#DejaVuSans-32"/>
       <use xlink:href="#DejaVuSans-30" x="63.623047"/>
       <use xlink:href="#DejaVuSans-30" x="127.246094"/>
       <use xlink:href="#DejaVuSans-30" x="190.869141"/>
       <use xlink:href="#DejaVuSans-30" x="254.492188"/>
      </g>
     </g>
    </g>
    <g id="ytick_6">
     <g id="line2d_15">
      <g>
       <use xlink:href="#m8bb4370962" x="59.690625" y="47.742774" style="stroke: #000000; stroke-width: 0.8"/>
      </g>
     </g>
     <g id="text_16">
      <!-- 25000 -->
      <g transform="translate(20.878125 51.541993) scale(0.1 -0.1)">
       <use xlink:href="#DejaVuSans-32"/>
       <use xlink:href="#DejaVuSans-35" x="63.623047"/>
       <use xlink:href="#DejaVuSans-30" x="127.246094"/>
       <use xlink:href="#DejaVuSans-30" x="190.869141"/>
       <use xlink:href="#DejaVuSans-30" x="254.492188"/>
      </g>
     </g>
    </g>
    <g id="text_17">
     <!-- Ticket Redemptions -->
     <g transform="translate(14.798438 239.336719) rotate(-90) scale(0.1 -0.1)">
      <defs>
       <path id="DejaVuSans-54" d="M -19 4666 
L 3928 4666 
L 3928 4134 
L 2272 4134 
L 2272 0 
L 1638 0 
L 1638 4134 
L -19 4134 
L -19 4666 
z
" transform="scale(0.015625)"/>
       <path id="DejaVuSans-69" d="M 603 3500 
L 1178 3500 
L 1178 0 
L 603 0 
L 603 3500 
z
M 603 4863 
L 1178 4863 
L 1178 4134 
L 603 4134 
L 603 4863 
z
" transform="scale(0.015625)"/>
       <path id="DejaVuSans-63" d="M 3122 3366 
L 3122 2828 
Q 2878 2963 2633 3030 
Q 2388 3097 2138 3097 
Q 1578 3097 1268 2742 
Q 959 2388 959 1747 
Q 959 1106 1268 751 
Q 1578 397 2138 397 
Q 2388 397 2633 464 
Q 2878 531 3122 666 
L 3122 134 
Q 2881 22 2623 -34 
Q 2366 -91 2075 -91 
Q 1284 -91 818 406 
Q 353 903 353 1747 
Q 353 2603 823 3093 
Q 1294 3584 2113 3584 
Q 2378 3584 2631 3529 
Q 2884 3475 3122 3366 
z
" transform="scale(0.015625)"/>
       <path id="DejaVuSans-6b" d="M 581 4863 
L 1159 4863 
L 1159 1991 
L 2875 3500 
L 3609 3500 
L 1753 1863 
L 3688 0 
L 2938 0 
L 1159 1709 
L 1159 0 
L 581 0 
L 581 4863 
z
" transform="scale(0.015625)"/>
       <path id="DejaVuSans-20" transform="scale(0.015625)"/>
       <path id="DejaVuSans-52" d="M 2841 2188 
Q 3044 2119 3236 1894 
Q 3428 1669 3622 1275 
L 4263 0 
L 3584 0 
L 2988 1197 
Q 2756 1666 2539 1819 
Q 2322 1972 1947 1972 
L 1259 1972 
L 1259 0 
L 628 0 
L 628 4666 
L 2053 4666 
Q 2853 4666 3247 4331 
Q 3641 3997 3641 3322 
Q 3641 2881 3436 2590 
Q 3231 2300 2841 2188 
z
M 1259 4147 
L 1259 2491 
L 2053 2491 
Q 2509 2491 2742 2702 
Q 2975 2913 2975 3322 
Q 2975 3731 2742 3939 
Q 2509 4147 2053 4147 
L 1259 4147 
z
" transform="scale(0.015625)"/>
       <path id="DejaVuSans-64" d="M 2906 2969 
L 2906 4863 
L 3481 4863 
L 3481 0 
L 2906 0 
L 2906 525 
Q 2725 213 2448 61 
Q 2172 -91 1784 -91 
Q 1150 -91 751 415 
Q 353 922 353 1747 
Q 353 2572 751 3078 
Q 1150 3584 1784 3584 
Q 2172 3584 2448 3432 
Q 2725 3281 2906 2969 
z
M 947 1747 
Q 947 1113 1208 752 
Q 1469 391 1925 391 
Q 2381 391 2643 752 
Q 2906 1113 2906 1747 
Q 2906 2381 2643 2742 
Q 2381 3103 1925 3103 
Q 1469 3103 1208 2742 
Q 947 2381 947 1747 
z
" transform="scale(0.015625)"/>
       <path id="DejaVuSans-6d" d="M 3328 2828 
Q 3544 3216 3844 3400 
Q 4144 3584 4550 3584 
Q 5097 3584 5394 3201 
Q 5691 2819 5691 2113 
L 5691 0 
L 5113 0 
L 5113 2094 
Q 5113 2597 4934 2840 
Q 4756 3084 4391 3084 
Q 3944 3084 3684 2787 
Q 3425 2491 3425 1978 
L 3425 0 
L 2847 0 
L 2847 2094 
Q 2847 2600 2669 2842 
Q 2491 3084 2119 3084 
Q 1678 3084 1418 2786 
Q 1159 2488 1159 1978 
L 1159 0 
L 581 0 
L 581 3500 
L 1159 3500 
L 1159 2956 
Q 1356 3278 1631 3431 
Q 1906 3584 2284 3584 
Q 2666 3584 2933 3390 
Q 3200 3197 3328 2828 
z
" transform="scale(0.015625)"/>
       <path id="DejaVuSans-70" d="M 1159 525 
L 1159 -1331 
L 581 -1331 
L 581 3500 
L 1159 3500 
L 1159 2969 
Q 1341 3281 1617 3432 
Q 1894 3584 2278 3584 
Q 2916 3584 3314 3078 
Q 3713 2572 3713 1747 
Q 3713 922 3314 415 
Q 2916 -91 2278 -91 
Q 1894 -91 1617 61 
Q 1341 213 1159 525 
z
M 3116 1747 
Q 3116 2381 2855 2742 
Q 2594 3103 2138 3103 
Q 1681 3103 1420 2742 
Q 1159 2381 1159 1747 
Q 1159 1113 1420 752 
Q 1681 391 2138 391 
Q 2594 391 2855 752 
Q 3116 1113 3116 1747 
z
" transform="scale(0.015625)"/>
       <path id="DejaVuSans-6f" d="M 1959 3097 
Q 1497 3097 1228 2736 
Q 959 2375 959 1747 
Q 959 1119 1226 758 
Q 1494 397 1959 397 
Q 2419 397 2687 759 
Q 2956 1122 2956 1747 
Q 2956 2369 2687 2733 
Q 2419 3097 1959 3097 
z
M 1959 3584 
Q 2709 3584 3137 3096 
Q 3566 2609 3566 1747 
Q 3566 888 3137 398 
Q 2709 -91 1959 -91 
Q 1206 -91 779 398 
Q 353 888 353 1747 
Q 353 2609 779 3096 
Q 1206 3584 1959 3584 
z
" transform="scale(0.015625)"/>
       <path id="DejaVuSans-6e" d="M 3513 2113 
L 3513 0 
L 2938 0 
L 2938 2094 
Q 2938 2591 2744 2837 
Q 2550 3084 2163 3084 
Q 1697 3084 1428 2787 
Q 1159 2491 1159 1978 
L 1159 0 
L 581 0 
L 581 3500 
L 1159 3500 
L 1159 2956 
Q 1366 3272 1645 3428 
Q 1925 3584 2291 3584 
Q 2894 3584 3203 3211 
Q 3513 2838 3513 2113 
z
" transform="scale(0.015625)"/>
       <path id="DejaVuSans-73" d="M 2834 3397 
L 2834 2853 
Q 2591 2978 2328 3040 
Q 2066 3103 1784 3103 
Q 1356 3103 1142 2972 
Q 928 2841 928 2578 
Q 928 2378 1081 2264 
Q 1234 2150 1697 2047 
L 1894 2003 
Q 2506 1872 2764 1633 
Q 3022 1394 3022 966 
Q 3022 478 2636 193 
Q 2250 -91 1575 -91 
Q 1294 -91 989 -36 
Q 684 19 347 128 
L 347 722 
Q 666 556 975 473 
Q 1284 391 1588 391 
Q 1994 391 2212 530 
Q 2431 669 2431 922 
Q 2431 1156 2273 1281 
Q 2116 1406 1581 1522 
L 1381 1569 
Q 847 1681 609 1914 
Q 372 2147 372 2553 
Q 372 3047 722 3315 
Q 1072 3584 1716 3584 
Q 2034 3584 2315 3537 
Q 2597 3491 2834 3397 
z
" transform="scale(0.015625)"/>
      </defs>
      <use xlink:href="#DejaVuSans-54"/>
      <use xlink:href="#DejaVuSans-69" x="57.958984"/>
      <use xlink:href="#DejaVuSans-63" x="85.742188"/>
      <use xlink:href="#DejaVuSans-6b" x="140.722656"/>
      <use xlink:href="#DejaVuSans-65" x="195.007812"/>
      <use xlink:href="#DejaVuSans-74" x="256.53125"/>
      <use xlink:href="#DejaVuSans-20" x="295.740234"/>
      <use xlink:href="#DejaVuSans-52" x="327.527344"/>
      <use xlink:href="#DejaVuSans-65" x="392.509766"/>
      <use xlink:href="#DejaVuSans-64" x="454.033203"/>
      <use xlink:href="#DejaVuSans-65" x="517.509766"/>
      <use xlink:href="#DejaVuSans-6d" x="579.033203"/>
      <use xlink:href="#DejaVuSans-70" x="676.445312"/>
      <use xlink:href="#DejaVuSans-74" x="739.921875"/>
      <use xlink:href="#DejaVuSans-69" x="779.130859"/>
      <use xlink:href="#DejaVuSans-6f" x="806.914062"/>
      <use xlink:href="#DejaVuSans-6e" x="868.095703"/>
      <use xlink:href="#DejaVuSans-73" x="931.474609"/>
     </g>
    </g>
   </g>
   <g id="line2d_16">
    <path d="M 110.417898 321.873519 
L 110.761462 209.348491 
L 111.105026 221.257517 
L 111.448591 286.956818 
L 111.792155 296.493435 
L 112.135719 291.196619 
L 112.479284 305.736436 
L 112.822848 262.116986 
L 113.166412 160.855032 
L 113.509977 310.92755 
L 113.853541 297.65615 
L 114.197105 313.206003 
L 114.54067 319.747746 
L 114.884234 295.835737 
L 115.227798 250.407618 
L 115.571363 228.738829 
L 115.914927 221.022625 
L 116.258491 293.815666 
L 116.602056 291.278832 
L 117.289184 297.06892 
L 117.632749 239.59084 
L 117.976313 64.37313 
L 118.319877 113.183694 
L 118.663442 289.669821 
L 119.007006 276.363188 
L 119.35057 271.324754 
L 119.694135 272.064664 
L 120.037699 235.315805 
L 120.381263 142.016691 
L 120.724828 165.411937 
L 121.068392 257.912419 
L 121.411956 279.651676 
L 121.75552 261.682436 
L 122.442649 204.615417 
L 122.786213 113.031014 
L 123.129778 156.991058 
L 123.473342 219.718975 
L 123.816906 242.726649 
L 124.160471 218.07473 
L 124.504035 255.833624 
L 124.847599 271.771048 
L 125.191164 173.527457 
L 125.534728 149.521491 
L 125.878292 242.738394 
L 126.221857 238.075787 
L 126.565421 248.57546 
L 126.908985 286.16993 
L 127.25255 229.502228 
L 127.596114 74.872804 
L 127.939678 74.825826 
L 128.283243 247.952997 
L 128.626807 220.153525 
L 128.970371 217.851583 
L 129.313936 204.662395 
L 129.6575 228.433469 
L 130.001064 111.328047 
L 130.344629 174.748895 
L 130.688193 265.017903 
L 131.031757 215.338238 
L 131.375322 224.228902 
L 131.718886 226.354674 
L 132.06245 211.532987 
L 132.406015 152.469386 
L 132.749579 189.781985 
L 133.093143 60.332987 
L 133.436708 213.095019 
L 133.780272 188.584036 
L 134.123836 202.724536 
L 134.467401 258.088588 
L 134.810965 90.774994 
L 135.154529 113.195439 
L 135.498094 220.047823 
L 135.841658 214.692285 
L 136.185222 213.905397 
L 136.528786 228.128109 
L 137.215915 281.789194 
L 137.559479 136.766854 
L 137.903044 215.13858 
L 138.246608 322.531216 
L 138.590172 216.219083 
L 139.277301 190.709809 
L 139.620865 127.934914 
L 140.307994 225.403362 
L 140.651558 233.636327 
L 140.995123 212.460811 
L 141.338687 247.213087 
L 142.025816 129.414733 
L 142.36938 186.282094 
L 142.712944 210.640398 
L 143.400073 235.362784 
L 144.087202 211.697412 
L 144.430766 120.688494 
L 144.77433 97.903968 
L 145.117895 109.77776 
L 145.461459 279.09968 
L 145.805023 308.285015 
L 146.148588 316.294833 
L 146.492152 283.985434 
L 146.835716 310.140662 
L 147.179281 191.813801 
L 147.522845 296.599136 
L 147.866409 297.632661 
L 148.209974 317.586739 
L 148.897102 290.022159 
L 149.240667 316.694149 
L 149.584231 229.102911 
L 149.927795 303.575429 
L 150.27136 300.18124 
L 150.614924 299.229927 
L 150.958488 301.919441 
L 151.302053 322.390281 
L 151.645617 252.909218 
L 151.989181 265.276284 
L 152.332745 331.586304 
L 152.67631 301.179531 
L 153.363438 333.7708 
L 153.707003 321.215821 
L 154.050567 328.051179 
L 154.394131 319.970893 
L 154.737696 322.237601 
L 155.08126 316.424023 
L 155.424824 313.323449 
L 155.768389 311.961075 
L 156.111953 295.683057 
L 156.455517 291.384533 
L 156.799082 298.818866 
L 157.142646 298.219891 
L 157.48621 325.52609 
L 157.829775 318.244437 
L 158.173339 328.051179 
L 158.516903 323.047979 
L 158.860468 295.283741 
L 159.204032 332.232257 
L 159.547596 335.649936 
L 159.891161 325.937151 
L 160.234725 319.524598 
L 160.578289 337.258947 
L 160.921854 335.520746 
L 161.265418 322.296324 
L 161.608982 318.502818 
L 161.952547 331.70375 
L 162.296111 329.448787 
L 162.639675 330.975585 
L 162.98324 338.49213 
L 163.326804 326.054597 
L 163.670368 324.116737 
L 164.013933 334.264073 
L 164.357497 327.358247 
L 165.044626 334.087904 
L 165.38819 333.817778 
L 165.731754 329.624956 
L 166.075319 317.081721 
L 166.418883 319.277962 
L 167.106012 334.980494 
L 167.79314 332.1383 
L 168.136704 333.113102 
L 168.480269 325.06805 
L 168.823833 323.376828 
L 169.167397 331.39839 
L 169.510962 334.111393 
L 169.854526 335.344577 
L 170.19809 333.347994 
L 170.541655 324.375119 
L 170.885219 337.223713 
L 171.228783 337.01231 
L 171.572348 337.552562 
L 171.915912 336.166699 
L 172.259476 335.602958 
L 172.603041 337.799198 
L 172.946605 337.129756 
L 173.290169 331.692005 
L 173.633734 334.334541 
L 173.977298 337.951878 
L 174.320862 336.765673 
L 174.664427 337.399882 
L 175.007991 337.388137 
L 175.351555 336.201932 
L 175.69512 331.11652 
L 176.038684 335.943551 
L 176.725813 337.118011 
L 177.069377 336.213677 
L 177.412941 337.963623 
L 177.756506 337.576051 
L 178.10007 337.928389 
L 178.443634 337.9049 
L 178.787199 337.211968 
L 179.130763 338.045835 
L 179.474327 338.210259 
L 179.817892 338.997148 
L 180.161456 336.988821 
L 180.848585 336.260655 
L 181.192149 334.94526 
L 181.535713 337.094522 
L 181.879278 336.542526 
L 182.222842 334.992238 
L 182.566406 336.072742 
L 182.909971 334.921771 
L 183.253535 334.898282 
L 183.597099 337.388137 
L 183.940663 335.68517 
L 184.284228 334.780836 
L 184.627792 335.215386 
L 184.971356 332.690297 
L 185.314921 335.133174 
L 185.658485 331.351412 
L 186.002049 334.134883 
L 186.345614 338.539108 
L 186.689178 337.493839 
L 187.032742 338.104558 
L 187.376307 336.213677 
L 187.719871 336.448569 
L 188.063435 337.247202 
L 188.407 337.552562 
L 188.750564 338.292472 
L 189.094128 334.863048 
L 189.437693 337.399882 
L 189.781257 337.681752 
L 190.124821 335.779127 
L 190.468386 335.473767 
L 190.81195 335.943551 
L 191.155514 339.032381 
L 191.499079 338.914935 
L 191.842643 338.315961 
L 192.186207 336.70695 
L 192.529772 340.735349 
L 192.873336 338.081069 
L 193.2169 337.963623 
L 193.560465 336.965332 
L 193.904029 337.928389 
L 194.247593 336.389846 
L 194.591158 337.611285 
L 194.934722 337.423371 
L 195.621851 336.460314 
L 195.965415 337.822687 
L 196.308979 337.740475 
L 196.652544 337.094522 
L 196.996108 338.691788 
L 197.339672 336.131465 
L 197.683237 336.930098 
L 198.026801 336.742184 
L 198.370365 339.607867 
L 198.713929 335.544235 
L 199.057494 336.847886 
L 199.401058 336.718695 
L 199.744622 334.710368 
L 200.088187 339.067615 
L 200.431751 337.141501 
L 200.775315 336.084486 
L 201.11888 336.037508 
L 201.462444 335.673425 
L 201.806008 334.557688 
L 202.149573 320.863483 
L 202.493137 317.880354 
L 202.836701 325.608302 
L 203.180266 336.295889 
L 203.52383 335.767382 
L 203.867394 329.108193 
L 204.210959 335.908317 
L 204.554523 335.203641 
L 204.898087 335.37981 
L 205.241652 333.359739 
L 205.585216 338.33945 
L 205.92878 335.133174 
L 206.272345 335.285854 
L 206.615909 335.955296 
L 206.959473 334.933515 
L 207.303038 336.659972 
L 207.646602 336.190188 
L 207.990166 337.505583 
L 208.333731 334.910026 
L 208.677295 333.794289 
L 209.020859 337.071033 
L 209.364424 336.201932 
L 209.707988 335.814361 
L 210.051552 337.388137 
L 210.395117 338.433407 
L 210.738681 337.893155 
L 211.42581 332.678552 
L 211.769374 336.472058 
L 212.112938 331.891664 
L 212.456503 336.530781 
L 212.800067 329.777635 
L 213.143631 336.601249 
L 213.487196 332.549361 
L 213.83076 335.473767 
L 214.174324 335.53249 
L 214.517888 337.670008 
L 214.861453 336.460314 
L 215.205017 333.03089 
L 215.548581 333.33625 
L 215.892146 336.025763 
L 216.23571 337.305925 
L 216.579274 329.836358 
L 216.922839 316.940786 
L 217.266403 335.743893 
L 217.609967 337.987112 
L 217.953532 332.713786 
L 218.297096 338.045835 
L 218.64066 334.557688 
L 218.984225 312.700985 
L 219.327789 314.897225 
L 219.671353 325.126773 
L 220.014918 330.822905 
L 220.358482 332.936933 
L 220.702046 326.594848 
L 221.045611 277.267522 
L 221.389175 317.10521 
L 221.732739 293.204946 
L 222.419868 327.781053 
L 222.763432 334.275818 
L 223.106997 337.094522 
L 223.450561 330.000783 
L 223.794125 308.085356 
L 224.13769 294.87268 
L 224.481254 323.259382 
L 224.824818 338.057579 
L 225.168383 324.457331 
L 225.855511 311.20942 
L 226.199076 297.773596 
L 226.54264 334.369775 
L 226.886204 337.247202 
L 227.229769 334.252329 
L 227.573333 308.70782 
L 227.916897 335.074451 
L 228.260462 339.302507 
L 228.604026 339.643101 
L 228.94759 338.938425 
L 229.291155 334.099649 
L 229.634719 335.062706 
L 229.978283 334.264073 
L 230.321847 335.227131 
L 230.665412 337.200224 
L 231.008976 336.624738 
L 231.35254 337.047544 
L 231.696105 336.542526 
L 232.039669 336.495547 
L 232.383233 336.765673 
L 232.726798 336.847886 
L 233.070362 336.671716 
L 233.413926 337.106267 
L 233.757491 338.691788 
L 234.101055 339.114594 
L 234.444619 337.305925 
L 234.788184 336.894864 
L 235.131748 337.423371 
L 235.475312 336.765673 
L 235.818877 337.223713 
L 236.162441 339.384719 
L 236.506005 337.728731 
L 236.84957 337.846177 
L 237.193134 338.398173 
L 237.536698 337.282436 
L 237.880263 336.918353 
L 238.223827 337.705241 
L 238.567391 338.797489 
L 238.910956 337.987112 
L 239.25452 338.233748 
L 239.598084 337.493839 
L 239.941649 337.857921 
L 240.285213 339.279018 
L 240.628777 339.07936 
L 240.972342 338.433407 
L 241.315906 338.33945 
L 241.65947 338.022346 
L 242.003035 337.940133 
L 242.346599 338.609576 
L 242.690163 337.364648 
L 243.033728 337.035799 
L 243.377292 337.728731 
L 243.720856 337.670008 
L 244.064421 337.846177 
L 244.407985 337.576051 
L 244.751549 337.082778 
L 245.095114 337.799198 
L 245.438678 335.931807 
L 245.782242 338.292472 
L 246.125806 338.844468 
L 246.469371 338.832723 
L 246.812935 338.092813 
L 247.156499 338.550853 
L 247.500064 337.364648 
L 247.843628 336.883119 
L 248.187192 337.305925 
L 248.530757 336.812652 
L 248.874321 335.99053 
L 249.217885 335.602958 
L 249.56145 334.757346 
L 249.905014 335.68517 
L 250.248578 333.488929 
L 250.592143 336.495547 
L 250.935707 336.965332 
L 251.279271 333.841268 
L 251.622836 336.284145 
L 251.9664 337.01231 
L 252.309964 335.755638 
L 252.653529 331.327923 
L 252.997093 336.495547 
L 253.340657 335.83785 
L 253.684222 333.33625 
L 254.37135 335.555979 
L 254.714915 331.163498 
L 255.058479 334.604667 
L 255.402043 336.671716 
L 255.745608 335.567724 
L 256.089172 333.171825 
L 256.432736 334.94526 
L 256.776301 335.391555 
L 257.119865 331.668516 
L 257.463429 331.069542 
L 257.806994 328.650154 
L 258.150558 271.818027 
L 258.494122 256.585279 
L 258.837687 260.6724 
L 259.181251 268.353369 
L 259.524815 304.550231 
L 259.86838 232.297443 
L 260.211944 134.723293 
L 260.555508 265.593388 
L 260.899072 229.466994 
L 261.242637 230.841112 
L 261.586201 233.777263 
L 261.929765 287.825919 
L 262.616894 133.865937 
L 262.960458 236.584222 
L 263.304023 271.019394 
L 263.647587 226.765735 
L 263.991151 285.817592 
L 264.334716 256.467833 
L 265.021844 119.561013 
L 265.365409 237.042262 
L 265.708973 312.301668 
L 266.052537 246.297008 
L 266.396102 266.685636 
L 266.739666 234.317514 
L 267.08323 172.916737 
L 267.426795 181.619487 
L 267.770359 254.330315 
L 268.113923 254.271592 
L 268.457488 242.632692 
L 268.801052 266.732614 
L 269.144616 250.219705 
L 269.488181 185.671375 
L 269.831745 220.411906 
L 270.175309 153.902228 
L 270.518874 319.219239 
L 270.862438 311.643971 
L 271.206002 324.081504 
L 271.549567 312.677496 
L 271.893131 259.591897 
L 272.236695 226.847948 
L 272.58026 310.457766 
L 272.923824 298.807121 
L 273.267388 314.380463 
L 273.954517 294.485108 
L 274.298081 187.609234 
L 274.641646 198.508224 
L 274.98521 311.831884 
L 275.328774 312.289924 
L 275.672339 304.973037 
L 276.015903 303.258325 
L 276.359467 294.661277 
L 276.703031 180.515495 
L 277.046596 190.68632 
L 277.39016 292.006997 
L 277.733724 295.506888 
L 278.764417 331.140009 
L 279.107982 285.841081 
L 279.451546 275.482343 
L 279.79511 315.507945 
L 280.138675 307.134044 
L 280.482239 327.146845 
L 280.825803 308.696076 
L 281.169368 315.413988 
L 281.512932 295.178039 
L 281.856496 268.376859 
L 282.200061 301.872462 
L 282.543625 311.221165 
L 282.887189 332.020854 
L 283.230754 328.203859 
L 283.574318 322.120155 
L 283.917882 320.922206 
L 284.261447 328.967258 
L 284.605011 325.925406 
L 284.948575 321.685605 
L 285.29214 320.100084 
L 285.635704 317.939077 
L 285.979268 312.372136 
L 286.322833 292.817374 
L 286.666397 290.163094 
L 287.009961 327.792798 
L 287.353526 328.979002 
L 287.69709 328.650154 
L 288.040654 325.831449 
L 288.384219 325.150262 
L 288.727783 334.545944 
L 289.071347 326.089831 
L 289.414912 330.317887 
L 289.758476 327.099866 
L 290.10204 332.655063 
L 290.445605 333.864757 
L 290.789169 325.678769 
L 291.132733 329.143427 
L 291.476298 337.482094 
L 291.819862 331.562815 
L 292.163426 331.692005 
L 292.50699 327.510927 
L 292.850555 333.806034 
L 293.194119 333.829523 
L 293.537683 332.044343 
L 293.881248 333.629865 
L 294.224812 333.524163 
L 294.568376 332.760764 
L 294.911941 334.017437 
L 295.255505 332.302725 
L 295.599069 329.472276 
L 295.942634 336.201932 
L 296.286198 333.841268 
L 296.973327 332.525872 
L 297.316891 333.500674 
L 297.660455 333.394973 
L 298.00402 329.307851 
L 298.347584 330.541034 
L 298.691148 335.344577 
L 299.378277 329.906826 
L 299.721841 333.911735 
L 300.065406 334.804325 
L 300.40897 334.51071 
L 300.752534 330.576268 
L 301.096099 333.265782 
L 301.439663 334.66339 
L 301.783227 334.921771 
L 302.126792 333.888246 
L 302.470356 332.361448 
L 303.157485 335.509001 
L 303.844613 335.4033 
L 304.188178 336.014019 
L 304.531742 332.091322 
L 304.875306 334.898282 
L 305.218871 334.874792 
L 305.562435 335.732148 
L 305.905999 335.896573 
L 306.249564 335.415044 
L 306.593128 333.477185 
L 306.936692 333.254037 
L 307.280256 332.795998 
L 307.623821 335.344577 
L 307.967385 336.448569 
L 308.310949 335.074451 
L 308.654514 335.978785 
L 308.998078 337.200224 
L 309.341642 335.732148 
L 309.685207 335.544235 
L 310.028771 336.107976 
L 310.372335 334.980494 
L 311.059464 337.258947 
L 311.403028 340.888028 
L 311.746593 341.357812 
L 312.777286 341.357812 
L 313.12085 336.542526 
L 313.807979 334.94526 
L 314.151543 334.79258 
L 314.495107 334.968749 
L 314.838672 336.213677 
L 315.182236 336.107976 
L 315.5258 336.366357 
L 315.869365 336.436824 
L 316.212929 335.344577 
L 316.556493 335.297598 
L 316.900058 334.94526 
L 317.243622 334.933515 
L 317.587186 333.148336 
L 317.930751 335.567724 
L 318.274315 336.11972 
L 318.617879 334.94526 
L 318.961444 334.804325 
L 319.305008 334.804325 
L 319.648572 334.029181 
L 319.992137 335.931807 
L 320.335701 334.322796 
L 320.679265 335.873084 
L 321.02283 335.708659 
L 321.366394 335.708659 
L 321.709958 335.227131 
L 322.053523 335.215386 
L 322.397087 341.193388 
L 323.084215 335.344577 
L 323.42778 334.933515 
L 323.771344 336.166699 
L 324.114908 335.309343 
L 324.802037 336.977076 
L 325.145601 336.988821 
L 325.489166 334.416753 
L 325.83273 334.628156 
L 326.176294 333.430206 
L 326.519859 334.604667 
L 326.863423 333.676843 
L 327.206987 335.68517 
L 327.550552 330.752437 
L 327.894116 337.176734 
L 328.23768 335.238875 
L 328.581245 334.628156 
L 328.924809 333.430206 
L 329.268373 334.240584 
L 329.611938 332.995656 
L 329.955502 333.289271 
L 330.299066 332.326214 
L 330.642631 330.96384 
L 330.986195 334.040926 
L 331.329759 335.203641 
L 331.673324 334.475476 
L 332.016888 329.977294 
L 332.704017 333.794289 
L 333.047581 334.592922 
L 333.391145 334.957005 
L 333.73471 333.46544 
L 334.078274 334.040926 
L 334.765403 332.431915 
L 335.108967 335.215386 
L 335.452531 332.584595 
L 335.796096 333.876501 
L 336.13966 333.136591 
L 336.483224 333.993947 
L 336.826789 329.777635 
L 337.170353 330.658481 
L 337.513917 333.383228 
L 337.857482 333.864757 
L 338.201046 332.572851 
L 338.54461 333.441951 
L 338.888174 331.821196 
L 339.231739 328.89679 
L 339.575303 331.128265 
L 339.918867 330.705459 
L 340.262432 335.285854 
L 340.605996 330.494056 
L 340.94956 335.274109 
L 341.293125 324.187205 
L 341.636689 325.279453 
L 341.980253 327.005909 
L 342.323818 327.828032 
L 342.667382 334.957005 
L 343.010946 335.555979 
L 343.354511 332.572851 
L 343.698075 334.66339 
L 344.041639 332.514128 
L 344.385204 333.759055 
L 344.728768 332.1383 
L 345.759461 334.05267 
L 346.103025 332.784253 
L 346.44659 337.822687 
L 346.790154 339.784036 
L 347.820847 331.128265 
L 348.164411 332.831232 
L 348.507976 326.559615 
L 348.85154 315.719347 
L 349.195104 311.620481 
L 350.225797 332.619829 
L 350.569362 319.947404 
L 350.912926 317.821631 
L 351.25649 328.262582 
L 351.600055 316.576703 
L 352.287183 303.70462 
L 352.630748 311.878863 
L 352.974312 327.428715 
L 353.317876 327.851521 
L 353.661441 261.318353 
L 354.005005 312.630517 
L 354.348569 312.301668 
L 354.692133 308.226292 
L 355.035698 312.184222 
L 355.379262 321.356756 
L 355.722826 316.377045 
L 356.066391 309.588665 
L 356.409955 255.08197 
L 357.097084 326.277744 
L 357.440648 295.812248 
L 358.127777 306.51158 
L 358.471341 325.103284 
L 358.814905 159.398701 
L 359.15847 162.651956 
L 359.502034 323.975802 
L 359.845598 294.87268 
L 360.189163 293.451583 
L 360.532727 274.131713 
L 360.876291 237.512046 
L 361.219856 215.385217 
L 361.56342 275.40013 
L 361.906984 289.963436 
L 362.250549 292.558993 
L 362.594113 310.03496 
L 362.937677 284.983725 
L 363.281242 206.858636 
L 363.624806 304.949548 
L 364.311935 310.422532 
L 364.655499 303.70462 
L 364.999063 289.41144 
L 365.342628 257.12553 
L 365.686192 209.031387 
L 366.029756 180.19839 
L 366.373321 273.50925 
L 366.716885 278.406748 
L 367.060449 314.45093 
L 367.404014 270.890203 
L 367.747578 249.280137 
L 368.091142 88.649222 
L 368.434707 110.21231 
L 368.778271 299.828902 
L 369.121835 262.070008 
L 369.465399 264.994413 
L 369.808964 253.684362 
L 370.152528 232.309187 
L 370.496092 304.092192 
L 370.839657 321.345012 
L 371.183221 222.596402 
L 371.526785 250.889147 
L 371.87035 322.56645 
L 372.213914 240.142837 
L 372.557478 213.435613 
L 373.244607 38.957812 
L 373.588171 174.478769 
L 373.931736 239.684797 
L 374.2753 220.552841 
L 374.618864 265.217561 
L 374.962429 199.694429 
L 375.305993 101.439093 
L 375.649557 91.373969 
L 375.993122 235.398018 
L 376.336686 238.028808 
L 377.367379 219.906888 
L 377.710943 118.586211 
L 378.054508 87.885822 
L 378.398072 277.92522 
L 379.085201 166.504185 
L 379.428765 194.702973 
L 379.772329 163.039528 
L 380.115894 90.281721 
L 380.459458 306.311922 
L 380.803022 241.5287 
L 381.146587 266.955762 
L 381.490151 227.329476 
L 381.833715 247.048662 
L 382.17728 198.602181 
L 382.520844 107.722454 
L 382.864408 111.198856 
L 383.207973 199.729663 
L 383.551537 236.114438 
L 383.895101 258.593606 
L 384.238666 201.86718 
L 384.58223 196.311984 
L 384.925794 103.012869 
L 385.269358 66.545881 
L 385.956487 247.483213 
L 386.300051 309.670878 
L 386.643616 209.125344 
L 386.98718 182.371142 
L 387.330744 68.178381 
L 387.674309 117.106391 
L 388.017873 228.985465 
L 388.361437 219.448849 
L 388.705002 204.36878 
L 389.39213 295.436421 
L 389.735695 107.745944 
L 390.079259 100.02974 
L 390.766388 328.579686 
L 391.109952 239.61433 
L 391.453516 188.865906 
L 391.797081 190.22828 
L 392.140645 239.391182 
L 392.484209 147.430952 
L 392.827774 285.453509 
L 393.171338 227.717048 
L 393.514902 280.473798 
L 393.858467 212.378599 
L 394.202031 203.311766 
L 394.545595 95.085263 
L 394.88916 153.726059 
L 395.232724 171.436918 
L 395.576288 297.233345 
L 395.919853 291.525468 
L 396.263417 309.659133 
L 396.606981 291.76036 
L 396.950546 235.433251 
L 397.29411 275.094771 
L 397.637674 332.126556 
L 397.981239 310.868827 
L 398.324803 300.075538 
L 398.668367 297.256834 
L 399.011932 283.703564 
L 399.355496 184.132832 
L 399.69906 189.112543 
L 400.042625 297.174622 
L 400.386189 293.639497 
L 400.729753 300.451365 
L 401.073317 317.633717 
L 401.416882 305.994817 
L 401.760446 261.095206 
L 402.10401 250.20796 
L 402.447575 317.081721 
L 402.791139 327.346503 
L 403.134703 310.481255 
L 403.478268 306.887407 
L 403.821832 298.666186 
L 404.165396 270.620078 
L 404.508961 307.615572 
L 404.852525 325.690514 
L 405.196089 330.364865 
L 405.539654 313.969402 
L 405.883218 308.472928 
L 406.226782 315.919006 
L 406.570347 319.01958 
L 407.257475 310.727892 
L 407.60104 295.483399 
L 407.944604 289.928202 
L 408.288168 315.789815 
L 408.631733 318.831667 
L 408.975297 315.895516 
L 409.318861 303.775088 
L 409.662426 327.910244 
L 410.00599 319.736001 
L 410.349554 325.37341 
L 410.693119 323.329849 
L 411.036683 313.14728 
L 411.380247 315.965984 
L 411.723812 325.115029 
L 412.067376 322.848321 
L 412.41094 327.240801 
L 412.754505 323.599975 
L 413.098069 323.717421 
L 413.441633 326.418679 
L 413.785198 330.599758 
L 414.128762 332.619829 
L 414.472326 330.952096 
L 414.815891 319.888681 
L 415.159455 327.769309 
L 415.503019 332.795998 
L 415.846584 331.692005 
L 416.190148 327.651863 
L 416.533712 318.855156 
L 416.877276 331.304434 
L 417.220841 330.787671 
L 417.907969 329.014236 
L 418.251534 331.527581 
L 418.595098 330.482311 
L 419.282227 329.260873 
L 419.625791 331.257455 
L 419.969355 330.212186 
L 420.31292 328.145136 
L 420.656484 334.534199 
L 421.000048 332.572851 
L 421.343613 333.254037 
L 421.687177 330.000783 
L 422.030741 330.822905 
L 422.374306 330.846394 
L 422.71787 331.762473 
L 423.061434 329.953804 
L 423.404999 337.211968 
L 423.748563 333.136591 
L 424.092127 333.46544 
L 424.435692 332.59634 
L 424.779256 331.2692 
L 425.12282 332.373192 
L 425.466385 331.809451 
L 425.809949 332.819487 
L 426.153513 334.769091 
L 426.497078 332.608084 
L 426.840642 332.056088 
L 427.184206 330.670225 
L 427.871335 334.851303 
L 428.214899 334.968749 
L 428.558464 332.819487 
L 428.902028 332.995656 
L 429.245592 332.842976 
L 429.589157 329.225639 
L 429.932721 331.374901 
L 430.61985 334.240584 
L 430.963414 334.07616 
L 431.994107 329.895081 
L 432.337671 330.541034 
L 432.681235 331.656772 
L 433.0248 333.61812 
L 433.368364 334.745602 
L 433.711928 333.794289 
L 434.055493 333.500674 
L 434.399057 334.287562 
L 434.742621 333.653354 
L 435.086186 332.502383 
L 435.42975 330.37661 
L 436.116879 334.416753 
L 436.460443 332.995656 
L 436.804007 334.134883 
L 437.147572 334.545944 
L 437.491136 329.50751 
L 438.178265 334.757346 
L 438.521829 334.134883 
L 438.865393 332.126556 
L 439.208958 332.690297 
L 439.552522 332.819487 
L 439.896086 332.760764 
L 440.239651 336.178443 
L 440.583215 336.507292 
L 440.926779 332.795998 
L 441.270344 332.983912 
L 441.613908 332.478894 
L 441.957472 335.509001 
L 442.301037 332.384937 
L 442.644601 337.153245 
L 442.988165 338.116302 
L 443.33173 337.176734 
L 443.675294 332.995656 
L 444.018858 333.559397 
L 444.362423 332.150045 
L 444.705987 331.715495 
L 445.393116 337.352903 
L 445.73668 334.322796 
L 446.080244 337.094522 
L 446.423809 332.467149 
L 446.767373 334.111393 
L 447.110937 332.866466 
L 447.454501 334.757346 
L 447.798066 335.4033 
L 448.14163 332.490638 
L 448.485194 334.123138 
L 448.828759 337.129756 
L 449.172323 332.995656 
L 449.515887 331.938642 
L 449.859452 335.074451 
L 450.203016 336.049253 
L 450.54658 332.631574 
L 450.890145 340.700115 
L 451.233709 337.9049 
L 451.577273 332.467149 
L 451.920838 335.168407 
L 452.264402 334.134883 
L 452.607966 336.612993 
L 452.951531 334.745602 
L 453.295095 332.00911 
L 453.638659 332.608084 
L 453.982224 332.408426 
L 454.325788 331.457113 
L 454.669352 333.359739 
L 455.012917 339.07936 
L 455.356481 334.287562 
L 455.700045 333.113102 
L 456.04361 334.851303 
L 456.730738 330.270909 
L 457.074303 336.671716 
L 457.761431 333.066124 
L 458.104996 333.606375 
L 458.44856 331.386646 
L 458.792124 332.59634 
L 459.135689 332.173534 
L 459.479253 331.527581 
L 459.822817 337.44686 
L 460.509946 333.782545 
L 460.85351 335.873084 
L 461.197075 335.215386 
L 461.540639 333.535908 
L 461.884203 334.111393 
L 462.227768 333.864757 
L 462.571332 334.416753 
L 462.914896 329.390064 
L 463.25846 330.306142 
L 463.602025 329.378319 
L 463.945589 331.821196 
L 464.289153 328.814578 
L 464.632718 330.81116 
L 465.319846 329.812869 
L 465.663411 328.133391 
L 466.006975 331.926897 
L 466.350539 324.48082 
L 466.694104 337.540817 
L 467.037668 336.612993 
L 467.381232 330.693714 
L 467.724797 330.740693 
L 468.068361 329.765891 
L 468.411925 329.331341 
L 468.75549 332.44366 
L 469.099054 321.204076 
L 469.442618 328.849812 
L 469.786183 325.596557 
L 470.129747 329.190405 
L 470.473311 327.781053 
L 470.816876 331.926897 
L 471.16044 328.791089 
L 471.504004 305.748181 
L 471.847569 338.374684 
L 472.191133 327.264291 
L 472.534697 328.18037 
L 472.878262 317.927332 
L 473.221826 323.423806 
L 473.56539 334.921771 
L 473.908955 315.21433 
L 474.252519 271.641858 
L 474.939648 328.885046 
L 475.283212 318.420606 
L 475.626776 315.507945 
L 475.970341 330.96384 
L 476.657469 312.078521 
L 477.001034 329.284362 
L 477.344598 321.591648 
L 477.688162 329.765891 
L 478.375291 321.861774 
L 478.718855 317.880354 
L 479.062419 277.948709 
L 479.405984 319.17226 
L 479.749548 324.774435 
L 480.093112 321.345012 
L 480.436677 330.893373 
L 480.780241 320.440677 
L 481.123805 295.483399 
L 481.46737 331.280944 
L 481.810934 333.18357 
L 482.498063 318.89039 
L 482.841627 317.868609 
L 483.185191 305.207929 
L 483.528756 281.213708 
L 483.87232 187.797148 
L 484.215884 274.836389 
L 484.559449 305.207929 
L 484.903013 323.494274 
L 485.246577 319.266217 
L 485.590142 300.075538 
L 485.933706 326.136809 
L 486.27727 237.570769 
L 486.620835 298.654441 
L 486.964399 329.613211 
L 487.651528 317.84512 
L 487.995092 300.557067 
L 488.338656 301.755016 
L 488.682221 286.428311 
L 489.025785 310.751381 
L 489.712914 330.165207 
L 490.056478 295.74178 
L 490.400042 277.067864 
L 490.743607 209.313258 
L 491.087171 247.436234 
L 491.430735 332.314469 
L 491.7743 289.188293 
L 492.117864 288.260469 
L 492.461428 331.39839 
L 493.492121 205.214392 
L 493.835685 308.883989 
L 494.17925 282.329445 
L 494.522814 284.502197 
L 494.866378 319.078303 
L 495.553507 194.327146 
L 495.897071 223.759117 
L 496.240636 300.510088 
L 496.5842 280.802647 
L 496.927764 279.334572 
L 497.271329 265.381985 
L 497.614893 284.25556 
L 498.302022 95.602026 
L 498.645586 136.625919 
L 498.98915 295.283741 
L 499.332715 244.805443 
L 499.676279 237.958341 
L 500.019843 243.748429 
L 500.363408 209.900488 
L 500.706972 158.09505 
L 501.050536 251.5351 
L 501.394101 256.890638 
L 501.737665 249.010011 
L 502.081229 299.335628 
L 502.424794 231.463576 
L 502.768358 125.597738 
L 503.111922 97.786522 
L 503.455487 241.65789 
L 503.799051 269.175492 
L 504.142615 314.932459 
L 504.48618 244.276936 
L 504.829744 276.692037 
L 505.516873 171.495641 
L 505.860437 259.368749 
L 506.204001 230.711922 
L 506.547566 223.301078 
L 506.89113 235.926525 
L 507.234694 220.811222 
L 507.578259 123.46022 
L 508.265387 243.630983 
L 508.608952 294.931403 
L 508.952516 211.098437 
L 509.29608 212.026261 
L 509.639644 217.886817 
L 509.983209 140.818742 
L 510.326773 89.00156 
L 510.670337 116.941967 
L 511.013902 305.020015 
L 511.357466 244.089023 
L 511.70103 271.453944 
L 512.388159 128.216784 
L 512.731723 152.140537 
L 513.075288 264.489396 
L 513.418852 231.968594 
L 513.762416 220.235737 
L 514.105981 234.387982 
L 514.449545 222.279298 
L 514.793109 258.534883 
L 515.136674 202.243007 
L 515.480238 228.879764 
L 515.823802 209.207556 
L 516.167367 258.687562 
L 516.510931 208.773006 
L 516.854495 219.484083 
L 517.19806 138.716458 
L 517.541624 139.303688 
L 518.228753 320.851738 
L 518.572317 206.682467 
L 518.915881 222.373254 
L 519.259446 214.739263 
L 519.60301 126.302414 
L 519.946574 239.144545 
L 520.290139 192.365798 
L 520.633703 307.016598 
L 520.977267 313.288215 
L 521.320832 301.931185 
L 521.664396 313.804977 
L 522.00796 251.323697 
L 522.351525 243.584005 
L 522.695089 308.8605 
L 523.038653 311.197676 
L 523.382218 292.2184 
L 523.725782 314.110337 
L 524.069346 315.554923 
L 524.412911 238.933143 
L 524.756475 316.118664 
L 525.100039 315.731092 
L 525.443603 300.756725 
L 525.787168 301.778505 
L 526.130732 299.065502 
L 526.474296 290.844281 
L 526.817861 196.441174 
L 527.161425 226.061059 
L 527.504989 314.356974 
L 527.848554 307.462893 
L 528.192118 307.744763 
L 528.535682 314.415697 
L 528.879247 299.453074 
L 529.222811 311.338611 
L 529.566375 278.230579 
L 529.90994 318.632009 
L 530.253504 309.835302 
L 530.597068 329.883337 
L 530.940633 325.103284 
L 531.284197 309.471219 
L 531.627761 305.853882 
L 531.971326 319.266217 
L 532.31489 319.090048 
L 532.658454 313.981146 
L 533.002019 313.018089 
L 533.345583 314.60361 
L 533.689147 307.09881 
L 534.032712 310.434277 
L 534.376276 285.629678 
L 535.406969 330.987329 
L 535.750533 326.618338 
L 536.437662 306.51158 
L 536.781226 302.025142 
L 537.124791 321.955731 
L 537.468355 331.140009 
L 537.811919 322.190623 
L 538.155484 321.321522 
L 538.499048 324.363374 
L 538.842612 316.588448 
L 539.186177 333.958714 
L 539.529741 320.734292 
L 539.873305 325.631791 
L 540.216869 332.854721 
L 540.560434 331.915153 
L 540.903998 328.791089 
L 541.247562 332.326214 
L 541.591127 326.477402 
L 541.934691 329.989038 
L 542.278255 328.473985 
L 542.965384 331.750728 
L 543.308948 327.898499 
L 543.652513 331.386646 
L 543.996077 331.128265 
L 544.339641 334.381519 
L 544.683206 332.349703 
L 545.02677 332.514128 
L 545.370334 331.656772 
L 545.713899 331.85643 
L 546.057463 335.168407 
L 546.401027 333.019145 
L 546.744592 333.077868 
L 547.088156 331.926897 
L 547.43172 331.785962 
L 547.775285 332.197023 
L 548.118849 332.913444 
L 548.462413 330.482311 
L 548.805978 333.113102 
L 549.149542 334.686879 
L 549.493106 329.084704 
L 549.836671 332.314469 
L 550.180235 329.777635 
L 550.523799 330.423588 
L 550.867364 333.371483 
L 551.210928 339.196806 
L 551.898057 330.07125 
L 552.241621 332.795998 
L 552.585185 332.114811 
L 552.92875 334.440242 
L 553.272314 333.559397 
L 553.615878 334.557688 
L 553.959443 333.430206 
L 554.303007 333.066124 
L 554.646571 331.093031 
L 554.990136 331.304434 
L 555.3337 330.447078 
L 555.677264 337.869666 
L 556.020828 335.426789 
L 556.364393 331.821196 
L 556.707957 331.98562 
L 557.051521 332.455405 
L 557.395086 332.44366 
L 557.73865 330.752437 
L 558.082214 332.349703 
L 558.425779 332.643318 
L 558.769343 331.151754 
L 559.112907 334.604667 
L 559.456472 334.686879 
L 559.800036 335.673425 
L 560.487165 326.289489 
L 560.830729 337.540817 
L 561.174293 333.171825 
L 561.517858 335.180152 
L 561.861422 333.817778 
L 562.204986 331.70375 
L 562.892115 334.733857 
L 563.235679 335.215386 
L 563.579244 332.678552 
L 563.922808 332.784253 
L 564.266372 333.394973 
L 564.609937 332.678552 
L 564.953501 332.44366 
L 565.297065 337.998856 
L 565.64063 336.483803 
L 565.984194 332.619829 
L 566.327758 333.113102 
L 566.671323 332.514128 
L 567.014887 332.619829 
L 567.702016 337.623029 
L 568.04558 336.953587 
L 568.389144 335.53249 
L 568.732709 333.054379 
L 569.076273 332.244002 
L 569.419837 332.244002 
L 569.763402 332.561106 
L 570.106966 337.059288 
L 570.45053 336.225422 
L 570.794095 332.784253 
L 571.137659 332.349703 
L 571.481223 331.42188 
L 571.824787 332.279236 
L 572.168352 331.903408 
L 572.85548 336.742184 
L 573.199045 331.034308 
L 573.542609 331.997365 
L 573.886173 331.656772 
L 574.229738 336.084486 
L 574.573302 336.248911 
L 574.916866 335.497256 
L 575.260431 336.73044 
L 575.603995 331.903408 
L 575.947559 335.450278 
L 576.291124 335.086195 
L 576.634688 333.019145 
L 576.978252 336.096231 
L 577.321817 335.743893 
L 578.008945 331.55107 
L 578.35251 332.525872 
L 578.696074 331.692005 
L 579.039638 333.571142 
L 579.383203 333.723822 
L 579.726767 331.962131 
L 580.070331 328.802833 
L 580.75746 332.349703 
L 581.444589 333.488929 
L 581.788153 332.666807 
L 582.131717 334.94526 
L 582.475282 334.992238 
L 582.818846 333.371483 
L 583.16241 332.901699 
L 583.505975 330.447078 
L 583.849539 330.329632 
L 584.193103 332.831232 
L 584.536668 331.316178 
L 584.880232 323.165425 
L 585.567361 332.760764 
L 586.254489 331.832941 
L 586.598054 332.807743 
L 586.941618 335.121429 
L 587.285182 333.066124 
L 587.628746 337.822687 
L 588.315875 338.64481 
L 588.659439 338.750511 
L 589.003004 339.07936 
L 589.346568 339.008892 
L 589.690132 340.206842 
L 590.377261 338.92668 
L 590.720825 339.51391 
L 591.407954 339.384719 
L 592.095083 340.465223 
L 592.782211 339.572633 
L 593.125776 339.596122 
L 593.46934 339.490421 
L 593.812904 339.607867 
L 594.500033 340.523946 
L 594.843597 339.877993 
L 595.87429 339.408209 
L 596.217855 340.805816 
L 596.561419 339.643101 
L 596.904983 340.981985 
L 597.248548 340.629647 
L 597.592112 339.678334 
L 598.279241 339.314252 
L 598.966369 339.760547 
L 599.309934 340.606158 
L 599.653498 339.525655 
L 599.997062 339.79578 
L 600.340627 339.114594 
L 601.027755 339.478676 
L 601.37132 339.784036 
L 601.714884 340.723604 
L 602.058448 339.560888 
L 602.402012 339.408209 
L 603.089141 339.584378 
L 603.432705 339.008892 
L 603.77627 339.631356 
L 604.119834 339.81927 
L 604.463398 339.737057 
L 604.806963 338.950169 
L 605.494091 339.314252 
L 605.837656 338.64481 
L 606.18122 339.936716 
L 606.524784 340.007183 
L 606.868349 339.701824 
L 607.555477 338.586087 
L 607.899042 339.185061 
L 608.242606 339.36123 
L 608.58617 338.633065 
L 608.929735 340.218586 
L 609.273299 340.55918 
L 609.616863 338.950169 
L 609.960428 338.362939 
L 610.303992 338.128047 
L 610.647556 338.292472 
L 611.334685 340.124629 
L 611.678249 338.844468 
L 612.021814 338.703533 
L 612.365378 339.008892 
L 612.708942 338.480385 
L 613.052507 338.914935 
L 613.396071 338.856212 
L 613.739635 339.478676 
L 614.0832 338.750511 
L 614.770328 338.550853 
L 615.113893 337.740475 
L 616.144586 339.020637 
L 616.48815 338.715277 
L 616.831714 338.116302 
L 617.175279 338.586087 
L 617.518843 337.987112 
L 617.862407 337.681752 
L 618.549536 338.903191 
L 618.8931 338.210259 
L 619.580229 337.611285 
L 620.267357 337.282436 
L 620.610922 337.482094 
L 620.954486 338.198515 
L 621.29805 338.480385 
L 621.641615 338.257238 
L 621.985179 337.305925 
L 622.328743 337.341159 
L 622.672308 336.260655 
L 623.015872 320.769526 
L 623.359436 292.124443 
L 623.703001 317.774653 
L 624.046565 318.772944 
L 624.390129 274.448818 
L 624.733694 309.952748 
L 625.077258 309.060158 
L 625.420822 279.980525 
L 625.764387 294.085791 
L 626.107951 318.385372 
L 626.451515 320.417188 
L 626.79508 320.076595 
L 627.482208 313.722765 
L 627.825773 328.826323 
L 628.169337 296.188075 
L 628.512901 324.821414 
L 628.856466 315.367009 
L 629.20003 312.055032 
L 629.543594 334.992238 
L 630.230723 280.27414 
L 630.574287 319.900426 
L 630.917852 312.665751 
L 631.261416 315.531434 
L 631.60498 334.040926 
L 632.292109 303.317048 
L 632.635673 271.794538 
L 632.979238 282.693528 
L 633.322802 329.589722 
L 633.666366 310.974528 
L 634.00993 321.990965 
L 634.697059 297.785341 
L 635.040623 281.025794 
L 635.384188 327.111611 
L 635.727752 316.893808 
L 636.071316 333.876501 
L 636.414881 308.238036 
L 636.758445 306.3589 
L 637.102009 302.81203 
L 637.445574 277.408457 
L 637.789138 281.941873 
L 638.132702 312.242945 
L 638.476267 327.252546 
L 638.819831 302.635861 
L 639.163395 307.028342 
L 639.50696 296.48169 
L 639.850524 279.933547 
L 640.194088 313.605319 
L 640.537653 325.138518 
L 640.881217 309.764834 
L 641.224781 308.531651 
L 641.568346 304.538487 
L 641.91191 309.330284 
L 642.255474 277.361479 
L 642.599039 276.915184 
L 642.942603 312.924132 
L 643.286167 305.020015 
L 643.973296 322.26109 
L 644.660425 295.964928 
L 645.003989 279.299338 
L 645.347553 308.061867 
L 645.691118 310.704403 
L 646.034682 329.777635 
L 646.378246 304.808613 
L 646.721811 302.389225 
L 647.065375 276.962162 
L 647.408939 278.324536 
L 647.752504 315.355265 
L 648.096068 334.51071 
L 648.439632 328.755855 
L 648.783196 330.411844 
L 649.126761 322.519472 
L 649.470325 303.728109 
L 649.813889 320.992673 
L 650.157454 330.400099 
L 650.501018 331.492347 
L 650.844582 319.04307 
L 651.188147 330.881628 
L 651.531711 328.603175 
L 651.875275 316.001218 
L 652.21884 318.538052 
L 652.562404 331.445369 
L 652.905968 330.52929 
L 653.249533 321.897008 
L 653.593097 330.740693 
L 653.936661 322.437259 
L 654.280226 298.595718 
L 654.62379 308.097101 
L 654.967354 329.131682 
L 655.310919 333.723822 
L 655.654483 335.520746 
L 655.998047 332.619829 
L 656.341612 335.027472 
L 656.685176 326.430424 
L 657.02874 337.200224 
L 657.372305 332.173534 
L 657.715869 331.692005 
L 658.059433 334.863048 
L 658.402998 332.995656 
L 658.746562 330.353121 
L 659.090126 322.120155 
L 659.433691 328.532708 
L 659.777255 332.373192 
L 660.120819 330.752437 
L 660.464384 331.39839 
L 660.807948 335.779127 
L 661.151512 332.72553 
L 661.495077 326.900208 
L 661.838641 335.027472 
L 662.182205 335.485512 
L 662.52577 334.311052 
L 662.869334 335.015728 
L 663.212898 335.203641 
L 663.556463 327.346503 
L 663.900027 331.973876 
L 664.243591 335.062706 
L 664.587155 335.039217 
L 664.93072 335.37981 
L 665.274284 332.502383 
L 665.617848 335.109684 
L 666.304977 332.572851 
L 666.648541 339.044126 
L 666.992106 335.779127 
L 667.33567 335.285854 
L 667.679234 331.973876 
L 668.022799 333.547652 
L 668.709927 325.291198 
L 669.397056 328.215603 
L 669.74062 325.197241 
L 670.084185 330.141718 
L 670.427749 333.207059 
L 670.771313 333.782545 
L 671.114878 332.995656 
L 671.458442 340.124629 
L 671.802006 336.049253 
L 672.145571 335.309343 
L 672.832699 334.675134 
L 673.176264 333.46544 
L 673.863392 339.913227 
L 674.206957 335.931807 
L 674.550521 335.579469 
L 674.894085 335.790871 
L 675.23765 335.168407 
L 675.581214 335.003983 
L 675.924778 336.319378 
L 676.268343 336.131465 
L 676.611907 336.448569 
L 676.955471 338.351195 
L 677.299036 335.708659 
L 677.6426 335.109684 
L 677.986164 335.790871 
L 678.673293 338.680043 
L 679.016857 335.567724 
L 679.360422 335.4033 
L 679.703986 335.802616 
L 680.04755 334.957005 
L 680.391114 334.440242 
L 680.734679 339.279018 
L 681.078243 338.480385 
L 681.421807 335.720404 
L 681.765372 335.062706 
L 682.108936 335.978785 
L 682.796065 334.581177 
L 683.139629 338.128047 
L 683.483193 339.173317 
L 683.826758 337.810943 
L 684.170322 337.31767 
L 684.513886 336.178443 
L 684.857451 338.539108 
L 685.201015 339.737057 
L 685.888144 337.893155 
L 686.231708 339.149827 
L 686.575272 337.129756 
L 686.918837 338.680043 
L 687.262401 336.918353 
L 687.605965 338.938425 
L 687.94953 337.282436 
L 688.293094 339.478676 
L 688.636658 338.715277 
L 689.323787 338.233748 
L 689.667351 337.893155 
L 690.010916 337.998856 
L 690.35448 335.426789 
L 690.698044 337.916644 
L 691.041609 338.398173 
L 691.385173 338.386428 
L 691.728737 337.998856 
L 692.072302 338.715277 
L 692.415866 338.961914 
L 692.75943 337.728731 
L 693.102995 339.443442 
L 693.446559 338.985403 
L 693.790123 338.762256 
L 694.133688 338.691788 
L 694.477252 338.433407 
L 694.820816 338.527364 
L 695.164381 337.623029 
L 695.507945 338.950169 
L 695.851509 338.515619 
L 696.195073 339.290763 
L 696.538638 338.409918 
L 696.882202 338.64481 
L 697.225766 338.362939 
L 697.569331 335.227131 
L 697.912895 338.456896 
L 698.256459 338.633065 
L 698.600024 338.222004 
L 698.943588 336.695206 
L 699.287152 337.799198 
L 699.630717 338.49213 
L 699.974281 335.826105 
L 700.317845 336.107976 
L 700.66141 338.03409 
L 701.692103 337.282436 
L 702.035667 337.587795 
L 702.379231 334.816069 
L 702.722796 330.96384 
L 703.06636 333.371483 
L 703.409924 338.785745 
L 703.753489 335.180152 
L 704.097053 336.57776 
L 704.440617 336.354612 
L 704.784182 337.188479 
L 705.127746 341.357812 
L 705.47131 341.357812 
L 705.814875 340.629647 
L 706.158439 337.282436 
L 706.845568 335.884828 
L 707.189132 333.92348 
L 707.532696 338.727022 
L 707.876261 337.822687 
L 708.219825 337.31767 
L 708.563389 335.520746 
L 708.906954 336.695206 
L 709.250518 336.648227 
L 709.594082 335.509001 
L 709.937647 333.723822 
L 710.281211 336.695206 
L 710.624775 335.086195 
L 710.968339 334.698623 
L 711.311904 336.519037 
L 711.655468 334.545944 
L 711.999032 331.175243 
L 712.342597 336.988821 
L 712.686161 337.106267 
L 713.029725 337.482094 
L 713.37329 336.284145 
L 713.716854 337.552562 
L 714.060418 335.96704 
L 714.403983 320.111828 
L 714.747547 324.19895 
L 715.091111 333.876501 
L 715.77824 336.389846 
L 716.121804 333.46544 
L 716.465369 337.211968 
L 716.808933 331.926897 
L 717.152497 339.067615 
L 717.496062 336.589504 
L 717.839626 330.869883 
L 718.18319 336.918353 
L 718.526755 336.742184 
L 718.870319 331.233966 
L 719.213883 332.925189 
L 719.557448 321.838285 
L 719.901012 335.003983 
L 720.244576 335.955296 
L 720.588141 334.827814 
L 720.931705 334.240584 
L 721.275269 336.342868 
L 721.618834 321.497691 
L 721.962398 339.643101 
L 722.305962 338.304216 
L 722.649527 336.319378 
L 722.993091 332.819487 
L 723.336655 337.658263 
L 723.68022 336.436824 
L 724.023784 336.55427 
L 724.367348 335.602958 
L 724.710913 337.364648 
L 725.054477 337.834432 
L 725.398041 338.809234 
L 725.741606 338.081069 
L 726.08517 332.302725 
L 726.428734 328.861556 
L 726.772298 335.121429 
L 727.115863 336.953587 
L 727.459427 337.141501 
L 727.802991 338.175025 
L 728.146556 337.975367 
L 728.49012 337.258947 
L 728.833684 331.280944 
L 729.177249 336.213677 
L 729.520813 337.951878 
L 729.864377 337.987112 
L 730.207942 336.800907 
L 730.551506 334.463731 
L 730.89507 336.85963 
L 731.238635 327.546161 
L 731.582199 331.128265 
L 731.925763 336.519037 
L 732.269328 336.683461 
L 732.612892 331.210477 
L 733.300021 327.546161 
L 733.643585 313.311704 
L 733.987149 310.481255 
L 734.330714 330.329632 
L 734.674278 326.54787 
L 735.017842 326.430424 
L 735.361407 328.932024 
L 735.704971 313.018089 
L 736.048535 313.382172 
L 736.3921 272.475725 
L 736.735664 272.088153 
L 737.079228 323.365083 
L 737.422793 333.571142 
L 737.766357 323.036234 
L 738.109921 337.576051 
L 738.453486 299.276905 
L 738.79705 289.787267 
L 739.140614 320.475911 
L 739.484179 321.450713 
L 739.827743 323.341594 
L 740.171307 333.982203 
L 740.514872 319.524598 
L 740.858436 273.121678 
L 741.202 266.28632 
L 741.545565 319.148771 
L 741.889129 334.040926 
L 742.576257 315.4962 
L 742.919822 312.595283 
L 743.263386 272.076408 
L 743.60695 280.86137 
L 743.950515 331.445369 
L 744.294079 320.616846 
L 744.637643 317.574994 
L 744.981208 315.860283 
L 745.324772 332.74902 
L 745.668336 262.3049 
L 746.011901 267.167165 
L 746.355465 328.427006 
L 746.699029 324.586522 
L 747.386158 308.625608 
L 747.729722 321.380245 
L 748.073287 316.917297 
L 748.416851 265.616877 
L 748.760415 314.427441 
L 749.10398 329.272618 
L 749.447544 320.734292 
L 749.791108 271.982451 
L 750.134673 311.702694 
L 750.478237 249.303626 
L 750.821801 255.481286 
L 751.165366 299.711456 
L 751.50893 308.508162 
L 752.196059 332.936933 
L 752.539623 314.615355 
L 752.883187 247.776828 
L 753.226752 306.687749 
L 753.570316 314.873736 
L 753.91388 319.935659 
L 754.257445 293.956601 
L 754.944573 304.162659 
L 755.288138 309.999726 
L 755.631702 250.771701 
L 755.975266 285.747124 
L 756.318831 303.258325 
L 756.662395 266.579935 
L 757.005959 284.631387 
L 757.349524 261.741159 
L 757.693088 283.644841 
L 758.036652 214.152033 
L 758.723781 321.168842 
L 759.067345 255.880603 
L 759.410909 322.190623 
L 759.754474 242.409545 
L 760.098038 224.076222 
L 760.441602 288.483616 
L 760.785167 173.28082 
L 761.128731 268.130222 
L 761.472295 255.880603 
L 761.81586 248.669417 
L 762.502988 265.769557 
L 762.846553 208.080074 
L 763.533681 317.621973 
L 764.22081 279.322827 
L 764.564374 290.632879 
L 764.907939 184.943209 
L 765.251503 189.582327 
L 765.938632 300.204729 
L 766.282196 294.755234 
L 766.62576 276.609824 
L 766.969325 247.812061 
L 767.312889 188.795439 
L 768.000018 265.652111 
L 768.343582 236.06746 
L 768.687146 293.369371 
L 769.030711 282.18851 
L 769.374275 249.714687 
L 769.717839 201.397396 
L 770.061404 266.744359 
L 770.404968 278.371515 
L 770.748532 263.596806 
L 771.092097 267.00274 
L 771.435661 257.994631 
L 771.779225 245.874202 
L 772.12279 169.851396 
L 772.466354 176.745478 
L 772.809918 213.388634 
L 773.153482 282.693528 
L 773.497047 318.115246 
L 773.840611 327.616629 
L 774.184175 309.776579 
L 774.52774 263.866932 
L 774.871304 313.898934 
L 775.214868 321.579904 
L 775.558433 326.747528 
L 775.901997 325.443877 
L 776.245561 317.856865 
L 776.589126 307.38068 
L 776.93269 259.157346 
L 777.276254 269.433873 
L 777.619819 314.709312 
L 777.963383 326.817996 
L 778.306947 334.863048 
L 779.33764 318.068268 
L 779.681205 299.464819 
L 780.024769 326.559615 
L 780.368333 322.366792 
L 780.711898 321.027907 
L 781.399026 317.081721 
L 781.742591 280.015759 
L 782.086155 333.242293 
L 782.429719 332.431915 
L 782.773284 328.239093 
L 783.116848 326.606593 
L 783.460412 326.500892 
L 783.803977 326.747528 
L 784.147541 328.591431 
L 784.491105 295.401187 
L 784.83467 285.594444 
L 785.178234 323.811378 
L 785.521798 318.103501 
L 786.208927 330.68197 
L 786.552491 327.628373 
L 786.896056 320.276253 
L 787.23962 327.980711 
L 787.583184 319.689023 
L 788.270313 333.077868 
L 788.957441 320.95744 
L 789.301006 312.019798 
L 789.64457 334.886537 
L 789.988134 333.888246 
L 790.331699 320.37021 
L 790.675263 327.757564 
L 791.018827 331.081286 
L 791.362392 335.649936 
L 791.705956 321.051396 
L 792.04952 328.579686 
L 792.393085 329.448787 
L 792.736649 331.656772 
L 793.080213 331.645027 
L 793.423778 326.947186 
L 793.767342 318.972602 
L 794.110906 315.449222 
L 794.798035 331.104775 
L 795.141599 328.262582 
L 795.485164 327.146845 
L 795.828728 325.643536 
L 796.172292 325.361665 
L 796.515857 337.341159 
L 796.859421 332.29098 
L 797.202985 331.680261 
L 797.54655 334.087904 
L 797.890114 333.430206 
L 798.233678 331.797707 
L 798.577243 331.151754 
L 798.920807 335.68517 
L 799.264371 333.629865 
L 799.607936 332.854721 
L 799.9515 331.468858 
L 800.295064 333.841268 
L 800.638629 332.29098 
L 800.982193 331.762473 
L 801.325757 338.49213 
L 801.669322 334.346285 
L 802.012886 334.252329 
L 802.35645 333.747311 
L 802.700015 333.817778 
L 803.043579 332.960422 
L 803.387143 333.007401 
L 803.730708 338.010601 
L 804.074272 334.698623 
L 804.417836 333.665099 
L 804.7614 334.628156 
L 805.104965 334.346285 
L 805.448529 333.629865 
L 805.792093 335.708659 
L 806.135658 333.254037 
L 806.479222 332.713786 
L 806.822786 333.148336 
L 807.166351 334.933515 
L 807.509915 333.876501 
L 807.853479 333.371483 
L 808.197044 337.623029 
L 808.540608 334.874792 
L 808.884172 335.661681 
L 809.227737 335.003983 
L 809.571301 336.295889 
L 809.914865 335.943551 
L 810.25843 337.411626 
L 810.601994 335.826105 
L 810.945558 332.866466 
L 811.289123 338.045835 
L 811.632687 333.524163 
L 811.976251 334.592922 
L 812.319816 332.819487 
L 812.66338 332.960422 
L 813.350509 337.305925 
L 813.694073 335.109684 
L 814.037637 335.779127 
L 814.381202 338.715277 
L 814.724766 337.153245 
L 815.06833 337.024055 
L 815.411895 334.980494 
L 815.755459 337.681752 
L 816.099023 338.727022 
L 816.442588 338.456896 
L 816.786152 336.73044 
L 817.129716 336.906609 
L 817.473281 336.601249 
L 817.816845 336.648227 
L 818.160409 328.814578 
L 818.503974 339.842759 
L 818.847538 337.799198 
L 819.191102 335.003983 
L 819.534666 335.849594 
L 819.878231 335.050961 
L 820.221795 331.809451 
L 820.565359 332.960422 
L 820.908924 335.790871 
L 821.252488 334.722113 
L 821.939617 335.238875 
L 822.283181 333.935224 
L 822.626745 327.933733 
L 822.97031 330.599758 
L 823.313874 335.743893 
L 823.657438 333.301016 
L 824.001003 335.602958 
L 824.344567 335.849594 
L 824.688131 334.686879 
L 825.031696 331.844685 
L 825.37526 330.200441 
L 825.718824 333.888246 
L 826.062389 334.710368 
L 826.405953 333.864757 
L 827.093082 341.357812 
L 827.436646 341.357812 
L 827.78021 340.336032 
L 828.467339 334.710368 
L 828.810903 333.759055 
L 829.154468 336.143209 
L 829.498032 337.047544 
L 829.841596 336.248911 
L 830.185161 334.05267 
L 830.528725 329.6367 
L 830.872289 335.027472 
L 831.215854 333.347994 
L 831.559418 332.831232 
L 831.902982 334.757346 
L 832.246547 333.958714 
L 832.590111 336.812652 
L 833.27724 333.31276 
L 833.964368 333.218804 
L 834.307933 332.455405 
L 834.651497 333.33625 
L 834.995061 324.022781 
L 835.338625 335.649936 
L 835.68219 332.702041 
L 836.025754 332.326214 
L 836.369318 332.384937 
L 836.712883 334.921771 
L 837.056447 335.520746 
L 837.400011 337.763964 
L 837.743576 333.383228 
L 838.08714 337.176734 
L 838.430704 334.886537 
L 838.774269 322.672151 
L 839.461397 335.83785 
L 839.804962 325.314687 
L 840.148526 329.554488 
L 840.49209 331.680261 
L 840.835655 335.53249 
L 841.179219 332.103067 
L 841.522783 332.760764 
L 841.866348 332.44366 
L 842.209912 337.529072 
L 842.897041 331.010819 
L 843.240605 335.168407 
L 843.584169 331.198732 
L 843.927734 335.544235 
L 844.271298 322.542961 
L 844.614862 334.451987 
L 844.958427 330.658481 
L 845.301991 331.715495 
L 845.645555 333.371483 
L 845.98912 330.317887 
L 846.332684 331.2692 
L 846.676248 331.069542 
L 847.019813 323.094957 
L 847.363377 330.400099 
L 847.706941 317.069977 
L 848.050506 330.176952 
L 848.39407 326.958931 
L 848.737634 319.289706 
L 849.081199 306.94613 
L 849.424763 305.900861 
L 849.768327 332.197023 
L 850.111892 331.668516 
L 850.455456 321.227565 
L 850.79902 330.775927 
L 851.142584 314.192549 
L 851.486149 330.07125 
L 851.829713 290.574156 
L 852.173277 330.317887 
L 852.516842 325.725748 
L 852.860406 328.955513 
L 853.547535 314.650589 
L 853.891099 292.488526 
L 854.234663 333.606375 
L 854.578228 325.314687 
L 854.921792 329.589722 
L 855.265356 319.771235 
L 855.608921 313.840211 
L 855.952485 320.511145 
L 856.296049 283.680074 
L 856.639614 266.56819 
L 856.983178 316.717639 
L 857.326742 319.113537 
L 858.357435 300.063794 
L 858.701 219.143489 
L 859.044564 258.863731 
L 859.388128 328.943769 
L 859.731693 317.434059 
L 860.075257 316.858574 
L 860.418821 314.638844 
L 860.762386 303.187858 
L 861.10595 278.371515 
L 861.449514 274.648476 
L 861.793079 200.446083 
L 862.136643 311.961075 
L 862.480207 316.846829 
L 862.823772 316.623682 
L 863.167336 324.727457 
L 863.5109 220.482374 
L 863.854465 216.31304 
L 864.198029 291.736871 
L 864.541593 293.67473 
L 864.885158 326.794507 
L 865.228722 310.046705 
L 865.572286 280.802647 
L 865.915851 185.671375 
L 866.259415 230.206904 
L 866.602979 314.509653 
L 866.946543 327.745819 
L 867.290108 292.758651 
L 867.633672 312.313413 
L 867.977236 269.022812 
L 868.320801 248.751629 
L 868.664365 301.390934 
L 869.007929 279.346316 
L 869.351494 285.876315 
L 869.695058 301.50838 
L 870.038622 304.256616 
L 870.382187 263.690763 
L 870.725751 146.279981 
L 871.069315 115.391679 
L 871.41288 295.718291 
L 871.756444 268.623495 
L 872.100008 288.201746 
L 872.787137 243.57226 
L 873.130701 128.228529 
L 873.474266 264.512885 
L 873.81783 260.872058 
L 874.161394 261.494522 
L 874.504959 305.630735 
L 875.192087 168.265875 
L 875.535652 107.675476 
L 875.879216 139.397645 
L 876.566345 313.346938 
L 876.909909 245.568842 
L 877.253473 252.674326 
L 877.597038 254.764865 
L 877.940602 141.006655 
L 878.284166 132.773689 
L 878.627731 238.204977 
L 878.971295 271.818027 
L 879.314859 282.024086 
L 879.658424 229.807587 
L 880.001988 224.170179 
L 880.345552 73.604387 
L 880.689117 135.240056 
L 881.032681 302.036887 
L 881.376245 266.532956 
L 881.719809 255.375585 
L 882.063374 231.475321 
L 882.406938 221.151816 
L 882.750502 123.166605 
L 883.094067 289.282249 
L 883.437631 221.504154 
L 883.781195 230.91158 
L 884.12476 234.775554 
L 884.468324 212.695703 
L 884.811888 213.494336 
L 885.155453 135.063887 
L 885.499017 104.351754 
L 886.186146 229.819332 
L 886.52971 233.835986 
L 886.873274 301.48489 
L 887.560403 124.329321 
L 888.247532 305.219674 
L 888.591096 246.649346 
L 888.93466 218.885108 
L 889.278225 214.786242 
L 889.621789 203.49968 
L 889.965353 98.937492 
L 890.996046 230.065968 
L 891.339611 259.357005 
L 892.026739 210.652142 
L 892.370304 131.235147 
L 892.713868 271.395221 
L 893.057432 315.085139 
L 893.400997 243.771918 
L 893.744561 232.908162 
L 894.088125 285.664912 
L 894.43169 263.279702 
L 894.775254 155.382047 
L 895.118818 168.195408 
L 895.805947 313.8637 
L 896.149511 249.397583 
L 896.493076 238.756974 
L 896.83664 210.382016 
L 897.180204 157.390374 
L 897.523768 252.627348 
L 897.867333 241.129383 
L 898.210897 298.525251 
L 898.554461 313.370427 
L 899.24159 290.550666 
L 899.585154 212.014516 
L 899.928719 251.910927 
L 900.272283 325.103284 
L 900.615847 319.677278 
L 900.959412 300.427876 
L 901.302976 305.818648 
L 901.64654 301.179531 
L 901.990105 219.754208 
L 902.333669 296.669604 
L 902.677233 293.275414 
L 903.020798 298.443039 
L 903.364362 320.252764 
L 904.051491 309.823557 
L 904.395055 260.848569 
L 904.738619 327.205568 
L 905.082184 326.817996 
L 905.425748 329.542743 
L 906.456441 303.058667 
L 906.800005 292.688184 
L 907.14357 295.013615 
L 907.487134 320.922206 
L 907.830698 318.925624 
L 908.174263 311.432568 
L 908.517827 320.017872 
L 908.861391 324.78618 
L 909.204956 300.674513 
L 909.892084 287.297412 
L 910.579213 323.61172 
L 910.922777 330.470567 
L 911.266342 317.434059 
L 911.95347 311.538269 
L 912.297035 329.155172 
L 912.640599 330.317887 
L 912.984163 321.920497 
L 913.327727 329.519254 
L 913.671292 319.6303 
L 914.014856 286.122952 
L 914.35842 289.200037 
L 914.701985 313.969402 
L 915.045549 320.264508 
L 915.389113 329.824614 
L 915.732678 321.08663 
L 916.076242 321.97922 
L 916.419806 304.338829 
L 916.763371 318.632009 
L 917.106935 327.769309 
L 917.794064 324.363374 
L 918.137628 330.611502 
L 918.481192 322.355047 
L 918.824757 301.132552 
L 919.168321 301.132552 
L 919.511885 325.866683 
L 919.85545 327.604884 
L 920.199014 327.957222 
L 920.542578 318.819922 
L 920.886143 333.277527 
L 921.229707 321.180587 
L 921.573271 329.413553 
L 921.916836 330.012527 
L 922.2604 334.581177 
L 922.603964 334.628156 
L 922.947529 332.478894 
L 923.291093 333.935224 
L 923.634657 331.915153 
L 923.978222 335.473767 
L 924.321786 332.455405 
L 924.66535 331.11652 
L 925.008915 329.237384 
L 925.352479 332.244002 
L 925.696043 328.473985 
L 926.039608 318.866901 
L 926.383172 337.352903 
L 926.726736 331.915153 
L 927.070301 332.29098 
L 927.413865 334.440242 
L 927.757429 333.453696 
L 928.100994 333.524163 
L 928.444558 334.07616 
L 928.788122 331.010819 
L 929.131686 334.874792 
L 929.818815 332.302725 
L 930.162379 329.671934 
L 930.505944 333.230548 
L 930.849508 334.405008 
L 931.193072 337.435116 
L 931.536637 333.817778 
L 931.880201 333.606375 
L 932.223765 335.332832 
L 932.56733 336.460314 
L 932.910894 333.277527 
L 933.254458 333.453696 
L 933.598023 335.191897 
L 933.941587 331.891664 
L 934.285151 332.584595 
L 934.628716 330.059506 
L 934.97228 333.477185 
L 935.315844 340.429989 
L 935.659409 341.357812 
L 936.002973 335.450278 
L 936.346537 335.144918 
L 936.690102 332.337959 
L 937.033666 332.220513 
L 937.37723 325.948895 
L 937.720795 331.457113 
L 938.064359 334.79258 
L 938.407923 332.772509 
L 938.751488 327.792798 
L 939.095052 336.413335 
L 939.438616 336.530781 
L 939.782181 333.876501 
L 940.125745 333.477185 
L 940.469309 329.836358 
L 940.812874 335.015728 
L 941.156438 332.619829 
L 941.843567 334.275818 
L 942.187131 334.733857 
L 942.530695 336.659972 
L 942.87426 331.433624 
L 943.217824 331.022563 
L 943.561388 332.349703 
L 943.904952 337.329414 
L 944.248517 332.255746 
L 944.592081 335.015728 
L 944.935645 333.394973 
L 945.27921 332.972167 
L 945.622774 336.800907 
L 945.966338 330.176952 
L 946.309903 333.500674 
L 946.653467 333.277527 
L 946.997031 336.037508 
L 947.340596 333.7708 
L 947.68416 332.784253 
L 948.027724 337.505583 
L 948.371289 333.441951 
L 948.714853 335.309343 
L 949.058417 331.621538 
L 949.401982 332.537617 
L 949.745546 335.391555 
L 950.08911 340.054162 
L 950.432675 332.220513 
L 950.776239 332.631574 
L 951.119803 335.99053 
L 951.463368 331.363157 
L 951.806932 335.579469 
L 952.150496 333.406717 
L 952.494061 327.616629 
L 952.837625 325.620046 
L 953.181189 331.304434 
L 953.524754 330.83465 
L 953.868318 333.723822 
L 954.211882 331.633282 
L 954.555447 335.309343 
L 955.58614 322.26109 
L 955.929704 331.339667 
L 956.616833 337.31767 
L 956.960397 331.539326 
L 957.303961 335.109684 
L 957.647526 330.83465 
L 957.99109 335.415044 
L 958.334654 331.316178 
L 958.678219 331.903408 
L 959.021783 330.09474 
L 959.365347 334.123138 
L 959.708911 332.936933 
L 960.052476 331.175243 
L 960.739604 333.7708 
L 961.083169 329.143427 
L 961.426733 332.431915 
L 961.770297 332.972167 
L 962.113862 332.537617 
L 962.80099 334.416753 
L 963.144555 334.968749 
L 963.488119 329.014236 
L 963.831683 330.893373 
L 964.175248 335.767382 
L 964.518812 332.972167 
L 964.862376 333.888246 
L 965.205941 328.051179 
L 965.549505 327.769309 
L 965.893069 331.891664 
L 966.236634 333.089613 
L 966.580198 328.15688 
L 966.923762 337.634774 
L 967.267327 315.766326 
L 967.610891 332.572851 
L 967.954455 331.879919 
L 968.29802 334.170116 
L 968.641584 330.118229 
L 968.985148 336.025763 
L 969.328713 326.336467 
L 969.672277 321.262799 
L 970.359406 332.948678 
L 970.70297 323.036234 
L 971.046534 323.776144 
L 971.390099 292.629461 
L 971.733663 294.027068 
L 972.077227 285.71189 
L 972.764356 318.796433 
L 973.10792 304.374062 
L 973.451485 297.573938 
L 973.795049 301.167786 
L 974.138613 271.970707 
L 974.482178 282.728762 
L 974.825742 331.762473 
L 975.169306 329.296107 
L 975.51287 325.162007 
L 975.856435 324.727457 
L 976.199999 318.15048 
L 976.543563 327.240801 
L 976.887128 310.786615 
L 977.230692 326.019363 
L 977.917821 317.574994 
L 978.261385 304.221382 
L 978.604949 324.833158 
L 979.292078 332.948678 
L 979.635642 324.78618 
L 979.979207 328.121647 
L 980.322771 328.333049 
L 980.666335 319.712512 
L 981.0099 302.624117 
L 981.353464 235.292316 
L 981.697028 318.714221 
L 982.040593 307.415914 
L 982.384157 310.387298 
L 982.727721 307.850464 
L 983.071286 303.105645 
L 983.41485 293.98009 
L 983.758414 215.831511 
L 984.101979 249.221414 
L 984.445543 306.311922 
L 984.789107 308.543396 
L 985.132672 320.605102 
L 985.8198 300.439621 
L 986.163365 278.547684 
L 986.506929 108.509343 
L 987.194058 287.332645 
L 987.537622 316.341811 
L 988.224751 293.404604 
L 988.568315 186.528731 
L 988.911879 186.000224 
L 989.255444 284.901513 
L 989.599008 295.30723 
L 989.942572 285.371297 
L 990.286136 288.741998 
L 990.629701 278.982234 
L 990.973265 177.086071 
L 991.316829 211.709156 
L 991.660394 288.765487 
L 992.003958 294.731744 
L 992.347522 289.493652 
L 992.691087 317.574994 
L 993.034651 309.647388 
L 993.378215 181.408084 
L 993.72178 281.742215 
L 994.065344 311.3621 
L 994.408908 299.535286 
L 994.752473 312.031542 
L 995.096037 305.219674 
L 995.439601 291.008706 
L 995.783166 89.682746 
L 996.12673 125.926587 
L 996.470294 264.900457 
L 996.813859 255.704434 
L 997.157423 260.989504 
L 997.500987 270.537865 
L 997.844552 289.857735 
L 998.188116 276.01085 
L 998.53168 179.91652 
L 998.875245 300.604045 
L 999.218809 318.021289 
L 999.562373 271.947218 
L 999.905938 243.619239 
L 1000.249502 257.325189 
L 1000.593066 122.497163 
L 1000.936631 249.080478 
L 1001.280195 187.926338 
L 1001.623759 226.765735 
L 1001.967324 171.131558 
L 1002.310888 276.809483 
L 1002.998017 144.400845 
L 1003.341581 198.426012 
L 1004.02871 261.788137 
L 1004.372274 231.874637 
L 1004.715838 277.173565 
L 1005.059403 200.892378 
L 1005.402967 176.604542 
L 1005.746531 141.60563 
L 1006.090095 248.258356 
L 1006.43366 243.360857 
L 1006.777224 208.996153 
L 1007.120788 257.689271 
L 1007.464353 230.512263 
L 1007.807917 96.35368 
L 1008.151481 159.868485 
L 1008.495046 270.890203 
L 1008.83861 251.182762 
L 1009.182174 218.896852 
L 1009.525739 241.740102 
L 1009.869303 224.910088 
L 1010.212867 255.986304 
L 1010.556432 118.691912 
L 1010.899996 237.629492 
L 1011.24356 222.525934 
L 1011.587125 228.445213 
L 1011.930689 241.458232 
L 1012.274253 211.579966 
L 1012.617818 124.399789 
L 1012.961382 95.836918 
L 1013.304946 280.920093 
L 1013.648511 264.595097 
L 1013.992075 190.251769 
L 1014.335639 275.388386 
L 1014.679204 189.229989 
L 1015.022768 232.109529 
L 1015.366332 131.610974 
L 1015.709897 228.421724 
L 1016.053461 214.657051 
L 1016.397025 194.303657 
L 1017.084154 250.231449 
L 1017.427718 94.709436 
L 1017.771283 136.625919 
L 1018.114847 238.792207 
L 1018.458411 230.935069 
L 1018.801976 294.84919 
L 1019.14554 257.419145 
L 1019.489104 238.604294 
L 1019.832669 204.991244 
L 1020.176233 148.499711 
L 1020.519797 225.7557 
L 1020.863362 229.455249 
L 1021.206926 256.56179 
L 1021.55049 227.587858 
L 1021.894054 212.355109 
L 1022.581183 112.655187 
L 1022.924747 164.108286 
L 1023.268312 288.906422 
L 1023.611876 293.0875 
L 1023.95544 311.925841 
L 1024.299005 301.026851 
L 1024.642569 230.688432 
L 1024.986133 230.711922 
L 1025.329698 298.39606 
L 1025.673262 321.356756 
L 1026.016826 313.511362 
L 1026.703955 287.19171 
L 1027.047519 207.563312 
L 1027.734648 307.873954 
L 1028.078212 306.863918 
L 1028.421777 306.558558 
L 1028.765341 302.694584 
L 1029.108905 292.629461 
L 1029.45247 243.971577 
L 1029.796034 253.519938 
L 1030.139598 303.963001 
L 1030.483163 316.377045 
L 1030.826727 313.065067 
L 1031.170291 315.331776 
L 1031.513856 294.614298 
L 1031.85742 253.837042 
L 1032.200984 254.741376 
L 1032.544549 289.200037 
L 1032.888113 293.886133 
L 1033.231677 294.344173 
L 1033.575242 301.848973 
L 1033.918806 306.629026 
L 1034.26237 286.686692 
L 1034.605935 313.992891 
L 1034.949499 310.18764 
L 1035.293063 262.070008 
L 1035.636628 320.170551 
L 1035.980192 313.076812 
L 1036.323756 317.081721 
L 1036.667321 315.413988 
L 1037.010885 320.393699 
L 1037.354449 323.45904 
L 1037.698013 318.725965 
L 1038.385142 322.472493 
L 1038.728706 330.012527 
L 1039.072271 315.378754 
L 1039.415835 314.039869 
L 1039.759399 320.65208 
L 1040.102964 315.766326 
L 1040.446528 321.709094 
L 1040.790092 329.765891 
L 1041.133657 314.721056 
L 1041.477221 294.72 
L 1041.820785 328.133391 
L 1042.16435 319.360174 
L 1042.851478 330.541034 
L 1043.195043 330.153463 
L 1044.225736 319.383663 
L 1044.5693 333.195314 
L 1044.912864 331.997365 
L 1045.256429 329.836358 
L 1045.599993 330.235675 
L 1045.943557 325.267708 
L 1046.287122 326.876719 
L 1046.630686 325.009327 
L 1046.97425 318.549796 
L 1047.317815 331.527581 
L 1048.004943 327.839776 
L 1048.348508 331.574559 
L 1048.692072 320.100084 
L 1049.035636 327.205568 
L 1049.379201 330.799416 
L 1049.722765 337.01231 
L 1050.066329 332.384937 
L 1050.409894 331.093031 
L 1050.753458 330.799416 
L 1051.097022 327.510927 
L 1051.440587 334.064415 
L 1051.784151 314.216038 
L 1052.127715 335.368066 
L 1052.471279 335.68517 
L 1052.814844 328.7676 
L 1053.158408 335.920062 
L 1053.501972 332.619829 
L 1053.845537 336.025763 
L 1054.189101 334.123138 
L 1054.532665 334.604667 
L 1054.87623 333.806034 
L 1055.219794 335.168407 
L 1055.563358 333.782545 
L 1055.906923 331.327923 
L 1056.250487 334.616411 
L 1056.594051 334.957005 
L 1056.937616 312.125499 
L 1057.28118 334.545944 
L 1057.624744 327.59314 
L 1057.968309 329.366574 
L 1058.655437 334.651645 
L 1058.999002 335.050961 
L 1059.342566 329.448787 
L 1059.68613 332.420171 
L 1060.029695 330.435333 
L 1060.373259 332.678552 
L 1060.716823 336.143209 
L 1061.060388 330.188696 
L 1061.403952 330.047761 
L 1062.091081 336.331123 
L 1062.434645 332.913444 
L 1062.778209 331.621538 
L 1063.121774 327.616629 
L 1064.152467 331.586304 
L 1064.496031 332.279236 
L 1064.839595 330.705459 
L 1065.18316 334.346285 
L 1065.526724 334.675134 
L 1065.870288 335.555979 
L 1066.213853 335.368066 
L 1066.557417 336.953587 
L 1066.900981 335.802616 
L 1067.244546 335.790871 
L 1067.58811 328.849812 
L 1067.931674 339.889737 
L 1068.618803 335.53249 
L 1068.962367 336.495547 
L 1069.305931 335.673425 
L 1069.649496 335.602958 
L 1069.99306 334.874792 
L 1070.336624 336.11972 
L 1070.680189 331.668516 
L 1071.367317 338.515619 
L 1071.710882 335.955296 
L 1072.054446 334.957005 
L 1072.39801 335.285854 
L 1072.741575 334.405008 
L 1073.085139 334.322796 
L 1073.428703 325.772726 
L 1073.772268 335.09794 
L 1074.115832 333.500674 
L 1074.459396 335.884828 
L 1074.802961 332.420171 
L 1075.146525 325.349921 
L 1075.490089 326.911953 
L 1075.833654 334.886537 
L 1076.177218 333.759055 
L 1076.520782 333.594631 
L 1076.864347 333.735566 
L 1077.207911 328.814578 
L 1077.551475 321.720839 
L 1077.89504 332.737275 
L 1078.238604 333.453696 
L 1078.582168 330.693714 
L 1078.925733 324.011036 
L 1079.269297 335.215386 
L 1079.612861 335.039217 
L 1079.956426 332.032599 
L 1080.29999 334.334541 
L 1080.643554 330.670225 
L 1080.987119 330.505801 
L 1081.330683 331.891664 
L 1081.674247 332.173534 
L 1082.017812 330.881628 
L 1082.361376 332.314469 
L 1082.70494 332.326214 
L 1083.048505 327.616629 
L 1083.392069 327.076377 
L 1083.735633 334.769091 
L 1084.079197 333.524163 
L 1084.422762 327.910244 
L 1084.766326 331.680261 
L 1085.10989 330.541034 
L 1085.453455 325.115029 
L 1085.797019 330.259164 
L 1086.140583 331.527581 
L 1086.484148 324.469076 
L 1087.171276 335.955296 
L 1087.514841 335.25062 
L 1087.858405 326.911953 
L 1088.201969 325.561323 
L 1088.545534 304.796868 
L 1088.889098 332.326214 
L 1089.232662 328.192114 
L 1089.576227 326.747528 
L 1089.919791 331.574559 
L 1090.263355 331.70375 
L 1090.60692 333.383228 
L 1090.950484 332.373192 
L 1091.294048 331.809451 
L 1091.637613 334.804325 
L 1091.981177 330.047761 
L 1092.324741 327.076377 
L 1092.668306 327.546161 
L 1093.01187 331.774218 
L 1094.042563 316.471002 
L 1094.386127 310.539978 
L 1094.729692 312.360391 
L 1095.41682 332.87821 
L 1095.760385 334.79258 
L 1096.103949 334.863048 
L 1096.447513 327.910244 
L 1096.791078 309.858791 
L 1097.134642 301.94293 
L 1097.478206 327.475694 
L 1097.821771 325.126773 
L 1098.165335 316.893808 
L 1098.508899 332.901699 
L 1098.852464 334.35803 
L 1099.196028 322.56645 
L 1099.539592 314.744545 
L 1099.883156 317.481038 
L 1100.226721 318.232692 
L 1100.570285 333.782545 
L 1100.913849 327.029399 
L 1101.257414 325.702259 
L 1101.600978 323.235892 
L 1101.944542 315.695858 
L 1102.288107 313.828467 
L 1102.631671 328.579686 
L 1103.662364 310.939295 
L 1104.005928 325.937151 
L 1104.349493 315.226074 
L 1104.693057 319.383663 
L 1105.036621 327.510927 
L 1105.72375 298.54874 
L 1106.067314 322.848321 
L 1106.410879 270.655311 
L 1106.754443 319.430641 
L 1107.098007 301.555358 
L 1107.441572 305.207929 
L 1107.785136 310.704403 
L 1108.1287 319.6303 
L 1108.472265 314.145571 
L 1108.815829 300.451365 
L 1109.159393 269.245959 
L 1109.502958 321.074886 
L 1109.846522 321.474202 
L 1110.190086 314.697567 
L 1110.533651 303.011689 
L 1110.877215 316.788106 
L 1111.220779 211.626944 
L 1111.564344 147.383974 
L 1111.907908 156.885356 
L 1112.251472 298.208147 
L 1112.595037 310.269852 
L 1113.282165 279.217126 
L 1113.62573 290.809048 
L 1113.969294 193.293621 
L 1114.312858 318.15048 
L 1114.656422 320.945695 
L 1114.999987 292.089209 
L 1115.343551 293.780432 
L 1115.687115 282.024086 
L 1116.03068 206.670722 
L 1116.374244 300.122517 
L 1116.717808 288.201746 
L 1117.061373 288.38966 
L 1117.404937 296.282032 
L 1117.748501 293.498561 
L 1118.092066 310.070194 
L 1118.43563 226.483865 
L 1118.779194 288.565829 
L 1119.122759 298.595718 
L 1119.466323 293.909622 
L 1119.809887 274.942091 
L 1120.153452 278.829554 
L 1120.497016 267.237632 
L 1120.84058 141.946223 
L 1121.184145 183.228498 
L 1121.527709 254.118912 
L 1121.871273 273.344825 
L 1122.214838 212.543023 
L 1122.558402 284.337772 
L 1123.245531 258.182545 
L 1123.589095 261.670691 
L 1123.932659 245.709778 
L 1124.276224 276.280975 
L 1124.619788 286.287376 
L 1124.963352 264.184036 
L 1124.963352 264.184036 
" clip-path="url(#pfeb8726fcd)" style="fill: none; stroke: #008080; stroke-width: 1.5; stroke-linecap: square"/>
   </g>
   <g id="patch_3">
    <path d="M 59.690625 356.477812 
L 59.690625 23.837812 
" style="fill: none; stroke: #000000; stroke-width: 0.8; stroke-linejoin: miter; stroke-linecap: square"/>
   </g>
   <g id="patch_4">
    <path d="M 1175.690625 356.477812 
L 1175.690625 23.837812 
" style="fill: none; stroke: #000000; stroke-width: 0.8; stroke-linejoin: miter; stroke-linecap: square"/>
   </g>
   <g id="patch_5">
    <path d="M 59.690625 356.477812 
L 1175.690625 356.477812 
" style="fill: none; stroke: #000000; stroke-width: 0.8; stroke-linejoin: miter; stroke-linecap: square"/>
   </g>
   <g id="patch_6">
    <path d="M 59.690625 23.837812 
L 1175.690625 23.837812 
" style="fill: none; stroke: #000000; stroke-width: 0.8; stroke-linejoin: miter; stroke-linecap: square"/>
   </g>
   <g id="text_18">
    <!-- Toronto Island Ferry Ticket Redemptions -->
    <g transform="translate(477.780313 17.837812) scale(0.14 -0.14)">
     <defs>
      <path id="DejaVuSans-72" d="M 2631 2963 
Q 2534 3019 2420 3045 
Q 2306 3072 2169 3072 
Q 1681 3072 1420 2755 
Q 1159 2438 1159 1844 
L 1159 0 
L 581 0 
L 581 3500 
L 1159 3500 
L 1159 2956 
Q 1341 3275 1631 3429 
Q 1922 3584 2338 3584 
Q 2397 3584 2469 3576 
Q 2541 3569 2628 3553 
L 2631 2963 
z
" transform="scale(0.015625)"/>
      <path id="DejaVuSans-49" d="M 628 4666 
L 1259 4666 
L 1259 0 
L 628 0 
L 628 4666 
z
" transform="scale(0.015625)"/>
      <path id="DejaVuSans-6c" d="M 603 4863 
L 1178 4863 
L 1178 0 
L 603 0 
L 603 4863 
z
" transform="scale(0.015625)"/>
      <path id="DejaVuSans-46" d="M 628 4666 
L 3309 4666 
L 3309 4134 
L 1259 4134 
L 1259 2759 
L 3109 2759 
L 3109 2228 
L 1259 2228 
L 1259 0 
L 628 0 
L 628 4666 
z
" transform="scale(0.015625)"/>
      <path id="DejaVuSans-79" d="M 2059 -325 
Q 1816 -950 1584 -1140 
Q 1353 -1331 966 -1331 
L 506 -1331 
L 506 -850 
L 844 -850 
Q 1081 -850 1212 -737 
Q 1344 -625 1503 -206 
L 1606 56 
L 191 3500 
L 800 3500 
L 1894 763 
L 2988 3500 
L 3597 3500 
L 2059 -325 
z
" transform="scale(0.015625)"/>
     </defs>
     <use xlink:href="#DejaVuSans-54"/>
     <use xlink:href="#DejaVuSans-6f" x="44.083984"/>
     <use xlink:href="#DejaVuSans-72" x="105.265625"/>
     <use xlink:href="#DejaVuSans-6f" x="144.128906"/>
     <use xlink:href="#DejaVuSans-6e" x="205.310547"/>
     <use xlink:href="#DejaVuSans-74" x="268.689453"/>
     <use xlink:href="#DejaVuSans-6f" x="307.898438"/>
     <use xlink:href="#DejaVuSans-20" x="369.080078"/>
     <use xlink:href="#DejaVuSans-49" x="400.867188"/>
     <use xlink:href="#DejaVuSans-73" x="430.359375"/>
     <use xlink:href="#DejaVuSans-6c" x="482.458984"/>
     <use xlink:href="#DejaVuSans-61" x="510.242188"/>
     <use xlink:href="#DejaVuSans-6e" x="571.521484"/>
     <use xlink:href="#DejaVuSans-64" x="634.900391"/>
     <use xlink:href="#DejaVuSans-20" x="698.376953"/>
     <use xlink:href="#DejaVuSans-46" x="730.164062"/>
     <use xlink:href="#DejaVuSans-65" x="782.183594"/>
     <use xlink:href="#DejaVuSans-72" x="843.707031"/>
     <use xlink:href="#DejaVuSans-72" x="883.070312"/>
     <use xlink:href="#DejaVuSans-79" x="924.183594"/>
     <use xlink:href="#DejaVuSans-20" x="983.363281"/>
     <use xlink:href="#DejaVuSans-54" x="1015.150391"/>
     <use xlink:href="#DejaVuSans-69" x="1073.109375"/>
     <use xlink:href="#DejaVuSans-63" x="1100.892578"/>
     <use xlink:href="#DejaVuSans-6b" x="1155.873047"/>
     <use xlink:href="#DejaVuSans-65" x="1210.158203"/>
     <use xlink:href="#DejaVuSans-74" x="1271.681641"/>
     <use xlink:href="#DejaVuSans-20" x="1310.890625"/>
     <use xlink:href="#DejaVuSans-52" x="1342.677734"/>
     <use xlink:href="#DejaVuSans-65" x="1407.660156"/>
     <use xlink:href="#DejaVuSans-64" x="1469.183594"/>
     <use xlink:href="#DejaVuSans-65" x="1532.660156"/>
     <use xlink:href="#DejaVuSans-6d" x="1594.183594"/>
     <use xlink:href="#DejaVuSans-70" x="1691.595703"/>
     <use xlink:href="#DejaVuSans-74" x="1755.072266"/>
     <use xlink:href="#DejaVuSans-69" x="1794.28125"/>
     <use xlink:href="#DejaVuSans-6f" x="1822.064453"/>
     <use xlink:href="#DejaVuSans-6e" x="1883.246094"/>
     <use xlink:href="#DejaVuSans-73" x="1946.625"/>
    </g>
   </g>
  </g>
  <g id="text_19">
   <!-- (Data from 2016-05-27 14:30:00 to 2024-06-27 17:45:00) -->
   <g style="fill: #808080" transform="translate(454.635938 399.677812) scale(0.1 -0.1)">
    <defs>
     <path id="DejaVuSans-28" d="M 1984 4856 
Q 1566 4138 1362 3434 
Q 1159 2731 1159 2009 
Q 1159 1288 1364 580 
Q 1569 -128 1984 -844 
L 1484 -844 
Q 1016 -109 783 600 
Q 550 1309 550 2009 
Q 550 2706 781 3412 
Q 1013 4119 1484 4856 
L 1984 4856 
z
" transform="scale(0.015625)"/>
     <path id="DejaVuSans-66" d="M 2375 4863 
L 2375 4384 
L 1825 4384 
Q 1516 4384 1395 4259 
Q 1275 4134 1275 3809 
L 1275 3500 
L 2222 3500 
L 2222 3053 
L 1275 3053 
L 1275 0 
L 697 0 
L 697 3053 
L 147 3053 
L 147 3500 
L 697 3500 
L 697 3744 
Q 697 4328 969 4595 
Q 1241 4863 1831 4863 
L 2375 4863 
z
" transform="scale(0.015625)"/>
     <path id="DejaVuSans-2d" d="M 313 2009 
L 1997 2009 
L 1997 1497 
L 313 1497 
L 313 2009 
z
" transform="scale(0.015625)"/>
     <path id="DejaVuSans-3a" d="M 750 794 
L 1409 794 
L 1409 0 
L 750 0 
L 750 794 
z
M 750 3309 
L 1409 3309 
L 1409 2516 
L 750 2516 
L 750 3309 
z
" transform="scale(0.015625)"/>
     <path id="DejaVuSans-29" d="M 513 4856 
L 1013 4856 
Q 1481 4119 1714 3412 
Q 1947 2706 1947 2009 
Q 1947 1309 1714 600 
Q 1481 -109 1013 -844 
L 513 -844 
Q 928 -128 1133 580 
Q 1338 1288 1338 2009 
Q 1338 2731 1133 3434 
Q 928 4138 513 4856 
z
" transform="scale(0.015625)"/>
    </defs>
    <use xlink:href="#DejaVuSans-28"/>
    <use xlink:href="#DejaVuSans-44" x="39.013672"/>
    <use xlink:href="#DejaVuSans-61" x="116.015625"/>
    <use xlink:href="#DejaVuSans-74" x="177.294922"/>
    <use xlink:href="#DejaVuSans-61" x="216.503906"/>
    <use xlink:href="#DejaVuSans-20" x="277.783203"/>
    <use xlink:href="#DejaVuSans-66" x="309.570312"/>
    <use xlink:href="#DejaVuSans-72" x="344.775391"/>
    <use xlink:href="#DejaVuSans-6f" x="383.638672"/>
    <use xlink:href="#DejaVuSans-6d" x="444.820312"/>
    <use xlink:href="#DejaVuSans-20" x="542.232422"/>
    <use xlink:href="#DejaVuSans-32" x="574.019531"/>
    <use xlink:href="#DejaVuSans-30" x="637.642578"/>
    <use xlink:href="#DejaVuSans-31" x="701.265625"/>
    <use xlink:href="#DejaVuSans-36" x="764.888672"/>
    <use xlink:href="#DejaVuSans-2d" x="828.511719"/>
    <use xlink:href="#DejaVuSans-30" x="864.595703"/>
    <use xlink:href="#DejaVuSans-35" x="928.21875"/>
    <use xlink:href="#DejaVuSans-2d" x="991.841797"/>
    <use xlink:href="#DejaVuSans-32" x="1027.925781"/>
    <use xlink:href="#DejaVuSans-37" x="1091.548828"/>
    <use xlink:href="#DejaVuSans-20" x="1155.171875"/>
    <use xlink:href="#DejaVuSans-31" x="1186.958984"/>
    <use xlink:href="#DejaVuSans-34" x="1250.582031"/>
    <use xlink:href="#DejaVuSans-3a" x="1314.205078"/>
    <use xlink:href="#DejaVuSans-33" x="1347.896484"/>
    <use xlink:href="#DejaVuSans-30" x="1411.519531"/>
    <use xlink:href="#DejaVuSans-3a" x="1475.142578"/>
    <use xlink:href="#DejaVuSans-30" x="1508.833984"/>
    <use xlink:href="#DejaVuSans-30" x="1572.457031"/>
    <use xlink:href="#DejaVuSans-20" x="1636.080078"/>
    <use xlink:href="#DejaVuSans-74" x="1667.867188"/>
    <use xlink:href="#DejaVuSans-6f" x="1707.076172"/>
    <use xlink:href="#DejaVuSans-20" x="1768.257812"/>
    <use xlink:href="#DejaVuSans-32" x="1800.044922"/>
    <use xlink:href="#DejaVuSans-30" x="1863.667969"/>
    <use xlink:href="#DejaVuSans-32" x="1927.291016"/>
    <use xlink:href="#DejaVuSans-34" x="1990.914062"/>
    <use xlink:href="#DejaVuSans-2d" x="2054.537109"/>
    <use xlink:href="#DejaVuSans-30" x="2090.621094"/>
    <use xlink:href="#DejaVuSans-36" x="2154.244141"/>
    <use xlink:href="#DejaVuSans-2d" x="2217.867188"/>
    <use xlink:href="#DejaVuSans-32" x="2253.951172"/>
    <use xlink:href="#DejaVuSans-37" x="2317.574219"/>
    <use xlink:href="#DejaVuSans-20" x="2381.197266"/>
    <use xlink:href="#DejaVuSans-31" x="2412.984375"/>
    <use xlink:href="#DejaVuSans-37" x="2476.607422"/>
    <use xlink:href="#DejaVuSans-3a" x="2540.230469"/>
    <use xlink:href="#DejaVuSans-34" x="2573.921875"/>
    <use xlink:href="#DejaVuSans-35" x="2637.544922"/>
    <use xlink:href="#DejaVuSans-3a" x="2701.167969"/>
    <use xlink:href="#DejaVuSans-30" x="2734.859375"/>
    <use xlink:href="#DejaVuSans-30" x="2798.482422"/>
    <use xlink:href="#DejaVuSans-29" x="2862.105469"/>
   </g>
  </g>
 </g>
 <defs>
  <clipPath id="pfeb8726fcd">
   <rect x="59.690625" y="23.837812" width="1116" height="332.64"/>
  </clipPath>
 </defs>
</svg>
