<?xml version="1.0" encoding="utf-8" standalone="no"?>
<!DOCTYPE svg PUBLIC "-//W3C//DTD SVG 1.1//EN"
  "http://www.w3.org/Graphics/SVG/1.1/DTD/svg11.dtd">
<svg xmlns:xlink="http://www.w3.org/1999/xlink" width="1182.890625pt" height="408.9575pt" viewBox="0 0 1182.890625 408.9575" xmlns="http://www.w3.org/2000/svg" version="1.1">
 <metadata>
  <rdf:RDF xmlns:dc="http://purl.org/dc/elements/1.1/" xmlns:cc="http://creativecommons.org/ns#" xmlns:rdf="http://www.w3.org/1999/02/22-rdf-syntax-ns#">
   <cc:Work>
    <dc:type rdf:resource="http://purl.org/dc/dcmitype/StillImage"/>
    <dc:date>2024-05-27T13:35:56.532175</dc:date>
    <dc:format>image/svg+xml</dc:format>
    <dc:creator>
     <cc:Agent>
      <dc:title>Matplotlib v3.8.4, https://matplotlib.org/</dc:title>
     </cc:Agent>
    </dc:creator>
   </cc:Work>
  </rdf:RDF>
 </metadata>
 <defs>
  <style type="text/css">*{stroke-linejoin: round; stroke-linecap: butt}</style>
 </defs>
 <g id="figure_1">
  <g id="patch_1">
   <path d="M 0 408.9575 
L 1182.890625 408.9575 
L 1182.890625 0 
L 0 0 
z
" style="fill: #ffffff"/>
  </g>
  <g id="axes_1">
   <g id="patch_2">
    <path d="M 59.690625 356.477812 
L 1175.690625 356.477812 
L 1175.690625 23.837812 
L 59.690625 23.837812 
z
" style="fill: #ffffff"/>
   </g>
   <g id="matplotlib.axis_1">
    <g id="xtick_1">
     <g id="line2d_1">
      <defs>
       <path id="mddf081e8f0" d="M 0 0 
L 0 3.5 
" style="stroke: #000000; stroke-width: 0.8"/>
      </defs>
      <g>
       <use xlink:href="#mddf081e8f0" x="186.298029" y="356.477812" style="stroke: #000000; stroke-width: 0.8"/>
      </g>
     </g>
     <g id="text_1">
      <!-- 2018 -->
      <g transform="translate(173.573029 371.07625) scale(0.1 -0.1)">
       <defs>
        <path id="DejaVuSans-32" d="M 1228 531 
L 3431 531 
L 3431 0 
L 469 0 
L 469 531 
Q 828 903 1448 1529 
Q 2069 2156 2228 2338 
Q 2531 2678 2651 2914 
Q 2772 3150 2772 3378 
Q 2772 3750 2511 3984 
Q 2250 4219 1831 4219 
Q 1534 4219 1204 4116 
Q 875 4013 500 3803 
L 500 4441 
Q 881 4594 1212 4672 
Q 1544 4750 1819 4750 
Q 2544 4750 2975 4387 
Q 3406 4025 3406 3419 
Q 3406 3131 3298 2873 
Q 3191 2616 2906 2266 
Q 2828 2175 2409 1742 
Q 1991 1309 1228 531 
z
" transform="scale(0.015625)"/>
        <path id="DejaVuSans-30" d="M 2034 4250 
Q 1547 4250 1301 3770 
Q 1056 3291 1056 2328 
Q 1056 1369 1301 889 
Q 1547 409 2034 409 
Q 2525 409 2770 889 
Q 3016 1369 3016 2328 
Q 3016 3291 2770 3770 
Q 2525 4250 2034 4250 
z
M 2034 4750 
Q 2819 4750 3233 4129 
Q 3647 3509 3647 2328 
Q 3647 1150 3233 529 
Q 2819 -91 2034 -91 
Q 1250 -91 836 529 
Q 422 1150 422 2328 
Q 422 3509 836 4129 
Q 1250 4750 2034 4750 
z
" transform="scale(0.015625)"/>
        <path id="DejaVuSans-31" d="M 794 531 
L 1825 531 
L 1825 4091 
L 703 3866 
L 703 4441 
L 1819 4666 
L 2450 4666 
L 2450 531 
L 3481 531 
L 3481 0 
L 794 0 
L 794 531 
z
" transform="scale(0.015625)"/>
        <path id="DejaVuSans-38" d="M 2034 2216 
Q 1584 2216 1326 1975 
Q 1069 1734 1069 1313 
Q 1069 891 1326 650 
Q 1584 409 2034 409 
Q 2484 409 2743 651 
Q 3003 894 3003 1313 
Q 3003 1734 2745 1975 
Q 2488 2216 2034 2216 
z
M 1403 2484 
Q 997 2584 770 2862 
Q 544 3141 544 3541 
Q 544 4100 942 4425 
Q 1341 4750 2034 4750 
Q 2731 4750 3128 4425 
Q 3525 4100 3525 3541 
Q 3525 3141 3298 2862 
Q 3072 2584 2669 2484 
Q 3125 2378 3379 2068 
Q 3634 1759 3634 1313 
Q 3634 634 3220 271 
Q 2806 -91 2034 -91 
Q 1263 -91 848 271 
Q 434 634 434 1313 
Q 434 1759 690 2068 
Q 947 2378 1403 2484 
z
M 1172 3481 
Q 1172 3119 1398 2916 
Q 1625 2713 2034 2713 
Q 2441 2713 2670 2916 
Q 2900 3119 2900 3481 
Q 2900 3844 2670 4047 
Q 2441 4250 2034 4250 
Q 1625 4250 1398 4047 
Q 1172 3844 1172 3481 
z
" transform="scale(0.015625)"/>
       </defs>
       <use xlink:href="#DejaVuSans-32"/>
       <use xlink:href="#DejaVuSans-30" x="63.623047"/>
       <use xlink:href="#DejaVuSans-31" x="127.246094"/>
       <use xlink:href="#DejaVuSans-38" x="190.869141"/>
      </g>
     </g>
    </g>
    <g id="xtick_2">
     <g id="line2d_2">
      <g>
       <use xlink:href="#mddf081e8f0" x="332.839022" y="356.477812" style="stroke: #000000; stroke-width: 0.8"/>
      </g>
     </g>
     <g id="text_2">
      <!-- 2019 -->
      <g transform="translate(320.114022 371.07625) scale(0.1 -0.1)">
       <defs>
        <path id="DejaVuSans-39" d="M 703 97 
L 703 672 
Q 941 559 1184 500 
Q 1428 441 1663 441 
Q 2288 441 2617 861 
Q 2947 1281 2994 2138 
Q 2813 1869 2534 1725 
Q 2256 1581 1919 1581 
Q 1219 1581 811 2004 
Q 403 2428 403 3163 
Q 403 3881 828 4315 
Q 1253 4750 1959 4750 
Q 2769 4750 3195 4129 
Q 3622 3509 3622 2328 
Q 3622 1225 3098 567 
Q 2575 -91 1691 -91 
Q 1453 -91 1209 -44 
Q 966 3 703 97 
z
M 1959 2075 
Q 2384 2075 2632 2365 
Q 2881 2656 2881 3163 
Q 2881 3666 2632 3958 
Q 2384 4250 1959 4250 
Q 1534 4250 1286 3958 
Q 1038 3666 1038 3163 
Q 1038 2656 1286 2365 
Q 1534 2075 1959 2075 
z
" transform="scale(0.015625)"/>
       </defs>
       <use xlink:href="#DejaVuSans-32"/>
       <use xlink:href="#DejaVuSans-30" x="63.623047"/>
       <use xlink:href="#DejaVuSans-31" x="127.246094"/>
       <use xlink:href="#DejaVuSans-39" x="190.869141"/>
      </g>
     </g>
    </g>
    <g id="xtick_3">
     <g id="line2d_3">
      <g>
       <use xlink:href="#mddf081e8f0" x="479.380016" y="356.477812" style="stroke: #000000; stroke-width: 0.8"/>
      </g>
     </g>
     <g id="text_3">
      <!-- 2020 -->
      <g transform="translate(466.655016 371.07625) scale(0.1 -0.1)">
       <use xlink:href="#DejaVuSans-32"/>
       <use xlink:href="#DejaVuSans-30" x="63.623047"/>
       <use xlink:href="#DejaVuSans-32" x="127.246094"/>
       <use xlink:href="#DejaVuSans-30" x="190.869141"/>
      </g>
     </g>
    </g>
    <g id="xtick_4">
     <g id="line2d_4">
      <g>
       <use xlink:href="#mddf081e8f0" x="626.322492" y="356.477812" style="stroke: #000000; stroke-width: 0.8"/>
      </g>
     </g>
     <g id="text_4">
      <!-- 2021 -->
      <g transform="translate(613.597492 371.07625) scale(0.1 -0.1)">
       <use xlink:href="#DejaVuSans-32"/>
       <use xlink:href="#DejaVuSans-30" x="63.623047"/>
       <use xlink:href="#DejaVuSans-32" x="127.246094"/>
       <use xlink:href="#DejaVuSans-31" x="190.869141"/>
      </g>
     </g>
    </g>
    <g id="xtick_5">
     <g id="line2d_5">
      <g>
       <use xlink:href="#mddf081e8f0" x="772.863485" y="356.477812" style="stroke: #000000; stroke-width: 0.8"/>
      </g>
     </g>
     <g id="text_5">
      <!-- 2022 -->
      <g transform="translate(760.138485 371.07625) scale(0.1 -0.1)">
       <use xlink:href="#DejaVuSans-32"/>
       <use xlink:href="#DejaVuSans-30" x="63.623047"/>
       <use xlink:href="#DejaVuSans-32" x="127.246094"/>
       <use xlink:href="#DejaVuSans-32" x="190.869141"/>
      </g>
     </g>
    </g>
    <g id="xtick_6">
     <g id="line2d_6">
      <g>
       <use xlink:href="#mddf081e8f0" x="919.404479" y="356.477812" style="stroke: #000000; stroke-width: 0.8"/>
      </g>
     </g>
     <g id="text_6">
      <!-- 2023 -->
      <g transform="translate(906.679479 371.07625) scale(0.1 -0.1)">
       <defs>
        <path id="DejaVuSans-33" d="M 2597 2516 
Q 3050 2419 3304 2112 
Q 3559 1806 3559 1356 
Q 3559 666 3084 287 
Q 2609 -91 1734 -91 
Q 1441 -91 1130 -33 
Q 819 25 488 141 
L 488 750 
Q 750 597 1062 519 
Q 1375 441 1716 441 
Q 2309 441 2620 675 
Q 2931 909 2931 1356 
Q 2931 1769 2642 2001 
Q 2353 2234 1838 2234 
L 1294 2234 
L 1294 2753 
L 1863 2753 
Q 2328 2753 2575 2939 
Q 2822 3125 2822 3475 
Q 2822 3834 2567 4026 
Q 2313 4219 1838 4219 
Q 1578 4219 1281 4162 
Q 984 4106 628 3988 
L 628 4550 
Q 988 4650 1302 4700 
Q 1616 4750 1894 4750 
Q 2613 4750 3031 4423 
Q 3450 4097 3450 3541 
Q 3450 3153 3228 2886 
Q 3006 2619 2597 2516 
z
" transform="scale(0.015625)"/>
       </defs>
       <use xlink:href="#DejaVuSans-32"/>
       <use xlink:href="#DejaVuSans-30" x="63.623047"/>
       <use xlink:href="#DejaVuSans-32" x="127.246094"/>
       <use xlink:href="#DejaVuSans-33" x="190.869141"/>
      </g>
     </g>
    </g>
    <g id="xtick_7">
     <g id="line2d_7">
      <g>
       <use xlink:href="#mddf081e8f0" x="1065.945473" y="356.477812" style="stroke: #000000; stroke-width: 0.8"/>
      </g>
     </g>
     <g id="text_7">
      <!-- 2024 -->
      <g transform="translate(1053.220473 371.07625) scale(0.1 -0.1)">
       <defs>
        <path id="DejaVuSans-34" d="M 2419 4116 
L 825 1625 
L 2419 1625 
L 2419 4116 
z
M 2253 4666 
L 3047 4666 
L 3047 1625 
L 3713 1625 
L 3713 1100 
L 3047 1100 
L 3047 0 
L 2419 0 
L 2419 1100 
L 313 1100 
L 313 1709 
L 2253 4666 
z
" transform="scale(0.015625)"/>
       </defs>
       <use xlink:href="#DejaVuSans-32"/>
       <use xlink:href="#DejaVuSans-30" x="63.623047"/>
       <use xlink:href="#DejaVuSans-32" x="127.246094"/>
       <use xlink:href="#DejaVuSans-34" x="190.869141"/>
      </g>
     </g>
    </g>
    <g id="text_8">
     <!-- Date -->
     <g transform="translate(605.739844 384.754375) scale(0.1 -0.1)">
      <defs>
       <path id="DejaVuSans-44" d="M 1259 4147 
L 1259 519 
L 2022 519 
Q 2988 519 3436 956 
Q 3884 1394 3884 2338 
Q 3884 3275 3436 3711 
Q 2988 4147 2022 4147 
L 1259 4147 
z
M 628 4666 
L 1925 4666 
Q 3281 4666 3915 4102 
Q 4550 3538 4550 2338 
Q 4550 1131 3912 565 
Q 3275 0 1925 0 
L 628 0 
L 628 4666 
z
" transform="scale(0.015625)"/>
       <path id="DejaVuSans-61" d="M 2194 1759 
Q 1497 1759 1228 1600 
Q 959 1441 959 1056 
Q 959 750 1161 570 
Q 1363 391 1709 391 
Q 2188 391 2477 730 
Q 2766 1069 2766 1631 
L 2766 1759 
L 2194 1759 
z
M 3341 1997 
L 3341 0 
L 2766 0 
L 2766 531 
Q 2569 213 2275 61 
Q 1981 -91 1556 -91 
Q 1019 -91 701 211 
Q 384 513 384 1019 
Q 384 1609 779 1909 
Q 1175 2209 1959 2209 
L 2766 2209 
L 2766 2266 
Q 2766 2663 2505 2880 
Q 2244 3097 1772 3097 
Q 1472 3097 1187 3025 
Q 903 2953 641 2809 
L 641 3341 
Q 956 3463 1253 3523 
Q 1550 3584 1831 3584 
Q 2591 3584 2966 3190 
Q 3341 2797 3341 1997 
z
" transform="scale(0.015625)"/>
       <path id="DejaVuSans-74" d="M 1172 4494 
L 1172 3500 
L 2356 3500 
L 2356 3053 
L 1172 3053 
L 1172 1153 
Q 1172 725 1289 603 
Q 1406 481 1766 481 
L 2356 481 
L 2356 0 
L 1766 0 
Q 1100 0 847 248 
Q 594 497 594 1153 
L 594 3053 
L 172 3053 
L 172 3500 
L 594 3500 
L 594 4494 
L 1172 4494 
z
" transform="scale(0.015625)"/>
       <path id="DejaVuSans-65" d="M 3597 1894 
L 3597 1613 
L 953 1613 
Q 991 1019 1311 708 
Q 1631 397 2203 397 
Q 2534 397 2845 478 
Q 3156 559 3463 722 
L 3463 178 
Q 3153 47 2828 -22 
Q 2503 -91 2169 -91 
Q 1331 -91 842 396 
Q 353 884 353 1716 
Q 353 2575 817 3079 
Q 1281 3584 2069 3584 
Q 2775 3584 3186 3129 
Q 3597 2675 3597 1894 
z
M 3022 2063 
Q 3016 2534 2758 2815 
Q 2500 3097 2075 3097 
Q 1594 3097 1305 2825 
Q 1016 2553 972 2059 
L 3022 2063 
z
" transform="scale(0.015625)"/>
      </defs>
      <use xlink:href="#DejaVuSans-44"/>
      <use xlink:href="#DejaVuSans-61" x="77.001953"/>
      <use xlink:href="#DejaVuSans-74" x="138.28125"/>
      <use xlink:href="#DejaVuSans-65" x="177.490234"/>
     </g>
    </g>
   </g>
   <g id="matplotlib.axis_2">
    <g id="ytick_1">
     <g id="line2d_8">
      <defs>
       <path id="m954548e1d8" d="M 0 0 
L -3.5 0 
" style="stroke: #000000; stroke-width: 0.8"/>
      </defs>
      <g>
       <use xlink:href="#m954548e1d8" x="59.690625" y="341.357812" style="stroke: #000000; stroke-width: 0.8"/>
      </g>
     </g>
     <g id="text_9">
      <!-- 0 -->
      <g transform="translate(46.328125 345.157031) scale(0.1 -0.1)">
       <use xlink:href="#DejaVuSans-30"/>
      </g>
     </g>
    </g>
    <g id="ytick_2">
     <g id="line2d_9">
      <g>
       <use xlink:href="#m954548e1d8" x="59.690625" y="282.634805" style="stroke: #000000; stroke-width: 0.8"/>
      </g>
     </g>
     <g id="text_10">
      <!-- 5000 -->
      <g transform="translate(27.240625 286.434024) scale(0.1 -0.1)">
       <defs>
        <path id="DejaVuSans-35" d="M 691 4666 
L 3169 4666 
L 3169 4134 
L 1269 4134 
L 1269 2991 
Q 1406 3038 1543 3061 
Q 1681 3084 1819 3084 
Q 2600 3084 3056 2656 
Q 3513 2228 3513 1497 
Q 3513 744 3044 326 
Q 2575 -91 1722 -91 
Q 1428 -91 1123 -41 
Q 819 9 494 109 
L 494 744 
Q 775 591 1075 516 
Q 1375 441 1709 441 
Q 2250 441 2565 725 
Q 2881 1009 2881 1497 
Q 2881 1984 2565 2268 
Q 2250 2553 1709 2553 
Q 1456 2553 1204 2497 
Q 953 2441 691 2322 
L 691 4666 
z
" transform="scale(0.015625)"/>
       </defs>
       <use xlink:href="#DejaVuSans-35"/>
       <use xlink:href="#DejaVuSans-30" x="63.623047"/>
       <use xlink:href="#DejaVuSans-30" x="127.246094"/>
       <use xlink:href="#DejaVuSans-30" x="190.869141"/>
      </g>
     </g>
    </g>
    <g id="ytick_3">
     <g id="line2d_10">
      <g>
       <use xlink:href="#m954548e1d8" x="59.690625" y="223.911797" style="stroke: #000000; stroke-width: 0.8"/>
      </g>
     </g>
     <g id="text_11">
      <!-- 10000 -->
      <g transform="translate(20.878125 227.711016) scale(0.1 -0.1)">
       <use xlink:href="#DejaVuSans-31"/>
       <use xlink:href="#DejaVuSans-30" x="63.623047"/>
       <use xlink:href="#DejaVuSans-30" x="127.246094"/>
       <use xlink:href="#DejaVuSans-30" x="190.869141"/>
       <use xlink:href="#DejaVuSans-30" x="254.492188"/>
      </g>
     </g>
    </g>
    <g id="ytick_4">
     <g id="line2d_11">
      <g>
       <use xlink:href="#m954548e1d8" x="59.690625" y="165.18879" style="stroke: #000000; stroke-width: 0.8"/>
      </g>
     </g>
     <g id="text_12">
      <!-- 15000 -->
      <g transform="translate(20.878125 168.988008) scale(0.1 -0.1)">
       <use xlink:href="#DejaVuSans-31"/>
       <use xlink:href="#DejaVuSans-35" x="63.623047"/>
       <use xlink:href="#DejaVuSans-30" x="127.246094"/>
       <use xlink:href="#DejaVuSans-30" x="190.869141"/>
       <use xlink:href="#DejaVuSans-30" x="254.492188"/>
      </g>
     </g>
    </g>
    <g id="ytick_5">
     <g id="line2d_12">
      <g>
       <use xlink:href="#m954548e1d8" x="59.690625" y="106.465782" style="stroke: #000000; stroke-width: 0.8"/>
      </g>
     </g>
     <g id="text_13">
      <!-- 20000 -->
      <g transform="translate(20.878125 110.265001) scale(0.1 -0.1)">
       <use xlink:href="#DejaVuSans-32"/>
       <use xlink:href="#DejaVuSans-30" x="63.623047"/>
       <use xlink:href="#DejaVuSans-30" x="127.246094"/>
       <use xlink:href="#DejaVuSans-30" x="190.869141"/>
       <use xlink:href="#DejaVuSans-30" x="254.492188"/>
      </g>
     </g>
    </g>
    <g id="ytick_6">
     <g id="line2d_13">
      <g>
       <use xlink:href="#m954548e1d8" x="59.690625" y="47.742774" style="stroke: #000000; stroke-width: 0.8"/>
      </g>
     </g>
     <g id="text_14">
      <!-- 25000 -->
      <g transform="translate(20.878125 51.541993) scale(0.1 -0.1)">
       <use xlink:href="#DejaVuSans-32"/>
       <use xlink:href="#DejaVuSans-35" x="63.623047"/>
       <use xlink:href="#DejaVuSans-30" x="127.246094"/>
       <use xlink:href="#DejaVuSans-30" x="190.869141"/>
       <use xlink:href="#DejaVuSans-30" x="254.492188"/>
      </g>
     </g>
    </g>
    <g id="text_15">
     <!-- Ticket Redemptions -->
     <g transform="translate(14.798438 239.336719) rotate(-90) scale(0.1 -0.1)">
      <defs>
       <path id="DejaVuSans-54" d="M -19 4666 
L 3928 4666 
L 3928 4134 
L 2272 4134 
L 2272 0 
L 1638 0 
L 1638 4134 
L -19 4134 
L -19 4666 
z
" transform="scale(0.015625)"/>
       <path id="DejaVuSans-69" d="M 603 3500 
L 1178 3500 
L 1178 0 
L 603 0 
L 603 3500 
z
M 603 4863 
L 1178 4863 
L 1178 4134 
L 603 4134 
L 603 4863 
z
" transform="scale(0.015625)"/>
       <path id="DejaVuSans-63" d="M 3122 3366 
L 3122 2828 
Q 2878 2963 2633 3030 
Q 2388 3097 2138 3097 
Q 1578 3097 1268 2742 
Q 959 2388 959 1747 
Q 959 1106 1268 751 
Q 1578 397 2138 397 
Q 2388 397 2633 464 
Q 2878 531 3122 666 
L 3122 134 
Q 2881 22 2623 -34 
Q 2366 -91 2075 -91 
Q 1284 -91 818 406 
Q 353 903 353 1747 
Q 353 2603 823 3093 
Q 1294 3584 2113 3584 
Q 2378 3584 2631 3529 
Q 2884 3475 3122 3366 
z
" transform="scale(0.015625)"/>
       <path id="DejaVuSans-6b" d="M 581 4863 
L 1159 4863 
L 1159 1991 
L 2875 3500 
L 3609 3500 
L 1753 1863 
L 3688 0 
L 2938 0 
L 1159 1709 
L 1159 0 
L 581 0 
L 581 4863 
z
" transform="scale(0.015625)"/>
       <path id="DejaVuSans-20" transform="scale(0.015625)"/>
       <path id="DejaVuSans-52" d="M 2841 2188 
Q 3044 2119 3236 1894 
Q 3428 1669 3622 1275 
L 4263 0 
L 3584 0 
L 2988 1197 
Q 2756 1666 2539 1819 
Q 2322 1972 1947 1972 
L 1259 1972 
L 1259 0 
L 628 0 
L 628 4666 
L 2053 4666 
Q 2853 4666 3247 4331 
Q 3641 3997 3641 3322 
Q 3641 2881 3436 2590 
Q 3231 2300 2841 2188 
z
M 1259 4147 
L 1259 2491 
L 2053 2491 
Q 2509 2491 2742 2702 
Q 2975 2913 2975 3322 
Q 2975 3731 2742 3939 
Q 2509 4147 2053 4147 
L 1259 4147 
z
" transform="scale(0.015625)"/>
       <path id="DejaVuSans-64" d="M 2906 2969 
L 2906 4863 
L 3481 4863 
L 3481 0 
L 2906 0 
L 2906 525 
Q 2725 213 2448 61 
Q 2172 -91 1784 -91 
Q 1150 -91 751 415 
Q 353 922 353 1747 
Q 353 2572 751 3078 
Q 1150 3584 1784 3584 
Q 2172 3584 2448 3432 
Q 2725 3281 2906 2969 
z
M 947 1747 
Q 947 1113 1208 752 
Q 1469 391 1925 391 
Q 2381 391 2643 752 
Q 2906 1113 2906 1747 
Q 2906 2381 2643 2742 
Q 2381 3103 1925 3103 
Q 1469 3103 1208 2742 
Q 947 2381 947 1747 
z
" transform="scale(0.015625)"/>
       <path id="DejaVuSans-6d" d="M 3328 2828 
Q 3544 3216 3844 3400 
Q 4144 3584 4550 3584 
Q 5097 3584 5394 3201 
Q 5691 2819 5691 2113 
L 5691 0 
L 5113 0 
L 5113 2094 
Q 5113 2597 4934 2840 
Q 4756 3084 4391 3084 
Q 3944 3084 3684 2787 
Q 3425 2491 3425 1978 
L 3425 0 
L 2847 0 
L 2847 2094 
Q 2847 2600 2669 2842 
Q 2491 3084 2119 3084 
Q 1678 3084 1418 2786 
Q 1159 2488 1159 1978 
L 1159 0 
L 581 0 
L 581 3500 
L 1159 3500 
L 1159 2956 
Q 1356 3278 1631 3431 
Q 1906 3584 2284 3584 
Q 2666 3584 2933 3390 
Q 3200 3197 3328 2828 
z
" transform="scale(0.015625)"/>
       <path id="DejaVuSans-70" d="M 1159 525 
L 1159 -1331 
L 581 -1331 
L 581 3500 
L 1159 3500 
L 1159 2969 
Q 1341 3281 1617 3432 
Q 1894 3584 2278 3584 
Q 2916 3584 3314 3078 
Q 3713 2572 3713 1747 
Q 3713 922 3314 415 
Q 2916 -91 2278 -91 
Q 1894 -91 1617 61 
Q 1341 213 1159 525 
z
M 3116 1747 
Q 3116 2381 2855 2742 
Q 2594 3103 2138 3103 
Q 1681 3103 1420 2742 
Q 1159 2381 1159 1747 
Q 1159 1113 1420 752 
Q 1681 391 2138 391 
Q 2594 391 2855 752 
Q 3116 1113 3116 1747 
z
" transform="scale(0.015625)"/>
       <path id="DejaVuSans-6f" d="M 1959 3097 
Q 1497 3097 1228 2736 
Q 959 2375 959 1747 
Q 959 1119 1226 758 
Q 1494 397 1959 397 
Q 2419 397 2687 759 
Q 2956 1122 2956 1747 
Q 2956 2369 2687 2733 
Q 2419 3097 1959 3097 
z
M 1959 3584 
Q 2709 3584 3137 3096 
Q 3566 2609 3566 1747 
Q 3566 888 3137 398 
Q 2709 -91 1959 -91 
Q 1206 -91 779 398 
Q 353 888 353 1747 
Q 353 2609 779 3096 
Q 1206 3584 1959 3584 
z
" transform="scale(0.015625)"/>
       <path id="DejaVuSans-6e" d="M 3513 2113 
L 3513 0 
L 2938 0 
L 2938 2094 
Q 2938 2591 2744 2837 
Q 2550 3084 2163 3084 
Q 1697 3084 1428 2787 
Q 1159 2491 1159 1978 
L 1159 0 
L 581 0 
L 581 3500 
L 1159 3500 
L 1159 2956 
Q 1366 3272 1645 3428 
Q 1925 3584 2291 3584 
Q 2894 3584 3203 3211 
Q 3513 2838 3513 2113 
z
" transform="scale(0.015625)"/>
       <path id="DejaVuSans-73" d="M 2834 3397 
L 2834 2853 
Q 2591 2978 2328 3040 
Q 2066 3103 1784 3103 
Q 1356 3103 1142 2972 
Q 928 2841 928 2578 
Q 928 2378 1081 2264 
Q 1234 2150 1697 2047 
L 1894 2003 
Q 2506 1872 2764 1633 
Q 3022 1394 3022 966 
Q 3022 478 2636 193 
Q 2250 -91 1575 -91 
Q 1294 -91 989 -36 
Q 684 19 347 128 
L 347 722 
Q 666 556 975 473 
Q 1284 391 1588 391 
Q 1994 391 2212 530 
Q 2431 669 2431 922 
Q 2431 1156 2273 1281 
Q 2116 1406 1581 1522 
L 1381 1569 
Q 847 1681 609 1914 
Q 372 2147 372 2553 
Q 372 3047 722 3315 
Q 1072 3584 1716 3584 
Q 2034 3584 2315 3537 
Q 2597 3491 2834 3397 
z
" transform="scale(0.015625)"/>
      </defs>
      <use xlink:href="#DejaVuSans-54"/>
      <use xlink:href="#DejaVuSans-69" x="57.958984"/>
      <use xlink:href="#DejaVuSans-63" x="85.742188"/>
      <use xlink:href="#DejaVuSans-6b" x="140.722656"/>
      <use xlink:href="#DejaVuSans-65" x="195.007812"/>
      <use xlink:href="#DejaVuSans-74" x="256.53125"/>
      <use xlink:href="#DejaVuSans-20" x="295.740234"/>
      <use xlink:href="#DejaVuSans-52" x="327.527344"/>
      <use xlink:href="#DejaVuSans-65" x="392.509766"/>
      <use xlink:href="#DejaVuSans-64" x="454.033203"/>
      <use xlink:href="#DejaVuSans-65" x="517.509766"/>
      <use xlink:href="#DejaVuSans-6d" x="579.033203"/>
      <use xlink:href="#DejaVuSans-70" x="676.445312"/>
      <use xlink:href="#DejaVuSans-74" x="739.921875"/>
      <use xlink:href="#DejaVuSans-69" x="779.130859"/>
      <use xlink:href="#DejaVuSans-6f" x="806.914062"/>
      <use xlink:href="#DejaVuSans-6e" x="868.095703"/>
      <use xlink:href="#DejaVuSans-73" x="931.474609"/>
     </g>
    </g>
   </g>
   <g id="line2d_14">
    <path d="M 110.417898 339.408209 
L 111.220862 338.092813 
L 111.622344 338.550853 
L 112.023826 337.364648 
L 112.425309 336.883119 
L 112.826791 337.305925 
L 113.228273 336.812652 
L 113.629755 335.99053 
L 114.031237 335.602958 
L 114.432719 334.757346 
L 114.834202 335.68517 
L 115.235684 333.488929 
L 115.637166 336.495547 
L 116.038648 336.965332 
L 116.44013 333.841268 
L 116.841613 336.284145 
L 117.243095 337.01231 
L 117.644577 335.755638 
L 118.046059 331.327923 
L 118.447541 336.495547 
L 118.849023 335.83785 
L 119.250506 333.33625 
L 120.05347 335.555979 
L 120.454952 331.163498 
L 120.856434 334.604667 
L 121.257916 336.671716 
L 121.659399 335.567724 
L 122.060881 333.171825 
L 122.462363 334.94526 
L 122.863845 335.391555 
L 123.265327 331.668516 
L 123.666809 331.069542 
L 124.068292 328.650154 
L 124.469774 271.818027 
L 124.871256 256.585279 
L 125.272738 260.6724 
L 125.67422 268.353369 
L 126.075703 304.550231 
L 126.477185 232.297443 
L 126.878667 134.723293 
L 127.280149 265.593388 
L 127.681631 229.466994 
L 128.083113 230.841112 
L 128.484596 233.777263 
L 128.886078 287.825919 
L 129.689042 133.865937 
L 130.090524 236.584222 
L 130.492006 271.019394 
L 130.893489 226.765735 
L 131.294971 285.817592 
L 131.696453 256.467833 
L 132.499417 119.561013 
L 132.900899 237.042262 
L 133.302382 312.301668 
L 133.703864 246.297008 
L 134.105346 266.685636 
L 134.506828 234.317514 
L 134.90831 172.916737 
L 135.309793 181.619487 
L 135.711275 254.330315 
L 136.112757 254.271592 
L 136.514239 242.632692 
L 136.915721 266.732614 
L 137.317203 250.219705 
L 137.718686 185.671375 
L 138.120168 220.411906 
L 138.52165 153.902228 
L 138.923132 319.219239 
L 139.324614 311.643971 
L 139.726096 324.081504 
L 140.127579 312.677496 
L 140.529061 259.591897 
L 140.930543 226.847948 
L 141.332025 310.457766 
L 141.733507 298.807121 
L 142.134989 314.380463 
L 142.937954 294.485108 
L 143.339436 187.609234 
L 143.740918 198.508224 
L 144.1424 311.831884 
L 144.543883 312.289924 
L 144.945365 304.973037 
L 145.346847 303.258325 
L 145.748329 294.661277 
L 146.149811 180.515495 
L 146.551293 190.68632 
L 146.952776 292.006997 
L 147.354258 295.506888 
L 147.75574 306.288432 
L 148.157222 313.851956 
L 148.558704 331.140009 
L 148.960186 285.841081 
L 149.361669 275.482343 
L 149.763151 315.507945 
L 150.164633 307.134044 
L 150.566115 327.146845 
L 150.967597 308.696076 
L 151.36908 315.413988 
L 151.770562 295.178039 
L 152.172044 268.376859 
L 152.573526 301.872462 
L 152.975008 311.221165 
L 153.37649 332.020854 
L 153.777973 328.203859 
L 154.179455 322.120155 
L 154.580937 320.922206 
L 154.982419 328.967258 
L 155.383901 325.925406 
L 155.785383 321.685605 
L 156.186866 320.100084 
L 156.588348 317.939077 
L 156.98983 312.372136 
L 157.391312 292.817374 
L 157.792794 290.163094 
L 158.194276 327.792798 
L 158.595759 328.979002 
L 158.997241 328.650154 
L 159.398723 325.831449 
L 159.800205 325.150262 
L 160.201687 334.545944 
L 160.60317 326.089831 
L 161.004652 330.317887 
L 161.406134 327.099866 
L 161.807616 332.655063 
L 162.209098 333.864757 
L 162.61058 325.678769 
L 163.012063 329.143427 
L 163.413545 337.482094 
L 163.815027 331.562815 
L 164.216509 331.692005 
L 164.617991 327.510927 
L 165.019473 333.806034 
L 165.420956 333.829523 
L 165.822438 332.044343 
L 166.22392 333.629865 
L 166.625402 333.524163 
L 167.026884 332.760764 
L 167.428366 334.017437 
L 167.829849 332.302725 
L 168.231331 329.472276 
L 168.632813 336.201932 
L 169.034295 333.841268 
L 169.83726 332.525872 
L 170.238742 333.500674 
L 170.640224 333.394973 
L 171.041706 329.307851 
L 171.443188 330.541034 
L 171.84467 335.344577 
L 172.647635 329.906826 
L 173.049117 333.911735 
L 173.450599 334.804325 
L 173.852081 334.51071 
L 174.253563 330.576268 
L 174.655046 333.265782 
L 175.056528 334.66339 
L 175.45801 334.921771 
L 175.859492 333.888246 
L 176.260974 332.361448 
L 177.063939 335.509001 
L 177.866903 335.4033 
L 178.268385 336.014019 
L 178.669867 332.091322 
L 179.07135 334.898282 
L 179.472832 334.874792 
L 179.874314 335.732148 
L 180.275796 335.896573 
L 180.677278 335.415044 
L 181.07876 333.477185 
L 181.480243 333.254037 
L 181.881725 332.795998 
L 182.283207 335.344577 
L 182.684689 336.448569 
L 183.086171 335.074451 
L 183.487653 335.978785 
L 183.889136 337.200224 
L 184.290618 335.732148 
L 184.6921 335.544235 
L 185.093582 336.107976 
L 185.495064 334.980494 
L 186.298029 337.258947 
L 186.699511 340.888028 
L 187.100993 341.357812 
L 188.30544 341.357812 
L 188.706922 336.542526 
L 189.108404 335.861339 
L 189.509886 334.94526 
L 189.911368 334.79258 
L 190.31285 334.968749 
L 190.714333 336.213677 
L 191.115815 336.107976 
L 191.517297 336.366357 
L 191.918779 336.436824 
L 192.320261 335.344577 
L 192.721743 335.297598 
L 193.123226 334.94526 
L 193.524708 334.933515 
L 193.92619 333.148336 
L 194.327672 335.567724 
L 194.729154 336.11972 
L 195.130637 334.94526 
L 195.532119 334.804325 
L 195.933601 334.804325 
L 196.335083 334.029181 
L 196.736565 335.931807 
L 197.138047 334.322796 
L 197.53953 335.873084 
L 197.941012 335.708659 
L 198.342494 335.708659 
L 198.743976 335.227131 
L 199.145458 335.215386 
L 199.54694 341.193388 
L 199.948423 337.775709 
L 200.349905 335.344577 
L 200.751387 334.933515 
L 201.152869 336.166699 
L 201.554351 335.309343 
L 202.357316 336.977076 
L 202.758798 336.988821 
L 203.16028 334.416753 
L 203.561762 334.628156 
L 203.963244 333.430206 
L 204.364727 334.604667 
L 204.766209 333.676843 
L 205.167691 335.68517 
L 205.569173 330.752437 
L 205.970655 337.176734 
L 206.372137 335.238875 
L 206.77362 334.628156 
L 207.175102 333.430206 
L 207.576584 334.240584 
L 207.978066 332.995656 
L 208.379548 333.289271 
L 208.78103 332.326214 
L 209.182513 330.96384 
L 209.583995 334.040926 
L 209.985477 335.203641 
L 210.386959 334.475476 
L 210.788441 329.977294 
L 211.591406 333.794289 
L 211.992888 334.592922 
L 212.39437 334.957005 
L 212.795852 333.46544 
L 213.197334 334.040926 
L 214.000299 332.431915 
L 214.401781 335.215386 
L 214.803263 332.584595 
L 215.204745 333.876501 
L 215.606227 333.136591 
L 216.00771 333.993947 
L 216.409192 329.777635 
L 216.810674 330.658481 
L 217.212156 333.383228 
L 217.613638 333.864757 
L 218.01512 332.572851 
L 218.416603 333.441951 
L 218.818085 331.821196 
L 219.219567 328.89679 
L 219.621049 331.128265 
L 220.022531 330.705459 
L 220.424013 335.285854 
L 220.825496 330.494056 
L 221.226978 335.274109 
L 221.62846 324.187205 
L 222.029942 325.279453 
L 222.431424 327.005909 
L 222.832907 327.828032 
L 223.234389 334.957005 
L 223.635871 335.555979 
L 224.037353 332.572851 
L 224.438835 334.66339 
L 224.840317 332.514128 
L 225.2418 333.759055 
L 225.643282 332.1383 
L 226.044764 332.772509 
L 226.446246 333.629865 
L 226.847728 334.05267 
L 227.24921 332.784253 
L 227.650693 337.822687 
L 228.052175 339.784036 
L 229.256621 331.128265 
L 229.658104 332.831232 
L 230.059586 326.559615 
L 230.461068 315.719347 
L 230.86255 311.620481 
L 232.066997 332.619829 
L 232.468479 319.947404 
L 232.869961 317.821631 
L 233.271443 328.262582 
L 233.672925 316.576703 
L 234.47589 303.70462 
L 234.877372 311.878863 
L 235.278854 327.428715 
L 235.680336 327.851521 
L 236.081818 261.318353 
L 236.4833 312.630517 
L 236.884783 312.301668 
L 237.286265 308.226292 
L 237.687747 312.184222 
L 238.089229 321.356756 
L 238.490711 316.377045 
L 238.892194 309.588665 
L 239.293676 255.08197 
L 240.09664 326.277744 
L 240.498122 295.812248 
L 241.301087 306.51158 
L 241.702569 325.103284 
L 242.104051 159.398701 
L 242.505533 162.651956 
L 242.907015 323.975802 
L 243.308497 294.87268 
L 243.70998 293.451583 
L 244.111462 274.131713 
L 244.512944 237.512046 
L 244.914426 215.385217 
L 245.315908 275.40013 
L 245.71739 289.963436 
L 246.118873 292.558993 
L 246.520355 310.03496 
L 246.921837 284.983725 
L 247.323319 206.858636 
L 247.724801 304.949548 
L 248.527766 310.422532 
L 248.929248 303.70462 
L 249.33073 289.41144 
L 249.732212 257.12553 
L 250.133694 209.031387 
L 250.535177 180.19839 
L 250.936659 273.50925 
L 251.338141 278.406748 
L 251.739623 314.45093 
L 252.141105 270.890203 
L 252.542587 249.280137 
L 252.94407 88.649222 
L 253.345552 110.21231 
L 253.747034 299.828902 
L 254.148516 262.070008 
L 254.549998 264.994413 
L 254.95148 253.684362 
L 255.352963 232.309187 
L 255.754445 304.092192 
L 256.155927 321.345012 
L 256.557409 222.596402 
L 256.958891 250.889147 
L 257.360374 322.56645 
L 257.761856 240.142837 
L 258.163338 213.435613 
L 258.966302 38.957812 
L 259.367784 174.478769 
L 259.769267 239.684797 
L 260.170749 220.552841 
L 260.572231 265.217561 
L 260.973713 199.694429 
L 261.375195 101.439093 
L 261.776677 91.373969 
L 262.17816 235.398018 
L 262.579642 238.028808 
L 263.784088 219.906888 
L 264.18557 118.586211 
L 264.587053 87.885822 
L 264.988535 277.92522 
L 265.791499 166.504185 
L 266.192981 194.702973 
L 266.594464 163.039528 
L 266.995946 90.281721 
L 267.397428 306.311922 
L 267.79891 241.5287 
L 268.200392 266.955762 
L 268.601874 227.329476 
L 269.003357 247.048662 
L 269.404839 198.602181 
L 269.806321 107.722454 
L 270.207803 111.198856 
L 270.609285 199.729663 
L 271.010767 236.114438 
L 271.41225 258.593606 
L 271.813732 201.86718 
L 272.215214 196.311984 
L 272.616696 103.012869 
L 273.018178 66.545881 
L 273.419661 172.881504 
L 274.222625 309.670878 
L 274.624107 209.125344 
L 275.025589 182.371142 
L 275.427071 68.178381 
L 275.828554 117.106391 
L 276.230036 228.985465 
L 276.631518 219.448849 
L 277.033 204.36878 
L 277.835964 295.436421 
L 278.237447 107.745944 
L 278.638929 100.02974 
L 279.441893 328.579686 
L 279.843375 239.61433 
L 280.244857 188.865906 
L 280.64634 190.22828 
L 281.047822 239.391182 
L 281.449304 147.430952 
L 281.850786 285.453509 
L 282.252268 227.717048 
L 282.653751 280.473798 
L 283.055233 212.378599 
L 283.456715 203.311766 
L 283.858197 95.085263 
L 284.259679 153.726059 
L 284.661161 171.436918 
L 285.062644 297.233345 
L 285.464126 291.525468 
L 285.865608 309.659133 
L 286.26709 291.76036 
L 286.668572 235.433251 
L 287.070054 275.094771 
L 287.471537 332.126556 
L 287.873019 310.868827 
L 288.274501 300.075538 
L 288.675983 297.256834 
L 289.077465 283.703564 
L 289.478947 184.132832 
L 289.88043 189.112543 
L 290.281912 297.174622 
L 290.683394 293.639497 
L 291.084876 300.451365 
L 291.486358 317.633717 
L 291.887841 305.994817 
L 292.289323 261.095206 
L 292.690805 250.20796 
L 293.092287 317.081721 
L 293.493769 327.346503 
L 293.895251 310.481255 
L 294.296734 306.887407 
L 294.698216 298.666186 
L 295.099698 270.620078 
L 295.50118 307.615572 
L 295.902662 325.690514 
L 296.304144 330.364865 
L 296.705627 313.969402 
L 297.107109 308.472928 
L 297.508591 315.919006 
L 297.910073 319.01958 
L 298.713037 310.727892 
L 299.11452 295.483399 
L 299.516002 289.928202 
L 299.917484 315.789815 
L 300.318966 318.831667 
L 300.720448 315.895516 
L 301.121931 303.775088 
L 301.523413 327.910244 
L 301.924895 319.736001 
L 302.326377 325.37341 
L 302.727859 323.329849 
L 303.129341 313.14728 
L 303.530824 315.965984 
L 303.932306 325.115029 
L 304.333788 322.848321 
L 304.73527 327.240801 
L 305.136752 323.599975 
L 305.538234 323.717421 
L 305.939717 326.418679 
L 306.341199 330.599758 
L 306.742681 332.619829 
L 307.144163 330.952096 
L 307.545645 319.888681 
L 307.947128 327.769309 
L 308.34861 332.795998 
L 308.750092 331.692005 
L 309.151574 327.651863 
L 309.553056 318.855156 
L 309.954538 331.304434 
L 310.356021 330.787671 
L 311.158985 329.014236 
L 311.560467 331.527581 
L 311.961949 330.482311 
L 312.764914 329.260873 
L 313.166396 331.257455 
L 313.567878 330.212186 
L 313.96936 328.145136 
L 314.370842 334.534199 
L 314.772324 332.572851 
L 315.173807 333.254037 
L 315.575289 330.000783 
L 315.976771 330.822905 
L 316.378253 330.846394 
L 316.779735 331.762473 
L 317.181218 329.953804 
L 317.5827 337.211968 
L 317.984182 333.136591 
L 318.385664 333.46544 
L 318.787146 332.59634 
L 319.188628 331.2692 
L 319.590111 332.373192 
L 319.991593 331.809451 
L 320.393075 332.819487 
L 320.794557 334.769091 
L 321.196039 332.608084 
L 321.597521 332.056088 
L 321.999004 330.670225 
L 322.400486 332.490638 
L 322.801968 334.851303 
L 323.20345 334.968749 
L 323.604932 332.819487 
L 324.006414 332.995656 
L 324.407897 332.842976 
L 324.809379 329.225639 
L 325.210861 331.374901 
L 326.013825 334.240584 
L 326.415308 334.07616 
L 327.619754 329.895081 
L 328.021236 330.541034 
L 328.422718 331.656772 
L 328.824201 333.61812 
L 329.225683 334.745602 
L 329.627165 333.794289 
L 330.028647 333.500674 
L 330.430129 334.287562 
L 330.831611 333.653354 
L 331.233094 332.502383 
L 331.634576 330.37661 
L 332.43754 334.416753 
L 332.839022 332.995656 
L 333.240504 334.134883 
L 333.641987 334.545944 
L 334.043469 329.50751 
L 334.846433 334.757346 
L 335.247915 334.134883 
L 335.649398 332.126556 
L 336.05088 332.690297 
L 336.452362 332.819487 
L 336.853844 332.760764 
L 337.255326 336.178443 
L 337.656808 336.507292 
L 338.058291 332.795998 
L 338.459773 332.983912 
L 338.861255 332.478894 
L 339.262737 335.509001 
L 339.664219 332.384937 
L 340.065701 337.153245 
L 340.467184 338.116302 
L 340.868666 337.176734 
L 341.270148 332.995656 
L 341.67163 333.559397 
L 342.073112 332.150045 
L 342.474594 331.715495 
L 343.277559 337.352903 
L 343.679041 334.322796 
L 344.080523 337.094522 
L 344.482005 332.467149 
L 344.883488 334.111393 
L 345.28497 332.866466 
L 345.686452 334.757346 
L 346.087934 335.4033 
L 346.489416 332.490638 
L 346.890898 334.123138 
L 347.292381 337.129756 
L 347.693863 332.995656 
L 348.095345 331.938642 
L 348.496827 335.074451 
L 348.898309 336.049253 
L 349.299791 332.631574 
L 349.701274 340.700115 
L 350.102756 337.9049 
L 350.504238 332.467149 
L 350.90572 335.168407 
L 351.307202 334.134883 
L 351.708685 336.612993 
L 352.110167 334.745602 
L 352.511649 332.00911 
L 352.913131 332.608084 
L 353.314613 332.408426 
L 353.716095 331.457113 
L 354.117578 333.359739 
L 354.51906 339.07936 
L 354.920542 334.287562 
L 355.322024 333.113102 
L 355.723506 334.851303 
L 356.526471 330.270909 
L 356.927953 336.671716 
L 357.730917 333.066124 
L 358.132399 333.606375 
L 358.533881 331.386646 
L 358.935364 332.59634 
L 359.336846 332.173534 
L 359.738328 331.527581 
L 360.13981 337.44686 
L 360.541292 335.861339 
L 360.942775 333.782545 
L 361.344257 335.873084 
L 361.745739 335.215386 
L 362.147221 333.535908 
L 362.548703 334.111393 
L 362.950185 333.864757 
L 363.351668 334.416753 
L 363.75315 329.390064 
L 364.154632 330.306142 
L 364.556114 329.378319 
L 364.957596 331.821196 
L 365.359078 328.814578 
L 365.760561 330.81116 
L 366.563525 329.812869 
L 366.965007 328.133391 
L 367.366489 331.926897 
L 367.767971 324.48082 
L 368.169454 337.540817 
L 368.570936 336.612993 
L 368.972418 330.693714 
L 369.3739 330.740693 
L 369.775382 329.765891 
L 370.176865 329.331341 
L 370.578347 332.44366 
L 370.979829 321.204076 
L 371.381311 328.849812 
L 371.782793 325.596557 
L 372.184275 329.190405 
L 372.585758 327.781053 
L 372.98724 331.926897 
L 373.388722 328.791089 
L 373.790204 305.748181 
L 374.191686 338.374684 
L 374.593168 327.264291 
L 374.994651 328.18037 
L 375.396133 317.927332 
L 375.797615 323.423806 
L 376.199097 334.921771 
L 376.600579 315.21433 
L 377.002061 271.641858 
L 377.805026 328.885046 
L 378.206508 318.420606 
L 378.60799 315.507945 
L 379.009472 330.96384 
L 379.410955 322.801342 
L 379.812437 312.078521 
L 380.213919 329.284362 
L 380.615401 321.591648 
L 381.016883 329.765891 
L 381.819848 321.861774 
L 382.22133 317.880354 
L 382.622812 277.948709 
L 383.024294 319.17226 
L 383.425776 324.774435 
L 383.827258 321.345012 
L 384.228741 330.893373 
L 384.630223 320.440677 
L 385.031705 295.483399 
L 385.433187 331.280944 
L 385.834669 333.18357 
L 386.637634 318.89039 
L 387.039116 317.868609 
L 387.440598 305.207929 
L 387.84208 281.213708 
L 388.243562 187.797148 
L 388.645045 274.836389 
L 389.046527 305.207929 
L 389.448009 323.494274 
L 389.849491 319.266217 
L 390.250973 300.075538 
L 390.652455 326.136809 
L 391.053938 237.570769 
L 391.45542 298.654441 
L 391.856902 329.613211 
L 392.258384 322.601684 
L 392.659866 317.84512 
L 393.061348 300.557067 
L 393.462831 301.755016 
L 393.864313 286.428311 
L 394.265795 310.751381 
L 395.068759 330.165207 
L 395.470242 295.74178 
L 395.871724 277.067864 
L 396.273206 209.313258 
L 396.674688 247.436234 
L 397.07617 332.314469 
L 397.477652 289.188293 
L 397.879135 288.260469 
L 398.280617 331.39839 
L 399.485063 205.214392 
L 399.886545 308.883989 
L 400.288028 282.329445 
L 400.68951 284.502197 
L 401.090992 319.078303 
L 401.893956 194.327146 
L 402.295438 223.759117 
L 402.696921 300.510088 
L 403.098403 280.802647 
L 403.499885 279.334572 
L 403.901367 265.381985 
L 404.302849 284.25556 
L 404.704332 173.022439 
L 405.105814 95.602026 
L 405.507296 136.625919 
L 405.908778 295.283741 
L 406.31026 244.805443 
L 406.711742 237.958341 
L 407.113225 243.748429 
L 407.514707 209.900488 
L 407.916189 158.09505 
L 408.317671 251.5351 
L 408.719153 256.890638 
L 409.120635 249.010011 
L 409.522118 299.335628 
L 409.9236 231.463576 
L 410.325082 125.597738 
L 410.726564 97.786522 
L 411.128046 241.65789 
L 411.529528 269.175492 
L 411.931011 314.932459 
L 412.332493 244.276936 
L 412.733975 276.692037 
L 413.536939 171.495641 
L 413.938422 259.368749 
L 414.339904 230.711922 
L 414.741386 223.301078 
L 415.142868 235.926525 
L 415.54435 220.811222 
L 415.945832 123.46022 
L 416.748797 243.630983 
L 417.150279 294.931403 
L 417.551761 211.098437 
L 417.953243 212.026261 
L 418.354725 217.886817 
L 418.756208 140.818742 
L 419.15769 89.00156 
L 419.559172 116.941967 
L 419.960654 305.020015 
L 420.362136 244.089023 
L 420.763618 271.453944 
L 421.566583 128.216784 
L 421.968065 152.140537 
L 422.369547 264.489396 
L 422.771029 231.968594 
L 423.172512 220.235737 
L 423.573994 234.387982 
L 423.975476 222.279298 
L 424.376958 258.534883 
L 424.77844 202.243007 
L 425.179922 228.879764 
L 425.581405 209.207556 
L 425.982887 258.687562 
L 426.384369 208.773006 
L 426.785851 219.484083 
L 427.187333 138.716458 
L 427.588815 139.303688 
L 428.39178 320.851738 
L 428.793262 206.682467 
L 429.194744 222.373254 
L 429.596226 214.739263 
L 429.997708 126.302414 
L 430.399191 239.144545 
L 430.800673 192.365798 
L 431.202155 307.016598 
L 431.603637 313.288215 
L 432.005119 301.931185 
L 432.406602 313.804977 
L 432.808084 251.323697 
L 433.209566 243.584005 
L 433.611048 308.8605 
L 434.01253 311.197676 
L 434.414012 292.2184 
L 434.815495 314.110337 
L 435.216977 315.554923 
L 435.618459 238.933143 
L 436.019941 316.118664 
L 436.421423 315.731092 
L 436.822905 300.756725 
L 437.224388 301.778505 
L 437.62587 299.065502 
L 438.027352 290.844281 
L 438.428834 196.441174 
L 438.830316 226.061059 
L 439.231799 314.356974 
L 439.633281 307.462893 
L 440.034763 307.744763 
L 440.436245 314.415697 
L 440.837727 299.453074 
L 441.239209 311.338611 
L 441.640692 278.230579 
L 442.042174 318.632009 
L 442.443656 309.835302 
L 442.845138 329.883337 
L 443.24662 325.103284 
L 443.648102 309.471219 
L 444.049585 305.853882 
L 444.451067 319.266217 
L 444.852549 319.090048 
L 445.254031 313.981146 
L 445.655513 313.018089 
L 446.056995 314.60361 
L 446.458478 307.09881 
L 446.85996 310.434277 
L 447.261442 285.629678 
L 448.465889 330.987329 
L 448.867371 326.618338 
L 449.670335 306.51158 
L 450.071817 302.025142 
L 450.473299 321.955731 
L 450.874782 331.140009 
L 451.276264 322.190623 
L 451.677746 321.321522 
L 452.079228 324.363374 
L 452.48071 316.588448 
L 452.882192 333.958714 
L 453.283675 320.734292 
L 453.685157 325.631791 
L 454.086639 332.854721 
L 454.488121 331.915153 
L 454.889603 328.791089 
L 455.291085 332.326214 
L 455.692568 326.477402 
L 456.09405 329.989038 
L 456.495532 328.473985 
L 457.298496 331.750728 
L 457.699979 327.898499 
L 458.101461 331.386646 
L 458.502943 331.128265 
L 458.904425 334.381519 
L 459.305907 332.349703 
L 459.707389 332.514128 
L 460.108872 331.656772 
L 460.510354 331.85643 
L 460.911836 335.168407 
L 461.313318 333.019145 
L 461.7148 333.077868 
L 462.116282 331.926897 
L 462.517765 331.785962 
L 462.919247 332.197023 
L 463.320729 332.913444 
L 463.722211 330.482311 
L 464.123693 333.113102 
L 464.525175 334.686879 
L 464.926658 329.084704 
L 465.32814 332.314469 
L 465.729622 329.777635 
L 466.131104 330.423588 
L 466.532586 333.371483 
L 466.934069 339.196806 
L 467.737033 330.07125 
L 468.138515 332.795998 
L 468.539997 332.114811 
L 468.941479 334.440242 
L 469.342962 333.559397 
L 469.744444 334.557688 
L 470.145926 333.430206 
L 470.547408 333.066124 
L 470.94889 331.093031 
L 471.350372 331.304434 
L 471.751855 330.447078 
L 472.153337 337.869666 
L 472.554819 335.426789 
L 472.956301 331.821196 
L 473.357783 331.98562 
L 473.759266 332.455405 
L 474.160748 332.44366 
L 474.56223 330.752437 
L 474.963712 332.349703 
L 475.365194 332.643318 
L 475.766676 331.151754 
L 476.168159 334.604667 
L 476.569641 334.686879 
L 476.971123 335.673425 
L 477.774087 326.289489 
L 478.175569 337.540817 
L 478.577052 333.171825 
L 478.978534 335.180152 
L 479.380016 333.817778 
L 479.781498 331.70375 
L 480.584462 334.733857 
L 480.985945 335.215386 
L 481.387427 332.678552 
L 481.788909 332.784253 
L 482.190391 333.394973 
L 482.591873 332.678552 
L 482.993356 332.44366 
L 483.394838 337.998856 
L 483.79632 336.483803 
L 484.197802 332.619829 
L 484.599284 333.113102 
L 485.000766 332.514128 
L 485.402249 332.619829 
L 486.205213 337.623029 
L 486.606695 336.953587 
L 487.008177 335.53249 
L 487.409659 333.054379 
L 487.811142 332.244002 
L 488.212624 332.244002 
L 488.614106 332.561106 
L 489.015588 337.059288 
L 489.41707 336.225422 
L 489.818552 332.784253 
L 490.220035 332.349703 
L 490.621517 331.42188 
L 491.022999 332.279236 
L 491.424481 331.903408 
L 492.227446 336.742184 
L 492.628928 331.034308 
L 493.03041 331.997365 
L 493.431892 331.656772 
L 493.833374 336.084486 
L 494.234856 336.248911 
L 494.636339 335.497256 
L 495.037821 336.73044 
L 495.439303 331.903408 
L 495.840785 335.450278 
L 496.242267 335.086195 
L 496.643749 333.019145 
L 497.045232 336.096231 
L 497.446714 335.743893 
L 498.249678 331.55107 
L 498.65116 332.525872 
L 499.052642 331.692005 
L 499.454125 333.571142 
L 499.855607 333.723822 
L 500.257089 331.962131 
L 500.658571 328.802833 
L 501.461536 332.349703 
L 502.2645 333.488929 
L 502.665982 332.666807 
L 503.067464 334.94526 
L 503.468946 334.992238 
L 503.870429 333.371483 
L 504.271911 332.901699 
L 504.673393 330.447078 
L 505.074875 330.329632 
L 505.476357 332.831232 
L 505.877839 331.316178 
L 506.279322 323.165425 
L 507.082286 332.760764 
L 507.88525 331.832941 
L 508.286732 332.807743 
L 508.688215 335.121429 
L 509.089697 333.066124 
L 509.491179 337.822687 
L 510.294143 338.64481 
L 510.695626 338.750511 
L 511.097108 339.07936 
L 511.49859 339.008892 
L 511.900072 340.206842 
L 512.703036 338.92668 
L 513.104519 339.51391 
L 513.907483 339.384719 
L 514.710447 340.465223 
L 515.513412 339.572633 
L 515.914894 339.596122 
L 516.316376 339.490421 
L 516.717858 339.607867 
L 517.11934 339.983694 
L 517.520823 340.523946 
L 517.922305 339.877993 
L 519.126751 339.408209 
L 519.528233 340.805816 
L 519.929716 339.643101 
L 520.331198 340.981985 
L 520.73268 340.629647 
L 521.134162 339.678334 
L 521.937126 339.314252 
L 522.740091 339.760547 
L 523.141573 340.606158 
L 523.543055 339.525655 
L 523.944537 339.79578 
L 524.346019 339.114594 
L 525.148984 339.478676 
L 525.550466 339.784036 
L 525.951948 340.723604 
L 526.35343 339.560888 
L 526.754913 339.408209 
L 527.557877 339.584378 
L 527.959359 339.008892 
L 528.360841 339.631356 
L 528.762323 339.81927 
L 529.163806 339.737057 
L 529.565288 338.950169 
L 530.368252 339.314252 
L 530.769734 338.64481 
L 531.171216 339.936716 
L 531.572699 340.007183 
L 531.974181 339.701824 
L 532.777145 338.586087 
L 533.178627 339.185061 
L 533.580109 339.36123 
L 533.981592 338.633065 
L 534.383074 340.218586 
L 534.784556 340.55918 
L 535.186038 338.950169 
L 535.58752 338.362939 
L 535.989003 338.128047 
L 536.390485 338.292472 
L 537.193449 340.124629 
L 537.594931 338.844468 
L 537.996413 338.703533 
L 538.397896 339.008892 
L 538.799378 338.480385 
L 539.20086 338.914935 
L 539.602342 338.856212 
L 540.003824 339.478676 
L 540.405306 338.750511 
L 541.208271 338.550853 
L 541.609753 337.740475 
L 542.011235 338.128047 
L 542.412717 338.680043 
L 542.814199 339.020637 
L 543.215682 338.715277 
L 543.617164 338.116302 
L 544.018646 338.586087 
L 544.420128 337.987112 
L 544.82161 337.681752 
L 545.624575 338.903191 
L 546.026057 338.210259 
L 546.829021 337.611285 
L 547.631986 337.282436 
L 548.033468 337.482094 
L 548.43495 338.198515 
L 548.836432 338.480385 
L 549.237914 338.257238 
L 549.639396 337.305925 
L 550.040879 337.341159 
L 550.442361 336.260655 
L 550.843843 320.769526 
L 551.245325 292.124443 
L 551.646807 317.774653 
L 552.048289 318.772944 
L 552.449772 274.448818 
L 552.851254 309.952748 
L 553.252736 309.060158 
L 553.654218 279.980525 
L 554.0557 294.085791 
L 554.457183 318.385372 
L 554.858665 320.417188 
L 555.260147 320.076595 
L 556.063111 313.722765 
L 556.464593 328.826323 
L 556.866076 296.188075 
L 557.267558 324.821414 
L 557.66904 315.367009 
L 558.070522 312.055032 
L 558.472004 334.992238 
L 559.274969 280.27414 
L 559.676451 319.900426 
L 560.077933 312.665751 
L 560.479415 315.531434 
L 560.880897 334.040926 
L 561.683862 303.317048 
L 562.085344 271.794538 
L 562.486826 282.693528 
L 562.888308 329.589722 
L 563.28979 310.974528 
L 563.691273 321.990965 
L 564.494237 297.785341 
L 564.895719 281.025794 
L 565.297201 327.111611 
L 565.698683 316.893808 
L 566.100166 333.876501 
L 566.501648 308.238036 
L 566.90313 306.3589 
L 567.304612 302.81203 
L 567.706094 277.408457 
L 568.107576 281.941873 
L 568.509059 312.242945 
L 568.910541 327.252546 
L 569.312023 302.635861 
L 569.713505 307.028342 
L 570.114987 296.48169 
L 570.51647 279.933547 
L 570.917952 313.605319 
L 571.319434 325.138518 
L 571.720916 309.764834 
L 572.122398 308.531651 
L 572.52388 304.538487 
L 572.925363 309.330284 
L 573.326845 277.361479 
L 573.728327 276.915184 
L 574.129809 312.924132 
L 574.531291 305.020015 
L 575.334256 322.26109 
L 576.13722 295.964928 
L 576.538702 279.299338 
L 576.940184 308.061867 
L 577.341666 310.704403 
L 577.743149 329.777635 
L 578.144631 304.808613 
L 578.546113 302.389225 
L 578.947595 276.962162 
L 579.349077 278.324536 
L 579.75056 315.355265 
L 580.152042 334.51071 
L 580.553524 328.755855 
L 580.955006 330.411844 
L 581.356488 322.519472 
L 581.75797 303.728109 
L 582.159453 320.992673 
L 582.560935 330.400099 
L 582.962417 331.492347 
L 583.363899 319.04307 
L 583.765381 330.881628 
L 584.166863 328.603175 
L 584.568346 316.001218 
L 584.969828 318.538052 
L 585.37131 331.445369 
L 585.772792 330.52929 
L 586.174274 321.897008 
L 586.575756 330.740693 
L 586.977239 322.437259 
L 587.378721 298.595718 
L 587.780203 308.097101 
L 588.181685 329.131682 
L 588.583167 333.723822 
L 588.98465 335.520746 
L 589.386132 332.619829 
L 589.787614 335.027472 
L 590.189096 326.430424 
L 590.590578 337.200224 
L 590.99206 332.173534 
L 591.393543 331.692005 
L 591.795025 334.863048 
L 592.196507 332.995656 
L 592.597989 330.353121 
L 592.999471 322.120155 
L 593.400953 328.532708 
L 593.802436 332.373192 
L 594.203918 330.752437 
L 594.6054 331.39839 
L 595.006882 335.779127 
L 595.408364 332.72553 
L 595.809846 326.900208 
L 596.211329 335.027472 
L 596.612811 335.485512 
L 597.014293 334.311052 
L 597.415775 335.015728 
L 597.817257 335.203641 
L 598.21874 327.346503 
L 598.620222 331.973876 
L 599.021704 335.062706 
L 599.423186 335.039217 
L 599.824668 335.37981 
L 600.22615 332.502383 
L 600.627633 335.109684 
L 601.430597 332.572851 
L 601.832079 339.044126 
L 602.233561 335.779127 
L 602.635043 335.285854 
L 603.036526 331.973876 
L 603.438008 333.547652 
L 604.240972 325.291198 
L 605.043937 328.215603 
L 605.445419 325.197241 
L 605.846901 330.141718 
L 606.248383 333.207059 
L 606.649865 333.782545 
L 607.051347 332.995656 
L 607.45283 340.124629 
L 607.854312 336.049253 
L 608.255794 335.309343 
L 609.058758 334.675134 
L 609.46024 333.46544 
L 610.263205 339.913227 
L 610.664687 335.931807 
L 611.066169 335.579469 
L 611.467651 335.790871 
L 611.869133 335.168407 
L 612.270616 335.003983 
L 612.672098 336.319378 
L 613.07358 336.131465 
L 613.475062 336.448569 
L 613.876544 338.351195 
L 614.278027 335.708659 
L 614.679509 335.109684 
L 615.080991 335.790871 
L 615.883955 338.680043 
L 616.285437 335.567724 
L 616.68692 335.4033 
L 617.088402 335.802616 
L 617.489884 334.957005 
L 617.891366 334.440242 
L 618.292848 339.279018 
L 618.69433 338.480385 
L 619.095813 335.720404 
L 619.497295 335.062706 
L 619.898777 335.978785 
L 620.701741 334.581177 
L 621.103223 338.128047 
L 621.504706 339.173317 
L 621.906188 337.810943 
L 622.30767 337.31767 
L 622.709152 336.178443 
L 623.110634 338.539108 
L 623.512117 339.737057 
L 624.315081 337.893155 
L 624.716563 339.149827 
L 625.118045 337.129756 
L 625.519527 338.680043 
L 625.92101 336.918353 
L 626.322492 338.938425 
L 626.723974 337.282436 
L 627.125456 339.478676 
L 627.526938 338.715277 
L 628.329903 338.233748 
L 628.731385 337.893155 
L 629.132867 337.998856 
L 629.534349 335.426789 
L 629.935831 337.916644 
L 630.337313 338.398173 
L 630.738796 338.386428 
L 631.140278 337.998856 
L 631.54176 338.715277 
L 631.943242 338.961914 
L 632.344724 337.728731 
L 632.746207 339.443442 
L 633.147689 338.985403 
L 633.549171 338.762256 
L 633.950653 338.691788 
L 634.352135 338.433407 
L 634.753617 338.527364 
L 635.1551 337.623029 
L 635.556582 338.950169 
L 635.958064 338.515619 
L 636.359546 339.290763 
L 636.761028 338.409918 
L 637.16251 338.64481 
L 637.563993 338.362939 
L 637.965475 335.227131 
L 638.366957 338.456896 
L 638.768439 338.633065 
L 639.169921 338.222004 
L 639.571404 336.695206 
L 639.972886 337.799198 
L 640.374368 338.49213 
L 640.77585 335.826105 
L 641.177332 336.107976 
L 641.578814 338.03409 
L 642.783261 337.282436 
L 643.184743 337.587795 
L 643.586225 334.816069 
L 643.987707 330.96384 
L 644.38919 333.371483 
L 644.790672 338.785745 
L 645.192154 335.180152 
L 645.593636 336.57776 
L 645.995118 336.354612 
L 646.3966 337.188479 
L 646.798083 341.357812 
L 647.199565 341.357812 
L 647.601047 340.629647 
L 648.002529 337.282436 
L 648.805494 335.884828 
L 649.206976 333.92348 
L 649.608458 338.727022 
L 650.00994 337.822687 
L 650.411422 337.31767 
L 650.812904 335.520746 
L 651.214387 336.695206 
L 651.615869 336.648227 
L 652.017351 335.509001 
L 652.418833 333.723822 
L 652.820315 336.695206 
L 653.221797 335.086195 
L 653.62328 334.698623 
L 654.024762 336.519037 
L 654.426244 334.545944 
L 654.827726 331.175243 
L 655.229208 336.988821 
L 655.63069 337.106267 
L 656.032173 337.482094 
L 656.433655 336.284145 
L 656.835137 337.552562 
L 657.236619 335.96704 
L 657.638101 320.111828 
L 658.039584 324.19895 
L 658.441066 333.876501 
L 659.24403 336.389846 
L 659.645512 333.46544 
L 660.046994 337.211968 
L 660.448477 331.926897 
L 660.849959 339.067615 
L 661.251441 336.589504 
L 661.652923 330.869883 
L 662.054405 336.918353 
L 662.455887 336.742184 
L 662.85737 331.233966 
L 663.258852 332.925189 
L 663.660334 321.838285 
L 664.061816 335.003983 
L 664.463298 335.955296 
L 664.86478 334.827814 
L 665.266263 334.240584 
L 665.667745 336.342868 
L 666.069227 321.497691 
L 666.470709 339.643101 
L 666.872191 338.304216 
L 667.273674 336.319378 
L 667.675156 332.819487 
L 668.076638 337.658263 
L 668.47812 336.436824 
L 668.879602 336.55427 
L 669.281084 335.602958 
L 669.682567 337.364648 
L 670.084049 337.834432 
L 670.485531 338.809234 
L 670.887013 338.081069 
L 671.288495 332.302725 
L 671.689977 328.861556 
L 672.09146 335.121429 
L 672.492942 336.953587 
L 672.894424 337.141501 
L 673.295906 338.175025 
L 673.697388 337.975367 
L 674.09887 337.258947 
L 674.500353 331.280944 
L 674.901835 336.213677 
L 675.303317 337.951878 
L 675.704799 337.987112 
L 676.106281 336.800907 
L 676.507764 334.463731 
L 676.909246 336.85963 
L 677.310728 327.546161 
L 677.71221 331.128265 
L 678.113692 336.519037 
L 678.515174 336.683461 
L 678.916657 331.210477 
L 679.719621 327.546161 
L 680.121103 313.311704 
L 680.522585 310.481255 
L 680.924067 330.329632 
L 681.32555 326.54787 
L 681.727032 326.430424 
L 682.128514 328.932024 
L 682.529996 313.018089 
L 682.931478 313.382172 
L 683.332961 272.475725 
L 683.734443 272.088153 
L 684.135925 323.365083 
L 684.537407 333.571142 
L 684.938889 323.036234 
L 685.340371 337.576051 
L 685.741854 299.276905 
L 686.143336 289.787267 
L 686.544818 320.475911 
L 686.9463 321.450713 
L 687.347782 323.341594 
L 687.749264 333.982203 
L 688.150747 319.524598 
L 688.552229 273.121678 
L 688.953711 266.28632 
L 689.355193 319.148771 
L 689.756675 334.040926 
L 690.55964 315.4962 
L 690.961122 312.595283 
L 691.362604 272.076408 
L 691.764086 280.86137 
L 692.165568 331.445369 
L 692.567051 320.616846 
L 692.968533 317.574994 
L 693.370015 315.860283 
L 693.771497 332.74902 
L 694.172979 262.3049 
L 694.574461 267.167165 
L 694.975944 328.427006 
L 695.377426 324.586522 
L 696.18039 308.625608 
L 696.581872 321.380245 
L 696.983354 316.917297 
L 697.384837 265.616877 
L 697.786319 314.427441 
L 698.187801 329.272618 
L 698.589283 320.734292 
L 698.990765 271.982451 
L 699.392247 311.702694 
L 699.79373 249.303626 
L 700.195212 255.481286 
L 700.596694 299.711456 
L 700.998176 308.508162 
L 701.801141 332.936933 
L 702.202623 314.615355 
L 702.604105 247.776828 
L 703.005587 306.687749 
L 703.407069 314.873736 
L 703.808551 319.935659 
L 704.210034 293.956601 
L 705.012998 304.162659 
L 705.41448 309.999726 
L 705.815962 250.771701 
L 706.217444 285.747124 
L 706.618927 303.258325 
L 707.020409 266.579935 
L 707.421891 284.631387 
L 707.823373 261.741159 
L 708.224855 283.644841 
L 708.626337 214.152033 
L 709.429302 321.168842 
L 709.830784 255.880603 
L 710.232266 322.190623 
L 710.633748 242.409545 
L 711.035231 224.076222 
L 711.436713 288.483616 
L 711.838195 173.28082 
L 712.239677 268.130222 
L 712.641159 255.880603 
L 713.042641 248.669417 
L 713.845606 265.769557 
L 714.247088 208.080074 
L 715.050052 317.621973 
L 715.853017 279.322827 
L 716.254499 290.632879 
L 716.655981 184.943209 
L 717.057463 189.582327 
L 717.458945 255.034991 
L 717.860427 300.204729 
L 718.26191 294.755234 
L 718.663392 276.609824 
L 719.064874 247.812061 
L 719.466356 188.795439 
L 720.269321 265.652111 
L 720.670803 236.06746 
L 721.072285 293.369371 
L 721.473767 282.18851 
L 721.875249 249.714687 
L 722.276731 201.397396 
L 722.678214 266.744359 
L 723.079696 278.371515 
L 723.481178 263.596806 
L 723.88266 267.00274 
L 724.284142 257.994631 
L 724.685624 245.874202 
L 725.087107 169.851396 
L 725.488589 176.745478 
L 725.890071 213.388634 
L 726.291553 282.693528 
L 726.693035 318.115246 
L 727.094518 327.616629 
L 727.496 309.776579 
L 727.897482 263.866932 
L 728.298964 313.898934 
L 728.700446 321.579904 
L 729.101928 326.747528 
L 729.503411 325.443877 
L 729.904893 317.856865 
L 730.306375 307.38068 
L 730.707857 259.157346 
L 731.109339 269.433873 
L 731.510821 314.709312 
L 731.912304 326.817996 
L 732.313786 334.863048 
L 733.11675 320.875227 
L 733.518232 318.068268 
L 733.919714 299.464819 
L 734.321197 326.559615 
L 734.722679 322.366792 
L 735.124161 321.027907 
L 735.927125 317.081721 
L 736.328608 280.015759 
L 736.73009 333.242293 
L 737.131572 332.431915 
L 737.533054 328.239093 
L 737.934536 326.606593 
L 738.336018 326.500892 
L 738.737501 326.747528 
L 739.138983 328.591431 
L 739.540465 295.401187 
L 739.941947 285.594444 
L 740.343429 323.811378 
L 740.744911 318.103501 
L 741.547876 330.68197 
L 741.949358 327.628373 
L 742.35084 320.276253 
L 742.752322 327.980711 
L 743.153804 319.689023 
L 743.956769 333.077868 
L 744.759733 320.95744 
L 745.161215 312.019798 
L 745.562698 334.886537 
L 745.96418 333.888246 
L 746.365662 320.37021 
L 746.767144 327.757564 
L 747.168626 331.081286 
L 747.570108 335.649936 
L 747.971591 321.051396 
L 748.373073 328.579686 
L 748.774555 329.448787 
L 749.176037 331.656772 
L 749.577519 331.645027 
L 749.979001 326.947186 
L 750.380484 318.972602 
L 750.781966 315.449222 
L 751.58493 331.104775 
L 751.986412 328.262582 
L 752.387894 327.146845 
L 752.789377 325.643536 
L 753.190859 325.361665 
L 753.592341 337.341159 
L 753.993823 332.29098 
L 754.395305 331.680261 
L 754.796788 334.087904 
L 755.19827 333.430206 
L 755.599752 331.797707 
L 756.001234 331.151754 
L 756.402716 335.68517 
L 756.804198 333.629865 
L 757.205681 332.854721 
L 757.607163 331.468858 
L 758.008645 333.841268 
L 758.410127 332.29098 
L 758.811609 331.762473 
L 759.213091 338.49213 
L 759.614574 334.346285 
L 760.016056 334.252329 
L 760.417538 333.747311 
L 760.81902 333.817778 
L 761.220502 332.960422 
L 761.621984 333.007401 
L 762.023467 338.010601 
L 762.424949 334.698623 
L 762.826431 333.665099 
L 763.227913 334.628156 
L 763.629395 334.346285 
L 764.030878 333.629865 
L 764.43236 335.708659 
L 764.833842 333.254037 
L 765.235324 332.713786 
L 765.636806 333.148336 
L 766.038288 334.933515 
L 766.439771 333.876501 
L 766.841253 333.371483 
L 767.242735 337.623029 
L 767.644217 334.874792 
L 768.045699 335.661681 
L 768.447181 335.003983 
L 768.848664 336.295889 
L 769.250146 335.943551 
L 769.651628 337.411626 
L 770.05311 335.826105 
L 770.454592 332.866466 
L 770.856075 338.045835 
L 771.257557 333.524163 
L 771.659039 334.592922 
L 772.060521 332.819487 
L 772.462003 332.960422 
L 773.264968 337.305925 
L 773.66645 335.109684 
L 774.067932 335.779127 
L 774.469414 338.715277 
L 774.870896 337.153245 
L 775.272378 337.024055 
L 775.673861 334.980494 
L 776.075343 337.681752 
L 776.476825 338.727022 
L 776.878307 338.456896 
L 777.279789 336.73044 
L 777.681271 336.906609 
L 778.082754 336.601249 
L 778.484236 336.648227 
L 778.885718 328.814578 
L 779.2872 339.842759 
L 779.688682 337.799198 
L 780.090165 335.003983 
L 780.491647 335.849594 
L 780.893129 335.050961 
L 781.294611 331.809451 
L 781.696093 332.960422 
L 782.097575 335.790871 
L 782.499058 334.722113 
L 783.302022 335.238875 
L 783.703504 333.935224 
L 784.104986 327.933733 
L 784.506468 330.599758 
L 784.907951 335.743893 
L 785.309433 333.301016 
L 785.710915 335.602958 
L 786.112397 335.849594 
L 786.513879 334.686879 
L 786.915361 331.844685 
L 787.316844 330.200441 
L 787.718326 333.888246 
L 788.119808 334.710368 
L 788.52129 333.864757 
L 788.922772 337.094522 
L 789.324255 341.357812 
L 789.725737 341.357812 
L 790.127219 340.336032 
L 790.930183 334.710368 
L 791.331665 333.759055 
L 791.733148 336.143209 
L 792.13463 337.047544 
L 792.536112 336.248911 
L 792.937594 334.05267 
L 793.339076 329.6367 
L 793.740558 335.027472 
L 794.142041 333.347994 
L 794.543523 332.831232 
L 794.945005 334.757346 
L 795.346487 333.958714 
L 795.747969 336.812652 
L 796.550934 333.31276 
L 797.353898 333.218804 
L 797.75538 332.455405 
L 798.156862 333.33625 
L 798.558345 324.022781 
L 798.959827 335.649936 
L 799.361309 332.702041 
L 799.762791 332.326214 
L 800.164273 332.384937 
L 800.565755 334.921771 
L 800.967238 335.520746 
L 801.36872 337.763964 
L 801.770202 333.383228 
L 802.171684 337.176734 
L 802.573166 334.886537 
L 802.974648 322.672151 
L 803.777613 335.83785 
L 804.179095 325.314687 
L 804.580577 329.554488 
L 804.982059 331.680261 
L 805.383542 335.53249 
L 805.785024 332.103067 
L 806.186506 332.760764 
L 806.587988 332.44366 
L 806.98947 337.529072 
L 807.792435 331.010819 
L 808.193917 335.168407 
L 808.595399 331.198732 
L 808.996881 335.544235 
L 809.398363 322.542961 
L 809.799845 334.451987 
L 810.201328 330.658481 
L 810.60281 331.715495 
L 811.004292 333.371483 
L 811.405774 330.317887 
L 811.807256 331.2692 
L 812.208738 331.069542 
L 812.610221 323.094957 
L 813.011703 330.400099 
L 813.413185 317.069977 
L 813.814667 330.176952 
L 814.216149 326.958931 
L 814.617632 319.289706 
L 815.019114 306.94613 
L 815.420596 305.900861 
L 815.822078 332.197023 
L 816.22356 331.668516 
L 816.625042 321.227565 
L 817.026525 330.775927 
L 817.428007 314.192549 
L 817.829489 330.07125 
L 818.230971 290.574156 
L 818.632453 330.317887 
L 819.033935 325.725748 
L 819.435418 328.955513 
L 820.238382 314.650589 
L 820.639864 292.488526 
L 821.041346 333.606375 
L 821.442828 325.314687 
L 821.844311 329.589722 
L 822.245793 319.771235 
L 822.647275 313.840211 
L 823.048757 320.511145 
L 823.450239 283.680074 
L 823.851722 266.56819 
L 824.253204 316.717639 
L 824.654686 319.113537 
L 825.859132 300.063794 
L 826.260615 219.143489 
L 826.662097 258.863731 
L 827.063579 328.943769 
L 827.465061 317.434059 
L 827.866543 316.858574 
L 828.268025 314.638844 
L 828.669508 303.187858 
L 829.07099 278.371515 
L 829.472472 274.648476 
L 829.873954 200.446083 
L 830.275436 311.961075 
L 830.676918 316.846829 
L 831.078401 316.623682 
L 831.479883 324.727457 
L 831.881365 220.482374 
L 832.282847 216.31304 
L 832.684329 291.736871 
L 833.085812 293.67473 
L 833.487294 326.794507 
L 833.888776 310.046705 
L 834.290258 280.802647 
L 834.69174 185.671375 
L 835.093222 230.206904 
L 835.494705 314.509653 
L 835.896187 327.745819 
L 836.297669 292.758651 
L 836.699151 312.313413 
L 837.100633 269.022812 
L 837.502115 248.751629 
L 837.903598 301.390934 
L 838.30508 279.346316 
L 838.706562 285.876315 
L 839.108044 301.50838 
L 839.509526 304.256616 
L 839.911008 263.690763 
L 840.312491 146.279981 
L 840.713973 115.391679 
L 841.115455 295.718291 
L 841.516937 268.623495 
L 841.918419 288.201746 
L 842.721384 243.57226 
L 843.122866 128.228529 
L 843.524348 264.512885 
L 843.92583 260.872058 
L 844.327312 261.494522 
L 844.728795 305.630735 
L 845.130277 246.496666 
L 845.933241 107.675476 
L 846.334723 139.397645 
L 847.137688 313.346938 
L 847.53917 245.568842 
L 847.940652 252.674326 
L 848.342134 254.764865 
L 848.743616 141.006655 
L 849.145099 132.773689 
L 849.546581 238.204977 
L 849.948063 271.818027 
L 850.349545 282.024086 
L 850.751027 229.807587 
L 851.152509 224.170179 
L 851.553992 73.604387 
L 851.955474 135.240056 
L 852.356956 302.036887 
L 852.758438 266.532956 
L 853.15992 255.375585 
L 853.561402 231.475321 
L 853.962885 221.151816 
L 854.364367 123.166605 
L 854.765849 289.282249 
L 855.167331 221.504154 
L 855.568813 230.91158 
L 855.970295 234.775554 
L 856.371778 212.695703 
L 856.77326 213.494336 
L 857.174742 135.063887 
L 857.576224 104.351754 
L 858.379189 229.819332 
L 858.780671 233.835986 
L 859.182153 301.48489 
L 859.985117 124.329321 
L 860.788082 305.219674 
L 861.189564 246.649346 
L 861.591046 218.885108 
L 861.992528 214.786242 
L 862.39401 203.49968 
L 862.795492 98.937492 
L 863.999939 230.065968 
L 864.401421 259.357005 
L 865.204385 210.652142 
L 865.605868 131.235147 
L 866.00735 271.395221 
L 866.408832 315.085139 
L 866.810314 243.771918 
L 867.211796 232.908162 
L 867.613279 285.664912 
L 868.014761 263.279702 
L 868.416243 155.382047 
L 868.817725 168.195408 
L 869.620689 313.8637 
L 870.022172 249.397583 
L 870.423654 238.756974 
L 870.825136 210.382016 
L 871.226618 157.390374 
L 871.6281 252.627348 
L 872.029582 241.129383 
L 872.431065 298.525251 
L 872.832547 313.370427 
L 873.234029 299.946348 
L 873.635511 290.550666 
L 874.036993 212.014516 
L 874.438475 251.910927 
L 874.839958 325.103284 
L 875.24144 319.677278 
L 875.642922 300.427876 
L 876.044404 305.818648 
L 876.445886 301.179531 
L 876.847369 219.754208 
L 877.248851 296.669604 
L 877.650333 293.275414 
L 878.051815 298.443039 
L 878.453297 320.252764 
L 878.854779 315.684114 
L 879.256262 309.823557 
L 879.657744 260.848569 
L 880.059226 327.205568 
L 880.460708 326.817996 
L 880.86219 329.542743 
L 882.066637 303.058667 
L 882.468119 292.688184 
L 882.869601 295.013615 
L 883.271083 320.922206 
L 883.672565 318.925624 
L 884.074048 311.432568 
L 884.47553 320.017872 
L 884.877012 324.78618 
L 885.278494 300.674513 
L 886.081459 287.297412 
L 886.482941 308.719565 
L 886.884423 323.61172 
L 887.285905 330.470567 
L 887.687387 317.434059 
L 888.088869 314.861991 
L 888.490352 311.538269 
L 888.891834 329.155172 
L 889.293316 330.317887 
L 889.694798 321.920497 
L 890.09628 329.519254 
L 890.497762 319.6303 
L 890.899245 286.122952 
L 891.300727 289.200037 
L 891.702209 313.969402 
L 892.103691 320.264508 
L 892.505173 329.824614 
L 892.906656 321.08663 
L 893.308138 321.97922 
L 893.70962 304.338829 
L 894.111102 318.632009 
L 894.512584 327.769309 
L 895.315549 324.363374 
L 895.717031 330.611502 
L 896.118513 322.355047 
L 896.519995 301.132552 
L 896.921477 301.132552 
L 897.322959 325.866683 
L 897.724442 327.604884 
L 898.125924 327.957222 
L 898.527406 318.819922 
L 898.928888 333.277527 
L 899.33037 321.180587 
L 899.731852 329.413553 
L 900.133335 330.012527 
L 900.534817 334.581177 
L 900.936299 334.628156 
L 901.337781 332.478894 
L 901.739263 333.935224 
L 902.140746 331.915153 
L 902.542228 335.473767 
L 902.94371 332.455405 
L 903.345192 331.11652 
L 903.746674 329.237384 
L 904.148156 332.244002 
L 904.549639 328.473985 
L 904.951121 318.866901 
L 905.352603 337.352903 
L 905.754085 331.915153 
L 906.155567 332.29098 
L 906.557049 334.440242 
L 906.958532 333.453696 
L 907.360014 333.524163 
L 907.761496 334.07616 
L 908.162978 331.010819 
L 908.56446 334.874792 
L 908.965942 333.33625 
L 909.367425 332.302725 
L 909.768907 329.671934 
L 910.170389 333.230548 
L 910.571871 334.405008 
L 910.973353 337.435116 
L 911.374836 333.817778 
L 911.776318 333.606375 
L 912.1778 335.332832 
L 912.579282 336.460314 
L 912.980764 333.277527 
L 913.382246 333.453696 
L 913.783729 335.191897 
L 914.185211 331.891664 
L 914.586693 332.584595 
L 914.988175 330.059506 
L 915.389657 333.477185 
L 915.791139 340.429989 
L 916.192622 341.357812 
L 916.594104 335.450278 
L 916.995586 335.144918 
L 917.397068 332.337959 
L 917.79855 332.220513 
L 918.200032 325.948895 
L 918.601515 331.457113 
L 919.002997 334.79258 
L 919.404479 332.772509 
L 919.805961 327.792798 
L 920.207443 336.413335 
L 920.608926 336.530781 
L 921.010408 333.876501 
L 921.41189 333.477185 
L 921.813372 329.836358 
L 922.214854 335.015728 
L 922.616336 332.619829 
L 923.419301 334.275818 
L 923.820783 334.733857 
L 924.222265 336.659972 
L 924.623747 331.433624 
L 925.025229 331.022563 
L 925.426712 332.349703 
L 925.828194 337.329414 
L 926.229676 332.255746 
L 926.631158 335.015728 
L 927.03264 333.394973 
L 927.434122 332.972167 
L 927.835605 336.800907 
L 928.237087 330.176952 
L 928.638569 333.500674 
L 929.040051 333.277527 
L 929.441533 336.037508 
L 929.843016 333.7708 
L 930.244498 332.784253 
L 930.64598 337.505583 
L 931.047462 333.441951 
L 931.448944 335.309343 
L 931.850426 331.621538 
L 932.251909 332.537617 
L 932.653391 335.391555 
L 933.054873 340.054162 
L 933.456355 332.220513 
L 933.857837 332.631574 
L 934.259319 335.99053 
L 934.660802 331.363157 
L 935.062284 335.579469 
L 935.463766 333.406717 
L 935.865248 327.616629 
L 936.26673 325.620046 
L 936.668213 331.304434 
L 937.069695 330.83465 
L 937.471177 333.723822 
L 937.872659 331.633282 
L 938.274141 335.309343 
L 939.077106 324.316396 
L 939.478588 322.26109 
L 939.88007 331.339667 
L 940.281552 334.863048 
L 940.683034 337.31767 
L 941.084516 331.539326 
L 941.485999 335.109684 
L 941.887481 330.83465 
L 942.288963 335.415044 
L 942.690445 331.316178 
L 943.091927 331.903408 
L 943.493409 330.09474 
L 943.894892 334.123138 
L 944.296374 332.936933 
L 944.697856 331.175243 
L 945.50082 333.7708 
L 945.902303 329.143427 
L 946.303785 332.431915 
L 946.705267 332.972167 
L 947.106749 332.537617 
L 947.909713 334.416753 
L 948.311196 334.968749 
L 948.712678 329.014236 
L 949.11416 330.893373 
L 949.515642 335.767382 
L 949.917124 332.972167 
L 950.318606 333.888246 
L 950.720089 328.051179 
L 951.121571 327.769309 
L 951.523053 331.891664 
L 951.924535 333.089613 
L 952.326017 328.15688 
L 952.727499 337.634774 
L 953.128982 315.766326 
L 953.530464 332.572851 
L 953.931946 331.879919 
L 954.333428 334.170116 
L 954.73491 330.118229 
L 955.136393 336.025763 
L 955.537875 326.336467 
L 955.939357 321.262799 
L 956.340839 326.348212 
L 956.742321 332.948678 
L 957.143803 323.036234 
L 957.545286 323.776144 
L 957.946768 292.629461 
L 958.34825 294.027068 
L 958.749732 285.71189 
L 959.552696 318.796433 
L 959.954179 304.374062 
L 960.355661 297.573938 
L 960.757143 301.167786 
L 961.158625 271.970707 
L 961.560107 282.728762 
L 961.961589 331.762473 
L 962.363072 329.296107 
L 962.764554 325.162007 
L 963.166036 324.727457 
L 963.567518 318.15048 
L 963.969 327.240801 
L 964.370483 310.786615 
L 964.771965 326.019363 
L 965.574929 317.574994 
L 965.976411 304.221382 
L 966.377893 324.833158 
L 967.180858 332.948678 
L 967.58234 324.78618 
L 967.983822 328.121647 
L 968.385304 328.333049 
L 968.786786 319.712512 
L 969.188269 302.624117 
L 969.589751 235.292316 
L 969.991233 318.714221 
L 970.392715 307.415914 
L 970.794197 310.387298 
L 971.19568 307.850464 
L 971.597162 303.105645 
L 971.998644 293.98009 
L 972.400126 215.831511 
L 972.801608 249.221414 
L 973.20309 306.311922 
L 973.604573 308.543396 
L 974.006055 320.605102 
L 974.809019 300.439621 
L 975.210501 278.547684 
L 975.611983 108.509343 
L 976.414948 287.332645 
L 976.81643 316.341811 
L 977.619394 293.404604 
L 978.020876 186.528731 
L 978.422359 186.000224 
L 978.823841 284.901513 
L 979.225323 295.30723 
L 979.626805 285.371297 
L 980.028287 288.741998 
L 980.42977 278.982234 
L 980.831252 177.086071 
L 981.232734 211.709156 
L 981.634216 288.765487 
L 982.035698 294.731744 
L 982.43718 289.493652 
L 982.838663 317.574994 
L 983.240145 309.647388 
L 983.641627 181.408084 
L 984.043109 281.742215 
L 984.444591 311.3621 
L 984.846073 299.535286 
L 985.247556 312.031542 
L 985.649038 305.219674 
L 986.05052 291.008706 
L 986.452002 89.682746 
L 986.853484 125.926587 
L 987.254966 264.900457 
L 987.656449 255.704434 
L 988.057931 260.989504 
L 988.459413 270.537865 
L 988.860895 289.857735 
L 989.262377 276.01085 
L 989.66386 179.91652 
L 990.065342 300.604045 
L 990.466824 318.021289 
L 990.868306 271.947218 
L 991.269788 243.619239 
L 991.67127 257.325189 
L 992.072753 122.497163 
L 992.474235 249.080478 
L 992.875717 187.926338 
L 993.277199 226.765735 
L 993.678681 171.131558 
L 994.080163 276.809483 
L 994.883128 144.400845 
L 995.28461 198.426012 
L 996.087574 261.788137 
L 996.489056 231.874637 
L 996.890539 277.173565 
L 997.292021 200.892378 
L 997.693503 176.604542 
L 998.094985 141.60563 
L 998.496467 248.258356 
L 998.89795 243.360857 
L 999.299432 208.996153 
L 999.700914 257.689271 
L 1000.102396 230.512263 
L 1000.503878 96.35368 
L 1000.90536 159.868485 
L 1001.306843 270.890203 
L 1001.708325 251.182762 
L 1002.109807 218.896852 
L 1002.511289 241.740102 
L 1002.912771 224.910088 
L 1003.314253 255.986304 
L 1003.715736 118.691912 
L 1004.117218 237.629492 
L 1004.5187 222.525934 
L 1004.920182 228.445213 
L 1005.321664 241.458232 
L 1005.723146 211.579966 
L 1006.124629 124.399789 
L 1006.526111 95.836918 
L 1006.927593 280.920093 
L 1007.329075 264.595097 
L 1007.730557 190.251769 
L 1008.13204 275.388386 
L 1008.533522 189.229989 
L 1008.935004 232.109529 
L 1009.336486 131.610974 
L 1009.737968 228.421724 
L 1010.13945 214.657051 
L 1010.540933 194.303657 
L 1011.343897 250.231449 
L 1011.745379 94.709436 
L 1012.146861 136.625919 
L 1012.548343 238.792207 
L 1012.949826 230.935069 
L 1013.351308 294.84919 
L 1013.75279 257.419145 
L 1014.154272 238.604294 
L 1014.555754 204.991244 
L 1014.957237 148.499711 
L 1015.358719 225.7557 
L 1015.760201 229.455249 
L 1016.161683 256.56179 
L 1016.563165 227.587858 
L 1016.964647 212.355109 
L 1017.767612 112.655187 
L 1018.169094 164.108286 
L 1018.570576 288.906422 
L 1018.972058 293.0875 
L 1019.37354 311.925841 
L 1019.775023 301.026851 
L 1020.176505 230.688432 
L 1020.577987 230.711922 
L 1020.979469 298.39606 
L 1021.380951 321.356756 
L 1021.782433 313.511362 
L 1022.585398 287.19171 
L 1022.98688 207.563312 
L 1023.789844 307.873954 
L 1024.191327 306.863918 
L 1024.592809 306.558558 
L 1024.994291 302.694584 
L 1025.395773 292.629461 
L 1025.797255 243.971577 
L 1026.198737 253.519938 
L 1026.60022 303.963001 
L 1027.001702 316.377045 
L 1027.403184 313.065067 
L 1027.804666 315.331776 
L 1028.206148 294.614298 
L 1028.60763 253.837042 
L 1029.009113 254.741376 
L 1029.410595 289.200037 
L 1029.812077 293.886133 
L 1030.213559 294.344173 
L 1030.615041 301.848973 
L 1031.016523 306.629026 
L 1031.418006 286.686692 
L 1031.819488 313.992891 
L 1032.22097 310.18764 
L 1032.622452 262.070008 
L 1033.023934 320.170551 
L 1033.425417 313.076812 
L 1033.826899 317.081721 
L 1034.228381 315.413988 
L 1034.629863 320.393699 
L 1035.031345 323.45904 
L 1035.432827 318.725965 
L 1036.235792 322.472493 
L 1036.637274 330.012527 
L 1037.038756 315.378754 
L 1037.440238 314.039869 
L 1037.84172 320.65208 
L 1038.243203 315.766326 
L 1038.644685 321.709094 
L 1039.046167 329.765891 
L 1039.447649 314.721056 
L 1039.849131 294.72 
L 1040.250613 328.133391 
L 1040.652096 319.360174 
L 1041.45506 330.541034 
L 1041.856542 330.153463 
L 1043.060989 319.383663 
L 1043.462471 333.195314 
L 1043.863953 331.997365 
L 1044.265435 329.836358 
L 1044.666917 330.235675 
L 1045.0684 325.267708 
L 1045.469882 326.876719 
L 1045.871364 325.009327 
L 1046.272846 318.549796 
L 1046.674328 331.527581 
L 1047.477293 327.839776 
L 1047.878775 331.574559 
L 1048.280257 320.100084 
L 1048.681739 327.205568 
L 1049.083221 330.799416 
L 1049.484703 337.01231 
L 1049.886186 332.384937 
L 1050.287668 331.093031 
L 1050.68915 330.799416 
L 1051.090632 327.510927 
L 1051.492114 334.064415 
L 1051.893597 314.216038 
L 1052.295079 335.368066 
L 1052.696561 335.68517 
L 1053.098043 328.7676 
L 1053.499525 335.920062 
L 1053.901007 332.619829 
L 1054.30249 336.025763 
L 1054.703972 334.123138 
L 1055.105454 334.604667 
L 1055.506936 333.806034 
L 1055.908418 335.168407 
L 1056.3099 333.782545 
L 1056.711383 331.327923 
L 1057.112865 334.616411 
L 1057.514347 334.957005 
L 1057.915829 312.125499 
L 1058.317311 334.545944 
L 1058.718794 327.59314 
L 1059.120276 329.366574 
L 1059.92324 334.651645 
L 1060.324722 335.050961 
L 1060.726204 329.448787 
L 1061.127687 332.420171 
L 1061.529169 330.435333 
L 1061.930651 332.678552 
L 1062.332133 336.143209 
L 1062.733615 330.188696 
L 1063.135097 330.047761 
L 1063.938062 336.331123 
L 1064.339544 332.913444 
L 1064.741026 331.621538 
L 1065.142508 327.616629 
L 1066.346955 331.586304 
L 1066.748437 332.279236 
L 1067.149919 330.705459 
L 1067.551401 334.346285 
L 1067.952884 334.675134 
L 1068.354366 335.555979 
L 1068.755848 335.368066 
L 1069.15733 336.953587 
L 1069.558812 335.802616 
L 1069.960294 335.790871 
L 1070.361777 328.849812 
L 1070.763259 339.889737 
L 1071.566223 335.53249 
L 1071.967705 336.495547 
L 1072.369187 335.673425 
L 1072.77067 335.602958 
L 1073.172152 334.874792 
L 1073.573634 336.11972 
L 1073.975116 331.668516 
L 1074.77808 338.515619 
L 1075.179563 335.955296 
L 1075.581045 334.957005 
L 1075.982527 335.285854 
L 1076.384009 334.405008 
L 1076.785491 334.322796 
L 1077.186974 325.772726 
L 1077.588456 335.09794 
L 1077.989938 333.500674 
L 1078.39142 335.884828 
L 1078.792902 332.420171 
L 1079.194384 325.349921 
L 1079.595867 326.911953 
L 1079.997349 334.886537 
L 1080.398831 333.759055 
L 1080.800313 333.594631 
L 1081.201795 333.735566 
L 1081.603277 328.814578 
L 1082.00476 321.720839 
L 1082.406242 332.737275 
L 1082.807724 333.453696 
L 1083.209206 330.693714 
L 1083.610688 324.011036 
L 1084.01217 335.215386 
L 1084.413653 335.039217 
L 1084.815135 332.032599 
L 1085.216617 334.334541 
L 1085.618099 330.670225 
L 1086.019581 330.505801 
L 1086.421064 331.891664 
L 1086.822546 332.173534 
L 1087.224028 330.881628 
L 1087.62551 332.314469 
L 1088.026992 332.326214 
L 1088.428474 327.616629 
L 1088.829957 327.076377 
L 1089.231439 334.769091 
L 1089.632921 333.524163 
L 1090.034403 327.910244 
L 1090.435885 331.680261 
L 1090.837367 330.541034 
L 1091.23885 325.115029 
L 1091.640332 330.259164 
L 1092.041814 331.527581 
L 1092.443296 324.469076 
L 1093.246261 335.955296 
L 1093.647743 335.25062 
L 1094.049225 326.911953 
L 1094.450707 325.561323 
L 1094.852189 304.796868 
L 1095.253671 332.326214 
L 1095.655154 328.192114 
L 1096.056636 326.747528 
L 1096.458118 331.574559 
L 1096.8596 331.70375 
L 1097.261082 333.383228 
L 1097.662564 332.373192 
L 1098.064047 331.809451 
L 1098.465529 334.804325 
L 1098.867011 330.047761 
L 1099.268493 327.076377 
L 1099.669975 327.546161 
L 1100.071457 331.774218 
L 1101.275904 316.471002 
L 1101.677386 310.539978 
L 1102.078868 312.360391 
L 1102.881833 332.87821 
L 1103.283315 334.79258 
L 1103.684797 334.863048 
L 1104.086279 327.910244 
L 1104.487761 309.858791 
L 1104.889244 301.94293 
L 1105.290726 327.475694 
L 1105.692208 325.126773 
L 1106.09369 316.893808 
L 1106.495172 332.901699 
L 1106.896654 334.35803 
L 1107.298137 322.56645 
L 1107.699619 314.744545 
L 1108.101101 317.481038 
L 1108.502583 318.232692 
L 1108.904065 333.782545 
L 1109.305547 327.029399 
L 1109.70703 325.702259 
L 1110.108512 323.235892 
L 1110.509994 315.695858 
L 1110.911476 313.828467 
L 1111.312958 328.579686 
L 1112.517405 310.939295 
L 1112.918887 325.937151 
L 1113.320369 315.226074 
L 1113.721851 319.383663 
L 1114.123334 327.510927 
L 1114.926298 298.54874 
L 1115.32778 322.836576 
L 1115.729262 270.655311 
L 1116.130744 319.430641 
L 1116.532227 301.555358 
L 1116.933709 305.18444 
L 1117.335191 310.669169 
L 1117.736673 319.6303 
L 1118.138155 314.145571 
L 1118.539637 300.451365 
L 1118.94112 269.245959 
L 1119.342602 321.074886 
L 1119.744084 321.474202 
L 1120.145566 314.697567 
L 1120.547048 302.952966 
L 1120.948531 316.776362 
L 1121.350013 211.626944 
L 1121.751495 147.360485 
L 1122.152977 156.826633 
L 1122.554459 298.208147 
L 1122.955941 310.269852 
L 1123.758906 279.09968 
L 1124.160388 290.809048 
L 1124.56187 193.281877 
L 1124.963352 339.913227 
L 1124.963352 339.913227 
" clip-path="url(#pfded98b15f)" style="fill: none; stroke: #008080; stroke-width: 1.5; stroke-linecap: square"/>
   </g>
   <g id="patch_3">
    <path d="M 59.690625 356.477812 
L 59.690625 23.837812 
" style="fill: none; stroke: #000000; stroke-width: 0.8; stroke-linejoin: miter; stroke-linecap: square"/>
   </g>
   <g id="patch_4">
    <path d="M 1175.690625 356.477812 
L 1175.690625 23.837812 
" style="fill: none; stroke: #000000; stroke-width: 0.8; stroke-linejoin: miter; stroke-linecap: square"/>
   </g>
   <g id="patch_5">
    <path d="M 59.690625 356.477812 
L 1175.690625 356.477812 
" style="fill: none; stroke: #000000; stroke-width: 0.8; stroke-linejoin: miter; stroke-linecap: square"/>
   </g>
   <g id="patch_6">
    <path d="M 59.690625 23.837812 
L 1175.690625 23.837812 
" style="fill: none; stroke: #000000; stroke-width: 0.8; stroke-linejoin: miter; stroke-linecap: square"/>
   </g>
   <g id="text_16">
    <!-- Toronto Island Ferry Ticket Redemptions -->
    <g transform="translate(477.780313 17.837812) scale(0.14 -0.14)">
     <defs>
      <path id="DejaVuSans-72" d="M 2631 2963 
Q 2534 3019 2420 3045 
Q 2306 3072 2169 3072 
Q 1681 3072 1420 2755 
Q 1159 2438 1159 1844 
L 1159 0 
L 581 0 
L 581 3500 
L 1159 3500 
L 1159 2956 
Q 1341 3275 1631 3429 
Q 1922 3584 2338 3584 
Q 2397 3584 2469 3576 
Q 2541 3569 2628 3553 
L 2631 2963 
z
" transform="scale(0.015625)"/>
      <path id="DejaVuSans-49" d="M 628 4666 
L 1259 4666 
L 1259 0 
L 628 0 
L 628 4666 
z
" transform="scale(0.015625)"/>
      <path id="DejaVuSans-6c" d="M 603 4863 
L 1178 4863 
L 1178 0 
L 603 0 
L 603 4863 
z
" transform="scale(0.015625)"/>
      <path id="DejaVuSans-46" d="M 628 4666 
L 3309 4666 
L 3309 4134 
L 1259 4134 
L 1259 2759 
L 3109 2759 
L 3109 2228 
L 1259 2228 
L 1259 0 
L 628 0 
L 628 4666 
z
" transform="scale(0.015625)"/>
      <path id="DejaVuSans-79" d="M 2059 -325 
Q 1816 -950 1584 -1140 
Q 1353 -1331 966 -1331 
L 506 -1331 
L 506 -850 
L 844 -850 
Q 1081 -850 1212 -737 
Q 1344 -625 1503 -206 
L 1606 56 
L 191 3500 
L 800 3500 
L 1894 763 
L 2988 3500 
L 3597 3500 
L 2059 -325 
z
" transform="scale(0.015625)"/>
     </defs>
     <use xlink:href="#DejaVuSans-54"/>
     <use xlink:href="#DejaVuSans-6f" x="44.083984"/>
     <use xlink:href="#DejaVuSans-72" x="105.265625"/>
     <use xlink:href="#DejaVuSans-6f" x="144.128906"/>
     <use xlink:href="#DejaVuSans-6e" x="205.310547"/>
     <use xlink:href="#DejaVuSans-74" x="268.689453"/>
     <use xlink:href="#DejaVuSans-6f" x="307.898438"/>
     <use xlink:href="#DejaVuSans-20" x="369.080078"/>
     <use xlink:href="#DejaVuSans-49" x="400.867188"/>
     <use xlink:href="#DejaVuSans-73" x="430.359375"/>
     <use xlink:href="#DejaVuSans-6c" x="482.458984"/>
     <use xlink:href="#DejaVuSans-61" x="510.242188"/>
     <use xlink:href="#DejaVuSans-6e" x="571.521484"/>
     <use xlink:href="#DejaVuSans-64" x="634.900391"/>
     <use xlink:href="#DejaVuSans-20" x="698.376953"/>
     <use xlink:href="#DejaVuSans-46" x="730.164062"/>
     <use xlink:href="#DejaVuSans-65" x="782.183594"/>
     <use xlink:href="#DejaVuSans-72" x="843.707031"/>
     <use xlink:href="#DejaVuSans-72" x="883.070312"/>
     <use xlink:href="#DejaVuSans-79" x="924.183594"/>
     <use xlink:href="#DejaVuSans-20" x="983.363281"/>
     <use xlink:href="#DejaVuSans-54" x="1015.150391"/>
     <use xlink:href="#DejaVuSans-69" x="1073.109375"/>
     <use xlink:href="#DejaVuSans-63" x="1100.892578"/>
     <use xlink:href="#DejaVuSans-6b" x="1155.873047"/>
     <use xlink:href="#DejaVuSans-65" x="1210.158203"/>
     <use xlink:href="#DejaVuSans-74" x="1271.681641"/>
     <use xlink:href="#DejaVuSans-20" x="1310.890625"/>
     <use xlink:href="#DejaVuSans-52" x="1342.677734"/>
     <use xlink:href="#DejaVuSans-65" x="1407.660156"/>
     <use xlink:href="#DejaVuSans-64" x="1469.183594"/>
     <use xlink:href="#DejaVuSans-65" x="1532.660156"/>
     <use xlink:href="#DejaVuSans-6d" x="1594.183594"/>
     <use xlink:href="#DejaVuSans-70" x="1691.595703"/>
     <use xlink:href="#DejaVuSans-74" x="1755.072266"/>
     <use xlink:href="#DejaVuSans-69" x="1794.28125"/>
     <use xlink:href="#DejaVuSans-6f" x="1822.064453"/>
     <use xlink:href="#DejaVuSans-6e" x="1883.246094"/>
     <use xlink:href="#DejaVuSans-73" x="1946.625"/>
    </g>
   </g>
  </g>
  <g id="text_17">
   <!-- (Data from 2017-06-26 10:45:00 to 2024-05-27 09:00:00) -->
   <g style="fill: #808080" transform="translate(454.635938 399.677812) scale(0.1 -0.1)">
    <defs>
     <path id="DejaVuSans-28" d="M 1984 4856 
Q 1566 4138 1362 3434 
Q 1159 2731 1159 2009 
Q 1159 1288 1364 580 
Q 1569 -128 1984 -844 
L 1484 -844 
Q 1016 -109 783 600 
Q 550 1309 550 2009 
Q 550 2706 781 3412 
Q 1013 4119 1484 4856 
L 1984 4856 
z
" transform="scale(0.015625)"/>
     <path id="DejaVuSans-66" d="M 2375 4863 
L 2375 4384 
L 1825 4384 
Q 1516 4384 1395 4259 
Q 1275 4134 1275 3809 
L 1275 3500 
L 2222 3500 
L 2222 3053 
L 1275 3053 
L 1275 0 
L 697 0 
L 697 3053 
L 147 3053 
L 147 3500 
L 697 3500 
L 697 3744 
Q 697 4328 969 4595 
Q 1241 4863 1831 4863 
L 2375 4863 
z
" transform="scale(0.015625)"/>
     <path id="DejaVuSans-37" d="M 525 4666 
L 3525 4666 
L 3525 4397 
L 1831 0 
L 1172 0 
L 2766 4134 
L 525 4134 
L 525 4666 
z
" transform="scale(0.015625)"/>
     <path id="DejaVuSans-2d" d="M 313 2009 
L 1997 2009 
L 1997 1497 
L 313 1497 
L 313 2009 
z
" transform="scale(0.015625)"/>
     <path id="DejaVuSans-36" d="M 2113 2584 
Q 1688 2584 1439 2293 
Q 1191 2003 1191 1497 
Q 1191 994 1439 701 
Q 1688 409 2113 409 
Q 2538 409 2786 701 
Q 3034 994 3034 1497 
Q 3034 2003 2786 2293 
Q 2538 2584 2113 2584 
z
M 3366 4563 
L 3366 3988 
Q 3128 4100 2886 4159 
Q 2644 4219 2406 4219 
Q 1781 4219 1451 3797 
Q 1122 3375 1075 2522 
Q 1259 2794 1537 2939 
Q 1816 3084 2150 3084 
Q 2853 3084 3261 2657 
Q 3669 2231 3669 1497 
Q 3669 778 3244 343 
Q 2819 -91 2113 -91 
Q 1303 -91 875 529 
Q 447 1150 447 2328 
Q 447 3434 972 4092 
Q 1497 4750 2381 4750 
Q 2619 4750 2861 4703 
Q 3103 4656 3366 4563 
z
" transform="scale(0.015625)"/>
     <path id="DejaVuSans-3a" d="M 750 794 
L 1409 794 
L 1409 0 
L 750 0 
L 750 794 
z
M 750 3309 
L 1409 3309 
L 1409 2516 
L 750 2516 
L 750 3309 
z
" transform="scale(0.015625)"/>
     <path id="DejaVuSans-29" d="M 513 4856 
L 1013 4856 
Q 1481 4119 1714 3412 
Q 1947 2706 1947 2009 
Q 1947 1309 1714 600 
Q 1481 -109 1013 -844 
L 513 -844 
Q 928 -128 1133 580 
Q 1338 1288 1338 2009 
Q 1338 2731 1133 3434 
Q 928 4138 513 4856 
z
" transform="scale(0.015625)"/>
    </defs>
    <use xlink:href="#DejaVuSans-28"/>
    <use xlink:href="#DejaVuSans-44" x="39.013672"/>
    <use xlink:href="#DejaVuSans-61" x="116.015625"/>
    <use xlink:href="#DejaVuSans-74" x="177.294922"/>
    <use xlink:href="#DejaVuSans-61" x="216.503906"/>
    <use xlink:href="#DejaVuSans-20" x="277.783203"/>
    <use xlink:href="#DejaVuSans-66" x="309.570312"/>
    <use xlink:href="#DejaVuSans-72" x="344.775391"/>
    <use xlink:href="#DejaVuSans-6f" x="383.638672"/>
    <use xlink:href="#DejaVuSans-6d" x="444.820312"/>
    <use xlink:href="#DejaVuSans-20" x="542.232422"/>
    <use xlink:href="#DejaVuSans-32" x="574.019531"/>
    <use xlink:href="#DejaVuSans-30" x="637.642578"/>
    <use xlink:href="#DejaVuSans-31" x="701.265625"/>
    <use xlink:href="#DejaVuSans-37" x="764.888672"/>
    <use xlink:href="#DejaVuSans-2d" x="828.511719"/>
    <use xlink:href="#DejaVuSans-30" x="864.595703"/>
    <use xlink:href="#DejaVuSans-36" x="928.21875"/>
    <use xlink:href="#DejaVuSans-2d" x="991.841797"/>
    <use xlink:href="#DejaVuSans-32" x="1027.925781"/>
    <use xlink:href="#DejaVuSans-36" x="1091.548828"/>
    <use xlink:href="#DejaVuSans-20" x="1155.171875"/>
    <use xlink:href="#DejaVuSans-31" x="1186.958984"/>
    <use xlink:href="#DejaVuSans-30" x="1250.582031"/>
    <use xlink:href="#DejaVuSans-3a" x="1314.205078"/>
    <use xlink:href="#DejaVuSans-34" x="1347.896484"/>
    <use xlink:href="#DejaVuSans-35" x="1411.519531"/>
    <use xlink:href="#DejaVuSans-3a" x="1475.142578"/>
    <use xlink:href="#DejaVuSans-30" x="1508.833984"/>
    <use xlink:href="#DejaVuSans-30" x="1572.457031"/>
    <use xlink:href="#DejaVuSans-20" x="1636.080078"/>
    <use xlink:href="#DejaVuSans-74" x="1667.867188"/>
    <use xlink:href="#DejaVuSans-6f" x="1707.076172"/>
    <use xlink:href="#DejaVuSans-20" x="1768.257812"/>
    <use xlink:href="#DejaVuSans-32" x="1800.044922"/>
    <use xlink:href="#DejaVuSans-30" x="1863.667969"/>
    <use xlink:href="#DejaVuSans-32" x="1927.291016"/>
    <use xlink:href="#DejaVuSans-34" x="1990.914062"/>
    <use xlink:href="#DejaVuSans-2d" x="2054.537109"/>
    <use xlink:href="#DejaVuSans-30" x="2090.621094"/>
    <use xlink:href="#DejaVuSans-35" x="2154.244141"/>
    <use xlink:href="#DejaVuSans-2d" x="2217.867188"/>
    <use xlink:href="#DejaVuSans-32" x="2253.951172"/>
    <use xlink:href="#DejaVuSans-37" x="2317.574219"/>
    <use xlink:href="#DejaVuSans-20" x="2381.197266"/>
    <use xlink:href="#DejaVuSans-30" x="2412.984375"/>
    <use xlink:href="#DejaVuSans-39" x="2476.607422"/>
    <use xlink:href="#DejaVuSans-3a" x="2540.230469"/>
    <use xlink:href="#DejaVuSans-30" x="2573.921875"/>
    <use xlink:href="#DejaVuSans-30" x="2637.544922"/>
    <use xlink:href="#DejaVuSans-3a" x="2701.167969"/>
    <use xlink:href="#DejaVuSans-30" x="2734.859375"/>
    <use xlink:href="#DejaVuSans-30" x="2798.482422"/>
    <use xlink:href="#DejaVuSans-29" x="2862.105469"/>
   </g>
  </g>
 </g>
 <defs>
  <clipPath id="pfded98b15f">
   <rect x="59.690625" y="23.837812" width="1116" height="332.64"/>
  </clipPath>
 </defs>
</svg>
