<?xml version="1.0" encoding="utf-8" standalone="no"?>
<!DOCTYPE svg PUBLIC "-//W3C//DTD SVG 1.1//EN"
  "http://www.w3.org/Graphics/SVG/1.1/DTD/svg11.dtd">
<svg xmlns:xlink="http://www.w3.org/1999/xlink" width="1182.935207pt" height="408.9575pt" viewBox="0 0 1182.935207 408.9575" xmlns="http://www.w3.org/2000/svg" version="1.1">
 <metadata>
  <rdf:RDF xmlns:dc="http://purl.org/dc/elements/1.1/" xmlns:cc="http://creativecommons.org/ns#" xmlns:rdf="http://www.w3.org/1999/02/22-rdf-syntax-ns#">
   <cc:Work>
    <dc:type rdf:resource="http://purl.org/dc/dcmitype/StillImage"/>
    <dc:date>2024-05-20T03:08:14.428007</dc:date>
    <dc:format>image/svg+xml</dc:format>
    <dc:creator>
     <cc:Agent>
      <dc:title>Matplotlib v3.8.4, https://matplotlib.org/</dc:title>
     </cc:Agent>
    </dc:creator>
   </cc:Work>
  </rdf:RDF>
 </metadata>
 <defs>
  <style type="text/css">*{stroke-linejoin: round; stroke-linecap: butt}</style>
 </defs>
 <g id="figure_1">
  <g id="patch_1">
   <path d="M 0 408.9575 
L 1182.935207 408.9575 
L 1182.935207 0 
L 0 0 
z
" style="fill: #ffffff"/>
  </g>
  <g id="axes_1">
   <g id="patch_2">
    <path d="M 59.690625 356.477812 
L 1175.690625 356.477812 
L 1175.690625 23.837812 
L 59.690625 23.837812 
z
" style="fill: #ffffff"/>
   </g>
   <g id="matplotlib.axis_1">
    <g id="xtick_1">
     <g id="line2d_1">
      <defs>
       <path id="m3c4efd2ff5" d="M 0 0 
L 0 3.5 
" style="stroke: #000000; stroke-width: 0.8"/>
      </defs>
      <g>
       <use xlink:href="#m3c4efd2ff5" x="139.603452" y="356.477812" style="stroke: #000000; stroke-width: 0.8"/>
      </g>
     </g>
     <g id="text_1">
      <!-- 2020-07 -->
      <g transform="translate(118.712046 371.07625) scale(0.1 -0.1)">
       <defs>
        <path id="DejaVuSans-32" d="M 1228 531 
L 3431 531 
L 3431 0 
L 469 0 
L 469 531 
Q 828 903 1448 1529 
Q 2069 2156 2228 2338 
Q 2531 2678 2651 2914 
Q 2772 3150 2772 3378 
Q 2772 3750 2511 3984 
Q 2250 4219 1831 4219 
Q 1534 4219 1204 4116 
Q 875 4013 500 3803 
L 500 4441 
Q 881 4594 1212 4672 
Q 1544 4750 1819 4750 
Q 2544 4750 2975 4387 
Q 3406 4025 3406 3419 
Q 3406 3131 3298 2873 
Q 3191 2616 2906 2266 
Q 2828 2175 2409 1742 
Q 1991 1309 1228 531 
z
" transform="scale(0.015625)"/>
        <path id="DejaVuSans-30" d="M 2034 4250 
Q 1547 4250 1301 3770 
Q 1056 3291 1056 2328 
Q 1056 1369 1301 889 
Q 1547 409 2034 409 
Q 2525 409 2770 889 
Q 3016 1369 3016 2328 
Q 3016 3291 2770 3770 
Q 2525 4250 2034 4250 
z
M 2034 4750 
Q 2819 4750 3233 4129 
Q 3647 3509 3647 2328 
Q 3647 1150 3233 529 
Q 2819 -91 2034 -91 
Q 1250 -91 836 529 
Q 422 1150 422 2328 
Q 422 3509 836 4129 
Q 1250 4750 2034 4750 
z
" transform="scale(0.015625)"/>
        <path id="DejaVuSans-2d" d="M 313 2009 
L 1997 2009 
L 1997 1497 
L 313 1497 
L 313 2009 
z
" transform="scale(0.015625)"/>
        <path id="DejaVuSans-37" d="M 525 4666 
L 3525 4666 
L 3525 4397 
L 1831 0 
L 1172 0 
L 2766 4134 
L 525 4134 
L 525 4666 
z
" transform="scale(0.015625)"/>
       </defs>
       <use xlink:href="#DejaVuSans-32"/>
       <use xlink:href="#DejaVuSans-30" x="63.623047"/>
       <use xlink:href="#DejaVuSans-32" x="127.246094"/>
       <use xlink:href="#DejaVuSans-30" x="190.869141"/>
       <use xlink:href="#DejaVuSans-2d" x="254.492188"/>
       <use xlink:href="#DejaVuSans-30" x="290.576172"/>
       <use xlink:href="#DejaVuSans-37" x="354.199219"/>
      </g>
     </g>
    </g>
    <g id="xtick_2">
     <g id="line2d_2">
      <g>
       <use xlink:href="#m3c4efd2ff5" x="267.463975" y="356.477812" style="stroke: #000000; stroke-width: 0.8"/>
      </g>
     </g>
     <g id="text_2">
      <!-- 2021-01 -->
      <g transform="translate(246.572569 371.07625) scale(0.1 -0.1)">
       <defs>
        <path id="DejaVuSans-31" d="M 794 531 
L 1825 531 
L 1825 4091 
L 703 3866 
L 703 4441 
L 1819 4666 
L 2450 4666 
L 2450 531 
L 3481 531 
L 3481 0 
L 794 0 
L 794 531 
z
" transform="scale(0.015625)"/>
       </defs>
       <use xlink:href="#DejaVuSans-32"/>
       <use xlink:href="#DejaVuSans-30" x="63.623047"/>
       <use xlink:href="#DejaVuSans-32" x="127.246094"/>
       <use xlink:href="#DejaVuSans-31" x="190.869141"/>
       <use xlink:href="#DejaVuSans-2d" x="254.492188"/>
       <use xlink:href="#DejaVuSans-30" x="290.576172"/>
       <use xlink:href="#DejaVuSans-31" x="354.199219"/>
      </g>
     </g>
    </g>
    <g id="xtick_3">
     <g id="line2d_3">
      <g>
       <use xlink:href="#m3c4efd2ff5" x="393.239816" y="356.477812" style="stroke: #000000; stroke-width: 0.8"/>
      </g>
     </g>
     <g id="text_3">
      <!-- 2021-07 -->
      <g transform="translate(372.348409 371.07625) scale(0.1 -0.1)">
       <use xlink:href="#DejaVuSans-32"/>
       <use xlink:href="#DejaVuSans-30" x="63.623047"/>
       <use xlink:href="#DejaVuSans-32" x="127.246094"/>
       <use xlink:href="#DejaVuSans-31" x="190.869141"/>
       <use xlink:href="#DejaVuSans-2d" x="254.492188"/>
       <use xlink:href="#DejaVuSans-30" x="290.576172"/>
       <use xlink:href="#DejaVuSans-37" x="354.199219"/>
      </g>
     </g>
    </g>
    <g id="xtick_4">
     <g id="line2d_4">
      <g>
       <use xlink:href="#m3c4efd2ff5" x="521.100339" y="356.477812" style="stroke: #000000; stroke-width: 0.8"/>
      </g>
     </g>
     <g id="text_4">
      <!-- 2022-01 -->
      <g transform="translate(500.208932 371.07625) scale(0.1 -0.1)">
       <use xlink:href="#DejaVuSans-32"/>
       <use xlink:href="#DejaVuSans-30" x="63.623047"/>
       <use xlink:href="#DejaVuSans-32" x="127.246094"/>
       <use xlink:href="#DejaVuSans-32" x="190.869141"/>
       <use xlink:href="#DejaVuSans-2d" x="254.492188"/>
       <use xlink:href="#DejaVuSans-30" x="290.576172"/>
       <use xlink:href="#DejaVuSans-31" x="354.199219"/>
      </g>
     </g>
    </g>
    <g id="xtick_5">
     <g id="line2d_5">
      <g>
       <use xlink:href="#m3c4efd2ff5" x="646.876179" y="356.477812" style="stroke: #000000; stroke-width: 0.8"/>
      </g>
     </g>
     <g id="text_5">
      <!-- 2022-07 -->
      <g transform="translate(625.984773 371.07625) scale(0.1 -0.1)">
       <use xlink:href="#DejaVuSans-32"/>
       <use xlink:href="#DejaVuSans-30" x="63.623047"/>
       <use xlink:href="#DejaVuSans-32" x="127.246094"/>
       <use xlink:href="#DejaVuSans-32" x="190.869141"/>
       <use xlink:href="#DejaVuSans-2d" x="254.492188"/>
       <use xlink:href="#DejaVuSans-30" x="290.576172"/>
       <use xlink:href="#DejaVuSans-37" x="354.199219"/>
      </g>
     </g>
    </g>
    <g id="xtick_6">
     <g id="line2d_6">
      <g>
       <use xlink:href="#m3c4efd2ff5" x="774.736702" y="356.477812" style="stroke: #000000; stroke-width: 0.8"/>
      </g>
     </g>
     <g id="text_6">
      <!-- 2023-01 -->
      <g transform="translate(753.845296 371.07625) scale(0.1 -0.1)">
       <defs>
        <path id="DejaVuSans-33" d="M 2597 2516 
Q 3050 2419 3304 2112 
Q 3559 1806 3559 1356 
Q 3559 666 3084 287 
Q 2609 -91 1734 -91 
Q 1441 -91 1130 -33 
Q 819 25 488 141 
L 488 750 
Q 750 597 1062 519 
Q 1375 441 1716 441 
Q 2309 441 2620 675 
Q 2931 909 2931 1356 
Q 2931 1769 2642 2001 
Q 2353 2234 1838 2234 
L 1294 2234 
L 1294 2753 
L 1863 2753 
Q 2328 2753 2575 2939 
Q 2822 3125 2822 3475 
Q 2822 3834 2567 4026 
Q 2313 4219 1838 4219 
Q 1578 4219 1281 4162 
Q 984 4106 628 3988 
L 628 4550 
Q 988 4650 1302 4700 
Q 1616 4750 1894 4750 
Q 2613 4750 3031 4423 
Q 3450 4097 3450 3541 
Q 3450 3153 3228 2886 
Q 3006 2619 2597 2516 
z
" transform="scale(0.015625)"/>
       </defs>
       <use xlink:href="#DejaVuSans-32"/>
       <use xlink:href="#DejaVuSans-30" x="63.623047"/>
       <use xlink:href="#DejaVuSans-32" x="127.246094"/>
       <use xlink:href="#DejaVuSans-33" x="190.869141"/>
       <use xlink:href="#DejaVuSans-2d" x="254.492188"/>
       <use xlink:href="#DejaVuSans-30" x="290.576172"/>
       <use xlink:href="#DejaVuSans-31" x="354.199219"/>
      </g>
     </g>
    </g>
    <g id="xtick_7">
     <g id="line2d_7">
      <g>
       <use xlink:href="#m3c4efd2ff5" x="900.512543" y="356.477812" style="stroke: #000000; stroke-width: 0.8"/>
      </g>
     </g>
     <g id="text_7">
      <!-- 2023-07 -->
      <g transform="translate(879.621137 371.07625) scale(0.1 -0.1)">
       <use xlink:href="#DejaVuSans-32"/>
       <use xlink:href="#DejaVuSans-30" x="63.623047"/>
       <use xlink:href="#DejaVuSans-32" x="127.246094"/>
       <use xlink:href="#DejaVuSans-33" x="190.869141"/>
       <use xlink:href="#DejaVuSans-2d" x="254.492188"/>
       <use xlink:href="#DejaVuSans-30" x="290.576172"/>
       <use xlink:href="#DejaVuSans-37" x="354.199219"/>
      </g>
     </g>
    </g>
    <g id="xtick_8">
     <g id="line2d_8">
      <g>
       <use xlink:href="#m3c4efd2ff5" x="1028.373066" y="356.477812" style="stroke: #000000; stroke-width: 0.8"/>
      </g>
     </g>
     <g id="text_8">
      <!-- 2024-01 -->
      <g transform="translate(1007.48166 371.07625) scale(0.1 -0.1)">
       <defs>
        <path id="DejaVuSans-34" d="M 2419 4116 
L 825 1625 
L 2419 1625 
L 2419 4116 
z
M 2253 4666 
L 3047 4666 
L 3047 1625 
L 3713 1625 
L 3713 1100 
L 3047 1100 
L 3047 0 
L 2419 0 
L 2419 1100 
L 313 1100 
L 313 1709 
L 2253 4666 
z
" transform="scale(0.015625)"/>
       </defs>
       <use xlink:href="#DejaVuSans-32"/>
       <use xlink:href="#DejaVuSans-30" x="63.623047"/>
       <use xlink:href="#DejaVuSans-32" x="127.246094"/>
       <use xlink:href="#DejaVuSans-34" x="190.869141"/>
       <use xlink:href="#DejaVuSans-2d" x="254.492188"/>
       <use xlink:href="#DejaVuSans-30" x="290.576172"/>
       <use xlink:href="#DejaVuSans-31" x="354.199219"/>
      </g>
     </g>
    </g>
    <g id="xtick_9">
     <g id="line2d_9">
      <g>
       <use xlink:href="#m3c4efd2ff5" x="1154.843801" y="356.477812" style="stroke: #000000; stroke-width: 0.8"/>
      </g>
     </g>
     <g id="text_9">
      <!-- 2024-07 -->
      <g transform="translate(1133.952394 371.07625) scale(0.1 -0.1)">
       <use xlink:href="#DejaVuSans-32"/>
       <use xlink:href="#DejaVuSans-30" x="63.623047"/>
       <use xlink:href="#DejaVuSans-32" x="127.246094"/>
       <use xlink:href="#DejaVuSans-34" x="190.869141"/>
       <use xlink:href="#DejaVuSans-2d" x="254.492188"/>
       <use xlink:href="#DejaVuSans-30" x="290.576172"/>
       <use xlink:href="#DejaVuSans-37" x="354.199219"/>
      </g>
     </g>
    </g>
    <g id="text_10">
     <!-- Date -->
     <g transform="translate(605.739844 384.754375) scale(0.1 -0.1)">
      <defs>
       <path id="DejaVuSans-44" d="M 1259 4147 
L 1259 519 
L 2022 519 
Q 2988 519 3436 956 
Q 3884 1394 3884 2338 
Q 3884 3275 3436 3711 
Q 2988 4147 2022 4147 
L 1259 4147 
z
M 628 4666 
L 1925 4666 
Q 3281 4666 3915 4102 
Q 4550 3538 4550 2338 
Q 4550 1131 3912 565 
Q 3275 0 1925 0 
L 628 0 
L 628 4666 
z
" transform="scale(0.015625)"/>
       <path id="DejaVuSans-61" d="M 2194 1759 
Q 1497 1759 1228 1600 
Q 959 1441 959 1056 
Q 959 750 1161 570 
Q 1363 391 1709 391 
Q 2188 391 2477 730 
Q 2766 1069 2766 1631 
L 2766 1759 
L 2194 1759 
z
M 3341 1997 
L 3341 0 
L 2766 0 
L 2766 531 
Q 2569 213 2275 61 
Q 1981 -91 1556 -91 
Q 1019 -91 701 211 
Q 384 513 384 1019 
Q 384 1609 779 1909 
Q 1175 2209 1959 2209 
L 2766 2209 
L 2766 2266 
Q 2766 2663 2505 2880 
Q 2244 3097 1772 3097 
Q 1472 3097 1187 3025 
Q 903 2953 641 2809 
L 641 3341 
Q 956 3463 1253 3523 
Q 1550 3584 1831 3584 
Q 2591 3584 2966 3190 
Q 3341 2797 3341 1997 
z
" transform="scale(0.015625)"/>
       <path id="DejaVuSans-74" d="M 1172 4494 
L 1172 3500 
L 2356 3500 
L 2356 3053 
L 1172 3053 
L 1172 1153 
Q 1172 725 1289 603 
Q 1406 481 1766 481 
L 2356 481 
L 2356 0 
L 1766 0 
Q 1100 0 847 248 
Q 594 497 594 1153 
L 594 3053 
L 172 3053 
L 172 3500 
L 594 3500 
L 594 4494 
L 1172 4494 
z
" transform="scale(0.015625)"/>
       <path id="DejaVuSans-65" d="M 3597 1894 
L 3597 1613 
L 953 1613 
Q 991 1019 1311 708 
Q 1631 397 2203 397 
Q 2534 397 2845 478 
Q 3156 559 3463 722 
L 3463 178 
Q 3153 47 2828 -22 
Q 2503 -91 2169 -91 
Q 1331 -91 842 396 
Q 353 884 353 1716 
Q 353 2575 817 3079 
Q 1281 3584 2069 3584 
Q 2775 3584 3186 3129 
Q 3597 2675 3597 1894 
z
M 3022 2063 
Q 3016 2534 2758 2815 
Q 2500 3097 2075 3097 
Q 1594 3097 1305 2825 
Q 1016 2553 972 2059 
L 3022 2063 
z
" transform="scale(0.015625)"/>
      </defs>
      <use xlink:href="#DejaVuSans-44"/>
      <use xlink:href="#DejaVuSans-61" x="77.001953"/>
      <use xlink:href="#DejaVuSans-74" x="138.28125"/>
      <use xlink:href="#DejaVuSans-65" x="177.490234"/>
     </g>
    </g>
   </g>
   <g id="matplotlib.axis_2">
    <g id="ytick_1">
     <g id="line2d_10">
      <defs>
       <path id="m9ae37640fc" d="M 0 0 
L -3.5 0 
" style="stroke: #000000; stroke-width: 0.8"/>
      </defs>
      <g>
       <use xlink:href="#m9ae37640fc" x="59.690625" y="341.357812" style="stroke: #000000; stroke-width: 0.8"/>
      </g>
     </g>
     <g id="text_11">
      <!-- 0 -->
      <g transform="translate(46.328125 345.157031) scale(0.1 -0.1)">
       <use xlink:href="#DejaVuSans-30"/>
      </g>
     </g>
    </g>
    <g id="ytick_2">
     <g id="line2d_11">
      <g>
       <use xlink:href="#m9ae37640fc" x="59.690625" y="275.036205" style="stroke: #000000; stroke-width: 0.8"/>
      </g>
     </g>
     <g id="text_12">
      <!-- 5000 -->
      <g transform="translate(27.240625 278.835424) scale(0.1 -0.1)">
       <defs>
        <path id="DejaVuSans-35" d="M 691 4666 
L 3169 4666 
L 3169 4134 
L 1269 4134 
L 1269 2991 
Q 1406 3038 1543 3061 
Q 1681 3084 1819 3084 
Q 2600 3084 3056 2656 
Q 3513 2228 3513 1497 
Q 3513 744 3044 326 
Q 2575 -91 1722 -91 
Q 1428 -91 1123 -41 
Q 819 9 494 109 
L 494 744 
Q 775 591 1075 516 
Q 1375 441 1709 441 
Q 2250 441 2565 725 
Q 2881 1009 2881 1497 
Q 2881 1984 2565 2268 
Q 2250 2553 1709 2553 
Q 1456 2553 1204 2497 
Q 953 2441 691 2322 
L 691 4666 
z
" transform="scale(0.015625)"/>
       </defs>
       <use xlink:href="#DejaVuSans-35"/>
       <use xlink:href="#DejaVuSans-30" x="63.623047"/>
       <use xlink:href="#DejaVuSans-30" x="127.246094"/>
       <use xlink:href="#DejaVuSans-30" x="190.869141"/>
      </g>
     </g>
    </g>
    <g id="ytick_3">
     <g id="line2d_12">
      <g>
       <use xlink:href="#m9ae37640fc" x="59.690625" y="208.714598" style="stroke: #000000; stroke-width: 0.8"/>
      </g>
     </g>
     <g id="text_13">
      <!-- 10000 -->
      <g transform="translate(20.878125 212.513817) scale(0.1 -0.1)">
       <use xlink:href="#DejaVuSans-31"/>
       <use xlink:href="#DejaVuSans-30" x="63.623047"/>
       <use xlink:href="#DejaVuSans-30" x="127.246094"/>
       <use xlink:href="#DejaVuSans-30" x="190.869141"/>
       <use xlink:href="#DejaVuSans-30" x="254.492188"/>
      </g>
     </g>
    </g>
    <g id="ytick_4">
     <g id="line2d_13">
      <g>
       <use xlink:href="#m9ae37640fc" x="59.690625" y="142.392991" style="stroke: #000000; stroke-width: 0.8"/>
      </g>
     </g>
     <g id="text_14">
      <!-- 15000 -->
      <g transform="translate(20.878125 146.19221) scale(0.1 -0.1)">
       <use xlink:href="#DejaVuSans-31"/>
       <use xlink:href="#DejaVuSans-35" x="63.623047"/>
       <use xlink:href="#DejaVuSans-30" x="127.246094"/>
       <use xlink:href="#DejaVuSans-30" x="190.869141"/>
       <use xlink:href="#DejaVuSans-30" x="254.492188"/>
      </g>
     </g>
    </g>
    <g id="ytick_5">
     <g id="line2d_14">
      <g>
       <use xlink:href="#m9ae37640fc" x="59.690625" y="76.071384" style="stroke: #000000; stroke-width: 0.8"/>
      </g>
     </g>
     <g id="text_15">
      <!-- 20000 -->
      <g transform="translate(20.878125 79.870603) scale(0.1 -0.1)">
       <use xlink:href="#DejaVuSans-32"/>
       <use xlink:href="#DejaVuSans-30" x="63.623047"/>
       <use xlink:href="#DejaVuSans-30" x="127.246094"/>
       <use xlink:href="#DejaVuSans-30" x="190.869141"/>
       <use xlink:href="#DejaVuSans-30" x="254.492188"/>
      </g>
     </g>
    </g>
    <g id="text_16">
     <!-- Ticket Redemptions -->
     <g transform="translate(14.798438 239.336719) rotate(-90) scale(0.1 -0.1)">
      <defs>
       <path id="DejaVuSans-54" d="M -19 4666 
L 3928 4666 
L 3928 4134 
L 2272 4134 
L 2272 0 
L 1638 0 
L 1638 4134 
L -19 4134 
L -19 4666 
z
" transform="scale(0.015625)"/>
       <path id="DejaVuSans-69" d="M 603 3500 
L 1178 3500 
L 1178 0 
L 603 0 
L 603 3500 
z
M 603 4863 
L 1178 4863 
L 1178 4134 
L 603 4134 
L 603 4863 
z
" transform="scale(0.015625)"/>
       <path id="DejaVuSans-63" d="M 3122 3366 
L 3122 2828 
Q 2878 2963 2633 3030 
Q 2388 3097 2138 3097 
Q 1578 3097 1268 2742 
Q 959 2388 959 1747 
Q 959 1106 1268 751 
Q 1578 397 2138 397 
Q 2388 397 2633 464 
Q 2878 531 3122 666 
L 3122 134 
Q 2881 22 2623 -34 
Q 2366 -91 2075 -91 
Q 1284 -91 818 406 
Q 353 903 353 1747 
Q 353 2603 823 3093 
Q 1294 3584 2113 3584 
Q 2378 3584 2631 3529 
Q 2884 3475 3122 3366 
z
" transform="scale(0.015625)"/>
       <path id="DejaVuSans-6b" d="M 581 4863 
L 1159 4863 
L 1159 1991 
L 2875 3500 
L 3609 3500 
L 1753 1863 
L 3688 0 
L 2938 0 
L 1159 1709 
L 1159 0 
L 581 0 
L 581 4863 
z
" transform="scale(0.015625)"/>
       <path id="DejaVuSans-20" transform="scale(0.015625)"/>
       <path id="DejaVuSans-52" d="M 2841 2188 
Q 3044 2119 3236 1894 
Q 3428 1669 3622 1275 
L 4263 0 
L 3584 0 
L 2988 1197 
Q 2756 1666 2539 1819 
Q 2322 1972 1947 1972 
L 1259 1972 
L 1259 0 
L 628 0 
L 628 4666 
L 2053 4666 
Q 2853 4666 3247 4331 
Q 3641 3997 3641 3322 
Q 3641 2881 3436 2590 
Q 3231 2300 2841 2188 
z
M 1259 4147 
L 1259 2491 
L 2053 2491 
Q 2509 2491 2742 2702 
Q 2975 2913 2975 3322 
Q 2975 3731 2742 3939 
Q 2509 4147 2053 4147 
L 1259 4147 
z
" transform="scale(0.015625)"/>
       <path id="DejaVuSans-64" d="M 2906 2969 
L 2906 4863 
L 3481 4863 
L 3481 0 
L 2906 0 
L 2906 525 
Q 2725 213 2448 61 
Q 2172 -91 1784 -91 
Q 1150 -91 751 415 
Q 353 922 353 1747 
Q 353 2572 751 3078 
Q 1150 3584 1784 3584 
Q 2172 3584 2448 3432 
Q 2725 3281 2906 2969 
z
M 947 1747 
Q 947 1113 1208 752 
Q 1469 391 1925 391 
Q 2381 391 2643 752 
Q 2906 1113 2906 1747 
Q 2906 2381 2643 2742 
Q 2381 3103 1925 3103 
Q 1469 3103 1208 2742 
Q 947 2381 947 1747 
z
" transform="scale(0.015625)"/>
       <path id="DejaVuSans-6d" d="M 3328 2828 
Q 3544 3216 3844 3400 
Q 4144 3584 4550 3584 
Q 5097 3584 5394 3201 
Q 5691 2819 5691 2113 
L 5691 0 
L 5113 0 
L 5113 2094 
Q 5113 2597 4934 2840 
Q 4756 3084 4391 3084 
Q 3944 3084 3684 2787 
Q 3425 2491 3425 1978 
L 3425 0 
L 2847 0 
L 2847 2094 
Q 2847 2600 2669 2842 
Q 2491 3084 2119 3084 
Q 1678 3084 1418 2786 
Q 1159 2488 1159 1978 
L 1159 0 
L 581 0 
L 581 3500 
L 1159 3500 
L 1159 2956 
Q 1356 3278 1631 3431 
Q 1906 3584 2284 3584 
Q 2666 3584 2933 3390 
Q 3200 3197 3328 2828 
z
" transform="scale(0.015625)"/>
       <path id="DejaVuSans-70" d="M 1159 525 
L 1159 -1331 
L 581 -1331 
L 581 3500 
L 1159 3500 
L 1159 2969 
Q 1341 3281 1617 3432 
Q 1894 3584 2278 3584 
Q 2916 3584 3314 3078 
Q 3713 2572 3713 1747 
Q 3713 922 3314 415 
Q 2916 -91 2278 -91 
Q 1894 -91 1617 61 
Q 1341 213 1159 525 
z
M 3116 1747 
Q 3116 2381 2855 2742 
Q 2594 3103 2138 3103 
Q 1681 3103 1420 2742 
Q 1159 2381 1159 1747 
Q 1159 1113 1420 752 
Q 1681 391 2138 391 
Q 2594 391 2855 752 
Q 3116 1113 3116 1747 
z
" transform="scale(0.015625)"/>
       <path id="DejaVuSans-6f" d="M 1959 3097 
Q 1497 3097 1228 2736 
Q 959 2375 959 1747 
Q 959 1119 1226 758 
Q 1494 397 1959 397 
Q 2419 397 2687 759 
Q 2956 1122 2956 1747 
Q 2956 2369 2687 2733 
Q 2419 3097 1959 3097 
z
M 1959 3584 
Q 2709 3584 3137 3096 
Q 3566 2609 3566 1747 
Q 3566 888 3137 398 
Q 2709 -91 1959 -91 
Q 1206 -91 779 398 
Q 353 888 353 1747 
Q 353 2609 779 3096 
Q 1206 3584 1959 3584 
z
" transform="scale(0.015625)"/>
       <path id="DejaVuSans-6e" d="M 3513 2113 
L 3513 0 
L 2938 0 
L 2938 2094 
Q 2938 2591 2744 2837 
Q 2550 3084 2163 3084 
Q 1697 3084 1428 2787 
Q 1159 2491 1159 1978 
L 1159 0 
L 581 0 
L 581 3500 
L 1159 3500 
L 1159 2956 
Q 1366 3272 1645 3428 
Q 1925 3584 2291 3584 
Q 2894 3584 3203 3211 
Q 3513 2838 3513 2113 
z
" transform="scale(0.015625)"/>
       <path id="DejaVuSans-73" d="M 2834 3397 
L 2834 2853 
Q 2591 2978 2328 3040 
Q 2066 3103 1784 3103 
Q 1356 3103 1142 2972 
Q 928 2841 928 2578 
Q 928 2378 1081 2264 
Q 1234 2150 1697 2047 
L 1894 2003 
Q 2506 1872 2764 1633 
Q 3022 1394 3022 966 
Q 3022 478 2636 193 
Q 2250 -91 1575 -91 
Q 1294 -91 989 -36 
Q 684 19 347 128 
L 347 722 
Q 666 556 975 473 
Q 1284 391 1588 391 
Q 1994 391 2212 530 
Q 2431 669 2431 922 
Q 2431 1156 2273 1281 
Q 2116 1406 1581 1522 
L 1381 1569 
Q 847 1681 609 1914 
Q 372 2147 372 2553 
Q 372 3047 722 3315 
Q 1072 3584 1716 3584 
Q 2034 3584 2315 3537 
Q 2597 3491 2834 3397 
z
" transform="scale(0.015625)"/>
      </defs>
      <use xlink:href="#DejaVuSans-54"/>
      <use xlink:href="#DejaVuSans-69" x="57.958984"/>
      <use xlink:href="#DejaVuSans-63" x="85.742188"/>
      <use xlink:href="#DejaVuSans-6b" x="140.722656"/>
      <use xlink:href="#DejaVuSans-65" x="195.007812"/>
      <use xlink:href="#DejaVuSans-74" x="256.53125"/>
      <use xlink:href="#DejaVuSans-20" x="295.740234"/>
      <use xlink:href="#DejaVuSans-52" x="327.527344"/>
      <use xlink:href="#DejaVuSans-65" x="392.509766"/>
      <use xlink:href="#DejaVuSans-64" x="454.033203"/>
      <use xlink:href="#DejaVuSans-65" x="517.509766"/>
      <use xlink:href="#DejaVuSans-6d" x="579.033203"/>
      <use xlink:href="#DejaVuSans-70" x="676.445312"/>
      <use xlink:href="#DejaVuSans-74" x="739.921875"/>
      <use xlink:href="#DejaVuSans-69" x="779.130859"/>
      <use xlink:href="#DejaVuSans-6f" x="806.914062"/>
      <use xlink:href="#DejaVuSans-6e" x="868.095703"/>
      <use xlink:href="#DejaVuSans-73" x="931.474609"/>
     </g>
    </g>
   </g>
   <g id="line2d_15">
    <path d="M 110.417898 341.31802 
L 111.112792 337.710124 
L 111.807686 337.895825 
L 113.197474 339.965059 
L 113.892368 338.519248 
L 114.587263 338.360076 
L 115.282157 338.704948 
L 115.977051 338.108054 
L 116.671945 338.598834 
L 117.366839 338.532512 
L 118.061733 339.235521 
L 118.756627 338.413133 
L 120.146416 338.18764 
L 120.84131 337.272401 
L 121.536204 337.710124 
L 122.231098 338.333547 
L 122.925992 338.718213 
L 123.620887 338.37334 
L 124.315781 337.69686 
L 125.010675 338.227433 
L 125.705569 337.550952 
L 126.400463 337.20608 
L 127.790251 338.585569 
L 128.485146 337.802974 
L 129.874934 337.126494 
L 131.264722 336.755093 
L 131.959616 336.980586 
L 132.65451 337.78971 
L 133.349405 338.108054 
L 134.044299 337.856032 
L 134.739193 336.781622 
L 135.434087 336.821415 
L 136.128981 335.601097 
L 136.823875 318.105457 
L 137.518769 285.753777 
L 138.213664 314.723055 
L 138.908558 315.850522 
L 139.603452 265.790973 
L 140.298346 305.889017 
L 140.99324 304.880929 
L 141.688134 272.038469 
L 142.383028 287.968919 
L 143.077923 315.4128 
L 143.772817 317.707527 
L 144.467711 317.322862 
L 145.857499 310.146864 
L 146.552393 327.204782 
L 147.247288 290.343232 
L 147.942182 322.681648 
L 148.637076 312.003869 
L 149.33197 308.263331 
L 150.026864 334.16855 
L 150.721758 298.805869 
L 151.416652 272.370077 
L 152.111547 317.123897 
L 152.806441 308.953075 
L 153.501335 312.18957 
L 154.196229 333.09414 
L 154.891123 317.16369 
L 155.586017 298.394675 
L 156.280911 262.793237 
L 156.975806 275.102527 
L 157.6707 328.066962 
L 158.365594 307.043013 
L 159.060488 319.484946 
L 159.755382 307.321564 
L 160.450276 292.14718 
L 161.14517 273.218993 
L 161.840065 325.268191 
L 162.534959 313.728231 
L 163.229853 332.90844 
L 163.924747 303.952426 
L 164.619641 301.830135 
L 165.314535 297.82431 
L 166.009429 269.133582 
L 166.704324 274.25361 
L 167.399218 308.47556 
L 168.094112 325.427362 
L 168.789006 297.625345 
L 169.4839 302.586201 
L 170.178794 290.67484 
L 170.873689 271.985411 
L 171.568583 310.014221 
L 172.263477 323.039785 
L 172.958371 305.676788 
L 173.653265 304.284034 
L 174.348159 299.774165 
L 175.043053 305.186008 
L 175.737948 269.080525 
L 176.432842 268.576481 
L 177.127736 309.24489 
L 177.82263 300.318002 
L 178.517524 311.022309 
L 179.212418 319.790026 
L 180.602207 290.09121 
L 181.297101 271.269138 
L 181.991995 303.753461 
L 182.686889 306.737934 
L 183.381783 328.279192 
L 184.076677 300.079244 
L 184.771571 297.346794 
L 185.466466 268.629538 
L 186.16136 270.168199 
L 186.856254 311.990605 
L 187.551148 333.624713 
L 188.246042 327.125196 
L 188.940936 328.995465 
L 189.63583 320.081841 
L 190.330725 298.858927 
L 191.025619 318.357479 
L 191.720513 328.982201 
L 192.415407 330.215782 
L 193.110301 316.155602 
L 193.805195 329.526038 
L 194.50009 326.952759 
L 195.194984 312.720143 
L 195.889878 315.585236 
L 196.584772 330.162725 
L 197.279666 329.128108 
L 197.97456 319.378832 
L 198.669454 329.366866 
L 199.364349 319.988991 
L 200.059243 293.062418 
L 200.754137 303.793254 
L 201.449031 327.549654 
L 202.143925 332.736004 
L 202.838819 334.765445 
L 203.533713 331.489157 
L 204.228608 334.208343 
L 204.923502 324.49886 
L 205.618396 336.662243 
L 206.31329 330.985113 
L 207.008184 330.441276 
L 207.703078 334.022643 
L 208.397972 331.913616 
L 209.092867 328.929143 
L 209.787761 319.630854 
L 210.482655 326.873173 
L 211.177549 331.210607 
L 211.872443 329.38013 
L 212.567337 330.109668 
L 213.262231 335.05726 
L 213.957126 331.608536 
L 214.65202 325.029433 
L 215.346914 334.208343 
L 216.041808 334.725652 
L 216.736702 333.39922 
L 217.431596 334.195079 
L 218.126491 334.407308 
L 218.821385 325.533477 
L 219.516279 330.75962 
L 220.211173 334.248136 
L 220.906067 334.221608 
L 221.600961 334.606273 
L 222.295855 331.356514 
L 222.99075 334.301193 
L 223.685644 333.041083 
L 224.380538 331.4361 
L 225.075432 338.744741 
L 225.770326 335.05726 
L 226.46522 334.500158 
L 227.160114 330.75962 
L 227.855009 332.537039 
L 229.244797 323.212221 
L 230.634585 326.515037 
L 231.329479 323.106106 
L 232.024373 328.690386 
L 232.719268 332.152373 
L 233.414162 332.802325 
L 234.109056 331.913616 
L 234.80395 339.965059 
L 235.498844 335.362339 
L 236.193738 334.526687 
L 237.583527 333.810414 
L 238.278421 332.444188 
L 238.973315 335.654154 
L 239.668209 339.726301 
L 240.363103 335.229696 
L 241.057997 334.831766 
L 241.752892 335.070524 
L 242.447786 334.367515 
L 243.14268 334.181815 
L 243.837574 335.667419 
L 244.532468 335.455189 
L 245.227362 335.813326 
L 245.922256 337.962146 
L 246.617151 334.977674 
L 247.312045 334.301193 
L 248.006939 335.070524 
L 248.701833 336.861208 
L 249.396727 338.333547 
L 250.091621 334.818502 
L 250.786515 334.632802 
L 251.48141 335.083788 
L 252.176304 334.128757 
L 252.871198 333.545127 
L 253.566092 339.010028 
L 254.260986 338.108054 
L 254.95588 334.990938 
L 255.650774 334.248136 
L 256.345669 335.282753 
L 257.040563 334.394044 
L 257.735457 333.704299 
L 258.430351 337.710124 
L 259.125245 338.890649 
L 259.820139 337.351987 
L 260.515033 336.794886 
L 261.209928 335.508247 
L 261.904822 338.174375 
L 262.599716 339.527336 
L 263.29461 338.333547 
L 263.989504 337.444838 
L 264.684398 338.86412 
L 265.379292 336.582657 
L 266.074187 338.333547 
L 266.769081 336.343899 
L 267.463975 338.625362 
L 268.158869 336.755093 
L 268.853763 339.235521 
L 269.548657 338.37334 
L 270.243552 338.161111 
L 271.63334 337.444838 
L 272.328234 337.564217 
L 273.023128 334.65933 
L 273.718022 337.471366 
L 274.412916 338.015203 
L 275.107811 338.001939 
L 275.802705 337.564217 
L 276.497599 338.37334 
L 277.192493 338.651891 
L 277.887387 337.259137 
L 278.582281 339.195728 
L 279.277175 338.67842 
L 279.97207 338.426397 
L 280.666964 338.346812 
L 281.361858 338.054996 
L 282.056752 338.161111 
L 282.751646 337.139758 
L 283.44654 338.638627 
L 284.141434 338.147847 
L 284.836329 339.023292 
L 285.531223 338.028468 
L 286.226117 338.293754 
L 286.921011 337.975411 
L 287.615905 334.433837 
L 288.310799 338.081525 
L 289.005693 338.28049 
L 289.700588 337.816239 
L 290.395482 336.091877 
L 291.090376 337.338723 
L 291.78527 338.121318 
L 292.480164 335.110317 
L 293.175058 335.428661 
L 293.869953 337.60401 
L 295.954635 336.755093 
L 296.649529 337.099965 
L 297.344423 333.969585 
L 298.039317 329.618888 
L 298.734212 332.338074 
L 299.429106 338.452926 
L 300.124 334.380779 
L 300.818894 335.959234 
L 301.513788 335.707212 
L 302.208682 336.648978 
L 302.903576 341.357812 
L 303.598471 341.357812 
L 304.293365 340.535425 
L 304.988259 336.755093 
L 305.683153 336.052084 
L 306.378047 335.176639 
L 307.072941 332.961497 
L 307.767835 338.386604 
L 308.46273 337.365252 
L 309.157624 336.794886 
L 309.852518 334.765445 
L 310.547412 336.091877 
L 311.242306 336.03882 
L 311.9372 334.75218 
L 312.632094 332.736004 
L 313.326989 336.091877 
L 314.021883 334.274665 
L 314.716777 333.836942 
L 315.411671 335.892912 
L 316.106565 333.664506 
L 316.801459 329.857646 
L 317.496354 336.423485 
L 318.191248 336.556128 
L 318.886142 336.980586 
L 319.581036 335.627626 
L 320.27593 337.060172 
L 320.970824 335.269489 
L 321.665718 317.362655 
L 322.360613 321.978639 
L 323.055507 332.90844 
L 323.750401 334.526687 
L 324.445295 335.747005 
L 325.140189 332.444188 
L 325.835083 336.675507 
L 326.529977 330.706562 
L 327.224872 338.77127 
L 327.919766 335.972498 
L 328.61466 329.512773 
L 329.309554 336.343899 
L 330.004448 336.144934 
L 330.699342 329.923967 
L 331.394236 331.83403 
L 332.089131 319.31251 
L 332.784025 334.181815 
L 333.478919 335.256225 
L 334.173813 333.98285 
L 334.868707 333.319634 
L 335.563601 335.693947 
L 336.258495 318.927845 
L 336.95339 339.421222 
L 337.648284 337.909089 
L 338.343178 335.667419 
L 339.038072 331.714651 
L 339.732966 337.179551 
L 340.42786 335.800062 
L 341.122755 335.932705 
L 341.817649 334.858295 
L 342.512543 336.847943 
L 343.207437 337.378516 
L 343.902331 338.479455 
L 344.597225 337.657067 
L 345.292119 331.131021 
L 345.987014 327.244574 
L 346.681908 334.314458 
L 347.376802 336.383692 
L 348.071696 336.595921 
L 348.76659 337.763181 
L 349.461484 337.537688 
L 350.156378 336.728564 
L 350.851273 329.977025 
L 351.546167 335.54804 
L 352.241061 337.511159 
L 352.935955 337.550952 
L 353.630849 336.211256 
L 354.325743 333.571656 
L 355.020637 336.277577 
L 355.715532 325.75897 
L 356.410426 329.804589 
L 357.10532 335.892912 
L 357.800214 336.078613 
L 358.495108 329.897439 
L 359.190002 327.523125 
L 359.884896 325.75897 
L 360.579791 309.682613 
L 361.274685 306.485911 
L 361.969579 328.902615 
L 362.664473 324.631503 
L 363.359367 324.49886 
L 364.054261 327.32416 
L 364.749156 309.351005 
L 365.44405 309.762199 
L 366.138944 263.562567 
L 366.833838 263.124845 
L 367.528732 321.036872 
L 368.223626 332.563567 
L 368.91852 320.665471 
L 369.613415 337.086701 
L 370.308309 293.831749 
L 371.003203 283.114177 
L 371.698097 317.773849 
L 372.392991 318.874788 
L 373.087885 321.010343 
L 373.782779 333.027819 
L 374.477674 316.699439 
L 375.172568 264.292105 
L 375.867462 256.57227 
L 376.562356 316.274981 
L 377.25725 333.09414 
L 378.647038 312.149777 
L 379.341933 308.873489 
L 380.036827 263.11158 
L 380.731721 273.033293 
L 381.426615 330.162725 
L 382.121509 317.933021 
L 382.816403 314.497562 
L 383.511297 312.560971 
L 384.206192 331.635065 
L 384.901086 252.075665 
L 385.59598 257.567094 
L 386.290874 326.753795 
L 386.985768 322.416361 
L 387.680662 312.28242 
L 388.375557 304.390149 
L 389.070451 318.795202 
L 389.765345 313.75476 
L 390.460239 255.816204 
L 391.155133 310.942723 
L 391.850027 327.708826 
L 392.544921 318.065664 
L 393.239816 263.005466 
L 393.93471 307.865401 
L 394.629604 237.392061 
L 395.324498 244.369094 
L 396.019392 294.322529 
L 396.714286 304.257505 
L 398.104075 331.847294 
L 398.798969 311.154953 
L 399.493863 235.667699 
L 400.188757 302.201536 
L 400.883651 311.446768 
L 401.578545 317.16369 
L 402.273439 287.823011 
L 402.968334 292.969568 
L 404.358122 305.942074 
L 405.053016 239.050101 
L 405.74791 278.551251 
L 406.442804 298.328354 
L 407.137698 256.903878 
L 407.832593 277.29114 
L 408.527487 251.438978 
L 409.222381 276.176937 
L 409.917275 197.691947 
L 410.612169 264.013554 
L 411.307063 318.556444 
L 412.001958 244.820081 
L 412.696852 319.71044 
L 413.391746 229.605904 
L 414.08664 208.900299 
L 414.781534 281.641837 
L 415.476428 151.532108 
L 416.171322 258.654768 
L 416.866217 244.820081 
L 417.561111 236.675788 
L 418.256005 247.48621 
L 418.950899 255.98864 
L 419.645793 190.834293 
L 420.340687 260.949496 
L 421.035581 314.550619 
L 422.42537 271.295667 
L 423.120264 284.069208 
L 423.815158 164.70358 
L 424.510052 169.942987 
L 425.204946 243.86505 
L 425.89984 294.87963 
L 426.594735 288.724985 
L 427.289629 268.231608 
L 427.984523 235.707492 
L 428.679417 169.054277 
L 430.069205 255.855997 
L 430.764099 222.443171 
L 431.458994 287.159795 
L 432.153888 274.532161 
L 432.848782 237.856312 
L 433.543676 183.286894 
L 434.23857 257.089578 
L 434.933464 270.221257 
L 435.628358 253.53474 
L 436.323253 257.381394 
L 437.018147 247.207659 
L 437.713041 233.518879 
L 438.407935 147.658927 
L 439.102829 155.445083 
L 439.797723 196.829766 
L 440.492618 275.102527 
L 441.187512 315.10772 
L 441.882406 325.838556 
L 442.5773 305.690052 
L 443.272194 253.83982 
L 443.967088 310.345829 
L 444.661982 319.020695 
L 445.356877 324.856997 
L 446.051771 323.384657 
L 446.746665 314.815905 
L 447.441559 302.984131 
L 448.136453 248.520827 
L 448.831347 260.127108 
L 449.526241 311.261067 
L 450.221136 324.936583 
L 450.91603 334.022643 
L 451.610924 326.979288 
L 452.305818 318.224836 
L 453.000712 315.054663 
L 453.695606 294.043978 
L 454.3905 324.644767 
L 455.085395 319.909405 
L 455.780289 318.397272 
L 457.170077 313.94046 
L 457.864971 272.078262 
L 458.559865 332.192166 
L 459.254759 331.276928 
L 459.949654 326.541565 
L 460.644548 324.697825 
L 461.339442 324.578446 
L 462.034336 324.856997 
L 462.72923 326.939495 
L 463.424124 289.454523 
L 464.119019 278.378814 
L 464.813913 321.540916 
L 465.508807 315.094456 
L 466.203701 321.580709 
L 466.898595 329.300544 
L 467.593489 325.851821 
L 468.288383 317.548356 
L 468.983278 326.24975 
L 469.678172 316.885139 
L 471.06796 332.006466 
L 471.762854 325.732442 
L 472.457748 318.317686 
L 473.152642 308.223538 
L 473.847537 334.049171 
L 474.542431 332.921704 
L 475.237325 317.65447 
L 475.932219 325.997728 
L 476.627113 329.751531 
L 477.322007 334.911352 
L 478.016901 318.423801 
L 478.711796 326.926231 
L 479.40669 327.907791 
L 480.101584 330.401483 
L 480.796478 330.388219 
L 481.491372 325.08249 
L 482.186266 316.076016 
L 482.88116 312.096719 
L 483.576055 322.058225 
L 484.270949 329.77806 
L 484.965843 326.568094 
L 485.660737 325.307984 
L 486.355631 323.61015 
L 487.050525 323.291807 
L 487.74542 336.821415 
L 488.440314 331.117756 
L 489.135208 330.428012 
L 489.830102 333.147198 
L 490.524996 332.404396 
L 491.21989 330.560655 
L 491.914784 329.831117 
L 492.609679 334.951145 
L 493.304573 332.629889 
L 493.999467 331.754444 
L 494.694361 330.189254 
L 495.389255 332.868647 
L 496.084149 331.117756 
L 496.779043 330.520862 
L 497.473938 338.121318 
L 498.168832 333.439013 
L 498.863726 333.332898 
L 499.55862 332.762532 
L 500.253514 332.842118 
L 500.948408 331.873823 
L 501.643302 331.92688 
L 502.338197 337.577481 
L 503.033091 333.836942 
L 503.727985 332.669682 
L 504.422879 333.757356 
L 505.117773 333.439013 
L 505.812667 332.629889 
L 506.507561 334.977674 
L 507.202456 332.205431 
L 507.89735 331.595272 
L 508.592244 332.086052 
L 509.287138 334.102229 
L 509.982032 332.90844 
L 510.676926 332.338074 
L 511.371821 337.139758 
L 512.066715 334.035907 
L 512.761609 334.924617 
L 513.456503 334.181815 
L 514.151397 335.64089 
L 514.846291 335.24296 
L 515.541185 336.901 
L 516.23608 335.110317 
L 516.930974 331.767708 
L 517.625868 337.617274 
L 518.320762 332.51051 
L 519.015656 333.717563 
L 519.71055 331.714651 
L 520.405444 331.873823 
L 521.100339 334.685859 
L 521.795233 336.781622 
L 522.490127 334.301193 
L 523.185021 335.05726 
L 523.879915 338.37334 
L 524.574809 336.609185 
L 525.269703 336.463278 
L 525.964598 334.155286 
L 526.659492 337.20608 
L 527.354386 338.386604 
L 528.04928 338.081525 
L 528.744174 336.13167 
L 529.439068 336.330635 
L 530.133962 335.985762 
L 530.828857 336.03882 
L 531.523751 327.191517 
L 532.218645 339.646715 
L 532.913539 337.338723 
L 533.608433 334.181815 
L 534.303327 335.136846 
L 534.998222 334.234872 
L 535.693116 330.573919 
L 536.38801 331.873823 
L 537.082904 335.070524 
L 537.777798 333.863471 
L 539.167586 334.447101 
L 539.862481 332.974761 
L 540.557375 326.196693 
L 541.252269 329.207694 
L 541.947163 335.017467 
L 542.642057 332.258488 
L 543.336951 334.858295 
L 544.031845 335.136846 
L 544.72674 333.823678 
L 545.421634 330.613712 
L 546.116528 328.756707 
L 546.811422 332.921704 
L 547.506316 333.850207 
L 548.20121 332.895175 
L 548.896104 336.542864 
L 549.590999 341.357812 
L 550.285893 341.357812 
L 550.980787 340.203817 
L 551.675681 337.325459 
L 552.370575 333.850207 
L 553.065469 332.775797 
L 553.760363 335.468454 
L 554.455258 336.489807 
L 555.150152 335.587833 
L 555.845046 333.107405 
L 556.53994 328.12002 
L 557.234834 334.208343 
L 557.929728 332.311545 
L 558.624623 331.727915 
L 559.319517 333.903264 
L 560.014411 333.00129 
L 560.709305 336.22452 
L 562.099093 332.271752 
L 563.488882 332.165638 
L 564.183776 331.303457 
L 564.87867 332.298281 
L 565.573564 321.779674 
L 566.268458 334.911352 
L 566.963352 331.582008 
L 567.658246 331.157549 
L 568.353141 331.223871 
L 569.048035 334.088964 
L 569.742929 334.765445 
L 570.437823 337.29893 
L 571.132717 332.351338 
L 571.827611 336.635714 
L 572.522505 334.049171 
L 573.2174 320.254277 
L 574.607188 335.123581 
L 575.302082 323.238749 
L 575.996976 328.027169 
L 576.69187 330.428012 
L 577.386764 334.778709 
L 578.081659 330.905527 
L 578.776553 331.648329 
L 579.471447 331.290193 
L 580.166341 337.033644 
L 580.861235 333.691035 
L 581.556129 329.671945 
L 582.251024 334.367515 
L 582.945918 329.884174 
L 583.640812 334.791973 
L 584.335706 320.10837 
L 585.0306 333.558391 
L 585.725494 329.274016 
L 586.420388 330.467805 
L 587.115283 332.338074 
L 587.810177 328.88935 
L 588.505071 329.96376 
L 589.199965 329.738267 
L 589.894859 320.731793 
L 590.589753 328.982201 
L 591.284647 313.927196 
L 591.979542 328.730178 
L 592.674436 325.095754 
L 593.36933 316.434153 
L 594.064224 302.493351 
L 594.759118 301.312826 
L 595.454012 331.011642 
L 596.148906 330.414747 
L 596.843801 318.622766 
L 597.538695 329.406659 
L 598.233589 310.677437 
L 598.928483 328.6108 
L 599.623377 284.002887 
L 600.318271 328.88935 
L 601.013165 323.703001 
L 601.70806 327.350689 
L 603.097848 311.194746 
L 603.792742 286.164971 
L 604.487636 332.60336 
L 605.18253 323.238749 
L 605.877425 328.066962 
L 606.572319 316.97799 
L 607.267213 310.279507 
L 607.962107 317.813642 
L 608.657001 276.21673 
L 609.351895 256.890614 
L 610.046789 313.529266 
L 610.741684 316.235188 
L 612.826366 294.720458 
L 613.52126 203.329284 
L 614.216154 248.189219 
L 614.911048 327.337425 
L 615.605943 314.33839 
L 616.300837 313.688438 
L 616.995731 311.181481 
L 617.690625 298.248768 
L 618.385519 270.221257 
L 619.080413 266.016467 
L 619.775307 182.212484 
L 620.470202 308.157216 
L 621.165096 313.675174 
L 621.85999 313.423152 
L 622.554884 322.575533 
L 623.249778 204.841416 
L 623.944672 200.132582 
L 624.639566 285.316054 
L 625.334461 287.504667 
L 626.029355 324.910054 
L 626.724249 305.995132 
L 627.419143 272.966971 
L 628.114037 165.525968 
L 628.808931 215.824274 
L 629.503825 311.035574 
L 630.19872 325.984464 
L 630.893614 286.47005 
L 631.588508 308.555146 
L 632.283402 259.662857 
L 632.978296 236.768638 
L 633.67319 296.219327 
L 634.368085 271.322195 
L 635.062979 278.697158 
L 635.757873 296.35197 
L 636.452767 299.455821 
L 637.147661 253.640855 
L 637.842555 121.037434 
L 638.537449 86.152268 
L 639.232344 289.812659 
L 639.927238 259.21187 
L 640.622132 281.323494 
L 641.317026 253.123546 
L 642.01192 230.919072 
L 642.706814 100.650171 
L 643.401708 254.569357 
L 644.096603 250.457418 
L 644.791497 251.160427 
L 645.486391 301.007747 
L 646.181285 234.221888 
L 646.876179 145.868243 
L 647.571073 77.437609 
L 648.265967 113.264541 
L 649.655756 309.722406 
L 650.35065 233.174007 
L 651.045544 241.198921 
L 651.740438 243.559971 
L 652.435332 115.081753 
L 653.130226 105.783464 
L 653.825121 224.857277 
L 654.520015 262.819765 
L 655.214909 274.346461 
L 655.909803 215.373288 
L 656.604697 209.006413 
L 657.299591 38.957812 
L 657.994486 108.568971 
L 658.68938 296.948864 
L 659.384274 256.850821 
L 660.079168 244.249715 
L 660.774062 217.256821 
L 661.468956 205.597483 
L 662.16385 94.933249 
L 662.858745 282.543811 
L 663.553639 205.995412 
L 664.248533 216.620134 
L 664.943427 220.984096 
L 665.638321 196.047171 
L 666.333215 196.949145 
L 667.028109 108.370007 
L 667.723004 73.683806 
L 669.112792 215.386552 
L 669.807686 219.92295 
L 670.50258 296.325441 
L 671.197474 204.854681 
L 671.892368 96.246417 
L 673.282157 300.543495 
L 673.977051 234.394324 
L 674.671945 203.037469 
L 675.366839 198.40822 
L 676.061733 185.661208 
L 676.756627 67.568954 
L 677.451522 117.09793 
L 678.146416 174.877314 
L 678.84131 215.665103 
L 679.536204 248.74632 
L 680.925992 193.739179 
L 681.620887 104.045838 
L 682.315781 262.34225 
L 683.010675 311.685525 
L 683.705569 231.144566 
L 684.400463 218.875068 
L 685.095357 278.4584 
L 685.790251 253.176604 
L 686.485146 131.317283 
L 687.18004 145.788657 
L 688.569828 310.306036 
L 689.264722 237.498176 
L 689.959616 225.4807 
L 690.65451 193.4341 
L 691.349405 133.585482 
L 692.044299 241.145864 
L 692.739193 228.160093 
L 693.434087 292.982832 
L 694.128981 309.748935 
L 694.823875 294.587815 
L 695.518769 283.976358 
L 696.213664 195.277841 
L 696.908558 240.33674 
L 697.603452 322.999992 
L 698.298346 316.871875 
L 698.99324 295.131652 
L 699.688134 301.219976 
L 700.383028 295.980569 
L 701.077923 204.019028 
L 701.772817 290.887069 
L 702.467711 287.053681 
L 703.162605 292.889982 
L 703.857499 317.521827 
L 704.552393 312.362006 
L 705.247288 305.743109 
L 705.942182 250.430889 
L 706.637076 325.374305 
L 707.33197 324.936583 
L 708.026864 328.013905 
L 708.721758 318.423801 
L 709.416652 310.531529 
L 710.806441 286.390464 
L 711.501335 289.0168 
L 712.196229 318.277893 
L 712.891123 316.022959 
L 713.586017 307.560321 
L 714.280911 317.25654 
L 714.975806 322.641855 
L 715.6707 295.410203 
L 716.365594 287.106738 
L 717.060488 280.302141 
L 717.755382 304.496263 
L 718.450276 321.315423 
L 719.14517 329.061787 
L 719.840065 314.33839 
L 720.534959 311.433503 
L 721.229853 307.6797 
L 721.924747 327.576183 
L 722.619641 328.88935 
L 723.314535 319.405361 
L 724.009429 327.987376 
L 724.704324 316.818818 
L 725.399218 278.975709 
L 726.094112 282.450961 
L 726.789006 310.425415 
L 727.4839 317.535091 
L 728.178794 328.332249 
L 728.873689 318.463594 
L 729.568583 319.471682 
L 730.263477 299.548671 
L 730.958371 315.691351 
L 731.653265 326.010993 
L 733.043053 322.164339 
L 733.737948 329.220958 
L 734.432842 319.89614 
L 735.127736 295.927512 
L 735.82263 295.927512 
L 736.517524 323.862173 
L 737.212418 325.825292 
L 737.907312 326.223222 
L 738.602207 315.90358 
L 739.297101 332.231959 
L 739.991995 318.569708 
L 740.686889 327.867998 
L 741.381783 328.544478 
L 742.076677 333.704299 
L 742.771571 333.757356 
L 743.466466 331.329985 
L 744.16136 332.974761 
L 744.856254 330.693298 
L 745.551148 334.712387 
L 746.246042 331.303457 
L 746.940936 329.791324 
L 747.63583 327.669033 
L 748.330725 331.064699 
L 749.025619 326.806852 
L 749.720513 315.956637 
L 750.415407 336.834679 
L 751.110301 330.693298 
L 751.805195 331.117756 
L 752.50009 333.545127 
L 753.194984 332.430924 
L 753.889878 332.51051 
L 754.584772 333.133933 
L 755.279666 329.671945 
L 755.97456 334.035907 
L 756.669454 332.298281 
L 757.364349 331.131021 
L 758.059243 328.159813 
L 758.754137 332.178902 
L 759.449031 333.505334 
L 760.143925 336.927529 
L 760.838819 332.842118 
L 761.533713 332.60336 
L 762.228608 334.553216 
L 762.923502 335.82659 
L 763.618396 332.231959 
L 764.31329 332.430924 
L 765.008184 334.394044 
L 765.703078 330.666769 
L 766.397972 331.449364 
L 767.092867 328.597535 
L 767.787761 332.457453 
L 768.482655 340.309931 
L 769.177549 341.357812 
L 769.872443 334.685859 
L 770.567337 334.340986 
L 771.262231 331.170814 
L 771.957126 331.03817 
L 772.65202 323.955023 
L 773.346914 330.17599 
L 774.041808 333.943057 
L 774.736702 331.661594 
L 775.431596 326.037521 
L 776.126491 335.773533 
L 776.821385 335.906176 
L 777.516279 332.90844 
L 778.211173 332.457453 
L 778.906067 328.345513 
L 779.600961 334.195079 
L 780.295855 331.489157 
L 780.99075 332.576832 
L 781.685644 333.359427 
L 782.380538 333.876735 
L 783.075432 336.052084 
L 783.770326 330.149461 
L 784.46522 329.68521 
L 785.160114 331.184078 
L 785.855009 336.80815 
L 786.549903 331.077963 
L 787.244797 334.195079 
L 787.939691 332.364603 
L 788.634585 331.887087 
L 789.329479 336.211256 
L 790.024373 328.730178 
L 790.719268 332.483981 
L 791.414162 332.231959 
L 792.109056 335.349075 
L 792.80395 332.789061 
L 793.498844 331.674858 
L 794.193738 337.007115 
L 794.888632 332.41766 
L 795.583527 334.526687 
L 796.278421 330.36169 
L 796.973315 331.396307 
L 797.668209 334.619537 
L 798.363103 339.885473 
L 799.057997 331.03817 
L 799.752892 331.502422 
L 800.447786 335.296018 
L 801.14268 330.069875 
L 801.837574 334.831766 
L 802.532468 332.377867 
L 803.227362 325.838556 
L 803.922256 323.583622 
L 804.617151 330.003553 
L 805.312045 329.47298 
L 806.006939 332.736004 
L 806.701833 330.374954 
L 807.396727 334.526687 
L 808.091621 329.075051 
L 808.786515 322.111282 
L 809.48141 319.790026 
L 810.176304 330.043346 
L 810.871198 334.022643 
L 811.566092 336.794886 
L 812.260986 330.26884 
L 812.95588 334.301193 
L 813.650774 329.47298 
L 814.345669 334.646066 
L 815.040563 330.016818 
L 815.735457 330.680034 
L 816.430351 328.637328 
L 817.125245 333.18699 
L 817.820139 331.847294 
L 818.515033 329.857646 
L 819.209928 331.52895 
L 819.904822 332.789061 
L 820.599716 327.562918 
L 821.29461 331.276928 
L 821.989504 331.887087 
L 822.684398 331.396307 
L 824.074187 333.518599 
L 824.769081 334.142022 
L 825.463975 327.417011 
L 826.158869 329.539302 
L 826.853763 335.043995 
L 827.548657 331.887087 
L 828.243552 332.921704 
L 828.938446 326.329336 
L 829.63334 326.010993 
L 830.328234 330.666769 
L 831.023128 332.01973 
L 831.718022 326.448715 
L 832.412916 337.153023 
L 833.107811 312.454856 
L 833.802705 331.4361 
L 834.497599 330.653505 
L 835.192493 333.240048 
L 835.887387 328.663857 
L 836.582281 335.335811 
L 837.277175 324.392745 
L 837.97207 318.662559 
L 838.666964 324.40601 
L 839.361858 331.860558 
L 840.056752 320.665471 
L 840.751646 321.501123 
L 841.44654 286.324143 
L 842.141434 287.902597 
L 842.836329 278.511458 
L 844.226117 315.877051 
L 844.921011 299.588464 
L 845.615905 291.908422 
L 846.310799 295.967305 
L 847.005693 262.992201 
L 847.700588 275.14232 
L 848.395482 330.520862 
L 849.090376 327.735354 
L 849.78527 323.066313 
L 850.480164 322.575533 
L 851.175058 315.147513 
L 851.869953 325.414098 
L 852.564847 306.830784 
L 853.259741 324.034609 
L 853.954635 318.675823 
L 854.649529 314.497562 
L 855.344423 299.416028 
L 856.039317 322.694912 
L 857.429106 331.860558 
L 858.124 322.641855 
L 858.818894 326.408922 
L 859.513788 326.64768 
L 860.208682 316.911668 
L 860.903576 297.61208 
L 861.598471 221.567726 
L 862.293365 315.784201 
L 862.988259 303.023924 
L 863.683153 306.379797 
L 864.378047 303.514703 
L 865.072941 298.155918 
L 865.767835 287.84954 
L 866.46273 199.588745 
L 867.157624 237.299211 
L 867.852518 301.777077 
L 868.547412 304.297298 
L 869.242306 317.919757 
L 869.9372 307.905194 
L 870.632094 295.144917 
L 871.326989 270.420221 
L 872.021883 78.379376 
L 872.716777 168.934898 
L 873.411671 280.341934 
L 874.106565 313.104808 
L 874.801459 301.405676 
L 875.496354 287.199588 
L 876.191248 166.494263 
L 876.886142 165.897369 
L 877.581036 277.596219 
L 878.27593 289.348408 
L 878.970824 278.126792 
L 879.665718 281.933652 
L 880.360613 270.911001 
L 881.055507 155.829749 
L 881.750401 194.932968 
L 882.445295 281.960181 
L 883.140189 288.698456 
L 883.835083 282.782569 
L 884.529977 314.497562 
L 885.224872 305.544145 
L 885.919766 160.711019 
L 886.61466 274.028117 
L 887.309554 307.480736 
L 888.004448 294.123564 
L 888.699342 308.236802 
L 889.394236 300.543495 
L 890.089131 284.493667 
L 890.784025 57.116669 
L 891.478919 98.050364 
L 892.173813 255.00708 
L 892.868707 244.621116 
L 893.563601 250.590061 
L 894.258495 261.373954 
L 894.95339 283.193763 
L 895.648284 267.555128 
L 896.343178 159.02645 
L 897.038072 295.330617 
L 897.732966 315.001606 
L 898.42786 262.965673 
L 899.122755 230.97213 
L 899.817649 246.451593 
L 900.512543 94.177183 
L 901.207437 237.140039 
L 901.902331 168.072717 
L 902.597225 211.937828 
L 903.292119 149.104738 
L 903.987014 268.457102 
L 905.376802 118.915142 
L 906.071696 179.931021 
L 907.461484 251.492035 
L 908.156378 217.707808 
L 908.851273 268.868296 
L 909.546167 182.716528 
L 910.241061 155.285911 
L 910.935955 115.758234 
L 911.630849 236.211537 
L 912.325743 230.680314 
L 913.020637 191.86891 
L 913.715532 246.862787 
L 914.410426 216.169147 
L 915.10532 64.650803 
L 915.800214 136.384253 
L 916.495108 261.771884 
L 917.190002 239.514353 
L 917.884896 203.050733 
L 918.579791 228.849838 
L 919.274685 209.842066 
L 919.969579 244.93946 
L 920.664473 89.879542 
L 921.359367 224.207326 
L 922.054261 207.149408 
L 922.749156 213.834626 
L 923.44405 228.531494 
L 924.138944 194.787061 
L 924.833838 96.326003 
L 925.528732 64.067173 
L 926.223626 273.099614 
L 926.91852 254.662208 
L 927.613415 170.699053 
L 928.308309 266.852119 
L 929.003203 169.545057 
L 929.698097 217.973095 
L 930.392991 104.470296 
L 931.087885 213.808098 
L 931.782779 198.262313 
L 932.477674 175.275244 
L 933.172568 209.881858 
L 933.867462 238.439943 
L 934.562356 62.793798 
L 935.25725 110.134161 
L 935.952144 225.520493 
L 936.647038 216.646662 
L 937.341933 288.8311 
L 938.036827 246.557707 
L 938.731721 225.308264 
L 939.426615 187.345776 
L 940.121509 123.54439 
L 940.816403 210.797097 
L 941.511297 214.975358 
L 942.206192 245.589412 
L 942.901086 212.866331 
L 943.59598 195.662506 
L 944.290874 130.813238 
L 944.985768 83.061681 
L 945.680662 141.172673 
L 946.375557 282.119353 
L 947.070451 286.841451 
L 947.765345 308.117423 
L 948.460239 295.808133 
L 949.155133 216.368112 
L 949.850027 216.39464 
L 950.544921 292.836925 
L 951.239816 318.768673 
L 951.93471 309.908106 
L 953.324498 280.182762 
L 954.019392 190.250663 
L 955.40918 303.541232 
L 956.104075 302.4005 
L 956.798969 302.055628 
L 957.493863 297.691666 
L 958.188757 286.324143 
L 958.883651 231.370059 
L 959.578545 242.153953 
L 960.273439 299.124213 
L 960.968334 313.144601 
L 961.663228 309.404062 
L 962.358122 311.964076 
L 963.053016 288.565813 
L 963.74791 242.512089 
L 964.442804 243.533442 
L 965.137698 282.450961 
L 965.832593 287.743425 
L 966.527487 288.260734 
L 967.222381 296.736635 
L 967.917275 302.135214 
L 968.612169 279.612396 
L 969.307063 310.451944 
L 970.001958 306.154303 
L 970.696852 251.810379 
L 971.391746 317.428977 
L 972.08664 309.417326 
L 972.781534 313.94046 
L 973.476428 312.056926 
L 974.171322 317.680999 
L 974.866217 321.142987 
L 975.561111 315.797465 
L 976.950899 320.028784 
L 977.645793 328.544478 
L 978.340687 312.017133 
L 979.035581 310.505001 
L 979.730476 317.972814 
L 980.42537 312.454856 
L 981.120264 319.166603 
L 981.815158 328.265927 
L 982.510052 311.274331 
L 983.204946 288.685192 
L 983.89984 326.422187 
L 984.594735 316.513738 
L 985.984523 329.141372 
L 986.679417 328.70365 
L 988.764099 316.540267 
L 989.458994 332.139109 
L 990.153888 330.786148 
L 990.848782 328.345513 
L 991.543676 328.7965 
L 992.23857 323.185692 
L 992.933464 325.002904 
L 993.628358 322.893877 
L 994.323253 315.5985 
L 995.018147 330.255575 
L 996.407935 326.090579 
L 997.102829 330.308633 
L 997.797723 317.349391 
L 998.492618 325.374305 
L 999.187512 329.433188 
L 999.882406 336.450014 
L 1000.5773 331.223871 
L 1001.272194 329.764796 
L 1001.967088 329.433188 
L 1002.661982 325.719178 
L 1003.356877 333.120669 
L 1004.051771 310.703966 
L 1004.746665 334.593009 
L 1005.441559 334.951145 
L 1006.136453 327.13846 
L 1006.831347 335.216432 
L 1007.526241 331.489157 
L 1008.221136 335.335811 
L 1008.91603 333.18699 
L 1009.610924 333.730828 
L 1010.305818 332.828854 
L 1011.000712 334.367515 
L 1011.695606 332.802325 
L 1012.3905 330.030082 
L 1013.085395 333.744092 
L 1013.780289 334.128757 
L 1014.475183 308.342916 
L 1015.170077 333.664506 
L 1015.864971 325.812028 
L 1016.559865 327.81494 
L 1017.949654 333.783885 
L 1018.644548 334.234872 
L 1019.339442 327.907791 
L 1020.034336 331.263664 
L 1020.72923 329.021994 
L 1021.424124 331.555479 
L 1022.119019 335.468454 
L 1022.813913 328.743443 
L 1023.508807 328.584271 
L 1024.203701 331.727915 
L 1024.898595 335.680683 
L 1025.593489 331.820765 
L 1026.288383 330.36169 
L 1026.983278 325.838556 
L 1028.373066 328.88935 
L 1029.06796 330.321897 
L 1029.762854 331.104492 
L 1030.457748 329.327073 
L 1031.152642 333.439013 
L 1031.847537 333.810414 
L 1032.542431 334.805238 
L 1033.237325 334.593009 
L 1033.932219 336.383692 
L 1034.627113 335.083788 
L 1035.322007 335.070524 
L 1036.016901 327.23131 
L 1036.711796 339.699772 
L 1037.40669 337.511159 
L 1038.101584 334.778709 
L 1038.796478 335.866383 
L 1039.491372 334.937881 
L 1040.186266 334.858295 
L 1040.88116 334.035907 
L 1041.576055 335.441925 
L 1042.270949 330.414747 
L 1043.660737 338.147847 
L 1044.355631 335.256225 
L 1045.050525 334.128757 
L 1045.74542 334.500158 
L 1046.440314 333.505334 
L 1047.135208 333.412484 
L 1047.830102 323.756058 
L 1048.524996 334.287929 
L 1049.21989 332.483981 
L 1049.914784 335.176639 
L 1050.609679 331.263664 
L 1051.304573 323.278542 
L 1051.999467 325.042697 
L 1052.694361 334.049171 
L 1053.389255 332.775797 
L 1054.084149 332.590096 
L 1054.779043 332.749268 
L 1055.473938 327.191517 
L 1056.168832 319.179867 
L 1056.863726 331.621801 
L 1057.55862 332.430924 
L 1058.253514 329.313809 
L 1058.948408 321.76641 
L 1059.643302 334.420572 
L 1060.338197 334.221608 
L 1061.033091 330.825941 
L 1061.727985 333.425748 
L 1062.422879 329.28728 
L 1063.117773 329.101579 
L 1063.812667 330.666769 
L 1064.507561 330.985113 
L 1065.202456 329.526038 
L 1065.89735 331.144285 
L 1066.592244 331.157549 
L 1067.287138 325.838556 
L 1067.982032 325.228398 
L 1068.676926 333.916528 
L 1069.371821 332.51051 
L 1070.066715 326.170164 
L 1070.761609 330.428012 
L 1071.456503 329.141372 
L 1072.151397 323.013256 
L 1072.846291 328.823029 
L 1073.541185 330.255575 
L 1074.23608 322.283718 
L 1074.930974 328.186341 
L 1075.625868 335.256225 
L 1076.320762 334.460365 
L 1077.015656 325.042697 
L 1077.71055 323.5173 
L 1078.405444 300.06598 
L 1079.100339 331.157549 
L 1079.795233 326.488508 
L 1080.490127 324.856997 
L 1081.185021 330.308633 
L 1081.879915 330.45454 
L 1082.574809 332.351338 
L 1083.269703 331.210607 
L 1083.964598 330.573919 
L 1084.659492 333.956321 
L 1085.354386 328.584271 
L 1086.04928 325.228398 
L 1086.744174 325.75897 
L 1087.439068 330.534126 
L 1088.133962 325.069226 
L 1088.828857 320.559356 
L 1090.218645 306.552233 
L 1090.913539 308.608203 
L 1091.608433 318.927845 
L 1092.303327 331.780972 
L 1092.998222 333.943057 
L 1093.693116 334.022643 
L 1094.38801 326.170164 
L 1095.082904 305.782902 
L 1095.777798 296.84275 
L 1096.472692 325.679385 
L 1097.167586 323.02652 
L 1097.862481 313.728231 
L 1098.557375 331.807501 
L 1099.252269 333.452277 
L 1099.947163 320.134898 
L 1100.642057 311.30086 
L 1101.336951 314.391447 
L 1102.031845 315.240364 
L 1102.72674 332.802325 
L 1103.421634 325.17534 
L 1104.116528 323.676472 
L 1104.811422 320.890965 
L 1105.506316 312.37527 
L 1106.20121 310.266243 
L 1106.896104 326.926231 
L 1107.590999 320.002255 
L 1108.285893 314.444504 
L 1108.980787 307.00322 
L 1109.675681 323.941758 
L 1110.370575 311.844697 
L 1111.065469 316.540267 
L 1111.760363 325.719178 
L 1113.150152 293.009361 
L 1113.845046 320.439978 
L 1114.53994 261.506597 
L 1115.234834 316.593324 
L 1115.929728 296.405027 
L 1116.624623 300.503702 
L 1117.319517 306.698141 
L 1118.014411 316.818818 
L 1118.709305 310.62438 
L 1119.404199 295.158181 
L 1120.099093 259.914879 
L 1120.793987 318.450329 
L 1121.488882 318.901316 
L 1122.183776 311.247803 
L 1122.87867 297.983481 
L 1123.573564 313.595588 
L 1124.268458 194.840118 
L 1124.963352 123.239311 
L 1124.963352 123.239311 
" clip-path="url(#p944990baf6)" style="fill: none; stroke: #008080; stroke-width: 1.5; stroke-linecap: square"/>
   </g>
   <g id="patch_3">
    <path d="M 59.690625 356.477812 
L 59.690625 23.837812 
" style="fill: none; stroke: #000000; stroke-width: 0.8; stroke-linejoin: miter; stroke-linecap: square"/>
   </g>
   <g id="patch_4">
    <path d="M 1175.690625 356.477812 
L 1175.690625 23.837812 
" style="fill: none; stroke: #000000; stroke-width: 0.8; stroke-linejoin: miter; stroke-linecap: square"/>
   </g>
   <g id="patch_5">
    <path d="M 59.690625 356.477812 
L 1175.690625 356.477812 
" style="fill: none; stroke: #000000; stroke-width: 0.8; stroke-linejoin: miter; stroke-linecap: square"/>
   </g>
   <g id="patch_6">
    <path d="M 59.690625 23.837812 
L 1175.690625 23.837812 
" style="fill: none; stroke: #000000; stroke-width: 0.8; stroke-linejoin: miter; stroke-linecap: square"/>
   </g>
   <g id="text_17">
    <!-- Toronto Island Ferry Ticket Redemptions -->
    <g transform="translate(477.780313 17.837812) scale(0.14 -0.14)">
     <defs>
      <path id="DejaVuSans-72" d="M 2631 2963 
Q 2534 3019 2420 3045 
Q 2306 3072 2169 3072 
Q 1681 3072 1420 2755 
Q 1159 2438 1159 1844 
L 1159 0 
L 581 0 
L 581 3500 
L 1159 3500 
L 1159 2956 
Q 1341 3275 1631 3429 
Q 1922 3584 2338 3584 
Q 2397 3584 2469 3576 
Q 2541 3569 2628 3553 
L 2631 2963 
z
" transform="scale(0.015625)"/>
      <path id="DejaVuSans-49" d="M 628 4666 
L 1259 4666 
L 1259 0 
L 628 0 
L 628 4666 
z
" transform="scale(0.015625)"/>
      <path id="DejaVuSans-6c" d="M 603 4863 
L 1178 4863 
L 1178 0 
L 603 0 
L 603 4863 
z
" transform="scale(0.015625)"/>
      <path id="DejaVuSans-46" d="M 628 4666 
L 3309 4666 
L 3309 4134 
L 1259 4134 
L 1259 2759 
L 3109 2759 
L 3109 2228 
L 1259 2228 
L 1259 0 
L 628 0 
L 628 4666 
z
" transform="scale(0.015625)"/>
      <path id="DejaVuSans-79" d="M 2059 -325 
Q 1816 -950 1584 -1140 
Q 1353 -1331 966 -1331 
L 506 -1331 
L 506 -850 
L 844 -850 
Q 1081 -850 1212 -737 
Q 1344 -625 1503 -206 
L 1606 56 
L 191 3500 
L 800 3500 
L 1894 763 
L 2988 3500 
L 3597 3500 
L 2059 -325 
z
" transform="scale(0.015625)"/>
     </defs>
     <use xlink:href="#DejaVuSans-54"/>
     <use xlink:href="#DejaVuSans-6f" x="44.083984"/>
     <use xlink:href="#DejaVuSans-72" x="105.265625"/>
     <use xlink:href="#DejaVuSans-6f" x="144.128906"/>
     <use xlink:href="#DejaVuSans-6e" x="205.310547"/>
     <use xlink:href="#DejaVuSans-74" x="268.689453"/>
     <use xlink:href="#DejaVuSans-6f" x="307.898438"/>
     <use xlink:href="#DejaVuSans-20" x="369.080078"/>
     <use xlink:href="#DejaVuSans-49" x="400.867188"/>
     <use xlink:href="#DejaVuSans-73" x="430.359375"/>
     <use xlink:href="#DejaVuSans-6c" x="482.458984"/>
     <use xlink:href="#DejaVuSans-61" x="510.242188"/>
     <use xlink:href="#DejaVuSans-6e" x="571.521484"/>
     <use xlink:href="#DejaVuSans-64" x="634.900391"/>
     <use xlink:href="#DejaVuSans-20" x="698.376953"/>
     <use xlink:href="#DejaVuSans-46" x="730.164062"/>
     <use xlink:href="#DejaVuSans-65" x="782.183594"/>
     <use xlink:href="#DejaVuSans-72" x="843.707031"/>
     <use xlink:href="#DejaVuSans-72" x="883.070312"/>
     <use xlink:href="#DejaVuSans-79" x="924.183594"/>
     <use xlink:href="#DejaVuSans-20" x="983.363281"/>
     <use xlink:href="#DejaVuSans-54" x="1015.150391"/>
     <use xlink:href="#DejaVuSans-69" x="1073.109375"/>
     <use xlink:href="#DejaVuSans-63" x="1100.892578"/>
     <use xlink:href="#DejaVuSans-6b" x="1155.873047"/>
     <use xlink:href="#DejaVuSans-65" x="1210.158203"/>
     <use xlink:href="#DejaVuSans-74" x="1271.681641"/>
     <use xlink:href="#DejaVuSans-20" x="1310.890625"/>
     <use xlink:href="#DejaVuSans-52" x="1342.677734"/>
     <use xlink:href="#DejaVuSans-65" x="1407.660156"/>
     <use xlink:href="#DejaVuSans-64" x="1469.183594"/>
     <use xlink:href="#DejaVuSans-65" x="1532.660156"/>
     <use xlink:href="#DejaVuSans-6d" x="1594.183594"/>
     <use xlink:href="#DejaVuSans-70" x="1691.595703"/>
     <use xlink:href="#DejaVuSans-74" x="1755.072266"/>
     <use xlink:href="#DejaVuSans-69" x="1794.28125"/>
     <use xlink:href="#DejaVuSans-6f" x="1822.064453"/>
     <use xlink:href="#DejaVuSans-6e" x="1883.246094"/>
     <use xlink:href="#DejaVuSans-73" x="1946.625"/>
    </g>
   </g>
  </g>
  <g id="text_18">
   <!-- (Data from 2020-05-20 21:00:00 to 2024-05-19 22:00:00) -->
   <g style="fill: #808080" transform="translate(454.635938 399.677812) scale(0.1 -0.1)">
    <defs>
     <path id="DejaVuSans-28" d="M 1984 4856 
Q 1566 4138 1362 3434 
Q 1159 2731 1159 2009 
Q 1159 1288 1364 580 
Q 1569 -128 1984 -844 
L 1484 -844 
Q 1016 -109 783 600 
Q 550 1309 550 2009 
Q 550 2706 781 3412 
Q 1013 4119 1484 4856 
L 1984 4856 
z
" transform="scale(0.015625)"/>
     <path id="DejaVuSans-66" d="M 2375 4863 
L 2375 4384 
L 1825 4384 
Q 1516 4384 1395 4259 
Q 1275 4134 1275 3809 
L 1275 3500 
L 2222 3500 
L 2222 3053 
L 1275 3053 
L 1275 0 
L 697 0 
L 697 3053 
L 147 3053 
L 147 3500 
L 697 3500 
L 697 3744 
Q 697 4328 969 4595 
Q 1241 4863 1831 4863 
L 2375 4863 
z
" transform="scale(0.015625)"/>
     <path id="DejaVuSans-3a" d="M 750 794 
L 1409 794 
L 1409 0 
L 750 0 
L 750 794 
z
M 750 3309 
L 1409 3309 
L 1409 2516 
L 750 2516 
L 750 3309 
z
" transform="scale(0.015625)"/>
     <path id="DejaVuSans-39" d="M 703 97 
L 703 672 
Q 941 559 1184 500 
Q 1428 441 1663 441 
Q 2288 441 2617 861 
Q 2947 1281 2994 2138 
Q 2813 1869 2534 1725 
Q 2256 1581 1919 1581 
Q 1219 1581 811 2004 
Q 403 2428 403 3163 
Q 403 3881 828 4315 
Q 1253 4750 1959 4750 
Q 2769 4750 3195 4129 
Q 3622 3509 3622 2328 
Q 3622 1225 3098 567 
Q 2575 -91 1691 -91 
Q 1453 -91 1209 -44 
Q 966 3 703 97 
z
M 1959 2075 
Q 2384 2075 2632 2365 
Q 2881 2656 2881 3163 
Q 2881 3666 2632 3958 
Q 2384 4250 1959 4250 
Q 1534 4250 1286 3958 
Q 1038 3666 1038 3163 
Q 1038 2656 1286 2365 
Q 1534 2075 1959 2075 
z
" transform="scale(0.015625)"/>
     <path id="DejaVuSans-29" d="M 513 4856 
L 1013 4856 
Q 1481 4119 1714 3412 
Q 1947 2706 1947 2009 
Q 1947 1309 1714 600 
Q 1481 -109 1013 -844 
L 513 -844 
Q 928 -128 1133 580 
Q 1338 1288 1338 2009 
Q 1338 2731 1133 3434 
Q 928 4138 513 4856 
z
" transform="scale(0.015625)"/>
    </defs>
    <use xlink:href="#DejaVuSans-28"/>
    <use xlink:href="#DejaVuSans-44" x="39.013672"/>
    <use xlink:href="#DejaVuSans-61" x="116.015625"/>
    <use xlink:href="#DejaVuSans-74" x="177.294922"/>
    <use xlink:href="#DejaVuSans-61" x="216.503906"/>
    <use xlink:href="#DejaVuSans-20" x="277.783203"/>
    <use xlink:href="#DejaVuSans-66" x="309.570312"/>
    <use xlink:href="#DejaVuSans-72" x="344.775391"/>
    <use xlink:href="#DejaVuSans-6f" x="383.638672"/>
    <use xlink:href="#DejaVuSans-6d" x="444.820312"/>
    <use xlink:href="#DejaVuSans-20" x="542.232422"/>
    <use xlink:href="#DejaVuSans-32" x="574.019531"/>
    <use xlink:href="#DejaVuSans-30" x="637.642578"/>
    <use xlink:href="#DejaVuSans-32" x="701.265625"/>
    <use xlink:href="#DejaVuSans-30" x="764.888672"/>
    <use xlink:href="#DejaVuSans-2d" x="828.511719"/>
    <use xlink:href="#DejaVuSans-30" x="864.595703"/>
    <use xlink:href="#DejaVuSans-35" x="928.21875"/>
    <use xlink:href="#DejaVuSans-2d" x="991.841797"/>
    <use xlink:href="#DejaVuSans-32" x="1027.925781"/>
    <use xlink:href="#DejaVuSans-30" x="1091.548828"/>
    <use xlink:href="#DejaVuSans-20" x="1155.171875"/>
    <use xlink:href="#DejaVuSans-32" x="1186.958984"/>
    <use xlink:href="#DejaVuSans-31" x="1250.582031"/>
    <use xlink:href="#DejaVuSans-3a" x="1314.205078"/>
    <use xlink:href="#DejaVuSans-30" x="1347.896484"/>
    <use xlink:href="#DejaVuSans-30" x="1411.519531"/>
    <use xlink:href="#DejaVuSans-3a" x="1475.142578"/>
    <use xlink:href="#DejaVuSans-30" x="1508.833984"/>
    <use xlink:href="#DejaVuSans-30" x="1572.457031"/>
    <use xlink:href="#DejaVuSans-20" x="1636.080078"/>
    <use xlink:href="#DejaVuSans-74" x="1667.867188"/>
    <use xlink:href="#DejaVuSans-6f" x="1707.076172"/>
    <use xlink:href="#DejaVuSans-20" x="1768.257812"/>
    <use xlink:href="#DejaVuSans-32" x="1800.044922"/>
    <use xlink:href="#DejaVuSans-30" x="1863.667969"/>
    <use xlink:href="#DejaVuSans-32" x="1927.291016"/>
    <use xlink:href="#DejaVuSans-34" x="1990.914062"/>
    <use xlink:href="#DejaVuSans-2d" x="2054.537109"/>
    <use xlink:href="#DejaVuSans-30" x="2090.621094"/>
    <use xlink:href="#DejaVuSans-35" x="2154.244141"/>
    <use xlink:href="#DejaVuSans-2d" x="2217.867188"/>
    <use xlink:href="#DejaVuSans-31" x="2253.951172"/>
    <use xlink:href="#DejaVuSans-39" x="2317.574219"/>
    <use xlink:href="#DejaVuSans-20" x="2381.197266"/>
    <use xlink:href="#DejaVuSans-32" x="2412.984375"/>
    <use xlink:href="#DejaVuSans-32" x="2476.607422"/>
    <use xlink:href="#DejaVuSans-3a" x="2540.230469"/>
    <use xlink:href="#DejaVuSans-30" x="2573.921875"/>
    <use xlink:href="#DejaVuSans-30" x="2637.544922"/>
    <use xlink:href="#DejaVuSans-3a" x="2701.167969"/>
    <use xlink:href="#DejaVuSans-30" x="2734.859375"/>
    <use xlink:href="#DejaVuSans-30" x="2798.482422"/>
    <use xlink:href="#DejaVuSans-29" x="2862.105469"/>
   </g>
  </g>
 </g>
 <defs>
  <clipPath id="p944990baf6">
   <rect x="59.690625" y="23.837812" width="1116" height="332.64"/>
  </clipPath>
 </defs>
</svg>
