<?xml version="1.0" encoding="utf-8" standalone="no"?>
<!DOCTYPE svg PUBLIC "-//W3C//DTD SVG 1.1//EN"
  "http://www.w3.org/Graphics/SVG/1.1/DTD/svg11.dtd">
<svg xmlns:xlink="http://www.w3.org/1999/xlink" width="1182.890625pt" height="408.9575pt" viewBox="0 0 1182.890625 408.9575" xmlns="http://www.w3.org/2000/svg" version="1.1">
 <metadata>
  <rdf:RDF xmlns:dc="http://purl.org/dc/elements/1.1/" xmlns:cc="http://creativecommons.org/ns#" xmlns:rdf="http://www.w3.org/1999/02/22-rdf-syntax-ns#">
   <cc:Work>
    <dc:type rdf:resource="http://purl.org/dc/dcmitype/StillImage"/>
    <dc:date>2024-07-25T03:08:07.642790</dc:date>
    <dc:format>image/svg+xml</dc:format>
    <dc:creator>
     <cc:Agent>
      <dc:title>Matplotlib v3.8.4, https://matplotlib.org/</dc:title>
     </cc:Agent>
    </dc:creator>
   </cc:Work>
  </rdf:RDF>
 </metadata>
 <defs>
  <style type="text/css">*{stroke-linejoin: round; stroke-linecap: butt}</style>
 </defs>
 <g id="figure_1">
  <g id="patch_1">
   <path d="M 0 408.9575 
L 1182.890625 408.9575 
L 1182.890625 0 
L 0 0 
z
" style="fill: #ffffff"/>
  </g>
  <g id="axes_1">
   <g id="patch_2">
    <path d="M 59.690625 356.477812 
L 1175.690625 356.477812 
L 1175.690625 23.837812 
L 59.690625 23.837812 
z
" style="fill: #ffffff"/>
   </g>
   <g id="matplotlib.axis_1">
    <g id="xtick_1">
     <g id="line2d_1">
      <defs>
       <path id="m1eaad8cc74" d="M 0 0 
L 0 3.5 
" style="stroke: #000000; stroke-width: 0.8"/>
      </defs>
      <g>
       <use xlink:href="#m1eaad8cc74" x="88.058769" y="356.477812" style="stroke: #000000; stroke-width: 0.8"/>
      </g>
     </g>
     <g id="text_1">
      <!-- 2020-07 -->
      <g transform="translate(67.167363 371.07625) scale(0.1 -0.1)">
       <defs>
        <path id="DejaVuSans-32" d="M 1228 531 
L 3431 531 
L 3431 0 
L 469 0 
L 469 531 
Q 828 903 1448 1529 
Q 2069 2156 2228 2338 
Q 2531 2678 2651 2914 
Q 2772 3150 2772 3378 
Q 2772 3750 2511 3984 
Q 2250 4219 1831 4219 
Q 1534 4219 1204 4116 
Q 875 4013 500 3803 
L 500 4441 
Q 881 4594 1212 4672 
Q 1544 4750 1819 4750 
Q 2544 4750 2975 4387 
Q 3406 4025 3406 3419 
Q 3406 3131 3298 2873 
Q 3191 2616 2906 2266 
Q 2828 2175 2409 1742 
Q 1991 1309 1228 531 
z
" transform="scale(0.015625)"/>
        <path id="DejaVuSans-30" d="M 2034 4250 
Q 1547 4250 1301 3770 
Q 1056 3291 1056 2328 
Q 1056 1369 1301 889 
Q 1547 409 2034 409 
Q 2525 409 2770 889 
Q 3016 1369 3016 2328 
Q 3016 3291 2770 3770 
Q 2525 4250 2034 4250 
z
M 2034 4750 
Q 2819 4750 3233 4129 
Q 3647 3509 3647 2328 
Q 3647 1150 3233 529 
Q 2819 -91 2034 -91 
Q 1250 -91 836 529 
Q 422 1150 422 2328 
Q 422 3509 836 4129 
Q 1250 4750 2034 4750 
z
" transform="scale(0.015625)"/>
        <path id="DejaVuSans-2d" d="M 313 2009 
L 1997 2009 
L 1997 1497 
L 313 1497 
L 313 2009 
z
" transform="scale(0.015625)"/>
        <path id="DejaVuSans-37" d="M 525 4666 
L 3525 4666 
L 3525 4397 
L 1831 0 
L 1172 0 
L 2766 4134 
L 525 4134 
L 525 4666 
z
" transform="scale(0.015625)"/>
       </defs>
       <use xlink:href="#DejaVuSans-32"/>
       <use xlink:href="#DejaVuSans-30" x="63.623047"/>
       <use xlink:href="#DejaVuSans-32" x="127.246094"/>
       <use xlink:href="#DejaVuSans-30" x="190.869141"/>
       <use xlink:href="#DejaVuSans-2d" x="254.492188"/>
       <use xlink:href="#DejaVuSans-30" x="290.576172"/>
       <use xlink:href="#DejaVuSans-37" x="354.199219"/>
      </g>
     </g>
    </g>
    <g id="xtick_2">
     <g id="line2d_2">
      <g>
       <use xlink:href="#m1eaad8cc74" x="216.623758" y="356.477812" style="stroke: #000000; stroke-width: 0.8"/>
      </g>
     </g>
     <g id="text_2">
      <!-- 2021-01 -->
      <g transform="translate(195.732352 371.07625) scale(0.1 -0.1)">
       <defs>
        <path id="DejaVuSans-31" d="M 794 531 
L 1825 531 
L 1825 4091 
L 703 3866 
L 703 4441 
L 1819 4666 
L 2450 4666 
L 2450 531 
L 3481 531 
L 3481 0 
L 794 0 
L 794 531 
z
" transform="scale(0.015625)"/>
       </defs>
       <use xlink:href="#DejaVuSans-32"/>
       <use xlink:href="#DejaVuSans-30" x="63.623047"/>
       <use xlink:href="#DejaVuSans-32" x="127.246094"/>
       <use xlink:href="#DejaVuSans-31" x="190.869141"/>
       <use xlink:href="#DejaVuSans-2d" x="254.492188"/>
       <use xlink:href="#DejaVuSans-30" x="290.576172"/>
       <use xlink:href="#DejaVuSans-31" x="354.199219"/>
      </g>
     </g>
    </g>
    <g id="xtick_3">
     <g id="line2d_3">
      <g>
       <use xlink:href="#m1eaad8cc74" x="343.092578" y="356.477812" style="stroke: #000000; stroke-width: 0.8"/>
      </g>
     </g>
     <g id="text_3">
      <!-- 2021-07 -->
      <g transform="translate(322.201172 371.07625) scale(0.1 -0.1)">
       <use xlink:href="#DejaVuSans-32"/>
       <use xlink:href="#DejaVuSans-30" x="63.623047"/>
       <use xlink:href="#DejaVuSans-32" x="127.246094"/>
       <use xlink:href="#DejaVuSans-31" x="190.869141"/>
       <use xlink:href="#DejaVuSans-2d" x="254.492188"/>
       <use xlink:href="#DejaVuSans-30" x="290.576172"/>
       <use xlink:href="#DejaVuSans-37" x="354.199219"/>
      </g>
     </g>
    </g>
    <g id="xtick_4">
     <g id="line2d_4">
      <g>
       <use xlink:href="#m1eaad8cc74" x="471.657567" y="356.477812" style="stroke: #000000; stroke-width: 0.8"/>
      </g>
     </g>
     <g id="text_4">
      <!-- 2022-01 -->
      <g transform="translate(450.766161 371.07625) scale(0.1 -0.1)">
       <use xlink:href="#DejaVuSans-32"/>
       <use xlink:href="#DejaVuSans-30" x="63.623047"/>
       <use xlink:href="#DejaVuSans-32" x="127.246094"/>
       <use xlink:href="#DejaVuSans-32" x="190.869141"/>
       <use xlink:href="#DejaVuSans-2d" x="254.492188"/>
       <use xlink:href="#DejaVuSans-30" x="290.576172"/>
       <use xlink:href="#DejaVuSans-31" x="354.199219"/>
      </g>
     </g>
    </g>
    <g id="xtick_5">
     <g id="line2d_5">
      <g>
       <use xlink:href="#m1eaad8cc74" x="598.126388" y="356.477812" style="stroke: #000000; stroke-width: 0.8"/>
      </g>
     </g>
     <g id="text_5">
      <!-- 2022-07 -->
      <g transform="translate(577.234981 371.07625) scale(0.1 -0.1)">
       <use xlink:href="#DejaVuSans-32"/>
       <use xlink:href="#DejaVuSans-30" x="63.623047"/>
       <use xlink:href="#DejaVuSans-32" x="127.246094"/>
       <use xlink:href="#DejaVuSans-32" x="190.869141"/>
       <use xlink:href="#DejaVuSans-2d" x="254.492188"/>
       <use xlink:href="#DejaVuSans-30" x="290.576172"/>
       <use xlink:href="#DejaVuSans-37" x="354.199219"/>
      </g>
     </g>
    </g>
    <g id="xtick_6">
     <g id="line2d_6">
      <g>
       <use xlink:href="#m1eaad8cc74" x="726.691376" y="356.477812" style="stroke: #000000; stroke-width: 0.8"/>
      </g>
     </g>
     <g id="text_6">
      <!-- 2023-01 -->
      <g transform="translate(705.79997 371.07625) scale(0.1 -0.1)">
       <defs>
        <path id="DejaVuSans-33" d="M 2597 2516 
Q 3050 2419 3304 2112 
Q 3559 1806 3559 1356 
Q 3559 666 3084 287 
Q 2609 -91 1734 -91 
Q 1441 -91 1130 -33 
Q 819 25 488 141 
L 488 750 
Q 750 597 1062 519 
Q 1375 441 1716 441 
Q 2309 441 2620 675 
Q 2931 909 2931 1356 
Q 2931 1769 2642 2001 
Q 2353 2234 1838 2234 
L 1294 2234 
L 1294 2753 
L 1863 2753 
Q 2328 2753 2575 2939 
Q 2822 3125 2822 3475 
Q 2822 3834 2567 4026 
Q 2313 4219 1838 4219 
Q 1578 4219 1281 4162 
Q 984 4106 628 3988 
L 628 4550 
Q 988 4650 1302 4700 
Q 1616 4750 1894 4750 
Q 2613 4750 3031 4423 
Q 3450 4097 3450 3541 
Q 3450 3153 3228 2886 
Q 3006 2619 2597 2516 
z
" transform="scale(0.015625)"/>
       </defs>
       <use xlink:href="#DejaVuSans-32"/>
       <use xlink:href="#DejaVuSans-30" x="63.623047"/>
       <use xlink:href="#DejaVuSans-32" x="127.246094"/>
       <use xlink:href="#DejaVuSans-33" x="190.869141"/>
       <use xlink:href="#DejaVuSans-2d" x="254.492188"/>
       <use xlink:href="#DejaVuSans-30" x="290.576172"/>
       <use xlink:href="#DejaVuSans-31" x="354.199219"/>
      </g>
     </g>
    </g>
    <g id="xtick_7">
     <g id="line2d_7">
      <g>
       <use xlink:href="#m1eaad8cc74" x="853.160197" y="356.477812" style="stroke: #000000; stroke-width: 0.8"/>
      </g>
     </g>
     <g id="text_7">
      <!-- 2023-07 -->
      <g transform="translate(832.268791 371.07625) scale(0.1 -0.1)">
       <use xlink:href="#DejaVuSans-32"/>
       <use xlink:href="#DejaVuSans-30" x="63.623047"/>
       <use xlink:href="#DejaVuSans-32" x="127.246094"/>
       <use xlink:href="#DejaVuSans-33" x="190.869141"/>
       <use xlink:href="#DejaVuSans-2d" x="254.492188"/>
       <use xlink:href="#DejaVuSans-30" x="290.576172"/>
       <use xlink:href="#DejaVuSans-37" x="354.199219"/>
      </g>
     </g>
    </g>
    <g id="xtick_8">
     <g id="line2d_8">
      <g>
       <use xlink:href="#m1eaad8cc74" x="981.725185" y="356.477812" style="stroke: #000000; stroke-width: 0.8"/>
      </g>
     </g>
     <g id="text_8">
      <!-- 2024-01 -->
      <g transform="translate(960.833779 371.07625) scale(0.1 -0.1)">
       <defs>
        <path id="DejaVuSans-34" d="M 2419 4116 
L 825 1625 
L 2419 1625 
L 2419 4116 
z
M 2253 4666 
L 3047 4666 
L 3047 1625 
L 3713 1625 
L 3713 1100 
L 3047 1100 
L 3047 0 
L 2419 0 
L 2419 1100 
L 313 1100 
L 313 1709 
L 2253 4666 
z
" transform="scale(0.015625)"/>
       </defs>
       <use xlink:href="#DejaVuSans-32"/>
       <use xlink:href="#DejaVuSans-30" x="63.623047"/>
       <use xlink:href="#DejaVuSans-32" x="127.246094"/>
       <use xlink:href="#DejaVuSans-34" x="190.869141"/>
       <use xlink:href="#DejaVuSans-2d" x="254.492188"/>
       <use xlink:href="#DejaVuSans-30" x="290.576172"/>
       <use xlink:href="#DejaVuSans-31" x="354.199219"/>
      </g>
     </g>
    </g>
    <g id="xtick_9">
     <g id="line2d_9">
      <g>
       <use xlink:href="#m1eaad8cc74" x="1108.892729" y="356.477812" style="stroke: #000000; stroke-width: 0.8"/>
      </g>
     </g>
     <g id="text_9">
      <!-- 2024-07 -->
      <g transform="translate(1088.001322 371.07625) scale(0.1 -0.1)">
       <use xlink:href="#DejaVuSans-32"/>
       <use xlink:href="#DejaVuSans-30" x="63.623047"/>
       <use xlink:href="#DejaVuSans-32" x="127.246094"/>
       <use xlink:href="#DejaVuSans-34" x="190.869141"/>
       <use xlink:href="#DejaVuSans-2d" x="254.492188"/>
       <use xlink:href="#DejaVuSans-30" x="290.576172"/>
       <use xlink:href="#DejaVuSans-37" x="354.199219"/>
      </g>
     </g>
    </g>
    <g id="text_10">
     <!-- Date -->
     <g transform="translate(605.739844 384.754375) scale(0.1 -0.1)">
      <defs>
       <path id="DejaVuSans-44" d="M 1259 4147 
L 1259 519 
L 2022 519 
Q 2988 519 3436 956 
Q 3884 1394 3884 2338 
Q 3884 3275 3436 3711 
Q 2988 4147 2022 4147 
L 1259 4147 
z
M 628 4666 
L 1925 4666 
Q 3281 4666 3915 4102 
Q 4550 3538 4550 2338 
Q 4550 1131 3912 565 
Q 3275 0 1925 0 
L 628 0 
L 628 4666 
z
" transform="scale(0.015625)"/>
       <path id="DejaVuSans-61" d="M 2194 1759 
Q 1497 1759 1228 1600 
Q 959 1441 959 1056 
Q 959 750 1161 570 
Q 1363 391 1709 391 
Q 2188 391 2477 730 
Q 2766 1069 2766 1631 
L 2766 1759 
L 2194 1759 
z
M 3341 1997 
L 3341 0 
L 2766 0 
L 2766 531 
Q 2569 213 2275 61 
Q 1981 -91 1556 -91 
Q 1019 -91 701 211 
Q 384 513 384 1019 
Q 384 1609 779 1909 
Q 1175 2209 1959 2209 
L 2766 2209 
L 2766 2266 
Q 2766 2663 2505 2880 
Q 2244 3097 1772 3097 
Q 1472 3097 1187 3025 
Q 903 2953 641 2809 
L 641 3341 
Q 956 3463 1253 3523 
Q 1550 3584 1831 3584 
Q 2591 3584 2966 3190 
Q 3341 2797 3341 1997 
z
" transform="scale(0.015625)"/>
       <path id="DejaVuSans-74" d="M 1172 4494 
L 1172 3500 
L 2356 3500 
L 2356 3053 
L 1172 3053 
L 1172 1153 
Q 1172 725 1289 603 
Q 1406 481 1766 481 
L 2356 481 
L 2356 0 
L 1766 0 
Q 1100 0 847 248 
Q 594 497 594 1153 
L 594 3053 
L 172 3053 
L 172 3500 
L 594 3500 
L 594 4494 
L 1172 4494 
z
" transform="scale(0.015625)"/>
       <path id="DejaVuSans-65" d="M 3597 1894 
L 3597 1613 
L 953 1613 
Q 991 1019 1311 708 
Q 1631 397 2203 397 
Q 2534 397 2845 478 
Q 3156 559 3463 722 
L 3463 178 
Q 3153 47 2828 -22 
Q 2503 -91 2169 -91 
Q 1331 -91 842 396 
Q 353 884 353 1716 
Q 353 2575 817 3079 
Q 1281 3584 2069 3584 
Q 2775 3584 3186 3129 
Q 3597 2675 3597 1894 
z
M 3022 2063 
Q 3016 2534 2758 2815 
Q 2500 3097 2075 3097 
Q 1594 3097 1305 2825 
Q 1016 2553 972 2059 
L 3022 2063 
z
" transform="scale(0.015625)"/>
      </defs>
      <use xlink:href="#DejaVuSans-44"/>
      <use xlink:href="#DejaVuSans-61" x="77.001953"/>
      <use xlink:href="#DejaVuSans-74" x="138.28125"/>
      <use xlink:href="#DejaVuSans-65" x="177.490234"/>
     </g>
    </g>
   </g>
   <g id="matplotlib.axis_2">
    <g id="ytick_1">
     <g id="line2d_10">
      <defs>
       <path id="m201571e774" d="M 0 0 
L -3.5 0 
" style="stroke: #000000; stroke-width: 0.8"/>
      </defs>
      <g>
       <use xlink:href="#m201571e774" x="59.690625" y="341.357812" style="stroke: #000000; stroke-width: 0.8"/>
      </g>
     </g>
     <g id="text_11">
      <!-- 0 -->
      <g transform="translate(46.328125 345.157031) scale(0.1 -0.1)">
       <use xlink:href="#DejaVuSans-30"/>
      </g>
     </g>
    </g>
    <g id="ytick_2">
     <g id="line2d_11">
      <g>
       <use xlink:href="#m201571e774" x="59.690625" y="275.036205" style="stroke: #000000; stroke-width: 0.8"/>
      </g>
     </g>
     <g id="text_12">
      <!-- 5000 -->
      <g transform="translate(27.240625 278.835424) scale(0.1 -0.1)">
       <defs>
        <path id="DejaVuSans-35" d="M 691 4666 
L 3169 4666 
L 3169 4134 
L 1269 4134 
L 1269 2991 
Q 1406 3038 1543 3061 
Q 1681 3084 1819 3084 
Q 2600 3084 3056 2656 
Q 3513 2228 3513 1497 
Q 3513 744 3044 326 
Q 2575 -91 1722 -91 
Q 1428 -91 1123 -41 
Q 819 9 494 109 
L 494 744 
Q 775 591 1075 516 
Q 1375 441 1709 441 
Q 2250 441 2565 725 
Q 2881 1009 2881 1497 
Q 2881 1984 2565 2268 
Q 2250 2553 1709 2553 
Q 1456 2553 1204 2497 
Q 953 2441 691 2322 
L 691 4666 
z
" transform="scale(0.015625)"/>
       </defs>
       <use xlink:href="#DejaVuSans-35"/>
       <use xlink:href="#DejaVuSans-30" x="63.623047"/>
       <use xlink:href="#DejaVuSans-30" x="127.246094"/>
       <use xlink:href="#DejaVuSans-30" x="190.869141"/>
      </g>
     </g>
    </g>
    <g id="ytick_3">
     <g id="line2d_12">
      <g>
       <use xlink:href="#m201571e774" x="59.690625" y="208.714598" style="stroke: #000000; stroke-width: 0.8"/>
      </g>
     </g>
     <g id="text_13">
      <!-- 10000 -->
      <g transform="translate(20.878125 212.513817) scale(0.1 -0.1)">
       <use xlink:href="#DejaVuSans-31"/>
       <use xlink:href="#DejaVuSans-30" x="63.623047"/>
       <use xlink:href="#DejaVuSans-30" x="127.246094"/>
       <use xlink:href="#DejaVuSans-30" x="190.869141"/>
       <use xlink:href="#DejaVuSans-30" x="254.492188"/>
      </g>
     </g>
    </g>
    <g id="ytick_4">
     <g id="line2d_13">
      <g>
       <use xlink:href="#m201571e774" x="59.690625" y="142.392991" style="stroke: #000000; stroke-width: 0.8"/>
      </g>
     </g>
     <g id="text_14">
      <!-- 15000 -->
      <g transform="translate(20.878125 146.19221) scale(0.1 -0.1)">
       <use xlink:href="#DejaVuSans-31"/>
       <use xlink:href="#DejaVuSans-35" x="63.623047"/>
       <use xlink:href="#DejaVuSans-30" x="127.246094"/>
       <use xlink:href="#DejaVuSans-30" x="190.869141"/>
       <use xlink:href="#DejaVuSans-30" x="254.492188"/>
      </g>
     </g>
    </g>
    <g id="ytick_5">
     <g id="line2d_14">
      <g>
       <use xlink:href="#m201571e774" x="59.690625" y="76.071384" style="stroke: #000000; stroke-width: 0.8"/>
      </g>
     </g>
     <g id="text_15">
      <!-- 20000 -->
      <g transform="translate(20.878125 79.870603) scale(0.1 -0.1)">
       <use xlink:href="#DejaVuSans-32"/>
       <use xlink:href="#DejaVuSans-30" x="63.623047"/>
       <use xlink:href="#DejaVuSans-30" x="127.246094"/>
       <use xlink:href="#DejaVuSans-30" x="190.869141"/>
       <use xlink:href="#DejaVuSans-30" x="254.492188"/>
      </g>
     </g>
    </g>
    <g id="text_16">
     <!-- Ticket Redemptions -->
     <g transform="translate(14.798438 239.336719) rotate(-90) scale(0.1 -0.1)">
      <defs>
       <path id="DejaVuSans-54" d="M -19 4666 
L 3928 4666 
L 3928 4134 
L 2272 4134 
L 2272 0 
L 1638 0 
L 1638 4134 
L -19 4134 
L -19 4666 
z
" transform="scale(0.015625)"/>
       <path id="DejaVuSans-69" d="M 603 3500 
L 1178 3500 
L 1178 0 
L 603 0 
L 603 3500 
z
M 603 4863 
L 1178 4863 
L 1178 4134 
L 603 4134 
L 603 4863 
z
" transform="scale(0.015625)"/>
       <path id="DejaVuSans-63" d="M 3122 3366 
L 3122 2828 
Q 2878 2963 2633 3030 
Q 2388 3097 2138 3097 
Q 1578 3097 1268 2742 
Q 959 2388 959 1747 
Q 959 1106 1268 751 
Q 1578 397 2138 397 
Q 2388 397 2633 464 
Q 2878 531 3122 666 
L 3122 134 
Q 2881 22 2623 -34 
Q 2366 -91 2075 -91 
Q 1284 -91 818 406 
Q 353 903 353 1747 
Q 353 2603 823 3093 
Q 1294 3584 2113 3584 
Q 2378 3584 2631 3529 
Q 2884 3475 3122 3366 
z
" transform="scale(0.015625)"/>
       <path id="DejaVuSans-6b" d="M 581 4863 
L 1159 4863 
L 1159 1991 
L 2875 3500 
L 3609 3500 
L 1753 1863 
L 3688 0 
L 2938 0 
L 1159 1709 
L 1159 0 
L 581 0 
L 581 4863 
z
" transform="scale(0.015625)"/>
       <path id="DejaVuSans-20" transform="scale(0.015625)"/>
       <path id="DejaVuSans-52" d="M 2841 2188 
Q 3044 2119 3236 1894 
Q 3428 1669 3622 1275 
L 4263 0 
L 3584 0 
L 2988 1197 
Q 2756 1666 2539 1819 
Q 2322 1972 1947 1972 
L 1259 1972 
L 1259 0 
L 628 0 
L 628 4666 
L 2053 4666 
Q 2853 4666 3247 4331 
Q 3641 3997 3641 3322 
Q 3641 2881 3436 2590 
Q 3231 2300 2841 2188 
z
M 1259 4147 
L 1259 2491 
L 2053 2491 
Q 2509 2491 2742 2702 
Q 2975 2913 2975 3322 
Q 2975 3731 2742 3939 
Q 2509 4147 2053 4147 
L 1259 4147 
z
" transform="scale(0.015625)"/>
       <path id="DejaVuSans-64" d="M 2906 2969 
L 2906 4863 
L 3481 4863 
L 3481 0 
L 2906 0 
L 2906 525 
Q 2725 213 2448 61 
Q 2172 -91 1784 -91 
Q 1150 -91 751 415 
Q 353 922 353 1747 
Q 353 2572 751 3078 
Q 1150 3584 1784 3584 
Q 2172 3584 2448 3432 
Q 2725 3281 2906 2969 
z
M 947 1747 
Q 947 1113 1208 752 
Q 1469 391 1925 391 
Q 2381 391 2643 752 
Q 2906 1113 2906 1747 
Q 2906 2381 2643 2742 
Q 2381 3103 1925 3103 
Q 1469 3103 1208 2742 
Q 947 2381 947 1747 
z
" transform="scale(0.015625)"/>
       <path id="DejaVuSans-6d" d="M 3328 2828 
Q 3544 3216 3844 3400 
Q 4144 3584 4550 3584 
Q 5097 3584 5394 3201 
Q 5691 2819 5691 2113 
L 5691 0 
L 5113 0 
L 5113 2094 
Q 5113 2597 4934 2840 
Q 4756 3084 4391 3084 
Q 3944 3084 3684 2787 
Q 3425 2491 3425 1978 
L 3425 0 
L 2847 0 
L 2847 2094 
Q 2847 2600 2669 2842 
Q 2491 3084 2119 3084 
Q 1678 3084 1418 2786 
Q 1159 2488 1159 1978 
L 1159 0 
L 581 0 
L 581 3500 
L 1159 3500 
L 1159 2956 
Q 1356 3278 1631 3431 
Q 1906 3584 2284 3584 
Q 2666 3584 2933 3390 
Q 3200 3197 3328 2828 
z
" transform="scale(0.015625)"/>
       <path id="DejaVuSans-70" d="M 1159 525 
L 1159 -1331 
L 581 -1331 
L 581 3500 
L 1159 3500 
L 1159 2969 
Q 1341 3281 1617 3432 
Q 1894 3584 2278 3584 
Q 2916 3584 3314 3078 
Q 3713 2572 3713 1747 
Q 3713 922 3314 415 
Q 2916 -91 2278 -91 
Q 1894 -91 1617 61 
Q 1341 213 1159 525 
z
M 3116 1747 
Q 3116 2381 2855 2742 
Q 2594 3103 2138 3103 
Q 1681 3103 1420 2742 
Q 1159 2381 1159 1747 
Q 1159 1113 1420 752 
Q 1681 391 2138 391 
Q 2594 391 2855 752 
Q 3116 1113 3116 1747 
z
" transform="scale(0.015625)"/>
       <path id="DejaVuSans-6f" d="M 1959 3097 
Q 1497 3097 1228 2736 
Q 959 2375 959 1747 
Q 959 1119 1226 758 
Q 1494 397 1959 397 
Q 2419 397 2687 759 
Q 2956 1122 2956 1747 
Q 2956 2369 2687 2733 
Q 2419 3097 1959 3097 
z
M 1959 3584 
Q 2709 3584 3137 3096 
Q 3566 2609 3566 1747 
Q 3566 888 3137 398 
Q 2709 -91 1959 -91 
Q 1206 -91 779 398 
Q 353 888 353 1747 
Q 353 2609 779 3096 
Q 1206 3584 1959 3584 
z
" transform="scale(0.015625)"/>
       <path id="DejaVuSans-6e" d="M 3513 2113 
L 3513 0 
L 2938 0 
L 2938 2094 
Q 2938 2591 2744 2837 
Q 2550 3084 2163 3084 
Q 1697 3084 1428 2787 
Q 1159 2491 1159 1978 
L 1159 0 
L 581 0 
L 581 3500 
L 1159 3500 
L 1159 2956 
Q 1366 3272 1645 3428 
Q 1925 3584 2291 3584 
Q 2894 3584 3203 3211 
Q 3513 2838 3513 2113 
z
" transform="scale(0.015625)"/>
       <path id="DejaVuSans-73" d="M 2834 3397 
L 2834 2853 
Q 2591 2978 2328 3040 
Q 2066 3103 1784 3103 
Q 1356 3103 1142 2972 
Q 928 2841 928 2578 
Q 928 2378 1081 2264 
Q 1234 2150 1697 2047 
L 1894 2003 
Q 2506 1872 2764 1633 
Q 3022 1394 3022 966 
Q 3022 478 2636 193 
Q 2250 -91 1575 -91 
Q 1294 -91 989 -36 
Q 684 19 347 128 
L 347 722 
Q 666 556 975 473 
Q 1284 391 1588 391 
Q 1994 391 2212 530 
Q 2431 669 2431 922 
Q 2431 1156 2273 1281 
Q 2116 1406 1581 1522 
L 1381 1569 
Q 847 1681 609 1914 
Q 372 2147 372 2553 
Q 372 3047 722 3315 
Q 1072 3584 1716 3584 
Q 2034 3584 2315 3537 
Q 2597 3491 2834 3397 
z
" transform="scale(0.015625)"/>
      </defs>
      <use xlink:href="#DejaVuSans-54"/>
      <use xlink:href="#DejaVuSans-69" x="57.958984"/>
      <use xlink:href="#DejaVuSans-63" x="85.742188"/>
      <use xlink:href="#DejaVuSans-6b" x="140.722656"/>
      <use xlink:href="#DejaVuSans-65" x="195.007812"/>
      <use xlink:href="#DejaVuSans-74" x="256.53125"/>
      <use xlink:href="#DejaVuSans-20" x="295.740234"/>
      <use xlink:href="#DejaVuSans-52" x="327.527344"/>
      <use xlink:href="#DejaVuSans-65" x="392.509766"/>
      <use xlink:href="#DejaVuSans-64" x="454.033203"/>
      <use xlink:href="#DejaVuSans-65" x="517.509766"/>
      <use xlink:href="#DejaVuSans-6d" x="579.033203"/>
      <use xlink:href="#DejaVuSans-70" x="676.445312"/>
      <use xlink:href="#DejaVuSans-74" x="739.921875"/>
      <use xlink:href="#DejaVuSans-69" x="779.130859"/>
      <use xlink:href="#DejaVuSans-6f" x="806.914062"/>
      <use xlink:href="#DejaVuSans-6e" x="868.095703"/>
      <use xlink:href="#DejaVuSans-73" x="931.474609"/>
     </g>
    </g>
   </g>
   <g id="line2d_15">
    <path d="M 110.417898 328.385306 
L 111.11662 313.728231 
L 111.815343 332.90844 
L 112.514066 303.952426 
L 113.212789 301.830135 
L 113.911512 297.82431 
L 114.610234 269.133582 
L 115.308957 274.25361 
L 116.00768 308.47556 
L 116.706403 325.427362 
L 117.405125 297.625345 
L 118.103848 302.586201 
L 118.802571 290.67484 
L 119.501294 271.985411 
L 120.200016 310.014221 
L 120.898739 323.039785 
L 121.597462 305.676788 
L 122.296185 304.284034 
L 122.994907 299.774165 
L 123.69363 305.186008 
L 124.392353 269.080525 
L 125.091076 268.576481 
L 125.789799 309.24489 
L 126.488521 300.318002 
L 127.187244 311.022309 
L 127.885967 319.790026 
L 129.283412 290.09121 
L 129.982135 271.269138 
L 130.680858 303.753461 
L 131.379581 306.737934 
L 132.078303 328.279192 
L 132.777026 300.079244 
L 133.475749 297.346794 
L 134.174472 268.629538 
L 134.873194 270.168199 
L 135.571917 311.990605 
L 136.27064 333.624713 
L 136.969363 327.125196 
L 137.668086 328.995465 
L 138.366808 320.081841 
L 139.065531 298.858927 
L 139.764254 318.357479 
L 140.462977 328.982201 
L 141.161699 330.215782 
L 141.860422 316.155602 
L 142.559145 329.526038 
L 143.257868 326.952759 
L 143.95659 312.720143 
L 144.655313 315.585236 
L 145.354036 330.162725 
L 146.052759 329.128108 
L 146.751481 319.378832 
L 147.450204 329.366866 
L 148.148927 319.988991 
L 148.84765 293.062418 
L 149.546373 303.793254 
L 150.245095 327.549654 
L 150.943818 332.736004 
L 151.642541 334.765445 
L 152.341264 331.489157 
L 153.039986 334.208343 
L 153.738709 324.49886 
L 154.437432 336.662243 
L 155.136155 330.985113 
L 155.834877 330.441276 
L 156.5336 334.022643 
L 157.232323 331.913616 
L 157.931046 328.929143 
L 158.629769 319.630854 
L 159.328491 326.873173 
L 160.027214 331.210607 
L 160.725937 329.38013 
L 161.42466 330.109668 
L 162.123382 335.05726 
L 162.822105 331.608536 
L 163.520828 325.029433 
L 164.219551 334.208343 
L 164.918273 334.725652 
L 165.616996 333.39922 
L 166.315719 334.195079 
L 167.014442 334.407308 
L 167.713164 325.533477 
L 168.411887 330.75962 
L 169.11061 334.248136 
L 169.809333 334.221608 
L 170.508056 334.606273 
L 171.206778 331.356514 
L 171.905501 334.301193 
L 172.604224 333.041083 
L 173.302947 331.4361 
L 174.001669 338.744741 
L 174.700392 335.05726 
L 175.399115 334.500158 
L 176.097838 330.75962 
L 176.79656 332.537039 
L 178.194006 323.212221 
L 179.591451 326.515037 
L 180.290174 323.106106 
L 180.988897 328.690386 
L 181.68762 332.152373 
L 182.386343 332.802325 
L 183.085065 331.913616 
L 183.783788 339.965059 
L 184.482511 335.362339 
L 185.181234 334.526687 
L 186.578679 333.810414 
L 187.277402 332.444188 
L 187.976125 335.654154 
L 188.674847 339.726301 
L 189.37357 335.229696 
L 190.072293 334.831766 
L 190.771016 335.070524 
L 191.469738 334.367515 
L 192.168461 334.181815 
L 192.867184 335.667419 
L 193.565907 335.455189 
L 194.26463 335.813326 
L 194.963352 337.962146 
L 195.662075 334.977674 
L 196.360798 334.301193 
L 197.059521 335.070524 
L 197.758243 336.861208 
L 198.456966 338.333547 
L 199.155689 334.818502 
L 199.854412 334.632802 
L 200.553134 335.083788 
L 201.251857 334.128757 
L 201.95058 333.545127 
L 202.649303 339.010028 
L 203.348025 338.108054 
L 204.046748 334.990938 
L 204.745471 334.248136 
L 205.444194 335.282753 
L 206.142917 334.394044 
L 206.841639 333.704299 
L 207.540362 337.710124 
L 208.239085 338.890649 
L 208.937808 337.351987 
L 209.63653 336.794886 
L 210.335253 335.508247 
L 211.033976 338.174375 
L 211.732699 339.527336 
L 212.431421 338.333547 
L 213.130144 337.444838 
L 213.828867 338.86412 
L 214.52759 336.582657 
L 215.226312 338.333547 
L 215.925035 336.343899 
L 216.623758 338.625362 
L 217.322481 336.755093 
L 218.021204 339.235521 
L 218.719926 338.37334 
L 219.418649 338.161111 
L 220.816095 337.444838 
L 221.514817 337.564217 
L 222.21354 334.65933 
L 222.912263 337.471366 
L 223.610986 338.015203 
L 224.309708 338.001939 
L 225.008431 337.564217 
L 225.707154 338.37334 
L 226.405877 338.651891 
L 227.104599 337.259137 
L 227.803322 339.195728 
L 228.502045 338.67842 
L 229.200768 338.426397 
L 229.899491 338.346812 
L 230.598213 338.054996 
L 231.296936 338.161111 
L 231.995659 337.139758 
L 232.694382 338.638627 
L 233.393104 338.147847 
L 234.091827 339.023292 
L 234.79055 338.028468 
L 235.489273 338.293754 
L 236.187995 337.975411 
L 236.886718 334.433837 
L 237.585441 338.081525 
L 238.284164 338.28049 
L 238.982886 337.816239 
L 239.681609 336.091877 
L 240.380332 337.338723 
L 241.079055 338.121318 
L 241.777778 335.110317 
L 242.4765 335.428661 
L 243.175223 337.60401 
L 245.271391 336.755093 
L 245.970114 337.099965 
L 246.668837 333.969585 
L 247.36756 329.618888 
L 248.066282 332.338074 
L 248.765005 338.452926 
L 249.463728 334.380779 
L 250.162451 335.959234 
L 250.861173 335.707212 
L 251.559896 336.648978 
L 252.258619 341.357812 
L 252.957342 341.357812 
L 253.656065 340.535425 
L 254.354787 336.755093 
L 255.05351 336.052084 
L 255.752233 335.176639 
L 256.450956 332.961497 
L 257.149678 338.386604 
L 257.848401 337.365252 
L 258.547124 336.794886 
L 259.245847 334.765445 
L 259.944569 336.091877 
L 260.643292 336.03882 
L 261.342015 334.75218 
L 262.040738 332.736004 
L 262.73946 336.091877 
L 263.438183 334.274665 
L 264.136906 333.836942 
L 264.835629 335.892912 
L 265.534352 333.664506 
L 266.233074 329.857646 
L 266.931797 336.423485 
L 267.63052 336.556128 
L 268.329243 336.980586 
L 269.027965 335.627626 
L 269.726688 337.060172 
L 270.425411 335.269489 
L 271.124134 317.362655 
L 271.822856 321.978639 
L 272.521579 332.90844 
L 273.220302 334.526687 
L 273.919025 335.747005 
L 274.617747 332.444188 
L 275.31647 336.675507 
L 276.015193 330.706562 
L 276.713916 338.77127 
L 277.412639 335.972498 
L 278.111361 329.512773 
L 278.810084 336.343899 
L 279.508807 336.144934 
L 280.20753 329.923967 
L 280.906252 331.83403 
L 281.604975 319.31251 
L 282.303698 334.181815 
L 283.002421 335.256225 
L 283.701143 333.98285 
L 284.399866 333.319634 
L 285.098589 335.693947 
L 285.797312 318.927845 
L 286.496034 339.421222 
L 287.194757 337.909089 
L 287.89348 335.667419 
L 288.592203 331.714651 
L 289.290926 337.179551 
L 289.989648 335.800062 
L 290.688371 335.932705 
L 291.387094 334.858295 
L 292.085817 336.847943 
L 292.784539 337.378516 
L 293.483262 338.479455 
L 294.181985 337.657067 
L 294.880708 331.131021 
L 295.57943 327.244574 
L 296.278153 334.314458 
L 296.976876 336.383692 
L 297.675599 336.595921 
L 298.374321 337.763181 
L 299.073044 337.537688 
L 299.771767 336.728564 
L 300.47049 329.977025 
L 301.169213 335.54804 
L 301.867935 337.511159 
L 302.566658 337.550952 
L 303.265381 336.211256 
L 303.964104 333.571656 
L 304.662826 336.277577 
L 305.361549 325.75897 
L 306.060272 329.804589 
L 306.758995 335.892912 
L 307.457717 336.078613 
L 308.15644 329.897439 
L 308.855163 327.523125 
L 309.553886 325.75897 
L 310.252608 309.682613 
L 310.951331 306.485911 
L 311.650054 328.902615 
L 312.348777 324.631503 
L 313.0475 324.49886 
L 313.746222 327.32416 
L 314.444945 309.351005 
L 315.143668 309.762199 
L 315.842391 263.562567 
L 316.541113 263.124845 
L 317.239836 321.036872 
L 317.938559 332.563567 
L 318.637282 320.665471 
L 319.336004 337.086701 
L 320.034727 293.831749 
L 320.73345 283.114177 
L 321.432173 317.773849 
L 322.130895 318.874788 
L 322.829618 321.010343 
L 323.528341 333.027819 
L 324.227064 316.699439 
L 324.925787 264.292105 
L 325.624509 256.57227 
L 326.323232 316.274981 
L 327.021955 333.09414 
L 328.4194 312.149777 
L 329.118123 308.873489 
L 329.816846 263.11158 
L 330.515569 273.033293 
L 331.214291 330.162725 
L 331.913014 317.933021 
L 332.611737 314.497562 
L 333.31046 312.560971 
L 334.009182 331.635065 
L 334.707905 252.075665 
L 335.406628 257.567094 
L 336.105351 326.753795 
L 336.804074 322.416361 
L 337.502796 312.28242 
L 338.201519 304.390149 
L 338.900242 318.795202 
L 339.598965 313.75476 
L 340.297687 255.816204 
L 340.99641 310.942723 
L 341.695133 327.708826 
L 342.393856 318.065664 
L 343.092578 263.005466 
L 343.791301 307.865401 
L 344.490024 237.392061 
L 345.188747 244.369094 
L 345.887469 294.322529 
L 346.586192 304.257505 
L 347.983638 331.847294 
L 348.682361 311.154953 
L 349.381083 235.667699 
L 350.079806 302.201536 
L 350.778529 311.446768 
L 351.477252 317.16369 
L 352.175974 287.823011 
L 352.874697 292.969568 
L 354.272143 305.942074 
L 354.970865 239.050101 
L 355.669588 278.551251 
L 356.368311 298.328354 
L 357.067034 256.903878 
L 357.765756 277.29114 
L 358.464479 251.438978 
L 359.163202 276.176937 
L 359.861925 197.691947 
L 360.560648 264.013554 
L 361.25937 318.556444 
L 361.958093 244.820081 
L 362.656816 319.71044 
L 363.355539 229.605904 
L 364.054261 208.900299 
L 364.752984 281.641837 
L 365.451707 151.532108 
L 366.15043 258.654768 
L 366.849152 244.820081 
L 367.547875 236.675788 
L 368.246598 247.48621 
L 368.945321 255.98864 
L 369.644043 190.834293 
L 370.342766 260.949496 
L 371.041489 314.550619 
L 372.438935 271.295667 
L 373.137657 284.069208 
L 373.83638 164.70358 
L 374.535103 169.942987 
L 375.233826 243.86505 
L 375.932548 294.87963 
L 376.631271 288.724985 
L 377.329994 268.231608 
L 378.028717 235.707492 
L 378.727439 169.054277 
L 380.124885 255.855997 
L 380.823608 222.443171 
L 381.52233 287.159795 
L 382.221053 274.532161 
L 382.919776 237.856312 
L 383.618499 183.286894 
L 384.317222 257.089578 
L 385.015944 270.221257 
L 385.714667 253.53474 
L 386.41339 257.381394 
L 387.112113 247.207659 
L 387.810835 233.518879 
L 388.509558 147.658927 
L 389.208281 155.445083 
L 389.907004 196.829766 
L 390.605726 275.102527 
L 391.304449 315.10772 
L 392.003172 325.838556 
L 392.701895 305.690052 
L 393.400617 253.83982 
L 394.09934 310.345829 
L 394.798063 319.020695 
L 395.496786 324.856997 
L 396.195509 323.384657 
L 396.894231 314.815905 
L 397.592954 302.984131 
L 398.291677 248.520827 
L 398.9904 260.127108 
L 399.689122 311.261067 
L 400.387845 324.936583 
L 401.086568 334.022643 
L 401.785291 326.979288 
L 402.484013 318.224836 
L 403.182736 315.054663 
L 403.881459 294.043978 
L 404.580182 324.644767 
L 405.278904 319.909405 
L 405.977627 318.397272 
L 407.375073 313.94046 
L 408.073796 272.078262 
L 408.772518 332.192166 
L 409.471241 331.276928 
L 410.169964 326.541565 
L 410.868687 324.697825 
L 411.567409 324.578446 
L 412.266132 324.856997 
L 412.964855 326.939495 
L 413.663578 289.454523 
L 414.3623 278.378814 
L 415.061023 321.540916 
L 415.759746 315.094456 
L 416.458469 321.580709 
L 417.157191 329.300544 
L 417.855914 325.851821 
L 418.554637 317.548356 
L 419.25336 326.24975 
L 419.952083 316.885139 
L 421.349528 332.006466 
L 422.048251 325.732442 
L 422.746974 318.317686 
L 423.445696 308.223538 
L 424.144419 334.049171 
L 424.843142 332.921704 
L 425.541865 317.65447 
L 426.240587 325.997728 
L 426.93931 329.751531 
L 427.638033 334.911352 
L 428.336756 318.423801 
L 429.035478 326.926231 
L 429.734201 327.907791 
L 430.432924 330.401483 
L 431.131647 330.388219 
L 431.83037 325.08249 
L 432.529092 316.076016 
L 433.227815 312.096719 
L 433.926538 322.058225 
L 434.625261 329.77806 
L 435.323983 326.568094 
L 436.022706 325.307984 
L 436.721429 323.61015 
L 437.420152 323.291807 
L 438.118874 336.821415 
L 438.817597 331.117756 
L 439.51632 330.428012 
L 440.215043 333.147198 
L 440.913765 332.404396 
L 441.612488 330.560655 
L 442.311211 329.831117 
L 443.009934 334.951145 
L 443.708657 332.629889 
L 444.407379 331.754444 
L 445.106102 330.189254 
L 445.804825 332.868647 
L 446.503548 331.117756 
L 447.20227 330.520862 
L 447.900993 338.121318 
L 448.599716 333.439013 
L 449.298439 333.332898 
L 449.997161 332.762532 
L 450.695884 332.842118 
L 451.394607 331.873823 
L 452.09333 331.92688 
L 452.792052 337.577481 
L 453.490775 333.836942 
L 454.189498 332.669682 
L 454.888221 333.757356 
L 455.586944 333.439013 
L 456.285666 332.629889 
L 456.984389 334.977674 
L 457.683112 332.205431 
L 458.381835 331.595272 
L 459.080557 332.086052 
L 459.77928 334.102229 
L 460.478003 332.90844 
L 461.176726 332.338074 
L 461.875448 337.139758 
L 462.574171 334.035907 
L 463.272894 334.924617 
L 463.971617 334.181815 
L 464.67034 335.64089 
L 465.369062 335.24296 
L 466.067785 336.901 
L 466.766508 335.110317 
L 467.465231 331.767708 
L 468.163953 337.617274 
L 468.862676 332.51051 
L 469.561399 333.717563 
L 470.260122 331.714651 
L 470.958844 331.873823 
L 471.657567 334.685859 
L 472.35629 336.781622 
L 473.055013 334.301193 
L 473.753735 335.05726 
L 474.452458 338.37334 
L 475.151181 336.609185 
L 475.849904 336.463278 
L 476.548627 334.155286 
L 477.247349 337.20608 
L 477.946072 338.386604 
L 478.644795 338.081525 
L 479.343518 336.13167 
L 480.04224 336.330635 
L 480.740963 335.985762 
L 481.439686 336.03882 
L 482.138409 327.191517 
L 482.837131 339.646715 
L 483.535854 337.338723 
L 484.234577 334.181815 
L 484.9333 335.136846 
L 485.632022 334.234872 
L 486.330745 330.573919 
L 487.029468 331.873823 
L 487.728191 335.070524 
L 488.426914 333.863471 
L 489.824359 334.447101 
L 490.523082 332.974761 
L 491.221805 326.196693 
L 491.920527 329.207694 
L 492.61925 335.017467 
L 493.317973 332.258488 
L 494.016696 334.858295 
L 494.715418 335.136846 
L 495.414141 333.823678 
L 496.112864 330.613712 
L 496.811587 328.756707 
L 497.510309 332.921704 
L 498.209032 333.850207 
L 498.907755 332.895175 
L 499.606478 336.542864 
L 500.305201 341.357812 
L 501.003923 341.357812 
L 501.702646 340.203817 
L 502.401369 337.325459 
L 503.100092 333.850207 
L 503.798814 332.775797 
L 504.497537 335.468454 
L 505.19626 336.489807 
L 505.894983 335.587833 
L 506.593705 333.107405 
L 507.292428 328.12002 
L 507.991151 334.208343 
L 508.689874 332.311545 
L 509.388596 331.727915 
L 510.087319 333.903264 
L 510.786042 333.00129 
L 511.484765 336.22452 
L 512.88221 332.271752 
L 514.279656 332.165638 
L 514.978379 331.303457 
L 515.677101 332.298281 
L 516.375824 321.779674 
L 517.074547 334.911352 
L 517.77327 331.582008 
L 518.471992 331.157549 
L 519.170715 331.223871 
L 519.869438 334.088964 
L 520.568161 334.765445 
L 521.266883 337.29893 
L 521.965606 332.351338 
L 522.664329 336.635714 
L 523.363052 334.049171 
L 524.061775 320.254277 
L 525.45922 335.123581 
L 526.157943 323.238749 
L 526.856666 328.027169 
L 527.555388 330.428012 
L 528.254111 334.778709 
L 528.952834 330.905527 
L 529.651557 331.648329 
L 530.350279 331.290193 
L 531.049002 337.033644 
L 531.747725 333.691035 
L 532.446448 329.671945 
L 533.14517 334.367515 
L 533.843893 329.884174 
L 534.542616 334.791973 
L 535.241339 320.10837 
L 535.940062 333.558391 
L 536.638784 329.274016 
L 537.337507 330.467805 
L 538.03623 332.338074 
L 538.734953 328.88935 
L 539.433675 329.96376 
L 540.132398 329.738267 
L 540.831121 320.731793 
L 541.529844 328.982201 
L 542.228566 313.927196 
L 542.927289 328.730178 
L 543.626012 325.095754 
L 544.324735 316.434153 
L 545.023457 302.493351 
L 545.72218 301.312826 
L 546.420903 331.011642 
L 547.119626 330.414747 
L 547.818349 318.622766 
L 548.517071 329.406659 
L 549.215794 310.677437 
L 549.914517 328.6108 
L 550.61324 284.002887 
L 551.311962 328.88935 
L 552.010685 323.703001 
L 552.709408 327.350689 
L 554.106853 311.194746 
L 554.805576 286.164971 
L 555.504299 332.60336 
L 556.203022 323.238749 
L 556.901744 328.066962 
L 557.600467 316.97799 
L 558.29919 310.279507 
L 558.997913 317.813642 
L 559.696636 276.21673 
L 560.395358 256.890614 
L 561.094081 313.529266 
L 561.792804 316.235188 
L 563.888972 294.720458 
L 564.587695 203.329284 
L 565.286418 248.189219 
L 565.98514 327.337425 
L 566.683863 314.33839 
L 567.382586 313.688438 
L 568.081309 311.181481 
L 568.780031 298.248768 
L 569.478754 270.221257 
L 570.177477 266.016467 
L 570.8762 182.212484 
L 571.574923 308.157216 
L 572.273645 313.675174 
L 572.972368 313.423152 
L 573.671091 322.575533 
L 574.369814 204.841416 
L 575.068536 200.132582 
L 575.767259 285.316054 
L 576.465982 287.504667 
L 577.164705 324.910054 
L 577.863427 305.995132 
L 578.56215 272.966971 
L 579.260873 165.525968 
L 579.959596 215.824274 
L 580.658318 311.035574 
L 581.357041 325.984464 
L 582.055764 286.47005 
L 582.754487 308.555146 
L 583.45321 259.662857 
L 584.151932 236.768638 
L 584.850655 296.219327 
L 585.549378 271.322195 
L 586.248101 278.697158 
L 586.946823 296.35197 
L 587.645546 299.455821 
L 588.344269 253.640855 
L 589.042992 121.037434 
L 589.741714 86.152268 
L 590.440437 289.812659 
L 591.13916 259.21187 
L 591.837883 281.323494 
L 592.536605 253.123546 
L 593.235328 230.919072 
L 593.934051 100.650171 
L 594.632774 254.569357 
L 595.331497 250.457418 
L 596.030219 251.160427 
L 596.728942 301.007747 
L 597.427665 234.221888 
L 598.126388 145.868243 
L 598.82511 77.437609 
L 599.523833 113.264541 
L 600.921279 309.722406 
L 601.620001 233.174007 
L 602.318724 241.198921 
L 603.017447 243.559971 
L 603.71617 115.081753 
L 604.414892 105.783464 
L 605.113615 224.857277 
L 605.812338 262.819765 
L 606.511061 274.346461 
L 607.209784 215.373288 
L 607.908506 209.006413 
L 608.607229 38.957812 
L 609.305952 108.568971 
L 610.004675 296.948864 
L 610.703397 256.850821 
L 611.40212 244.249715 
L 612.100843 217.256821 
L 612.799566 205.597483 
L 613.498288 94.933249 
L 614.197011 282.543811 
L 614.895734 205.995412 
L 615.594457 216.620134 
L 616.293179 220.984096 
L 616.991902 196.047171 
L 617.690625 196.949145 
L 618.389348 108.370007 
L 619.088071 73.683806 
L 620.485516 215.386552 
L 621.184239 219.92295 
L 621.882962 296.325441 
L 622.581684 204.854681 
L 623.280407 96.246417 
L 624.677853 300.543495 
L 625.376575 234.394324 
L 626.075298 203.037469 
L 626.774021 198.40822 
L 627.472744 185.661208 
L 628.171466 67.568954 
L 628.870189 117.09793 
L 629.568912 174.877314 
L 630.267635 215.665103 
L 630.966358 248.74632 
L 632.363803 193.739179 
L 633.062526 104.045838 
L 633.761249 262.34225 
L 634.459971 311.685525 
L 635.158694 231.144566 
L 635.857417 218.875068 
L 636.55614 278.4584 
L 637.254862 253.176604 
L 637.953585 131.317283 
L 638.652308 145.788657 
L 640.049753 310.306036 
L 640.748476 237.498176 
L 641.447199 225.4807 
L 642.145922 193.4341 
L 642.844645 133.585482 
L 643.543367 241.145864 
L 644.24209 228.160093 
L 644.940813 292.982832 
L 645.639536 309.748935 
L 646.338258 294.587815 
L 647.036981 283.976358 
L 647.735704 195.277841 
L 648.434427 240.33674 
L 649.133149 322.999992 
L 649.831872 316.871875 
L 650.530595 295.131652 
L 651.229318 301.219976 
L 651.92804 295.980569 
L 652.626763 204.019028 
L 653.325486 290.887069 
L 654.024209 287.053681 
L 654.722932 292.889982 
L 655.421654 317.521827 
L 656.120377 312.362006 
L 656.8191 305.743109 
L 657.517823 250.430889 
L 658.216545 325.374305 
L 658.915268 324.936583 
L 659.613991 328.013905 
L 660.312714 318.423801 
L 661.011436 310.531529 
L 662.408882 286.390464 
L 663.107605 289.0168 
L 663.806327 318.277893 
L 664.50505 316.022959 
L 665.203773 307.560321 
L 665.902496 317.25654 
L 666.601219 322.641855 
L 667.299941 295.410203 
L 667.998664 287.106738 
L 668.697387 280.302141 
L 669.39611 304.496263 
L 670.094832 321.315423 
L 670.793555 329.061787 
L 671.492278 314.33839 
L 672.191001 311.433503 
L 672.889723 307.6797 
L 673.588446 327.576183 
L 674.287169 328.88935 
L 674.985892 319.405361 
L 675.684614 327.987376 
L 676.383337 316.818818 
L 677.08206 278.975709 
L 677.780783 282.450961 
L 678.479506 310.425415 
L 679.178228 317.535091 
L 679.876951 328.332249 
L 680.575674 318.463594 
L 681.274397 319.471682 
L 681.973119 299.548671 
L 682.671842 315.691351 
L 683.370565 326.010993 
L 684.76801 322.164339 
L 685.466733 329.220958 
L 686.165456 319.89614 
L 686.864179 295.927512 
L 687.562901 295.927512 
L 688.261624 323.862173 
L 688.960347 325.825292 
L 689.65907 326.223222 
L 690.357793 315.90358 
L 691.056515 332.231959 
L 691.755238 318.569708 
L 692.453961 327.867998 
L 693.152684 328.544478 
L 693.851406 333.704299 
L 694.550129 333.757356 
L 695.248852 331.329985 
L 695.947575 332.974761 
L 696.646297 330.693298 
L 697.34502 334.712387 
L 698.043743 331.303457 
L 698.742466 329.791324 
L 699.441188 327.669033 
L 700.139911 331.064699 
L 700.838634 326.806852 
L 701.537357 315.956637 
L 702.23608 336.834679 
L 702.934802 330.693298 
L 703.633525 331.117756 
L 704.332248 333.545127 
L 705.030971 332.430924 
L 705.729693 332.51051 
L 706.428416 333.133933 
L 707.127139 329.671945 
L 707.825862 334.035907 
L 708.524584 332.298281 
L 709.223307 331.131021 
L 709.92203 328.159813 
L 710.620753 332.178902 
L 711.319475 333.505334 
L 712.018198 336.927529 
L 712.716921 332.842118 
L 713.415644 332.60336 
L 714.114367 334.553216 
L 714.813089 335.82659 
L 715.511812 332.231959 
L 716.210535 332.430924 
L 716.909258 334.394044 
L 717.60798 330.666769 
L 718.306703 331.449364 
L 719.005426 328.597535 
L 719.704149 332.457453 
L 720.402871 340.309931 
L 721.101594 341.357812 
L 721.800317 334.685859 
L 722.49904 334.340986 
L 723.197762 331.170814 
L 723.896485 331.03817 
L 724.595208 323.955023 
L 725.293931 330.17599 
L 725.992654 333.943057 
L 726.691376 331.661594 
L 727.390099 326.037521 
L 728.088822 335.773533 
L 728.787545 335.906176 
L 729.486267 332.90844 
L 730.18499 332.457453 
L 730.883713 328.345513 
L 731.582436 334.195079 
L 732.281158 331.489157 
L 732.979881 332.576832 
L 733.678604 333.359427 
L 734.377327 333.876735 
L 735.076049 336.052084 
L 735.774772 330.149461 
L 736.473495 329.68521 
L 737.172218 331.184078 
L 737.870941 336.80815 
L 738.569663 331.077963 
L 739.268386 334.195079 
L 739.967109 332.364603 
L 740.665832 331.887087 
L 741.364554 336.211256 
L 742.063277 328.730178 
L 742.762 332.483981 
L 743.460723 332.231959 
L 744.159445 335.349075 
L 744.858168 332.789061 
L 745.556891 331.674858 
L 746.255614 337.007115 
L 746.954336 332.41766 
L 747.653059 334.526687 
L 748.351782 330.36169 
L 749.050505 331.396307 
L 749.749228 334.619537 
L 750.44795 339.885473 
L 751.146673 331.03817 
L 751.845396 331.502422 
L 752.544119 335.296018 
L 753.242841 330.069875 
L 753.941564 334.831766 
L 754.640287 332.377867 
L 755.33901 325.838556 
L 756.037732 323.583622 
L 756.736455 330.003553 
L 757.435178 329.47298 
L 758.133901 332.736004 
L 758.832623 330.374954 
L 759.531346 334.526687 
L 760.230069 329.075051 
L 760.928792 322.111282 
L 761.627515 319.790026 
L 762.326237 330.043346 
L 763.02496 334.022643 
L 763.723683 336.794886 
L 764.422406 330.26884 
L 765.121128 334.301193 
L 765.819851 329.47298 
L 766.518574 334.646066 
L 767.217297 330.016818 
L 767.916019 330.680034 
L 768.614742 328.637328 
L 769.313465 333.18699 
L 770.012188 331.847294 
L 770.71091 329.857646 
L 771.409633 331.52895 
L 772.108356 332.789061 
L 772.807079 327.562918 
L 773.505802 331.276928 
L 774.204524 331.887087 
L 774.903247 331.396307 
L 776.300693 333.518599 
L 776.999415 334.142022 
L 777.698138 327.417011 
L 778.396861 329.539302 
L 779.095584 335.043995 
L 779.794306 331.887087 
L 780.493029 332.921704 
L 781.191752 326.329336 
L 781.890475 326.010993 
L 782.589198 330.666769 
L 783.28792 332.01973 
L 783.986643 326.448715 
L 784.685366 337.153023 
L 785.384089 312.454856 
L 786.082811 331.4361 
L 786.781534 330.653505 
L 787.480257 333.240048 
L 788.17898 328.663857 
L 788.877702 335.335811 
L 789.576425 324.392745 
L 790.275148 318.662559 
L 790.973871 324.40601 
L 791.672593 331.860558 
L 792.371316 320.665471 
L 793.070039 321.501123 
L 793.768762 286.324143 
L 794.467485 287.902597 
L 795.166207 278.511458 
L 796.563653 315.877051 
L 797.262376 299.588464 
L 797.961098 291.908422 
L 798.659821 295.967305 
L 799.358544 262.992201 
L 800.057267 275.14232 
L 800.755989 330.520862 
L 801.454712 327.735354 
L 802.153435 323.066313 
L 802.852158 322.575533 
L 803.55088 315.147513 
L 804.249603 325.414098 
L 804.948326 306.830784 
L 805.647049 324.034609 
L 806.345772 318.675823 
L 807.044494 314.497562 
L 807.743217 299.416028 
L 808.44194 322.694912 
L 809.839385 331.860558 
L 810.538108 322.641855 
L 811.236831 326.408922 
L 811.935554 326.64768 
L 812.634276 316.911668 
L 813.332999 297.61208 
L 814.031722 221.567726 
L 814.730445 315.784201 
L 815.429167 303.023924 
L 816.12789 306.379797 
L 816.826613 303.514703 
L 817.525336 298.155918 
L 818.224059 287.84954 
L 818.922781 199.588745 
L 819.621504 237.299211 
L 820.320227 301.777077 
L 821.01895 304.297298 
L 821.717672 317.919757 
L 822.416395 307.905194 
L 823.115118 295.144917 
L 823.813841 270.420221 
L 824.512563 78.379376 
L 825.211286 168.934898 
L 825.910009 280.341934 
L 826.608732 313.104808 
L 827.307454 301.405676 
L 828.006177 287.199588 
L 828.7049 166.494263 
L 829.403623 165.897369 
L 830.102346 277.596219 
L 830.801068 289.348408 
L 831.499791 278.126792 
L 832.198514 281.933652 
L 832.897237 270.911001 
L 833.595959 155.829749 
L 834.294682 194.932968 
L 834.993405 281.960181 
L 835.692128 288.698456 
L 836.39085 282.782569 
L 837.089573 314.497562 
L 837.788296 305.544145 
L 838.487019 160.711019 
L 839.185741 274.028117 
L 839.884464 307.480736 
L 840.583187 294.123564 
L 841.28191 308.236802 
L 841.980633 300.543495 
L 842.679355 284.493667 
L 843.378078 57.116669 
L 844.076801 98.050364 
L 844.775524 255.00708 
L 845.474246 244.621116 
L 846.172969 250.590061 
L 846.871692 261.373954 
L 847.570415 283.193763 
L 848.269137 267.555128 
L 848.96786 159.02645 
L 849.666583 295.330617 
L 850.365306 315.001606 
L 851.064028 262.965673 
L 851.762751 230.97213 
L 852.461474 246.451593 
L 853.160197 94.177183 
L 853.85892 237.140039 
L 854.557642 168.072717 
L 855.256365 211.937828 
L 855.955088 149.104738 
L 856.653811 268.457102 
L 858.051256 118.915142 
L 858.749979 179.931021 
L 860.147424 251.492035 
L 860.846147 217.707808 
L 861.54487 268.868296 
L 862.243593 182.716528 
L 862.942315 155.285911 
L 863.641038 115.758234 
L 864.339761 236.211537 
L 865.038484 230.680314 
L 865.737207 191.86891 
L 866.435929 246.862787 
L 867.134652 216.169147 
L 867.833375 64.650803 
L 868.532098 136.384253 
L 869.23082 261.771884 
L 869.929543 239.514353 
L 870.628266 203.050733 
L 871.326989 228.849838 
L 872.025711 209.842066 
L 872.724434 244.93946 
L 873.423157 89.879542 
L 874.12188 224.207326 
L 874.820602 207.149408 
L 875.519325 213.834626 
L 876.218048 228.531494 
L 876.916771 194.787061 
L 877.615494 96.326003 
L 878.314216 64.067173 
L 879.012939 273.099614 
L 879.711662 254.662208 
L 880.410385 170.699053 
L 881.109107 266.852119 
L 881.80783 169.545057 
L 882.506553 217.973095 
L 883.205276 104.470296 
L 883.903998 213.808098 
L 884.602721 198.262313 
L 885.301444 175.275244 
L 886.000167 209.881858 
L 886.698889 238.439943 
L 887.397612 62.793798 
L 888.096335 110.134161 
L 888.795058 225.520493 
L 889.493781 216.646662 
L 890.192503 288.8311 
L 890.891226 246.557707 
L 891.589949 225.308264 
L 892.288672 187.345776 
L 892.987394 123.54439 
L 893.686117 210.797097 
L 894.38484 214.975358 
L 895.083563 245.589412 
L 895.782285 212.866331 
L 896.481008 195.662506 
L 897.179731 130.813238 
L 897.878454 83.061681 
L 898.577176 141.172673 
L 899.275899 282.119353 
L 899.974622 286.841451 
L 900.673345 308.117423 
L 901.372068 295.808133 
L 902.07079 216.368112 
L 902.769513 216.39464 
L 903.468236 292.836925 
L 904.166959 318.768673 
L 904.865681 309.908106 
L 906.263127 280.182762 
L 906.96185 190.250663 
L 908.359295 303.541232 
L 909.058018 302.4005 
L 909.756741 302.055628 
L 910.455463 297.691666 
L 911.154186 286.324143 
L 911.852909 231.370059 
L 912.551632 242.153953 
L 913.250355 299.124213 
L 913.949077 313.144601 
L 914.6478 309.404062 
L 915.346523 311.964076 
L 916.045246 288.565813 
L 916.743968 242.512089 
L 917.442691 243.533442 
L 918.141414 282.450961 
L 918.840137 287.743425 
L 919.538859 288.260734 
L 920.237582 296.736635 
L 920.936305 302.135214 
L 921.635028 279.612396 
L 922.33375 310.451944 
L 923.032473 306.154303 
L 923.731196 251.810379 
L 924.429919 317.428977 
L 925.128642 309.417326 
L 925.827364 313.94046 
L 926.526087 312.056926 
L 927.22481 317.680999 
L 927.923533 321.142987 
L 928.622255 315.797465 
L 930.019701 320.028784 
L 930.718424 328.544478 
L 931.417146 312.017133 
L 932.115869 310.505001 
L 932.814592 317.972814 
L 933.513315 312.454856 
L 934.212037 319.166603 
L 934.91076 328.265927 
L 935.609483 311.274331 
L 936.308206 288.685192 
L 937.006929 326.422187 
L 937.705651 316.513738 
L 939.103097 329.141372 
L 939.80182 328.70365 
L 941.897988 316.540267 
L 942.596711 332.139109 
L 943.295433 330.786148 
L 943.994156 328.345513 
L 944.692879 328.7965 
L 945.391602 323.185692 
L 946.090324 325.002904 
L 946.789047 322.893877 
L 947.48777 315.5985 
L 948.186493 330.255575 
L 949.583938 326.090579 
L 950.282661 330.308633 
L 950.981384 317.349391 
L 951.680107 325.374305 
L 952.378829 329.433188 
L 953.077552 336.450014 
L 953.776275 331.223871 
L 954.474998 329.764796 
L 955.17372 329.433188 
L 955.872443 325.719178 
L 956.571166 333.120669 
L 957.269889 310.703966 
L 957.968611 334.593009 
L 958.667334 334.951145 
L 959.366057 327.13846 
L 960.06478 335.216432 
L 960.763503 331.489157 
L 961.462225 335.335811 
L 962.160948 333.18699 
L 962.859671 333.730828 
L 963.558394 332.828854 
L 964.257116 334.367515 
L 964.955839 332.802325 
L 965.654562 330.030082 
L 966.353285 333.744092 
L 967.052007 334.128757 
L 967.75073 308.342916 
L 968.449453 333.664506 
L 969.148176 325.812028 
L 969.846898 327.81494 
L 971.244344 333.783885 
L 971.943067 334.234872 
L 972.64179 327.907791 
L 973.340512 331.263664 
L 974.039235 329.021994 
L 974.737958 331.555479 
L 975.436681 335.468454 
L 976.135403 328.743443 
L 976.834126 328.584271 
L 977.532849 331.727915 
L 978.231572 335.680683 
L 978.930294 331.820765 
L 979.629017 330.36169 
L 980.32774 325.838556 
L 981.725185 328.88935 
L 982.423908 330.321897 
L 983.122631 331.104492 
L 983.821354 329.327073 
L 984.520077 333.439013 
L 985.218799 333.810414 
L 985.917522 334.805238 
L 986.616245 334.593009 
L 987.314968 336.383692 
L 988.01369 335.083788 
L 988.712413 335.070524 
L 989.411136 327.23131 
L 990.109859 339.699772 
L 990.808581 337.511159 
L 991.507304 334.778709 
L 992.206027 335.866383 
L 992.90475 334.937881 
L 993.603472 334.858295 
L 994.302195 334.035907 
L 995.000918 335.441925 
L 995.699641 330.414747 
L 997.097086 338.147847 
L 997.795809 335.256225 
L 998.494532 334.128757 
L 999.193255 334.500158 
L 999.891977 333.505334 
L 1000.5907 333.412484 
L 1001.289423 323.756058 
L 1001.988146 334.287929 
L 1002.686868 332.483981 
L 1003.385591 335.176639 
L 1004.084314 331.263664 
L 1004.783037 323.278542 
L 1005.481759 325.042697 
L 1006.180482 334.049171 
L 1006.879205 332.775797 
L 1007.577928 332.590096 
L 1008.276651 332.749268 
L 1008.975373 327.191517 
L 1009.674096 319.179867 
L 1010.372819 331.621801 
L 1011.071542 332.430924 
L 1011.770264 329.313809 
L 1012.468987 321.76641 
L 1013.16771 334.420572 
L 1013.866433 334.221608 
L 1014.565155 330.825941 
L 1015.263878 333.425748 
L 1015.962601 329.28728 
L 1016.661324 329.101579 
L 1017.360046 330.666769 
L 1018.058769 330.985113 
L 1018.757492 329.526038 
L 1019.456215 331.144285 
L 1020.154938 331.157549 
L 1020.85366 325.838556 
L 1021.552383 325.228398 
L 1022.251106 333.916528 
L 1022.949829 332.51051 
L 1023.648551 326.170164 
L 1024.347274 330.428012 
L 1025.045997 329.141372 
L 1025.74472 323.013256 
L 1026.443442 328.823029 
L 1027.142165 330.255575 
L 1027.840888 322.283718 
L 1028.539611 328.186341 
L 1029.238333 335.256225 
L 1029.937056 334.460365 
L 1030.635779 325.042697 
L 1031.334502 323.5173 
L 1032.033225 300.06598 
L 1032.731947 331.157549 
L 1033.43067 326.488508 
L 1034.129393 324.856997 
L 1034.828116 330.308633 
L 1035.526838 330.45454 
L 1036.225561 332.351338 
L 1036.924284 331.210607 
L 1037.623007 330.573919 
L 1038.321729 333.956321 
L 1039.020452 328.584271 
L 1039.719175 325.228398 
L 1040.417898 325.75897 
L 1041.11662 330.534126 
L 1041.815343 325.069226 
L 1042.514066 320.559356 
L 1043.911512 306.552233 
L 1044.610234 308.608203 
L 1045.308957 318.927845 
L 1046.00768 331.780972 
L 1046.706403 333.943057 
L 1047.405125 334.022643 
L 1048.103848 326.170164 
L 1048.802571 305.782902 
L 1049.501294 296.84275 
L 1050.200016 325.679385 
L 1050.898739 323.02652 
L 1051.597462 313.728231 
L 1052.296185 331.807501 
L 1052.994907 333.452277 
L 1053.69363 320.134898 
L 1054.392353 311.30086 
L 1055.091076 314.391447 
L 1055.789799 315.240364 
L 1056.488521 332.802325 
L 1057.187244 325.17534 
L 1057.885967 323.676472 
L 1058.58469 320.890965 
L 1059.283412 312.37527 
L 1059.982135 310.266243 
L 1060.680858 326.926231 
L 1061.379581 320.002255 
L 1062.078303 314.444504 
L 1062.777026 307.00322 
L 1063.475749 323.941758 
L 1064.174472 311.844697 
L 1064.873194 316.540267 
L 1065.571917 325.719178 
L 1066.969363 293.009361 
L 1067.668086 320.453242 
L 1068.366808 261.506597 
L 1069.065531 316.593324 
L 1069.764254 296.405027 
L 1070.462977 300.530231 
L 1071.161699 306.737934 
L 1071.860422 316.818818 
L 1072.559145 310.62438 
L 1073.257868 295.158181 
L 1073.95659 259.914879 
L 1074.655313 318.450329 
L 1075.354036 318.901316 
L 1076.052759 311.247803 
L 1076.751481 298.049803 
L 1077.450204 313.608852 
L 1078.148927 194.840118 
L 1078.84765 122.28428 
L 1079.546373 133.015116 
L 1080.245095 292.624696 
L 1080.943818 306.247154 
L 1082.341264 271.176288 
L 1083.039986 284.268173 
L 1083.738709 174.134512 
L 1084.437432 315.147513 
L 1085.136155 318.304422 
L 1085.834877 285.713984 
L 1086.5336 287.624046 
L 1087.232323 274.346461 
L 1087.931046 189.242574 
L 1088.629769 294.78678 
L 1089.328491 281.323494 
L 1090.027214 281.535723 
L 1090.725937 290.449347 
L 1091.42466 287.305703 
L 1092.123382 306.02166 
L 1092.822105 211.619485 
L 1093.520828 281.734688 
L 1094.219551 293.075682 
L 1094.918273 287.783218 
L 1095.616996 266.374603 
L 1096.315719 270.738565 
L 1097.014442 257.64668 
L 1097.713164 116.302071 
L 1098.411887 162.806782 
L 1099.11061 242.870226 
L 1099.809333 264.544127 
L 1100.508056 195.914528 
L 1101.206778 276.986061 
L 1102.604224 247.419888 
L 1103.302947 251.38592 
L 1104.001669 233.333179 
L 1104.700392 267.886736 
L 1105.399115 279.174674 
L 1106.097838 240.270419 
L 1106.79656 223.371673 
L 1107.495283 304.642171 
L 1108.194006 127.948145 
L 1108.892729 96.657611 
L 1109.591451 238.917458 
L 1110.290174 256.651856 
L 1110.988897 208.091175 
L 1111.68762 214.351935 
L 1112.386343 124.486157 
L 1113.085065 128.067524 
L 1113.783788 223.013537 
L 1114.482511 251.8767 
L 1115.181234 322.164339 
L 1115.879956 252.049136 
L 1117.277402 82.093386 
L 1117.976125 162.408852 
L 1118.674847 293.566462 
L 1119.37357 312.308949 
L 1120.072293 228.597816 
L 1120.771016 217.402729 
L 1121.469738 190.436363 
L 1122.168461 105.385534 
L 1122.867184 157.646961 
L 1123.565907 222.56255 
L 1124.26463 222.74825 
L 1124.963352 293.394026 
L 1124.963352 293.394026 
" clip-path="url(#p90fb335166)" style="fill: none; stroke: #008080; stroke-width: 1.5; stroke-linecap: square"/>
   </g>
   <g id="patch_3">
    <path d="M 59.690625 356.477812 
L 59.690625 23.837812 
" style="fill: none; stroke: #000000; stroke-width: 0.8; stroke-linejoin: miter; stroke-linecap: square"/>
   </g>
   <g id="patch_4">
    <path d="M 1175.690625 356.477812 
L 1175.690625 23.837812 
" style="fill: none; stroke: #000000; stroke-width: 0.8; stroke-linejoin: miter; stroke-linecap: square"/>
   </g>
   <g id="patch_5">
    <path d="M 59.690625 356.477812 
L 1175.690625 356.477812 
" style="fill: none; stroke: #000000; stroke-width: 0.8; stroke-linejoin: miter; stroke-linecap: square"/>
   </g>
   <g id="patch_6">
    <path d="M 59.690625 23.837812 
L 1175.690625 23.837812 
" style="fill: none; stroke: #000000; stroke-width: 0.8; stroke-linejoin: miter; stroke-linecap: square"/>
   </g>
   <g id="text_17">
    <!-- Toronto Island Ferry Ticket Redemptions -->
    <g transform="translate(477.780313 17.837812) scale(0.14 -0.14)">
     <defs>
      <path id="DejaVuSans-72" d="M 2631 2963 
Q 2534 3019 2420 3045 
Q 2306 3072 2169 3072 
Q 1681 3072 1420 2755 
Q 1159 2438 1159 1844 
L 1159 0 
L 581 0 
L 581 3500 
L 1159 3500 
L 1159 2956 
Q 1341 3275 1631 3429 
Q 1922 3584 2338 3584 
Q 2397 3584 2469 3576 
Q 2541 3569 2628 3553 
L 2631 2963 
z
" transform="scale(0.015625)"/>
      <path id="DejaVuSans-49" d="M 628 4666 
L 1259 4666 
L 1259 0 
L 628 0 
L 628 4666 
z
" transform="scale(0.015625)"/>
      <path id="DejaVuSans-6c" d="M 603 4863 
L 1178 4863 
L 1178 0 
L 603 0 
L 603 4863 
z
" transform="scale(0.015625)"/>
      <path id="DejaVuSans-46" d="M 628 4666 
L 3309 4666 
L 3309 4134 
L 1259 4134 
L 1259 2759 
L 3109 2759 
L 3109 2228 
L 1259 2228 
L 1259 0 
L 628 0 
L 628 4666 
z
" transform="scale(0.015625)"/>
      <path id="DejaVuSans-79" d="M 2059 -325 
Q 1816 -950 1584 -1140 
Q 1353 -1331 966 -1331 
L 506 -1331 
L 506 -850 
L 844 -850 
Q 1081 -850 1212 -737 
Q 1344 -625 1503 -206 
L 1606 56 
L 191 3500 
L 800 3500 
L 1894 763 
L 2988 3500 
L 3597 3500 
L 2059 -325 
z
" transform="scale(0.015625)"/>
     </defs>
     <use xlink:href="#DejaVuSans-54"/>
     <use xlink:href="#DejaVuSans-6f" x="44.083984"/>
     <use xlink:href="#DejaVuSans-72" x="105.265625"/>
     <use xlink:href="#DejaVuSans-6f" x="144.128906"/>
     <use xlink:href="#DejaVuSans-6e" x="205.310547"/>
     <use xlink:href="#DejaVuSans-74" x="268.689453"/>
     <use xlink:href="#DejaVuSans-6f" x="307.898438"/>
     <use xlink:href="#DejaVuSans-20" x="369.080078"/>
     <use xlink:href="#DejaVuSans-49" x="400.867188"/>
     <use xlink:href="#DejaVuSans-73" x="430.359375"/>
     <use xlink:href="#DejaVuSans-6c" x="482.458984"/>
     <use xlink:href="#DejaVuSans-61" x="510.242188"/>
     <use xlink:href="#DejaVuSans-6e" x="571.521484"/>
     <use xlink:href="#DejaVuSans-64" x="634.900391"/>
     <use xlink:href="#DejaVuSans-20" x="698.376953"/>
     <use xlink:href="#DejaVuSans-46" x="730.164062"/>
     <use xlink:href="#DejaVuSans-65" x="782.183594"/>
     <use xlink:href="#DejaVuSans-72" x="843.707031"/>
     <use xlink:href="#DejaVuSans-72" x="883.070312"/>
     <use xlink:href="#DejaVuSans-79" x="924.183594"/>
     <use xlink:href="#DejaVuSans-20" x="983.363281"/>
     <use xlink:href="#DejaVuSans-54" x="1015.150391"/>
     <use xlink:href="#DejaVuSans-69" x="1073.109375"/>
     <use xlink:href="#DejaVuSans-63" x="1100.892578"/>
     <use xlink:href="#DejaVuSans-6b" x="1155.873047"/>
     <use xlink:href="#DejaVuSans-65" x="1210.158203"/>
     <use xlink:href="#DejaVuSans-74" x="1271.681641"/>
     <use xlink:href="#DejaVuSans-20" x="1310.890625"/>
     <use xlink:href="#DejaVuSans-52" x="1342.677734"/>
     <use xlink:href="#DejaVuSans-65" x="1407.660156"/>
     <use xlink:href="#DejaVuSans-64" x="1469.183594"/>
     <use xlink:href="#DejaVuSans-65" x="1532.660156"/>
     <use xlink:href="#DejaVuSans-6d" x="1594.183594"/>
     <use xlink:href="#DejaVuSans-70" x="1691.595703"/>
     <use xlink:href="#DejaVuSans-74" x="1755.072266"/>
     <use xlink:href="#DejaVuSans-69" x="1794.28125"/>
     <use xlink:href="#DejaVuSans-6f" x="1822.064453"/>
     <use xlink:href="#DejaVuSans-6e" x="1883.246094"/>
     <use xlink:href="#DejaVuSans-73" x="1946.625"/>
    </g>
   </g>
  </g>
  <g id="text_18">
   <!-- (Data from 2020-08-02 13:30:00 to 2024-07-24 22:00:00) -->
   <g style="fill: #808080" transform="translate(454.635938 399.677812) scale(0.1 -0.1)">
    <defs>
     <path id="DejaVuSans-28" d="M 1984 4856 
Q 1566 4138 1362 3434 
Q 1159 2731 1159 2009 
Q 1159 1288 1364 580 
Q 1569 -128 1984 -844 
L 1484 -844 
Q 1016 -109 783 600 
Q 550 1309 550 2009 
Q 550 2706 781 3412 
Q 1013 4119 1484 4856 
L 1984 4856 
z
" transform="scale(0.015625)"/>
     <path id="DejaVuSans-66" d="M 2375 4863 
L 2375 4384 
L 1825 4384 
Q 1516 4384 1395 4259 
Q 1275 4134 1275 3809 
L 1275 3500 
L 2222 3500 
L 2222 3053 
L 1275 3053 
L 1275 0 
L 697 0 
L 697 3053 
L 147 3053 
L 147 3500 
L 697 3500 
L 697 3744 
Q 697 4328 969 4595 
Q 1241 4863 1831 4863 
L 2375 4863 
z
" transform="scale(0.015625)"/>
     <path id="DejaVuSans-38" d="M 2034 2216 
Q 1584 2216 1326 1975 
Q 1069 1734 1069 1313 
Q 1069 891 1326 650 
Q 1584 409 2034 409 
Q 2484 409 2743 651 
Q 3003 894 3003 1313 
Q 3003 1734 2745 1975 
Q 2488 2216 2034 2216 
z
M 1403 2484 
Q 997 2584 770 2862 
Q 544 3141 544 3541 
Q 544 4100 942 4425 
Q 1341 4750 2034 4750 
Q 2731 4750 3128 4425 
Q 3525 4100 3525 3541 
Q 3525 3141 3298 2862 
Q 3072 2584 2669 2484 
Q 3125 2378 3379 2068 
Q 3634 1759 3634 1313 
Q 3634 634 3220 271 
Q 2806 -91 2034 -91 
Q 1263 -91 848 271 
Q 434 634 434 1313 
Q 434 1759 690 2068 
Q 947 2378 1403 2484 
z
M 1172 3481 
Q 1172 3119 1398 2916 
Q 1625 2713 2034 2713 
Q 2441 2713 2670 2916 
Q 2900 3119 2900 3481 
Q 2900 3844 2670 4047 
Q 2441 4250 2034 4250 
Q 1625 4250 1398 4047 
Q 1172 3844 1172 3481 
z
" transform="scale(0.015625)"/>
     <path id="DejaVuSans-3a" d="M 750 794 
L 1409 794 
L 1409 0 
L 750 0 
L 750 794 
z
M 750 3309 
L 1409 3309 
L 1409 2516 
L 750 2516 
L 750 3309 
z
" transform="scale(0.015625)"/>
     <path id="DejaVuSans-29" d="M 513 4856 
L 1013 4856 
Q 1481 4119 1714 3412 
Q 1947 2706 1947 2009 
Q 1947 1309 1714 600 
Q 1481 -109 1013 -844 
L 513 -844 
Q 928 -128 1133 580 
Q 1338 1288 1338 2009 
Q 1338 2731 1133 3434 
Q 928 4138 513 4856 
z
" transform="scale(0.015625)"/>
    </defs>
    <use xlink:href="#DejaVuSans-28"/>
    <use xlink:href="#DejaVuSans-44" x="39.013672"/>
    <use xlink:href="#DejaVuSans-61" x="116.015625"/>
    <use xlink:href="#DejaVuSans-74" x="177.294922"/>
    <use xlink:href="#DejaVuSans-61" x="216.503906"/>
    <use xlink:href="#DejaVuSans-20" x="277.783203"/>
    <use xlink:href="#DejaVuSans-66" x="309.570312"/>
    <use xlink:href="#DejaVuSans-72" x="344.775391"/>
    <use xlink:href="#DejaVuSans-6f" x="383.638672"/>
    <use xlink:href="#DejaVuSans-6d" x="444.820312"/>
    <use xlink:href="#DejaVuSans-20" x="542.232422"/>
    <use xlink:href="#DejaVuSans-32" x="574.019531"/>
    <use xlink:href="#DejaVuSans-30" x="637.642578"/>
    <use xlink:href="#DejaVuSans-32" x="701.265625"/>
    <use xlink:href="#DejaVuSans-30" x="764.888672"/>
    <use xlink:href="#DejaVuSans-2d" x="828.511719"/>
    <use xlink:href="#DejaVuSans-30" x="864.595703"/>
    <use xlink:href="#DejaVuSans-38" x="928.21875"/>
    <use xlink:href="#DejaVuSans-2d" x="991.841797"/>
    <use xlink:href="#DejaVuSans-30" x="1027.925781"/>
    <use xlink:href="#DejaVuSans-32" x="1091.548828"/>
    <use xlink:href="#DejaVuSans-20" x="1155.171875"/>
    <use xlink:href="#DejaVuSans-31" x="1186.958984"/>
    <use xlink:href="#DejaVuSans-33" x="1250.582031"/>
    <use xlink:href="#DejaVuSans-3a" x="1314.205078"/>
    <use xlink:href="#DejaVuSans-33" x="1347.896484"/>
    <use xlink:href="#DejaVuSans-30" x="1411.519531"/>
    <use xlink:href="#DejaVuSans-3a" x="1475.142578"/>
    <use xlink:href="#DejaVuSans-30" x="1508.833984"/>
    <use xlink:href="#DejaVuSans-30" x="1572.457031"/>
    <use xlink:href="#DejaVuSans-20" x="1636.080078"/>
    <use xlink:href="#DejaVuSans-74" x="1667.867188"/>
    <use xlink:href="#DejaVuSans-6f" x="1707.076172"/>
    <use xlink:href="#DejaVuSans-20" x="1768.257812"/>
    <use xlink:href="#DejaVuSans-32" x="1800.044922"/>
    <use xlink:href="#DejaVuSans-30" x="1863.667969"/>
    <use xlink:href="#DejaVuSans-32" x="1927.291016"/>
    <use xlink:href="#DejaVuSans-34" x="1990.914062"/>
    <use xlink:href="#DejaVuSans-2d" x="2054.537109"/>
    <use xlink:href="#DejaVuSans-30" x="2090.621094"/>
    <use xlink:href="#DejaVuSans-37" x="2154.244141"/>
    <use xlink:href="#DejaVuSans-2d" x="2217.867188"/>
    <use xlink:href="#DejaVuSans-32" x="2253.951172"/>
    <use xlink:href="#DejaVuSans-34" x="2317.574219"/>
    <use xlink:href="#DejaVuSans-20" x="2381.197266"/>
    <use xlink:href="#DejaVuSans-32" x="2412.984375"/>
    <use xlink:href="#DejaVuSans-32" x="2476.607422"/>
    <use xlink:href="#DejaVuSans-3a" x="2540.230469"/>
    <use xlink:href="#DejaVuSans-30" x="2573.921875"/>
    <use xlink:href="#DejaVuSans-30" x="2637.544922"/>
    <use xlink:href="#DejaVuSans-3a" x="2701.167969"/>
    <use xlink:href="#DejaVuSans-30" x="2734.859375"/>
    <use xlink:href="#DejaVuSans-30" x="2798.482422"/>
    <use xlink:href="#DejaVuSans-29" x="2862.105469"/>
   </g>
  </g>
 </g>
 <defs>
  <clipPath id="p90fb335166">
   <rect x="59.690625" y="23.837812" width="1116" height="332.64"/>
  </clipPath>
 </defs>
</svg>
