<?xml version="1.0" encoding="utf-8" standalone="no"?>
<!DOCTYPE svg PUBLIC "-//W3C//DTD SVG 1.1//EN"
  "http://www.w3.org/Graphics/SVG/1.1/DTD/svg11.dtd">
<svg xmlns:xlink="http://www.w3.org/1999/xlink" width="1182.890625pt" height="408.9575pt" viewBox="0 0 1182.890625 408.9575" xmlns="http://www.w3.org/2000/svg" version="1.1">
 <metadata>
  <rdf:RDF xmlns:dc="http://purl.org/dc/elements/1.1/" xmlns:cc="http://creativecommons.org/ns#" xmlns:rdf="http://www.w3.org/1999/02/22-rdf-syntax-ns#">
   <cc:Work>
    <dc:type rdf:resource="http://purl.org/dc/dcmitype/StillImage"/>
    <dc:date>2024-07-15T19:50:54.364548</dc:date>
    <dc:format>image/svg+xml</dc:format>
    <dc:creator>
     <cc:Agent>
      <dc:title>Matplotlib v3.8.4, https://matplotlib.org/</dc:title>
     </cc:Agent>
    </dc:creator>
   </cc:Work>
  </rdf:RDF>
 </metadata>
 <defs>
  <style type="text/css">*{stroke-linejoin: round; stroke-linecap: butt}</style>
 </defs>
 <g id="figure_1">
  <g id="patch_1">
   <path d="M 0 408.9575 
L 1182.890625 408.9575 
L 1182.890625 0 
L 0 0 
z
" style="fill: #ffffff"/>
  </g>
  <g id="axes_1">
   <g id="patch_2">
    <path d="M 59.690625 356.477812 
L 1175.690625 356.477812 
L 1175.690625 23.837812 
L 59.690625 23.837812 
z
" style="fill: #ffffff"/>
   </g>
   <g id="matplotlib.axis_1">
    <g id="xtick_1">
     <g id="line2d_1">
      <defs>
       <path id="md088fcd710" d="M 0 0 
L 0 3.5 
" style="stroke: #000000; stroke-width: 0.8"/>
      </defs>
      <g>
       <use xlink:href="#md088fcd710" x="167.148913" y="356.477812" style="stroke: #000000; stroke-width: 0.8"/>
      </g>
     </g>
     <g id="text_1">
      <!-- 2017 -->
      <g transform="translate(154.423913 371.07625) scale(0.1 -0.1)">
       <defs>
        <path id="DejaVuSans-32" d="M 1228 531 
L 3431 531 
L 3431 0 
L 469 0 
L 469 531 
Q 828 903 1448 1529 
Q 2069 2156 2228 2338 
Q 2531 2678 2651 2914 
Q 2772 3150 2772 3378 
Q 2772 3750 2511 3984 
Q 2250 4219 1831 4219 
Q 1534 4219 1204 4116 
Q 875 4013 500 3803 
L 500 4441 
Q 881 4594 1212 4672 
Q 1544 4750 1819 4750 
Q 2544 4750 2975 4387 
Q 3406 4025 3406 3419 
Q 3406 3131 3298 2873 
Q 3191 2616 2906 2266 
Q 2828 2175 2409 1742 
Q 1991 1309 1228 531 
z
" transform="scale(0.015625)"/>
        <path id="DejaVuSans-30" d="M 2034 4250 
Q 1547 4250 1301 3770 
Q 1056 3291 1056 2328 
Q 1056 1369 1301 889 
Q 1547 409 2034 409 
Q 2525 409 2770 889 
Q 3016 1369 3016 2328 
Q 3016 3291 2770 3770 
Q 2525 4250 2034 4250 
z
M 2034 4750 
Q 2819 4750 3233 4129 
Q 3647 3509 3647 2328 
Q 3647 1150 3233 529 
Q 2819 -91 2034 -91 
Q 1250 -91 836 529 
Q 422 1150 422 2328 
Q 422 3509 836 4129 
Q 1250 4750 2034 4750 
z
" transform="scale(0.015625)"/>
        <path id="DejaVuSans-31" d="M 794 531 
L 1825 531 
L 1825 4091 
L 703 3866 
L 703 4441 
L 1819 4666 
L 2450 4666 
L 2450 531 
L 3481 531 
L 3481 0 
L 794 0 
L 794 531 
z
" transform="scale(0.015625)"/>
        <path id="DejaVuSans-37" d="M 525 4666 
L 3525 4666 
L 3525 4397 
L 1831 0 
L 1172 0 
L 2766 4134 
L 525 4134 
L 525 4666 
z
" transform="scale(0.015625)"/>
       </defs>
       <use xlink:href="#DejaVuSans-32"/>
       <use xlink:href="#DejaVuSans-30" x="63.623047"/>
       <use xlink:href="#DejaVuSans-31" x="127.246094"/>
       <use xlink:href="#DejaVuSans-37" x="190.869141"/>
      </g>
     </g>
    </g>
    <g id="xtick_2">
     <g id="line2d_2">
      <g>
       <use xlink:href="#md088fcd710" x="294.184622" y="356.477812" style="stroke: #000000; stroke-width: 0.8"/>
      </g>
     </g>
     <g id="text_2">
      <!-- 2018 -->
      <g transform="translate(281.459622 371.07625) scale(0.1 -0.1)">
       <defs>
        <path id="DejaVuSans-38" d="M 2034 2216 
Q 1584 2216 1326 1975 
Q 1069 1734 1069 1313 
Q 1069 891 1326 650 
Q 1584 409 2034 409 
Q 2484 409 2743 651 
Q 3003 894 3003 1313 
Q 3003 1734 2745 1975 
Q 2488 2216 2034 2216 
z
M 1403 2484 
Q 997 2584 770 2862 
Q 544 3141 544 3541 
Q 544 4100 942 4425 
Q 1341 4750 2034 4750 
Q 2731 4750 3128 4425 
Q 3525 4100 3525 3541 
Q 3525 3141 3298 2862 
Q 3072 2584 2669 2484 
Q 3125 2378 3379 2068 
Q 3634 1759 3634 1313 
Q 3634 634 3220 271 
Q 2806 -91 2034 -91 
Q 1263 -91 848 271 
Q 434 634 434 1313 
Q 434 1759 690 2068 
Q 947 2378 1403 2484 
z
M 1172 3481 
Q 1172 3119 1398 2916 
Q 1625 2713 2034 2713 
Q 2441 2713 2670 2916 
Q 2900 3119 2900 3481 
Q 2900 3844 2670 4047 
Q 2441 4250 2034 4250 
Q 1625 4250 1398 4047 
Q 1172 3844 1172 3481 
z
" transform="scale(0.015625)"/>
       </defs>
       <use xlink:href="#DejaVuSans-32"/>
       <use xlink:href="#DejaVuSans-30" x="63.623047"/>
       <use xlink:href="#DejaVuSans-31" x="127.246094"/>
       <use xlink:href="#DejaVuSans-38" x="190.869141"/>
      </g>
     </g>
    </g>
    <g id="xtick_3">
     <g id="line2d_3">
      <g>
       <use xlink:href="#md088fcd710" x="421.22033" y="356.477812" style="stroke: #000000; stroke-width: 0.8"/>
      </g>
     </g>
     <g id="text_3">
      <!-- 2019 -->
      <g transform="translate(408.49533 371.07625) scale(0.1 -0.1)">
       <defs>
        <path id="DejaVuSans-39" d="M 703 97 
L 703 672 
Q 941 559 1184 500 
Q 1428 441 1663 441 
Q 2288 441 2617 861 
Q 2947 1281 2994 2138 
Q 2813 1869 2534 1725 
Q 2256 1581 1919 1581 
Q 1219 1581 811 2004 
Q 403 2428 403 3163 
Q 403 3881 828 4315 
Q 1253 4750 1959 4750 
Q 2769 4750 3195 4129 
Q 3622 3509 3622 2328 
Q 3622 1225 3098 567 
Q 2575 -91 1691 -91 
Q 1453 -91 1209 -44 
Q 966 3 703 97 
z
M 1959 2075 
Q 2384 2075 2632 2365 
Q 2881 2656 2881 3163 
Q 2881 3666 2632 3958 
Q 2384 4250 1959 4250 
Q 1534 4250 1286 3958 
Q 1038 3666 1038 3163 
Q 1038 2656 1286 2365 
Q 1534 2075 1959 2075 
z
" transform="scale(0.015625)"/>
       </defs>
       <use xlink:href="#DejaVuSans-32"/>
       <use xlink:href="#DejaVuSans-30" x="63.623047"/>
       <use xlink:href="#DejaVuSans-31" x="127.246094"/>
       <use xlink:href="#DejaVuSans-39" x="190.869141"/>
      </g>
     </g>
    </g>
    <g id="xtick_4">
     <g id="line2d_4">
      <g>
       <use xlink:href="#md088fcd710" x="548.256039" y="356.477812" style="stroke: #000000; stroke-width: 0.8"/>
      </g>
     </g>
     <g id="text_4">
      <!-- 2020 -->
      <g transform="translate(535.531039 371.07625) scale(0.1 -0.1)">
       <use xlink:href="#DejaVuSans-32"/>
       <use xlink:href="#DejaVuSans-30" x="63.623047"/>
       <use xlink:href="#DejaVuSans-32" x="127.246094"/>
       <use xlink:href="#DejaVuSans-30" x="190.869141"/>
      </g>
     </g>
    </g>
    <g id="xtick_5">
     <g id="line2d_5">
      <g>
       <use xlink:href="#md088fcd710" x="675.639791" y="356.477812" style="stroke: #000000; stroke-width: 0.8"/>
      </g>
     </g>
     <g id="text_5">
      <!-- 2021 -->
      <g transform="translate(662.914791 371.07625) scale(0.1 -0.1)">
       <use xlink:href="#DejaVuSans-32"/>
       <use xlink:href="#DejaVuSans-30" x="63.623047"/>
       <use xlink:href="#DejaVuSans-32" x="127.246094"/>
       <use xlink:href="#DejaVuSans-31" x="190.869141"/>
      </g>
     </g>
    </g>
    <g id="xtick_6">
     <g id="line2d_6">
      <g>
       <use xlink:href="#md088fcd710" x="802.675499" y="356.477812" style="stroke: #000000; stroke-width: 0.8"/>
      </g>
     </g>
     <g id="text_6">
      <!-- 2022 -->
      <g transform="translate(789.950499 371.07625) scale(0.1 -0.1)">
       <use xlink:href="#DejaVuSans-32"/>
       <use xlink:href="#DejaVuSans-30" x="63.623047"/>
       <use xlink:href="#DejaVuSans-32" x="127.246094"/>
       <use xlink:href="#DejaVuSans-32" x="190.869141"/>
      </g>
     </g>
    </g>
    <g id="xtick_7">
     <g id="line2d_7">
      <g>
       <use xlink:href="#md088fcd710" x="929.711208" y="356.477812" style="stroke: #000000; stroke-width: 0.8"/>
      </g>
     </g>
     <g id="text_7">
      <!-- 2023 -->
      <g transform="translate(916.986208 371.07625) scale(0.1 -0.1)">
       <defs>
        <path id="DejaVuSans-33" d="M 2597 2516 
Q 3050 2419 3304 2112 
Q 3559 1806 3559 1356 
Q 3559 666 3084 287 
Q 2609 -91 1734 -91 
Q 1441 -91 1130 -33 
Q 819 25 488 141 
L 488 750 
Q 750 597 1062 519 
Q 1375 441 1716 441 
Q 2309 441 2620 675 
Q 2931 909 2931 1356 
Q 2931 1769 2642 2001 
Q 2353 2234 1838 2234 
L 1294 2234 
L 1294 2753 
L 1863 2753 
Q 2328 2753 2575 2939 
Q 2822 3125 2822 3475 
Q 2822 3834 2567 4026 
Q 2313 4219 1838 4219 
Q 1578 4219 1281 4162 
Q 984 4106 628 3988 
L 628 4550 
Q 988 4650 1302 4700 
Q 1616 4750 1894 4750 
Q 2613 4750 3031 4423 
Q 3450 4097 3450 3541 
Q 3450 3153 3228 2886 
Q 3006 2619 2597 2516 
z
" transform="scale(0.015625)"/>
       </defs>
       <use xlink:href="#DejaVuSans-32"/>
       <use xlink:href="#DejaVuSans-30" x="63.623047"/>
       <use xlink:href="#DejaVuSans-32" x="127.246094"/>
       <use xlink:href="#DejaVuSans-33" x="190.869141"/>
      </g>
     </g>
    </g>
    <g id="xtick_8">
     <g id="line2d_8">
      <g>
       <use xlink:href="#md088fcd710" x="1056.746917" y="356.477812" style="stroke: #000000; stroke-width: 0.8"/>
      </g>
     </g>
     <g id="text_8">
      <!-- 2024 -->
      <g transform="translate(1044.021917 371.07625) scale(0.1 -0.1)">
       <defs>
        <path id="DejaVuSans-34" d="M 2419 4116 
L 825 1625 
L 2419 1625 
L 2419 4116 
z
M 2253 4666 
L 3047 4666 
L 3047 1625 
L 3713 1625 
L 3713 1100 
L 3047 1100 
L 3047 0 
L 2419 0 
L 2419 1100 
L 313 1100 
L 313 1709 
L 2253 4666 
z
" transform="scale(0.015625)"/>
       </defs>
       <use xlink:href="#DejaVuSans-32"/>
       <use xlink:href="#DejaVuSans-30" x="63.623047"/>
       <use xlink:href="#DejaVuSans-32" x="127.246094"/>
       <use xlink:href="#DejaVuSans-34" x="190.869141"/>
      </g>
     </g>
    </g>
    <g id="text_9">
     <!-- Date -->
     <g transform="translate(605.739844 384.754375) scale(0.1 -0.1)">
      <defs>
       <path id="DejaVuSans-44" d="M 1259 4147 
L 1259 519 
L 2022 519 
Q 2988 519 3436 956 
Q 3884 1394 3884 2338 
Q 3884 3275 3436 3711 
Q 2988 4147 2022 4147 
L 1259 4147 
z
M 628 4666 
L 1925 4666 
Q 3281 4666 3915 4102 
Q 4550 3538 4550 2338 
Q 4550 1131 3912 565 
Q 3275 0 1925 0 
L 628 0 
L 628 4666 
z
" transform="scale(0.015625)"/>
       <path id="DejaVuSans-61" d="M 2194 1759 
Q 1497 1759 1228 1600 
Q 959 1441 959 1056 
Q 959 750 1161 570 
Q 1363 391 1709 391 
Q 2188 391 2477 730 
Q 2766 1069 2766 1631 
L 2766 1759 
L 2194 1759 
z
M 3341 1997 
L 3341 0 
L 2766 0 
L 2766 531 
Q 2569 213 2275 61 
Q 1981 -91 1556 -91 
Q 1019 -91 701 211 
Q 384 513 384 1019 
Q 384 1609 779 1909 
Q 1175 2209 1959 2209 
L 2766 2209 
L 2766 2266 
Q 2766 2663 2505 2880 
Q 2244 3097 1772 3097 
Q 1472 3097 1187 3025 
Q 903 2953 641 2809 
L 641 3341 
Q 956 3463 1253 3523 
Q 1550 3584 1831 3584 
Q 2591 3584 2966 3190 
Q 3341 2797 3341 1997 
z
" transform="scale(0.015625)"/>
       <path id="DejaVuSans-74" d="M 1172 4494 
L 1172 3500 
L 2356 3500 
L 2356 3053 
L 1172 3053 
L 1172 1153 
Q 1172 725 1289 603 
Q 1406 481 1766 481 
L 2356 481 
L 2356 0 
L 1766 0 
Q 1100 0 847 248 
Q 594 497 594 1153 
L 594 3053 
L 172 3053 
L 172 3500 
L 594 3500 
L 594 4494 
L 1172 4494 
z
" transform="scale(0.015625)"/>
       <path id="DejaVuSans-65" d="M 3597 1894 
L 3597 1613 
L 953 1613 
Q 991 1019 1311 708 
Q 1631 397 2203 397 
Q 2534 397 2845 478 
Q 3156 559 3463 722 
L 3463 178 
Q 3153 47 2828 -22 
Q 2503 -91 2169 -91 
Q 1331 -91 842 396 
Q 353 884 353 1716 
Q 353 2575 817 3079 
Q 1281 3584 2069 3584 
Q 2775 3584 3186 3129 
Q 3597 2675 3597 1894 
z
M 3022 2063 
Q 3016 2534 2758 2815 
Q 2500 3097 2075 3097 
Q 1594 3097 1305 2825 
Q 1016 2553 972 2059 
L 3022 2063 
z
" transform="scale(0.015625)"/>
      </defs>
      <use xlink:href="#DejaVuSans-44"/>
      <use xlink:href="#DejaVuSans-61" x="77.001953"/>
      <use xlink:href="#DejaVuSans-74" x="138.28125"/>
      <use xlink:href="#DejaVuSans-65" x="177.490234"/>
     </g>
    </g>
   </g>
   <g id="matplotlib.axis_2">
    <g id="ytick_1">
     <g id="line2d_9">
      <defs>
       <path id="mb4406441c9" d="M 0 0 
L -3.5 0 
" style="stroke: #000000; stroke-width: 0.8"/>
      </defs>
      <g>
       <use xlink:href="#mb4406441c9" x="59.690625" y="341.357812" style="stroke: #000000; stroke-width: 0.8"/>
      </g>
     </g>
     <g id="text_10">
      <!-- 0 -->
      <g transform="translate(46.328125 345.157031) scale(0.1 -0.1)">
       <use xlink:href="#DejaVuSans-30"/>
      </g>
     </g>
    </g>
    <g id="ytick_2">
     <g id="line2d_10">
      <g>
       <use xlink:href="#mb4406441c9" x="59.690625" y="282.634805" style="stroke: #000000; stroke-width: 0.8"/>
      </g>
     </g>
     <g id="text_11">
      <!-- 5000 -->
      <g transform="translate(27.240625 286.434024) scale(0.1 -0.1)">
       <defs>
        <path id="DejaVuSans-35" d="M 691 4666 
L 3169 4666 
L 3169 4134 
L 1269 4134 
L 1269 2991 
Q 1406 3038 1543 3061 
Q 1681 3084 1819 3084 
Q 2600 3084 3056 2656 
Q 3513 2228 3513 1497 
Q 3513 744 3044 326 
Q 2575 -91 1722 -91 
Q 1428 -91 1123 -41 
Q 819 9 494 109 
L 494 744 
Q 775 591 1075 516 
Q 1375 441 1709 441 
Q 2250 441 2565 725 
Q 2881 1009 2881 1497 
Q 2881 1984 2565 2268 
Q 2250 2553 1709 2553 
Q 1456 2553 1204 2497 
Q 953 2441 691 2322 
L 691 4666 
z
" transform="scale(0.015625)"/>
       </defs>
       <use xlink:href="#DejaVuSans-35"/>
       <use xlink:href="#DejaVuSans-30" x="63.623047"/>
       <use xlink:href="#DejaVuSans-30" x="127.246094"/>
       <use xlink:href="#DejaVuSans-30" x="190.869141"/>
      </g>
     </g>
    </g>
    <g id="ytick_3">
     <g id="line2d_11">
      <g>
       <use xlink:href="#mb4406441c9" x="59.690625" y="223.911797" style="stroke: #000000; stroke-width: 0.8"/>
      </g>
     </g>
     <g id="text_12">
      <!-- 10000 -->
      <g transform="translate(20.878125 227.711016) scale(0.1 -0.1)">
       <use xlink:href="#DejaVuSans-31"/>
       <use xlink:href="#DejaVuSans-30" x="63.623047"/>
       <use xlink:href="#DejaVuSans-30" x="127.246094"/>
       <use xlink:href="#DejaVuSans-30" x="190.869141"/>
       <use xlink:href="#DejaVuSans-30" x="254.492188"/>
      </g>
     </g>
    </g>
    <g id="ytick_4">
     <g id="line2d_12">
      <g>
       <use xlink:href="#mb4406441c9" x="59.690625" y="165.18879" style="stroke: #000000; stroke-width: 0.8"/>
      </g>
     </g>
     <g id="text_13">
      <!-- 15000 -->
      <g transform="translate(20.878125 168.988008) scale(0.1 -0.1)">
       <use xlink:href="#DejaVuSans-31"/>
       <use xlink:href="#DejaVuSans-35" x="63.623047"/>
       <use xlink:href="#DejaVuSans-30" x="127.246094"/>
       <use xlink:href="#DejaVuSans-30" x="190.869141"/>
       <use xlink:href="#DejaVuSans-30" x="254.492188"/>
      </g>
     </g>
    </g>
    <g id="ytick_5">
     <g id="line2d_13">
      <g>
       <use xlink:href="#mb4406441c9" x="59.690625" y="106.465782" style="stroke: #000000; stroke-width: 0.8"/>
      </g>
     </g>
     <g id="text_14">
      <!-- 20000 -->
      <g transform="translate(20.878125 110.265001) scale(0.1 -0.1)">
       <use xlink:href="#DejaVuSans-32"/>
       <use xlink:href="#DejaVuSans-30" x="63.623047"/>
       <use xlink:href="#DejaVuSans-30" x="127.246094"/>
       <use xlink:href="#DejaVuSans-30" x="190.869141"/>
       <use xlink:href="#DejaVuSans-30" x="254.492188"/>
      </g>
     </g>
    </g>
    <g id="ytick_6">
     <g id="line2d_14">
      <g>
       <use xlink:href="#mb4406441c9" x="59.690625" y="47.742774" style="stroke: #000000; stroke-width: 0.8"/>
      </g>
     </g>
     <g id="text_15">
      <!-- 25000 -->
      <g transform="translate(20.878125 51.541993) scale(0.1 -0.1)">
       <use xlink:href="#DejaVuSans-32"/>
       <use xlink:href="#DejaVuSans-35" x="63.623047"/>
       <use xlink:href="#DejaVuSans-30" x="127.246094"/>
       <use xlink:href="#DejaVuSans-30" x="190.869141"/>
       <use xlink:href="#DejaVuSans-30" x="254.492188"/>
      </g>
     </g>
    </g>
    <g id="text_16">
     <!-- Ticket Redemptions -->
     <g transform="translate(14.798438 239.336719) rotate(-90) scale(0.1 -0.1)">
      <defs>
       <path id="DejaVuSans-54" d="M -19 4666 
L 3928 4666 
L 3928 4134 
L 2272 4134 
L 2272 0 
L 1638 0 
L 1638 4134 
L -19 4134 
L -19 4666 
z
" transform="scale(0.015625)"/>
       <path id="DejaVuSans-69" d="M 603 3500 
L 1178 3500 
L 1178 0 
L 603 0 
L 603 3500 
z
M 603 4863 
L 1178 4863 
L 1178 4134 
L 603 4134 
L 603 4863 
z
" transform="scale(0.015625)"/>
       <path id="DejaVuSans-63" d="M 3122 3366 
L 3122 2828 
Q 2878 2963 2633 3030 
Q 2388 3097 2138 3097 
Q 1578 3097 1268 2742 
Q 959 2388 959 1747 
Q 959 1106 1268 751 
Q 1578 397 2138 397 
Q 2388 397 2633 464 
Q 2878 531 3122 666 
L 3122 134 
Q 2881 22 2623 -34 
Q 2366 -91 2075 -91 
Q 1284 -91 818 406 
Q 353 903 353 1747 
Q 353 2603 823 3093 
Q 1294 3584 2113 3584 
Q 2378 3584 2631 3529 
Q 2884 3475 3122 3366 
z
" transform="scale(0.015625)"/>
       <path id="DejaVuSans-6b" d="M 581 4863 
L 1159 4863 
L 1159 1991 
L 2875 3500 
L 3609 3500 
L 1753 1863 
L 3688 0 
L 2938 0 
L 1159 1709 
L 1159 0 
L 581 0 
L 581 4863 
z
" transform="scale(0.015625)"/>
       <path id="DejaVuSans-20" transform="scale(0.015625)"/>
       <path id="DejaVuSans-52" d="M 2841 2188 
Q 3044 2119 3236 1894 
Q 3428 1669 3622 1275 
L 4263 0 
L 3584 0 
L 2988 1197 
Q 2756 1666 2539 1819 
Q 2322 1972 1947 1972 
L 1259 1972 
L 1259 0 
L 628 0 
L 628 4666 
L 2053 4666 
Q 2853 4666 3247 4331 
Q 3641 3997 3641 3322 
Q 3641 2881 3436 2590 
Q 3231 2300 2841 2188 
z
M 1259 4147 
L 1259 2491 
L 2053 2491 
Q 2509 2491 2742 2702 
Q 2975 2913 2975 3322 
Q 2975 3731 2742 3939 
Q 2509 4147 2053 4147 
L 1259 4147 
z
" transform="scale(0.015625)"/>
       <path id="DejaVuSans-64" d="M 2906 2969 
L 2906 4863 
L 3481 4863 
L 3481 0 
L 2906 0 
L 2906 525 
Q 2725 213 2448 61 
Q 2172 -91 1784 -91 
Q 1150 -91 751 415 
Q 353 922 353 1747 
Q 353 2572 751 3078 
Q 1150 3584 1784 3584 
Q 2172 3584 2448 3432 
Q 2725 3281 2906 2969 
z
M 947 1747 
Q 947 1113 1208 752 
Q 1469 391 1925 391 
Q 2381 391 2643 752 
Q 2906 1113 2906 1747 
Q 2906 2381 2643 2742 
Q 2381 3103 1925 3103 
Q 1469 3103 1208 2742 
Q 947 2381 947 1747 
z
" transform="scale(0.015625)"/>
       <path id="DejaVuSans-6d" d="M 3328 2828 
Q 3544 3216 3844 3400 
Q 4144 3584 4550 3584 
Q 5097 3584 5394 3201 
Q 5691 2819 5691 2113 
L 5691 0 
L 5113 0 
L 5113 2094 
Q 5113 2597 4934 2840 
Q 4756 3084 4391 3084 
Q 3944 3084 3684 2787 
Q 3425 2491 3425 1978 
L 3425 0 
L 2847 0 
L 2847 2094 
Q 2847 2600 2669 2842 
Q 2491 3084 2119 3084 
Q 1678 3084 1418 2786 
Q 1159 2488 1159 1978 
L 1159 0 
L 581 0 
L 581 3500 
L 1159 3500 
L 1159 2956 
Q 1356 3278 1631 3431 
Q 1906 3584 2284 3584 
Q 2666 3584 2933 3390 
Q 3200 3197 3328 2828 
z
" transform="scale(0.015625)"/>
       <path id="DejaVuSans-70" d="M 1159 525 
L 1159 -1331 
L 581 -1331 
L 581 3500 
L 1159 3500 
L 1159 2969 
Q 1341 3281 1617 3432 
Q 1894 3584 2278 3584 
Q 2916 3584 3314 3078 
Q 3713 2572 3713 1747 
Q 3713 922 3314 415 
Q 2916 -91 2278 -91 
Q 1894 -91 1617 61 
Q 1341 213 1159 525 
z
M 3116 1747 
Q 3116 2381 2855 2742 
Q 2594 3103 2138 3103 
Q 1681 3103 1420 2742 
Q 1159 2381 1159 1747 
Q 1159 1113 1420 752 
Q 1681 391 2138 391 
Q 2594 391 2855 752 
Q 3116 1113 3116 1747 
z
" transform="scale(0.015625)"/>
       <path id="DejaVuSans-6f" d="M 1959 3097 
Q 1497 3097 1228 2736 
Q 959 2375 959 1747 
Q 959 1119 1226 758 
Q 1494 397 1959 397 
Q 2419 397 2687 759 
Q 2956 1122 2956 1747 
Q 2956 2369 2687 2733 
Q 2419 3097 1959 3097 
z
M 1959 3584 
Q 2709 3584 3137 3096 
Q 3566 2609 3566 1747 
Q 3566 888 3137 398 
Q 2709 -91 1959 -91 
Q 1206 -91 779 398 
Q 353 888 353 1747 
Q 353 2609 779 3096 
Q 1206 3584 1959 3584 
z
" transform="scale(0.015625)"/>
       <path id="DejaVuSans-6e" d="M 3513 2113 
L 3513 0 
L 2938 0 
L 2938 2094 
Q 2938 2591 2744 2837 
Q 2550 3084 2163 3084 
Q 1697 3084 1428 2787 
Q 1159 2491 1159 1978 
L 1159 0 
L 581 0 
L 581 3500 
L 1159 3500 
L 1159 2956 
Q 1366 3272 1645 3428 
Q 1925 3584 2291 3584 
Q 2894 3584 3203 3211 
Q 3513 2838 3513 2113 
z
" transform="scale(0.015625)"/>
       <path id="DejaVuSans-73" d="M 2834 3397 
L 2834 2853 
Q 2591 2978 2328 3040 
Q 2066 3103 1784 3103 
Q 1356 3103 1142 2972 
Q 928 2841 928 2578 
Q 928 2378 1081 2264 
Q 1234 2150 1697 2047 
L 1894 2003 
Q 2506 1872 2764 1633 
Q 3022 1394 3022 966 
Q 3022 478 2636 193 
Q 2250 -91 1575 -91 
Q 1294 -91 989 -36 
Q 684 19 347 128 
L 347 722 
Q 666 556 975 473 
Q 1284 391 1588 391 
Q 1994 391 2212 530 
Q 2431 669 2431 922 
Q 2431 1156 2273 1281 
Q 2116 1406 1581 1522 
L 1381 1569 
Q 847 1681 609 1914 
Q 372 2147 372 2553 
Q 372 3047 722 3315 
Q 1072 3584 1716 3584 
Q 2034 3584 2315 3537 
Q 2597 3491 2834 3397 
z
" transform="scale(0.015625)"/>
      </defs>
      <use xlink:href="#DejaVuSans-54"/>
      <use xlink:href="#DejaVuSans-69" x="57.958984"/>
      <use xlink:href="#DejaVuSans-63" x="85.742188"/>
      <use xlink:href="#DejaVuSans-6b" x="140.722656"/>
      <use xlink:href="#DejaVuSans-65" x="195.007812"/>
      <use xlink:href="#DejaVuSans-74" x="256.53125"/>
      <use xlink:href="#DejaVuSans-20" x="295.740234"/>
      <use xlink:href="#DejaVuSans-52" x="327.527344"/>
      <use xlink:href="#DejaVuSans-65" x="392.509766"/>
      <use xlink:href="#DejaVuSans-64" x="454.033203"/>
      <use xlink:href="#DejaVuSans-65" x="517.509766"/>
      <use xlink:href="#DejaVuSans-6d" x="579.033203"/>
      <use xlink:href="#DejaVuSans-70" x="676.445312"/>
      <use xlink:href="#DejaVuSans-74" x="739.921875"/>
      <use xlink:href="#DejaVuSans-69" x="779.130859"/>
      <use xlink:href="#DejaVuSans-6f" x="806.914062"/>
      <use xlink:href="#DejaVuSans-6e" x="868.095703"/>
      <use xlink:href="#DejaVuSans-73" x="931.474609"/>
     </g>
    </g>
   </g>
   <g id="line2d_15">
    <path d="M 110.417898 338.867957 
L 110.765941 111.328047 
L 111.113984 174.748895 
L 111.462027 265.017903 
L 111.81007 215.338238 
L 112.158113 224.228902 
L 112.506156 226.354674 
L 112.854199 211.532987 
L 113.202242 152.469386 
L 113.550285 189.781985 
L 113.898328 60.332987 
L 114.246371 213.095019 
L 114.594414 188.584036 
L 114.942457 202.724536 
L 115.2905 258.088588 
L 115.638543 90.774994 
L 115.986586 113.195439 
L 116.334629 220.047823 
L 116.682672 214.692285 
L 117.030715 213.905397 
L 117.378758 228.128109 
L 118.074845 281.789194 
L 118.422888 136.766854 
L 118.770931 215.13858 
L 119.118974 322.531216 
L 119.467017 216.219083 
L 120.163103 190.709809 
L 120.511146 127.934914 
L 121.207232 225.403362 
L 121.555275 233.636327 
L 121.903318 212.460811 
L 122.251361 247.213087 
L 122.947447 129.414733 
L 123.29549 186.282094 
L 123.643533 210.640398 
L 124.339619 235.362784 
L 125.035705 211.697412 
L 125.383748 120.688494 
L 125.731791 97.903968 
L 126.079834 109.77776 
L 126.427877 279.09968 
L 126.77592 308.285015 
L 127.123964 316.294833 
L 127.472007 283.985434 
L 127.82005 310.140662 
L 128.168093 191.813801 
L 128.516136 296.599136 
L 128.864179 297.632661 
L 129.212222 317.586739 
L 129.908308 290.022159 
L 130.256351 316.694149 
L 130.604394 229.102911 
L 130.952437 303.575429 
L 131.30048 300.18124 
L 131.648523 299.229927 
L 131.996566 301.919441 
L 132.344609 322.390281 
L 132.692652 252.909218 
L 133.040695 265.276284 
L 133.388738 331.586304 
L 133.736781 301.179531 
L 134.432867 333.7708 
L 134.78091 321.215821 
L 135.128953 328.051179 
L 135.476996 319.970893 
L 135.825039 322.237601 
L 136.173083 316.424023 
L 136.521126 313.323449 
L 136.869169 311.961075 
L 137.217212 295.683057 
L 137.565255 291.384533 
L 137.913298 298.818866 
L 138.261341 298.219891 
L 138.609384 325.52609 
L 138.957427 318.244437 
L 139.30547 328.051179 
L 139.653513 323.047979 
L 140.001556 295.283741 
L 140.349599 332.232257 
L 140.697642 335.649936 
L 141.045685 325.937151 
L 141.393728 319.524598 
L 141.741771 337.258947 
L 142.089814 335.520746 
L 142.437857 322.296324 
L 142.7859 318.502818 
L 143.133943 331.70375 
L 143.481986 329.448787 
L 143.830029 330.975585 
L 144.178072 338.49213 
L 144.526115 326.054597 
L 144.874158 324.116737 
L 145.222201 334.264073 
L 145.570245 327.358247 
L 146.266331 334.087904 
L 146.614374 333.817778 
L 146.962417 329.624956 
L 147.31046 317.081721 
L 147.658503 319.277962 
L 148.354589 334.980494 
L 149.050675 332.1383 
L 149.398718 333.113102 
L 149.746761 325.06805 
L 150.094804 323.376828 
L 150.442847 331.39839 
L 150.79089 334.111393 
L 151.138933 335.344577 
L 151.486976 333.347994 
L 151.835019 324.375119 
L 152.183062 337.223713 
L 152.531105 337.01231 
L 152.879148 337.552562 
L 153.227191 336.166699 
L 153.575234 335.602958 
L 153.923277 337.799198 
L 154.27132 337.129756 
L 154.619363 331.692005 
L 154.967407 334.334541 
L 155.31545 337.951878 
L 155.663493 336.765673 
L 156.011536 337.399882 
L 156.359579 337.388137 
L 156.707622 336.201932 
L 157.055665 331.11652 
L 157.403708 335.943551 
L 158.099794 337.118011 
L 158.447837 336.213677 
L 158.79588 337.963623 
L 159.143923 337.576051 
L 159.491966 337.928389 
L 159.840009 337.9049 
L 160.188052 337.211968 
L 160.536095 338.045835 
L 160.884138 338.210259 
L 161.232181 338.997148 
L 161.580224 336.988821 
L 162.27631 336.260655 
L 162.624353 334.94526 
L 162.972396 337.094522 
L 163.320439 336.542526 
L 163.668482 334.992238 
L 164.016526 336.072742 
L 164.364569 334.921771 
L 164.712612 334.898282 
L 165.060655 337.388137 
L 165.408698 335.68517 
L 165.756741 334.780836 
L 166.104784 335.215386 
L 166.452827 332.690297 
L 166.80087 335.133174 
L 167.148913 331.351412 
L 167.496956 334.134883 
L 167.844999 338.539108 
L 168.193042 337.493839 
L 168.541085 338.104558 
L 168.889128 336.213677 
L 169.237171 336.448569 
L 169.585214 337.247202 
L 169.933257 337.552562 
L 170.2813 338.292472 
L 170.629343 334.863048 
L 170.977386 337.399882 
L 171.325429 337.681752 
L 171.673472 335.779127 
L 172.021515 335.473767 
L 172.369558 335.943551 
L 172.717601 339.032381 
L 173.065644 338.914935 
L 173.413688 338.315961 
L 173.761731 336.70695 
L 174.109774 340.735349 
L 174.457817 338.081069 
L 174.80586 337.963623 
L 175.153903 336.965332 
L 175.501946 337.928389 
L 175.849989 336.389846 
L 176.198032 337.611285 
L 176.546075 337.423371 
L 177.242161 336.460314 
L 177.590204 337.822687 
L 177.938247 337.740475 
L 178.28629 337.094522 
L 178.634333 338.691788 
L 178.982376 336.131465 
L 179.330419 336.930098 
L 179.678462 336.742184 
L 180.026505 339.607867 
L 180.374548 335.544235 
L 180.722591 336.847886 
L 181.070634 336.718695 
L 181.418677 334.710368 
L 181.76672 339.067615 
L 182.114763 337.141501 
L 182.462807 336.084486 
L 182.81085 336.037508 
L 183.158893 335.673425 
L 183.506936 334.557688 
L 183.854979 320.863483 
L 184.203022 317.880354 
L 184.551065 325.608302 
L 184.899108 336.295889 
L 185.247151 335.767382 
L 185.595194 329.108193 
L 185.943237 335.908317 
L 186.29128 335.203641 
L 186.639323 335.37981 
L 186.987366 333.359739 
L 187.335409 338.33945 
L 187.683452 335.133174 
L 188.031495 335.285854 
L 188.379538 335.955296 
L 188.727581 334.933515 
L 189.075624 336.659972 
L 189.423667 336.190188 
L 189.77171 337.505583 
L 190.119753 334.910026 
L 190.467796 333.794289 
L 190.815839 337.071033 
L 191.163882 336.201932 
L 191.511925 335.814361 
L 191.859969 337.388137 
L 192.208012 338.433407 
L 192.556055 337.893155 
L 193.252141 332.678552 
L 193.600184 336.472058 
L 193.948227 331.891664 
L 194.29627 336.530781 
L 194.644313 329.777635 
L 194.992356 336.601249 
L 195.340399 332.549361 
L 195.688442 335.473767 
L 196.036485 335.53249 
L 196.384528 337.670008 
L 196.732571 336.460314 
L 197.080614 333.03089 
L 197.428657 333.33625 
L 197.7767 336.025763 
L 198.124743 337.305925 
L 198.472786 329.836358 
L 198.820829 316.940786 
L 199.168872 335.743893 
L 199.516915 337.987112 
L 199.864958 332.713786 
L 200.213001 338.045835 
L 200.561044 334.557688 
L 200.909087 312.700985 
L 201.257131 314.897225 
L 201.605174 325.126773 
L 201.953217 330.822905 
L 202.30126 332.936933 
L 202.649303 326.594848 
L 202.997346 277.267522 
L 203.345389 317.10521 
L 203.693432 293.204946 
L 204.389518 327.781053 
L 204.737561 334.275818 
L 205.085604 337.094522 
L 205.433647 330.000783 
L 205.78169 308.085356 
L 206.129733 294.87268 
L 206.477776 323.259382 
L 206.825819 338.057579 
L 207.173862 324.457331 
L 207.869948 311.20942 
L 208.217991 297.773596 
L 208.566034 334.369775 
L 208.914077 337.247202 
L 209.26212 334.252329 
L 209.610163 308.70782 
L 209.958206 335.074451 
L 210.30625 339.302507 
L 210.654293 339.643101 
L 211.002336 338.938425 
L 211.350379 334.099649 
L 211.698422 335.062706 
L 212.046465 334.264073 
L 212.394508 335.227131 
L 212.742551 337.200224 
L 213.090594 336.624738 
L 213.438637 337.047544 
L 213.78668 336.542526 
L 214.134723 336.495547 
L 214.482766 336.765673 
L 214.830809 336.847886 
L 215.178852 336.671716 
L 215.526895 337.106267 
L 215.874938 338.691788 
L 216.222981 339.114594 
L 216.571024 337.305925 
L 216.919067 336.894864 
L 217.26711 337.423371 
L 217.615153 336.765673 
L 217.963196 337.223713 
L 218.311239 339.384719 
L 218.659282 337.728731 
L 219.007325 337.846177 
L 219.355368 338.398173 
L 219.703412 337.282436 
L 220.051455 336.918353 
L 220.399498 337.705241 
L 220.747541 338.797489 
L 221.095584 337.987112 
L 221.443627 338.233748 
L 221.79167 337.493839 
L 222.139713 337.857921 
L 222.487756 339.279018 
L 222.835799 339.07936 
L 223.183842 338.433407 
L 223.531885 338.33945 
L 223.879928 338.022346 
L 224.227971 337.940133 
L 224.576014 338.609576 
L 224.924057 337.364648 
L 225.2721 337.035799 
L 225.620143 337.728731 
L 225.968186 337.670008 
L 226.316229 337.846177 
L 226.664272 337.576051 
L 227.012315 337.082778 
L 227.360358 337.799198 
L 227.708401 335.931807 
L 228.056444 338.292472 
L 228.404487 338.844468 
L 228.752531 338.832723 
L 229.100574 338.092813 
L 229.448617 338.550853 
L 229.79666 337.364648 
L 230.144703 336.883119 
L 230.492746 337.305925 
L 230.840789 336.812652 
L 231.188832 335.99053 
L 231.536875 335.602958 
L 231.884918 334.757346 
L 232.232961 335.68517 
L 232.581004 333.488929 
L 232.929047 336.495547 
L 233.27709 336.965332 
L 233.625133 333.841268 
L 233.973176 336.284145 
L 234.321219 337.01231 
L 234.669262 335.755638 
L 235.017305 331.327923 
L 235.365348 336.495547 
L 235.713391 335.83785 
L 236.061434 333.33625 
L 236.75752 335.555979 
L 237.105563 331.163498 
L 237.453606 334.604667 
L 237.801649 336.671716 
L 238.149693 335.567724 
L 238.497736 333.171825 
L 238.845779 334.94526 
L 239.193822 335.391555 
L 239.541865 331.668516 
L 239.889908 331.069542 
L 240.237951 328.650154 
L 240.585994 271.818027 
L 240.934037 256.585279 
L 241.28208 260.6724 
L 241.630123 268.353369 
L 241.978166 304.550231 
L 242.326209 232.297443 
L 242.674252 134.723293 
L 243.022295 265.593388 
L 243.370338 229.466994 
L 243.718381 230.841112 
L 244.066424 233.777263 
L 244.414467 287.825919 
L 245.110553 133.865937 
L 245.458596 236.584222 
L 245.806639 271.019394 
L 246.154682 226.765735 
L 246.502725 285.817592 
L 246.850768 256.467833 
L 247.546855 119.561013 
L 247.894898 237.042262 
L 248.242941 312.301668 
L 248.590984 246.297008 
L 248.939027 266.685636 
L 249.28707 234.317514 
L 249.635113 172.916737 
L 249.983156 181.619487 
L 250.331199 254.330315 
L 250.679242 254.271592 
L 251.027285 242.632692 
L 251.375328 266.732614 
L 251.723371 250.219705 
L 252.071414 185.671375 
L 252.419457 220.411906 
L 252.7675 153.902228 
L 253.115543 319.219239 
L 253.463586 311.643971 
L 253.811629 324.081504 
L 254.159672 312.677496 
L 254.507715 259.591897 
L 254.855758 226.847948 
L 255.203801 310.457766 
L 255.551844 298.807121 
L 255.899887 314.380463 
L 256.595974 294.485108 
L 256.944017 187.609234 
L 257.29206 198.508224 
L 257.640103 311.831884 
L 257.988146 312.289924 
L 258.336189 304.973037 
L 258.684232 303.258325 
L 259.032275 294.661277 
L 259.380318 180.515495 
L 259.728361 190.68632 
L 260.076404 292.006997 
L 260.424447 295.506888 
L 261.468576 331.140009 
L 261.816619 285.841081 
L 262.164662 275.482343 
L 262.512705 315.507945 
L 262.860748 307.134044 
L 263.208791 327.146845 
L 263.556834 308.696076 
L 263.904877 315.413988 
L 264.25292 295.178039 
L 264.600963 268.376859 
L 264.949006 301.872462 
L 265.297049 311.221165 
L 265.645092 332.020854 
L 265.993136 328.203859 
L 266.341179 322.120155 
L 266.689222 320.922206 
L 267.037265 328.967258 
L 267.385308 325.925406 
L 267.733351 321.685605 
L 268.081394 320.100084 
L 268.429437 317.939077 
L 268.77748 312.372136 
L 269.125523 292.817374 
L 269.473566 290.163094 
L 269.821609 327.792798 
L 270.169652 328.979002 
L 270.517695 328.650154 
L 270.865738 325.831449 
L 271.213781 325.150262 
L 271.561824 334.545944 
L 271.909867 326.089831 
L 272.25791 330.317887 
L 272.605953 327.099866 
L 272.953996 332.655063 
L 273.302039 333.864757 
L 273.650082 325.678769 
L 273.998125 329.143427 
L 274.346168 337.482094 
L 274.694211 331.562815 
L 275.042255 331.692005 
L 275.390298 327.510927 
L 275.738341 333.806034 
L 276.086384 333.829523 
L 276.434427 332.044343 
L 276.78247 333.629865 
L 277.130513 333.524163 
L 277.478556 332.760764 
L 277.826599 334.017437 
L 278.174642 332.302725 
L 278.522685 329.472276 
L 278.870728 336.201932 
L 279.218771 333.841268 
L 279.914857 332.525872 
L 280.2629 333.500674 
L 280.610943 333.394973 
L 280.958986 329.307851 
L 281.307029 330.541034 
L 281.655072 335.344577 
L 282.351158 329.906826 
L 282.699201 333.911735 
L 283.047244 334.804325 
L 283.395287 334.51071 
L 283.74333 330.576268 
L 284.091373 333.265782 
L 284.439417 334.66339 
L 284.78746 334.921771 
L 285.135503 333.888246 
L 285.483546 332.361448 
L 286.179632 335.509001 
L 286.875718 335.4033 
L 287.223761 336.014019 
L 287.571804 332.091322 
L 287.919847 334.898282 
L 288.26789 334.874792 
L 288.615933 335.732148 
L 288.963976 335.896573 
L 289.312019 335.415044 
L 289.660062 333.477185 
L 290.008105 333.254037 
L 290.356148 332.795998 
L 290.704191 335.344577 
L 291.052234 336.448569 
L 291.400277 335.074451 
L 291.74832 335.978785 
L 292.096363 337.200224 
L 292.444406 335.732148 
L 292.792449 335.544235 
L 293.140492 336.107976 
L 293.488535 334.980494 
L 294.184622 337.258947 
L 294.532665 340.888028 
L 294.880708 341.357812 
L 295.924837 341.357812 
L 296.27288 336.542526 
L 296.968966 334.94526 
L 297.317009 334.79258 
L 297.665052 334.968749 
L 298.013095 336.213677 
L 298.361138 336.107976 
L 298.709181 336.366357 
L 299.057224 336.436824 
L 299.405267 335.344577 
L 299.75331 335.297598 
L 300.101353 334.94526 
L 300.449396 334.933515 
L 300.797439 333.148336 
L 301.145482 335.567724 
L 301.493525 336.11972 
L 301.841568 334.94526 
L 302.189611 334.804325 
L 302.537654 334.804325 
L 302.885698 334.029181 
L 303.233741 335.931807 
L 303.581784 334.322796 
L 303.929827 335.873084 
L 304.27787 335.708659 
L 304.625913 335.708659 
L 304.973956 335.227131 
L 305.321999 335.215386 
L 305.670042 341.193388 
L 306.366128 335.344577 
L 306.714171 334.933515 
L 307.062214 336.166699 
L 307.410257 335.309343 
L 308.106343 336.977076 
L 308.454386 336.988821 
L 308.802429 334.416753 
L 309.150472 334.628156 
L 309.498515 333.430206 
L 309.846558 334.604667 
L 310.194601 333.676843 
L 310.542644 335.68517 
L 310.890687 330.752437 
L 311.23873 337.176734 
L 311.586773 335.238875 
L 311.934816 334.628156 
L 312.28286 333.430206 
L 312.630903 334.240584 
L 312.978946 332.995656 
L 313.326989 333.289271 
L 313.675032 332.326214 
L 314.023075 330.96384 
L 314.371118 334.040926 
L 314.719161 335.203641 
L 315.067204 334.475476 
L 315.415247 329.977294 
L 316.111333 333.794289 
L 316.459376 334.592922 
L 316.807419 334.957005 
L 317.155462 333.46544 
L 317.503505 334.040926 
L 318.199591 332.431915 
L 318.547634 335.215386 
L 318.895677 332.584595 
L 319.24372 333.876501 
L 319.591763 333.136591 
L 319.939806 333.993947 
L 320.287849 329.777635 
L 320.635892 330.658481 
L 320.983935 333.383228 
L 321.331979 333.864757 
L 321.680022 332.572851 
L 322.028065 333.441951 
L 322.376108 331.821196 
L 322.724151 328.89679 
L 323.072194 331.128265 
L 323.420237 330.705459 
L 323.76828 335.285854 
L 324.116323 330.494056 
L 324.464366 335.274109 
L 324.812409 324.187205 
L 325.160452 325.279453 
L 325.508495 327.005909 
L 325.856538 327.828032 
L 326.204581 334.957005 
L 326.552624 335.555979 
L 326.900667 332.572851 
L 327.24871 334.66339 
L 327.596753 332.514128 
L 327.944796 333.759055 
L 328.292839 332.1383 
L 329.336968 334.05267 
L 329.685011 332.784253 
L 330.033054 337.822687 
L 330.381097 339.784036 
L 331.425227 331.128265 
L 331.77327 332.831232 
L 332.121313 326.559615 
L 332.469356 315.719347 
L 332.817399 311.620481 
L 333.861528 332.619829 
L 334.209571 319.947404 
L 334.557614 317.821631 
L 334.905657 328.262582 
L 335.2537 316.576703 
L 335.949786 303.70462 
L 336.297829 311.878863 
L 336.645872 327.428715 
L 336.993915 327.851521 
L 337.341958 261.318353 
L 337.690001 312.630517 
L 338.038044 312.301668 
L 338.386087 308.226292 
L 338.73413 312.184222 
L 339.082173 321.356756 
L 339.430216 316.377045 
L 339.778259 309.588665 
L 340.126303 255.08197 
L 340.822389 326.277744 
L 341.170432 295.812248 
L 341.866518 306.51158 
L 342.214561 325.103284 
L 342.562604 159.398701 
L 342.910647 162.651956 
L 343.25869 323.975802 
L 343.606733 294.87268 
L 343.954776 293.451583 
L 344.302819 274.131713 
L 344.650862 237.512046 
L 344.998905 215.385217 
L 345.346948 275.40013 
L 345.694991 289.963436 
L 346.043034 292.558993 
L 346.391077 310.03496 
L 346.73912 284.983725 
L 347.087163 206.858636 
L 347.435206 304.949548 
L 348.131292 310.422532 
L 348.479335 303.70462 
L 348.827378 289.41144 
L 349.175422 257.12553 
L 349.523465 209.031387 
L 349.871508 180.19839 
L 350.219551 273.50925 
L 350.567594 278.406748 
L 350.915637 314.45093 
L 351.26368 270.890203 
L 351.611723 249.280137 
L 351.959766 88.649222 
L 352.307809 110.21231 
L 352.655852 299.828902 
L 353.003895 262.070008 
L 353.351938 264.994413 
L 353.699981 253.684362 
L 354.048024 232.309187 
L 354.396067 304.092192 
L 354.74411 321.345012 
L 355.092153 222.596402 
L 355.440196 250.889147 
L 355.788239 322.56645 
L 356.136282 240.142837 
L 356.484325 213.435613 
L 357.180411 38.957812 
L 357.528454 174.478769 
L 357.876497 239.684797 
L 358.22454 220.552841 
L 358.572584 265.217561 
L 358.920627 199.694429 
L 359.26867 101.439093 
L 359.616713 91.373969 
L 359.964756 235.398018 
L 360.312799 238.028808 
L 361.356928 219.906888 
L 361.704971 118.586211 
L 362.053014 87.885822 
L 362.401057 277.92522 
L 363.097143 166.504185 
L 363.445186 194.702973 
L 363.793229 163.039528 
L 364.141272 90.281721 
L 364.489315 306.311922 
L 364.837358 241.5287 
L 365.185401 266.955762 
L 365.533444 227.329476 
L 365.881487 247.048662 
L 366.22953 198.602181 
L 366.577573 107.722454 
L 366.925616 111.198856 
L 367.273659 199.729663 
L 367.621702 236.114438 
L 367.969746 258.593606 
L 368.317789 201.86718 
L 368.665832 196.311984 
L 369.013875 103.012869 
L 369.361918 66.545881 
L 370.058004 247.483213 
L 370.406047 309.670878 
L 370.75409 209.125344 
L 371.102133 182.371142 
L 371.450176 68.178381 
L 371.798219 117.106391 
L 372.146262 228.985465 
L 372.494305 219.448849 
L 372.842348 204.36878 
L 373.538434 295.436421 
L 373.886477 107.745944 
L 374.23452 100.02974 
L 374.930606 328.579686 
L 375.278649 239.61433 
L 375.626692 188.865906 
L 375.974735 190.22828 
L 376.322778 239.391182 
L 376.670821 147.430952 
L 377.018865 285.453509 
L 377.366908 227.717048 
L 377.714951 280.473798 
L 378.062994 212.378599 
L 378.411037 203.311766 
L 378.75908 95.085263 
L 379.107123 153.726059 
L 379.455166 171.436918 
L 379.803209 297.233345 
L 380.151252 291.525468 
L 380.499295 309.659133 
L 380.847338 291.76036 
L 381.195381 235.433251 
L 381.543424 275.094771 
L 381.891467 332.126556 
L 382.23951 310.868827 
L 382.587553 300.075538 
L 382.935596 297.256834 
L 383.283639 283.703564 
L 383.631682 184.132832 
L 383.979725 189.112543 
L 384.327768 297.174622 
L 384.675811 293.639497 
L 385.023854 300.451365 
L 385.371897 317.633717 
L 385.71994 305.994817 
L 386.067983 261.095206 
L 386.416027 250.20796 
L 386.76407 317.081721 
L 387.112113 327.346503 
L 387.460156 310.481255 
L 387.808199 306.887407 
L 388.156242 298.666186 
L 388.504285 270.620078 
L 388.852328 307.615572 
L 389.200371 325.690514 
L 389.548414 330.364865 
L 389.896457 313.969402 
L 390.2445 308.472928 
L 390.592543 315.919006 
L 390.940586 319.01958 
L 391.636672 310.727892 
L 391.984715 295.483399 
L 392.332758 289.928202 
L 392.680801 315.789815 
L 393.028844 318.831667 
L 393.376887 315.895516 
L 393.72493 303.775088 
L 394.072973 327.910244 
L 394.421016 319.736001 
L 394.769059 325.37341 
L 395.117102 323.329849 
L 395.465146 313.14728 
L 395.813189 315.965984 
L 396.161232 325.115029 
L 396.509275 322.848321 
L 396.857318 327.240801 
L 397.205361 323.599975 
L 397.553404 323.717421 
L 397.901447 326.418679 
L 398.24949 330.599758 
L 398.597533 332.619829 
L 398.945576 330.952096 
L 399.293619 319.888681 
L 399.641662 327.769309 
L 399.989705 332.795998 
L 400.337748 331.692005 
L 400.685791 327.651863 
L 401.033834 318.855156 
L 401.381877 331.304434 
L 401.72992 330.787671 
L 402.426006 329.014236 
L 402.774049 331.527581 
L 403.122092 330.482311 
L 403.818178 329.260873 
L 404.166221 331.257455 
L 404.514264 330.212186 
L 404.862308 328.145136 
L 405.210351 334.534199 
L 405.558394 332.572851 
L 405.906437 333.254037 
L 406.25448 330.000783 
L 406.602523 330.822905 
L 406.950566 330.846394 
L 407.298609 331.762473 
L 407.646652 329.953804 
L 407.994695 337.211968 
L 408.342738 333.136591 
L 408.690781 333.46544 
L 409.038824 332.59634 
L 409.386867 331.2692 
L 409.73491 332.373192 
L 410.082953 331.809451 
L 410.430996 332.819487 
L 410.779039 334.769091 
L 411.127082 332.608084 
L 411.475125 332.056088 
L 411.823168 330.670225 
L 412.519254 334.851303 
L 412.867297 334.968749 
L 413.21534 332.819487 
L 413.563383 332.995656 
L 413.911426 332.842976 
L 414.25947 329.225639 
L 414.607513 331.374901 
L 415.303599 334.240584 
L 415.651642 334.07616 
L 416.695771 329.895081 
L 417.043814 330.541034 
L 417.391857 331.656772 
L 417.7399 333.61812 
L 418.087943 334.745602 
L 418.435986 333.794289 
L 418.784029 333.500674 
L 419.132072 334.287562 
L 419.480115 333.653354 
L 419.828158 332.502383 
L 420.176201 330.37661 
L 420.872287 334.416753 
L 421.22033 332.995656 
L 421.568373 334.134883 
L 421.916416 334.545944 
L 422.264459 329.50751 
L 422.960545 334.757346 
L 423.308589 334.134883 
L 423.656632 332.126556 
L 424.004675 332.690297 
L 424.352718 332.819487 
L 424.700761 332.760764 
L 425.048804 336.178443 
L 425.396847 336.507292 
L 425.74489 332.795998 
L 426.092933 332.983912 
L 426.440976 332.478894 
L 426.789019 335.509001 
L 427.137062 332.384937 
L 427.485105 337.153245 
L 427.833148 338.116302 
L 428.181191 337.176734 
L 428.529234 332.995656 
L 428.877277 333.559397 
L 429.22532 332.150045 
L 429.573363 331.715495 
L 430.269449 337.352903 
L 430.617492 334.322796 
L 430.965535 337.094522 
L 431.313578 332.467149 
L 431.661621 334.111393 
L 432.009664 332.866466 
L 432.357707 334.757346 
L 432.705751 335.4033 
L 433.053794 332.490638 
L 433.401837 334.123138 
L 433.74988 337.129756 
L 434.097923 332.995656 
L 434.445966 331.938642 
L 434.794009 335.074451 
L 435.142052 336.049253 
L 435.490095 332.631574 
L 435.838138 340.700115 
L 436.186181 337.9049 
L 436.534224 332.467149 
L 436.882267 335.168407 
L 437.23031 334.134883 
L 437.578353 336.612993 
L 437.926396 334.745602 
L 438.274439 332.00911 
L 438.622482 332.608084 
L 438.970525 332.408426 
L 439.318568 331.457113 
L 439.666611 333.359739 
L 440.014654 339.07936 
L 440.362697 334.287562 
L 440.71074 333.113102 
L 441.058783 334.851303 
L 441.75487 330.270909 
L 442.102913 336.671716 
L 442.798999 333.066124 
L 443.147042 333.606375 
L 443.495085 331.386646 
L 443.843128 332.59634 
L 444.191171 332.173534 
L 444.539214 331.527581 
L 444.887257 337.44686 
L 445.583343 333.782545 
L 445.931386 335.873084 
L 446.279429 335.215386 
L 446.627472 333.535908 
L 446.975515 334.111393 
L 447.323558 333.864757 
L 447.671601 334.416753 
L 448.019644 329.390064 
L 448.367687 330.306142 
L 448.71573 329.378319 
L 449.063773 331.821196 
L 449.411816 328.814578 
L 449.759859 330.81116 
L 450.455945 329.812869 
L 450.803988 328.133391 
L 451.152032 331.926897 
L 451.500075 324.48082 
L 451.848118 337.540817 
L 452.196161 336.612993 
L 452.544204 330.693714 
L 452.892247 330.740693 
L 453.24029 329.765891 
L 453.588333 329.331341 
L 453.936376 332.44366 
L 454.284419 321.204076 
L 454.632462 328.849812 
L 454.980505 325.596557 
L 455.328548 329.190405 
L 455.676591 327.781053 
L 456.024634 331.926897 
L 456.372677 328.791089 
L 456.72072 305.748181 
L 457.068763 338.374684 
L 457.416806 327.264291 
L 457.764849 328.18037 
L 458.112892 317.927332 
L 458.460935 323.423806 
L 458.808978 334.921771 
L 459.157021 315.21433 
L 459.505064 271.641858 
L 460.20115 328.885046 
L 460.549194 318.420606 
L 460.897237 315.507945 
L 461.24528 330.96384 
L 461.941366 312.078521 
L 462.289409 329.284362 
L 462.637452 321.591648 
L 462.985495 329.765891 
L 463.681581 321.861774 
L 464.029624 317.880354 
L 464.377667 277.948709 
L 464.72571 319.17226 
L 465.073753 324.774435 
L 465.421796 321.345012 
L 465.769839 330.893373 
L 466.117882 320.440677 
L 466.465925 295.483399 
L 466.813968 331.280944 
L 467.162011 333.18357 
L 467.858097 318.89039 
L 468.20614 317.868609 
L 468.554183 305.207929 
L 468.902226 281.213708 
L 469.250269 187.797148 
L 469.598313 274.836389 
L 469.946356 305.207929 
L 470.294399 323.494274 
L 470.642442 319.266217 
L 470.990485 300.075538 
L 471.338528 326.136809 
L 471.686571 237.570769 
L 472.034614 298.654441 
L 472.382657 329.613211 
L 472.7307 322.601684 
L 473.078743 317.84512 
L 473.426786 300.557067 
L 473.774829 301.755016 
L 474.122872 286.428311 
L 474.470915 310.751381 
L 475.167001 330.165207 
L 475.515044 295.74178 
L 475.863087 277.067864 
L 476.21113 209.313258 
L 476.559173 247.436234 
L 476.907216 332.314469 
L 477.255259 289.188293 
L 477.603302 288.260469 
L 477.951345 331.39839 
L 478.995475 205.214392 
L 479.343518 308.883989 
L 479.691561 282.329445 
L 480.039604 284.502197 
L 480.387647 319.078303 
L 481.083733 194.327146 
L 481.431776 223.759117 
L 481.779819 300.510088 
L 482.127862 280.802647 
L 482.475905 279.334572 
L 482.823948 265.381985 
L 483.171991 284.25556 
L 483.868077 95.602026 
L 484.21612 136.625919 
L 484.564163 295.283741 
L 484.912206 244.805443 
L 485.260249 237.958341 
L 485.608292 243.748429 
L 485.956335 209.900488 
L 486.304378 158.09505 
L 486.652421 251.5351 
L 487.000464 256.890638 
L 487.348507 249.010011 
L 487.69655 299.335628 
L 488.044594 231.463576 
L 488.392637 125.597738 
L 488.74068 97.786522 
L 489.088723 241.65789 
L 489.436766 269.175492 
L 489.784809 314.932459 
L 490.132852 244.276936 
L 490.480895 276.692037 
L 491.176981 171.495641 
L 491.525024 259.368749 
L 491.873067 230.711922 
L 492.22111 223.301078 
L 492.569153 235.926525 
L 492.917196 220.811222 
L 493.265239 123.46022 
L 493.961325 243.630983 
L 494.309368 294.931403 
L 494.657411 211.098437 
L 495.005454 212.026261 
L 495.353497 217.886817 
L 495.70154 140.818742 
L 496.049583 89.00156 
L 496.397626 116.941967 
L 496.745669 305.020015 
L 497.093712 244.089023 
L 497.441756 271.453944 
L 498.137842 128.216784 
L 498.485885 152.140537 
L 498.833928 264.489396 
L 499.181971 231.968594 
L 499.530014 220.235737 
L 499.878057 234.387982 
L 500.2261 222.279298 
L 500.574143 258.534883 
L 500.922186 202.243007 
L 501.270229 228.879764 
L 501.618272 209.207556 
L 501.966315 258.687562 
L 502.314358 208.773006 
L 502.662401 219.484083 
L 503.010444 138.716458 
L 503.358487 139.303688 
L 504.054573 320.851738 
L 504.402616 206.682467 
L 504.750659 222.373254 
L 505.098702 214.739263 
L 505.446745 126.302414 
L 505.794788 239.144545 
L 506.142831 192.365798 
L 506.490874 307.016598 
L 506.838918 313.288215 
L 507.186961 301.931185 
L 507.535004 313.804977 
L 507.883047 251.323697 
L 508.23109 243.584005 
L 508.579133 308.8605 
L 508.927176 311.197676 
L 509.275219 292.2184 
L 509.623262 314.110337 
L 509.971305 315.554923 
L 510.319348 238.933143 
L 510.667391 316.118664 
L 511.015434 315.731092 
L 511.363477 300.756725 
L 511.71152 301.778505 
L 512.059563 299.065502 
L 512.407606 290.844281 
L 512.755649 196.441174 
L 513.103692 226.061059 
L 513.451735 314.356974 
L 513.799778 307.462893 
L 514.147821 307.744763 
L 514.495864 314.415697 
L 514.843907 299.453074 
L 515.19195 311.338611 
L 515.539993 278.230579 
L 515.888037 318.632009 
L 516.23608 309.835302 
L 516.584123 329.883337 
L 516.932166 325.103284 
L 517.280209 309.471219 
L 517.628252 305.853882 
L 517.976295 319.266217 
L 518.324338 319.090048 
L 518.672381 313.981146 
L 519.020424 313.018089 
L 519.368467 314.60361 
L 519.71651 307.09881 
L 520.064553 310.434277 
L 520.412596 285.629678 
L 521.456725 330.987329 
L 521.804768 326.618338 
L 522.500854 306.51158 
L 522.848897 302.025142 
L 523.19694 321.955731 
L 523.544983 331.140009 
L 523.893026 322.190623 
L 524.241069 321.321522 
L 524.589112 324.363374 
L 524.937155 316.588448 
L 525.285199 333.958714 
L 525.633242 320.734292 
L 525.981285 325.631791 
L 526.329328 332.854721 
L 526.677371 331.915153 
L 527.025414 328.791089 
L 527.373457 332.326214 
L 527.7215 326.477402 
L 528.069543 329.989038 
L 528.417586 328.473985 
L 529.113672 331.750728 
L 529.461715 327.898499 
L 529.809758 331.386646 
L 530.157801 331.128265 
L 530.505844 334.381519 
L 530.853887 332.349703 
L 531.20193 332.514128 
L 531.549973 331.656772 
L 531.898016 331.85643 
L 532.246059 335.168407 
L 532.594102 333.019145 
L 532.942145 333.077868 
L 533.290188 331.926897 
L 533.638231 331.785962 
L 533.986274 332.197023 
L 534.334317 332.913444 
L 534.682361 330.482311 
L 535.030404 333.113102 
L 535.378447 334.686879 
L 535.72649 329.084704 
L 536.074533 332.314469 
L 536.422576 329.777635 
L 536.770619 330.423588 
L 537.118662 333.371483 
L 537.466705 339.196806 
L 538.162791 330.07125 
L 538.510834 332.795998 
L 538.858877 332.114811 
L 539.20692 334.440242 
L 539.554963 333.559397 
L 539.903006 334.557688 
L 540.251049 333.430206 
L 540.599092 333.066124 
L 540.947135 331.093031 
L 541.295178 331.304434 
L 541.643221 330.447078 
L 541.991264 337.869666 
L 542.339307 335.426789 
L 542.68735 331.821196 
L 543.035393 331.98562 
L 543.383436 332.455405 
L 543.73148 332.44366 
L 544.079523 330.752437 
L 544.427566 332.349703 
L 544.775609 332.643318 
L 545.123652 331.151754 
L 545.471695 334.604667 
L 545.819738 334.686879 
L 546.167781 335.673425 
L 546.863867 326.289489 
L 547.21191 337.540817 
L 547.559953 333.171825 
L 547.907996 335.180152 
L 548.256039 333.817778 
L 548.604082 331.70375 
L 549.300168 334.733857 
L 549.648211 335.215386 
L 549.996254 332.678552 
L 550.344297 332.784253 
L 550.69234 333.394973 
L 551.040383 332.678552 
L 551.388426 332.44366 
L 551.736469 337.998856 
L 552.084512 336.483803 
L 552.432555 332.619829 
L 552.780598 333.113102 
L 553.128642 332.514128 
L 553.476685 332.619829 
L 554.172771 337.623029 
L 554.520814 336.953587 
L 554.868857 335.53249 
L 555.2169 333.054379 
L 555.564943 332.244002 
L 555.912986 332.244002 
L 556.261029 332.561106 
L 556.609072 337.059288 
L 556.957115 336.225422 
L 557.305158 332.784253 
L 557.653201 332.349703 
L 558.001244 331.42188 
L 558.349287 332.279236 
L 558.69733 331.903408 
L 559.393416 336.742184 
L 559.741459 331.034308 
L 560.089502 331.997365 
L 560.437545 331.656772 
L 560.785588 336.084486 
L 561.133631 336.248911 
L 561.481674 335.497256 
L 561.829717 336.73044 
L 562.177761 331.903408 
L 562.525804 335.450278 
L 562.873847 335.086195 
L 563.22189 333.019145 
L 563.569933 336.096231 
L 563.917976 335.743893 
L 564.614062 331.55107 
L 564.962105 332.525872 
L 565.310148 331.692005 
L 565.658191 333.571142 
L 566.006234 333.723822 
L 566.354277 331.962131 
L 566.70232 328.802833 
L 567.398406 332.349703 
L 568.094492 333.488929 
L 568.442535 332.666807 
L 568.790578 334.94526 
L 569.138621 334.992238 
L 569.486664 333.371483 
L 569.834707 332.901699 
L 570.18275 330.447078 
L 570.530793 330.329632 
L 570.878836 332.831232 
L 571.226879 331.316178 
L 571.574923 323.165425 
L 572.271009 332.760764 
L 572.967095 331.832941 
L 573.315138 332.807743 
L 573.663181 335.121429 
L 574.011224 333.066124 
L 574.359267 337.822687 
L 575.055353 338.64481 
L 575.403396 338.750511 
L 575.751439 339.07936 
L 576.099482 339.008892 
L 576.447525 340.206842 
L 577.143611 338.92668 
L 577.491654 339.51391 
L 578.18774 339.384719 
L 578.883826 340.465223 
L 579.579912 339.572633 
L 579.927955 339.596122 
L 580.275998 339.490421 
L 580.624041 339.607867 
L 580.972085 339.983694 
L 581.320128 340.523946 
L 581.668171 339.877993 
L 582.7123 339.408209 
L 583.060343 340.805816 
L 583.408386 339.643101 
L 583.756429 340.981985 
L 584.104472 340.629647 
L 584.452515 339.678334 
L 585.148601 339.314252 
L 585.844687 339.760547 
L 586.19273 340.606158 
L 586.540773 339.525655 
L 586.888816 339.79578 
L 587.236859 339.114594 
L 587.932945 339.478676 
L 588.280988 339.784036 
L 588.629031 340.723604 
L 588.977074 339.560888 
L 589.325117 339.408209 
L 590.021204 339.584378 
L 590.369247 339.008892 
L 590.71729 339.631356 
L 591.065333 339.81927 
L 591.413376 339.737057 
L 591.761419 338.950169 
L 592.457505 339.314252 
L 592.805548 338.64481 
L 593.153591 339.936716 
L 593.501634 340.007183 
L 593.849677 339.701824 
L 594.545763 338.586087 
L 594.893806 339.185061 
L 595.241849 339.36123 
L 595.589892 338.633065 
L 595.937935 340.218586 
L 596.285978 340.55918 
L 596.634021 338.950169 
L 596.982064 338.362939 
L 597.330107 338.128047 
L 597.67815 338.292472 
L 598.374236 340.124629 
L 598.722279 338.844468 
L 599.070322 338.703533 
L 599.418366 339.008892 
L 599.766409 338.480385 
L 600.114452 338.914935 
L 600.462495 338.856212 
L 600.810538 339.478676 
L 601.158581 338.750511 
L 601.854667 338.550853 
L 602.20271 337.740475 
L 603.246839 339.020637 
L 603.594882 338.715277 
L 603.942925 338.116302 
L 604.290968 338.586087 
L 604.639011 337.987112 
L 604.987054 337.681752 
L 605.68314 338.903191 
L 606.031183 338.210259 
L 606.727269 337.611285 
L 607.423355 337.282436 
L 607.771398 337.482094 
L 608.119441 338.198515 
L 608.467485 338.480385 
L 608.815528 338.257238 
L 609.163571 337.305925 
L 609.511614 337.341159 
L 609.859657 336.260655 
L 610.2077 320.769526 
L 610.555743 292.124443 
L 610.903786 317.774653 
L 611.251829 318.772944 
L 611.599872 274.448818 
L 611.947915 309.952748 
L 612.295958 309.060158 
L 612.644001 279.980525 
L 612.992044 294.085791 
L 613.340087 318.385372 
L 613.68813 320.417188 
L 614.036173 320.076595 
L 614.732259 313.722765 
L 615.080302 328.826323 
L 615.428345 296.188075 
L 615.776388 324.821414 
L 616.124431 315.367009 
L 616.472474 312.055032 
L 616.820517 334.992238 
L 617.516603 280.27414 
L 617.864647 319.900426 
L 618.21269 312.665751 
L 618.560733 315.531434 
L 618.908776 334.040926 
L 619.604862 303.317048 
L 619.952905 271.794538 
L 620.300948 282.693528 
L 620.648991 329.589722 
L 620.997034 310.974528 
L 621.345077 321.990965 
L 622.041163 297.785341 
L 622.389206 281.025794 
L 622.737249 327.111611 
L 623.085292 316.893808 
L 623.433335 333.876501 
L 623.781378 308.238036 
L 624.129421 306.3589 
L 624.477464 302.81203 
L 624.825507 277.408457 
L 625.17355 281.941873 
L 625.521593 312.242945 
L 625.869636 327.252546 
L 626.217679 302.635861 
L 626.565722 307.028342 
L 626.913765 296.48169 
L 627.261809 279.933547 
L 627.609852 313.605319 
L 627.957895 325.138518 
L 628.305938 309.764834 
L 628.653981 308.531651 
L 629.002024 304.538487 
L 629.350067 309.330284 
L 629.69811 277.361479 
L 630.046153 276.915184 
L 630.394196 312.924132 
L 630.742239 305.020015 
L 631.438325 322.26109 
L 632.134411 295.964928 
L 632.482454 279.299338 
L 632.830497 308.061867 
L 633.17854 310.704403 
L 633.526583 329.777635 
L 633.874626 304.808613 
L 634.222669 302.389225 
L 634.570712 276.962162 
L 634.918755 278.324536 
L 635.266798 315.355265 
L 635.614841 334.51071 
L 635.962884 328.755855 
L 636.310928 330.411844 
L 636.658971 322.519472 
L 637.007014 303.728109 
L 637.355057 320.992673 
L 637.7031 330.400099 
L 638.051143 331.492347 
L 638.399186 319.04307 
L 638.747229 330.881628 
L 639.095272 328.603175 
L 639.443315 316.001218 
L 639.791358 318.538052 
L 640.139401 331.445369 
L 640.487444 330.52929 
L 640.835487 321.897008 
L 641.18353 330.740693 
L 641.531573 322.437259 
L 641.879616 298.595718 
L 642.227659 308.097101 
L 642.575702 329.131682 
L 642.923745 333.723822 
L 643.271788 335.520746 
L 643.619831 332.619829 
L 643.967874 335.027472 
L 644.315917 326.430424 
L 644.66396 337.200224 
L 645.012003 332.173534 
L 645.360046 331.692005 
L 645.70809 334.863048 
L 646.056133 332.995656 
L 646.404176 330.353121 
L 646.752219 322.120155 
L 647.100262 328.532708 
L 647.448305 332.373192 
L 647.796348 330.752437 
L 648.144391 331.39839 
L 648.492434 335.779127 
L 648.840477 332.72553 
L 649.18852 326.900208 
L 649.536563 335.027472 
L 649.884606 335.485512 
L 650.232649 334.311052 
L 650.580692 335.015728 
L 650.928735 335.203641 
L 651.276778 327.346503 
L 651.624821 331.973876 
L 651.972864 335.062706 
L 652.320907 335.039217 
L 652.66895 335.37981 
L 653.016993 332.502383 
L 653.365036 335.109684 
L 654.061122 332.572851 
L 654.409165 339.044126 
L 654.757209 335.779127 
L 655.105252 335.285854 
L 655.453295 331.973876 
L 655.801338 333.547652 
L 656.497424 325.291198 
L 657.19351 328.215603 
L 657.541553 325.197241 
L 657.889596 330.141718 
L 658.237639 333.207059 
L 658.585682 333.782545 
L 658.933725 332.995656 
L 659.281768 340.124629 
L 659.629811 336.049253 
L 659.977854 335.309343 
L 660.67394 334.675134 
L 661.021983 333.46544 
L 661.718069 339.913227 
L 662.066112 335.931807 
L 662.414155 335.579469 
L 662.762198 335.790871 
L 663.110241 335.168407 
L 663.458284 335.003983 
L 663.806327 336.319378 
L 664.154371 336.131465 
L 664.502414 336.448569 
L 664.850457 338.351195 
L 665.1985 335.708659 
L 665.546543 335.109684 
L 665.894586 335.790871 
L 666.590672 338.680043 
L 666.938715 335.567724 
L 667.286758 335.4033 
L 667.634801 335.802616 
L 667.982844 334.957005 
L 668.330887 334.440242 
L 668.67893 339.279018 
L 669.026973 338.480385 
L 669.375016 335.720404 
L 669.723059 335.062706 
L 670.071102 335.978785 
L 670.767188 334.581177 
L 671.115231 338.128047 
L 671.463274 339.173317 
L 671.811317 337.810943 
L 672.15936 337.31767 
L 672.507403 336.178443 
L 672.855446 338.539108 
L 673.203489 339.737057 
L 673.899576 337.893155 
L 674.247619 339.149827 
L 674.595662 337.129756 
L 674.943705 338.680043 
L 675.291748 336.918353 
L 675.639791 338.938425 
L 675.987834 337.282436 
L 676.335877 339.478676 
L 676.68392 338.715277 
L 677.380006 338.233748 
L 677.728049 337.893155 
L 678.076092 337.998856 
L 678.424135 335.426789 
L 678.772178 337.916644 
L 679.120221 338.398173 
L 679.468264 338.386428 
L 679.816307 337.998856 
L 680.16435 338.715277 
L 680.512393 338.961914 
L 680.860436 337.728731 
L 681.208479 339.443442 
L 681.556522 338.985403 
L 681.904565 338.762256 
L 682.252608 338.691788 
L 682.600652 338.433407 
L 682.948695 338.527364 
L 683.296738 337.623029 
L 683.644781 338.950169 
L 683.992824 338.515619 
L 684.340867 339.290763 
L 684.68891 338.409918 
L 685.036953 338.64481 
L 685.384996 338.362939 
L 685.733039 335.227131 
L 686.081082 338.456896 
L 686.429125 338.633065 
L 686.777168 338.222004 
L 687.125211 336.695206 
L 687.473254 337.799198 
L 687.821297 338.49213 
L 688.16934 335.826105 
L 688.517383 336.107976 
L 688.865426 338.03409 
L 689.909555 337.282436 
L 690.257598 337.587795 
L 690.605641 334.816069 
L 690.953684 330.96384 
L 691.301727 333.371483 
L 691.64977 338.785745 
L 691.997814 335.180152 
L 692.345857 336.57776 
L 692.6939 336.354612 
L 693.041943 337.188479 
L 693.389986 341.357812 
L 693.738029 341.357812 
L 694.086072 340.629647 
L 694.434115 337.282436 
L 695.130201 335.884828 
L 695.478244 333.92348 
L 695.826287 338.727022 
L 696.17433 337.822687 
L 696.522373 337.31767 
L 696.870416 335.520746 
L 697.218459 336.695206 
L 697.566502 336.648227 
L 697.914545 335.509001 
L 698.262588 333.723822 
L 698.610631 336.695206 
L 698.958674 335.086195 
L 699.306717 334.698623 
L 699.65476 336.519037 
L 700.002803 334.545944 
L 700.350846 331.175243 
L 700.698889 336.988821 
L 701.046933 337.106267 
L 701.394976 337.482094 
L 701.743019 336.284145 
L 702.091062 337.552562 
L 702.439105 335.96704 
L 702.787148 320.111828 
L 703.135191 324.19895 
L 703.483234 333.876501 
L 704.17932 336.389846 
L 704.527363 333.46544 
L 704.875406 337.211968 
L 705.223449 331.926897 
L 705.571492 339.067615 
L 705.919535 336.589504 
L 706.267578 330.869883 
L 706.615621 336.918353 
L 706.963664 336.742184 
L 707.311707 331.233966 
L 707.65975 332.925189 
L 708.007793 321.838285 
L 708.355836 335.003983 
L 708.703879 335.955296 
L 709.051922 334.827814 
L 709.399965 334.240584 
L 709.748008 336.342868 
L 710.096051 321.497691 
L 710.444095 339.643101 
L 710.792138 338.304216 
L 711.140181 336.319378 
L 711.488224 332.819487 
L 711.836267 337.658263 
L 712.18431 336.436824 
L 712.532353 336.55427 
L 712.880396 335.602958 
L 713.228439 337.364648 
L 713.576482 337.834432 
L 713.924525 338.809234 
L 714.272568 338.081069 
L 714.620611 332.302725 
L 714.968654 328.861556 
L 715.316697 335.121429 
L 715.66474 336.953587 
L 716.012783 337.141501 
L 716.360826 338.175025 
L 716.708869 337.975367 
L 717.056912 337.258947 
L 717.404955 331.280944 
L 717.752998 336.213677 
L 718.101041 337.951878 
L 718.449084 337.987112 
L 718.797127 336.800907 
L 719.14517 334.463731 
L 719.493213 336.85963 
L 719.841257 327.546161 
L 720.1893 331.128265 
L 720.537343 336.519037 
L 720.885386 336.683461 
L 721.233429 331.210477 
L 721.929515 327.546161 
L 722.277558 313.311704 
L 722.625601 310.481255 
L 722.973644 330.329632 
L 723.321687 326.54787 
L 723.66973 326.430424 
L 724.017773 328.932024 
L 724.365816 313.018089 
L 724.713859 313.382172 
L 725.061902 272.475725 
L 725.409945 272.088153 
L 725.757988 323.365083 
L 726.106031 333.571142 
L 726.454074 323.036234 
L 726.802117 337.576051 
L 727.15016 299.276905 
L 727.498203 289.787267 
L 727.846246 320.475911 
L 728.194289 321.450713 
L 728.542332 323.341594 
L 728.890376 333.982203 
L 729.238419 319.524598 
L 729.586462 273.121678 
L 729.934505 266.28632 
L 730.282548 319.148771 
L 730.630591 334.040926 
L 731.326677 315.4962 
L 731.67472 312.595283 
L 732.022763 272.076408 
L 732.370806 280.86137 
L 732.718849 331.445369 
L 733.066892 320.616846 
L 733.414935 317.574994 
L 733.762978 315.860283 
L 734.111021 332.74902 
L 734.459064 262.3049 
L 734.807107 267.167165 
L 735.15515 328.427006 
L 735.503193 324.586522 
L 736.199279 308.625608 
L 736.547322 321.380245 
L 736.895365 316.917297 
L 737.243408 265.616877 
L 737.591451 314.427441 
L 737.939494 329.272618 
L 738.287538 320.734292 
L 738.635581 271.982451 
L 738.983624 311.702694 
L 739.331667 249.303626 
L 739.67971 255.481286 
L 740.027753 299.711456 
L 740.375796 308.508162 
L 741.071882 332.936933 
L 741.419925 314.615355 
L 741.767968 247.776828 
L 742.116011 306.687749 
L 742.464054 314.873736 
L 742.812097 319.935659 
L 743.16014 293.956601 
L 743.856226 304.162659 
L 744.204269 309.999726 
L 744.552312 250.771701 
L 744.900355 285.747124 
L 745.248398 303.258325 
L 745.596441 266.579935 
L 745.944484 284.631387 
L 746.292527 261.741159 
L 746.64057 283.644841 
L 746.988613 214.152033 
L 747.6847 321.168842 
L 748.032743 255.880603 
L 748.380786 322.190623 
L 748.728829 242.409545 
L 749.076872 224.076222 
L 749.424915 288.483616 
L 749.772958 173.28082 
L 750.121001 268.130222 
L 750.469044 255.880603 
L 750.817087 248.669417 
L 751.513173 265.769557 
L 751.861216 208.080074 
L 752.557302 317.621973 
L 753.253388 279.322827 
L 753.601431 290.632879 
L 753.949474 184.943209 
L 754.297517 189.582327 
L 754.993603 300.204729 
L 755.341646 294.755234 
L 755.689689 276.609824 
L 756.037732 247.812061 
L 756.385775 188.795439 
L 757.081862 265.652111 
L 757.429905 236.06746 
L 757.777948 293.369371 
L 758.125991 282.18851 
L 758.474034 249.714687 
L 758.822077 201.397396 
L 759.17012 266.744359 
L 759.518163 278.371515 
L 759.866206 263.596806 
L 760.214249 267.00274 
L 760.562292 257.994631 
L 760.910335 245.874202 
L 761.258378 169.851396 
L 761.606421 176.745478 
L 761.954464 213.388634 
L 762.302507 282.693528 
L 762.65055 318.115246 
L 762.998593 327.616629 
L 763.346636 309.776579 
L 763.694679 263.866932 
L 764.042722 313.898934 
L 764.390765 321.579904 
L 764.738808 326.747528 
L 765.086851 325.443877 
L 765.434894 317.856865 
L 765.782937 307.38068 
L 766.130981 259.157346 
L 766.479024 269.433873 
L 766.827067 314.709312 
L 767.17511 326.817996 
L 767.523153 334.863048 
L 768.567282 318.068268 
L 768.915325 299.464819 
L 769.263368 326.559615 
L 769.611411 322.366792 
L 769.959454 321.027907 
L 770.65554 317.081721 
L 771.003583 280.015759 
L 771.351626 333.242293 
L 771.699669 332.431915 
L 772.047712 328.239093 
L 772.395755 326.606593 
L 772.743798 326.500892 
L 773.091841 326.747528 
L 773.439884 328.591431 
L 773.787927 295.401187 
L 774.13597 285.594444 
L 774.484013 323.811378 
L 774.832056 318.103501 
L 775.528143 330.68197 
L 775.876186 327.628373 
L 776.224229 320.276253 
L 776.572272 327.980711 
L 776.920315 319.689023 
L 777.616401 333.077868 
L 778.312487 320.95744 
L 778.66053 312.019798 
L 779.008573 334.886537 
L 779.356616 333.888246 
L 779.704659 320.37021 
L 780.052702 327.757564 
L 780.400745 331.081286 
L 780.748788 335.649936 
L 781.096831 321.051396 
L 781.444874 328.579686 
L 781.792917 329.448787 
L 782.14096 331.656772 
L 782.489003 331.645027 
L 782.837046 326.947186 
L 783.185089 318.972602 
L 783.533132 315.449222 
L 784.229218 331.104775 
L 784.577262 328.262582 
L 784.925305 327.146845 
L 785.273348 325.643536 
L 785.621391 325.361665 
L 785.969434 337.341159 
L 786.317477 332.29098 
L 786.66552 331.680261 
L 787.013563 334.087904 
L 787.361606 333.430206 
L 787.709649 331.797707 
L 788.057692 331.151754 
L 788.405735 335.68517 
L 788.753778 333.629865 
L 789.101821 332.854721 
L 789.449864 331.468858 
L 789.797907 333.841268 
L 790.14595 332.29098 
L 790.493993 331.762473 
L 790.842036 338.49213 
L 791.190079 334.346285 
L 791.538122 334.252329 
L 791.886165 333.747311 
L 792.234208 333.817778 
L 792.582251 332.960422 
L 792.930294 333.007401 
L 793.278337 338.010601 
L 793.62638 334.698623 
L 793.974424 333.665099 
L 794.322467 334.628156 
L 794.67051 334.346285 
L 795.018553 333.629865 
L 795.366596 335.708659 
L 795.714639 333.254037 
L 796.062682 332.713786 
L 796.410725 333.148336 
L 796.758768 334.933515 
L 797.106811 333.876501 
L 797.454854 333.371483 
L 797.802897 337.623029 
L 798.15094 334.874792 
L 798.498983 335.661681 
L 798.847026 335.003983 
L 799.195069 336.295889 
L 799.543112 335.943551 
L 799.891155 337.411626 
L 800.239198 335.826105 
L 800.587241 332.866466 
L 800.935284 338.045835 
L 801.283327 333.524163 
L 801.63137 334.592922 
L 801.979413 332.819487 
L 802.327456 332.960422 
L 803.023543 337.305925 
L 803.371586 335.109684 
L 803.719629 335.779127 
L 804.067672 338.715277 
L 804.415715 337.153245 
L 804.763758 337.024055 
L 805.111801 334.980494 
L 805.459844 337.681752 
L 805.807887 338.727022 
L 806.15593 338.456896 
L 806.503973 336.73044 
L 806.852016 336.906609 
L 807.200059 336.601249 
L 807.548102 336.648227 
L 807.896145 328.814578 
L 808.244188 339.842759 
L 808.592231 337.799198 
L 808.940274 335.003983 
L 809.288317 335.849594 
L 809.63636 335.050961 
L 809.984403 331.809451 
L 810.332446 332.960422 
L 810.680489 335.790871 
L 811.028532 334.722113 
L 811.724618 335.238875 
L 812.072661 333.935224 
L 812.420705 327.933733 
L 812.768748 330.599758 
L 813.116791 335.743893 
L 813.464834 333.301016 
L 813.812877 335.602958 
L 814.16092 335.849594 
L 814.508963 334.686879 
L 814.857006 331.844685 
L 815.205049 330.200441 
L 815.553092 333.888246 
L 815.901135 334.710368 
L 816.249178 333.864757 
L 816.945264 341.357812 
L 817.293307 341.357812 
L 817.64135 340.336032 
L 818.337436 334.710368 
L 818.685479 333.759055 
L 819.033522 336.143209 
L 819.381565 337.047544 
L 819.729608 336.248911 
L 820.077651 334.05267 
L 820.425694 329.6367 
L 820.773737 335.027472 
L 821.12178 333.347994 
L 821.469824 332.831232 
L 821.817867 334.757346 
L 822.16591 333.958714 
L 822.513953 336.812652 
L 823.210039 333.31276 
L 823.906125 333.218804 
L 824.254168 332.455405 
L 824.602211 333.33625 
L 824.950254 324.022781 
L 825.298297 335.649936 
L 825.64634 332.702041 
L 825.994383 332.326214 
L 826.342426 332.384937 
L 826.690469 334.921771 
L 827.038512 335.520746 
L 827.386555 337.763964 
L 827.734598 333.383228 
L 828.082641 337.176734 
L 828.430684 334.886537 
L 828.778727 322.672151 
L 829.474813 335.83785 
L 829.822856 325.314687 
L 830.170899 329.554488 
L 830.518942 331.680261 
L 830.866986 335.53249 
L 831.215029 332.103067 
L 831.563072 332.760764 
L 831.911115 332.44366 
L 832.259158 337.529072 
L 832.955244 331.010819 
L 833.303287 335.168407 
L 833.65133 331.198732 
L 833.999373 335.544235 
L 834.347416 322.542961 
L 834.695459 334.451987 
L 835.043502 330.658481 
L 835.391545 331.715495 
L 835.739588 333.371483 
L 836.087631 330.317887 
L 836.435674 331.2692 
L 836.783717 331.069542 
L 837.13176 323.094957 
L 837.479803 330.400099 
L 837.827846 317.069977 
L 838.175889 330.176952 
L 838.523932 326.958931 
L 838.871975 319.289706 
L 839.220018 306.94613 
L 839.568061 305.900861 
L 839.916104 332.197023 
L 840.264148 331.668516 
L 840.612191 321.227565 
L 840.960234 330.775927 
L 841.308277 314.192549 
L 841.65632 330.07125 
L 842.004363 290.574156 
L 842.352406 330.317887 
L 842.700449 325.725748 
L 843.048492 328.955513 
L 843.744578 314.650589 
L 844.092621 292.488526 
L 844.440664 333.606375 
L 844.788707 325.314687 
L 845.13675 329.589722 
L 845.484793 319.771235 
L 845.832836 313.840211 
L 846.180879 320.511145 
L 846.528922 283.680074 
L 846.876965 266.56819 
L 847.225008 316.717639 
L 847.573051 319.113537 
L 848.61718 300.063794 
L 848.965223 219.143489 
L 849.313267 258.863731 
L 849.66131 328.943769 
L 850.009353 317.434059 
L 850.357396 316.858574 
L 850.705439 314.638844 
L 851.053482 303.187858 
L 851.401525 278.371515 
L 851.749568 274.648476 
L 852.097611 200.446083 
L 852.445654 311.961075 
L 852.793697 316.846829 
L 853.14174 316.623682 
L 853.489783 324.727457 
L 853.837826 220.482374 
L 854.185869 216.31304 
L 854.533912 291.736871 
L 854.881955 293.67473 
L 855.229998 326.794507 
L 855.578041 310.046705 
L 855.926084 280.802647 
L 856.274127 185.671375 
L 856.62217 230.206904 
L 856.970213 314.509653 
L 857.318256 327.745819 
L 857.666299 292.758651 
L 858.014342 312.313413 
L 858.362385 269.022812 
L 858.710429 248.751629 
L 859.058472 301.390934 
L 859.406515 279.346316 
L 859.754558 285.876315 
L 860.102601 301.50838 
L 860.450644 304.256616 
L 860.798687 263.690763 
L 861.14673 146.279981 
L 861.494773 115.391679 
L 861.842816 295.718291 
L 862.190859 268.623495 
L 862.538902 288.201746 
L 863.234988 243.57226 
L 863.583031 128.228529 
L 863.931074 264.512885 
L 864.279117 260.872058 
L 864.62716 261.494522 
L 864.975203 305.630735 
L 865.323246 246.496666 
L 866.019332 107.675476 
L 866.367375 139.397645 
L 867.063461 313.346938 
L 867.411504 245.568842 
L 867.759548 252.674326 
L 868.107591 254.764865 
L 868.455634 141.006655 
L 868.803677 132.773689 
L 869.15172 238.204977 
L 869.499763 271.818027 
L 869.847806 282.024086 
L 870.195849 229.807587 
L 870.543892 224.170179 
L 870.891935 73.604387 
L 871.239978 135.240056 
L 871.588021 302.036887 
L 871.936064 266.532956 
L 872.284107 255.375585 
L 872.63215 231.475321 
L 872.980193 221.151816 
L 873.328236 123.166605 
L 873.676279 289.282249 
L 874.024322 221.504154 
L 874.372365 230.91158 
L 874.720408 234.775554 
L 875.068451 212.695703 
L 875.416494 213.494336 
L 875.764537 135.063887 
L 876.11258 104.351754 
L 876.808666 229.819332 
L 877.15671 233.835986 
L 877.504753 301.48489 
L 878.200839 124.329321 
L 878.896925 305.219674 
L 879.244968 246.649346 
L 879.593011 218.885108 
L 879.941054 214.786242 
L 880.289097 203.49968 
L 880.63714 98.937492 
L 881.681269 230.065968 
L 882.029312 259.357005 
L 882.725398 210.652142 
L 883.073441 131.235147 
L 883.421484 271.395221 
L 883.769527 315.085139 
L 884.11757 243.771918 
L 884.465613 232.908162 
L 884.813656 285.664912 
L 885.161699 263.279702 
L 885.509742 155.382047 
L 885.857785 168.195408 
L 886.553872 313.8637 
L 886.901915 249.397583 
L 887.249958 238.756974 
L 887.598001 210.382016 
L 887.946044 157.390374 
L 888.294087 252.627348 
L 888.64213 241.129383 
L 888.990173 298.525251 
L 889.338216 313.370427 
L 890.034302 290.550666 
L 890.382345 212.014516 
L 890.730388 251.910927 
L 891.078431 325.103284 
L 891.426474 319.677278 
L 891.774517 300.427876 
L 892.12256 305.818648 
L 892.470603 301.179531 
L 892.818646 219.754208 
L 893.166689 296.669604 
L 893.514732 293.275414 
L 893.862775 298.443039 
L 894.210818 320.252764 
L 894.906904 309.823557 
L 895.254947 260.848569 
L 895.602991 327.205568 
L 895.951034 326.817996 
L 896.299077 329.542743 
L 897.343206 303.058667 
L 897.691249 292.688184 
L 898.039292 295.013615 
L 898.387335 320.922206 
L 898.735378 318.925624 
L 899.083421 311.432568 
L 899.431464 320.017872 
L 899.779507 324.78618 
L 900.12755 300.674513 
L 900.823636 287.297412 
L 901.519722 323.61172 
L 901.867765 330.470567 
L 902.215808 317.434059 
L 902.911894 311.538269 
L 903.259937 329.155172 
L 903.60798 330.317887 
L 903.956023 321.920497 
L 904.304066 329.519254 
L 904.652109 319.6303 
L 905.000153 286.122952 
L 905.348196 289.200037 
L 905.696239 313.969402 
L 906.044282 320.264508 
L 906.392325 329.824614 
L 906.740368 321.08663 
L 907.088411 321.97922 
L 907.436454 304.338829 
L 907.784497 318.632009 
L 908.13254 327.769309 
L 908.828626 324.363374 
L 909.176669 330.611502 
L 909.524712 322.355047 
L 909.872755 301.132552 
L 910.220798 301.132552 
L 910.568841 325.866683 
L 910.916884 327.604884 
L 911.264927 327.957222 
L 911.61297 318.819922 
L 911.961013 333.277527 
L 912.309056 321.180587 
L 912.657099 329.413553 
L 913.005142 330.012527 
L 913.353185 334.581177 
L 913.701228 334.628156 
L 914.049271 332.478894 
L 914.397315 333.935224 
L 914.745358 331.915153 
L 915.093401 335.473767 
L 915.441444 332.455405 
L 915.789487 331.11652 
L 916.13753 329.237384 
L 916.485573 332.244002 
L 916.833616 328.473985 
L 917.181659 318.866901 
L 917.529702 337.352903 
L 917.877745 331.915153 
L 918.225788 332.29098 
L 918.573831 334.440242 
L 918.921874 333.453696 
L 919.269917 333.524163 
L 919.61796 334.07616 
L 919.966003 331.010819 
L 920.314046 334.874792 
L 920.662089 333.33625 
L 921.010132 332.302725 
L 921.358175 329.671934 
L 921.706218 333.230548 
L 922.054261 334.405008 
L 922.402304 337.435116 
L 922.750347 333.817778 
L 923.09839 333.606375 
L 923.446434 335.332832 
L 923.794477 336.460314 
L 924.14252 333.277527 
L 924.490563 333.453696 
L 924.838606 335.191897 
L 925.186649 331.891664 
L 925.534692 332.584595 
L 925.882735 330.059506 
L 926.230778 333.477185 
L 926.578821 340.429989 
L 926.926864 341.357812 
L 927.274907 335.450278 
L 927.62295 335.144918 
L 927.970993 332.337959 
L 928.319036 332.220513 
L 928.667079 325.948895 
L 929.015122 331.457113 
L 929.363165 334.79258 
L 929.711208 332.772509 
L 930.059251 327.792798 
L 930.407294 336.413335 
L 930.755337 336.530781 
L 931.10338 333.876501 
L 931.451423 333.477185 
L 931.799466 329.836358 
L 932.147509 335.015728 
L 932.495552 332.619829 
L 933.191639 334.275818 
L 933.539682 334.733857 
L 933.887725 336.659972 
L 934.235768 331.433624 
L 934.583811 331.022563 
L 934.931854 332.349703 
L 935.279897 337.329414 
L 935.62794 332.255746 
L 935.975983 335.015728 
L 936.324026 333.394973 
L 936.672069 332.972167 
L 937.020112 336.800907 
L 937.368155 330.176952 
L 937.716198 333.500674 
L 938.064241 333.277527 
L 938.412284 336.037508 
L 938.760327 333.7708 
L 939.10837 332.784253 
L 939.456413 337.505583 
L 939.804456 333.441951 
L 940.152499 335.309343 
L 940.500542 331.621538 
L 940.848585 332.537617 
L 941.196628 335.391555 
L 941.544671 340.054162 
L 941.892715 332.220513 
L 942.240758 332.631574 
L 942.588801 335.99053 
L 942.936844 331.363157 
L 943.284887 335.579469 
L 943.63293 333.406717 
L 943.980973 327.616629 
L 944.329016 325.620046 
L 944.677059 331.304434 
L 945.025102 330.83465 
L 945.373145 333.723822 
L 945.721188 331.633282 
L 946.069231 335.309343 
L 947.11336 322.26109 
L 947.461403 331.339667 
L 948.157489 337.31767 
L 948.505532 331.539326 
L 948.853575 335.109684 
L 949.201618 330.83465 
L 949.549661 335.415044 
L 949.897704 331.316178 
L 950.245747 331.903408 
L 950.59379 330.09474 
L 950.941833 334.123138 
L 951.289877 332.936933 
L 951.63792 331.175243 
L 952.334006 333.7708 
L 952.682049 329.143427 
L 953.030092 332.431915 
L 953.378135 332.972167 
L 953.726178 332.537617 
L 954.422264 334.416753 
L 954.770307 334.968749 
L 955.11835 329.014236 
L 955.466393 330.893373 
L 955.814436 335.767382 
L 956.162479 332.972167 
L 956.510522 333.888246 
L 956.858565 328.051179 
L 957.206608 327.769309 
L 957.554651 331.891664 
L 957.902694 333.089613 
L 958.250737 328.15688 
L 958.59878 337.634774 
L 958.946823 315.766326 
L 959.294866 332.572851 
L 959.642909 331.879919 
L 959.990952 334.170116 
L 960.338995 330.118229 
L 960.687039 336.025763 
L 961.035082 326.336467 
L 961.383125 321.262799 
L 962.079211 332.948678 
L 962.427254 323.036234 
L 962.775297 323.776144 
L 963.12334 292.629461 
L 963.471383 294.027068 
L 963.819426 285.71189 
L 964.515512 318.796433 
L 964.863555 304.374062 
L 965.211598 297.573938 
L 965.559641 301.167786 
L 965.907684 271.970707 
L 966.255727 282.728762 
L 966.60377 331.762473 
L 966.951813 329.296107 
L 967.299856 325.162007 
L 967.647899 324.727457 
L 967.995942 318.15048 
L 968.343985 327.240801 
L 968.692028 310.786615 
L 969.040071 326.019363 
L 969.736158 317.574994 
L 970.084201 304.221382 
L 970.432244 324.833158 
L 971.12833 332.948678 
L 971.476373 324.78618 
L 971.824416 328.121647 
L 972.172459 328.333049 
L 972.520502 319.712512 
L 972.868545 302.624117 
L 973.216588 235.292316 
L 973.564631 318.714221 
L 973.912674 307.415914 
L 974.260717 310.387298 
L 974.60876 307.850464 
L 974.956803 303.105645 
L 975.304846 293.98009 
L 975.652889 215.831511 
L 976.000932 249.221414 
L 976.348975 306.311922 
L 976.697018 308.543396 
L 977.045061 320.605102 
L 977.741147 300.439621 
L 978.08919 278.547684 
L 978.437233 108.509343 
L 979.13332 287.332645 
L 979.481363 316.341811 
L 980.177449 293.404604 
L 980.525492 186.528731 
L 980.873535 186.000224 
L 981.221578 284.901513 
L 981.569621 295.30723 
L 981.917664 285.371297 
L 982.265707 288.741998 
L 982.61375 278.982234 
L 982.961793 177.086071 
L 983.309836 211.709156 
L 983.657879 288.765487 
L 984.005922 294.731744 
L 984.353965 289.493652 
L 984.702008 317.574994 
L 985.050051 309.647388 
L 985.398094 181.408084 
L 985.746137 281.742215 
L 986.09418 311.3621 
L 986.442223 299.535286 
L 986.790266 312.031542 
L 987.138309 305.219674 
L 987.486352 291.008706 
L 987.834395 89.682746 
L 988.182439 125.926587 
L 988.530482 264.900457 
L 988.878525 255.704434 
L 989.226568 260.989504 
L 989.574611 270.537865 
L 989.922654 289.857735 
L 990.270697 276.01085 
L 990.61874 179.91652 
L 990.966783 300.604045 
L 991.314826 318.021289 
L 991.662869 271.947218 
L 992.010912 243.619239 
L 992.358955 257.325189 
L 992.706998 122.497163 
L 993.055041 249.080478 
L 993.403084 187.926338 
L 993.751127 226.765735 
L 994.09917 171.131558 
L 994.447213 276.809483 
L 995.143299 144.400845 
L 995.491342 198.426012 
L 996.187428 261.788137 
L 996.535471 231.874637 
L 996.883514 277.173565 
L 997.231557 200.892378 
L 997.579601 176.604542 
L 997.927644 141.60563 
L 998.275687 248.258356 
L 998.62373 243.360857 
L 998.971773 208.996153 
L 999.319816 257.689271 
L 999.667859 230.512263 
L 1000.015902 96.35368 
L 1000.363945 159.868485 
L 1000.711988 270.890203 
L 1001.060031 251.182762 
L 1001.408074 218.896852 
L 1001.756117 241.740102 
L 1002.10416 224.910088 
L 1002.452203 255.986304 
L 1002.800246 118.691912 
L 1003.148289 237.629492 
L 1003.496332 222.525934 
L 1003.844375 228.445213 
L 1004.192418 241.458232 
L 1004.540461 211.579966 
L 1004.888504 124.399789 
L 1005.236547 95.836918 
L 1005.58459 280.920093 
L 1005.932633 264.595097 
L 1006.280676 190.251769 
L 1006.628719 275.388386 
L 1006.976763 189.229989 
L 1007.324806 232.109529 
L 1007.672849 131.610974 
L 1008.020892 228.421724 
L 1008.368935 214.657051 
L 1008.716978 194.303657 
L 1009.413064 250.231449 
L 1009.761107 94.709436 
L 1010.10915 136.625919 
L 1010.457193 238.792207 
L 1010.805236 230.935069 
L 1011.153279 294.84919 
L 1011.501322 257.419145 
L 1011.849365 238.604294 
L 1012.197408 204.991244 
L 1012.545451 148.499711 
L 1012.893494 225.7557 
L 1013.241537 229.455249 
L 1013.58958 256.56179 
L 1013.937623 227.587858 
L 1014.285666 212.355109 
L 1014.981752 112.655187 
L 1015.329795 164.108286 
L 1015.677838 288.906422 
L 1016.025882 293.0875 
L 1016.373925 311.925841 
L 1016.721968 301.026851 
L 1017.070011 230.688432 
L 1017.418054 230.711922 
L 1017.766097 298.39606 
L 1018.11414 321.356756 
L 1018.462183 313.511362 
L 1019.158269 287.19171 
L 1019.506312 207.563312 
L 1020.202398 307.873954 
L 1020.550441 306.863918 
L 1020.898484 306.558558 
L 1021.246527 302.694584 
L 1021.59457 292.629461 
L 1021.942613 243.971577 
L 1022.290656 253.519938 
L 1022.638699 303.963001 
L 1022.986742 316.377045 
L 1023.334785 313.065067 
L 1023.682828 315.331776 
L 1024.030871 294.614298 
L 1024.378914 253.837042 
L 1024.726957 254.741376 
L 1025.075 289.200037 
L 1025.423044 293.886133 
L 1025.771087 294.344173 
L 1026.11913 301.848973 
L 1026.467173 306.629026 
L 1026.815216 286.686692 
L 1027.163259 313.992891 
L 1027.511302 310.18764 
L 1027.859345 262.070008 
L 1028.207388 320.170551 
L 1028.555431 313.076812 
L 1028.903474 317.081721 
L 1029.251517 315.413988 
L 1029.59956 320.393699 
L 1029.947603 323.45904 
L 1030.295646 318.725965 
L 1030.991732 322.472493 
L 1031.339775 330.012527 
L 1031.687818 315.378754 
L 1032.035861 314.039869 
L 1032.383904 320.65208 
L 1032.731947 315.766326 
L 1033.07999 321.709094 
L 1033.428033 329.765891 
L 1033.776076 314.721056 
L 1034.124119 294.72 
L 1034.472163 328.133391 
L 1034.820206 319.360174 
L 1035.516292 330.541034 
L 1035.864335 330.153463 
L 1036.908464 319.383663 
L 1037.256507 333.195314 
L 1037.60455 331.997365 
L 1037.952593 329.836358 
L 1038.300636 330.235675 
L 1038.648679 325.267708 
L 1038.996722 326.876719 
L 1039.344765 325.009327 
L 1039.692808 318.549796 
L 1040.040851 331.527581 
L 1040.736937 327.839776 
L 1041.08498 331.574559 
L 1041.433023 320.100084 
L 1041.781066 327.205568 
L 1042.129109 330.799416 
L 1042.477152 337.01231 
L 1042.825195 332.384937 
L 1043.173238 331.093031 
L 1043.521281 330.799416 
L 1043.869325 327.510927 
L 1044.217368 334.064415 
L 1044.565411 314.216038 
L 1044.913454 335.368066 
L 1045.261497 335.68517 
L 1045.60954 328.7676 
L 1045.957583 335.920062 
L 1046.305626 332.619829 
L 1046.653669 336.025763 
L 1047.001712 334.123138 
L 1047.349755 334.604667 
L 1047.697798 333.806034 
L 1048.045841 335.168407 
L 1048.393884 333.782545 
L 1048.741927 331.327923 
L 1049.08997 334.616411 
L 1049.438013 334.957005 
L 1049.786056 312.125499 
L 1050.134099 334.545944 
L 1050.482142 327.59314 
L 1050.830185 329.366574 
L 1051.526271 334.651645 
L 1051.874314 335.050961 
L 1052.222357 329.448787 
L 1052.5704 332.420171 
L 1052.918443 330.435333 
L 1053.266487 332.678552 
L 1053.61453 336.143209 
L 1053.962573 330.188696 
L 1054.310616 330.047761 
L 1055.006702 336.331123 
L 1055.354745 332.913444 
L 1055.702788 331.621538 
L 1056.050831 327.616629 
L 1057.09496 331.586304 
L 1057.443003 332.279236 
L 1057.791046 330.705459 
L 1058.139089 334.346285 
L 1058.487132 334.675134 
L 1058.835175 335.555979 
L 1059.183218 335.368066 
L 1059.531261 336.953587 
L 1059.879304 335.802616 
L 1060.227347 335.790871 
L 1060.57539 328.849812 
L 1060.923433 339.889737 
L 1061.619519 335.53249 
L 1061.967562 336.495547 
L 1062.315606 335.673425 
L 1062.663649 335.602958 
L 1063.011692 334.874792 
L 1063.359735 336.11972 
L 1063.707778 331.668516 
L 1064.403864 338.515619 
L 1064.751907 335.955296 
L 1065.09995 334.957005 
L 1065.447993 335.285854 
L 1065.796036 334.405008 
L 1066.144079 334.322796 
L 1066.492122 325.772726 
L 1066.840165 335.09794 
L 1067.188208 333.500674 
L 1067.536251 335.884828 
L 1067.884294 332.420171 
L 1068.232337 325.349921 
L 1068.58038 326.911953 
L 1068.928423 334.886537 
L 1069.276466 333.759055 
L 1069.624509 333.594631 
L 1069.972552 333.735566 
L 1070.320595 328.814578 
L 1070.668638 321.720839 
L 1071.016681 332.737275 
L 1071.364724 333.453696 
L 1071.712768 330.693714 
L 1072.060811 324.011036 
L 1072.408854 335.215386 
L 1072.756897 335.039217 
L 1073.10494 332.032599 
L 1073.452983 334.334541 
L 1073.801026 330.670225 
L 1074.149069 330.505801 
L 1074.497112 331.891664 
L 1074.845155 332.173534 
L 1075.193198 330.881628 
L 1075.541241 332.314469 
L 1075.889284 332.326214 
L 1076.237327 327.616629 
L 1076.58537 327.076377 
L 1076.933413 334.769091 
L 1077.281456 333.524163 
L 1077.629499 327.910244 
L 1077.977542 331.680261 
L 1078.325585 330.541034 
L 1078.673628 325.115029 
L 1079.021671 330.259164 
L 1079.369714 331.527581 
L 1079.717757 324.469076 
L 1080.413843 335.955296 
L 1080.761887 335.25062 
L 1081.10993 326.911953 
L 1081.457973 325.561323 
L 1081.806016 304.796868 
L 1082.154059 332.326214 
L 1082.502102 328.192114 
L 1082.850145 326.747528 
L 1083.198188 331.574559 
L 1083.546231 331.70375 
L 1083.894274 333.383228 
L 1084.242317 332.373192 
L 1084.59036 331.809451 
L 1084.938403 334.804325 
L 1085.286446 330.047761 
L 1085.634489 327.076377 
L 1085.982532 327.546161 
L 1086.330575 331.774218 
L 1087.374704 316.471002 
L 1087.722747 310.539978 
L 1088.07079 312.360391 
L 1088.766876 332.87821 
L 1089.114919 334.79258 
L 1089.462962 334.863048 
L 1089.811005 327.910244 
L 1090.159049 309.858791 
L 1090.507092 301.94293 
L 1090.855135 327.475694 
L 1091.203178 325.126773 
L 1091.551221 316.893808 
L 1091.899264 332.901699 
L 1092.247307 334.35803 
L 1092.59535 322.56645 
L 1092.943393 314.744545 
L 1093.291436 317.481038 
L 1093.639479 318.232692 
L 1093.987522 333.782545 
L 1094.335565 327.029399 
L 1094.683608 325.702259 
L 1095.031651 323.235892 
L 1095.379694 315.695858 
L 1095.727737 313.828467 
L 1096.07578 328.579686 
L 1097.119909 310.939295 
L 1097.467952 325.937151 
L 1097.815995 315.226074 
L 1098.164038 319.383663 
L 1098.512081 327.510927 
L 1099.208167 298.54874 
L 1099.556211 322.848321 
L 1099.904254 270.655311 
L 1100.252297 319.430641 
L 1100.60034 301.555358 
L 1100.948383 305.207929 
L 1101.296426 310.704403 
L 1101.644469 319.6303 
L 1101.992512 314.145571 
L 1102.340555 300.451365 
L 1102.688598 269.245959 
L 1103.036641 321.074886 
L 1103.384684 321.474202 
L 1103.732727 314.697567 
L 1104.08077 303.011689 
L 1104.428813 316.788106 
L 1104.776856 211.626944 
L 1105.124899 147.383974 
L 1105.472942 156.885356 
L 1105.820985 298.208147 
L 1106.169028 310.269852 
L 1106.865114 279.217126 
L 1107.213157 290.809048 
L 1107.5612 193.293621 
L 1107.909243 318.15048 
L 1108.257286 320.945695 
L 1108.60533 292.089209 
L 1108.953373 293.780432 
L 1109.301416 282.024086 
L 1109.649459 206.670722 
L 1109.997502 300.122517 
L 1110.345545 288.201746 
L 1110.693588 288.38966 
L 1111.041631 296.282032 
L 1111.389674 293.498561 
L 1111.737717 310.070194 
L 1112.08576 226.483865 
L 1112.433803 288.565829 
L 1112.781846 298.607463 
L 1113.129889 293.921367 
L 1113.477932 274.96558 
L 1113.825975 278.829554 
L 1114.174018 267.237632 
L 1114.522061 142.087158 
L 1114.870104 183.263731 
L 1115.218147 254.154146 
L 1115.56619 273.344825 
L 1115.914233 212.578257 
L 1116.262276 284.361261 
L 1116.958362 258.182545 
L 1117.306405 261.69418 
L 1117.654448 245.709778 
L 1118.002492 276.304465 
L 1118.350535 286.299121 
L 1118.698578 251.852204 
L 1119.046621 236.889582 
L 1119.394664 308.848755 
L 1119.742707 152.398919 
L 1120.09075 124.693404 
L 1120.438793 250.654255 
L 1120.786836 266.356787 
L 1121.134879 223.359801 
L 1121.482922 228.903253 
L 1121.830965 149.333578 
L 1122.179008 152.50462 
L 1122.527051 236.572478 
L 1122.875094 262.128731 
L 1123.223137 324.363374 
L 1123.919223 181.760422 
L 1124.267266 111.797831 
L 1124.615309 182.911393 
L 1124.963352 314.204294 
L 1124.963352 314.204294 
" clip-path="url(#p08f4609bc3)" style="fill: none; stroke: #008080; stroke-width: 1.5; stroke-linecap: square"/>
   </g>
   <g id="patch_3">
    <path d="M 59.690625 356.477812 
L 59.690625 23.837812 
" style="fill: none; stroke: #000000; stroke-width: 0.8; stroke-linejoin: miter; stroke-linecap: square"/>
   </g>
   <g id="patch_4">
    <path d="M 1175.690625 356.477812 
L 1175.690625 23.837812 
" style="fill: none; stroke: #000000; stroke-width: 0.8; stroke-linejoin: miter; stroke-linecap: square"/>
   </g>
   <g id="patch_5">
    <path d="M 59.690625 356.477812 
L 1175.690625 356.477812 
" style="fill: none; stroke: #000000; stroke-width: 0.8; stroke-linejoin: miter; stroke-linecap: square"/>
   </g>
   <g id="patch_6">
    <path d="M 59.690625 23.837812 
L 1175.690625 23.837812 
" style="fill: none; stroke: #000000; stroke-width: 0.8; stroke-linejoin: miter; stroke-linecap: square"/>
   </g>
   <g id="text_17">
    <!-- Toronto Island Ferry Ticket Redemptions -->
    <g transform="translate(477.780313 17.837812) scale(0.14 -0.14)">
     <defs>
      <path id="DejaVuSans-72" d="M 2631 2963 
Q 2534 3019 2420 3045 
Q 2306 3072 2169 3072 
Q 1681 3072 1420 2755 
Q 1159 2438 1159 1844 
L 1159 0 
L 581 0 
L 581 3500 
L 1159 3500 
L 1159 2956 
Q 1341 3275 1631 3429 
Q 1922 3584 2338 3584 
Q 2397 3584 2469 3576 
Q 2541 3569 2628 3553 
L 2631 2963 
z
" transform="scale(0.015625)"/>
      <path id="DejaVuSans-49" d="M 628 4666 
L 1259 4666 
L 1259 0 
L 628 0 
L 628 4666 
z
" transform="scale(0.015625)"/>
      <path id="DejaVuSans-6c" d="M 603 4863 
L 1178 4863 
L 1178 0 
L 603 0 
L 603 4863 
z
" transform="scale(0.015625)"/>
      <path id="DejaVuSans-46" d="M 628 4666 
L 3309 4666 
L 3309 4134 
L 1259 4134 
L 1259 2759 
L 3109 2759 
L 3109 2228 
L 1259 2228 
L 1259 0 
L 628 0 
L 628 4666 
z
" transform="scale(0.015625)"/>
      <path id="DejaVuSans-79" d="M 2059 -325 
Q 1816 -950 1584 -1140 
Q 1353 -1331 966 -1331 
L 506 -1331 
L 506 -850 
L 844 -850 
Q 1081 -850 1212 -737 
Q 1344 -625 1503 -206 
L 1606 56 
L 191 3500 
L 800 3500 
L 1894 763 
L 2988 3500 
L 3597 3500 
L 2059 -325 
z
" transform="scale(0.015625)"/>
     </defs>
     <use xlink:href="#DejaVuSans-54"/>
     <use xlink:href="#DejaVuSans-6f" x="44.083984"/>
     <use xlink:href="#DejaVuSans-72" x="105.265625"/>
     <use xlink:href="#DejaVuSans-6f" x="144.128906"/>
     <use xlink:href="#DejaVuSans-6e" x="205.310547"/>
     <use xlink:href="#DejaVuSans-74" x="268.689453"/>
     <use xlink:href="#DejaVuSans-6f" x="307.898438"/>
     <use xlink:href="#DejaVuSans-20" x="369.080078"/>
     <use xlink:href="#DejaVuSans-49" x="400.867188"/>
     <use xlink:href="#DejaVuSans-73" x="430.359375"/>
     <use xlink:href="#DejaVuSans-6c" x="482.458984"/>
     <use xlink:href="#DejaVuSans-61" x="510.242188"/>
     <use xlink:href="#DejaVuSans-6e" x="571.521484"/>
     <use xlink:href="#DejaVuSans-64" x="634.900391"/>
     <use xlink:href="#DejaVuSans-20" x="698.376953"/>
     <use xlink:href="#DejaVuSans-46" x="730.164062"/>
     <use xlink:href="#DejaVuSans-65" x="782.183594"/>
     <use xlink:href="#DejaVuSans-72" x="843.707031"/>
     <use xlink:href="#DejaVuSans-72" x="883.070312"/>
     <use xlink:href="#DejaVuSans-79" x="924.183594"/>
     <use xlink:href="#DejaVuSans-20" x="983.363281"/>
     <use xlink:href="#DejaVuSans-54" x="1015.150391"/>
     <use xlink:href="#DejaVuSans-69" x="1073.109375"/>
     <use xlink:href="#DejaVuSans-63" x="1100.892578"/>
     <use xlink:href="#DejaVuSans-6b" x="1155.873047"/>
     <use xlink:href="#DejaVuSans-65" x="1210.158203"/>
     <use xlink:href="#DejaVuSans-74" x="1271.681641"/>
     <use xlink:href="#DejaVuSans-20" x="1310.890625"/>
     <use xlink:href="#DejaVuSans-52" x="1342.677734"/>
     <use xlink:href="#DejaVuSans-65" x="1407.660156"/>
     <use xlink:href="#DejaVuSans-64" x="1469.183594"/>
     <use xlink:href="#DejaVuSans-65" x="1532.660156"/>
     <use xlink:href="#DejaVuSans-6d" x="1594.183594"/>
     <use xlink:href="#DejaVuSans-70" x="1691.595703"/>
     <use xlink:href="#DejaVuSans-74" x="1755.072266"/>
     <use xlink:href="#DejaVuSans-69" x="1794.28125"/>
     <use xlink:href="#DejaVuSans-6f" x="1822.064453"/>
     <use xlink:href="#DejaVuSans-6e" x="1883.246094"/>
     <use xlink:href="#DejaVuSans-73" x="1946.625"/>
    </g>
   </g>
  </g>
  <g id="text_18">
   <!-- (Data from 2016-07-22 20:45:00 to 2024-07-15 15:00:00) -->
   <g style="fill: #808080" transform="translate(454.635938 399.677812) scale(0.1 -0.1)">
    <defs>
     <path id="DejaVuSans-28" d="M 1984 4856 
Q 1566 4138 1362 3434 
Q 1159 2731 1159 2009 
Q 1159 1288 1364 580 
Q 1569 -128 1984 -844 
L 1484 -844 
Q 1016 -109 783 600 
Q 550 1309 550 2009 
Q 550 2706 781 3412 
Q 1013 4119 1484 4856 
L 1984 4856 
z
" transform="scale(0.015625)"/>
     <path id="DejaVuSans-66" d="M 2375 4863 
L 2375 4384 
L 1825 4384 
Q 1516 4384 1395 4259 
Q 1275 4134 1275 3809 
L 1275 3500 
L 2222 3500 
L 2222 3053 
L 1275 3053 
L 1275 0 
L 697 0 
L 697 3053 
L 147 3053 
L 147 3500 
L 697 3500 
L 697 3744 
Q 697 4328 969 4595 
Q 1241 4863 1831 4863 
L 2375 4863 
z
" transform="scale(0.015625)"/>
     <path id="DejaVuSans-36" d="M 2113 2584 
Q 1688 2584 1439 2293 
Q 1191 2003 1191 1497 
Q 1191 994 1439 701 
Q 1688 409 2113 409 
Q 2538 409 2786 701 
Q 3034 994 3034 1497 
Q 3034 2003 2786 2293 
Q 2538 2584 2113 2584 
z
M 3366 4563 
L 3366 3988 
Q 3128 4100 2886 4159 
Q 2644 4219 2406 4219 
Q 1781 4219 1451 3797 
Q 1122 3375 1075 2522 
Q 1259 2794 1537 2939 
Q 1816 3084 2150 3084 
Q 2853 3084 3261 2657 
Q 3669 2231 3669 1497 
Q 3669 778 3244 343 
Q 2819 -91 2113 -91 
Q 1303 -91 875 529 
Q 447 1150 447 2328 
Q 447 3434 972 4092 
Q 1497 4750 2381 4750 
Q 2619 4750 2861 4703 
Q 3103 4656 3366 4563 
z
" transform="scale(0.015625)"/>
     <path id="DejaVuSans-2d" d="M 313 2009 
L 1997 2009 
L 1997 1497 
L 313 1497 
L 313 2009 
z
" transform="scale(0.015625)"/>
     <path id="DejaVuSans-3a" d="M 750 794 
L 1409 794 
L 1409 0 
L 750 0 
L 750 794 
z
M 750 3309 
L 1409 3309 
L 1409 2516 
L 750 2516 
L 750 3309 
z
" transform="scale(0.015625)"/>
     <path id="DejaVuSans-29" d="M 513 4856 
L 1013 4856 
Q 1481 4119 1714 3412 
Q 1947 2706 1947 2009 
Q 1947 1309 1714 600 
Q 1481 -109 1013 -844 
L 513 -844 
Q 928 -128 1133 580 
Q 1338 1288 1338 2009 
Q 1338 2731 1133 3434 
Q 928 4138 513 4856 
z
" transform="scale(0.015625)"/>
    </defs>
    <use xlink:href="#DejaVuSans-28"/>
    <use xlink:href="#DejaVuSans-44" x="39.013672"/>
    <use xlink:href="#DejaVuSans-61" x="116.015625"/>
    <use xlink:href="#DejaVuSans-74" x="177.294922"/>
    <use xlink:href="#DejaVuSans-61" x="216.503906"/>
    <use xlink:href="#DejaVuSans-20" x="277.783203"/>
    <use xlink:href="#DejaVuSans-66" x="309.570312"/>
    <use xlink:href="#DejaVuSans-72" x="344.775391"/>
    <use xlink:href="#DejaVuSans-6f" x="383.638672"/>
    <use xlink:href="#DejaVuSans-6d" x="444.820312"/>
    <use xlink:href="#DejaVuSans-20" x="542.232422"/>
    <use xlink:href="#DejaVuSans-32" x="574.019531"/>
    <use xlink:href="#DejaVuSans-30" x="637.642578"/>
    <use xlink:href="#DejaVuSans-31" x="701.265625"/>
    <use xlink:href="#DejaVuSans-36" x="764.888672"/>
    <use xlink:href="#DejaVuSans-2d" x="828.511719"/>
    <use xlink:href="#DejaVuSans-30" x="864.595703"/>
    <use xlink:href="#DejaVuSans-37" x="928.21875"/>
    <use xlink:href="#DejaVuSans-2d" x="991.841797"/>
    <use xlink:href="#DejaVuSans-32" x="1027.925781"/>
    <use xlink:href="#DejaVuSans-32" x="1091.548828"/>
    <use xlink:href="#DejaVuSans-20" x="1155.171875"/>
    <use xlink:href="#DejaVuSans-32" x="1186.958984"/>
    <use xlink:href="#DejaVuSans-30" x="1250.582031"/>
    <use xlink:href="#DejaVuSans-3a" x="1314.205078"/>
    <use xlink:href="#DejaVuSans-34" x="1347.896484"/>
    <use xlink:href="#DejaVuSans-35" x="1411.519531"/>
    <use xlink:href="#DejaVuSans-3a" x="1475.142578"/>
    <use xlink:href="#DejaVuSans-30" x="1508.833984"/>
    <use xlink:href="#DejaVuSans-30" x="1572.457031"/>
    <use xlink:href="#DejaVuSans-20" x="1636.080078"/>
    <use xlink:href="#DejaVuSans-74" x="1667.867188"/>
    <use xlink:href="#DejaVuSans-6f" x="1707.076172"/>
    <use xlink:href="#DejaVuSans-20" x="1768.257812"/>
    <use xlink:href="#DejaVuSans-32" x="1800.044922"/>
    <use xlink:href="#DejaVuSans-30" x="1863.667969"/>
    <use xlink:href="#DejaVuSans-32" x="1927.291016"/>
    <use xlink:href="#DejaVuSans-34" x="1990.914062"/>
    <use xlink:href="#DejaVuSans-2d" x="2054.537109"/>
    <use xlink:href="#DejaVuSans-30" x="2090.621094"/>
    <use xlink:href="#DejaVuSans-37" x="2154.244141"/>
    <use xlink:href="#DejaVuSans-2d" x="2217.867188"/>
    <use xlink:href="#DejaVuSans-31" x="2253.951172"/>
    <use xlink:href="#DejaVuSans-35" x="2317.574219"/>
    <use xlink:href="#DejaVuSans-20" x="2381.197266"/>
    <use xlink:href="#DejaVuSans-31" x="2412.984375"/>
    <use xlink:href="#DejaVuSans-35" x="2476.607422"/>
    <use xlink:href="#DejaVuSans-3a" x="2540.230469"/>
    <use xlink:href="#DejaVuSans-30" x="2573.921875"/>
    <use xlink:href="#DejaVuSans-30" x="2637.544922"/>
    <use xlink:href="#DejaVuSans-3a" x="2701.167969"/>
    <use xlink:href="#DejaVuSans-30" x="2734.859375"/>
    <use xlink:href="#DejaVuSans-30" x="2798.482422"/>
    <use xlink:href="#DejaVuSans-29" x="2862.105469"/>
   </g>
  </g>
 </g>
 <defs>
  <clipPath id="p08f4609bc3">
   <rect x="59.690625" y="23.837812" width="1116" height="332.64"/>
  </clipPath>
 </defs>
</svg>
