<?xml version="1.0" encoding="utf-8" standalone="no"?>
<!DOCTYPE svg PUBLIC "-//W3C//DTD SVG 1.1//EN"
  "http://www.w3.org/Graphics/SVG/1.1/DTD/svg11.dtd">
<svg xmlns:xlink="http://www.w3.org/1999/xlink" width="1190.243137pt" height="408.9575pt" viewBox="0 0 1190.243137 408.9575" xmlns="http://www.w3.org/2000/svg" version="1.1">
 <metadata>
  <rdf:RDF xmlns:dc="http://purl.org/dc/elements/1.1/" xmlns:cc="http://creativecommons.org/ns#" xmlns:rdf="http://www.w3.org/1999/02/22-rdf-syntax-ns#">
   <cc:Work>
    <dc:type rdf:resource="http://purl.org/dc/dcmitype/StillImage"/>
    <dc:date>2024-05-30T21:51:04.640093</dc:date>
    <dc:format>image/svg+xml</dc:format>
    <dc:creator>
     <cc:Agent>
      <dc:title>Matplotlib v3.8.4, https://matplotlib.org/</dc:title>
     </cc:Agent>
    </dc:creator>
   </cc:Work>
  </rdf:RDF>
 </metadata>
 <defs>
  <style type="text/css">*{stroke-linejoin: round; stroke-linecap: butt}</style>
 </defs>
 <g id="figure_1">
  <g id="patch_1">
   <path d="M 0 408.9575 
L 1190.243137 408.9575 
L 1190.243137 0 
L 0 0 
z
" style="fill: #ffffff"/>
  </g>
  <g id="axes_1">
   <g id="patch_2">
    <path d="M 59.690625 356.477812 
L 1175.690625 356.477812 
L 1175.690625 23.837812 
L 59.690625 23.837812 
z
" style="fill: #ffffff"/>
   </g>
   <g id="matplotlib.axis_1">
    <g id="xtick_1">
     <g id="line2d_1">
      <defs>
       <path id="m3123723a69" d="M 0 0 
L 0 3.5 
" style="stroke: #000000; stroke-width: 0.8"/>
      </defs>
      <g>
       <use xlink:href="#m3123723a69" x="102.28294" y="356.477812" style="stroke: #000000; stroke-width: 0.8"/>
      </g>
     </g>
     <g id="text_1">
      <!-- 2022-01 -->
      <g transform="translate(81.391534 371.07625) scale(0.1 -0.1)">
       <defs>
        <path id="DejaVuSans-32" d="M 1228 531 
L 3431 531 
L 3431 0 
L 469 0 
L 469 531 
Q 828 903 1448 1529 
Q 2069 2156 2228 2338 
Q 2531 2678 2651 2914 
Q 2772 3150 2772 3378 
Q 2772 3750 2511 3984 
Q 2250 4219 1831 4219 
Q 1534 4219 1204 4116 
Q 875 4013 500 3803 
L 500 4441 
Q 881 4594 1212 4672 
Q 1544 4750 1819 4750 
Q 2544 4750 2975 4387 
Q 3406 4025 3406 3419 
Q 3406 3131 3298 2873 
Q 3191 2616 2906 2266 
Q 2828 2175 2409 1742 
Q 1991 1309 1228 531 
z
" transform="scale(0.015625)"/>
        <path id="DejaVuSans-30" d="M 2034 4250 
Q 1547 4250 1301 3770 
Q 1056 3291 1056 2328 
Q 1056 1369 1301 889 
Q 1547 409 2034 409 
Q 2525 409 2770 889 
Q 3016 1369 3016 2328 
Q 3016 3291 2770 3770 
Q 2525 4250 2034 4250 
z
M 2034 4750 
Q 2819 4750 3233 4129 
Q 3647 3509 3647 2328 
Q 3647 1150 3233 529 
Q 2819 -91 2034 -91 
Q 1250 -91 836 529 
Q 422 1150 422 2328 
Q 422 3509 836 4129 
Q 1250 4750 2034 4750 
z
" transform="scale(0.015625)"/>
        <path id="DejaVuSans-2d" d="M 313 2009 
L 1997 2009 
L 1997 1497 
L 313 1497 
L 313 2009 
z
" transform="scale(0.015625)"/>
        <path id="DejaVuSans-31" d="M 794 531 
L 1825 531 
L 1825 4091 
L 703 3866 
L 703 4441 
L 1819 4666 
L 2450 4666 
L 2450 531 
L 3481 531 
L 3481 0 
L 794 0 
L 794 531 
z
" transform="scale(0.015625)"/>
       </defs>
       <use xlink:href="#DejaVuSans-32"/>
       <use xlink:href="#DejaVuSans-30" x="63.623047"/>
       <use xlink:href="#DejaVuSans-32" x="127.246094"/>
       <use xlink:href="#DejaVuSans-32" x="190.869141"/>
       <use xlink:href="#DejaVuSans-2d" x="254.492188"/>
       <use xlink:href="#DejaVuSans-30" x="290.576172"/>
       <use xlink:href="#DejaVuSans-31" x="354.199219"/>
      </g>
     </g>
    </g>
    <g id="xtick_2">
     <g id="line2d_2">
      <g>
       <use xlink:href="#m3123723a69" x="206.875255" y="356.477812" style="stroke: #000000; stroke-width: 0.8"/>
      </g>
     </g>
     <g id="text_2">
      <!-- 2022-04 -->
      <g transform="translate(185.983849 371.07625) scale(0.1 -0.1)">
       <defs>
        <path id="DejaVuSans-34" d="M 2419 4116 
L 825 1625 
L 2419 1625 
L 2419 4116 
z
M 2253 4666 
L 3047 4666 
L 3047 1625 
L 3713 1625 
L 3713 1100 
L 3047 1100 
L 3047 0 
L 2419 0 
L 2419 1100 
L 313 1100 
L 313 1709 
L 2253 4666 
z
" transform="scale(0.015625)"/>
       </defs>
       <use xlink:href="#DejaVuSans-32"/>
       <use xlink:href="#DejaVuSans-30" x="63.623047"/>
       <use xlink:href="#DejaVuSans-32" x="127.246094"/>
       <use xlink:href="#DejaVuSans-32" x="190.869141"/>
       <use xlink:href="#DejaVuSans-2d" x="254.492188"/>
       <use xlink:href="#DejaVuSans-30" x="290.576172"/>
       <use xlink:href="#DejaVuSans-34" x="354.199219"/>
      </g>
     </g>
    </g>
    <g id="xtick_3">
     <g id="line2d_3">
      <g>
       <use xlink:href="#m3123723a69" x="312.629707" y="356.477812" style="stroke: #000000; stroke-width: 0.8"/>
      </g>
     </g>
     <g id="text_3">
      <!-- 2022-07 -->
      <g transform="translate(291.7383 371.07625) scale(0.1 -0.1)">
       <defs>
        <path id="DejaVuSans-37" d="M 525 4666 
L 3525 4666 
L 3525 4397 
L 1831 0 
L 1172 0 
L 2766 4134 
L 525 4134 
L 525 4666 
z
" transform="scale(0.015625)"/>
       </defs>
       <use xlink:href="#DejaVuSans-32"/>
       <use xlink:href="#DejaVuSans-30" x="63.623047"/>
       <use xlink:href="#DejaVuSans-32" x="127.246094"/>
       <use xlink:href="#DejaVuSans-32" x="190.869141"/>
       <use xlink:href="#DejaVuSans-2d" x="254.492188"/>
       <use xlink:href="#DejaVuSans-30" x="290.576172"/>
       <use xlink:href="#DejaVuSans-37" x="354.199219"/>
      </g>
     </g>
    </g>
    <g id="xtick_4">
     <g id="line2d_4">
      <g>
       <use xlink:href="#m3123723a69" x="419.546295" y="356.477812" style="stroke: #000000; stroke-width: 0.8"/>
      </g>
     </g>
     <g id="text_4">
      <!-- 2022-10 -->
      <g transform="translate(398.654889 371.07625) scale(0.1 -0.1)">
       <use xlink:href="#DejaVuSans-32"/>
       <use xlink:href="#DejaVuSans-30" x="63.623047"/>
       <use xlink:href="#DejaVuSans-32" x="127.246094"/>
       <use xlink:href="#DejaVuSans-32" x="190.869141"/>
       <use xlink:href="#DejaVuSans-2d" x="254.492188"/>
       <use xlink:href="#DejaVuSans-31" x="290.576172"/>
       <use xlink:href="#DejaVuSans-30" x="354.199219"/>
      </g>
     </g>
    </g>
    <g id="xtick_5">
     <g id="line2d_5">
      <g>
       <use xlink:href="#m3123723a69" x="526.462884" y="356.477812" style="stroke: #000000; stroke-width: 0.8"/>
      </g>
     </g>
     <g id="text_5">
      <!-- 2023-01 -->
      <g transform="translate(505.571477 371.07625) scale(0.1 -0.1)">
       <defs>
        <path id="DejaVuSans-33" d="M 2597 2516 
Q 3050 2419 3304 2112 
Q 3559 1806 3559 1356 
Q 3559 666 3084 287 
Q 2609 -91 1734 -91 
Q 1441 -91 1130 -33 
Q 819 25 488 141 
L 488 750 
Q 750 597 1062 519 
Q 1375 441 1716 441 
Q 2309 441 2620 675 
Q 2931 909 2931 1356 
Q 2931 1769 2642 2001 
Q 2353 2234 1838 2234 
L 1294 2234 
L 1294 2753 
L 1863 2753 
Q 2328 2753 2575 2939 
Q 2822 3125 2822 3475 
Q 2822 3834 2567 4026 
Q 2313 4219 1838 4219 
Q 1578 4219 1281 4162 
Q 984 4106 628 3988 
L 628 4550 
Q 988 4650 1302 4700 
Q 1616 4750 1894 4750 
Q 2613 4750 3031 4423 
Q 3450 4097 3450 3541 
Q 3450 3153 3228 2886 
Q 3006 2619 2597 2516 
z
" transform="scale(0.015625)"/>
       </defs>
       <use xlink:href="#DejaVuSans-32"/>
       <use xlink:href="#DejaVuSans-30" x="63.623047"/>
       <use xlink:href="#DejaVuSans-32" x="127.246094"/>
       <use xlink:href="#DejaVuSans-33" x="190.869141"/>
       <use xlink:href="#DejaVuSans-2d" x="254.492188"/>
       <use xlink:href="#DejaVuSans-30" x="290.576172"/>
       <use xlink:href="#DejaVuSans-31" x="354.199219"/>
      </g>
     </g>
    </g>
    <g id="xtick_6">
     <g id="line2d_6">
      <g>
       <use xlink:href="#m3123723a69" x="631.055199" y="356.477812" style="stroke: #000000; stroke-width: 0.8"/>
      </g>
     </g>
     <g id="text_6">
      <!-- 2023-04 -->
      <g transform="translate(610.163792 371.07625) scale(0.1 -0.1)">
       <use xlink:href="#DejaVuSans-32"/>
       <use xlink:href="#DejaVuSans-30" x="63.623047"/>
       <use xlink:href="#DejaVuSans-32" x="127.246094"/>
       <use xlink:href="#DejaVuSans-33" x="190.869141"/>
       <use xlink:href="#DejaVuSans-2d" x="254.492188"/>
       <use xlink:href="#DejaVuSans-30" x="290.576172"/>
       <use xlink:href="#DejaVuSans-34" x="354.199219"/>
      </g>
     </g>
    </g>
    <g id="xtick_7">
     <g id="line2d_7">
      <g>
       <use xlink:href="#m3123723a69" x="736.80965" y="356.477812" style="stroke: #000000; stroke-width: 0.8"/>
      </g>
     </g>
     <g id="text_7">
      <!-- 2023-07 -->
      <g transform="translate(715.918244 371.07625) scale(0.1 -0.1)">
       <use xlink:href="#DejaVuSans-32"/>
       <use xlink:href="#DejaVuSans-30" x="63.623047"/>
       <use xlink:href="#DejaVuSans-32" x="127.246094"/>
       <use xlink:href="#DejaVuSans-33" x="190.869141"/>
       <use xlink:href="#DejaVuSans-2d" x="254.492188"/>
       <use xlink:href="#DejaVuSans-30" x="290.576172"/>
       <use xlink:href="#DejaVuSans-37" x="354.199219"/>
      </g>
     </g>
    </g>
    <g id="xtick_8">
     <g id="line2d_8">
      <g>
       <use xlink:href="#m3123723a69" x="843.726239" y="356.477812" style="stroke: #000000; stroke-width: 0.8"/>
      </g>
     </g>
     <g id="text_8">
      <!-- 2023-10 -->
      <g transform="translate(822.834833 371.07625) scale(0.1 -0.1)">
       <use xlink:href="#DejaVuSans-32"/>
       <use xlink:href="#DejaVuSans-30" x="63.623047"/>
       <use xlink:href="#DejaVuSans-32" x="127.246094"/>
       <use xlink:href="#DejaVuSans-33" x="190.869141"/>
       <use xlink:href="#DejaVuSans-2d" x="254.492188"/>
       <use xlink:href="#DejaVuSans-31" x="290.576172"/>
       <use xlink:href="#DejaVuSans-30" x="354.199219"/>
      </g>
     </g>
    </g>
    <g id="xtick_9">
     <g id="line2d_9">
      <g>
       <use xlink:href="#m3123723a69" x="950.642827" y="356.477812" style="stroke: #000000; stroke-width: 0.8"/>
      </g>
     </g>
     <g id="text_9">
      <!-- 2024-01 -->
      <g transform="translate(929.751421 371.07625) scale(0.1 -0.1)">
       <use xlink:href="#DejaVuSans-32"/>
       <use xlink:href="#DejaVuSans-30" x="63.623047"/>
       <use xlink:href="#DejaVuSans-32" x="127.246094"/>
       <use xlink:href="#DejaVuSans-34" x="190.869141"/>
       <use xlink:href="#DejaVuSans-2d" x="254.492188"/>
       <use xlink:href="#DejaVuSans-30" x="290.576172"/>
       <use xlink:href="#DejaVuSans-31" x="354.199219"/>
      </g>
     </g>
    </g>
    <g id="xtick_10">
     <g id="line2d_10">
      <g>
       <use xlink:href="#m3123723a69" x="1056.397279" y="356.477812" style="stroke: #000000; stroke-width: 0.8"/>
      </g>
     </g>
     <g id="text_10">
      <!-- 2024-04 -->
      <g transform="translate(1035.505873 371.07625) scale(0.1 -0.1)">
       <use xlink:href="#DejaVuSans-32"/>
       <use xlink:href="#DejaVuSans-30" x="63.623047"/>
       <use xlink:href="#DejaVuSans-32" x="127.246094"/>
       <use xlink:href="#DejaVuSans-34" x="190.869141"/>
       <use xlink:href="#DejaVuSans-2d" x="254.492188"/>
       <use xlink:href="#DejaVuSans-30" x="290.576172"/>
       <use xlink:href="#DejaVuSans-34" x="354.199219"/>
      </g>
     </g>
    </g>
    <g id="xtick_11">
     <g id="line2d_11">
      <g>
       <use xlink:href="#m3123723a69" x="1162.151731" y="356.477812" style="stroke: #000000; stroke-width: 0.8"/>
      </g>
     </g>
     <g id="text_11">
      <!-- 2024-07 -->
      <g transform="translate(1141.260325 371.07625) scale(0.1 -0.1)">
       <use xlink:href="#DejaVuSans-32"/>
       <use xlink:href="#DejaVuSans-30" x="63.623047"/>
       <use xlink:href="#DejaVuSans-32" x="127.246094"/>
       <use xlink:href="#DejaVuSans-34" x="190.869141"/>
       <use xlink:href="#DejaVuSans-2d" x="254.492188"/>
       <use xlink:href="#DejaVuSans-30" x="290.576172"/>
       <use xlink:href="#DejaVuSans-37" x="354.199219"/>
      </g>
     </g>
    </g>
    <g id="text_12">
     <!-- Date -->
     <g transform="translate(605.739844 384.754375) scale(0.1 -0.1)">
      <defs>
       <path id="DejaVuSans-44" d="M 1259 4147 
L 1259 519 
L 2022 519 
Q 2988 519 3436 956 
Q 3884 1394 3884 2338 
Q 3884 3275 3436 3711 
Q 2988 4147 2022 4147 
L 1259 4147 
z
M 628 4666 
L 1925 4666 
Q 3281 4666 3915 4102 
Q 4550 3538 4550 2338 
Q 4550 1131 3912 565 
Q 3275 0 1925 0 
L 628 0 
L 628 4666 
z
" transform="scale(0.015625)"/>
       <path id="DejaVuSans-61" d="M 2194 1759 
Q 1497 1759 1228 1600 
Q 959 1441 959 1056 
Q 959 750 1161 570 
Q 1363 391 1709 391 
Q 2188 391 2477 730 
Q 2766 1069 2766 1631 
L 2766 1759 
L 2194 1759 
z
M 3341 1997 
L 3341 0 
L 2766 0 
L 2766 531 
Q 2569 213 2275 61 
Q 1981 -91 1556 -91 
Q 1019 -91 701 211 
Q 384 513 384 1019 
Q 384 1609 779 1909 
Q 1175 2209 1959 2209 
L 2766 2209 
L 2766 2266 
Q 2766 2663 2505 2880 
Q 2244 3097 1772 3097 
Q 1472 3097 1187 3025 
Q 903 2953 641 2809 
L 641 3341 
Q 956 3463 1253 3523 
Q 1550 3584 1831 3584 
Q 2591 3584 2966 3190 
Q 3341 2797 3341 1997 
z
" transform="scale(0.015625)"/>
       <path id="DejaVuSans-74" d="M 1172 4494 
L 1172 3500 
L 2356 3500 
L 2356 3053 
L 1172 3053 
L 1172 1153 
Q 1172 725 1289 603 
Q 1406 481 1766 481 
L 2356 481 
L 2356 0 
L 1766 0 
Q 1100 0 847 248 
Q 594 497 594 1153 
L 594 3053 
L 172 3053 
L 172 3500 
L 594 3500 
L 594 4494 
L 1172 4494 
z
" transform="scale(0.015625)"/>
       <path id="DejaVuSans-65" d="M 3597 1894 
L 3597 1613 
L 953 1613 
Q 991 1019 1311 708 
Q 1631 397 2203 397 
Q 2534 397 2845 478 
Q 3156 559 3463 722 
L 3463 178 
Q 3153 47 2828 -22 
Q 2503 -91 2169 -91 
Q 1331 -91 842 396 
Q 353 884 353 1716 
Q 353 2575 817 3079 
Q 1281 3584 2069 3584 
Q 2775 3584 3186 3129 
Q 3597 2675 3597 1894 
z
M 3022 2063 
Q 3016 2534 2758 2815 
Q 2500 3097 2075 3097 
Q 1594 3097 1305 2825 
Q 1016 2553 972 2059 
L 3022 2063 
z
" transform="scale(0.015625)"/>
      </defs>
      <use xlink:href="#DejaVuSans-44"/>
      <use xlink:href="#DejaVuSans-61" x="77.001953"/>
      <use xlink:href="#DejaVuSans-74" x="138.28125"/>
      <use xlink:href="#DejaVuSans-65" x="177.490234"/>
     </g>
    </g>
   </g>
   <g id="matplotlib.axis_2">
    <g id="ytick_1">
     <g id="line2d_12">
      <defs>
       <path id="m3cde98f74a" d="M 0 0 
L -3.5 0 
" style="stroke: #000000; stroke-width: 0.8"/>
      </defs>
      <g>
       <use xlink:href="#m3cde98f74a" x="59.690625" y="341.357812" style="stroke: #000000; stroke-width: 0.8"/>
      </g>
     </g>
     <g id="text_13">
      <!-- 0 -->
      <g transform="translate(46.328125 345.157031) scale(0.1 -0.1)">
       <use xlink:href="#DejaVuSans-30"/>
      </g>
     </g>
    </g>
    <g id="ytick_2">
     <g id="line2d_13">
      <g>
       <use xlink:href="#m3cde98f74a" x="59.690625" y="275.036205" style="stroke: #000000; stroke-width: 0.8"/>
      </g>
     </g>
     <g id="text_14">
      <!-- 5000 -->
      <g transform="translate(27.240625 278.835424) scale(0.1 -0.1)">
       <defs>
        <path id="DejaVuSans-35" d="M 691 4666 
L 3169 4666 
L 3169 4134 
L 1269 4134 
L 1269 2991 
Q 1406 3038 1543 3061 
Q 1681 3084 1819 3084 
Q 2600 3084 3056 2656 
Q 3513 2228 3513 1497 
Q 3513 744 3044 326 
Q 2575 -91 1722 -91 
Q 1428 -91 1123 -41 
Q 819 9 494 109 
L 494 744 
Q 775 591 1075 516 
Q 1375 441 1709 441 
Q 2250 441 2565 725 
Q 2881 1009 2881 1497 
Q 2881 1984 2565 2268 
Q 2250 2553 1709 2553 
Q 1456 2553 1204 2497 
Q 953 2441 691 2322 
L 691 4666 
z
" transform="scale(0.015625)"/>
       </defs>
       <use xlink:href="#DejaVuSans-35"/>
       <use xlink:href="#DejaVuSans-30" x="63.623047"/>
       <use xlink:href="#DejaVuSans-30" x="127.246094"/>
       <use xlink:href="#DejaVuSans-30" x="190.869141"/>
      </g>
     </g>
    </g>
    <g id="ytick_3">
     <g id="line2d_14">
      <g>
       <use xlink:href="#m3cde98f74a" x="59.690625" y="208.714598" style="stroke: #000000; stroke-width: 0.8"/>
      </g>
     </g>
     <g id="text_15">
      <!-- 10000 -->
      <g transform="translate(20.878125 212.513817) scale(0.1 -0.1)">
       <use xlink:href="#DejaVuSans-31"/>
       <use xlink:href="#DejaVuSans-30" x="63.623047"/>
       <use xlink:href="#DejaVuSans-30" x="127.246094"/>
       <use xlink:href="#DejaVuSans-30" x="190.869141"/>
       <use xlink:href="#DejaVuSans-30" x="254.492188"/>
      </g>
     </g>
    </g>
    <g id="ytick_4">
     <g id="line2d_15">
      <g>
       <use xlink:href="#m3cde98f74a" x="59.690625" y="142.392991" style="stroke: #000000; stroke-width: 0.8"/>
      </g>
     </g>
     <g id="text_16">
      <!-- 15000 -->
      <g transform="translate(20.878125 146.19221) scale(0.1 -0.1)">
       <use xlink:href="#DejaVuSans-31"/>
       <use xlink:href="#DejaVuSans-35" x="63.623047"/>
       <use xlink:href="#DejaVuSans-30" x="127.246094"/>
       <use xlink:href="#DejaVuSans-30" x="190.869141"/>
       <use xlink:href="#DejaVuSans-30" x="254.492188"/>
      </g>
     </g>
    </g>
    <g id="ytick_5">
     <g id="line2d_16">
      <g>
       <use xlink:href="#m3cde98f74a" x="59.690625" y="76.071384" style="stroke: #000000; stroke-width: 0.8"/>
      </g>
     </g>
     <g id="text_17">
      <!-- 20000 -->
      <g transform="translate(20.878125 79.870603) scale(0.1 -0.1)">
       <use xlink:href="#DejaVuSans-32"/>
       <use xlink:href="#DejaVuSans-30" x="63.623047"/>
       <use xlink:href="#DejaVuSans-30" x="127.246094"/>
       <use xlink:href="#DejaVuSans-30" x="190.869141"/>
       <use xlink:href="#DejaVuSans-30" x="254.492188"/>
      </g>
     </g>
    </g>
    <g id="text_18">
     <!-- Ticket Redemptions -->
     <g transform="translate(14.798438 239.336719) rotate(-90) scale(0.1 -0.1)">
      <defs>
       <path id="DejaVuSans-54" d="M -19 4666 
L 3928 4666 
L 3928 4134 
L 2272 4134 
L 2272 0 
L 1638 0 
L 1638 4134 
L -19 4134 
L -19 4666 
z
" transform="scale(0.015625)"/>
       <path id="DejaVuSans-69" d="M 603 3500 
L 1178 3500 
L 1178 0 
L 603 0 
L 603 3500 
z
M 603 4863 
L 1178 4863 
L 1178 4134 
L 603 4134 
L 603 4863 
z
" transform="scale(0.015625)"/>
       <path id="DejaVuSans-63" d="M 3122 3366 
L 3122 2828 
Q 2878 2963 2633 3030 
Q 2388 3097 2138 3097 
Q 1578 3097 1268 2742 
Q 959 2388 959 1747 
Q 959 1106 1268 751 
Q 1578 397 2138 397 
Q 2388 397 2633 464 
Q 2878 531 3122 666 
L 3122 134 
Q 2881 22 2623 -34 
Q 2366 -91 2075 -91 
Q 1284 -91 818 406 
Q 353 903 353 1747 
Q 353 2603 823 3093 
Q 1294 3584 2113 3584 
Q 2378 3584 2631 3529 
Q 2884 3475 3122 3366 
z
" transform="scale(0.015625)"/>
       <path id="DejaVuSans-6b" d="M 581 4863 
L 1159 4863 
L 1159 1991 
L 2875 3500 
L 3609 3500 
L 1753 1863 
L 3688 0 
L 2938 0 
L 1159 1709 
L 1159 0 
L 581 0 
L 581 4863 
z
" transform="scale(0.015625)"/>
       <path id="DejaVuSans-20" transform="scale(0.015625)"/>
       <path id="DejaVuSans-52" d="M 2841 2188 
Q 3044 2119 3236 1894 
Q 3428 1669 3622 1275 
L 4263 0 
L 3584 0 
L 2988 1197 
Q 2756 1666 2539 1819 
Q 2322 1972 1947 1972 
L 1259 1972 
L 1259 0 
L 628 0 
L 628 4666 
L 2053 4666 
Q 2853 4666 3247 4331 
Q 3641 3997 3641 3322 
Q 3641 2881 3436 2590 
Q 3231 2300 2841 2188 
z
M 1259 4147 
L 1259 2491 
L 2053 2491 
Q 2509 2491 2742 2702 
Q 2975 2913 2975 3322 
Q 2975 3731 2742 3939 
Q 2509 4147 2053 4147 
L 1259 4147 
z
" transform="scale(0.015625)"/>
       <path id="DejaVuSans-64" d="M 2906 2969 
L 2906 4863 
L 3481 4863 
L 3481 0 
L 2906 0 
L 2906 525 
Q 2725 213 2448 61 
Q 2172 -91 1784 -91 
Q 1150 -91 751 415 
Q 353 922 353 1747 
Q 353 2572 751 3078 
Q 1150 3584 1784 3584 
Q 2172 3584 2448 3432 
Q 2725 3281 2906 2969 
z
M 947 1747 
Q 947 1113 1208 752 
Q 1469 391 1925 391 
Q 2381 391 2643 752 
Q 2906 1113 2906 1747 
Q 2906 2381 2643 2742 
Q 2381 3103 1925 3103 
Q 1469 3103 1208 2742 
Q 947 2381 947 1747 
z
" transform="scale(0.015625)"/>
       <path id="DejaVuSans-6d" d="M 3328 2828 
Q 3544 3216 3844 3400 
Q 4144 3584 4550 3584 
Q 5097 3584 5394 3201 
Q 5691 2819 5691 2113 
L 5691 0 
L 5113 0 
L 5113 2094 
Q 5113 2597 4934 2840 
Q 4756 3084 4391 3084 
Q 3944 3084 3684 2787 
Q 3425 2491 3425 1978 
L 3425 0 
L 2847 0 
L 2847 2094 
Q 2847 2600 2669 2842 
Q 2491 3084 2119 3084 
Q 1678 3084 1418 2786 
Q 1159 2488 1159 1978 
L 1159 0 
L 581 0 
L 581 3500 
L 1159 3500 
L 1159 2956 
Q 1356 3278 1631 3431 
Q 1906 3584 2284 3584 
Q 2666 3584 2933 3390 
Q 3200 3197 3328 2828 
z
" transform="scale(0.015625)"/>
       <path id="DejaVuSans-70" d="M 1159 525 
L 1159 -1331 
L 581 -1331 
L 581 3500 
L 1159 3500 
L 1159 2969 
Q 1341 3281 1617 3432 
Q 1894 3584 2278 3584 
Q 2916 3584 3314 3078 
Q 3713 2572 3713 1747 
Q 3713 922 3314 415 
Q 2916 -91 2278 -91 
Q 1894 -91 1617 61 
Q 1341 213 1159 525 
z
M 3116 1747 
Q 3116 2381 2855 2742 
Q 2594 3103 2138 3103 
Q 1681 3103 1420 2742 
Q 1159 2381 1159 1747 
Q 1159 1113 1420 752 
Q 1681 391 2138 391 
Q 2594 391 2855 752 
Q 3116 1113 3116 1747 
z
" transform="scale(0.015625)"/>
       <path id="DejaVuSans-6f" d="M 1959 3097 
Q 1497 3097 1228 2736 
Q 959 2375 959 1747 
Q 959 1119 1226 758 
Q 1494 397 1959 397 
Q 2419 397 2687 759 
Q 2956 1122 2956 1747 
Q 2956 2369 2687 2733 
Q 2419 3097 1959 3097 
z
M 1959 3584 
Q 2709 3584 3137 3096 
Q 3566 2609 3566 1747 
Q 3566 888 3137 398 
Q 2709 -91 1959 -91 
Q 1206 -91 779 398 
Q 353 888 353 1747 
Q 353 2609 779 3096 
Q 1206 3584 1959 3584 
z
" transform="scale(0.015625)"/>
       <path id="DejaVuSans-6e" d="M 3513 2113 
L 3513 0 
L 2938 0 
L 2938 2094 
Q 2938 2591 2744 2837 
Q 2550 3084 2163 3084 
Q 1697 3084 1428 2787 
Q 1159 2491 1159 1978 
L 1159 0 
L 581 0 
L 581 3500 
L 1159 3500 
L 1159 2956 
Q 1366 3272 1645 3428 
Q 1925 3584 2291 3584 
Q 2894 3584 3203 3211 
Q 3513 2838 3513 2113 
z
" transform="scale(0.015625)"/>
       <path id="DejaVuSans-73" d="M 2834 3397 
L 2834 2853 
Q 2591 2978 2328 3040 
Q 2066 3103 1784 3103 
Q 1356 3103 1142 2972 
Q 928 2841 928 2578 
Q 928 2378 1081 2264 
Q 1234 2150 1697 2047 
L 1894 2003 
Q 2506 1872 2764 1633 
Q 3022 1394 3022 966 
Q 3022 478 2636 193 
Q 2250 -91 1575 -91 
Q 1294 -91 989 -36 
Q 684 19 347 128 
L 347 722 
Q 666 556 975 473 
Q 1284 391 1588 391 
Q 1994 391 2212 530 
Q 2431 669 2431 922 
Q 2431 1156 2273 1281 
Q 2116 1406 1581 1522 
L 1381 1569 
Q 847 1681 609 1914 
Q 372 2147 372 2553 
Q 372 3047 722 3315 
Q 1072 3584 1716 3584 
Q 2034 3584 2315 3537 
Q 2597 3491 2834 3397 
z
" transform="scale(0.015625)"/>
      </defs>
      <use xlink:href="#DejaVuSans-54"/>
      <use xlink:href="#DejaVuSans-69" x="57.958984"/>
      <use xlink:href="#DejaVuSans-63" x="85.742188"/>
      <use xlink:href="#DejaVuSans-6b" x="140.722656"/>
      <use xlink:href="#DejaVuSans-65" x="195.007812"/>
      <use xlink:href="#DejaVuSans-74" x="256.53125"/>
      <use xlink:href="#DejaVuSans-20" x="295.740234"/>
      <use xlink:href="#DejaVuSans-52" x="327.527344"/>
      <use xlink:href="#DejaVuSans-65" x="392.509766"/>
      <use xlink:href="#DejaVuSans-64" x="454.033203"/>
      <use xlink:href="#DejaVuSans-65" x="517.509766"/>
      <use xlink:href="#DejaVuSans-6d" x="579.033203"/>
      <use xlink:href="#DejaVuSans-70" x="676.445312"/>
      <use xlink:href="#DejaVuSans-74" x="739.921875"/>
      <use xlink:href="#DejaVuSans-69" x="779.130859"/>
      <use xlink:href="#DejaVuSans-6f" x="806.914062"/>
      <use xlink:href="#DejaVuSans-6e" x="868.095703"/>
      <use xlink:href="#DejaVuSans-73" x="931.474609"/>
     </g>
    </g>
   </g>
   <g id="line2d_17">
    <path d="M 110.417898 336.105141 
L 112.742171 338.386604 
L 113.904308 338.081525 
L 115.066445 336.13167 
L 116.228582 336.330635 
L 117.390719 335.985762 
L 118.552856 336.03882 
L 119.714992 327.191517 
L 120.877129 339.646715 
L 122.039266 337.338723 
L 123.201403 334.181815 
L 124.36354 335.136846 
L 125.525677 334.234872 
L 126.687813 330.573919 
L 127.84995 331.873823 
L 129.012087 335.070524 
L 130.174224 333.863471 
L 132.498498 334.447101 
L 133.660634 332.974761 
L 134.822771 326.196693 
L 135.984908 329.207694 
L 137.147045 335.017467 
L 138.309182 332.258488 
L 139.471319 334.858295 
L 140.633455 335.136846 
L 141.795592 333.823678 
L 142.957729 330.613712 
L 144.119866 328.756707 
L 145.282003 332.921704 
L 146.44414 333.850207 
L 147.606276 332.895175 
L 148.768413 336.542864 
L 149.93055 341.357812 
L 151.092687 341.357812 
L 152.254824 340.203817 
L 153.416961 337.325459 
L 154.579097 333.850207 
L 155.741234 332.775797 
L 156.903371 335.468454 
L 158.065508 336.489807 
L 159.227645 335.587833 
L 160.389782 333.107405 
L 161.551918 328.12002 
L 162.714055 334.208343 
L 163.876192 332.311545 
L 165.038329 331.727915 
L 166.200466 333.903264 
L 167.362603 333.00129 
L 168.524739 336.22452 
L 169.686876 334.380779 
L 170.849013 332.271752 
L 173.173287 332.165638 
L 174.335424 331.303457 
L 175.49756 332.298281 
L 176.659697 321.779674 
L 177.821834 334.911352 
L 178.983971 331.582008 
L 180.146108 331.157549 
L 181.308244 331.223871 
L 182.470381 334.088964 
L 183.632518 334.765445 
L 184.794655 337.29893 
L 185.956792 332.351338 
L 187.118929 336.635714 
L 188.281065 334.049171 
L 189.443202 320.254277 
L 191.767476 335.123581 
L 192.929613 323.238749 
L 194.09175 328.027169 
L 195.253886 330.428012 
L 196.416023 334.778709 
L 197.57816 330.905527 
L 198.740297 331.648329 
L 199.902434 331.290193 
L 201.064571 337.033644 
L 202.226707 333.691035 
L 203.388844 329.671945 
L 204.550981 334.367515 
L 205.713118 329.884174 
L 206.875255 334.791973 
L 208.037392 320.10837 
L 209.199528 333.558391 
L 210.361665 329.274016 
L 211.523802 330.467805 
L 212.685939 332.338074 
L 213.848076 328.88935 
L 215.010213 329.96376 
L 216.172349 329.738267 
L 217.334486 320.731793 
L 218.496623 328.982201 
L 219.65876 313.927196 
L 220.820897 328.730178 
L 221.983034 325.095754 
L 223.14517 316.434153 
L 224.307307 302.493351 
L 225.469444 301.312826 
L 226.631581 331.011642 
L 227.793718 330.414747 
L 228.955855 318.622766 
L 230.117991 329.406659 
L 231.280128 310.677437 
L 232.442265 328.6108 
L 233.604402 284.002887 
L 234.766539 328.88935 
L 235.928676 323.703001 
L 237.090812 327.350689 
L 239.415086 311.194746 
L 240.577223 286.164971 
L 241.73936 332.60336 
L 242.901497 323.238749 
L 244.063633 328.066962 
L 245.22577 316.97799 
L 246.387907 310.279507 
L 247.550044 317.813642 
L 248.712181 276.21673 
L 249.874318 256.890614 
L 251.036454 313.529266 
L 252.198591 316.235188 
L 253.360728 308.674524 
L 255.685002 294.720458 
L 256.847139 203.329284 
L 258.009275 248.189219 
L 259.171412 327.337425 
L 260.333549 314.33839 
L 261.495686 313.688438 
L 262.657823 311.181481 
L 263.81996 298.248768 
L 264.982096 270.221257 
L 266.144233 266.016467 
L 267.30637 182.212484 
L 268.468507 308.157216 
L 269.630644 313.675174 
L 270.792781 313.423152 
L 271.954917 322.575533 
L 273.117054 204.841416 
L 274.279191 200.132582 
L 275.441328 285.316054 
L 276.603465 287.504667 
L 277.765602 324.910054 
L 278.927738 305.995132 
L 280.089875 272.966971 
L 281.252012 165.525968 
L 282.414149 215.824274 
L 283.576286 311.035574 
L 284.738423 325.984464 
L 285.900559 286.47005 
L 287.062696 308.555146 
L 288.224833 259.662857 
L 289.38697 236.768638 
L 290.549107 296.219327 
L 291.711244 271.322195 
L 292.87338 278.697158 
L 294.035517 296.35197 
L 295.197654 299.455821 
L 296.359791 253.640855 
L 297.521928 121.037434 
L 298.684065 86.152268 
L 299.846201 289.812659 
L 301.008338 259.21187 
L 302.170475 281.323494 
L 303.332612 253.123546 
L 304.494749 230.919072 
L 305.656886 100.650171 
L 306.819022 254.569357 
L 307.981159 250.457418 
L 309.143296 251.160427 
L 310.305433 301.007747 
L 311.46757 234.221888 
L 312.629707 145.868243 
L 313.791843 77.437609 
L 314.95398 113.264541 
L 317.278254 309.722406 
L 318.440391 233.174007 
L 319.602528 241.198921 
L 320.764664 243.559971 
L 321.926801 115.081753 
L 323.088938 105.783464 
L 324.251075 224.857277 
L 325.413212 262.819765 
L 326.575349 274.346461 
L 327.737485 215.373288 
L 328.899622 209.006413 
L 330.061759 38.957812 
L 331.223896 108.568971 
L 332.386033 296.948864 
L 333.54817 256.850821 
L 334.710306 244.249715 
L 335.872443 217.256821 
L 337.03458 205.597483 
L 338.196717 94.933249 
L 339.358854 282.543811 
L 340.520991 205.995412 
L 341.683127 216.620134 
L 342.845264 220.984096 
L 344.007401 196.047171 
L 345.169538 196.949145 
L 346.331675 108.370007 
L 347.493812 73.683806 
L 349.818085 215.386552 
L 350.980222 219.92295 
L 352.142359 296.325441 
L 353.304496 204.854681 
L 354.466632 96.246417 
L 355.628769 191.073051 
L 356.790906 300.543495 
L 357.953043 234.394324 
L 359.11518 203.037469 
L 360.277317 198.40822 
L 361.439453 185.661208 
L 362.60159 67.568954 
L 363.763727 117.09793 
L 364.925864 174.877314 
L 366.088001 215.665103 
L 367.250138 248.74632 
L 369.574411 193.739179 
L 370.736548 104.045838 
L 371.898685 262.34225 
L 373.060822 311.685525 
L 374.222959 231.144566 
L 375.385095 218.875068 
L 376.547232 278.4584 
L 377.709369 253.176604 
L 378.871506 131.317283 
L 380.033643 145.788657 
L 382.357916 310.306036 
L 383.520053 237.498176 
L 384.68219 225.4807 
L 385.844327 193.4341 
L 387.006464 133.585482 
L 388.168601 241.145864 
L 389.330737 228.160093 
L 390.492874 292.982832 
L 391.655011 309.748935 
L 392.817148 294.587815 
L 393.979285 283.976358 
L 395.141422 195.277841 
L 396.303558 240.33674 
L 397.465695 322.999992 
L 398.627832 316.871875 
L 399.789969 295.131652 
L 400.952106 301.219976 
L 402.114243 295.980569 
L 403.276379 204.019028 
L 404.438516 290.887069 
L 405.600653 287.053681 
L 406.76279 292.889982 
L 407.924927 317.521827 
L 409.087064 312.362006 
L 410.2492 305.743109 
L 411.411337 250.430889 
L 412.573474 325.374305 
L 413.735611 324.936583 
L 414.897748 328.013905 
L 416.059885 318.423801 
L 417.222021 310.531529 
L 419.546295 286.390464 
L 420.708432 289.0168 
L 421.870569 318.277893 
L 423.032706 316.022959 
L 424.194842 307.560321 
L 425.356979 317.25654 
L 426.519116 322.641855 
L 427.681253 295.410203 
L 428.84339 287.106738 
L 430.005527 280.302141 
L 431.167663 304.496263 
L 432.3298 321.315423 
L 433.491937 329.061787 
L 434.654074 314.33839 
L 435.816211 311.433503 
L 436.978348 307.6797 
L 438.140484 327.576183 
L 439.302621 328.88935 
L 440.464758 319.405361 
L 441.626895 327.987376 
L 442.789032 316.818818 
L 443.951169 278.975709 
L 445.113305 282.450961 
L 446.275442 310.425415 
L 447.437579 317.535091 
L 448.599716 328.332249 
L 449.761853 318.463594 
L 450.92399 319.471682 
L 452.086126 299.548671 
L 453.248263 315.691351 
L 454.4104 326.010993 
L 455.572537 323.91523 
L 456.734674 322.164339 
L 457.896811 329.220958 
L 459.058947 319.89614 
L 460.221084 295.927512 
L 461.383221 295.927512 
L 462.545358 323.862173 
L 463.707495 325.825292 
L 464.869632 326.223222 
L 466.031768 315.90358 
L 467.193905 332.231959 
L 468.356042 318.569708 
L 469.518179 327.867998 
L 470.680316 328.544478 
L 471.842453 333.704299 
L 473.004589 333.757356 
L 474.166726 331.329985 
L 475.328863 332.974761 
L 476.491 330.693298 
L 477.653137 334.712387 
L 478.815274 331.303457 
L 479.97741 329.791324 
L 481.139547 327.669033 
L 482.301684 331.064699 
L 483.463821 326.806852 
L 484.625958 315.956637 
L 485.788095 336.834679 
L 486.950231 330.693298 
L 488.112368 331.117756 
L 489.274505 333.545127 
L 490.436642 332.430924 
L 491.598779 332.51051 
L 492.760916 333.133933 
L 493.923052 329.671945 
L 495.085189 334.035907 
L 496.247326 332.298281 
L 497.409463 331.131021 
L 498.5716 328.159813 
L 499.733737 332.178902 
L 500.895873 333.505334 
L 502.05801 336.927529 
L 503.220147 332.842118 
L 504.382284 332.60336 
L 505.544421 334.553216 
L 506.706558 335.82659 
L 507.868694 332.231959 
L 509.030831 332.430924 
L 510.192968 334.394044 
L 511.355105 330.666769 
L 512.517242 331.449364 
L 513.679379 328.597535 
L 514.841515 332.457453 
L 516.003652 340.309931 
L 517.165789 341.357812 
L 518.327926 334.685859 
L 519.490063 334.340986 
L 520.6522 331.170814 
L 521.814336 331.03817 
L 522.976473 323.955023 
L 524.13861 330.17599 
L 525.300747 333.943057 
L 526.462884 331.661594 
L 527.625021 326.037521 
L 528.787157 335.773533 
L 529.949294 335.906176 
L 531.111431 332.90844 
L 532.273568 332.457453 
L 533.435705 328.345513 
L 534.597841 334.195079 
L 535.759978 331.489157 
L 536.922115 332.576832 
L 538.084252 333.359427 
L 539.246389 333.876735 
L 540.408526 336.052084 
L 541.570662 330.149461 
L 542.732799 329.68521 
L 543.894936 331.184078 
L 545.057073 336.80815 
L 546.21921 331.077963 
L 547.381347 334.195079 
L 548.543483 332.364603 
L 549.70562 331.887087 
L 550.867757 336.211256 
L 552.029894 328.730178 
L 553.192031 332.483981 
L 554.354168 332.231959 
L 555.516304 335.349075 
L 556.678441 332.789061 
L 557.840578 331.674858 
L 559.002715 337.007115 
L 560.164852 332.41766 
L 561.326989 334.526687 
L 562.489125 330.36169 
L 563.651262 331.396307 
L 564.813399 334.619537 
L 565.975536 339.885473 
L 567.137673 331.03817 
L 568.29981 331.502422 
L 569.461946 335.296018 
L 570.624083 330.069875 
L 571.78622 334.831766 
L 572.948357 332.377867 
L 574.110494 325.838556 
L 575.272631 323.583622 
L 576.434767 330.003553 
L 577.596904 329.47298 
L 578.759041 332.736004 
L 579.921178 330.374954 
L 581.083315 334.526687 
L 582.245452 329.075051 
L 583.407588 322.111282 
L 584.569725 319.790026 
L 585.731862 330.043346 
L 586.893999 334.022643 
L 588.056136 336.794886 
L 589.218273 330.26884 
L 590.380409 334.301193 
L 591.542546 329.47298 
L 592.704683 334.646066 
L 593.86682 330.016818 
L 595.028957 330.680034 
L 596.191094 328.637328 
L 597.35323 333.18699 
L 598.515367 331.847294 
L 599.677504 329.857646 
L 600.839641 331.52895 
L 602.001778 332.789061 
L 603.163915 327.562918 
L 604.326051 331.276928 
L 605.488188 331.887087 
L 606.650325 331.396307 
L 608.974599 333.518599 
L 610.136736 334.142022 
L 611.298872 327.417011 
L 612.461009 329.539302 
L 613.623146 335.043995 
L 614.785283 331.887087 
L 615.94742 332.921704 
L 617.109557 326.329336 
L 618.271693 326.010993 
L 619.43383 330.666769 
L 620.595967 332.01973 
L 621.758104 326.448715 
L 622.920241 337.153023 
L 624.082378 312.454856 
L 625.244514 331.4361 
L 626.406651 330.653505 
L 627.568788 333.240048 
L 628.730925 328.663857 
L 629.893062 335.335811 
L 631.055199 324.392745 
L 632.217335 318.662559 
L 633.379472 324.40601 
L 634.541609 331.860558 
L 635.703746 320.665471 
L 636.865883 321.501123 
L 638.02802 286.324143 
L 639.190156 287.902597 
L 640.352293 278.511458 
L 641.51443 298.68649 
L 642.676567 315.877051 
L 643.838704 299.588464 
L 645.000841 291.908422 
L 646.162977 295.967305 
L 647.325114 262.992201 
L 648.487251 275.14232 
L 649.649388 330.520862 
L 650.811525 327.735354 
L 651.973662 323.066313 
L 653.135798 322.575533 
L 654.297935 315.147513 
L 655.460072 325.414098 
L 656.622209 306.830784 
L 657.784346 324.034609 
L 658.946483 318.675823 
L 660.108619 314.497562 
L 661.270756 299.416028 
L 662.432893 322.694912 
L 664.757167 331.860558 
L 665.919304 322.641855 
L 667.08144 326.408922 
L 668.243577 326.64768 
L 669.405714 316.911668 
L 670.567851 297.61208 
L 671.729988 221.567726 
L 672.892125 315.784201 
L 674.054261 303.023924 
L 675.216398 306.379797 
L 676.378535 303.514703 
L 677.540672 298.155918 
L 678.702809 287.84954 
L 679.864946 199.588745 
L 681.027082 237.299211 
L 682.189219 301.777077 
L 683.351356 304.297298 
L 684.513493 317.919757 
L 685.67563 307.905194 
L 686.837767 295.144917 
L 687.999903 270.420221 
L 689.16204 78.379376 
L 690.324177 168.934898 
L 691.486314 280.341934 
L 692.648451 313.104808 
L 693.810588 301.405676 
L 694.972724 287.199588 
L 696.134861 166.494263 
L 697.296998 165.897369 
L 698.459135 277.596219 
L 699.621272 289.348408 
L 700.783409 278.126792 
L 701.945545 281.933652 
L 703.107682 270.911001 
L 704.269819 155.829749 
L 705.431956 194.932968 
L 706.594093 281.960181 
L 707.756229 288.698456 
L 708.918366 282.782569 
L 710.080503 314.497562 
L 711.24264 305.544145 
L 712.404777 160.711019 
L 713.566914 274.028117 
L 714.72905 307.480736 
L 715.891187 294.123564 
L 717.053324 308.236802 
L 718.215461 300.543495 
L 719.377598 284.493667 
L 720.539735 57.116669 
L 721.701871 98.050364 
L 722.864008 255.00708 
L 724.026145 244.621116 
L 725.188282 250.590061 
L 726.350419 261.373954 
L 727.512556 283.193763 
L 728.674692 267.555128 
L 729.836829 159.02645 
L 730.998966 295.330617 
L 732.161103 315.001606 
L 733.32324 262.965673 
L 734.485377 230.97213 
L 735.647513 246.451593 
L 736.80965 94.177183 
L 737.971787 237.140039 
L 739.133924 168.072717 
L 740.296061 211.937828 
L 741.458198 149.104738 
L 742.620334 268.457102 
L 743.782471 198.063348 
L 744.944608 118.915142 
L 746.106745 179.931021 
L 748.431019 251.492035 
L 749.593155 217.707808 
L 750.755292 268.868296 
L 751.917429 182.716528 
L 753.079566 155.285911 
L 754.241703 115.758234 
L 755.40384 236.211537 
L 756.565976 230.680314 
L 757.728113 191.86891 
L 758.89025 246.862787 
L 760.052387 216.169147 
L 761.214524 64.650803 
L 762.376661 136.384253 
L 763.538797 261.771884 
L 764.700934 239.514353 
L 765.863071 203.050733 
L 767.025208 228.849838 
L 768.187345 209.842066 
L 769.349482 244.93946 
L 770.511618 89.879542 
L 771.673755 224.207326 
L 772.835892 207.149408 
L 773.998029 213.834626 
L 775.160166 228.531494 
L 776.322303 194.787061 
L 777.484439 96.326003 
L 778.646576 64.067173 
L 779.808713 273.099614 
L 780.97085 254.662208 
L 782.132987 170.699053 
L 783.295124 266.852119 
L 784.45726 169.545057 
L 785.619397 217.973095 
L 786.781534 104.470296 
L 787.943671 213.808098 
L 789.105808 198.262313 
L 790.267945 175.275244 
L 791.430081 209.881858 
L 792.592218 238.439943 
L 793.754355 62.793798 
L 794.916492 110.134161 
L 796.078629 225.520493 
L 797.240766 216.646662 
L 798.402902 288.8311 
L 799.565039 246.557707 
L 800.727176 225.308264 
L 801.889313 187.345776 
L 803.05145 123.54439 
L 804.213587 210.797097 
L 805.375723 214.975358 
L 806.53786 245.589412 
L 807.699997 212.866331 
L 808.862134 195.662506 
L 810.024271 130.813238 
L 811.186408 83.061681 
L 812.348544 141.172673 
L 813.510681 282.119353 
L 814.672818 286.841451 
L 815.834955 308.117423 
L 816.997092 295.808133 
L 818.159229 216.368112 
L 819.321365 216.39464 
L 820.483502 292.836925 
L 821.645639 318.768673 
L 822.807776 309.908106 
L 825.13205 280.182762 
L 826.294186 190.250663 
L 827.456323 251.133898 
L 828.61846 303.541232 
L 829.780597 302.4005 
L 830.942734 302.055628 
L 832.104871 297.691666 
L 833.267007 286.324143 
L 834.429144 231.370059 
L 835.591281 242.153953 
L 836.753418 299.124213 
L 837.915555 313.144601 
L 839.077692 309.404062 
L 840.239828 311.964076 
L 841.401965 288.565813 
L 842.564102 242.512089 
L 843.726239 243.533442 
L 844.888376 282.450961 
L 846.050513 287.743425 
L 847.212649 288.260734 
L 848.374786 296.736635 
L 849.536923 302.135214 
L 850.69906 279.612396 
L 851.861197 310.451944 
L 853.023334 306.154303 
L 854.18547 251.810379 
L 855.347607 317.428977 
L 856.509744 309.417326 
L 857.671881 313.94046 
L 858.834018 312.056926 
L 859.996155 317.680999 
L 861.158291 321.142987 
L 862.320428 315.797465 
L 864.644702 320.028784 
L 865.806839 328.544478 
L 866.968976 312.017133 
L 868.131112 310.505001 
L 869.293249 317.972814 
L 870.455386 312.454856 
L 871.617523 319.166603 
L 872.77966 328.265927 
L 873.941797 311.274331 
L 875.103933 288.685192 
L 876.26607 326.422187 
L 877.428207 316.513738 
L 878.590344 323.252014 
L 879.752481 329.141372 
L 880.914618 328.70365 
L 884.401028 316.540267 
L 885.563165 332.139109 
L 886.725302 330.786148 
L 887.887438 328.345513 
L 889.049575 328.7965 
L 890.211712 323.185692 
L 891.373849 325.002904 
L 892.535986 322.893877 
L 893.698123 315.5985 
L 894.860259 330.255575 
L 896.022396 327.987376 
L 897.184533 326.090579 
L 898.34667 330.308633 
L 899.508807 317.349391 
L 900.670944 325.374305 
L 901.83308 329.433188 
L 902.995217 336.450014 
L 904.157354 331.223871 
L 905.319491 329.764796 
L 906.481628 329.433188 
L 907.643765 325.719178 
L 908.805901 333.120669 
L 909.968038 310.703966 
L 911.130175 334.593009 
L 912.292312 334.951145 
L 913.454449 327.13846 
L 914.616586 335.216432 
L 915.778722 331.489157 
L 916.940859 335.335811 
L 918.102996 333.18699 
L 919.265133 333.730828 
L 920.42727 332.828854 
L 921.589407 334.367515 
L 922.751543 332.802325 
L 923.91368 330.030082 
L 925.075817 333.744092 
L 926.237954 334.128757 
L 927.400091 308.342916 
L 928.562228 333.664506 
L 929.724364 325.812028 
L 930.886501 327.81494 
L 933.210775 333.783885 
L 934.372912 334.234872 
L 935.535049 327.907791 
L 936.697185 331.263664 
L 937.859322 329.021994 
L 939.021459 331.555479 
L 940.183596 335.468454 
L 941.345733 328.743443 
L 942.50787 328.584271 
L 943.670006 331.727915 
L 944.832143 335.680683 
L 945.99428 331.820765 
L 947.156417 330.36169 
L 948.318554 325.838556 
L 949.480691 327.470068 
L 951.804964 330.321897 
L 952.967101 331.104492 
L 954.129238 329.327073 
L 955.291375 333.439013 
L 956.453512 333.810414 
L 957.615648 334.805238 
L 958.777785 334.593009 
L 959.939922 336.383692 
L 961.102059 335.083788 
L 962.264196 335.070524 
L 963.426333 327.23131 
L 964.588469 339.699772 
L 965.750606 337.511159 
L 966.912743 334.778709 
L 968.07488 335.866383 
L 969.237017 334.937881 
L 970.399154 334.858295 
L 971.56129 334.035907 
L 972.723427 335.441925 
L 973.885564 330.414747 
L 976.209838 338.147847 
L 977.371975 335.256225 
L 978.534111 334.128757 
L 979.696248 334.500158 
L 980.858385 333.505334 
L 982.020522 333.412484 
L 983.182659 323.756058 
L 984.344796 334.287929 
L 985.506932 332.483981 
L 986.669069 335.176639 
L 987.831206 331.263664 
L 988.993343 323.278542 
L 990.15548 325.042697 
L 991.317617 334.049171 
L 992.479753 332.775797 
L 993.64189 332.590096 
L 994.804027 332.749268 
L 995.966164 327.191517 
L 997.128301 319.179867 
L 998.290438 331.621801 
L 999.452574 332.430924 
L 1000.614711 329.313809 
L 1001.776848 321.76641 
L 1002.938985 334.420572 
L 1004.101122 334.221608 
L 1005.263259 330.825941 
L 1006.425395 333.425748 
L 1007.587532 329.28728 
L 1008.749669 329.101579 
L 1009.911806 330.666769 
L 1011.073943 330.985113 
L 1012.23608 329.526038 
L 1013.398216 331.144285 
L 1014.560353 331.157549 
L 1015.72249 325.838556 
L 1016.884627 325.228398 
L 1018.046764 333.916528 
L 1019.208901 332.51051 
L 1020.371037 326.170164 
L 1021.533174 330.428012 
L 1022.695311 329.141372 
L 1023.857448 323.013256 
L 1025.019585 328.823029 
L 1026.181722 330.255575 
L 1027.343858 322.283718 
L 1028.505995 328.186341 
L 1029.668132 335.256225 
L 1030.830269 334.460365 
L 1031.992406 325.042697 
L 1033.154543 323.5173 
L 1034.316679 300.06598 
L 1035.478816 331.157549 
L 1036.640953 326.488508 
L 1037.80309 324.856997 
L 1038.965227 330.308633 
L 1040.127364 330.45454 
L 1041.2895 332.351338 
L 1042.451637 331.210607 
L 1043.613774 330.573919 
L 1044.775911 333.956321 
L 1045.938048 328.584271 
L 1047.100185 325.228398 
L 1048.262321 325.75897 
L 1049.424458 330.534126 
L 1050.586595 325.069226 
L 1051.748732 320.559356 
L 1054.073006 306.552233 
L 1055.235142 308.608203 
L 1056.397279 318.927845 
L 1057.559416 331.780972 
L 1058.721553 333.943057 
L 1059.88369 334.022643 
L 1061.045826 326.170164 
L 1062.207963 305.782902 
L 1063.3701 296.84275 
L 1064.532237 325.679385 
L 1065.694374 323.02652 
L 1066.856511 313.728231 
L 1068.018647 331.807501 
L 1069.180784 333.452277 
L 1070.342921 320.134898 
L 1071.505058 311.30086 
L 1072.667195 314.391447 
L 1073.829332 315.240364 
L 1074.991468 332.802325 
L 1076.153605 325.17534 
L 1077.315742 323.676472 
L 1078.477879 320.890965 
L 1079.640016 312.37527 
L 1080.802153 310.266243 
L 1081.964289 326.926231 
L 1083.126426 320.002255 
L 1084.288563 314.444504 
L 1085.4507 307.00322 
L 1086.612837 323.941758 
L 1087.774974 311.844697 
L 1088.93711 316.540267 
L 1090.099247 325.719178 
L 1091.261384 308.104159 
L 1092.423521 293.009361 
L 1093.585658 320.439978 
L 1094.747795 261.506597 
L 1095.909931 316.593324 
L 1097.072068 296.405027 
L 1098.234205 300.503702 
L 1099.396342 306.698141 
L 1100.558479 316.818818 
L 1101.720616 310.62438 
L 1102.882752 295.158181 
L 1104.044889 259.914879 
L 1105.207026 318.450329 
L 1106.369163 318.901316 
L 1107.5313 311.247803 
L 1108.693437 297.983481 
L 1109.855573 313.595588 
L 1111.01771 194.840118 
L 1112.179847 122.257751 
L 1113.341984 132.948794 
L 1114.504121 292.624696 
L 1115.666258 306.247154 
L 1117.990531 271.043645 
L 1119.152668 284.268173 
L 1120.314805 174.121248 
L 1121.476942 315.147513 
L 1122.639079 318.291158 
L 1123.801215 285.713984 
L 1124.963352 299.48235 
L 1124.963352 299.48235 
" clip-path="url(#pc396bcfec2)" style="fill: none; stroke: #008080; stroke-width: 1.5; stroke-linecap: square"/>
   </g>
   <g id="patch_3">
    <path d="M 59.690625 356.477812 
L 59.690625 23.837812 
" style="fill: none; stroke: #000000; stroke-width: 0.8; stroke-linejoin: miter; stroke-linecap: square"/>
   </g>
   <g id="patch_4">
    <path d="M 1175.690625 356.477812 
L 1175.690625 23.837812 
" style="fill: none; stroke: #000000; stroke-width: 0.8; stroke-linejoin: miter; stroke-linecap: square"/>
   </g>
   <g id="patch_5">
    <path d="M 59.690625 356.477812 
L 1175.690625 356.477812 
" style="fill: none; stroke: #000000; stroke-width: 0.8; stroke-linejoin: miter; stroke-linecap: square"/>
   </g>
   <g id="patch_6">
    <path d="M 59.690625 23.837812 
L 1175.690625 23.837812 
" style="fill: none; stroke: #000000; stroke-width: 0.8; stroke-linejoin: miter; stroke-linecap: square"/>
   </g>
   <g id="text_19">
    <!-- Toronto Island Ferry Ticket Redemptions -->
    <g transform="translate(477.780313 17.837812) scale(0.14 -0.14)">
     <defs>
      <path id="DejaVuSans-72" d="M 2631 2963 
Q 2534 3019 2420 3045 
Q 2306 3072 2169 3072 
Q 1681 3072 1420 2755 
Q 1159 2438 1159 1844 
L 1159 0 
L 581 0 
L 581 3500 
L 1159 3500 
L 1159 2956 
Q 1341 3275 1631 3429 
Q 1922 3584 2338 3584 
Q 2397 3584 2469 3576 
Q 2541 3569 2628 3553 
L 2631 2963 
z
" transform="scale(0.015625)"/>
      <path id="DejaVuSans-49" d="M 628 4666 
L 1259 4666 
L 1259 0 
L 628 0 
L 628 4666 
z
" transform="scale(0.015625)"/>
      <path id="DejaVuSans-6c" d="M 603 4863 
L 1178 4863 
L 1178 0 
L 603 0 
L 603 4863 
z
" transform="scale(0.015625)"/>
      <path id="DejaVuSans-46" d="M 628 4666 
L 3309 4666 
L 3309 4134 
L 1259 4134 
L 1259 2759 
L 3109 2759 
L 3109 2228 
L 1259 2228 
L 1259 0 
L 628 0 
L 628 4666 
z
" transform="scale(0.015625)"/>
      <path id="DejaVuSans-79" d="M 2059 -325 
Q 1816 -950 1584 -1140 
Q 1353 -1331 966 -1331 
L 506 -1331 
L 506 -850 
L 844 -850 
Q 1081 -850 1212 -737 
Q 1344 -625 1503 -206 
L 1606 56 
L 191 3500 
L 800 3500 
L 1894 763 
L 2988 3500 
L 3597 3500 
L 2059 -325 
z
" transform="scale(0.015625)"/>
     </defs>
     <use xlink:href="#DejaVuSans-54"/>
     <use xlink:href="#DejaVuSans-6f" x="44.083984"/>
     <use xlink:href="#DejaVuSans-72" x="105.265625"/>
     <use xlink:href="#DejaVuSans-6f" x="144.128906"/>
     <use xlink:href="#DejaVuSans-6e" x="205.310547"/>
     <use xlink:href="#DejaVuSans-74" x="268.689453"/>
     <use xlink:href="#DejaVuSans-6f" x="307.898438"/>
     <use xlink:href="#DejaVuSans-20" x="369.080078"/>
     <use xlink:href="#DejaVuSans-49" x="400.867188"/>
     <use xlink:href="#DejaVuSans-73" x="430.359375"/>
     <use xlink:href="#DejaVuSans-6c" x="482.458984"/>
     <use xlink:href="#DejaVuSans-61" x="510.242188"/>
     <use xlink:href="#DejaVuSans-6e" x="571.521484"/>
     <use xlink:href="#DejaVuSans-64" x="634.900391"/>
     <use xlink:href="#DejaVuSans-20" x="698.376953"/>
     <use xlink:href="#DejaVuSans-46" x="730.164062"/>
     <use xlink:href="#DejaVuSans-65" x="782.183594"/>
     <use xlink:href="#DejaVuSans-72" x="843.707031"/>
     <use xlink:href="#DejaVuSans-72" x="883.070312"/>
     <use xlink:href="#DejaVuSans-79" x="924.183594"/>
     <use xlink:href="#DejaVuSans-20" x="983.363281"/>
     <use xlink:href="#DejaVuSans-54" x="1015.150391"/>
     <use xlink:href="#DejaVuSans-69" x="1073.109375"/>
     <use xlink:href="#DejaVuSans-63" x="1100.892578"/>
     <use xlink:href="#DejaVuSans-6b" x="1155.873047"/>
     <use xlink:href="#DejaVuSans-65" x="1210.158203"/>
     <use xlink:href="#DejaVuSans-74" x="1271.681641"/>
     <use xlink:href="#DejaVuSans-20" x="1310.890625"/>
     <use xlink:href="#DejaVuSans-52" x="1342.677734"/>
     <use xlink:href="#DejaVuSans-65" x="1407.660156"/>
     <use xlink:href="#DejaVuSans-64" x="1469.183594"/>
     <use xlink:href="#DejaVuSans-65" x="1532.660156"/>
     <use xlink:href="#DejaVuSans-6d" x="1594.183594"/>
     <use xlink:href="#DejaVuSans-70" x="1691.595703"/>
     <use xlink:href="#DejaVuSans-74" x="1755.072266"/>
     <use xlink:href="#DejaVuSans-69" x="1794.28125"/>
     <use xlink:href="#DejaVuSans-6f" x="1822.064453"/>
     <use xlink:href="#DejaVuSans-6e" x="1883.246094"/>
     <use xlink:href="#DejaVuSans-73" x="1946.625"/>
    </g>
   </g>
  </g>
  <g id="text_20">
   <!-- (Data from 2022-01-08 12:15:00 to 2024-05-30 17:00:00) -->
   <g style="fill: #808080" transform="translate(454.635938 399.677812) scale(0.1 -0.1)">
    <defs>
     <path id="DejaVuSans-28" d="M 1984 4856 
Q 1566 4138 1362 3434 
Q 1159 2731 1159 2009 
Q 1159 1288 1364 580 
Q 1569 -128 1984 -844 
L 1484 -844 
Q 1016 -109 783 600 
Q 550 1309 550 2009 
Q 550 2706 781 3412 
Q 1013 4119 1484 4856 
L 1984 4856 
z
" transform="scale(0.015625)"/>
     <path id="DejaVuSans-66" d="M 2375 4863 
L 2375 4384 
L 1825 4384 
Q 1516 4384 1395 4259 
Q 1275 4134 1275 3809 
L 1275 3500 
L 2222 3500 
L 2222 3053 
L 1275 3053 
L 1275 0 
L 697 0 
L 697 3053 
L 147 3053 
L 147 3500 
L 697 3500 
L 697 3744 
Q 697 4328 969 4595 
Q 1241 4863 1831 4863 
L 2375 4863 
z
" transform="scale(0.015625)"/>
     <path id="DejaVuSans-38" d="M 2034 2216 
Q 1584 2216 1326 1975 
Q 1069 1734 1069 1313 
Q 1069 891 1326 650 
Q 1584 409 2034 409 
Q 2484 409 2743 651 
Q 3003 894 3003 1313 
Q 3003 1734 2745 1975 
Q 2488 2216 2034 2216 
z
M 1403 2484 
Q 997 2584 770 2862 
Q 544 3141 544 3541 
Q 544 4100 942 4425 
Q 1341 4750 2034 4750 
Q 2731 4750 3128 4425 
Q 3525 4100 3525 3541 
Q 3525 3141 3298 2862 
Q 3072 2584 2669 2484 
Q 3125 2378 3379 2068 
Q 3634 1759 3634 1313 
Q 3634 634 3220 271 
Q 2806 -91 2034 -91 
Q 1263 -91 848 271 
Q 434 634 434 1313 
Q 434 1759 690 2068 
Q 947 2378 1403 2484 
z
M 1172 3481 
Q 1172 3119 1398 2916 
Q 1625 2713 2034 2713 
Q 2441 2713 2670 2916 
Q 2900 3119 2900 3481 
Q 2900 3844 2670 4047 
Q 2441 4250 2034 4250 
Q 1625 4250 1398 4047 
Q 1172 3844 1172 3481 
z
" transform="scale(0.015625)"/>
     <path id="DejaVuSans-3a" d="M 750 794 
L 1409 794 
L 1409 0 
L 750 0 
L 750 794 
z
M 750 3309 
L 1409 3309 
L 1409 2516 
L 750 2516 
L 750 3309 
z
" transform="scale(0.015625)"/>
     <path id="DejaVuSans-29" d="M 513 4856 
L 1013 4856 
Q 1481 4119 1714 3412 
Q 1947 2706 1947 2009 
Q 1947 1309 1714 600 
Q 1481 -109 1013 -844 
L 513 -844 
Q 928 -128 1133 580 
Q 1338 1288 1338 2009 
Q 1338 2731 1133 3434 
Q 928 4138 513 4856 
z
" transform="scale(0.015625)"/>
    </defs>
    <use xlink:href="#DejaVuSans-28"/>
    <use xlink:href="#DejaVuSans-44" x="39.013672"/>
    <use xlink:href="#DejaVuSans-61" x="116.015625"/>
    <use xlink:href="#DejaVuSans-74" x="177.294922"/>
    <use xlink:href="#DejaVuSans-61" x="216.503906"/>
    <use xlink:href="#DejaVuSans-20" x="277.783203"/>
    <use xlink:href="#DejaVuSans-66" x="309.570312"/>
    <use xlink:href="#DejaVuSans-72" x="344.775391"/>
    <use xlink:href="#DejaVuSans-6f" x="383.638672"/>
    <use xlink:href="#DejaVuSans-6d" x="444.820312"/>
    <use xlink:href="#DejaVuSans-20" x="542.232422"/>
    <use xlink:href="#DejaVuSans-32" x="574.019531"/>
    <use xlink:href="#DejaVuSans-30" x="637.642578"/>
    <use xlink:href="#DejaVuSans-32" x="701.265625"/>
    <use xlink:href="#DejaVuSans-32" x="764.888672"/>
    <use xlink:href="#DejaVuSans-2d" x="828.511719"/>
    <use xlink:href="#DejaVuSans-30" x="864.595703"/>
    <use xlink:href="#DejaVuSans-31" x="928.21875"/>
    <use xlink:href="#DejaVuSans-2d" x="991.841797"/>
    <use xlink:href="#DejaVuSans-30" x="1027.925781"/>
    <use xlink:href="#DejaVuSans-38" x="1091.548828"/>
    <use xlink:href="#DejaVuSans-20" x="1155.171875"/>
    <use xlink:href="#DejaVuSans-31" x="1186.958984"/>
    <use xlink:href="#DejaVuSans-32" x="1250.582031"/>
    <use xlink:href="#DejaVuSans-3a" x="1314.205078"/>
    <use xlink:href="#DejaVuSans-31" x="1347.896484"/>
    <use xlink:href="#DejaVuSans-35" x="1411.519531"/>
    <use xlink:href="#DejaVuSans-3a" x="1475.142578"/>
    <use xlink:href="#DejaVuSans-30" x="1508.833984"/>
    <use xlink:href="#DejaVuSans-30" x="1572.457031"/>
    <use xlink:href="#DejaVuSans-20" x="1636.080078"/>
    <use xlink:href="#DejaVuSans-74" x="1667.867188"/>
    <use xlink:href="#DejaVuSans-6f" x="1707.076172"/>
    <use xlink:href="#DejaVuSans-20" x="1768.257812"/>
    <use xlink:href="#DejaVuSans-32" x="1800.044922"/>
    <use xlink:href="#DejaVuSans-30" x="1863.667969"/>
    <use xlink:href="#DejaVuSans-32" x="1927.291016"/>
    <use xlink:href="#DejaVuSans-34" x="1990.914062"/>
    <use xlink:href="#DejaVuSans-2d" x="2054.537109"/>
    <use xlink:href="#DejaVuSans-30" x="2090.621094"/>
    <use xlink:href="#DejaVuSans-35" x="2154.244141"/>
    <use xlink:href="#DejaVuSans-2d" x="2217.867188"/>
    <use xlink:href="#DejaVuSans-33" x="2253.951172"/>
    <use xlink:href="#DejaVuSans-30" x="2317.574219"/>
    <use xlink:href="#DejaVuSans-20" x="2381.197266"/>
    <use xlink:href="#DejaVuSans-31" x="2412.984375"/>
    <use xlink:href="#DejaVuSans-37" x="2476.607422"/>
    <use xlink:href="#DejaVuSans-3a" x="2540.230469"/>
    <use xlink:href="#DejaVuSans-30" x="2573.921875"/>
    <use xlink:href="#DejaVuSans-30" x="2637.544922"/>
    <use xlink:href="#DejaVuSans-3a" x="2701.167969"/>
    <use xlink:href="#DejaVuSans-30" x="2734.859375"/>
    <use xlink:href="#DejaVuSans-30" x="2798.482422"/>
    <use xlink:href="#DejaVuSans-29" x="2862.105469"/>
   </g>
  </g>
 </g>
 <defs>
  <clipPath id="pc396bcfec2">
   <rect x="59.690625" y="23.837812" width="1116" height="332.64"/>
  </clipPath>
 </defs>
</svg>
