<?xml version="1.0" encoding="utf-8" standalone="no"?>
<!DOCTYPE svg PUBLIC "-//W3C//DTD SVG 1.1//EN"
  "http://www.w3.org/Graphics/SVG/1.1/DTD/svg11.dtd">
<svg xmlns:xlink="http://www.w3.org/1999/xlink" width="1182.890625pt" height="408.9575pt" viewBox="0 0 1182.890625 408.9575" xmlns="http://www.w3.org/2000/svg" version="1.1">
 <metadata>
  <rdf:RDF xmlns:dc="http://purl.org/dc/elements/1.1/" xmlns:cc="http://creativecommons.org/ns#" xmlns:rdf="http://www.w3.org/1999/02/22-rdf-syntax-ns#">
   <cc:Work>
    <dc:type rdf:resource="http://purl.org/dc/dcmitype/StillImage"/>
    <dc:date>2024-04-29T20:22:53.777470</dc:date>
    <dc:format>image/svg+xml</dc:format>
    <dc:creator>
     <cc:Agent>
      <dc:title>Matplotlib v3.8.4, https://matplotlib.org/</dc:title>
     </cc:Agent>
    </dc:creator>
   </cc:Work>
  </rdf:RDF>
 </metadata>
 <defs>
  <style type="text/css">*{stroke-linejoin: round; stroke-linecap: butt}</style>
 </defs>
 <g id="figure_1">
  <g id="patch_1">
   <path d="M 0 408.9575 
L 1182.890625 408.9575 
L 1182.890625 0 
L 0 0 
z
" style="fill: #ffffff"/>
  </g>
  <g id="axes_1">
   <g id="patch_2">
    <path d="M 59.690625 356.477812 
L 1175.690625 356.477812 
L 1175.690625 23.837812 
L 59.690625 23.837812 
z
" style="fill: #ffffff"/>
   </g>
   <g id="matplotlib.axis_1">
    <g id="xtick_1">
     <g id="line2d_1">
      <defs>
       <path id="m7c146d735d" d="M 0 0 
L 0 3.5 
" style="stroke: #000000; stroke-width: 0.8"/>
      </defs>
      <g>
       <use xlink:href="#m7c146d735d" x="98.32558" y="356.477812" style="stroke: #000000; stroke-width: 0.8"/>
      </g>
     </g>
     <g id="text_1">
      <!-- 2022-01 -->
      <g transform="translate(77.434174 371.07625) scale(0.1 -0.1)">
       <defs>
        <path id="DejaVuSans-32" d="M 1228 531 
L 3431 531 
L 3431 0 
L 469 0 
L 469 531 
Q 828 903 1448 1529 
Q 2069 2156 2228 2338 
Q 2531 2678 2651 2914 
Q 2772 3150 2772 3378 
Q 2772 3750 2511 3984 
Q 2250 4219 1831 4219 
Q 1534 4219 1204 4116 
Q 875 4013 500 3803 
L 500 4441 
Q 881 4594 1212 4672 
Q 1544 4750 1819 4750 
Q 2544 4750 2975 4387 
Q 3406 4025 3406 3419 
Q 3406 3131 3298 2873 
Q 3191 2616 2906 2266 
Q 2828 2175 2409 1742 
Q 1991 1309 1228 531 
z
" transform="scale(0.015625)"/>
        <path id="DejaVuSans-30" d="M 2034 4250 
Q 1547 4250 1301 3770 
Q 1056 3291 1056 2328 
Q 1056 1369 1301 889 
Q 1547 409 2034 409 
Q 2525 409 2770 889 
Q 3016 1369 3016 2328 
Q 3016 3291 2770 3770 
Q 2525 4250 2034 4250 
z
M 2034 4750 
Q 2819 4750 3233 4129 
Q 3647 3509 3647 2328 
Q 3647 1150 3233 529 
Q 2819 -91 2034 -91 
Q 1250 -91 836 529 
Q 422 1150 422 2328 
Q 422 3509 836 4129 
Q 1250 4750 2034 4750 
z
" transform="scale(0.015625)"/>
        <path id="DejaVuSans-2d" d="M 313 2009 
L 1997 2009 
L 1997 1497 
L 313 1497 
L 313 2009 
z
" transform="scale(0.015625)"/>
        <path id="DejaVuSans-31" d="M 794 531 
L 1825 531 
L 1825 4091 
L 703 3866 
L 703 4441 
L 1819 4666 
L 2450 4666 
L 2450 531 
L 3481 531 
L 3481 0 
L 794 0 
L 794 531 
z
" transform="scale(0.015625)"/>
       </defs>
       <use xlink:href="#DejaVuSans-32"/>
       <use xlink:href="#DejaVuSans-30" x="63.623047"/>
       <use xlink:href="#DejaVuSans-32" x="127.246094"/>
       <use xlink:href="#DejaVuSans-32" x="190.869141"/>
       <use xlink:href="#DejaVuSans-2d" x="254.492188"/>
       <use xlink:href="#DejaVuSans-30" x="290.576172"/>
       <use xlink:href="#DejaVuSans-31" x="354.199219"/>
      </g>
     </g>
    </g>
    <g id="xtick_2">
     <g id="line2d_2">
      <g>
       <use xlink:href="#m7c146d735d" x="207.156439" y="356.477812" style="stroke: #000000; stroke-width: 0.8"/>
      </g>
     </g>
     <g id="text_2">
      <!-- 2022-04 -->
      <g transform="translate(186.265033 371.07625) scale(0.1 -0.1)">
       <defs>
        <path id="DejaVuSans-34" d="M 2419 4116 
L 825 1625 
L 2419 1625 
L 2419 4116 
z
M 2253 4666 
L 3047 4666 
L 3047 1625 
L 3713 1625 
L 3713 1100 
L 3047 1100 
L 3047 0 
L 2419 0 
L 2419 1100 
L 313 1100 
L 313 1709 
L 2253 4666 
z
" transform="scale(0.015625)"/>
       </defs>
       <use xlink:href="#DejaVuSans-32"/>
       <use xlink:href="#DejaVuSans-30" x="63.623047"/>
       <use xlink:href="#DejaVuSans-32" x="127.246094"/>
       <use xlink:href="#DejaVuSans-32" x="190.869141"/>
       <use xlink:href="#DejaVuSans-2d" x="254.492188"/>
       <use xlink:href="#DejaVuSans-30" x="290.576172"/>
       <use xlink:href="#DejaVuSans-34" x="354.199219"/>
      </g>
     </g>
    </g>
    <g id="xtick_3">
     <g id="line2d_3">
      <g>
       <use xlink:href="#m7c146d735d" x="317.19653" y="356.477812" style="stroke: #000000; stroke-width: 0.8"/>
      </g>
     </g>
     <g id="text_3">
      <!-- 2022-07 -->
      <g transform="translate(296.305124 371.07625) scale(0.1 -0.1)">
       <defs>
        <path id="DejaVuSans-37" d="M 525 4666 
L 3525 4666 
L 3525 4397 
L 1831 0 
L 1172 0 
L 2766 4134 
L 525 4134 
L 525 4666 
z
" transform="scale(0.015625)"/>
       </defs>
       <use xlink:href="#DejaVuSans-32"/>
       <use xlink:href="#DejaVuSans-30" x="63.623047"/>
       <use xlink:href="#DejaVuSans-32" x="127.246094"/>
       <use xlink:href="#DejaVuSans-32" x="190.869141"/>
       <use xlink:href="#DejaVuSans-2d" x="254.492188"/>
       <use xlink:href="#DejaVuSans-30" x="290.576172"/>
       <use xlink:href="#DejaVuSans-37" x="354.199219"/>
      </g>
     </g>
    </g>
    <g id="xtick_4">
     <g id="line2d_4">
      <g>
       <use xlink:href="#m7c146d735d" x="428.445853" y="356.477812" style="stroke: #000000; stroke-width: 0.8"/>
      </g>
     </g>
     <g id="text_4">
      <!-- 2022-10 -->
      <g transform="translate(407.554447 371.07625) scale(0.1 -0.1)">
       <use xlink:href="#DejaVuSans-32"/>
       <use xlink:href="#DejaVuSans-30" x="63.623047"/>
       <use xlink:href="#DejaVuSans-32" x="127.246094"/>
       <use xlink:href="#DejaVuSans-32" x="190.869141"/>
       <use xlink:href="#DejaVuSans-2d" x="254.492188"/>
       <use xlink:href="#DejaVuSans-31" x="290.576172"/>
       <use xlink:href="#DejaVuSans-30" x="354.199219"/>
      </g>
     </g>
    </g>
    <g id="xtick_5">
     <g id="line2d_5">
      <g>
       <use xlink:href="#m7c146d735d" x="539.695176" y="356.477812" style="stroke: #000000; stroke-width: 0.8"/>
      </g>
     </g>
     <g id="text_5">
      <!-- 2023-01 -->
      <g transform="translate(518.80377 371.07625) scale(0.1 -0.1)">
       <defs>
        <path id="DejaVuSans-33" d="M 2597 2516 
Q 3050 2419 3304 2112 
Q 3559 1806 3559 1356 
Q 3559 666 3084 287 
Q 2609 -91 1734 -91 
Q 1441 -91 1130 -33 
Q 819 25 488 141 
L 488 750 
Q 750 597 1062 519 
Q 1375 441 1716 441 
Q 2309 441 2620 675 
Q 2931 909 2931 1356 
Q 2931 1769 2642 2001 
Q 2353 2234 1838 2234 
L 1294 2234 
L 1294 2753 
L 1863 2753 
Q 2328 2753 2575 2939 
Q 2822 3125 2822 3475 
Q 2822 3834 2567 4026 
Q 2313 4219 1838 4219 
Q 1578 4219 1281 4162 
Q 984 4106 628 3988 
L 628 4550 
Q 988 4650 1302 4700 
Q 1616 4750 1894 4750 
Q 2613 4750 3031 4423 
Q 3450 4097 3450 3541 
Q 3450 3153 3228 2886 
Q 3006 2619 2597 2516 
z
" transform="scale(0.015625)"/>
       </defs>
       <use xlink:href="#DejaVuSans-32"/>
       <use xlink:href="#DejaVuSans-30" x="63.623047"/>
       <use xlink:href="#DejaVuSans-32" x="127.246094"/>
       <use xlink:href="#DejaVuSans-33" x="190.869141"/>
       <use xlink:href="#DejaVuSans-2d" x="254.492188"/>
       <use xlink:href="#DejaVuSans-30" x="290.576172"/>
       <use xlink:href="#DejaVuSans-31" x="354.199219"/>
      </g>
     </g>
    </g>
    <g id="xtick_6">
     <g id="line2d_6">
      <g>
       <use xlink:href="#m7c146d735d" x="648.526035" y="356.477812" style="stroke: #000000; stroke-width: 0.8"/>
      </g>
     </g>
     <g id="text_6">
      <!-- 2023-04 -->
      <g transform="translate(627.634629 371.07625) scale(0.1 -0.1)">
       <use xlink:href="#DejaVuSans-32"/>
       <use xlink:href="#DejaVuSans-30" x="63.623047"/>
       <use xlink:href="#DejaVuSans-32" x="127.246094"/>
       <use xlink:href="#DejaVuSans-33" x="190.869141"/>
       <use xlink:href="#DejaVuSans-2d" x="254.492188"/>
       <use xlink:href="#DejaVuSans-30" x="290.576172"/>
       <use xlink:href="#DejaVuSans-34" x="354.199219"/>
      </g>
     </g>
    </g>
    <g id="xtick_7">
     <g id="line2d_7">
      <g>
       <use xlink:href="#m7c146d735d" x="758.566126" y="356.477812" style="stroke: #000000; stroke-width: 0.8"/>
      </g>
     </g>
     <g id="text_7">
      <!-- 2023-07 -->
      <g transform="translate(737.67472 371.07625) scale(0.1 -0.1)">
       <use xlink:href="#DejaVuSans-32"/>
       <use xlink:href="#DejaVuSans-30" x="63.623047"/>
       <use xlink:href="#DejaVuSans-32" x="127.246094"/>
       <use xlink:href="#DejaVuSans-33" x="190.869141"/>
       <use xlink:href="#DejaVuSans-2d" x="254.492188"/>
       <use xlink:href="#DejaVuSans-30" x="290.576172"/>
       <use xlink:href="#DejaVuSans-37" x="354.199219"/>
      </g>
     </g>
    </g>
    <g id="xtick_8">
     <g id="line2d_8">
      <g>
       <use xlink:href="#m7c146d735d" x="869.815449" y="356.477812" style="stroke: #000000; stroke-width: 0.8"/>
      </g>
     </g>
     <g id="text_8">
      <!-- 2023-10 -->
      <g transform="translate(848.924043 371.07625) scale(0.1 -0.1)">
       <use xlink:href="#DejaVuSans-32"/>
       <use xlink:href="#DejaVuSans-30" x="63.623047"/>
       <use xlink:href="#DejaVuSans-32" x="127.246094"/>
       <use xlink:href="#DejaVuSans-33" x="190.869141"/>
       <use xlink:href="#DejaVuSans-2d" x="254.492188"/>
       <use xlink:href="#DejaVuSans-31" x="290.576172"/>
       <use xlink:href="#DejaVuSans-30" x="354.199219"/>
      </g>
     </g>
    </g>
    <g id="xtick_9">
     <g id="line2d_9">
      <g>
       <use xlink:href="#m7c146d735d" x="981.064772" y="356.477812" style="stroke: #000000; stroke-width: 0.8"/>
      </g>
     </g>
     <g id="text_9">
      <!-- 2024-01 -->
      <g transform="translate(960.173365 371.07625) scale(0.1 -0.1)">
       <use xlink:href="#DejaVuSans-32"/>
       <use xlink:href="#DejaVuSans-30" x="63.623047"/>
       <use xlink:href="#DejaVuSans-32" x="127.246094"/>
       <use xlink:href="#DejaVuSans-34" x="190.869141"/>
       <use xlink:href="#DejaVuSans-2d" x="254.492188"/>
       <use xlink:href="#DejaVuSans-30" x="290.576172"/>
       <use xlink:href="#DejaVuSans-31" x="354.199219"/>
      </g>
     </g>
    </g>
    <g id="xtick_10">
     <g id="line2d_10">
      <g>
       <use xlink:href="#m7c146d735d" x="1091.104863" y="356.477812" style="stroke: #000000; stroke-width: 0.8"/>
      </g>
     </g>
     <g id="text_10">
      <!-- 2024-04 -->
      <g transform="translate(1070.213456 371.07625) scale(0.1 -0.1)">
       <use xlink:href="#DejaVuSans-32"/>
       <use xlink:href="#DejaVuSans-30" x="63.623047"/>
       <use xlink:href="#DejaVuSans-32" x="127.246094"/>
       <use xlink:href="#DejaVuSans-34" x="190.869141"/>
       <use xlink:href="#DejaVuSans-2d" x="254.492188"/>
       <use xlink:href="#DejaVuSans-30" x="290.576172"/>
       <use xlink:href="#DejaVuSans-34" x="354.199219"/>
      </g>
     </g>
    </g>
    <g id="text_11">
     <!-- Date -->
     <g transform="translate(605.739844 384.754375) scale(0.1 -0.1)">
      <defs>
       <path id="DejaVuSans-44" d="M 1259 4147 
L 1259 519 
L 2022 519 
Q 2988 519 3436 956 
Q 3884 1394 3884 2338 
Q 3884 3275 3436 3711 
Q 2988 4147 2022 4147 
L 1259 4147 
z
M 628 4666 
L 1925 4666 
Q 3281 4666 3915 4102 
Q 4550 3538 4550 2338 
Q 4550 1131 3912 565 
Q 3275 0 1925 0 
L 628 0 
L 628 4666 
z
" transform="scale(0.015625)"/>
       <path id="DejaVuSans-61" d="M 2194 1759 
Q 1497 1759 1228 1600 
Q 959 1441 959 1056 
Q 959 750 1161 570 
Q 1363 391 1709 391 
Q 2188 391 2477 730 
Q 2766 1069 2766 1631 
L 2766 1759 
L 2194 1759 
z
M 3341 1997 
L 3341 0 
L 2766 0 
L 2766 531 
Q 2569 213 2275 61 
Q 1981 -91 1556 -91 
Q 1019 -91 701 211 
Q 384 513 384 1019 
Q 384 1609 779 1909 
Q 1175 2209 1959 2209 
L 2766 2209 
L 2766 2266 
Q 2766 2663 2505 2880 
Q 2244 3097 1772 3097 
Q 1472 3097 1187 3025 
Q 903 2953 641 2809 
L 641 3341 
Q 956 3463 1253 3523 
Q 1550 3584 1831 3584 
Q 2591 3584 2966 3190 
Q 3341 2797 3341 1997 
z
" transform="scale(0.015625)"/>
       <path id="DejaVuSans-74" d="M 1172 4494 
L 1172 3500 
L 2356 3500 
L 2356 3053 
L 1172 3053 
L 1172 1153 
Q 1172 725 1289 603 
Q 1406 481 1766 481 
L 2356 481 
L 2356 0 
L 1766 0 
Q 1100 0 847 248 
Q 594 497 594 1153 
L 594 3053 
L 172 3053 
L 172 3500 
L 594 3500 
L 594 4494 
L 1172 4494 
z
" transform="scale(0.015625)"/>
       <path id="DejaVuSans-65" d="M 3597 1894 
L 3597 1613 
L 953 1613 
Q 991 1019 1311 708 
Q 1631 397 2203 397 
Q 2534 397 2845 478 
Q 3156 559 3463 722 
L 3463 178 
Q 3153 47 2828 -22 
Q 2503 -91 2169 -91 
Q 1331 -91 842 396 
Q 353 884 353 1716 
Q 353 2575 817 3079 
Q 1281 3584 2069 3584 
Q 2775 3584 3186 3129 
Q 3597 2675 3597 1894 
z
M 3022 2063 
Q 3016 2534 2758 2815 
Q 2500 3097 2075 3097 
Q 1594 3097 1305 2825 
Q 1016 2553 972 2059 
L 3022 2063 
z
" transform="scale(0.015625)"/>
      </defs>
      <use xlink:href="#DejaVuSans-44"/>
      <use xlink:href="#DejaVuSans-61" x="77.001953"/>
      <use xlink:href="#DejaVuSans-74" x="138.28125"/>
      <use xlink:href="#DejaVuSans-65" x="177.490234"/>
     </g>
    </g>
   </g>
   <g id="matplotlib.axis_2">
    <g id="ytick_1">
     <g id="line2d_11">
      <defs>
       <path id="mf961413ed6" d="M 0 0 
L -3.5 0 
" style="stroke: #000000; stroke-width: 0.8"/>
      </defs>
      <g>
       <use xlink:href="#mf961413ed6" x="59.690625" y="341.357812" style="stroke: #000000; stroke-width: 0.8"/>
      </g>
     </g>
     <g id="text_12">
      <!-- 0 -->
      <g transform="translate(46.328125 345.157031) scale(0.1 -0.1)">
       <use xlink:href="#DejaVuSans-30"/>
      </g>
     </g>
    </g>
    <g id="ytick_2">
     <g id="line2d_12">
      <g>
       <use xlink:href="#mf961413ed6" x="59.690625" y="275.036205" style="stroke: #000000; stroke-width: 0.8"/>
      </g>
     </g>
     <g id="text_13">
      <!-- 5000 -->
      <g transform="translate(27.240625 278.835424) scale(0.1 -0.1)">
       <defs>
        <path id="DejaVuSans-35" d="M 691 4666 
L 3169 4666 
L 3169 4134 
L 1269 4134 
L 1269 2991 
Q 1406 3038 1543 3061 
Q 1681 3084 1819 3084 
Q 2600 3084 3056 2656 
Q 3513 2228 3513 1497 
Q 3513 744 3044 326 
Q 2575 -91 1722 -91 
Q 1428 -91 1123 -41 
Q 819 9 494 109 
L 494 744 
Q 775 591 1075 516 
Q 1375 441 1709 441 
Q 2250 441 2565 725 
Q 2881 1009 2881 1497 
Q 2881 1984 2565 2268 
Q 2250 2553 1709 2553 
Q 1456 2553 1204 2497 
Q 953 2441 691 2322 
L 691 4666 
z
" transform="scale(0.015625)"/>
       </defs>
       <use xlink:href="#DejaVuSans-35"/>
       <use xlink:href="#DejaVuSans-30" x="63.623047"/>
       <use xlink:href="#DejaVuSans-30" x="127.246094"/>
       <use xlink:href="#DejaVuSans-30" x="190.869141"/>
      </g>
     </g>
    </g>
    <g id="ytick_3">
     <g id="line2d_13">
      <g>
       <use xlink:href="#mf961413ed6" x="59.690625" y="208.714598" style="stroke: #000000; stroke-width: 0.8"/>
      </g>
     </g>
     <g id="text_14">
      <!-- 10000 -->
      <g transform="translate(20.878125 212.513817) scale(0.1 -0.1)">
       <use xlink:href="#DejaVuSans-31"/>
       <use xlink:href="#DejaVuSans-30" x="63.623047"/>
       <use xlink:href="#DejaVuSans-30" x="127.246094"/>
       <use xlink:href="#DejaVuSans-30" x="190.869141"/>
       <use xlink:href="#DejaVuSans-30" x="254.492188"/>
      </g>
     </g>
    </g>
    <g id="ytick_4">
     <g id="line2d_14">
      <g>
       <use xlink:href="#mf961413ed6" x="59.690625" y="142.392991" style="stroke: #000000; stroke-width: 0.8"/>
      </g>
     </g>
     <g id="text_15">
      <!-- 15000 -->
      <g transform="translate(20.878125 146.19221) scale(0.1 -0.1)">
       <use xlink:href="#DejaVuSans-31"/>
       <use xlink:href="#DejaVuSans-35" x="63.623047"/>
       <use xlink:href="#DejaVuSans-30" x="127.246094"/>
       <use xlink:href="#DejaVuSans-30" x="190.869141"/>
       <use xlink:href="#DejaVuSans-30" x="254.492188"/>
      </g>
     </g>
    </g>
    <g id="ytick_5">
     <g id="line2d_15">
      <g>
       <use xlink:href="#mf961413ed6" x="59.690625" y="76.071384" style="stroke: #000000; stroke-width: 0.8"/>
      </g>
     </g>
     <g id="text_16">
      <!-- 20000 -->
      <g transform="translate(20.878125 79.870603) scale(0.1 -0.1)">
       <use xlink:href="#DejaVuSans-32"/>
       <use xlink:href="#DejaVuSans-30" x="63.623047"/>
       <use xlink:href="#DejaVuSans-30" x="127.246094"/>
       <use xlink:href="#DejaVuSans-30" x="190.869141"/>
       <use xlink:href="#DejaVuSans-30" x="254.492188"/>
      </g>
     </g>
    </g>
    <g id="text_17">
     <!-- Ticket Redemptions -->
     <g transform="translate(14.798438 239.336719) rotate(-90) scale(0.1 -0.1)">
      <defs>
       <path id="DejaVuSans-54" d="M -19 4666 
L 3928 4666 
L 3928 4134 
L 2272 4134 
L 2272 0 
L 1638 0 
L 1638 4134 
L -19 4134 
L -19 4666 
z
" transform="scale(0.015625)"/>
       <path id="DejaVuSans-69" d="M 603 3500 
L 1178 3500 
L 1178 0 
L 603 0 
L 603 3500 
z
M 603 4863 
L 1178 4863 
L 1178 4134 
L 603 4134 
L 603 4863 
z
" transform="scale(0.015625)"/>
       <path id="DejaVuSans-63" d="M 3122 3366 
L 3122 2828 
Q 2878 2963 2633 3030 
Q 2388 3097 2138 3097 
Q 1578 3097 1268 2742 
Q 959 2388 959 1747 
Q 959 1106 1268 751 
Q 1578 397 2138 397 
Q 2388 397 2633 464 
Q 2878 531 3122 666 
L 3122 134 
Q 2881 22 2623 -34 
Q 2366 -91 2075 -91 
Q 1284 -91 818 406 
Q 353 903 353 1747 
Q 353 2603 823 3093 
Q 1294 3584 2113 3584 
Q 2378 3584 2631 3529 
Q 2884 3475 3122 3366 
z
" transform="scale(0.015625)"/>
       <path id="DejaVuSans-6b" d="M 581 4863 
L 1159 4863 
L 1159 1991 
L 2875 3500 
L 3609 3500 
L 1753 1863 
L 3688 0 
L 2938 0 
L 1159 1709 
L 1159 0 
L 581 0 
L 581 4863 
z
" transform="scale(0.015625)"/>
       <path id="DejaVuSans-20" transform="scale(0.015625)"/>
       <path id="DejaVuSans-52" d="M 2841 2188 
Q 3044 2119 3236 1894 
Q 3428 1669 3622 1275 
L 4263 0 
L 3584 0 
L 2988 1197 
Q 2756 1666 2539 1819 
Q 2322 1972 1947 1972 
L 1259 1972 
L 1259 0 
L 628 0 
L 628 4666 
L 2053 4666 
Q 2853 4666 3247 4331 
Q 3641 3997 3641 3322 
Q 3641 2881 3436 2590 
Q 3231 2300 2841 2188 
z
M 1259 4147 
L 1259 2491 
L 2053 2491 
Q 2509 2491 2742 2702 
Q 2975 2913 2975 3322 
Q 2975 3731 2742 3939 
Q 2509 4147 2053 4147 
L 1259 4147 
z
" transform="scale(0.015625)"/>
       <path id="DejaVuSans-64" d="M 2906 2969 
L 2906 4863 
L 3481 4863 
L 3481 0 
L 2906 0 
L 2906 525 
Q 2725 213 2448 61 
Q 2172 -91 1784 -91 
Q 1150 -91 751 415 
Q 353 922 353 1747 
Q 353 2572 751 3078 
Q 1150 3584 1784 3584 
Q 2172 3584 2448 3432 
Q 2725 3281 2906 2969 
z
M 947 1747 
Q 947 1113 1208 752 
Q 1469 391 1925 391 
Q 2381 391 2643 752 
Q 2906 1113 2906 1747 
Q 2906 2381 2643 2742 
Q 2381 3103 1925 3103 
Q 1469 3103 1208 2742 
Q 947 2381 947 1747 
z
" transform="scale(0.015625)"/>
       <path id="DejaVuSans-6d" d="M 3328 2828 
Q 3544 3216 3844 3400 
Q 4144 3584 4550 3584 
Q 5097 3584 5394 3201 
Q 5691 2819 5691 2113 
L 5691 0 
L 5113 0 
L 5113 2094 
Q 5113 2597 4934 2840 
Q 4756 3084 4391 3084 
Q 3944 3084 3684 2787 
Q 3425 2491 3425 1978 
L 3425 0 
L 2847 0 
L 2847 2094 
Q 2847 2600 2669 2842 
Q 2491 3084 2119 3084 
Q 1678 3084 1418 2786 
Q 1159 2488 1159 1978 
L 1159 0 
L 581 0 
L 581 3500 
L 1159 3500 
L 1159 2956 
Q 1356 3278 1631 3431 
Q 1906 3584 2284 3584 
Q 2666 3584 2933 3390 
Q 3200 3197 3328 2828 
z
" transform="scale(0.015625)"/>
       <path id="DejaVuSans-70" d="M 1159 525 
L 1159 -1331 
L 581 -1331 
L 581 3500 
L 1159 3500 
L 1159 2969 
Q 1341 3281 1617 3432 
Q 1894 3584 2278 3584 
Q 2916 3584 3314 3078 
Q 3713 2572 3713 1747 
Q 3713 922 3314 415 
Q 2916 -91 2278 -91 
Q 1894 -91 1617 61 
Q 1341 213 1159 525 
z
M 3116 1747 
Q 3116 2381 2855 2742 
Q 2594 3103 2138 3103 
Q 1681 3103 1420 2742 
Q 1159 2381 1159 1747 
Q 1159 1113 1420 752 
Q 1681 391 2138 391 
Q 2594 391 2855 752 
Q 3116 1113 3116 1747 
z
" transform="scale(0.015625)"/>
       <path id="DejaVuSans-6f" d="M 1959 3097 
Q 1497 3097 1228 2736 
Q 959 2375 959 1747 
Q 959 1119 1226 758 
Q 1494 397 1959 397 
Q 2419 397 2687 759 
Q 2956 1122 2956 1747 
Q 2956 2369 2687 2733 
Q 2419 3097 1959 3097 
z
M 1959 3584 
Q 2709 3584 3137 3096 
Q 3566 2609 3566 1747 
Q 3566 888 3137 398 
Q 2709 -91 1959 -91 
Q 1206 -91 779 398 
Q 353 888 353 1747 
Q 353 2609 779 3096 
Q 1206 3584 1959 3584 
z
" transform="scale(0.015625)"/>
       <path id="DejaVuSans-6e" d="M 3513 2113 
L 3513 0 
L 2938 0 
L 2938 2094 
Q 2938 2591 2744 2837 
Q 2550 3084 2163 3084 
Q 1697 3084 1428 2787 
Q 1159 2491 1159 1978 
L 1159 0 
L 581 0 
L 581 3500 
L 1159 3500 
L 1159 2956 
Q 1366 3272 1645 3428 
Q 1925 3584 2291 3584 
Q 2894 3584 3203 3211 
Q 3513 2838 3513 2113 
z
" transform="scale(0.015625)"/>
       <path id="DejaVuSans-73" d="M 2834 3397 
L 2834 2853 
Q 2591 2978 2328 3040 
Q 2066 3103 1784 3103 
Q 1356 3103 1142 2972 
Q 928 2841 928 2578 
Q 928 2378 1081 2264 
Q 1234 2150 1697 2047 
L 1894 2003 
Q 2506 1872 2764 1633 
Q 3022 1394 3022 966 
Q 3022 478 2636 193 
Q 2250 -91 1575 -91 
Q 1294 -91 989 -36 
Q 684 19 347 128 
L 347 722 
Q 666 556 975 473 
Q 1284 391 1588 391 
Q 1994 391 2212 530 
Q 2431 669 2431 922 
Q 2431 1156 2273 1281 
Q 2116 1406 1581 1522 
L 1381 1569 
Q 847 1681 609 1914 
Q 372 2147 372 2553 
Q 372 3047 722 3315 
Q 1072 3584 1716 3584 
Q 2034 3584 2315 3537 
Q 2597 3491 2834 3397 
z
" transform="scale(0.015625)"/>
      </defs>
      <use xlink:href="#DejaVuSans-54"/>
      <use xlink:href="#DejaVuSans-69" x="57.958984"/>
      <use xlink:href="#DejaVuSans-63" x="85.742188"/>
      <use xlink:href="#DejaVuSans-6b" x="140.722656"/>
      <use xlink:href="#DejaVuSans-65" x="195.007812"/>
      <use xlink:href="#DejaVuSans-74" x="256.53125"/>
      <use xlink:href="#DejaVuSans-20" x="295.740234"/>
      <use xlink:href="#DejaVuSans-52" x="327.527344"/>
      <use xlink:href="#DejaVuSans-65" x="392.509766"/>
      <use xlink:href="#DejaVuSans-64" x="454.033203"/>
      <use xlink:href="#DejaVuSans-65" x="517.509766"/>
      <use xlink:href="#DejaVuSans-6d" x="579.033203"/>
      <use xlink:href="#DejaVuSans-70" x="676.445312"/>
      <use xlink:href="#DejaVuSans-74" x="739.921875"/>
      <use xlink:href="#DejaVuSans-69" x="779.130859"/>
      <use xlink:href="#DejaVuSans-6f" x="806.914062"/>
      <use xlink:href="#DejaVuSans-6e" x="868.095703"/>
      <use xlink:href="#DejaVuSans-73" x="931.474609"/>
     </g>
    </g>
   </g>
   <g id="line2d_16">
    <path d="M 110.417898 338.121318 
L 111.627129 336.13167 
L 112.836361 336.330635 
L 114.045593 335.985762 
L 115.254825 336.03882 
L 116.464057 327.191517 
L 117.673288 339.646715 
L 118.88252 337.338723 
L 120.091752 334.181815 
L 121.300984 335.136846 
L 122.510215 334.234872 
L 123.719447 330.573919 
L 124.928679 331.873823 
L 126.137911 335.070524 
L 127.347142 333.863471 
L 129.765606 334.447101 
L 130.974838 332.974761 
L 132.18407 326.196693 
L 133.393301 329.207694 
L 134.602533 335.017467 
L 135.811765 332.258488 
L 137.020997 334.858295 
L 138.230228 335.136846 
L 139.43946 333.823678 
L 140.648692 330.613712 
L 141.857924 328.756707 
L 143.067156 332.921704 
L 144.276387 333.850207 
L 145.485619 332.895175 
L 146.694851 336.542864 
L 147.904083 341.357812 
L 149.113314 341.357812 
L 150.322546 340.203817 
L 151.531778 337.325459 
L 152.74101 333.850207 
L 153.950241 332.775797 
L 155.159473 335.468454 
L 156.368705 336.489807 
L 157.577937 335.587833 
L 158.787169 333.107405 
L 159.9964 328.12002 
L 161.205632 334.208343 
L 162.414864 332.311545 
L 163.624096 331.727915 
L 164.833327 333.903264 
L 166.042559 333.00129 
L 167.251791 336.22452 
L 168.461023 334.380779 
L 169.670254 332.271752 
L 172.088718 332.165638 
L 173.29795 331.303457 
L 174.507182 332.298281 
L 175.716413 321.779674 
L 176.925645 334.911352 
L 178.134877 331.582008 
L 179.344109 331.157549 
L 180.55334 331.223871 
L 181.762572 334.088964 
L 182.971804 334.765445 
L 184.181036 337.29893 
L 185.390267 332.351338 
L 186.599499 336.635714 
L 187.808731 334.049171 
L 189.017963 320.254277 
L 191.436426 335.123581 
L 192.645658 323.238749 
L 193.85489 328.027169 
L 195.064122 330.428012 
L 196.273353 334.778709 
L 197.482585 330.905527 
L 198.691817 331.648329 
L 199.901049 331.290193 
L 201.11028 337.033644 
L 202.319512 333.691035 
L 203.528744 329.671945 
L 204.737976 334.367515 
L 205.947208 329.884174 
L 207.156439 334.791973 
L 208.365671 320.10837 
L 209.574903 333.558391 
L 210.784135 329.274016 
L 211.993366 330.467805 
L 213.202598 332.338074 
L 214.41183 328.88935 
L 215.621062 329.96376 
L 216.830293 329.738267 
L 218.039525 320.731793 
L 219.248757 328.982201 
L 220.457989 313.927196 
L 221.667221 328.730178 
L 222.876452 325.095754 
L 224.085684 316.434153 
L 225.294916 302.493351 
L 226.504148 301.312826 
L 227.713379 331.011642 
L 228.922611 330.414747 
L 230.131843 318.622766 
L 231.341075 329.406659 
L 232.550306 310.677437 
L 233.759538 328.6108 
L 234.96877 284.002887 
L 236.178002 328.88935 
L 237.387234 323.703001 
L 238.596465 327.350689 
L 241.014929 311.194746 
L 242.224161 286.164971 
L 243.433392 332.60336 
L 244.642624 323.238749 
L 245.851856 328.066962 
L 247.061088 316.97799 
L 248.270319 310.279507 
L 249.479551 317.813642 
L 250.688783 276.21673 
L 251.898015 256.890614 
L 253.107247 313.529266 
L 254.316478 316.235188 
L 255.52571 308.674524 
L 257.944174 294.720458 
L 259.153405 203.329284 
L 260.362637 248.189219 
L 261.571869 327.337425 
L 262.781101 314.33839 
L 263.990332 313.688438 
L 265.199564 311.181481 
L 266.408796 298.248768 
L 267.618028 270.221257 
L 268.82726 266.016467 
L 270.036491 182.212484 
L 271.245723 308.157216 
L 272.454955 313.675174 
L 273.664187 313.423152 
L 274.873418 322.575533 
L 276.08265 204.841416 
L 277.291882 200.132582 
L 278.501114 285.316054 
L 279.710345 287.504667 
L 280.919577 324.910054 
L 282.128809 305.995132 
L 283.338041 272.966971 
L 284.547273 165.525968 
L 285.756504 215.824274 
L 286.965736 311.035574 
L 288.174968 325.984464 
L 289.3842 286.47005 
L 290.593431 308.555146 
L 291.802663 259.662857 
L 293.011895 236.768638 
L 294.221127 296.219327 
L 295.430358 271.322195 
L 296.63959 278.697158 
L 297.848822 296.35197 
L 299.058054 299.455821 
L 300.267286 253.640855 
L 301.476517 121.037434 
L 302.685749 86.152268 
L 303.894981 289.812659 
L 305.104213 259.21187 
L 306.313444 281.323494 
L 307.522676 253.123546 
L 308.731908 230.919072 
L 309.94114 100.650171 
L 311.150371 254.569357 
L 312.359603 250.457418 
L 313.568835 251.160427 
L 314.778067 301.007747 
L 315.987299 234.221888 
L 317.19653 145.868243 
L 318.405762 77.437609 
L 319.614994 113.264541 
L 322.033457 309.722406 
L 323.242689 233.174007 
L 324.451921 241.198921 
L 325.661153 243.559971 
L 326.870384 115.081753 
L 328.079616 105.783464 
L 329.288848 224.857277 
L 330.49808 262.819765 
L 331.707312 274.346461 
L 332.916543 215.373288 
L 334.125775 209.006413 
L 335.335007 38.957812 
L 336.544239 108.568971 
L 337.75347 296.948864 
L 338.962702 256.850821 
L 340.171934 244.249715 
L 341.381166 217.256821 
L 342.590397 205.597483 
L 343.799629 94.933249 
L 345.008861 282.543811 
L 346.218093 205.995412 
L 347.427325 216.620134 
L 348.636556 220.984096 
L 349.845788 196.047171 
L 351.05502 196.949145 
L 352.264252 108.370007 
L 353.473483 73.683806 
L 355.891947 215.386552 
L 357.101179 219.92295 
L 358.31041 296.325441 
L 359.519642 204.854681 
L 360.728874 96.246417 
L 361.938106 191.073051 
L 363.147338 300.543495 
L 364.356569 234.394324 
L 365.565801 203.037469 
L 366.775033 198.40822 
L 367.984265 185.661208 
L 369.193496 67.568954 
L 370.402728 117.09793 
L 371.61196 174.877314 
L 372.821192 215.665103 
L 374.030423 248.74632 
L 376.448887 193.739179 
L 377.658119 104.045838 
L 378.867351 262.34225 
L 380.076582 311.685525 
L 381.285814 231.144566 
L 382.495046 218.875068 
L 383.704278 278.4584 
L 384.913509 253.176604 
L 386.122741 131.317283 
L 387.331973 145.788657 
L 389.750436 310.306036 
L 390.959668 237.498176 
L 392.1689 225.4807 
L 393.378132 193.4341 
L 394.587364 133.585482 
L 395.796595 241.145864 
L 397.005827 228.160093 
L 398.215059 292.982832 
L 399.424291 309.748935 
L 400.633522 294.587815 
L 401.842754 283.976358 
L 403.051986 195.277841 
L 404.261218 240.33674 
L 405.470449 322.999992 
L 406.679681 316.871875 
L 407.888913 295.131652 
L 409.098145 301.219976 
L 410.307377 295.980569 
L 411.516608 204.019028 
L 412.72584 290.887069 
L 413.935072 287.053681 
L 415.144304 292.889982 
L 416.353535 317.521827 
L 417.562767 312.362006 
L 418.771999 305.743109 
L 419.981231 250.430889 
L 421.190462 325.374305 
L 422.399694 324.936583 
L 423.608926 328.013905 
L 424.818158 318.423801 
L 426.02739 310.531529 
L 428.445853 286.390464 
L 429.655085 289.0168 
L 430.864317 318.277893 
L 432.073548 316.022959 
L 433.28278 307.560321 
L 434.492012 317.25654 
L 435.701244 322.641855 
L 436.910475 295.410203 
L 438.119707 287.106738 
L 439.328939 280.302141 
L 440.538171 304.496263 
L 441.747403 321.315423 
L 442.956634 329.061787 
L 444.165866 314.33839 
L 445.375098 311.433503 
L 446.58433 307.6797 
L 447.793561 327.576183 
L 449.002793 328.88935 
L 450.212025 319.405361 
L 451.421257 327.987376 
L 452.630488 316.818818 
L 453.83972 278.975709 
L 455.048952 282.450961 
L 456.258184 310.425415 
L 457.467416 317.535091 
L 458.676647 328.332249 
L 459.885879 318.463594 
L 461.095111 319.471682 
L 462.304343 299.548671 
L 463.513574 315.691351 
L 464.722806 326.010993 
L 465.932038 323.91523 
L 467.14127 322.164339 
L 468.350501 329.220958 
L 469.559733 319.89614 
L 470.768965 295.927512 
L 471.978197 295.927512 
L 473.187429 323.862173 
L 474.39666 325.825292 
L 475.605892 326.223222 
L 476.815124 315.90358 
L 478.024356 332.231959 
L 479.233587 318.569708 
L 480.442819 327.867998 
L 481.652051 328.544478 
L 482.861283 333.704299 
L 484.070514 333.757356 
L 485.279746 331.329985 
L 486.488978 332.974761 
L 487.69821 330.693298 
L 488.907442 334.712387 
L 490.116673 331.303457 
L 491.325905 329.791324 
L 492.535137 327.669033 
L 493.744369 331.064699 
L 494.9536 326.806852 
L 496.162832 315.956637 
L 497.372064 336.834679 
L 498.581296 330.693298 
L 499.790527 331.117756 
L 500.999759 333.545127 
L 502.208991 332.430924 
L 503.418223 332.51051 
L 504.627455 333.133933 
L 505.836686 329.671945 
L 507.045918 334.035907 
L 508.25515 332.298281 
L 509.464382 331.131021 
L 510.673613 328.159813 
L 511.882845 332.178902 
L 513.092077 333.505334 
L 514.301309 336.927529 
L 515.51054 332.842118 
L 516.719772 332.60336 
L 517.929004 334.553216 
L 519.138236 335.82659 
L 520.347468 332.231959 
L 521.556699 332.430924 
L 522.765931 334.394044 
L 523.975163 330.666769 
L 525.184395 331.449364 
L 526.393626 328.597535 
L 527.602858 332.457453 
L 528.81209 340.309931 
L 530.021322 341.357812 
L 531.230553 334.685859 
L 532.439785 334.340986 
L 533.649017 331.170814 
L 534.858249 331.03817 
L 536.067481 323.955023 
L 537.276712 330.17599 
L 538.485944 333.943057 
L 539.695176 331.661594 
L 540.904408 326.037521 
L 542.113639 335.773533 
L 543.322871 335.906176 
L 544.532103 332.90844 
L 545.741335 332.457453 
L 546.950566 328.345513 
L 548.159798 334.195079 
L 549.36903 331.489157 
L 550.578262 332.576832 
L 551.787494 333.359427 
L 552.996725 333.876735 
L 554.205957 336.052084 
L 555.415189 330.149461 
L 556.624421 329.68521 
L 557.833652 331.184078 
L 559.042884 336.80815 
L 560.252116 331.077963 
L 561.461348 334.195079 
L 562.670579 332.364603 
L 563.879811 331.887087 
L 565.089043 336.211256 
L 566.298275 328.730178 
L 567.507507 332.483981 
L 568.716738 332.231959 
L 569.92597 335.349075 
L 571.135202 332.789061 
L 572.344434 331.674858 
L 573.553665 337.007115 
L 574.762897 332.41766 
L 575.972129 334.526687 
L 577.181361 330.36169 
L 578.390592 331.396307 
L 579.599824 334.619537 
L 580.809056 339.885473 
L 582.018288 331.03817 
L 583.22752 331.502422 
L 584.436751 335.296018 
L 585.645983 330.069875 
L 586.855215 334.831766 
L 588.064447 332.377867 
L 589.273678 325.838556 
L 590.48291 323.583622 
L 591.692142 330.003553 
L 592.901374 329.47298 
L 594.110605 332.736004 
L 595.319837 330.374954 
L 596.529069 334.526687 
L 597.738301 329.075051 
L 598.947533 322.111282 
L 600.156764 319.790026 
L 601.365996 330.043346 
L 602.575228 334.022643 
L 603.78446 336.794886 
L 604.993691 330.26884 
L 606.202923 334.301193 
L 607.412155 329.47298 
L 608.621387 334.646066 
L 609.830618 330.016818 
L 611.03985 330.680034 
L 612.249082 328.637328 
L 613.458314 333.18699 
L 614.667546 331.847294 
L 615.876777 329.857646 
L 617.086009 331.52895 
L 618.295241 332.789061 
L 619.504473 327.562918 
L 620.713704 331.276928 
L 621.922936 331.887087 
L 623.132168 331.396307 
L 625.550632 333.518599 
L 626.759863 334.142022 
L 627.969095 327.417011 
L 629.178327 329.539302 
L 630.387559 335.043995 
L 631.59679 331.887087 
L 632.806022 332.921704 
L 634.015254 326.329336 
L 635.224486 326.010993 
L 636.433717 330.666769 
L 637.642949 332.01973 
L 638.852181 326.448715 
L 640.061413 337.153023 
L 641.270645 312.454856 
L 642.479876 331.4361 
L 643.689108 330.653505 
L 644.89834 333.240048 
L 646.107572 328.663857 
L 647.316803 335.335811 
L 648.526035 324.392745 
L 649.735267 318.662559 
L 650.944499 324.40601 
L 652.15373 331.860558 
L 653.362962 320.665471 
L 654.572194 321.501123 
L 655.781426 286.324143 
L 656.990658 287.902597 
L 658.199889 278.511458 
L 659.409121 298.68649 
L 660.618353 315.877051 
L 661.827585 299.588464 
L 663.036816 291.908422 
L 664.246048 295.967305 
L 665.45528 262.992201 
L 666.664512 275.14232 
L 667.873743 330.520862 
L 669.082975 327.735354 
L 670.292207 323.066313 
L 671.501439 322.575533 
L 672.710671 315.147513 
L 673.919902 325.414098 
L 675.129134 306.830784 
L 676.338366 324.034609 
L 677.547598 318.675823 
L 678.756829 314.497562 
L 679.966061 299.416028 
L 681.175293 322.694912 
L 683.593756 331.860558 
L 684.802988 322.641855 
L 686.01222 326.408922 
L 687.221452 326.64768 
L 688.430684 316.911668 
L 689.639915 297.61208 
L 690.849147 221.567726 
L 692.058379 315.784201 
L 693.267611 303.023924 
L 694.476842 306.379797 
L 695.686074 303.514703 
L 696.895306 298.155918 
L 698.104538 287.84954 
L 699.313769 199.588745 
L 700.523001 237.299211 
L 701.732233 301.777077 
L 702.941465 304.297298 
L 704.150697 317.919757 
L 705.359928 307.905194 
L 706.56916 295.144917 
L 707.778392 270.420221 
L 708.987624 78.379376 
L 710.196855 168.934898 
L 711.406087 280.341934 
L 712.615319 313.104808 
L 713.824551 301.405676 
L 715.033782 287.199588 
L 716.243014 166.494263 
L 717.452246 165.897369 
L 718.661478 277.596219 
L 719.87071 289.348408 
L 721.079941 278.126792 
L 722.289173 281.933652 
L 723.498405 270.911001 
L 724.707637 155.829749 
L 725.916868 194.932968 
L 727.1261 281.960181 
L 728.335332 288.698456 
L 729.544564 282.782569 
L 730.753795 314.497562 
L 731.963027 305.544145 
L 733.172259 160.711019 
L 734.381491 274.028117 
L 735.590723 307.480736 
L 736.799954 294.123564 
L 738.009186 308.236802 
L 739.218418 300.543495 
L 740.42765 284.493667 
L 741.636881 57.116669 
L 742.846113 98.050364 
L 744.055345 255.00708 
L 745.264577 244.621116 
L 746.473808 250.590061 
L 747.68304 261.373954 
L 748.892272 283.193763 
L 750.101504 267.555128 
L 751.310736 159.02645 
L 752.519967 295.330617 
L 753.729199 315.001606 
L 754.938431 262.965673 
L 756.147663 230.97213 
L 757.356894 246.451593 
L 758.566126 94.177183 
L 759.775358 237.140039 
L 760.98459 168.072717 
L 762.193821 211.937828 
L 763.403053 149.104738 
L 764.612285 268.457102 
L 765.821517 198.063348 
L 767.030749 118.915142 
L 768.23998 179.931021 
L 770.658444 251.492035 
L 771.867676 217.707808 
L 773.076907 268.868296 
L 774.286139 182.716528 
L 775.495371 155.285911 
L 776.704603 115.758234 
L 777.913834 236.211537 
L 779.123066 230.680314 
L 780.332298 191.86891 
L 781.54153 246.862787 
L 782.750762 216.169147 
L 783.959993 64.650803 
L 785.169225 136.384253 
L 786.378457 261.771884 
L 787.587689 239.514353 
L 788.79692 203.050733 
L 790.006152 228.849838 
L 791.215384 209.842066 
L 792.424616 244.93946 
L 793.633847 89.879542 
L 794.843079 224.207326 
L 796.052311 207.149408 
L 797.261543 213.834626 
L 798.470775 228.531494 
L 799.680006 194.787061 
L 800.889238 96.326003 
L 802.09847 64.067173 
L 803.307702 273.099614 
L 804.516933 254.662208 
L 805.726165 170.699053 
L 806.935397 266.852119 
L 808.144629 169.545057 
L 809.35386 217.973095 
L 810.563092 104.470296 
L 811.772324 213.808098 
L 812.981556 198.262313 
L 814.190788 175.275244 
L 815.400019 209.881858 
L 816.609251 238.439943 
L 817.818483 62.793798 
L 819.027715 110.134161 
L 820.236946 225.520493 
L 821.446178 216.646662 
L 822.65541 288.8311 
L 823.864642 246.557707 
L 825.073873 225.308264 
L 826.283105 187.345776 
L 827.492337 123.54439 
L 828.701569 210.797097 
L 829.910801 214.975358 
L 831.120032 245.589412 
L 832.329264 212.866331 
L 833.538496 195.662506 
L 834.747728 130.813238 
L 835.956959 83.061681 
L 837.166191 141.172673 
L 838.375423 282.119353 
L 839.584655 286.841451 
L 840.793886 308.117423 
L 842.003118 295.808133 
L 843.21235 216.368112 
L 844.421582 216.39464 
L 845.630814 292.836925 
L 846.840045 318.768673 
L 848.049277 309.908106 
L 850.467741 280.182762 
L 851.676972 190.250663 
L 852.886204 251.133898 
L 854.095436 303.541232 
L 855.304668 302.4005 
L 856.513899 302.055628 
L 857.723131 297.691666 
L 858.932363 286.324143 
L 860.141595 231.370059 
L 861.350827 242.153953 
L 862.560058 299.124213 
L 863.76929 313.144601 
L 864.978522 309.404062 
L 866.187754 311.964076 
L 867.396985 288.565813 
L 868.606217 242.512089 
L 869.815449 243.533442 
L 871.024681 282.450961 
L 872.233912 287.743425 
L 873.443144 288.260734 
L 874.652376 296.736635 
L 875.861608 302.135214 
L 877.07084 279.612396 
L 878.280071 310.451944 
L 879.489303 306.154303 
L 880.698535 251.810379 
L 881.907767 317.428977 
L 883.116998 309.417326 
L 884.32623 313.94046 
L 885.535462 312.056926 
L 886.744694 317.680999 
L 887.953925 321.142987 
L 889.163157 315.797465 
L 891.581621 320.028784 
L 892.790853 328.544478 
L 894.000084 312.017133 
L 895.209316 310.505001 
L 896.418548 317.972814 
L 897.62778 312.454856 
L 898.837011 319.166603 
L 900.046243 328.265927 
L 901.255475 311.274331 
L 902.464707 288.685192 
L 903.673938 326.422187 
L 904.88317 316.513738 
L 906.092402 323.252014 
L 907.301634 329.141372 
L 908.510866 328.70365 
L 912.138561 316.540267 
L 913.347793 332.139109 
L 914.557024 330.786148 
L 915.766256 328.345513 
L 916.975488 328.7965 
L 918.18472 323.185692 
L 919.393951 325.002904 
L 920.603183 322.893877 
L 921.812415 315.5985 
L 923.021647 330.255575 
L 924.230879 327.987376 
L 925.44011 326.090579 
L 926.649342 330.308633 
L 927.858574 317.349391 
L 929.067806 325.374305 
L 930.277037 329.433188 
L 931.486269 336.450014 
L 932.695501 331.223871 
L 933.904733 329.764796 
L 935.113964 329.433188 
L 936.323196 325.719178 
L 937.532428 333.120669 
L 938.74166 310.703966 
L 939.950892 334.593009 
L 941.160123 334.951145 
L 942.369355 327.13846 
L 943.578587 335.216432 
L 944.787819 331.489157 
L 945.99705 335.335811 
L 947.206282 333.18699 
L 948.415514 333.730828 
L 949.624746 332.828854 
L 950.833977 334.367515 
L 952.043209 332.802325 
L 953.252441 330.030082 
L 954.461673 333.744092 
L 955.670905 334.128757 
L 956.880136 308.342916 
L 958.089368 333.664506 
L 959.2986 325.812028 
L 960.507832 327.81494 
L 962.926295 333.783885 
L 964.135527 334.234872 
L 965.344759 327.907791 
L 966.55399 331.263664 
L 967.763222 329.021994 
L 968.972454 331.555479 
L 970.181686 335.468454 
L 971.390918 328.743443 
L 972.600149 328.584271 
L 973.809381 331.727915 
L 975.018613 335.680683 
L 976.227845 331.820765 
L 977.437076 330.36169 
L 978.646308 325.838556 
L 979.85554 327.470068 
L 982.274003 330.321897 
L 983.483235 331.104492 
L 984.692467 329.327073 
L 985.901699 333.439013 
L 987.110931 333.810414 
L 988.320162 334.805238 
L 989.529394 334.593009 
L 990.738626 336.383692 
L 991.947858 335.083788 
L 993.157089 335.070524 
L 994.366321 327.23131 
L 995.575553 339.699772 
L 996.784785 337.511159 
L 997.994016 334.778709 
L 999.203248 335.866383 
L 1000.41248 334.937881 
L 1001.621712 334.858295 
L 1002.830944 334.035907 
L 1004.040175 335.441925 
L 1005.249407 330.414747 
L 1007.667871 338.147847 
L 1008.877102 335.256225 
L 1010.086334 334.128757 
L 1011.295566 334.500158 
L 1012.504798 333.505334 
L 1013.714029 333.412484 
L 1014.923261 323.756058 
L 1016.132493 334.287929 
L 1017.341725 332.483981 
L 1018.550957 335.176639 
L 1019.760188 331.263664 
L 1020.96942 323.278542 
L 1022.178652 325.042697 
L 1023.387884 334.049171 
L 1024.597115 332.775797 
L 1025.806347 332.590096 
L 1027.015579 332.749268 
L 1028.224811 327.191517 
L 1029.434042 319.179867 
L 1030.643274 331.621801 
L 1031.852506 332.430924 
L 1033.061738 329.313809 
L 1034.27097 321.76641 
L 1035.480201 334.420572 
L 1036.689433 334.221608 
L 1037.898665 330.825941 
L 1039.107897 333.425748 
L 1040.317128 329.28728 
L 1041.52636 329.101579 
L 1042.735592 330.666769 
L 1043.944824 330.985113 
L 1045.154055 329.526038 
L 1046.363287 331.144285 
L 1047.572519 331.157549 
L 1048.781751 325.838556 
L 1049.990983 325.228398 
L 1051.200214 333.916528 
L 1052.409446 332.51051 
L 1053.618678 326.170164 
L 1054.82791 330.428012 
L 1056.037141 329.141372 
L 1057.246373 323.013256 
L 1058.455605 328.823029 
L 1059.664837 330.255575 
L 1060.874068 322.283718 
L 1062.0833 328.186341 
L 1063.292532 335.256225 
L 1064.501764 334.460365 
L 1065.710996 325.042697 
L 1066.920227 323.5173 
L 1068.129459 300.06598 
L 1069.338691 331.157549 
L 1070.547923 326.488508 
L 1071.757154 324.856997 
L 1072.966386 330.308633 
L 1074.175618 330.45454 
L 1075.38485 332.351338 
L 1076.594081 331.210607 
L 1077.803313 330.573919 
L 1079.012545 333.956321 
L 1080.221777 328.584271 
L 1081.431009 325.228398 
L 1082.64024 325.75897 
L 1083.849472 330.534126 
L 1085.058704 325.069226 
L 1086.267936 320.559356 
L 1088.686399 306.552233 
L 1089.895631 308.608203 
L 1091.104863 318.927845 
L 1092.314094 331.780972 
L 1093.523326 333.943057 
L 1094.732558 334.022643 
L 1095.94179 326.170164 
L 1097.151022 305.782902 
L 1098.360253 296.829485 
L 1099.569485 325.679385 
L 1100.778717 323.02652 
L 1101.987949 313.688438 
L 1103.19718 331.807501 
L 1104.406412 333.439013 
L 1105.615644 320.134898 
L 1106.824876 311.168217 
L 1108.034108 314.391447 
L 1109.243339 315.147513 
L 1110.452571 332.802325 
L 1111.661803 325.17534 
L 1112.871035 323.676472 
L 1114.080266 320.890965 
L 1115.289498 312.37527 
L 1116.49873 310.266243 
L 1117.707962 326.926231 
L 1118.917193 319.975726 
L 1120.126425 314.444504 
L 1121.335657 306.976691 
L 1122.544889 323.941758 
L 1123.754121 311.844697 
L 1124.963352 323.198956 
L 1124.963352 323.198956 
" clip-path="url(#p36936007ef)" style="fill: none; stroke: #008080; stroke-width: 1.5; stroke-linecap: square"/>
   </g>
   <g id="patch_3">
    <path d="M 59.690625 356.477812 
L 59.690625 23.837812 
" style="fill: none; stroke: #000000; stroke-width: 0.8; stroke-linejoin: miter; stroke-linecap: square"/>
   </g>
   <g id="patch_4">
    <path d="M 1175.690625 356.477812 
L 1175.690625 23.837812 
" style="fill: none; stroke: #000000; stroke-width: 0.8; stroke-linejoin: miter; stroke-linecap: square"/>
   </g>
   <g id="patch_5">
    <path d="M 59.690625 356.477812 
L 1175.690625 356.477812 
" style="fill: none; stroke: #000000; stroke-width: 0.8; stroke-linejoin: miter; stroke-linecap: square"/>
   </g>
   <g id="patch_6">
    <path d="M 59.690625 23.837812 
L 1175.690625 23.837812 
" style="fill: none; stroke: #000000; stroke-width: 0.8; stroke-linejoin: miter; stroke-linecap: square"/>
   </g>
   <g id="text_18">
    <!-- Toronto Island Ferry Ticket Redemptions -->
    <g transform="translate(477.780313 17.837812) scale(0.14 -0.14)">
     <defs>
      <path id="DejaVuSans-72" d="M 2631 2963 
Q 2534 3019 2420 3045 
Q 2306 3072 2169 3072 
Q 1681 3072 1420 2755 
Q 1159 2438 1159 1844 
L 1159 0 
L 581 0 
L 581 3500 
L 1159 3500 
L 1159 2956 
Q 1341 3275 1631 3429 
Q 1922 3584 2338 3584 
Q 2397 3584 2469 3576 
Q 2541 3569 2628 3553 
L 2631 2963 
z
" transform="scale(0.015625)"/>
      <path id="DejaVuSans-49" d="M 628 4666 
L 1259 4666 
L 1259 0 
L 628 0 
L 628 4666 
z
" transform="scale(0.015625)"/>
      <path id="DejaVuSans-6c" d="M 603 4863 
L 1178 4863 
L 1178 0 
L 603 0 
L 603 4863 
z
" transform="scale(0.015625)"/>
      <path id="DejaVuSans-46" d="M 628 4666 
L 3309 4666 
L 3309 4134 
L 1259 4134 
L 1259 2759 
L 3109 2759 
L 3109 2228 
L 1259 2228 
L 1259 0 
L 628 0 
L 628 4666 
z
" transform="scale(0.015625)"/>
      <path id="DejaVuSans-79" d="M 2059 -325 
Q 1816 -950 1584 -1140 
Q 1353 -1331 966 -1331 
L 506 -1331 
L 506 -850 
L 844 -850 
Q 1081 -850 1212 -737 
Q 1344 -625 1503 -206 
L 1606 56 
L 191 3500 
L 800 3500 
L 1894 763 
L 2988 3500 
L 3597 3500 
L 2059 -325 
z
" transform="scale(0.015625)"/>
     </defs>
     <use xlink:href="#DejaVuSans-54"/>
     <use xlink:href="#DejaVuSans-6f" x="44.083984"/>
     <use xlink:href="#DejaVuSans-72" x="105.265625"/>
     <use xlink:href="#DejaVuSans-6f" x="144.128906"/>
     <use xlink:href="#DejaVuSans-6e" x="205.310547"/>
     <use xlink:href="#DejaVuSans-74" x="268.689453"/>
     <use xlink:href="#DejaVuSans-6f" x="307.898438"/>
     <use xlink:href="#DejaVuSans-20" x="369.080078"/>
     <use xlink:href="#DejaVuSans-49" x="400.867188"/>
     <use xlink:href="#DejaVuSans-73" x="430.359375"/>
     <use xlink:href="#DejaVuSans-6c" x="482.458984"/>
     <use xlink:href="#DejaVuSans-61" x="510.242188"/>
     <use xlink:href="#DejaVuSans-6e" x="571.521484"/>
     <use xlink:href="#DejaVuSans-64" x="634.900391"/>
     <use xlink:href="#DejaVuSans-20" x="698.376953"/>
     <use xlink:href="#DejaVuSans-46" x="730.164062"/>
     <use xlink:href="#DejaVuSans-65" x="782.183594"/>
     <use xlink:href="#DejaVuSans-72" x="843.707031"/>
     <use xlink:href="#DejaVuSans-72" x="883.070312"/>
     <use xlink:href="#DejaVuSans-79" x="924.183594"/>
     <use xlink:href="#DejaVuSans-20" x="983.363281"/>
     <use xlink:href="#DejaVuSans-54" x="1015.150391"/>
     <use xlink:href="#DejaVuSans-69" x="1073.109375"/>
     <use xlink:href="#DejaVuSans-63" x="1100.892578"/>
     <use xlink:href="#DejaVuSans-6b" x="1155.873047"/>
     <use xlink:href="#DejaVuSans-65" x="1210.158203"/>
     <use xlink:href="#DejaVuSans-74" x="1271.681641"/>
     <use xlink:href="#DejaVuSans-20" x="1310.890625"/>
     <use xlink:href="#DejaVuSans-52" x="1342.677734"/>
     <use xlink:href="#DejaVuSans-65" x="1407.660156"/>
     <use xlink:href="#DejaVuSans-64" x="1469.183594"/>
     <use xlink:href="#DejaVuSans-65" x="1532.660156"/>
     <use xlink:href="#DejaVuSans-6d" x="1594.183594"/>
     <use xlink:href="#DejaVuSans-70" x="1691.595703"/>
     <use xlink:href="#DejaVuSans-74" x="1755.072266"/>
     <use xlink:href="#DejaVuSans-69" x="1794.28125"/>
     <use xlink:href="#DejaVuSans-6f" x="1822.064453"/>
     <use xlink:href="#DejaVuSans-6e" x="1883.246094"/>
     <use xlink:href="#DejaVuSans-73" x="1946.625"/>
    </g>
   </g>
  </g>
  <g id="text_19">
   <!-- (Data from 2022-01-11 06:30:00 to 2024-04-29 16:00:00) -->
   <g style="fill: #808080" transform="translate(454.635938 399.677812) scale(0.1 -0.1)">
    <defs>
     <path id="DejaVuSans-28" d="M 1984 4856 
Q 1566 4138 1362 3434 
Q 1159 2731 1159 2009 
Q 1159 1288 1364 580 
Q 1569 -128 1984 -844 
L 1484 -844 
Q 1016 -109 783 600 
Q 550 1309 550 2009 
Q 550 2706 781 3412 
Q 1013 4119 1484 4856 
L 1984 4856 
z
" transform="scale(0.015625)"/>
     <path id="DejaVuSans-66" d="M 2375 4863 
L 2375 4384 
L 1825 4384 
Q 1516 4384 1395 4259 
Q 1275 4134 1275 3809 
L 1275 3500 
L 2222 3500 
L 2222 3053 
L 1275 3053 
L 1275 0 
L 697 0 
L 697 3053 
L 147 3053 
L 147 3500 
L 697 3500 
L 697 3744 
Q 697 4328 969 4595 
Q 1241 4863 1831 4863 
L 2375 4863 
z
" transform="scale(0.015625)"/>
     <path id="DejaVuSans-36" d="M 2113 2584 
Q 1688 2584 1439 2293 
Q 1191 2003 1191 1497 
Q 1191 994 1439 701 
Q 1688 409 2113 409 
Q 2538 409 2786 701 
Q 3034 994 3034 1497 
Q 3034 2003 2786 2293 
Q 2538 2584 2113 2584 
z
M 3366 4563 
L 3366 3988 
Q 3128 4100 2886 4159 
Q 2644 4219 2406 4219 
Q 1781 4219 1451 3797 
Q 1122 3375 1075 2522 
Q 1259 2794 1537 2939 
Q 1816 3084 2150 3084 
Q 2853 3084 3261 2657 
Q 3669 2231 3669 1497 
Q 3669 778 3244 343 
Q 2819 -91 2113 -91 
Q 1303 -91 875 529 
Q 447 1150 447 2328 
Q 447 3434 972 4092 
Q 1497 4750 2381 4750 
Q 2619 4750 2861 4703 
Q 3103 4656 3366 4563 
z
" transform="scale(0.015625)"/>
     <path id="DejaVuSans-3a" d="M 750 794 
L 1409 794 
L 1409 0 
L 750 0 
L 750 794 
z
M 750 3309 
L 1409 3309 
L 1409 2516 
L 750 2516 
L 750 3309 
z
" transform="scale(0.015625)"/>
     <path id="DejaVuSans-39" d="M 703 97 
L 703 672 
Q 941 559 1184 500 
Q 1428 441 1663 441 
Q 2288 441 2617 861 
Q 2947 1281 2994 2138 
Q 2813 1869 2534 1725 
Q 2256 1581 1919 1581 
Q 1219 1581 811 2004 
Q 403 2428 403 3163 
Q 403 3881 828 4315 
Q 1253 4750 1959 4750 
Q 2769 4750 3195 4129 
Q 3622 3509 3622 2328 
Q 3622 1225 3098 567 
Q 2575 -91 1691 -91 
Q 1453 -91 1209 -44 
Q 966 3 703 97 
z
M 1959 2075 
Q 2384 2075 2632 2365 
Q 2881 2656 2881 3163 
Q 2881 3666 2632 3958 
Q 2384 4250 1959 4250 
Q 1534 4250 1286 3958 
Q 1038 3666 1038 3163 
Q 1038 2656 1286 2365 
Q 1534 2075 1959 2075 
z
" transform="scale(0.015625)"/>
     <path id="DejaVuSans-29" d="M 513 4856 
L 1013 4856 
Q 1481 4119 1714 3412 
Q 1947 2706 1947 2009 
Q 1947 1309 1714 600 
Q 1481 -109 1013 -844 
L 513 -844 
Q 928 -128 1133 580 
Q 1338 1288 1338 2009 
Q 1338 2731 1133 3434 
Q 928 4138 513 4856 
z
" transform="scale(0.015625)"/>
    </defs>
    <use xlink:href="#DejaVuSans-28"/>
    <use xlink:href="#DejaVuSans-44" x="39.013672"/>
    <use xlink:href="#DejaVuSans-61" x="116.015625"/>
    <use xlink:href="#DejaVuSans-74" x="177.294922"/>
    <use xlink:href="#DejaVuSans-61" x="216.503906"/>
    <use xlink:href="#DejaVuSans-20" x="277.783203"/>
    <use xlink:href="#DejaVuSans-66" x="309.570312"/>
    <use xlink:href="#DejaVuSans-72" x="344.775391"/>
    <use xlink:href="#DejaVuSans-6f" x="383.638672"/>
    <use xlink:href="#DejaVuSans-6d" x="444.820312"/>
    <use xlink:href="#DejaVuSans-20" x="542.232422"/>
    <use xlink:href="#DejaVuSans-32" x="574.019531"/>
    <use xlink:href="#DejaVuSans-30" x="637.642578"/>
    <use xlink:href="#DejaVuSans-32" x="701.265625"/>
    <use xlink:href="#DejaVuSans-32" x="764.888672"/>
    <use xlink:href="#DejaVuSans-2d" x="828.511719"/>
    <use xlink:href="#DejaVuSans-30" x="864.595703"/>
    <use xlink:href="#DejaVuSans-31" x="928.21875"/>
    <use xlink:href="#DejaVuSans-2d" x="991.841797"/>
    <use xlink:href="#DejaVuSans-31" x="1027.925781"/>
    <use xlink:href="#DejaVuSans-31" x="1091.548828"/>
    <use xlink:href="#DejaVuSans-20" x="1155.171875"/>
    <use xlink:href="#DejaVuSans-30" x="1186.958984"/>
    <use xlink:href="#DejaVuSans-36" x="1250.582031"/>
    <use xlink:href="#DejaVuSans-3a" x="1314.205078"/>
    <use xlink:href="#DejaVuSans-33" x="1347.896484"/>
    <use xlink:href="#DejaVuSans-30" x="1411.519531"/>
    <use xlink:href="#DejaVuSans-3a" x="1475.142578"/>
    <use xlink:href="#DejaVuSans-30" x="1508.833984"/>
    <use xlink:href="#DejaVuSans-30" x="1572.457031"/>
    <use xlink:href="#DejaVuSans-20" x="1636.080078"/>
    <use xlink:href="#DejaVuSans-74" x="1667.867188"/>
    <use xlink:href="#DejaVuSans-6f" x="1707.076172"/>
    <use xlink:href="#DejaVuSans-20" x="1768.257812"/>
    <use xlink:href="#DejaVuSans-32" x="1800.044922"/>
    <use xlink:href="#DejaVuSans-30" x="1863.667969"/>
    <use xlink:href="#DejaVuSans-32" x="1927.291016"/>
    <use xlink:href="#DejaVuSans-34" x="1990.914062"/>
    <use xlink:href="#DejaVuSans-2d" x="2054.537109"/>
    <use xlink:href="#DejaVuSans-30" x="2090.621094"/>
    <use xlink:href="#DejaVuSans-34" x="2154.244141"/>
    <use xlink:href="#DejaVuSans-2d" x="2217.867188"/>
    <use xlink:href="#DejaVuSans-32" x="2253.951172"/>
    <use xlink:href="#DejaVuSans-39" x="2317.574219"/>
    <use xlink:href="#DejaVuSans-20" x="2381.197266"/>
    <use xlink:href="#DejaVuSans-31" x="2412.984375"/>
    <use xlink:href="#DejaVuSans-36" x="2476.607422"/>
    <use xlink:href="#DejaVuSans-3a" x="2540.230469"/>
    <use xlink:href="#DejaVuSans-30" x="2573.921875"/>
    <use xlink:href="#DejaVuSans-30" x="2637.544922"/>
    <use xlink:href="#DejaVuSans-3a" x="2701.167969"/>
    <use xlink:href="#DejaVuSans-30" x="2734.859375"/>
    <use xlink:href="#DejaVuSans-30" x="2798.482422"/>
    <use xlink:href="#DejaVuSans-29" x="2862.105469"/>
   </g>
  </g>
 </g>
 <defs>
  <clipPath id="p36936007ef">
   <rect x="59.690625" y="23.837812" width="1116" height="332.64"/>
  </clipPath>
 </defs>
</svg>
