<?xml version="1.0" encoding="utf-8" standalone="no"?>
<!DOCTYPE svg PUBLIC "-//W3C//DTD SVG 1.1//EN"
  "http://www.w3.org/Graphics/SVG/1.1/DTD/svg11.dtd">
<svg xmlns:xlink="http://www.w3.org/1999/xlink" width="1182.890625pt" height="408.9575pt" viewBox="0 0 1182.890625 408.9575" xmlns="http://www.w3.org/2000/svg" version="1.1">
 <metadata>
  <rdf:RDF xmlns:dc="http://purl.org/dc/elements/1.1/" xmlns:cc="http://creativecommons.org/ns#" xmlns:rdf="http://www.w3.org/1999/02/22-rdf-syntax-ns#">
   <cc:Work>
    <dc:type rdf:resource="http://purl.org/dc/dcmitype/StillImage"/>
    <dc:date>2024-06-28T21:23:27.743737</dc:date>
    <dc:format>image/svg+xml</dc:format>
    <dc:creator>
     <cc:Agent>
      <dc:title>Matplotlib v3.8.4, https://matplotlib.org/</dc:title>
     </cc:Agent>
    </dc:creator>
   </cc:Work>
  </rdf:RDF>
 </metadata>
 <defs>
  <style type="text/css">*{stroke-linejoin: round; stroke-linecap: butt}</style>
 </defs>
 <g id="figure_1">
  <g id="patch_1">
   <path d="M 0 408.9575 
L 1182.890625 408.9575 
L 1182.890625 0 
L 0 0 
z
" style="fill: #ffffff"/>
  </g>
  <g id="axes_1">
   <g id="patch_2">
    <path d="M 59.690625 356.477812 
L 1175.690625 356.477812 
L 1175.690625 23.837812 
L 59.690625 23.837812 
z
" style="fill: #ffffff"/>
   </g>
   <g id="matplotlib.axis_1">
    <g id="xtick_1">
     <g id="line2d_1">
      <defs>
       <path id="me9d766f89a" d="M 0 0 
L 0 3.5 
" style="stroke: #000000; stroke-width: 0.8"/>
      </defs>
      <g>
       <use xlink:href="#me9d766f89a" x="123.001407" y="356.477812" style="stroke: #000000; stroke-width: 0.8"/>
      </g>
     </g>
     <g id="text_1">
      <!-- 2021-01 -->
      <g transform="translate(102.110001 371.07625) scale(0.1 -0.1)">
       <defs>
        <path id="DejaVuSans-32" d="M 1228 531 
L 3431 531 
L 3431 0 
L 469 0 
L 469 531 
Q 828 903 1448 1529 
Q 2069 2156 2228 2338 
Q 2531 2678 2651 2914 
Q 2772 3150 2772 3378 
Q 2772 3750 2511 3984 
Q 2250 4219 1831 4219 
Q 1534 4219 1204 4116 
Q 875 4013 500 3803 
L 500 4441 
Q 881 4594 1212 4672 
Q 1544 4750 1819 4750 
Q 2544 4750 2975 4387 
Q 3406 4025 3406 3419 
Q 3406 3131 3298 2873 
Q 3191 2616 2906 2266 
Q 2828 2175 2409 1742 
Q 1991 1309 1228 531 
z
" transform="scale(0.015625)"/>
        <path id="DejaVuSans-30" d="M 2034 4250 
Q 1547 4250 1301 3770 
Q 1056 3291 1056 2328 
Q 1056 1369 1301 889 
Q 1547 409 2034 409 
Q 2525 409 2770 889 
Q 3016 1369 3016 2328 
Q 3016 3291 2770 3770 
Q 2525 4250 2034 4250 
z
M 2034 4750 
Q 2819 4750 3233 4129 
Q 3647 3509 3647 2328 
Q 3647 1150 3233 529 
Q 2819 -91 2034 -91 
Q 1250 -91 836 529 
Q 422 1150 422 2328 
Q 422 3509 836 4129 
Q 1250 4750 2034 4750 
z
" transform="scale(0.015625)"/>
        <path id="DejaVuSans-31" d="M 794 531 
L 1825 531 
L 1825 4091 
L 703 3866 
L 703 4441 
L 1819 4666 
L 2450 4666 
L 2450 531 
L 3481 531 
L 3481 0 
L 794 0 
L 794 531 
z
" transform="scale(0.015625)"/>
        <path id="DejaVuSans-2d" d="M 313 2009 
L 1997 2009 
L 1997 1497 
L 313 1497 
L 313 2009 
z
" transform="scale(0.015625)"/>
       </defs>
       <use xlink:href="#DejaVuSans-32"/>
       <use xlink:href="#DejaVuSans-30" x="63.623047"/>
       <use xlink:href="#DejaVuSans-32" x="127.246094"/>
       <use xlink:href="#DejaVuSans-31" x="190.869141"/>
       <use xlink:href="#DejaVuSans-2d" x="254.492188"/>
       <use xlink:href="#DejaVuSans-30" x="290.576172"/>
       <use xlink:href="#DejaVuSans-31" x="354.199219"/>
      </g>
     </g>
    </g>
    <g id="xtick_2">
     <g id="line2d_2">
      <g>
       <use xlink:href="#me9d766f89a" x="265.352359" y="356.477812" style="stroke: #000000; stroke-width: 0.8"/>
      </g>
     </g>
     <g id="text_2">
      <!-- 2021-07 -->
      <g transform="translate(244.460952 371.07625) scale(0.1 -0.1)">
       <defs>
        <path id="DejaVuSans-37" d="M 525 4666 
L 3525 4666 
L 3525 4397 
L 1831 0 
L 1172 0 
L 2766 4134 
L 525 4134 
L 525 4666 
z
" transform="scale(0.015625)"/>
       </defs>
       <use xlink:href="#DejaVuSans-32"/>
       <use xlink:href="#DejaVuSans-30" x="63.623047"/>
       <use xlink:href="#DejaVuSans-32" x="127.246094"/>
       <use xlink:href="#DejaVuSans-31" x="190.869141"/>
       <use xlink:href="#DejaVuSans-2d" x="254.492188"/>
       <use xlink:href="#DejaVuSans-30" x="290.576172"/>
       <use xlink:href="#DejaVuSans-37" x="354.199219"/>
      </g>
     </g>
    </g>
    <g id="xtick_3">
     <g id="line2d_3">
      <g>
       <use xlink:href="#me9d766f89a" x="410.062718" y="356.477812" style="stroke: #000000; stroke-width: 0.8"/>
      </g>
     </g>
     <g id="text_3">
      <!-- 2022-01 -->
      <g transform="translate(389.171312 371.07625) scale(0.1 -0.1)">
       <use xlink:href="#DejaVuSans-32"/>
       <use xlink:href="#DejaVuSans-30" x="63.623047"/>
       <use xlink:href="#DejaVuSans-32" x="127.246094"/>
       <use xlink:href="#DejaVuSans-32" x="190.869141"/>
       <use xlink:href="#DejaVuSans-2d" x="254.492188"/>
       <use xlink:href="#DejaVuSans-30" x="290.576172"/>
       <use xlink:href="#DejaVuSans-31" x="354.199219"/>
      </g>
     </g>
    </g>
    <g id="xtick_4">
     <g id="line2d_4">
      <g>
       <use xlink:href="#me9d766f89a" x="552.413669" y="356.477812" style="stroke: #000000; stroke-width: 0.8"/>
      </g>
     </g>
     <g id="text_4">
      <!-- 2022-07 -->
      <g transform="translate(531.522263 371.07625) scale(0.1 -0.1)">
       <use xlink:href="#DejaVuSans-32"/>
       <use xlink:href="#DejaVuSans-30" x="63.623047"/>
       <use xlink:href="#DejaVuSans-32" x="127.246094"/>
       <use xlink:href="#DejaVuSans-32" x="190.869141"/>
       <use xlink:href="#DejaVuSans-2d" x="254.492188"/>
       <use xlink:href="#DejaVuSans-30" x="290.576172"/>
       <use xlink:href="#DejaVuSans-37" x="354.199219"/>
      </g>
     </g>
    </g>
    <g id="xtick_5">
     <g id="line2d_5">
      <g>
       <use xlink:href="#me9d766f89a" x="697.124029" y="356.477812" style="stroke: #000000; stroke-width: 0.8"/>
      </g>
     </g>
     <g id="text_5">
      <!-- 2023-01 -->
      <g transform="translate(676.232623 371.07625) scale(0.1 -0.1)">
       <defs>
        <path id="DejaVuSans-33" d="M 2597 2516 
Q 3050 2419 3304 2112 
Q 3559 1806 3559 1356 
Q 3559 666 3084 287 
Q 2609 -91 1734 -91 
Q 1441 -91 1130 -33 
Q 819 25 488 141 
L 488 750 
Q 750 597 1062 519 
Q 1375 441 1716 441 
Q 2309 441 2620 675 
Q 2931 909 2931 1356 
Q 2931 1769 2642 2001 
Q 2353 2234 1838 2234 
L 1294 2234 
L 1294 2753 
L 1863 2753 
Q 2328 2753 2575 2939 
Q 2822 3125 2822 3475 
Q 2822 3834 2567 4026 
Q 2313 4219 1838 4219 
Q 1578 4219 1281 4162 
Q 984 4106 628 3988 
L 628 4550 
Q 988 4650 1302 4700 
Q 1616 4750 1894 4750 
Q 2613 4750 3031 4423 
Q 3450 4097 3450 3541 
Q 3450 3153 3228 2886 
Q 3006 2619 2597 2516 
z
" transform="scale(0.015625)"/>
       </defs>
       <use xlink:href="#DejaVuSans-32"/>
       <use xlink:href="#DejaVuSans-30" x="63.623047"/>
       <use xlink:href="#DejaVuSans-32" x="127.246094"/>
       <use xlink:href="#DejaVuSans-33" x="190.869141"/>
       <use xlink:href="#DejaVuSans-2d" x="254.492188"/>
       <use xlink:href="#DejaVuSans-30" x="290.576172"/>
       <use xlink:href="#DejaVuSans-31" x="354.199219"/>
      </g>
     </g>
    </g>
    <g id="xtick_6">
     <g id="line2d_6">
      <g>
       <use xlink:href="#me9d766f89a" x="839.47498" y="356.477812" style="stroke: #000000; stroke-width: 0.8"/>
      </g>
     </g>
     <g id="text_6">
      <!-- 2023-07 -->
      <g transform="translate(818.583574 371.07625) scale(0.1 -0.1)">
       <use xlink:href="#DejaVuSans-32"/>
       <use xlink:href="#DejaVuSans-30" x="63.623047"/>
       <use xlink:href="#DejaVuSans-32" x="127.246094"/>
       <use xlink:href="#DejaVuSans-33" x="190.869141"/>
       <use xlink:href="#DejaVuSans-2d" x="254.492188"/>
       <use xlink:href="#DejaVuSans-30" x="290.576172"/>
       <use xlink:href="#DejaVuSans-37" x="354.199219"/>
      </g>
     </g>
    </g>
    <g id="xtick_7">
     <g id="line2d_7">
      <g>
       <use xlink:href="#me9d766f89a" x="984.18534" y="356.477812" style="stroke: #000000; stroke-width: 0.8"/>
      </g>
     </g>
     <g id="text_7">
      <!-- 2024-01 -->
      <g transform="translate(963.293933 371.07625) scale(0.1 -0.1)">
       <defs>
        <path id="DejaVuSans-34" d="M 2419 4116 
L 825 1625 
L 2419 1625 
L 2419 4116 
z
M 2253 4666 
L 3047 4666 
L 3047 1625 
L 3713 1625 
L 3713 1100 
L 3047 1100 
L 3047 0 
L 2419 0 
L 2419 1100 
L 313 1100 
L 313 1709 
L 2253 4666 
z
" transform="scale(0.015625)"/>
       </defs>
       <use xlink:href="#DejaVuSans-32"/>
       <use xlink:href="#DejaVuSans-30" x="63.623047"/>
       <use xlink:href="#DejaVuSans-32" x="127.246094"/>
       <use xlink:href="#DejaVuSans-34" x="190.869141"/>
       <use xlink:href="#DejaVuSans-2d" x="254.492188"/>
       <use xlink:href="#DejaVuSans-30" x="290.576172"/>
       <use xlink:href="#DejaVuSans-31" x="354.199219"/>
      </g>
     </g>
    </g>
    <g id="xtick_8">
     <g id="line2d_8">
      <g>
       <use xlink:href="#me9d766f89a" x="1127.32276" y="356.477812" style="stroke: #000000; stroke-width: 0.8"/>
      </g>
     </g>
     <g id="text_8">
      <!-- 2024-07 -->
      <g transform="translate(1106.431354 371.07625) scale(0.1 -0.1)">
       <use xlink:href="#DejaVuSans-32"/>
       <use xlink:href="#DejaVuSans-30" x="63.623047"/>
       <use xlink:href="#DejaVuSans-32" x="127.246094"/>
       <use xlink:href="#DejaVuSans-34" x="190.869141"/>
       <use xlink:href="#DejaVuSans-2d" x="254.492188"/>
       <use xlink:href="#DejaVuSans-30" x="290.576172"/>
       <use xlink:href="#DejaVuSans-37" x="354.199219"/>
      </g>
     </g>
    </g>
    <g id="text_9">
     <!-- Date -->
     <g transform="translate(605.739844 384.754375) scale(0.1 -0.1)">
      <defs>
       <path id="DejaVuSans-44" d="M 1259 4147 
L 1259 519 
L 2022 519 
Q 2988 519 3436 956 
Q 3884 1394 3884 2338 
Q 3884 3275 3436 3711 
Q 2988 4147 2022 4147 
L 1259 4147 
z
M 628 4666 
L 1925 4666 
Q 3281 4666 3915 4102 
Q 4550 3538 4550 2338 
Q 4550 1131 3912 565 
Q 3275 0 1925 0 
L 628 0 
L 628 4666 
z
" transform="scale(0.015625)"/>
       <path id="DejaVuSans-61" d="M 2194 1759 
Q 1497 1759 1228 1600 
Q 959 1441 959 1056 
Q 959 750 1161 570 
Q 1363 391 1709 391 
Q 2188 391 2477 730 
Q 2766 1069 2766 1631 
L 2766 1759 
L 2194 1759 
z
M 3341 1997 
L 3341 0 
L 2766 0 
L 2766 531 
Q 2569 213 2275 61 
Q 1981 -91 1556 -91 
Q 1019 -91 701 211 
Q 384 513 384 1019 
Q 384 1609 779 1909 
Q 1175 2209 1959 2209 
L 2766 2209 
L 2766 2266 
Q 2766 2663 2505 2880 
Q 2244 3097 1772 3097 
Q 1472 3097 1187 3025 
Q 903 2953 641 2809 
L 641 3341 
Q 956 3463 1253 3523 
Q 1550 3584 1831 3584 
Q 2591 3584 2966 3190 
Q 3341 2797 3341 1997 
z
" transform="scale(0.015625)"/>
       <path id="DejaVuSans-74" d="M 1172 4494 
L 1172 3500 
L 2356 3500 
L 2356 3053 
L 1172 3053 
L 1172 1153 
Q 1172 725 1289 603 
Q 1406 481 1766 481 
L 2356 481 
L 2356 0 
L 1766 0 
Q 1100 0 847 248 
Q 594 497 594 1153 
L 594 3053 
L 172 3053 
L 172 3500 
L 594 3500 
L 594 4494 
L 1172 4494 
z
" transform="scale(0.015625)"/>
       <path id="DejaVuSans-65" d="M 3597 1894 
L 3597 1613 
L 953 1613 
Q 991 1019 1311 708 
Q 1631 397 2203 397 
Q 2534 397 2845 478 
Q 3156 559 3463 722 
L 3463 178 
Q 3153 47 2828 -22 
Q 2503 -91 2169 -91 
Q 1331 -91 842 396 
Q 353 884 353 1716 
Q 353 2575 817 3079 
Q 1281 3584 2069 3584 
Q 2775 3584 3186 3129 
Q 3597 2675 3597 1894 
z
M 3022 2063 
Q 3016 2534 2758 2815 
Q 2500 3097 2075 3097 
Q 1594 3097 1305 2825 
Q 1016 2553 972 2059 
L 3022 2063 
z
" transform="scale(0.015625)"/>
      </defs>
      <use xlink:href="#DejaVuSans-44"/>
      <use xlink:href="#DejaVuSans-61" x="77.001953"/>
      <use xlink:href="#DejaVuSans-74" x="138.28125"/>
      <use xlink:href="#DejaVuSans-65" x="177.490234"/>
     </g>
    </g>
   </g>
   <g id="matplotlib.axis_2">
    <g id="ytick_1">
     <g id="line2d_9">
      <defs>
       <path id="mdf7635c96a" d="M 0 0 
L -3.5 0 
" style="stroke: #000000; stroke-width: 0.8"/>
      </defs>
      <g>
       <use xlink:href="#mdf7635c96a" x="59.690625" y="341.357812" style="stroke: #000000; stroke-width: 0.8"/>
      </g>
     </g>
     <g id="text_10">
      <!-- 0 -->
      <g transform="translate(46.328125 345.157031) scale(0.1 -0.1)">
       <use xlink:href="#DejaVuSans-30"/>
      </g>
     </g>
    </g>
    <g id="ytick_2">
     <g id="line2d_10">
      <g>
       <use xlink:href="#mdf7635c96a" x="59.690625" y="275.036205" style="stroke: #000000; stroke-width: 0.8"/>
      </g>
     </g>
     <g id="text_11">
      <!-- 5000 -->
      <g transform="translate(27.240625 278.835424) scale(0.1 -0.1)">
       <defs>
        <path id="DejaVuSans-35" d="M 691 4666 
L 3169 4666 
L 3169 4134 
L 1269 4134 
L 1269 2991 
Q 1406 3038 1543 3061 
Q 1681 3084 1819 3084 
Q 2600 3084 3056 2656 
Q 3513 2228 3513 1497 
Q 3513 744 3044 326 
Q 2575 -91 1722 -91 
Q 1428 -91 1123 -41 
Q 819 9 494 109 
L 494 744 
Q 775 591 1075 516 
Q 1375 441 1709 441 
Q 2250 441 2565 725 
Q 2881 1009 2881 1497 
Q 2881 1984 2565 2268 
Q 2250 2553 1709 2553 
Q 1456 2553 1204 2497 
Q 953 2441 691 2322 
L 691 4666 
z
" transform="scale(0.015625)"/>
       </defs>
       <use xlink:href="#DejaVuSans-35"/>
       <use xlink:href="#DejaVuSans-30" x="63.623047"/>
       <use xlink:href="#DejaVuSans-30" x="127.246094"/>
       <use xlink:href="#DejaVuSans-30" x="190.869141"/>
      </g>
     </g>
    </g>
    <g id="ytick_3">
     <g id="line2d_11">
      <g>
       <use xlink:href="#mdf7635c96a" x="59.690625" y="208.714598" style="stroke: #000000; stroke-width: 0.8"/>
      </g>
     </g>
     <g id="text_12">
      <!-- 10000 -->
      <g transform="translate(20.878125 212.513817) scale(0.1 -0.1)">
       <use xlink:href="#DejaVuSans-31"/>
       <use xlink:href="#DejaVuSans-30" x="63.623047"/>
       <use xlink:href="#DejaVuSans-30" x="127.246094"/>
       <use xlink:href="#DejaVuSans-30" x="190.869141"/>
       <use xlink:href="#DejaVuSans-30" x="254.492188"/>
      </g>
     </g>
    </g>
    <g id="ytick_4">
     <g id="line2d_12">
      <g>
       <use xlink:href="#mdf7635c96a" x="59.690625" y="142.392991" style="stroke: #000000; stroke-width: 0.8"/>
      </g>
     </g>
     <g id="text_13">
      <!-- 15000 -->
      <g transform="translate(20.878125 146.19221) scale(0.1 -0.1)">
       <use xlink:href="#DejaVuSans-31"/>
       <use xlink:href="#DejaVuSans-35" x="63.623047"/>
       <use xlink:href="#DejaVuSans-30" x="127.246094"/>
       <use xlink:href="#DejaVuSans-30" x="190.869141"/>
       <use xlink:href="#DejaVuSans-30" x="254.492188"/>
      </g>
     </g>
    </g>
    <g id="ytick_5">
     <g id="line2d_13">
      <g>
       <use xlink:href="#mdf7635c96a" x="59.690625" y="76.071384" style="stroke: #000000; stroke-width: 0.8"/>
      </g>
     </g>
     <g id="text_14">
      <!-- 20000 -->
      <g transform="translate(20.878125 79.870603) scale(0.1 -0.1)">
       <use xlink:href="#DejaVuSans-32"/>
       <use xlink:href="#DejaVuSans-30" x="63.623047"/>
       <use xlink:href="#DejaVuSans-30" x="127.246094"/>
       <use xlink:href="#DejaVuSans-30" x="190.869141"/>
       <use xlink:href="#DejaVuSans-30" x="254.492188"/>
      </g>
     </g>
    </g>
    <g id="text_15">
     <!-- Ticket Redemptions -->
     <g transform="translate(14.798438 239.336719) rotate(-90) scale(0.1 -0.1)">
      <defs>
       <path id="DejaVuSans-54" d="M -19 4666 
L 3928 4666 
L 3928 4134 
L 2272 4134 
L 2272 0 
L 1638 0 
L 1638 4134 
L -19 4134 
L -19 4666 
z
" transform="scale(0.015625)"/>
       <path id="DejaVuSans-69" d="M 603 3500 
L 1178 3500 
L 1178 0 
L 603 0 
L 603 3500 
z
M 603 4863 
L 1178 4863 
L 1178 4134 
L 603 4134 
L 603 4863 
z
" transform="scale(0.015625)"/>
       <path id="DejaVuSans-63" d="M 3122 3366 
L 3122 2828 
Q 2878 2963 2633 3030 
Q 2388 3097 2138 3097 
Q 1578 3097 1268 2742 
Q 959 2388 959 1747 
Q 959 1106 1268 751 
Q 1578 397 2138 397 
Q 2388 397 2633 464 
Q 2878 531 3122 666 
L 3122 134 
Q 2881 22 2623 -34 
Q 2366 -91 2075 -91 
Q 1284 -91 818 406 
Q 353 903 353 1747 
Q 353 2603 823 3093 
Q 1294 3584 2113 3584 
Q 2378 3584 2631 3529 
Q 2884 3475 3122 3366 
z
" transform="scale(0.015625)"/>
       <path id="DejaVuSans-6b" d="M 581 4863 
L 1159 4863 
L 1159 1991 
L 2875 3500 
L 3609 3500 
L 1753 1863 
L 3688 0 
L 2938 0 
L 1159 1709 
L 1159 0 
L 581 0 
L 581 4863 
z
" transform="scale(0.015625)"/>
       <path id="DejaVuSans-20" transform="scale(0.015625)"/>
       <path id="DejaVuSans-52" d="M 2841 2188 
Q 3044 2119 3236 1894 
Q 3428 1669 3622 1275 
L 4263 0 
L 3584 0 
L 2988 1197 
Q 2756 1666 2539 1819 
Q 2322 1972 1947 1972 
L 1259 1972 
L 1259 0 
L 628 0 
L 628 4666 
L 2053 4666 
Q 2853 4666 3247 4331 
Q 3641 3997 3641 3322 
Q 3641 2881 3436 2590 
Q 3231 2300 2841 2188 
z
M 1259 4147 
L 1259 2491 
L 2053 2491 
Q 2509 2491 2742 2702 
Q 2975 2913 2975 3322 
Q 2975 3731 2742 3939 
Q 2509 4147 2053 4147 
L 1259 4147 
z
" transform="scale(0.015625)"/>
       <path id="DejaVuSans-64" d="M 2906 2969 
L 2906 4863 
L 3481 4863 
L 3481 0 
L 2906 0 
L 2906 525 
Q 2725 213 2448 61 
Q 2172 -91 1784 -91 
Q 1150 -91 751 415 
Q 353 922 353 1747 
Q 353 2572 751 3078 
Q 1150 3584 1784 3584 
Q 2172 3584 2448 3432 
Q 2725 3281 2906 2969 
z
M 947 1747 
Q 947 1113 1208 752 
Q 1469 391 1925 391 
Q 2381 391 2643 752 
Q 2906 1113 2906 1747 
Q 2906 2381 2643 2742 
Q 2381 3103 1925 3103 
Q 1469 3103 1208 2742 
Q 947 2381 947 1747 
z
" transform="scale(0.015625)"/>
       <path id="DejaVuSans-6d" d="M 3328 2828 
Q 3544 3216 3844 3400 
Q 4144 3584 4550 3584 
Q 5097 3584 5394 3201 
Q 5691 2819 5691 2113 
L 5691 0 
L 5113 0 
L 5113 2094 
Q 5113 2597 4934 2840 
Q 4756 3084 4391 3084 
Q 3944 3084 3684 2787 
Q 3425 2491 3425 1978 
L 3425 0 
L 2847 0 
L 2847 2094 
Q 2847 2600 2669 2842 
Q 2491 3084 2119 3084 
Q 1678 3084 1418 2786 
Q 1159 2488 1159 1978 
L 1159 0 
L 581 0 
L 581 3500 
L 1159 3500 
L 1159 2956 
Q 1356 3278 1631 3431 
Q 1906 3584 2284 3584 
Q 2666 3584 2933 3390 
Q 3200 3197 3328 2828 
z
" transform="scale(0.015625)"/>
       <path id="DejaVuSans-70" d="M 1159 525 
L 1159 -1331 
L 581 -1331 
L 581 3500 
L 1159 3500 
L 1159 2969 
Q 1341 3281 1617 3432 
Q 1894 3584 2278 3584 
Q 2916 3584 3314 3078 
Q 3713 2572 3713 1747 
Q 3713 922 3314 415 
Q 2916 -91 2278 -91 
Q 1894 -91 1617 61 
Q 1341 213 1159 525 
z
M 3116 1747 
Q 3116 2381 2855 2742 
Q 2594 3103 2138 3103 
Q 1681 3103 1420 2742 
Q 1159 2381 1159 1747 
Q 1159 1113 1420 752 
Q 1681 391 2138 391 
Q 2594 391 2855 752 
Q 3116 1113 3116 1747 
z
" transform="scale(0.015625)"/>
       <path id="DejaVuSans-6f" d="M 1959 3097 
Q 1497 3097 1228 2736 
Q 959 2375 959 1747 
Q 959 1119 1226 758 
Q 1494 397 1959 397 
Q 2419 397 2687 759 
Q 2956 1122 2956 1747 
Q 2956 2369 2687 2733 
Q 2419 3097 1959 3097 
z
M 1959 3584 
Q 2709 3584 3137 3096 
Q 3566 2609 3566 1747 
Q 3566 888 3137 398 
Q 2709 -91 1959 -91 
Q 1206 -91 779 398 
Q 353 888 353 1747 
Q 353 2609 779 3096 
Q 1206 3584 1959 3584 
z
" transform="scale(0.015625)"/>
       <path id="DejaVuSans-6e" d="M 3513 2113 
L 3513 0 
L 2938 0 
L 2938 2094 
Q 2938 2591 2744 2837 
Q 2550 3084 2163 3084 
Q 1697 3084 1428 2787 
Q 1159 2491 1159 1978 
L 1159 0 
L 581 0 
L 581 3500 
L 1159 3500 
L 1159 2956 
Q 1366 3272 1645 3428 
Q 1925 3584 2291 3584 
Q 2894 3584 3203 3211 
Q 3513 2838 3513 2113 
z
" transform="scale(0.015625)"/>
       <path id="DejaVuSans-73" d="M 2834 3397 
L 2834 2853 
Q 2591 2978 2328 3040 
Q 2066 3103 1784 3103 
Q 1356 3103 1142 2972 
Q 928 2841 928 2578 
Q 928 2378 1081 2264 
Q 1234 2150 1697 2047 
L 1894 2003 
Q 2506 1872 2764 1633 
Q 3022 1394 3022 966 
Q 3022 478 2636 193 
Q 2250 -91 1575 -91 
Q 1294 -91 989 -36 
Q 684 19 347 128 
L 347 722 
Q 666 556 975 473 
Q 1284 391 1588 391 
Q 1994 391 2212 530 
Q 2431 669 2431 922 
Q 2431 1156 2273 1281 
Q 2116 1406 1581 1522 
L 1381 1569 
Q 847 1681 609 1914 
Q 372 2147 372 2553 
Q 372 3047 722 3315 
Q 1072 3584 1716 3584 
Q 2034 3584 2315 3537 
Q 2597 3491 2834 3397 
z
" transform="scale(0.015625)"/>
      </defs>
      <use xlink:href="#DejaVuSans-54"/>
      <use xlink:href="#DejaVuSans-69" x="57.958984"/>
      <use xlink:href="#DejaVuSans-63" x="85.742188"/>
      <use xlink:href="#DejaVuSans-6b" x="140.722656"/>
      <use xlink:href="#DejaVuSans-65" x="195.007812"/>
      <use xlink:href="#DejaVuSans-74" x="256.53125"/>
      <use xlink:href="#DejaVuSans-20" x="295.740234"/>
      <use xlink:href="#DejaVuSans-52" x="327.527344"/>
      <use xlink:href="#DejaVuSans-65" x="392.509766"/>
      <use xlink:href="#DejaVuSans-64" x="454.033203"/>
      <use xlink:href="#DejaVuSans-65" x="517.509766"/>
      <use xlink:href="#DejaVuSans-6d" x="579.033203"/>
      <use xlink:href="#DejaVuSans-70" x="676.445312"/>
      <use xlink:href="#DejaVuSans-74" x="739.921875"/>
      <use xlink:href="#DejaVuSans-69" x="779.130859"/>
      <use xlink:href="#DejaVuSans-6f" x="806.914062"/>
      <use xlink:href="#DejaVuSans-6e" x="868.095703"/>
      <use xlink:href="#DejaVuSans-73" x="931.474609"/>
     </g>
    </g>
   </g>
   <g id="line2d_14">
    <path d="M 110.417898 339.487543 
L 111.204367 334.394044 
L 111.990836 333.704299 
L 112.777306 337.710124 
L 113.563775 338.890649 
L 114.350244 337.351987 
L 115.136714 336.794886 
L 115.923183 335.508247 
L 116.709652 338.174375 
L 117.496122 339.527336 
L 118.282591 338.333547 
L 119.069061 337.444838 
L 119.85553 338.86412 
L 120.641999 336.582657 
L 121.428469 338.333547 
L 122.214938 336.343899 
L 123.001407 338.625362 
L 123.787877 336.755093 
L 124.574346 339.235521 
L 125.360815 338.37334 
L 126.147285 338.161111 
L 127.720223 337.444838 
L 128.506693 337.564217 
L 129.293162 334.65933 
L 130.079631 337.471366 
L 130.866101 338.015203 
L 131.65257 338.001939 
L 132.439039 337.564217 
L 133.225509 338.37334 
L 134.011978 338.651891 
L 134.798447 337.259137 
L 135.584917 339.195728 
L 136.371386 338.67842 
L 137.157855 338.426397 
L 137.944325 338.346812 
L 138.730794 338.054996 
L 139.517263 338.161111 
L 140.303733 337.139758 
L 141.090202 338.638627 
L 141.876672 338.147847 
L 142.663141 339.023292 
L 143.44961 338.028468 
L 144.23608 338.293754 
L 145.022549 337.975411 
L 145.809018 334.433837 
L 146.595488 338.081525 
L 147.381957 338.28049 
L 148.168426 337.816239 
L 148.954896 336.091877 
L 149.741365 337.338723 
L 150.527834 338.121318 
L 151.314304 335.110317 
L 152.100773 335.428661 
L 152.887242 337.60401 
L 155.24665 336.755093 
L 156.03312 337.099965 
L 156.819589 333.969585 
L 157.606058 329.618888 
L 158.392528 332.338074 
L 159.178997 338.452926 
L 159.965466 334.380779 
L 160.751936 335.959234 
L 161.538405 335.707212 
L 162.324874 336.648978 
L 163.111344 341.357812 
L 163.897813 341.357812 
L 164.684283 340.535425 
L 165.470752 336.755093 
L 166.257221 336.052084 
L 167.043691 335.176639 
L 167.83016 332.961497 
L 168.616629 338.386604 
L 169.403099 337.365252 
L 170.189568 336.794886 
L 170.976037 334.765445 
L 171.762507 336.091877 
L 172.548976 336.03882 
L 173.335445 334.75218 
L 174.121915 332.736004 
L 174.908384 336.091877 
L 175.694853 334.274665 
L 176.481323 333.836942 
L 177.267792 335.892912 
L 178.054261 333.664506 
L 178.840731 329.857646 
L 179.6272 336.423485 
L 180.413669 336.556128 
L 181.200139 336.980586 
L 181.986608 335.627626 
L 182.773077 337.060172 
L 183.559547 335.269489 
L 184.346016 317.362655 
L 185.132485 321.978639 
L 185.918955 332.90844 
L 186.705424 334.526687 
L 187.491893 335.747005 
L 188.278363 332.444188 
L 189.064832 336.675507 
L 189.851302 330.706562 
L 190.637771 338.77127 
L 191.42424 335.972498 
L 192.21071 329.512773 
L 192.997179 336.343899 
L 193.783648 336.144934 
L 194.570118 329.923967 
L 195.356587 331.83403 
L 196.143056 319.31251 
L 196.929526 334.181815 
L 197.715995 335.256225 
L 198.502464 333.98285 
L 199.288934 333.319634 
L 200.075403 335.693947 
L 200.861872 318.927845 
L 201.648342 339.421222 
L 202.434811 337.909089 
L 203.22128 335.667419 
L 204.00775 331.714651 
L 204.794219 337.179551 
L 205.580688 335.800062 
L 206.367158 335.932705 
L 207.153627 334.858295 
L 207.940096 336.847943 
L 208.726566 337.378516 
L 209.513035 338.479455 
L 210.299504 337.657067 
L 211.085974 331.131021 
L 211.872443 327.244574 
L 212.658913 334.314458 
L 213.445382 336.383692 
L 214.231851 336.595921 
L 215.018321 337.763181 
L 215.80479 337.537688 
L 216.591259 336.728564 
L 217.377729 329.977025 
L 218.164198 335.54804 
L 218.950667 337.511159 
L 219.737137 337.550952 
L 220.523606 336.211256 
L 221.310075 333.571656 
L 222.096545 336.277577 
L 222.883014 325.75897 
L 223.669483 329.804589 
L 224.455953 335.892912 
L 225.242422 336.078613 
L 226.028891 329.897439 
L 226.815361 327.523125 
L 227.60183 325.75897 
L 228.388299 309.682613 
L 229.174769 306.485911 
L 229.961238 328.902615 
L 230.747707 324.631503 
L 231.534177 324.49886 
L 232.320646 327.32416 
L 233.107115 309.351005 
L 233.893585 309.762199 
L 234.680054 263.562567 
L 235.466524 263.124845 
L 236.252993 321.036872 
L 237.039462 332.563567 
L 237.825932 320.665471 
L 238.612401 337.086701 
L 239.39887 293.831749 
L 240.18534 283.114177 
L 240.971809 317.773849 
L 241.758278 318.874788 
L 242.544748 321.010343 
L 243.331217 333.027819 
L 244.117686 316.699439 
L 244.904156 264.292105 
L 245.690625 256.57227 
L 246.477094 316.274981 
L 247.263564 333.09414 
L 248.836502 312.149777 
L 249.622972 308.873489 
L 250.409441 263.11158 
L 251.19591 273.033293 
L 251.98238 330.162725 
L 252.768849 317.933021 
L 253.555318 314.497562 
L 254.341788 312.560971 
L 255.128257 331.635065 
L 255.914726 252.075665 
L 256.701196 257.567094 
L 257.487665 326.753795 
L 258.274135 322.416361 
L 259.060604 312.28242 
L 259.847073 304.390149 
L 260.633543 318.795202 
L 261.420012 313.75476 
L 262.206481 255.816204 
L 262.992951 310.942723 
L 263.77942 327.708826 
L 264.565889 318.065664 
L 265.352359 263.005466 
L 266.138828 307.865401 
L 266.925297 237.392061 
L 267.711767 244.369094 
L 268.498236 294.322529 
L 269.284705 304.257505 
L 270.857644 331.847294 
L 271.644113 311.154953 
L 272.430583 235.667699 
L 273.217052 302.201536 
L 274.003521 311.446768 
L 274.789991 317.16369 
L 275.57646 287.823011 
L 276.362929 292.969568 
L 277.935868 305.942074 
L 278.722337 239.050101 
L 279.508807 278.551251 
L 280.295276 298.328354 
L 281.081746 256.903878 
L 281.868215 277.29114 
L 282.654684 251.438978 
L 283.441154 276.176937 
L 284.227623 197.691947 
L 285.014092 264.013554 
L 285.800562 318.556444 
L 286.587031 244.820081 
L 287.3735 319.71044 
L 288.15997 229.605904 
L 288.946439 208.900299 
L 289.732908 281.641837 
L 290.519378 151.532108 
L 291.305847 258.654768 
L 292.092316 244.820081 
L 292.878786 236.675788 
L 293.665255 247.48621 
L 294.451724 255.98864 
L 295.238194 190.834293 
L 296.024663 260.949496 
L 296.811132 314.550619 
L 298.384071 271.295667 
L 299.17054 284.069208 
L 299.95701 164.70358 
L 300.743479 169.942987 
L 301.529948 243.86505 
L 302.316418 294.87963 
L 303.102887 288.724985 
L 303.889357 268.231608 
L 304.675826 235.707492 
L 305.462295 169.054277 
L 307.035234 255.855997 
L 307.821703 222.443171 
L 308.608173 287.159795 
L 309.394642 274.532161 
L 310.181111 237.856312 
L 310.967581 183.286894 
L 311.75405 257.089578 
L 312.540519 270.221257 
L 313.326989 253.53474 
L 314.113458 257.381394 
L 314.899927 247.207659 
L 315.686397 233.518879 
L 316.472866 147.658927 
L 317.259335 155.445083 
L 318.045805 196.829766 
L 318.832274 275.102527 
L 319.618743 315.10772 
L 320.405213 325.838556 
L 321.191682 305.690052 
L 321.978151 253.83982 
L 322.764621 310.345829 
L 323.55109 319.020695 
L 324.337559 324.856997 
L 325.124029 323.384657 
L 325.910498 314.815905 
L 326.696967 302.984131 
L 327.483437 248.520827 
L 328.269906 260.127108 
L 329.056376 311.261067 
L 329.842845 324.936583 
L 330.629314 334.022643 
L 331.415784 326.979288 
L 332.202253 318.224836 
L 332.988722 315.054663 
L 333.775192 294.043978 
L 334.561661 324.644767 
L 335.34813 319.909405 
L 336.1346 318.397272 
L 337.707538 313.94046 
L 338.494008 272.078262 
L 339.280477 332.192166 
L 340.066946 331.276928 
L 340.853416 326.541565 
L 341.639885 324.697825 
L 342.426354 324.578446 
L 343.212824 324.856997 
L 343.999293 326.939495 
L 344.785762 289.454523 
L 345.572232 278.378814 
L 346.358701 321.540916 
L 347.14517 315.094456 
L 347.93164 321.580709 
L 348.718109 329.300544 
L 349.504578 325.851821 
L 350.291048 317.548356 
L 351.077517 326.24975 
L 351.863987 316.885139 
L 353.436925 332.006466 
L 354.223395 325.732442 
L 355.009864 318.317686 
L 355.796333 308.223538 
L 356.582803 334.049171 
L 357.369272 332.921704 
L 358.155741 317.65447 
L 358.942211 325.997728 
L 359.72868 329.751531 
L 360.515149 334.911352 
L 361.301619 318.423801 
L 362.088088 326.926231 
L 362.874557 327.907791 
L 363.661027 330.401483 
L 364.447496 330.388219 
L 365.233965 325.08249 
L 366.020435 316.076016 
L 366.806904 312.096719 
L 367.593373 322.058225 
L 368.379843 329.77806 
L 369.166312 326.568094 
L 369.952781 325.307984 
L 370.739251 323.61015 
L 371.52572 323.291807 
L 372.312189 336.821415 
L 373.098659 331.117756 
L 373.885128 330.428012 
L 374.671598 333.147198 
L 375.458067 332.404396 
L 376.244536 330.560655 
L 377.031006 329.831117 
L 377.817475 334.951145 
L 378.603944 332.629889 
L 379.390414 331.754444 
L 380.176883 330.189254 
L 380.963352 332.868647 
L 381.749822 331.117756 
L 382.536291 330.520862 
L 383.32276 338.121318 
L 384.10923 333.439013 
L 384.895699 333.332898 
L 385.682168 332.762532 
L 386.468638 332.842118 
L 387.255107 331.873823 
L 388.041576 331.92688 
L 388.828046 337.577481 
L 389.614515 333.836942 
L 390.400984 332.669682 
L 391.187454 333.757356 
L 391.973923 333.439013 
L 392.760392 332.629889 
L 393.546862 334.977674 
L 394.333331 332.205431 
L 395.1198 331.595272 
L 395.90627 332.086052 
L 396.692739 334.102229 
L 397.479209 332.90844 
L 398.265678 332.338074 
L 399.052147 337.139758 
L 399.838617 334.035907 
L 400.625086 334.924617 
L 401.411555 334.181815 
L 402.198025 335.64089 
L 402.984494 335.24296 
L 403.770963 336.901 
L 404.557433 335.110317 
L 405.343902 331.767708 
L 406.130371 337.617274 
L 406.916841 332.51051 
L 407.70331 333.717563 
L 408.489779 331.714651 
L 409.276249 331.873823 
L 410.062718 334.685859 
L 410.849187 336.781622 
L 411.635657 334.301193 
L 412.422126 335.05726 
L 413.208595 338.37334 
L 413.995065 336.609185 
L 414.781534 336.463278 
L 415.568003 334.155286 
L 416.354473 337.20608 
L 417.140942 338.386604 
L 417.927411 338.081525 
L 418.713881 336.13167 
L 419.50035 336.330635 
L 420.28682 335.985762 
L 421.073289 336.03882 
L 421.859758 327.191517 
L 422.646228 339.646715 
L 423.432697 337.338723 
L 424.219166 334.181815 
L 425.005636 335.136846 
L 425.792105 334.234872 
L 426.578574 330.573919 
L 427.365044 331.873823 
L 428.151513 335.070524 
L 428.937982 333.863471 
L 430.510921 334.447101 
L 431.29739 332.974761 
L 432.08386 326.196693 
L 432.870329 329.207694 
L 433.656798 335.017467 
L 434.443268 332.258488 
L 435.229737 334.858295 
L 436.016206 335.136846 
L 436.802676 333.823678 
L 437.589145 330.613712 
L 438.375614 328.756707 
L 439.162084 332.921704 
L 439.948553 333.850207 
L 440.735022 332.895175 
L 441.521492 336.542864 
L 442.307961 341.357812 
L 443.09443 341.357812 
L 443.8809 340.203817 
L 444.667369 337.325459 
L 445.453839 333.850207 
L 446.240308 332.775797 
L 447.026777 335.468454 
L 447.813247 336.489807 
L 448.599716 335.587833 
L 449.386185 333.107405 
L 450.172655 328.12002 
L 450.959124 334.208343 
L 451.745593 332.311545 
L 452.532063 331.727915 
L 453.318532 333.903264 
L 454.105001 333.00129 
L 454.891471 336.22452 
L 456.464409 332.271752 
L 458.037348 332.165638 
L 458.823817 331.303457 
L 459.610287 332.298281 
L 460.396756 321.779674 
L 461.183225 334.911352 
L 461.969695 331.582008 
L 462.756164 331.157549 
L 463.542633 331.223871 
L 464.329103 334.088964 
L 465.115572 334.765445 
L 465.902041 337.29893 
L 466.688511 332.351338 
L 467.47498 336.635714 
L 468.26145 334.049171 
L 469.047919 320.254277 
L 470.620858 335.123581 
L 471.407327 323.238749 
L 472.193796 328.027169 
L 472.980266 330.428012 
L 473.766735 334.778709 
L 474.553204 330.905527 
L 475.339674 331.648329 
L 476.126143 331.290193 
L 476.912612 337.033644 
L 477.699082 333.691035 
L 478.485551 329.671945 
L 479.27202 334.367515 
L 480.05849 329.884174 
L 480.844959 334.791973 
L 481.631428 320.10837 
L 482.417898 333.558391 
L 483.204367 329.274016 
L 483.990836 330.467805 
L 484.777306 332.338074 
L 485.563775 328.88935 
L 486.350244 329.96376 
L 487.136714 329.738267 
L 487.923183 320.731793 
L 488.709652 328.982201 
L 489.496122 313.927196 
L 490.282591 328.730178 
L 491.069061 325.095754 
L 491.85553 316.434153 
L 492.641999 302.493351 
L 493.428469 301.312826 
L 494.214938 331.011642 
L 495.001407 330.414747 
L 495.787877 318.622766 
L 496.574346 329.406659 
L 497.360815 310.677437 
L 498.147285 328.6108 
L 498.933754 284.002887 
L 499.720223 328.88935 
L 500.506693 323.703001 
L 501.293162 327.350689 
L 502.866101 311.194746 
L 503.65257 286.164971 
L 504.439039 332.60336 
L 505.225509 323.238749 
L 506.011978 328.066962 
L 506.798447 316.97799 
L 507.584917 310.279507 
L 508.371386 317.813642 
L 509.157855 276.21673 
L 509.944325 256.890614 
L 510.730794 313.529266 
L 511.517263 316.235188 
L 513.090202 301.869928 
L 513.876672 294.720458 
L 514.663141 203.329284 
L 515.44961 248.189219 
L 516.23608 327.337425 
L 517.022549 314.33839 
L 517.809018 313.688438 
L 518.595488 311.181481 
L 519.381957 298.248768 
L 520.168426 270.221257 
L 520.954896 266.016467 
L 521.741365 182.212484 
L 522.527834 308.157216 
L 523.314304 313.675174 
L 524.100773 313.423152 
L 524.887242 322.575533 
L 525.673712 204.841416 
L 526.460181 200.132582 
L 527.24665 285.316054 
L 528.03312 287.504667 
L 528.819589 324.910054 
L 529.606058 305.995132 
L 530.392528 272.966971 
L 531.178997 165.525968 
L 531.965466 215.824274 
L 532.751936 311.035574 
L 533.538405 325.984464 
L 534.324874 286.47005 
L 535.111344 308.555146 
L 535.897813 259.662857 
L 536.684283 236.768638 
L 537.470752 296.219327 
L 538.257221 271.322195 
L 539.043691 278.697158 
L 539.83016 296.35197 
L 540.616629 299.455821 
L 541.403099 253.640855 
L 542.189568 121.037434 
L 542.976037 86.152268 
L 543.762507 289.812659 
L 544.548976 259.21187 
L 545.335445 281.323494 
L 546.121915 253.123546 
L 546.908384 230.919072 
L 547.694853 100.650171 
L 548.481323 254.569357 
L 549.267792 250.457418 
L 550.054261 251.160427 
L 550.840731 301.007747 
L 551.6272 234.221888 
L 552.413669 145.868243 
L 553.200139 77.437609 
L 553.986608 113.264541 
L 555.559547 309.722406 
L 556.346016 233.174007 
L 557.132485 241.198921 
L 557.918955 243.559971 
L 558.705424 115.081753 
L 559.491893 105.783464 
L 560.278363 224.857277 
L 561.064832 262.819765 
L 561.851302 274.346461 
L 562.637771 215.373288 
L 563.42424 209.006413 
L 564.21071 38.957812 
L 564.997179 108.568971 
L 565.783648 296.948864 
L 566.570118 256.850821 
L 567.356587 244.249715 
L 568.143056 217.256821 
L 568.929526 205.597483 
L 569.715995 94.933249 
L 570.502464 282.543811 
L 571.288934 205.995412 
L 572.075403 216.620134 
L 572.861872 220.984096 
L 573.648342 196.047171 
L 574.434811 196.949145 
L 575.22128 108.370007 
L 576.00775 73.683806 
L 577.580688 215.386552 
L 578.367158 219.92295 
L 579.153627 296.325441 
L 579.940096 204.854681 
L 580.726566 96.246417 
L 581.513035 191.073051 
L 582.299504 300.543495 
L 583.085974 234.394324 
L 583.872443 203.037469 
L 584.658913 198.40822 
L 585.445382 185.661208 
L 586.231851 67.568954 
L 587.018321 117.09793 
L 587.80479 174.877314 
L 588.591259 215.665103 
L 589.377729 248.74632 
L 590.950667 193.739179 
L 591.737137 104.045838 
L 592.523606 262.34225 
L 593.310075 311.685525 
L 594.096545 231.144566 
L 594.883014 218.875068 
L 595.669483 278.4584 
L 596.455953 253.176604 
L 597.242422 131.317283 
L 598.028891 145.788657 
L 599.60183 310.306036 
L 600.388299 237.498176 
L 601.174769 225.4807 
L 601.961238 193.4341 
L 602.747707 133.585482 
L 603.534177 241.145864 
L 604.320646 228.160093 
L 605.107115 292.982832 
L 605.893585 309.748935 
L 606.680054 294.587815 
L 607.466524 283.976358 
L 608.252993 195.277841 
L 609.039462 240.33674 
L 609.825932 322.999992 
L 610.612401 316.871875 
L 611.39887 295.131652 
L 612.18534 301.219976 
L 612.971809 295.980569 
L 613.758278 204.019028 
L 614.544748 290.887069 
L 615.331217 287.053681 
L 616.117686 292.889982 
L 616.904156 317.521827 
L 617.690625 312.362006 
L 618.477094 305.743109 
L 619.263564 250.430889 
L 620.050033 325.374305 
L 620.836502 324.936583 
L 621.622972 328.013905 
L 622.409441 318.423801 
L 623.19591 310.531529 
L 624.768849 286.390464 
L 625.555318 289.0168 
L 626.341788 318.277893 
L 627.128257 316.022959 
L 627.914726 307.560321 
L 628.701196 317.25654 
L 629.487665 322.641855 
L 630.274135 295.410203 
L 631.060604 287.106738 
L 631.847073 280.302141 
L 632.633543 304.496263 
L 633.420012 321.315423 
L 634.206481 329.061787 
L 634.992951 314.33839 
L 635.77942 311.433503 
L 636.565889 307.6797 
L 637.352359 327.576183 
L 638.138828 328.88935 
L 638.925297 319.405361 
L 639.711767 327.987376 
L 640.498236 316.818818 
L 641.284705 278.975709 
L 642.071175 282.450961 
L 642.857644 310.425415 
L 643.644113 317.535091 
L 644.430583 328.332249 
L 645.217052 318.463594 
L 646.003521 319.471682 
L 646.789991 299.548671 
L 647.57646 315.691351 
L 648.362929 326.010993 
L 649.149399 323.91523 
L 649.935868 322.164339 
L 650.722337 329.220958 
L 651.508807 319.89614 
L 652.295276 295.927512 
L 653.081746 295.927512 
L 653.868215 323.862173 
L 654.654684 325.825292 
L 655.441154 326.223222 
L 656.227623 315.90358 
L 657.014092 332.231959 
L 657.800562 318.569708 
L 658.587031 327.867998 
L 659.3735 328.544478 
L 660.15997 333.704299 
L 660.946439 333.757356 
L 661.732908 331.329985 
L 662.519378 332.974761 
L 663.305847 330.693298 
L 664.092316 334.712387 
L 664.878786 331.303457 
L 665.665255 329.791324 
L 666.451724 327.669033 
L 667.238194 331.064699 
L 668.024663 326.806852 
L 668.811132 315.956637 
L 669.597602 336.834679 
L 670.384071 330.693298 
L 671.17054 331.117756 
L 671.95701 333.545127 
L 672.743479 332.430924 
L 673.529948 332.51051 
L 674.316418 333.133933 
L 675.102887 329.671945 
L 675.889357 334.035907 
L 676.675826 332.298281 
L 677.462295 331.131021 
L 678.248765 328.159813 
L 679.035234 332.178902 
L 679.821703 333.505334 
L 680.608173 336.927529 
L 681.394642 332.842118 
L 682.181111 332.60336 
L 682.967581 334.553216 
L 683.75405 335.82659 
L 684.540519 332.231959 
L 685.326989 332.430924 
L 686.113458 334.394044 
L 686.899927 330.666769 
L 687.686397 331.449364 
L 688.472866 328.597535 
L 689.259335 332.457453 
L 690.045805 340.309931 
L 690.832274 341.357812 
L 691.618743 334.685859 
L 692.405213 334.340986 
L 693.191682 331.170814 
L 693.978151 331.03817 
L 694.764621 323.955023 
L 695.55109 330.17599 
L 696.337559 333.943057 
L 697.124029 331.661594 
L 697.910498 326.037521 
L 698.696967 335.773533 
L 699.483437 335.906176 
L 700.269906 332.90844 
L 701.056376 332.457453 
L 701.842845 328.345513 
L 702.629314 334.195079 
L 703.415784 331.489157 
L 704.202253 332.576832 
L 704.988722 333.359427 
L 705.775192 333.876735 
L 706.561661 336.052084 
L 707.34813 330.149461 
L 708.1346 329.68521 
L 708.921069 331.184078 
L 709.707538 336.80815 
L 710.494008 331.077963 
L 711.280477 334.195079 
L 712.066946 332.364603 
L 712.853416 331.887087 
L 713.639885 336.211256 
L 714.426354 328.730178 
L 715.212824 332.483981 
L 715.999293 332.231959 
L 716.785762 335.349075 
L 717.572232 332.789061 
L 718.358701 331.674858 
L 719.14517 337.007115 
L 719.93164 332.41766 
L 720.718109 334.526687 
L 721.504578 330.36169 
L 722.291048 331.396307 
L 723.077517 334.619537 
L 723.863987 339.885473 
L 724.650456 331.03817 
L 725.436925 331.502422 
L 726.223395 335.296018 
L 727.009864 330.069875 
L 727.796333 334.831766 
L 728.582803 332.377867 
L 729.369272 325.838556 
L 730.155741 323.583622 
L 730.942211 330.003553 
L 731.72868 329.47298 
L 732.515149 332.736004 
L 733.301619 330.374954 
L 734.088088 334.526687 
L 734.874557 329.075051 
L 735.661027 322.111282 
L 736.447496 319.790026 
L 737.233965 330.043346 
L 738.020435 334.022643 
L 738.806904 336.794886 
L 739.593373 330.26884 
L 740.379843 334.301193 
L 741.166312 329.47298 
L 741.952781 334.646066 
L 742.739251 330.016818 
L 743.52572 330.680034 
L 744.312189 328.637328 
L 745.098659 333.18699 
L 745.885128 331.847294 
L 746.671598 329.857646 
L 747.458067 331.52895 
L 748.244536 332.789061 
L 749.031006 327.562918 
L 749.817475 331.276928 
L 750.603944 331.887087 
L 751.390414 331.396307 
L 752.963352 333.518599 
L 753.749822 334.142022 
L 754.536291 327.417011 
L 755.32276 329.539302 
L 756.10923 335.043995 
L 756.895699 331.887087 
L 757.682168 332.921704 
L 758.468638 326.329336 
L 759.255107 326.010993 
L 760.041576 330.666769 
L 760.828046 332.01973 
L 761.614515 326.448715 
L 762.400984 337.153023 
L 763.187454 312.454856 
L 763.973923 331.4361 
L 764.760392 330.653505 
L 765.546862 333.240048 
L 766.333331 328.663857 
L 767.1198 335.335811 
L 767.90627 324.392745 
L 768.692739 318.662559 
L 769.479209 324.40601 
L 770.265678 331.860558 
L 771.052147 320.665471 
L 771.838617 321.501123 
L 772.625086 286.324143 
L 773.411555 287.902597 
L 774.198025 278.511458 
L 774.984494 298.68649 
L 775.770963 315.877051 
L 776.557433 299.588464 
L 777.343902 291.908422 
L 778.130371 295.967305 
L 778.916841 262.992201 
L 779.70331 275.14232 
L 780.489779 330.520862 
L 781.276249 327.735354 
L 782.062718 323.066313 
L 782.849187 322.575533 
L 783.635657 315.147513 
L 784.422126 325.414098 
L 785.208595 306.830784 
L 785.995065 324.034609 
L 786.781534 318.675823 
L 787.568003 314.497562 
L 788.354473 299.416028 
L 789.140942 322.694912 
L 790.713881 331.860558 
L 791.50035 322.641855 
L 792.28682 326.408922 
L 793.073289 326.64768 
L 793.859758 316.911668 
L 794.646228 297.61208 
L 795.432697 221.567726 
L 796.219166 315.784201 
L 797.005636 303.023924 
L 797.792105 306.379797 
L 798.578574 303.514703 
L 799.365044 298.155918 
L 800.151513 287.84954 
L 800.937982 199.588745 
L 801.724452 237.299211 
L 802.510921 301.777077 
L 803.29739 304.297298 
L 804.08386 317.919757 
L 804.870329 307.905194 
L 805.656798 295.144917 
L 806.443268 270.420221 
L 807.229737 78.379376 
L 808.016206 168.934898 
L 808.802676 280.341934 
L 809.589145 313.104808 
L 810.375614 301.405676 
L 811.162084 287.199588 
L 811.948553 166.494263 
L 812.735022 165.897369 
L 813.521492 277.596219 
L 814.307961 289.348408 
L 815.09443 278.126792 
L 815.8809 281.933652 
L 816.667369 270.911001 
L 817.453839 155.829749 
L 818.240308 194.932968 
L 819.026777 281.960181 
L 819.813247 288.698456 
L 820.599716 282.782569 
L 821.386185 314.497562 
L 822.172655 305.544145 
L 822.959124 160.711019 
L 823.745593 274.028117 
L 824.532063 307.480736 
L 825.318532 294.123564 
L 826.105001 308.236802 
L 826.891471 300.543495 
L 827.67794 284.493667 
L 828.464409 57.116669 
L 829.250879 98.050364 
L 830.037348 255.00708 
L 830.823817 244.621116 
L 831.610287 250.590061 
L 832.396756 261.373954 
L 833.183225 283.193763 
L 833.969695 267.555128 
L 834.756164 159.02645 
L 835.542633 295.330617 
L 836.329103 315.001606 
L 837.115572 262.965673 
L 837.902041 230.97213 
L 838.688511 246.451593 
L 839.47498 94.177183 
L 840.26145 237.140039 
L 841.047919 168.072717 
L 841.834388 211.937828 
L 842.620858 149.104738 
L 843.407327 268.457102 
L 844.980266 118.915142 
L 845.766735 179.931021 
L 847.339674 251.492035 
L 848.126143 217.707808 
L 848.912612 268.868296 
L 849.699082 182.716528 
L 850.485551 155.285911 
L 851.27202 115.758234 
L 852.05849 236.211537 
L 852.844959 230.680314 
L 853.631428 191.86891 
L 854.417898 246.862787 
L 855.204367 216.169147 
L 855.990836 64.650803 
L 856.777306 136.384253 
L 857.563775 261.771884 
L 858.350244 239.514353 
L 859.136714 203.050733 
L 859.923183 228.849838 
L 860.709652 209.842066 
L 861.496122 244.93946 
L 862.282591 89.879542 
L 863.069061 224.207326 
L 863.85553 207.149408 
L 864.641999 213.834626 
L 865.428469 228.531494 
L 866.214938 194.787061 
L 867.001407 96.326003 
L 867.787877 64.067173 
L 868.574346 273.099614 
L 869.360815 254.662208 
L 870.147285 170.699053 
L 870.933754 266.852119 
L 871.720223 169.545057 
L 872.506693 217.973095 
L 873.293162 104.470296 
L 874.079631 213.808098 
L 874.866101 198.262313 
L 875.65257 175.275244 
L 876.439039 209.881858 
L 877.225509 238.439943 
L 878.011978 62.793798 
L 878.798447 110.134161 
L 879.584917 225.520493 
L 880.371386 216.646662 
L 881.157855 288.8311 
L 881.944325 246.557707 
L 882.730794 225.308264 
L 883.517263 187.345776 
L 884.303733 123.54439 
L 885.090202 210.797097 
L 885.876672 214.975358 
L 886.663141 245.589412 
L 887.44961 212.866331 
L 888.23608 195.662506 
L 889.022549 130.813238 
L 889.809018 83.061681 
L 890.595488 141.172673 
L 891.381957 282.119353 
L 892.168426 286.841451 
L 892.954896 308.117423 
L 893.741365 295.808133 
L 894.527834 216.368112 
L 895.314304 216.39464 
L 896.100773 292.836925 
L 896.887242 318.768673 
L 897.673712 309.908106 
L 899.24665 280.182762 
L 900.03312 190.250663 
L 901.606058 303.541232 
L 902.392528 302.4005 
L 903.178997 302.055628 
L 903.965466 297.691666 
L 904.751936 286.324143 
L 905.538405 231.370059 
L 906.324874 242.153953 
L 907.111344 299.124213 
L 907.897813 313.144601 
L 908.684283 309.404062 
L 909.470752 311.964076 
L 910.257221 288.565813 
L 911.043691 242.512089 
L 911.83016 243.533442 
L 912.616629 282.450961 
L 913.403099 287.743425 
L 914.189568 288.260734 
L 914.976037 296.736635 
L 915.762507 302.135214 
L 916.548976 279.612396 
L 917.335445 310.451944 
L 918.121915 306.154303 
L 918.908384 251.810379 
L 919.694853 317.428977 
L 920.481323 309.417326 
L 921.267792 313.94046 
L 922.054261 312.056926 
L 922.840731 317.680999 
L 923.6272 321.142987 
L 924.413669 315.797465 
L 925.986608 320.028784 
L 926.773077 328.544478 
L 927.559547 312.017133 
L 928.346016 310.505001 
L 929.132485 317.972814 
L 929.918955 312.454856 
L 930.705424 319.166603 
L 931.491893 328.265927 
L 932.278363 311.274331 
L 933.064832 288.685192 
L 933.851302 326.422187 
L 934.637771 316.513738 
L 936.21071 329.141372 
L 936.997179 328.70365 
L 939.356587 316.540267 
L 940.143056 332.139109 
L 940.929526 330.786148 
L 941.715995 328.345513 
L 942.502464 328.7965 
L 943.288934 323.185692 
L 944.075403 325.002904 
L 944.861872 322.893877 
L 945.648342 315.5985 
L 946.434811 330.255575 
L 947.22128 327.987376 
L 948.00775 326.090579 
L 948.794219 330.308633 
L 949.580688 317.349391 
L 950.367158 325.374305 
L 951.153627 329.433188 
L 951.940096 336.450014 
L 952.726566 331.223871 
L 953.513035 329.764796 
L 954.299504 329.433188 
L 955.085974 325.719178 
L 955.872443 333.120669 
L 956.658913 310.703966 
L 957.445382 334.593009 
L 958.231851 334.951145 
L 959.018321 327.13846 
L 959.80479 335.216432 
L 960.591259 331.489157 
L 961.377729 335.335811 
L 962.164198 333.18699 
L 962.950667 333.730828 
L 963.737137 332.828854 
L 964.523606 334.367515 
L 965.310075 332.802325 
L 966.096545 330.030082 
L 966.883014 333.744092 
L 967.669483 334.128757 
L 968.455953 308.342916 
L 969.242422 333.664506 
L 970.028891 325.812028 
L 970.815361 327.81494 
L 972.388299 333.783885 
L 973.174769 334.234872 
L 973.961238 327.907791 
L 974.747707 331.263664 
L 975.534177 329.021994 
L 976.320646 331.555479 
L 977.107115 335.468454 
L 977.893585 328.743443 
L 978.680054 328.584271 
L 979.466524 331.727915 
L 980.252993 335.680683 
L 981.039462 331.820765 
L 981.825932 330.36169 
L 982.612401 325.838556 
L 984.18534 328.88935 
L 984.971809 330.321897 
L 985.758278 331.104492 
L 986.544748 329.327073 
L 987.331217 333.439013 
L 988.117686 333.810414 
L 988.904156 334.805238 
L 989.690625 334.593009 
L 990.477094 336.383692 
L 991.263564 335.083788 
L 992.050033 335.070524 
L 992.836502 327.23131 
L 993.622972 339.699772 
L 994.409441 337.511159 
L 995.19591 334.778709 
L 995.98238 335.866383 
L 996.768849 334.937881 
L 997.555318 334.858295 
L 998.341788 334.035907 
L 999.128257 335.441925 
L 999.914726 330.414747 
L 1001.487665 338.147847 
L 1002.274135 335.256225 
L 1003.060604 334.128757 
L 1003.847073 334.500158 
L 1004.633543 333.505334 
L 1005.420012 333.412484 
L 1006.206481 323.756058 
L 1006.992951 334.287929 
L 1007.77942 332.483981 
L 1008.565889 335.176639 
L 1009.352359 331.263664 
L 1010.138828 323.278542 
L 1010.925297 325.042697 
L 1011.711767 334.049171 
L 1012.498236 332.775797 
L 1013.284705 332.590096 
L 1014.071175 332.749268 
L 1014.857644 327.191517 
L 1015.644113 319.179867 
L 1016.430583 331.621801 
L 1017.217052 332.430924 
L 1018.003521 329.313809 
L 1018.789991 321.76641 
L 1019.57646 334.420572 
L 1020.362929 334.221608 
L 1021.149399 330.825941 
L 1021.935868 333.425748 
L 1022.722337 329.28728 
L 1023.508807 329.101579 
L 1024.295276 330.666769 
L 1025.081746 330.985113 
L 1025.868215 329.526038 
L 1026.654684 331.144285 
L 1027.441154 331.157549 
L 1028.227623 325.838556 
L 1029.014092 325.228398 
L 1029.800562 333.916528 
L 1030.587031 332.51051 
L 1031.3735 326.170164 
L 1032.15997 330.428012 
L 1032.946439 329.141372 
L 1033.732908 323.013256 
L 1034.519378 328.823029 
L 1035.305847 330.255575 
L 1036.092316 322.283718 
L 1036.878786 328.186341 
L 1037.665255 335.256225 
L 1038.451724 334.460365 
L 1039.238194 325.042697 
L 1040.024663 323.5173 
L 1040.811132 300.06598 
L 1041.597602 331.157549 
L 1042.384071 326.488508 
L 1043.17054 324.856997 
L 1043.95701 330.308633 
L 1044.743479 330.45454 
L 1045.529948 332.351338 
L 1046.316418 331.210607 
L 1047.102887 330.573919 
L 1047.889357 333.956321 
L 1048.675826 328.584271 
L 1049.462295 325.228398 
L 1050.248765 325.75897 
L 1051.035234 330.534126 
L 1051.821703 325.069226 
L 1052.608173 320.559356 
L 1054.181111 306.552233 
L 1054.967581 308.608203 
L 1055.75405 318.927845 
L 1056.540519 331.780972 
L 1057.326989 333.943057 
L 1058.113458 334.022643 
L 1058.899927 326.170164 
L 1059.686397 305.782902 
L 1060.472866 296.84275 
L 1061.259335 325.679385 
L 1062.045805 323.02652 
L 1062.832274 313.728231 
L 1063.618743 331.807501 
L 1064.405213 333.452277 
L 1065.191682 320.134898 
L 1065.978151 311.30086 
L 1066.764621 314.391447 
L 1067.55109 315.240364 
L 1068.337559 332.802325 
L 1069.124029 325.17534 
L 1069.910498 323.676472 
L 1070.696967 320.890965 
L 1071.483437 312.37527 
L 1072.269906 310.266243 
L 1073.056376 326.926231 
L 1073.842845 320.002255 
L 1074.629314 314.444504 
L 1075.415784 307.00322 
L 1076.202253 323.941758 
L 1076.988722 311.844697 
L 1077.775192 316.540267 
L 1078.561661 325.719178 
L 1080.1346 293.009361 
L 1080.921069 320.453242 
L 1081.707538 261.506597 
L 1082.494008 316.593324 
L 1083.280477 296.405027 
L 1084.066946 300.530231 
L 1084.853416 306.737934 
L 1085.639885 316.818818 
L 1086.426354 310.62438 
L 1087.212824 295.158181 
L 1087.999293 259.914879 
L 1088.785762 318.450329 
L 1089.572232 318.901316 
L 1090.358701 311.247803 
L 1091.14517 298.049803 
L 1091.93164 313.608852 
L 1092.718109 194.840118 
L 1093.504578 122.28428 
L 1094.291048 133.015116 
L 1095.077517 292.624696 
L 1095.863987 306.247154 
L 1097.436925 271.176288 
L 1098.223395 284.268173 
L 1099.009864 174.134512 
L 1099.796333 315.147513 
L 1100.582803 318.304422 
L 1101.369272 285.713984 
L 1102.155741 287.624046 
L 1102.942211 274.346461 
L 1103.72868 189.242574 
L 1104.515149 294.78678 
L 1105.301619 281.323494 
L 1106.088088 281.535723 
L 1106.874557 290.449347 
L 1107.661027 287.305703 
L 1108.447496 306.02166 
L 1109.233965 211.619485 
L 1110.020435 281.734688 
L 1110.806904 293.062418 
L 1111.593373 287.769954 
L 1112.379843 266.348075 
L 1113.166312 270.738565 
L 1113.952781 257.64668 
L 1114.739251 116.142899 
L 1115.52572 162.766989 
L 1116.312189 242.830433 
L 1117.098659 264.544127 
L 1117.885128 195.874735 
L 1118.671598 276.959532 
L 1120.244536 247.419888 
L 1121.031006 251.359392 
L 1121.817475 233.333179 
L 1122.603944 267.860207 
L 1123.390414 279.161409 
L 1124.176883 240.270419 
L 1124.963352 241.053014 
L 1124.963352 241.053014 
" clip-path="url(#pa2fcd67656)" style="fill: none; stroke: #008080; stroke-width: 1.5; stroke-linecap: square"/>
   </g>
   <g id="patch_3">
    <path d="M 59.690625 356.477812 
L 59.690625 23.837812 
" style="fill: none; stroke: #000000; stroke-width: 0.8; stroke-linejoin: miter; stroke-linecap: square"/>
   </g>
   <g id="patch_4">
    <path d="M 1175.690625 356.477812 
L 1175.690625 23.837812 
" style="fill: none; stroke: #000000; stroke-width: 0.8; stroke-linejoin: miter; stroke-linecap: square"/>
   </g>
   <g id="patch_5">
    <path d="M 59.690625 356.477812 
L 1175.690625 356.477812 
" style="fill: none; stroke: #000000; stroke-width: 0.8; stroke-linejoin: miter; stroke-linecap: square"/>
   </g>
   <g id="patch_6">
    <path d="M 59.690625 23.837812 
L 1175.690625 23.837812 
" style="fill: none; stroke: #000000; stroke-width: 0.8; stroke-linejoin: miter; stroke-linecap: square"/>
   </g>
   <g id="text_16">
    <!-- Toronto Island Ferry Ticket Redemptions -->
    <g transform="translate(477.780313 17.837812) scale(0.14 -0.14)">
     <defs>
      <path id="DejaVuSans-72" d="M 2631 2963 
Q 2534 3019 2420 3045 
Q 2306 3072 2169 3072 
Q 1681 3072 1420 2755 
Q 1159 2438 1159 1844 
L 1159 0 
L 581 0 
L 581 3500 
L 1159 3500 
L 1159 2956 
Q 1341 3275 1631 3429 
Q 1922 3584 2338 3584 
Q 2397 3584 2469 3576 
Q 2541 3569 2628 3553 
L 2631 2963 
z
" transform="scale(0.015625)"/>
      <path id="DejaVuSans-49" d="M 628 4666 
L 1259 4666 
L 1259 0 
L 628 0 
L 628 4666 
z
" transform="scale(0.015625)"/>
      <path id="DejaVuSans-6c" d="M 603 4863 
L 1178 4863 
L 1178 0 
L 603 0 
L 603 4863 
z
" transform="scale(0.015625)"/>
      <path id="DejaVuSans-46" d="M 628 4666 
L 3309 4666 
L 3309 4134 
L 1259 4134 
L 1259 2759 
L 3109 2759 
L 3109 2228 
L 1259 2228 
L 1259 0 
L 628 0 
L 628 4666 
z
" transform="scale(0.015625)"/>
      <path id="DejaVuSans-79" d="M 2059 -325 
Q 1816 -950 1584 -1140 
Q 1353 -1331 966 -1331 
L 506 -1331 
L 506 -850 
L 844 -850 
Q 1081 -850 1212 -737 
Q 1344 -625 1503 -206 
L 1606 56 
L 191 3500 
L 800 3500 
L 1894 763 
L 2988 3500 
L 3597 3500 
L 2059 -325 
z
" transform="scale(0.015625)"/>
     </defs>
     <use xlink:href="#DejaVuSans-54"/>
     <use xlink:href="#DejaVuSans-6f" x="44.083984"/>
     <use xlink:href="#DejaVuSans-72" x="105.265625"/>
     <use xlink:href="#DejaVuSans-6f" x="144.128906"/>
     <use xlink:href="#DejaVuSans-6e" x="205.310547"/>
     <use xlink:href="#DejaVuSans-74" x="268.689453"/>
     <use xlink:href="#DejaVuSans-6f" x="307.898438"/>
     <use xlink:href="#DejaVuSans-20" x="369.080078"/>
     <use xlink:href="#DejaVuSans-49" x="400.867188"/>
     <use xlink:href="#DejaVuSans-73" x="430.359375"/>
     <use xlink:href="#DejaVuSans-6c" x="482.458984"/>
     <use xlink:href="#DejaVuSans-61" x="510.242188"/>
     <use xlink:href="#DejaVuSans-6e" x="571.521484"/>
     <use xlink:href="#DejaVuSans-64" x="634.900391"/>
     <use xlink:href="#DejaVuSans-20" x="698.376953"/>
     <use xlink:href="#DejaVuSans-46" x="730.164062"/>
     <use xlink:href="#DejaVuSans-65" x="782.183594"/>
     <use xlink:href="#DejaVuSans-72" x="843.707031"/>
     <use xlink:href="#DejaVuSans-72" x="883.070312"/>
     <use xlink:href="#DejaVuSans-79" x="924.183594"/>
     <use xlink:href="#DejaVuSans-20" x="983.363281"/>
     <use xlink:href="#DejaVuSans-54" x="1015.150391"/>
     <use xlink:href="#DejaVuSans-69" x="1073.109375"/>
     <use xlink:href="#DejaVuSans-63" x="1100.892578"/>
     <use xlink:href="#DejaVuSans-6b" x="1155.873047"/>
     <use xlink:href="#DejaVuSans-65" x="1210.158203"/>
     <use xlink:href="#DejaVuSans-74" x="1271.681641"/>
     <use xlink:href="#DejaVuSans-20" x="1310.890625"/>
     <use xlink:href="#DejaVuSans-52" x="1342.677734"/>
     <use xlink:href="#DejaVuSans-65" x="1407.660156"/>
     <use xlink:href="#DejaVuSans-64" x="1469.183594"/>
     <use xlink:href="#DejaVuSans-65" x="1532.660156"/>
     <use xlink:href="#DejaVuSans-6d" x="1594.183594"/>
     <use xlink:href="#DejaVuSans-70" x="1691.595703"/>
     <use xlink:href="#DejaVuSans-74" x="1755.072266"/>
     <use xlink:href="#DejaVuSans-69" x="1794.28125"/>
     <use xlink:href="#DejaVuSans-6f" x="1822.064453"/>
     <use xlink:href="#DejaVuSans-6e" x="1883.246094"/>
     <use xlink:href="#DejaVuSans-73" x="1946.625"/>
    </g>
   </g>
  </g>
  <g id="text_17">
   <!-- (Data from 2020-12-16 12:30:00 to 2024-06-28 17:00:00) -->
   <g style="fill: #808080" transform="translate(454.635938 399.677812) scale(0.1 -0.1)">
    <defs>
     <path id="DejaVuSans-28" d="M 1984 4856 
Q 1566 4138 1362 3434 
Q 1159 2731 1159 2009 
Q 1159 1288 1364 580 
Q 1569 -128 1984 -844 
L 1484 -844 
Q 1016 -109 783 600 
Q 550 1309 550 2009 
Q 550 2706 781 3412 
Q 1013 4119 1484 4856 
L 1984 4856 
z
" transform="scale(0.015625)"/>
     <path id="DejaVuSans-66" d="M 2375 4863 
L 2375 4384 
L 1825 4384 
Q 1516 4384 1395 4259 
Q 1275 4134 1275 3809 
L 1275 3500 
L 2222 3500 
L 2222 3053 
L 1275 3053 
L 1275 0 
L 697 0 
L 697 3053 
L 147 3053 
L 147 3500 
L 697 3500 
L 697 3744 
Q 697 4328 969 4595 
Q 1241 4863 1831 4863 
L 2375 4863 
z
" transform="scale(0.015625)"/>
     <path id="DejaVuSans-36" d="M 2113 2584 
Q 1688 2584 1439 2293 
Q 1191 2003 1191 1497 
Q 1191 994 1439 701 
Q 1688 409 2113 409 
Q 2538 409 2786 701 
Q 3034 994 3034 1497 
Q 3034 2003 2786 2293 
Q 2538 2584 2113 2584 
z
M 3366 4563 
L 3366 3988 
Q 3128 4100 2886 4159 
Q 2644 4219 2406 4219 
Q 1781 4219 1451 3797 
Q 1122 3375 1075 2522 
Q 1259 2794 1537 2939 
Q 1816 3084 2150 3084 
Q 2853 3084 3261 2657 
Q 3669 2231 3669 1497 
Q 3669 778 3244 343 
Q 2819 -91 2113 -91 
Q 1303 -91 875 529 
Q 447 1150 447 2328 
Q 447 3434 972 4092 
Q 1497 4750 2381 4750 
Q 2619 4750 2861 4703 
Q 3103 4656 3366 4563 
z
" transform="scale(0.015625)"/>
     <path id="DejaVuSans-3a" d="M 750 794 
L 1409 794 
L 1409 0 
L 750 0 
L 750 794 
z
M 750 3309 
L 1409 3309 
L 1409 2516 
L 750 2516 
L 750 3309 
z
" transform="scale(0.015625)"/>
     <path id="DejaVuSans-38" d="M 2034 2216 
Q 1584 2216 1326 1975 
Q 1069 1734 1069 1313 
Q 1069 891 1326 650 
Q 1584 409 2034 409 
Q 2484 409 2743 651 
Q 3003 894 3003 1313 
Q 3003 1734 2745 1975 
Q 2488 2216 2034 2216 
z
M 1403 2484 
Q 997 2584 770 2862 
Q 544 3141 544 3541 
Q 544 4100 942 4425 
Q 1341 4750 2034 4750 
Q 2731 4750 3128 4425 
Q 3525 4100 3525 3541 
Q 3525 3141 3298 2862 
Q 3072 2584 2669 2484 
Q 3125 2378 3379 2068 
Q 3634 1759 3634 1313 
Q 3634 634 3220 271 
Q 2806 -91 2034 -91 
Q 1263 -91 848 271 
Q 434 634 434 1313 
Q 434 1759 690 2068 
Q 947 2378 1403 2484 
z
M 1172 3481 
Q 1172 3119 1398 2916 
Q 1625 2713 2034 2713 
Q 2441 2713 2670 2916 
Q 2900 3119 2900 3481 
Q 2900 3844 2670 4047 
Q 2441 4250 2034 4250 
Q 1625 4250 1398 4047 
Q 1172 3844 1172 3481 
z
" transform="scale(0.015625)"/>
     <path id="DejaVuSans-29" d="M 513 4856 
L 1013 4856 
Q 1481 4119 1714 3412 
Q 1947 2706 1947 2009 
Q 1947 1309 1714 600 
Q 1481 -109 1013 -844 
L 513 -844 
Q 928 -128 1133 580 
Q 1338 1288 1338 2009 
Q 1338 2731 1133 3434 
Q 928 4138 513 4856 
z
" transform="scale(0.015625)"/>
    </defs>
    <use xlink:href="#DejaVuSans-28"/>
    <use xlink:href="#DejaVuSans-44" x="39.013672"/>
    <use xlink:href="#DejaVuSans-61" x="116.015625"/>
    <use xlink:href="#DejaVuSans-74" x="177.294922"/>
    <use xlink:href="#DejaVuSans-61" x="216.503906"/>
    <use xlink:href="#DejaVuSans-20" x="277.783203"/>
    <use xlink:href="#DejaVuSans-66" x="309.570312"/>
    <use xlink:href="#DejaVuSans-72" x="344.775391"/>
    <use xlink:href="#DejaVuSans-6f" x="383.638672"/>
    <use xlink:href="#DejaVuSans-6d" x="444.820312"/>
    <use xlink:href="#DejaVuSans-20" x="542.232422"/>
    <use xlink:href="#DejaVuSans-32" x="574.019531"/>
    <use xlink:href="#DejaVuSans-30" x="637.642578"/>
    <use xlink:href="#DejaVuSans-32" x="701.265625"/>
    <use xlink:href="#DejaVuSans-30" x="764.888672"/>
    <use xlink:href="#DejaVuSans-2d" x="828.511719"/>
    <use xlink:href="#DejaVuSans-31" x="864.595703"/>
    <use xlink:href="#DejaVuSans-32" x="928.21875"/>
    <use xlink:href="#DejaVuSans-2d" x="991.841797"/>
    <use xlink:href="#DejaVuSans-31" x="1027.925781"/>
    <use xlink:href="#DejaVuSans-36" x="1091.548828"/>
    <use xlink:href="#DejaVuSans-20" x="1155.171875"/>
    <use xlink:href="#DejaVuSans-31" x="1186.958984"/>
    <use xlink:href="#DejaVuSans-32" x="1250.582031"/>
    <use xlink:href="#DejaVuSans-3a" x="1314.205078"/>
    <use xlink:href="#DejaVuSans-33" x="1347.896484"/>
    <use xlink:href="#DejaVuSans-30" x="1411.519531"/>
    <use xlink:href="#DejaVuSans-3a" x="1475.142578"/>
    <use xlink:href="#DejaVuSans-30" x="1508.833984"/>
    <use xlink:href="#DejaVuSans-30" x="1572.457031"/>
    <use xlink:href="#DejaVuSans-20" x="1636.080078"/>
    <use xlink:href="#DejaVuSans-74" x="1667.867188"/>
    <use xlink:href="#DejaVuSans-6f" x="1707.076172"/>
    <use xlink:href="#DejaVuSans-20" x="1768.257812"/>
    <use xlink:href="#DejaVuSans-32" x="1800.044922"/>
    <use xlink:href="#DejaVuSans-30" x="1863.667969"/>
    <use xlink:href="#DejaVuSans-32" x="1927.291016"/>
    <use xlink:href="#DejaVuSans-34" x="1990.914062"/>
    <use xlink:href="#DejaVuSans-2d" x="2054.537109"/>
    <use xlink:href="#DejaVuSans-30" x="2090.621094"/>
    <use xlink:href="#DejaVuSans-36" x="2154.244141"/>
    <use xlink:href="#DejaVuSans-2d" x="2217.867188"/>
    <use xlink:href="#DejaVuSans-32" x="2253.951172"/>
    <use xlink:href="#DejaVuSans-38" x="2317.574219"/>
    <use xlink:href="#DejaVuSans-20" x="2381.197266"/>
    <use xlink:href="#DejaVuSans-31" x="2412.984375"/>
    <use xlink:href="#DejaVuSans-37" x="2476.607422"/>
    <use xlink:href="#DejaVuSans-3a" x="2540.230469"/>
    <use xlink:href="#DejaVuSans-30" x="2573.921875"/>
    <use xlink:href="#DejaVuSans-30" x="2637.544922"/>
    <use xlink:href="#DejaVuSans-3a" x="2701.167969"/>
    <use xlink:href="#DejaVuSans-30" x="2734.859375"/>
    <use xlink:href="#DejaVuSans-30" x="2798.482422"/>
    <use xlink:href="#DejaVuSans-29" x="2862.105469"/>
   </g>
  </g>
 </g>
 <defs>
  <clipPath id="pa2fcd67656">
   <rect x="59.690625" y="23.837812" width="1116" height="332.64"/>
  </clipPath>
 </defs>
</svg>
