<?xml version="1.0" encoding="utf-8" standalone="no"?>
<!DOCTYPE svg PUBLIC "-//W3C//DTD SVG 1.1//EN"
  "http://www.w3.org/Graphics/SVG/1.1/DTD/svg11.dtd">
<svg xmlns:xlink="http://www.w3.org/1999/xlink" width="1182.890625pt" height="408.9575pt" viewBox="0 0 1182.890625 408.9575" xmlns="http://www.w3.org/2000/svg" version="1.1">
 <metadata>
  <rdf:RDF xmlns:dc="http://purl.org/dc/elements/1.1/" xmlns:cc="http://creativecommons.org/ns#" xmlns:rdf="http://www.w3.org/1999/02/22-rdf-syntax-ns#">
   <cc:Work>
    <dc:type rdf:resource="http://purl.org/dc/dcmitype/StillImage"/>
    <dc:date>2026-02-18T07:12:06.788132</dc:date>
    <dc:format>image/svg+xml</dc:format>
    <dc:creator>
     <cc:Agent>
      <dc:title>Matplotlib v3.8.4, https://matplotlib.org/</dc:title>
     </cc:Agent>
    </dc:creator>
   </cc:Work>
  </rdf:RDF>
 </metadata>
 <defs>
  <style type="text/css">*{stroke-linejoin: round; stroke-linecap: butt}</style>
 </defs>
 <g id="figure_1">
  <g id="patch_1">
   <path d="M 0 408.9575 
L 1182.890625 408.9575 
L 1182.890625 0 
L 0 0 
z
" style="fill: #ffffff"/>
  </g>
  <g id="axes_1">
   <g id="patch_2">
    <path d="M 59.690625 356.477812 
L 1175.690625 356.477812 
L 1175.690625 23.837812 
L 59.690625 23.837812 
z
" style="fill: #ffffff"/>
   </g>
   <g id="matplotlib.axis_1">
    <g id="xtick_1">
     <g id="line2d_1">
      <defs>
       <path id="m86e7520b6e" d="M 0 0 
L 0 3.5 
" style="stroke: #000000; stroke-width: 0.8"/>
      </defs>
      <g>
       <use xlink:href="#m86e7520b6e" x="137.446701" y="356.477812" style="stroke: #000000; stroke-width: 0.8"/>
      </g>
     </g>
     <g id="text_1">
      <!-- 2023-05 -->
      <g transform="translate(116.555295 371.07625) scale(0.1 -0.1)">
       <defs>
        <path id="DejaVuSans-32" d="M 1228 531 
L 3431 531 
L 3431 0 
L 469 0 
L 469 531 
Q 828 903 1448 1529 
Q 2069 2156 2228 2338 
Q 2531 2678 2651 2914 
Q 2772 3150 2772 3378 
Q 2772 3750 2511 3984 
Q 2250 4219 1831 4219 
Q 1534 4219 1204 4116 
Q 875 4013 500 3803 
L 500 4441 
Q 881 4594 1212 4672 
Q 1544 4750 1819 4750 
Q 2544 4750 2975 4387 
Q 3406 4025 3406 3419 
Q 3406 3131 3298 2873 
Q 3191 2616 2906 2266 
Q 2828 2175 2409 1742 
Q 1991 1309 1228 531 
z
" transform="scale(0.015625)"/>
        <path id="DejaVuSans-30" d="M 2034 4250 
Q 1547 4250 1301 3770 
Q 1056 3291 1056 2328 
Q 1056 1369 1301 889 
Q 1547 409 2034 409 
Q 2525 409 2770 889 
Q 3016 1369 3016 2328 
Q 3016 3291 2770 3770 
Q 2525 4250 2034 4250 
z
M 2034 4750 
Q 2819 4750 3233 4129 
Q 3647 3509 3647 2328 
Q 3647 1150 3233 529 
Q 2819 -91 2034 -91 
Q 1250 -91 836 529 
Q 422 1150 422 2328 
Q 422 3509 836 4129 
Q 1250 4750 2034 4750 
z
" transform="scale(0.015625)"/>
        <path id="DejaVuSans-33" d="M 2597 2516 
Q 3050 2419 3304 2112 
Q 3559 1806 3559 1356 
Q 3559 666 3084 287 
Q 2609 -91 1734 -91 
Q 1441 -91 1130 -33 
Q 819 25 488 141 
L 488 750 
Q 750 597 1062 519 
Q 1375 441 1716 441 
Q 2309 441 2620 675 
Q 2931 909 2931 1356 
Q 2931 1769 2642 2001 
Q 2353 2234 1838 2234 
L 1294 2234 
L 1294 2753 
L 1863 2753 
Q 2328 2753 2575 2939 
Q 2822 3125 2822 3475 
Q 2822 3834 2567 4026 
Q 2313 4219 1838 4219 
Q 1578 4219 1281 4162 
Q 984 4106 628 3988 
L 628 4550 
Q 988 4650 1302 4700 
Q 1616 4750 1894 4750 
Q 2613 4750 3031 4423 
Q 3450 4097 3450 3541 
Q 3450 3153 3228 2886 
Q 3006 2619 2597 2516 
z
" transform="scale(0.015625)"/>
        <path id="DejaVuSans-2d" d="M 313 2009 
L 1997 2009 
L 1997 1497 
L 313 1497 
L 313 2009 
z
" transform="scale(0.015625)"/>
        <path id="DejaVuSans-35" d="M 691 4666 
L 3169 4666 
L 3169 4134 
L 1269 4134 
L 1269 2991 
Q 1406 3038 1543 3061 
Q 1681 3084 1819 3084 
Q 2600 3084 3056 2656 
Q 3513 2228 3513 1497 
Q 3513 744 3044 326 
Q 2575 -91 1722 -91 
Q 1428 -91 1123 -41 
Q 819 9 494 109 
L 494 744 
Q 775 591 1075 516 
Q 1375 441 1709 441 
Q 2250 441 2565 725 
Q 2881 1009 2881 1497 
Q 2881 1984 2565 2268 
Q 2250 2553 1709 2553 
Q 1456 2553 1204 2497 
Q 953 2441 691 2322 
L 691 4666 
z
" transform="scale(0.015625)"/>
       </defs>
       <use xlink:href="#DejaVuSans-32"/>
       <use xlink:href="#DejaVuSans-30" x="63.623047"/>
       <use xlink:href="#DejaVuSans-32" x="127.246094"/>
       <use xlink:href="#DejaVuSans-33" x="190.869141"/>
       <use xlink:href="#DejaVuSans-2d" x="254.492188"/>
       <use xlink:href="#DejaVuSans-30" x="290.576172"/>
       <use xlink:href="#DejaVuSans-35" x="354.199219"/>
      </g>
     </g>
    </g>
    <g id="xtick_2">
     <g id="line2d_2">
      <g>
       <use xlink:href="#m86e7520b6e" x="256.180375" y="356.477812" style="stroke: #000000; stroke-width: 0.8"/>
      </g>
     </g>
     <g id="text_2">
      <!-- 2023-09 -->
      <g transform="translate(235.288969 371.07625) scale(0.1 -0.1)">
       <defs>
        <path id="DejaVuSans-39" d="M 703 97 
L 703 672 
Q 941 559 1184 500 
Q 1428 441 1663 441 
Q 2288 441 2617 861 
Q 2947 1281 2994 2138 
Q 2813 1869 2534 1725 
Q 2256 1581 1919 1581 
Q 1219 1581 811 2004 
Q 403 2428 403 3163 
Q 403 3881 828 4315 
Q 1253 4750 1959 4750 
Q 2769 4750 3195 4129 
Q 3622 3509 3622 2328 
Q 3622 1225 3098 567 
Q 2575 -91 1691 -91 
Q 1453 -91 1209 -44 
Q 966 3 703 97 
z
M 1959 2075 
Q 2384 2075 2632 2365 
Q 2881 2656 2881 3163 
Q 2881 3666 2632 3958 
Q 2384 4250 1959 4250 
Q 1534 4250 1286 3958 
Q 1038 3666 1038 3163 
Q 1038 2656 1286 2365 
Q 1534 2075 1959 2075 
z
" transform="scale(0.015625)"/>
       </defs>
       <use xlink:href="#DejaVuSans-32"/>
       <use xlink:href="#DejaVuSans-30" x="63.623047"/>
       <use xlink:href="#DejaVuSans-32" x="127.246094"/>
       <use xlink:href="#DejaVuSans-33" x="190.869141"/>
       <use xlink:href="#DejaVuSans-2d" x="254.492188"/>
       <use xlink:href="#DejaVuSans-30" x="290.576172"/>
       <use xlink:href="#DejaVuSans-39" x="354.199219"/>
      </g>
     </g>
    </g>
    <g id="xtick_3">
     <g id="line2d_3">
      <g>
       <use xlink:href="#m86e7520b6e" x="373.948734" y="356.477812" style="stroke: #000000; stroke-width: 0.8"/>
      </g>
     </g>
     <g id="text_3">
      <!-- 2024-01 -->
      <g transform="translate(353.057328 371.07625) scale(0.1 -0.1)">
       <defs>
        <path id="DejaVuSans-34" d="M 2419 4116 
L 825 1625 
L 2419 1625 
L 2419 4116 
z
M 2253 4666 
L 3047 4666 
L 3047 1625 
L 3713 1625 
L 3713 1100 
L 3047 1100 
L 3047 0 
L 2419 0 
L 2419 1100 
L 313 1100 
L 313 1709 
L 2253 4666 
z
" transform="scale(0.015625)"/>
        <path id="DejaVuSans-31" d="M 794 531 
L 1825 531 
L 1825 4091 
L 703 3866 
L 703 4441 
L 1819 4666 
L 2450 4666 
L 2450 531 
L 3481 531 
L 3481 0 
L 794 0 
L 794 531 
z
" transform="scale(0.015625)"/>
       </defs>
       <use xlink:href="#DejaVuSans-32"/>
       <use xlink:href="#DejaVuSans-30" x="63.623047"/>
       <use xlink:href="#DejaVuSans-32" x="127.246094"/>
       <use xlink:href="#DejaVuSans-34" x="190.869141"/>
       <use xlink:href="#DejaVuSans-2d" x="254.492188"/>
       <use xlink:href="#DejaVuSans-30" x="290.576172"/>
       <use xlink:href="#DejaVuSans-31" x="354.199219"/>
      </g>
     </g>
    </g>
    <g id="xtick_4">
     <g id="line2d_4">
      <g>
       <use xlink:href="#m86e7520b6e" x="490.751779" y="356.477812" style="stroke: #000000; stroke-width: 0.8"/>
      </g>
     </g>
     <g id="text_4">
      <!-- 2024-05 -->
      <g transform="translate(469.860373 371.07625) scale(0.1 -0.1)">
       <use xlink:href="#DejaVuSans-32"/>
       <use xlink:href="#DejaVuSans-30" x="63.623047"/>
       <use xlink:href="#DejaVuSans-32" x="127.246094"/>
       <use xlink:href="#DejaVuSans-34" x="190.869141"/>
       <use xlink:href="#DejaVuSans-2d" x="254.492188"/>
       <use xlink:href="#DejaVuSans-30" x="290.576172"/>
       <use xlink:href="#DejaVuSans-35" x="354.199219"/>
      </g>
     </g>
    </g>
    <g id="xtick_5">
     <g id="line2d_5">
      <g>
       <use xlink:href="#m86e7520b6e" x="609.485452" y="356.477812" style="stroke: #000000; stroke-width: 0.8"/>
      </g>
     </g>
     <g id="text_5">
      <!-- 2024-09 -->
      <g transform="translate(588.594046 371.07625) scale(0.1 -0.1)">
       <use xlink:href="#DejaVuSans-32"/>
       <use xlink:href="#DejaVuSans-30" x="63.623047"/>
       <use xlink:href="#DejaVuSans-32" x="127.246094"/>
       <use xlink:href="#DejaVuSans-34" x="190.869141"/>
       <use xlink:href="#DejaVuSans-2d" x="254.492188"/>
       <use xlink:href="#DejaVuSans-30" x="290.576172"/>
       <use xlink:href="#DejaVuSans-39" x="354.199219"/>
      </g>
     </g>
    </g>
    <g id="xtick_6">
     <g id="line2d_6">
      <g>
       <use xlink:href="#m86e7520b6e" x="727.253812" y="356.477812" style="stroke: #000000; stroke-width: 0.8"/>
      </g>
     </g>
     <g id="text_6">
      <!-- 2025-01 -->
      <g transform="translate(706.362405 371.07625) scale(0.1 -0.1)">
       <use xlink:href="#DejaVuSans-32"/>
       <use xlink:href="#DejaVuSans-30" x="63.623047"/>
       <use xlink:href="#DejaVuSans-32" x="127.246094"/>
       <use xlink:href="#DejaVuSans-35" x="190.869141"/>
       <use xlink:href="#DejaVuSans-2d" x="254.492188"/>
       <use xlink:href="#DejaVuSans-30" x="290.576172"/>
       <use xlink:href="#DejaVuSans-31" x="354.199219"/>
      </g>
     </g>
    </g>
    <g id="xtick_7">
     <g id="line2d_7">
      <g>
       <use xlink:href="#m86e7520b6e" x="843.091542" y="356.477812" style="stroke: #000000; stroke-width: 0.8"/>
      </g>
     </g>
     <g id="text_7">
      <!-- 2025-05 -->
      <g transform="translate(822.200136 371.07625) scale(0.1 -0.1)">
       <use xlink:href="#DejaVuSans-32"/>
       <use xlink:href="#DejaVuSans-30" x="63.623047"/>
       <use xlink:href="#DejaVuSans-32" x="127.246094"/>
       <use xlink:href="#DejaVuSans-35" x="190.869141"/>
       <use xlink:href="#DejaVuSans-2d" x="254.492188"/>
       <use xlink:href="#DejaVuSans-30" x="290.576172"/>
       <use xlink:href="#DejaVuSans-35" x="354.199219"/>
      </g>
     </g>
    </g>
    <g id="xtick_8">
     <g id="line2d_8">
      <g>
       <use xlink:href="#m86e7520b6e" x="961.825215" y="356.477812" style="stroke: #000000; stroke-width: 0.8"/>
      </g>
     </g>
     <g id="text_8">
      <!-- 2025-09 -->
      <g transform="translate(940.933809 371.07625) scale(0.1 -0.1)">
       <use xlink:href="#DejaVuSans-32"/>
       <use xlink:href="#DejaVuSans-30" x="63.623047"/>
       <use xlink:href="#DejaVuSans-32" x="127.246094"/>
       <use xlink:href="#DejaVuSans-35" x="190.869141"/>
       <use xlink:href="#DejaVuSans-2d" x="254.492188"/>
       <use xlink:href="#DejaVuSans-30" x="290.576172"/>
       <use xlink:href="#DejaVuSans-39" x="354.199219"/>
      </g>
     </g>
    </g>
    <g id="xtick_9">
     <g id="line2d_9">
      <g>
       <use xlink:href="#m86e7520b6e" x="1079.593575" y="356.477812" style="stroke: #000000; stroke-width: 0.8"/>
      </g>
     </g>
     <g id="text_9">
      <!-- 2026-01 -->
      <g transform="translate(1058.702168 371.07625) scale(0.1 -0.1)">
       <defs>
        <path id="DejaVuSans-36" d="M 2113 2584 
Q 1688 2584 1439 2293 
Q 1191 2003 1191 1497 
Q 1191 994 1439 701 
Q 1688 409 2113 409 
Q 2538 409 2786 701 
Q 3034 994 3034 1497 
Q 3034 2003 2786 2293 
Q 2538 2584 2113 2584 
z
M 3366 4563 
L 3366 3988 
Q 3128 4100 2886 4159 
Q 2644 4219 2406 4219 
Q 1781 4219 1451 3797 
Q 1122 3375 1075 2522 
Q 1259 2794 1537 2939 
Q 1816 3084 2150 3084 
Q 2853 3084 3261 2657 
Q 3669 2231 3669 1497 
Q 3669 778 3244 343 
Q 2819 -91 2113 -91 
Q 1303 -91 875 529 
Q 447 1150 447 2328 
Q 447 3434 972 4092 
Q 1497 4750 2381 4750 
Q 2619 4750 2861 4703 
Q 3103 4656 3366 4563 
z
" transform="scale(0.015625)"/>
       </defs>
       <use xlink:href="#DejaVuSans-32"/>
       <use xlink:href="#DejaVuSans-30" x="63.623047"/>
       <use xlink:href="#DejaVuSans-32" x="127.246094"/>
       <use xlink:href="#DejaVuSans-36" x="190.869141"/>
       <use xlink:href="#DejaVuSans-2d" x="254.492188"/>
       <use xlink:href="#DejaVuSans-30" x="290.576172"/>
       <use xlink:href="#DejaVuSans-31" x="354.199219"/>
      </g>
     </g>
    </g>
    <g id="text_10">
     <!-- Date -->
     <g transform="translate(605.739844 384.754375) scale(0.1 -0.1)">
      <defs>
       <path id="DejaVuSans-44" d="M 1259 4147 
L 1259 519 
L 2022 519 
Q 2988 519 3436 956 
Q 3884 1394 3884 2338 
Q 3884 3275 3436 3711 
Q 2988 4147 2022 4147 
L 1259 4147 
z
M 628 4666 
L 1925 4666 
Q 3281 4666 3915 4102 
Q 4550 3538 4550 2338 
Q 4550 1131 3912 565 
Q 3275 0 1925 0 
L 628 0 
L 628 4666 
z
" transform="scale(0.015625)"/>
       <path id="DejaVuSans-61" d="M 2194 1759 
Q 1497 1759 1228 1600 
Q 959 1441 959 1056 
Q 959 750 1161 570 
Q 1363 391 1709 391 
Q 2188 391 2477 730 
Q 2766 1069 2766 1631 
L 2766 1759 
L 2194 1759 
z
M 3341 1997 
L 3341 0 
L 2766 0 
L 2766 531 
Q 2569 213 2275 61 
Q 1981 -91 1556 -91 
Q 1019 -91 701 211 
Q 384 513 384 1019 
Q 384 1609 779 1909 
Q 1175 2209 1959 2209 
L 2766 2209 
L 2766 2266 
Q 2766 2663 2505 2880 
Q 2244 3097 1772 3097 
Q 1472 3097 1187 3025 
Q 903 2953 641 2809 
L 641 3341 
Q 956 3463 1253 3523 
Q 1550 3584 1831 3584 
Q 2591 3584 2966 3190 
Q 3341 2797 3341 1997 
z
" transform="scale(0.015625)"/>
       <path id="DejaVuSans-74" d="M 1172 4494 
L 1172 3500 
L 2356 3500 
L 2356 3053 
L 1172 3053 
L 1172 1153 
Q 1172 725 1289 603 
Q 1406 481 1766 481 
L 2356 481 
L 2356 0 
L 1766 0 
Q 1100 0 847 248 
Q 594 497 594 1153 
L 594 3053 
L 172 3053 
L 172 3500 
L 594 3500 
L 594 4494 
L 1172 4494 
z
" transform="scale(0.015625)"/>
       <path id="DejaVuSans-65" d="M 3597 1894 
L 3597 1613 
L 953 1613 
Q 991 1019 1311 708 
Q 1631 397 2203 397 
Q 2534 397 2845 478 
Q 3156 559 3463 722 
L 3463 178 
Q 3153 47 2828 -22 
Q 2503 -91 2169 -91 
Q 1331 -91 842 396 
Q 353 884 353 1716 
Q 353 2575 817 3079 
Q 1281 3584 2069 3584 
Q 2775 3584 3186 3129 
Q 3597 2675 3597 1894 
z
M 3022 2063 
Q 3016 2534 2758 2815 
Q 2500 3097 2075 3097 
Q 1594 3097 1305 2825 
Q 1016 2553 972 2059 
L 3022 2063 
z
" transform="scale(0.015625)"/>
      </defs>
      <use xlink:href="#DejaVuSans-44"/>
      <use xlink:href="#DejaVuSans-61" x="77.001953"/>
      <use xlink:href="#DejaVuSans-74" x="138.28125"/>
      <use xlink:href="#DejaVuSans-65" x="177.490234"/>
     </g>
    </g>
   </g>
   <g id="matplotlib.axis_2">
    <g id="ytick_1">
     <g id="line2d_10">
      <defs>
       <path id="m299b4c133c" d="M 0 0 
L -3.5 0 
" style="stroke: #000000; stroke-width: 0.8"/>
      </defs>
      <g>
       <use xlink:href="#m299b4c133c" x="59.690625" y="341.357812" style="stroke: #000000; stroke-width: 0.8"/>
      </g>
     </g>
     <g id="text_11">
      <!-- 0 -->
      <g transform="translate(46.328125 345.157031) scale(0.1 -0.1)">
       <use xlink:href="#DejaVuSans-30"/>
      </g>
     </g>
    </g>
    <g id="ytick_2">
     <g id="line2d_11">
      <g>
       <use xlink:href="#m299b4c133c" x="59.690625" y="279.240397" style="stroke: #000000; stroke-width: 0.8"/>
      </g>
     </g>
     <g id="text_12">
      <!-- 5000 -->
      <g transform="translate(27.240625 283.039616) scale(0.1 -0.1)">
       <use xlink:href="#DejaVuSans-35"/>
       <use xlink:href="#DejaVuSans-30" x="63.623047"/>
       <use xlink:href="#DejaVuSans-30" x="127.246094"/>
       <use xlink:href="#DejaVuSans-30" x="190.869141"/>
      </g>
     </g>
    </g>
    <g id="ytick_3">
     <g id="line2d_12">
      <g>
       <use xlink:href="#m299b4c133c" x="59.690625" y="217.122982" style="stroke: #000000; stroke-width: 0.8"/>
      </g>
     </g>
     <g id="text_13">
      <!-- 10000 -->
      <g transform="translate(20.878125 220.922201) scale(0.1 -0.1)">
       <use xlink:href="#DejaVuSans-31"/>
       <use xlink:href="#DejaVuSans-30" x="63.623047"/>
       <use xlink:href="#DejaVuSans-30" x="127.246094"/>
       <use xlink:href="#DejaVuSans-30" x="190.869141"/>
       <use xlink:href="#DejaVuSans-30" x="254.492188"/>
      </g>
     </g>
    </g>
    <g id="ytick_4">
     <g id="line2d_13">
      <g>
       <use xlink:href="#m299b4c133c" x="59.690625" y="155.005567" style="stroke: #000000; stroke-width: 0.8"/>
      </g>
     </g>
     <g id="text_14">
      <!-- 15000 -->
      <g transform="translate(20.878125 158.804786) scale(0.1 -0.1)">
       <use xlink:href="#DejaVuSans-31"/>
       <use xlink:href="#DejaVuSans-35" x="63.623047"/>
       <use xlink:href="#DejaVuSans-30" x="127.246094"/>
       <use xlink:href="#DejaVuSans-30" x="190.869141"/>
       <use xlink:href="#DejaVuSans-30" x="254.492188"/>
      </g>
     </g>
    </g>
    <g id="ytick_5">
     <g id="line2d_14">
      <g>
       <use xlink:href="#m299b4c133c" x="59.690625" y="92.888152" style="stroke: #000000; stroke-width: 0.8"/>
      </g>
     </g>
     <g id="text_15">
      <!-- 20000 -->
      <g transform="translate(20.878125 96.687371) scale(0.1 -0.1)">
       <use xlink:href="#DejaVuSans-32"/>
       <use xlink:href="#DejaVuSans-30" x="63.623047"/>
       <use xlink:href="#DejaVuSans-30" x="127.246094"/>
       <use xlink:href="#DejaVuSans-30" x="190.869141"/>
       <use xlink:href="#DejaVuSans-30" x="254.492188"/>
      </g>
     </g>
    </g>
    <g id="ytick_6">
     <g id="line2d_15">
      <g>
       <use xlink:href="#m299b4c133c" x="59.690625" y="30.770737" style="stroke: #000000; stroke-width: 0.8"/>
      </g>
     </g>
     <g id="text_16">
      <!-- 25000 -->
      <g transform="translate(20.878125 34.569956) scale(0.1 -0.1)">
       <use xlink:href="#DejaVuSans-32"/>
       <use xlink:href="#DejaVuSans-35" x="63.623047"/>
       <use xlink:href="#DejaVuSans-30" x="127.246094"/>
       <use xlink:href="#DejaVuSans-30" x="190.869141"/>
       <use xlink:href="#DejaVuSans-30" x="254.492188"/>
      </g>
     </g>
    </g>
    <g id="text_17">
     <!-- Ticket Redemptions -->
     <g transform="translate(14.798438 239.336719) rotate(-90) scale(0.1 -0.1)">
      <defs>
       <path id="DejaVuSans-54" d="M -19 4666 
L 3928 4666 
L 3928 4134 
L 2272 4134 
L 2272 0 
L 1638 0 
L 1638 4134 
L -19 4134 
L -19 4666 
z
" transform="scale(0.015625)"/>
       <path id="DejaVuSans-69" d="M 603 3500 
L 1178 3500 
L 1178 0 
L 603 0 
L 603 3500 
z
M 603 4863 
L 1178 4863 
L 1178 4134 
L 603 4134 
L 603 4863 
z
" transform="scale(0.015625)"/>
       <path id="DejaVuSans-63" d="M 3122 3366 
L 3122 2828 
Q 2878 2963 2633 3030 
Q 2388 3097 2138 3097 
Q 1578 3097 1268 2742 
Q 959 2388 959 1747 
Q 959 1106 1268 751 
Q 1578 397 2138 397 
Q 2388 397 2633 464 
Q 2878 531 3122 666 
L 3122 134 
Q 2881 22 2623 -34 
Q 2366 -91 2075 -91 
Q 1284 -91 818 406 
Q 353 903 353 1747 
Q 353 2603 823 3093 
Q 1294 3584 2113 3584 
Q 2378 3584 2631 3529 
Q 2884 3475 3122 3366 
z
" transform="scale(0.015625)"/>
       <path id="DejaVuSans-6b" d="M 581 4863 
L 1159 4863 
L 1159 1991 
L 2875 3500 
L 3609 3500 
L 1753 1863 
L 3688 0 
L 2938 0 
L 1159 1709 
L 1159 0 
L 581 0 
L 581 4863 
z
" transform="scale(0.015625)"/>
       <path id="DejaVuSans-20" transform="scale(0.015625)"/>
       <path id="DejaVuSans-52" d="M 2841 2188 
Q 3044 2119 3236 1894 
Q 3428 1669 3622 1275 
L 4263 0 
L 3584 0 
L 2988 1197 
Q 2756 1666 2539 1819 
Q 2322 1972 1947 1972 
L 1259 1972 
L 1259 0 
L 628 0 
L 628 4666 
L 2053 4666 
Q 2853 4666 3247 4331 
Q 3641 3997 3641 3322 
Q 3641 2881 3436 2590 
Q 3231 2300 2841 2188 
z
M 1259 4147 
L 1259 2491 
L 2053 2491 
Q 2509 2491 2742 2702 
Q 2975 2913 2975 3322 
Q 2975 3731 2742 3939 
Q 2509 4147 2053 4147 
L 1259 4147 
z
" transform="scale(0.015625)"/>
       <path id="DejaVuSans-64" d="M 2906 2969 
L 2906 4863 
L 3481 4863 
L 3481 0 
L 2906 0 
L 2906 525 
Q 2725 213 2448 61 
Q 2172 -91 1784 -91 
Q 1150 -91 751 415 
Q 353 922 353 1747 
Q 353 2572 751 3078 
Q 1150 3584 1784 3584 
Q 2172 3584 2448 3432 
Q 2725 3281 2906 2969 
z
M 947 1747 
Q 947 1113 1208 752 
Q 1469 391 1925 391 
Q 2381 391 2643 752 
Q 2906 1113 2906 1747 
Q 2906 2381 2643 2742 
Q 2381 3103 1925 3103 
Q 1469 3103 1208 2742 
Q 947 2381 947 1747 
z
" transform="scale(0.015625)"/>
       <path id="DejaVuSans-6d" d="M 3328 2828 
Q 3544 3216 3844 3400 
Q 4144 3584 4550 3584 
Q 5097 3584 5394 3201 
Q 5691 2819 5691 2113 
L 5691 0 
L 5113 0 
L 5113 2094 
Q 5113 2597 4934 2840 
Q 4756 3084 4391 3084 
Q 3944 3084 3684 2787 
Q 3425 2491 3425 1978 
L 3425 0 
L 2847 0 
L 2847 2094 
Q 2847 2600 2669 2842 
Q 2491 3084 2119 3084 
Q 1678 3084 1418 2786 
Q 1159 2488 1159 1978 
L 1159 0 
L 581 0 
L 581 3500 
L 1159 3500 
L 1159 2956 
Q 1356 3278 1631 3431 
Q 1906 3584 2284 3584 
Q 2666 3584 2933 3390 
Q 3200 3197 3328 2828 
z
" transform="scale(0.015625)"/>
       <path id="DejaVuSans-70" d="M 1159 525 
L 1159 -1331 
L 581 -1331 
L 581 3500 
L 1159 3500 
L 1159 2969 
Q 1341 3281 1617 3432 
Q 1894 3584 2278 3584 
Q 2916 3584 3314 3078 
Q 3713 2572 3713 1747 
Q 3713 922 3314 415 
Q 2916 -91 2278 -91 
Q 1894 -91 1617 61 
Q 1341 213 1159 525 
z
M 3116 1747 
Q 3116 2381 2855 2742 
Q 2594 3103 2138 3103 
Q 1681 3103 1420 2742 
Q 1159 2381 1159 1747 
Q 1159 1113 1420 752 
Q 1681 391 2138 391 
Q 2594 391 2855 752 
Q 3116 1113 3116 1747 
z
" transform="scale(0.015625)"/>
       <path id="DejaVuSans-6f" d="M 1959 3097 
Q 1497 3097 1228 2736 
Q 959 2375 959 1747 
Q 959 1119 1226 758 
Q 1494 397 1959 397 
Q 2419 397 2687 759 
Q 2956 1122 2956 1747 
Q 2956 2369 2687 2733 
Q 2419 3097 1959 3097 
z
M 1959 3584 
Q 2709 3584 3137 3096 
Q 3566 2609 3566 1747 
Q 3566 888 3137 398 
Q 2709 -91 1959 -91 
Q 1206 -91 779 398 
Q 353 888 353 1747 
Q 353 2609 779 3096 
Q 1206 3584 1959 3584 
z
" transform="scale(0.015625)"/>
       <path id="DejaVuSans-6e" d="M 3513 2113 
L 3513 0 
L 2938 0 
L 2938 2094 
Q 2938 2591 2744 2837 
Q 2550 3084 2163 3084 
Q 1697 3084 1428 2787 
Q 1159 2491 1159 1978 
L 1159 0 
L 581 0 
L 581 3500 
L 1159 3500 
L 1159 2956 
Q 1366 3272 1645 3428 
Q 1925 3584 2291 3584 
Q 2894 3584 3203 3211 
Q 3513 2838 3513 2113 
z
" transform="scale(0.015625)"/>
       <path id="DejaVuSans-73" d="M 2834 3397 
L 2834 2853 
Q 2591 2978 2328 3040 
Q 2066 3103 1784 3103 
Q 1356 3103 1142 2972 
Q 928 2841 928 2578 
Q 928 2378 1081 2264 
Q 1234 2150 1697 2047 
L 1894 2003 
Q 2506 1872 2764 1633 
Q 3022 1394 3022 966 
Q 3022 478 2636 193 
Q 2250 -91 1575 -91 
Q 1294 -91 989 -36 
Q 684 19 347 128 
L 347 722 
Q 666 556 975 473 
Q 1284 391 1588 391 
Q 1994 391 2212 530 
Q 2431 669 2431 922 
Q 2431 1156 2273 1281 
Q 2116 1406 1581 1522 
L 1381 1569 
Q 847 1681 609 1914 
Q 372 2147 372 2553 
Q 372 3047 722 3315 
Q 1072 3584 1716 3584 
Q 2034 3584 2315 3537 
Q 2597 3491 2834 3397 
z
" transform="scale(0.015625)"/>
      </defs>
      <use xlink:href="#DejaVuSans-54"/>
      <use xlink:href="#DejaVuSans-69" x="57.958984"/>
      <use xlink:href="#DejaVuSans-63" x="85.742188"/>
      <use xlink:href="#DejaVuSans-6b" x="140.722656"/>
      <use xlink:href="#DejaVuSans-65" x="195.007812"/>
      <use xlink:href="#DejaVuSans-74" x="256.53125"/>
      <use xlink:href="#DejaVuSans-20" x="295.740234"/>
      <use xlink:href="#DejaVuSans-52" x="327.527344"/>
      <use xlink:href="#DejaVuSans-65" x="392.509766"/>
      <use xlink:href="#DejaVuSans-64" x="454.033203"/>
      <use xlink:href="#DejaVuSans-65" x="517.509766"/>
      <use xlink:href="#DejaVuSans-6d" x="579.033203"/>
      <use xlink:href="#DejaVuSans-70" x="676.445312"/>
      <use xlink:href="#DejaVuSans-74" x="739.921875"/>
      <use xlink:href="#DejaVuSans-69" x="779.130859"/>
      <use xlink:href="#DejaVuSans-6f" x="806.914062"/>
      <use xlink:href="#DejaVuSans-6e" x="868.095703"/>
      <use xlink:href="#DejaVuSans-73" x="931.474609"/>
     </g>
    </g>
   </g>
   <g id="line2d_16">
    <path d="M 110.417898 329.25734 
L 111.383212 332.462599 
L 112.348527 321.977179 
L 113.313841 322.759858 
L 114.279155 289.812781 
L 115.24447 291.291176 
L 116.209784 282.49535 
L 117.175099 301.391468 
L 118.140413 317.492302 
L 119.105727 302.236264 
L 120.071042 295.043068 
L 121.036356 298.844654 
L 122.001671 267.959875 
L 122.966985 279.339785 
L 123.9323 331.207827 
L 124.897614 328.598895 
L 125.862928 324.225829 
L 126.828243 323.766161 
L 127.793557 316.80901 
L 128.758872 326.424786 
L 129.724186 309.019486 
L 130.689501 325.132744 
L 131.654815 320.113657 
L 132.620129 316.200259 
L 133.585444 302.074759 
L 134.550758 323.877972 
L 136.481387 332.462599 
L 137.446701 323.828278 
L 138.412016 327.356547 
L 139.37733 327.58017 
L 140.342645 318.461333 
L 141.307959 300.385166 
L 142.273274 229.161337 
L 143.238588 317.405337 
L 144.203902 305.453947 
L 145.169217 308.597088 
L 146.134531 305.913615 
L 147.099846 300.894528 
L 148.06516 291.241482 
L 149.030474 208.575626 
L 149.995789 243.895588 
L 150.961103 304.286139 
L 151.926418 306.646601 
L 152.891732 319.405518 
L 153.857047 310.025788 
L 154.822361 298.074398 
L 155.787675 274.917025 
L 156.75299 95.049838 
L 157.718304 179.864957 
L 158.683619 284.209791 
L 159.648933 314.895794 
L 160.614248 303.938282 
L 161.579562 290.632731 
L 162.544876 177.579036 
L 163.510191 177.019979 
L 164.475505 281.63813 
L 165.44082 292.645336 
L 166.406134 282.135069 
L 167.371448 285.700609 
L 168.336763 275.376694 
L 169.302077 167.590556 
L 170.267392 204.214984 
L 171.232706 285.725456 
L 172.198021 292.036585 
L 173.163335 286.495712 
L 174.128649 316.200259 
L 175.093964 307.814408 
L 176.059278 172.162397 
L 177.024593 278.296213 
L 177.989907 309.628237 
L 178.955221 297.117789 
L 179.920536 310.336375 
L 180.88585 303.130755 
L 181.851165 288.098341 
L 182.816479 75.134995 
L 183.781794 113.473864 
L 184.747108 260.480938 
L 185.712422 250.753351 
L 186.677737 256.343918 
L 187.643051 266.44421 
L 188.608366 286.880839 
L 189.57368 272.233553 
L 190.538995 170.584615 
L 191.504309 298.248326 
L 192.469623 316.672352 
L 193.434938 267.935028 
L 194.400252 237.969587 
L 195.365567 252.467792 
L 196.330881 109.846207 
L 197.296195 243.746506 
L 198.26151 179.05743 
L 199.226824 220.141889 
L 200.192139 161.29185 
L 201.157453 273.07835 
L 202.122768 207.146926 
L 203.088082 133.016002 
L 204.053396 190.164024 
L 205.984025 257.188715 
L 206.94934 225.546104 
L 207.914654 273.463478 
L 208.879968 192.772956 
L 209.845283 167.081193 
L 210.810597 130.059213 
L 211.775912 242.876863 
L 212.741226 237.69627 
L 213.706541 201.345159 
L 214.671855 252.85292 
L 215.637169 224.10498 
L 216.602484 82.191533 
L 217.567798 149.37773 
L 218.533113 266.816914 
L 219.498427 245.97031 
L 220.463742 211.818155 
L 221.429056 235.98183 
L 222.39437 218.178978 
L 223.359685 251.051514 
L 224.324999 105.820998 
L 225.290314 231.633611 
L 226.255628 215.657011 
L 227.220942 221.918447 
L 228.186257 235.683666 
L 229.151571 204.078325 
L 230.116886 111.858811 
L 231.0822 81.6449 
L 232.047515 277.426569 
L 233.012829 260.157928 
L 233.978143 181.51728 
L 234.943458 271.575108 
L 235.908772 180.436437 
L 236.874087 225.794574 
L 237.839401 119.486829 
L 238.804715 221.8936 
L 239.77003 207.333278 
L 240.735344 185.803382 
L 241.700659 218.216249 
L 242.665973 244.964008 
L 243.631288 80.452246 
L 244.596602 124.791657 
L 245.561916 232.863535 
L 246.527231 224.552225 
L 247.492545 292.16082 
L 248.45786 252.567179 
L 249.423174 232.66476 
L 250.388489 197.108751 
L 251.353803 137.351798 
L 252.319117 219.073469 
L 253.284432 222.986866 
L 254.249746 251.660265 
L 255.215061 221.011533 
L 256.180375 204.898275 
L 257.145689 144.159867 
L 258.111004 99.435328 
L 259.076318 153.862607 
L 260.041633 285.874537 
L 261.006947 290.297297 
L 261.972262 310.224564 
L 262.937576 298.695572 
L 263.90289 224.291332 
L 264.868205 224.316179 
L 265.833519 295.912712 
L 266.798834 320.200621 
L 267.764148 311.901734 
L 269.694777 284.060709 
L 270.660091 199.829494 
L 271.625406 256.853281 
L 272.59072 305.938462 
L 273.556035 304.870043 
L 274.521349 304.547032 
L 275.486663 300.459706 
L 276.451978 289.812781 
L 277.417292 238.342291 
L 278.382607 248.442583 
L 279.347921 301.801443 
L 280.313236 314.933064 
L 281.27855 311.429642 
L 282.243864 313.827374 
L 283.209179 291.91235 
L 284.174493 248.778017 
L 285.139808 249.734625 
L 286.105122 286.185124 
L 287.070436 291.142094 
L 288.035751 291.62661 
L 289.001065 299.565216 
L 289.96638 304.621573 
L 290.931694 283.526499 
L 291.897009 312.411097 
L 292.862323 308.385889 
L 293.827637 257.486879 
L 294.792952 318.945849 
L 295.758266 311.442065 
L 296.723581 315.678473 
L 297.688895 313.914339 
L 298.654209 319.181895 
L 299.619524 322.424424 
L 300.584838 317.417761 
L 302.515467 321.380852 
L 303.480782 329.356728 
L 304.446096 313.877068 
L 305.41141 312.460791 
L 306.376725 319.455212 
L 307.342039 314.287043 
L 308.307354 320.573325 
L 309.272668 329.095835 
L 310.237982 313.181353 
L 311.203297 292.024161 
L 312.168611 327.368971 
L 313.133926 318.088629 
L 314.09924 324.399758 
L 315.064555 329.915785 
L 316.029869 329.50581 
L 318.925812 318.113476 
L 319.891127 332.723492 
L 320.856441 331.456297 
L 321.821756 329.170376 
L 322.78707 329.592774 
L 323.752384 324.337641 
L 324.717699 326.039658 
L 325.683013 324.064324 
L 326.648328 317.231408 
L 327.613642 330.959357 
L 328.578956 328.834942 
L 329.544271 327.058384 
L 330.509585 331.009051 
L 331.4749 318.871308 
L 332.440214 326.387515 
L 333.405529 330.189101 
L 334.370843 336.761124 
L 335.336157 331.866271 
L 336.301472 330.499688 
L 337.266786 330.189101 
L 338.232101 326.710526 
L 339.197415 333.64283 
L 340.162729 312.647143 
L 341.128044 335.021836 
L 342.093358 335.35727 
L 343.058673 328.039839 
L 344.023987 335.60574 
L 344.989302 332.114741 
L 345.954616 335.717551 
L 346.91993 333.704947 
L 347.885245 334.21431 
L 348.850559 333.369513 
L 349.815874 334.810637 
L 350.781188 333.344666 
L 351.746503 330.748158 
L 352.711817 334.226733 
L 353.677131 334.587014 
L 354.642446 310.435763 
L 355.60776 334.152192 
L 356.573075 326.79749 
L 357.538389 328.673436 
L 359.469018 334.264004 
L 360.434332 334.686402 
L 361.399647 328.760401 
L 362.364961 331.903542 
L 363.330276 329.803973 
L 364.29559 332.176859 
L 365.260904 335.841786 
L 366.226219 329.54308 
L 367.191533 329.393998 
L 368.156848 332.338364 
L 369.122162 336.040562 
L 370.087476 332.425328 
L 371.052791 331.058745 
L 372.018105 326.822337 
L 373.948734 329.679738 
L 374.914049 331.021475 
L 375.879363 331.75446 
L 376.844677 330.089713 
L 377.809992 333.940993 
L 378.775306 334.288851 
L 379.740621 335.220612 
L 380.705935 335.021836 
L 381.67125 336.699006 
L 382.636564 335.481505 
L 383.601878 335.469082 
L 384.567193 328.126803 
L 385.532507 339.804877 
L 386.497822 337.755002 
L 387.463136 335.195765 
L 388.42845 336.214491 
L 389.393765 335.344847 
L 390.359079 335.270306 
L 391.324394 334.50005 
L 392.289708 335.816939 
L 393.255023 331.108439 
L 395.185651 338.35133 
L 396.150966 335.64301 
L 397.11628 334.587014 
L 398.081595 334.934872 
L 399.046909 334.003111 
L 400.012223 333.916146 
L 400.977538 324.871851 
L 401.942852 334.736096 
L 402.908167 333.046502 
L 403.873481 335.568469 
L 404.838796 331.903542 
L 405.80411 324.424605 
L 406.769424 326.076928 
L 407.734739 334.512473 
L 408.700053 333.319819 
L 409.665368 333.14589 
L 410.630682 333.294972 
L 411.595997 328.089533 
L 412.561311 320.585749 
L 413.526625 332.238976 
L 414.49194 332.996808 
L 415.457254 330.07729 
L 416.422569 323.008328 
L 417.387883 334.860331 
L 418.353197 334.673979 
L 419.318512 331.493567 
L 420.283826 333.92857 
L 421.249141 330.052443 
L 422.214455 329.878514 
L 423.17977 331.344485 
L 424.145084 331.642649 
L 425.110398 330.276066 
L 426.075713 331.791731 
L 427.041027 331.804154 
L 428.006342 326.822337 
L 428.971656 326.250857 
L 429.93697 334.388239 
L 430.902285 333.071349 
L 431.867599 327.132924 
L 432.832914 331.120862 
L 433.798228 329.915785 
L 434.763543 324.176135 
L 435.728857 329.617621 
L 436.694171 330.959357 
L 437.659486 323.492844 
L 438.6248 329.021294 
L 439.590115 335.64301 
L 440.555429 334.897601 
L 441.520744 326.076928 
L 442.486058 324.648228 
L 443.451372 302.68351 
L 444.416687 331.804154 
L 445.382001 327.431088 
L 446.347316 325.903 
L 447.31263 331.009051 
L 448.277944 331.145709 
L 449.243259 332.922268 
L 450.208573 331.853848 
L 451.173888 331.257521 
L 452.139202 334.425509 
L 453.104517 329.393998 
L 454.069831 326.250857 
L 455.035145 326.747796 
L 456.00046 331.22025 
L 456.965774 326.101775 
L 457.931089 321.877791 
L 459.861717 308.758593 
L 460.827032 310.684233 
L 461.792346 320.349703 
L 462.757661 332.388058 
L 463.722975 334.413085 
L 464.68829 334.487626 
L 465.653604 327.132924 
L 466.618918 308.038031 
L 467.584233 299.664604 
L 468.549547 326.673256 
L 469.514862 324.188559 
L 470.480176 315.479697 
L 471.44549 332.412905 
L 472.410805 333.953417 
L 473.376119 321.48024 
L 474.341434 313.2062 
L 475.306748 316.100872 
L 476.272063 316.895974 
L 477.237377 333.344666 
L 478.202691 326.201163 
L 479.168006 324.79731 
L 480.13332 322.188378 
L 481.098635 314.212502 
L 482.063949 312.237168 
L 483.029264 327.841063 
L 483.994578 321.356005 
L 484.959892 316.150565 
L 485.925207 309.180991 
L 486.890521 325.045779 
L 487.855836 313.715563 
L 488.82115 318.113476 
L 489.786464 326.710526 
L 490.751779 310.348799 
L 491.717093 296.074217 
L 492.682408 321.778403 
L 493.647722 266.568445 
L 494.613037 318.16317 
L 495.578351 299.254629 
L 496.543665 303.118332 
L 497.50898 308.932522 
L 498.474294 318.374369 
L 499.439609 312.572602 
L 500.404923 298.086821 
L 501.370237 265.077627 
L 502.335552 319.902457 
L 503.300866 320.324856 
L 504.266181 313.156506 
L 505.231495 300.79514 
L 506.19681 315.367886 
L 507.162124 204.128019 
L 508.127438 136.171567 
L 509.092753 146.222165 
L 510.058067 295.713936 
L 511.023382 308.472853 
L 512.954011 275.625164 
L 513.919325 287.887142 
L 514.884639 184.734962 
L 515.849954 316.80901 
L 516.815268 319.765799 
L 517.780583 289.241301 
L 518.745897 291.030283 
L 519.711211 278.594376 
L 520.676526 198.885309 
L 521.64184 297.738964 
L 522.607155 285.129128 
L 523.572469 285.327904 
L 524.537784 293.676485 
L 525.503098 290.732119 
L 526.468412 308.261654 
L 527.433727 219.843725 
L 528.399041 285.514256 
L 529.364356 296.136334 
L 530.32967 291.179365 
L 531.294984 271.127863 
L 532.260299 275.215189 
L 533.225613 262.953211 
L 534.190928 130.568576 
L 535.156242 174.125308 
L 536.121557 249.113451 
L 537.086871 269.413422 
L 538.052185 205.134321 
L 539.0175 281.066649 
L 540.948129 253.374706 
L 541.913443 257.089327 
L 542.878758 240.180967 
L 543.844072 272.54414 
L 544.809386 283.116524 
L 545.774701 246.678448 
L 546.740015 230.850931 
L 547.70533 306.969612 
L 548.670644 141.476394 
L 549.635958 112.268786 
L 550.601273 245.572758 
L 551.566587 262.02145 
L 552.531902 216.539079 
L 553.497216 222.440233 
L 554.462531 138.308406 
L 555.427845 141.67517 
L 556.393159 230.540344 
L 557.358474 257.623537 
L 558.323788 323.381033 
L 559.289103 257.88443 
L 560.254417 172.758725 
L 561.219731 98.615378 
L 562.185046 173.765027 
L 563.15036 296.596003 
L 564.115675 314.150385 
L 565.080989 235.820324 
L 566.046304 225.397022 
L 567.011618 200.003423 
L 567.976932 120.34405 
L 568.942247 169.292573 
L 569.907561 230.093099 
L 570.872876 230.316721 
L 571.83819 296.061793 
L 572.803505 208.140804 
L 573.768819 194.512243 
L 574.734133 121.126729 
L 575.699448 151.825156 
L 576.664762 223.769546 
L 577.630077 279.116163 
L 578.595391 229.621006 
L 579.560705 241.696632 
L 580.52602 261.822674 
L 581.491334 185.753688 
L 582.456649 124.133212 
L 583.421963 153.788066 
L 584.387278 299.043429 
L 585.352592 192.027547 
L 586.317906 228.155035 
L 587.283221 289.16676 
L 588.248535 130.767352 
L 589.21385 241.845714 
L 590.179164 239.708874 
L 591.144478 225.583374 
L 592.109793 200.984878 
L 593.075107 202.8484 
L 594.040422 242.640816 
L 595.005736 269.487963 
L 595.971051 260.331856 
L 596.936365 270.394878 
L 597.901679 248.231384 
L 598.866994 232.66476 
L 600.797623 213.607137 
L 601.762937 138.60657 
L 602.728252 173.963802 
L 603.693566 221.284849 
L 604.65888 227.844448 
L 605.624195 257.300526 
L 606.589509 226.92511 
L 607.554824 223.3223 
L 608.520138 170.770967 
L 609.485452 128.953523 
L 610.450767 200.699138 
L 611.416081 300.670906 
L 612.381396 298.29802 
L 613.34671 285.228516 
L 614.312025 325.766341 
L 615.277339 227.844448 
L 616.242653 256.219683 
L 617.207968 319.616717 
L 618.173282 302.049912 
L 619.138597 300.882105 
L 620.103911 290.086098 
L 621.069225 287.998953 
L 622.03454 211.780885 
L 622.999854 229.273149 
L 623.965169 291.303599 
L 624.930483 302.956827 
L 625.895798 300.273354 
L 626.861112 293.117428 
L 627.826426 288.073494 
L 628.791741 253.088966 
L 629.757055 254.840677 
L 630.72237 320.548478 
L 631.687684 326.611138 
L 632.652998 320.883912 
L 633.618313 295.440619 
L 634.583627 295.825747 
L 635.548942 265.487602 
L 636.514256 262.928364 
L 638.444885 319.716105 
L 640.375514 303.192873 
L 641.340828 309.156145 
L 642.306143 263.822855 
L 643.271457 306.832953 
L 644.236772 314.299466 
L 645.202086 318.908579 
L 646.1674 322.188378 
L 647.132715 315.765437 
L 648.098029 297.527764 
L 649.063344 275.886057 
L 650.028658 312.622296 
L 650.993972 308.696476 
L 651.959287 321.169653 
L 652.924601 321.989602 
L 654.85523 309.566119 
L 655.820545 284.830965 
L 656.785859 290.396685 
L 657.751173 303.068638 
L 658.716488 305.913615 
L 659.681802 320.846642 
L 660.647117 319.007967 
L 661.612431 324.884274 
L 662.577745 306.907494 
L 663.54306 312.324133 
L 664.508374 324.635804 
L 665.473689 331.655072 
L 666.439003 316.486 
L 667.404318 318.908579 
L 668.369632 327.132924 
L 669.334946 313.268317 
L 670.300261 319.703682 
L 671.265575 328.735554 
L 672.23089 321.852944 
L 673.196204 323.853125 
L 674.161519 324.486723 
L 675.126833 324.561263 
L 676.092147 314.473395 
L 677.057462 334.736096 
L 678.022776 329.418845 
L 678.988091 326.859608 
L 679.953405 295.726359 
L 680.918719 332.971961 
L 681.884034 329.033717 
L 682.849348 323.40588 
L 683.814663 328.9716 
L 684.779977 324.064324 
L 685.745292 331.953236 
L 686.710606 330.93451 
L 687.67592 333.046502 
L 688.641235 331.530837 
L 689.606549 329.667315 
L 690.571864 330.748158 
L 691.537178 331.021475 
L 692.502492 331.642649 
L 693.467807 330.189101 
L 694.433121 329.344304 
L 695.398436 331.50599 
L 696.36375 332.487446 
L 697.329065 334.264004 
L 698.294379 331.878695 
L 699.259693 333.282549 
L 700.225008 334.400662 
L 701.190322 332.487446 
L 702.155637 332.884997 
L 703.120951 333.593136 
L 704.086266 332.835303 
L 705.05158 334.673979 
L 706.016894 334.226733 
L 706.982209 333.916146 
L 707.947523 334.847907 
L 708.912838 333.332242 
L 709.878152 333.307396 
L 710.843466 336.17722 
L 711.808781 333.704947 
L 712.774095 332.313517 
L 713.73941 333.456477 
L 714.704724 330.996628 
L 715.670039 334.127345 
L 716.635353 333.43163 
L 717.600667 334.934872 
L 718.565982 335.879056 
L 719.531296 334.425509 
L 720.496611 332.28867 
L 721.461925 332.499869 
L 722.427239 331.332062 
L 723.392554 325.989964 
L 724.357868 337.506533 
L 725.323183 331.195403 
L 726.288497 329.170376 
L 727.253812 331.058745 
L 728.219126 332.561987 
L 729.18444 331.990506 
L 730.149755 334.077651 
L 731.115069 335.655434 
L 732.080384 334.139769 
L 733.045698 333.754641 
L 734.011013 334.313698 
L 734.976327 333.96584 
L 735.941641 333.282549 
L 736.906956 334.003111 
L 737.87227 335.729975 
L 738.837585 334.065228 
L 739.802899 334.487626 
L 740.768213 335.767245 
L 741.733528 334.773367 
L 742.698842 334.152192 
L 743.664157 335.655434 
L 744.629471 335.332423 
L 745.594786 335.705128 
L 746.5601 333.543442 
L 747.525414 334.574591 
L 749.456043 332.922268 
L 750.421358 332.313517 
L 751.386672 341.357812 
L 752.351986 341.357812 
L 753.317301 334.587014 
L 754.282615 333.444054 
L 755.24793 333.14589 
L 756.213244 333.841605 
L 757.178559 328.275885 
L 758.143873 333.829182 
L 759.109187 333.543442 
L 760.074502 332.549563 
L 761.039816 333.294972 
L 762.005131 333.493748 
L 762.970445 331.742037 
L 763.93576 328.288308 
L 765.866388 333.170737 
L 766.831703 332.599257 
L 767.797017 335.568469 
L 768.762332 336.052985 
L 769.727646 333.617983 
L 770.69296 335.64301 
L 771.658275 338.289212 
L 772.623589 331.853848 
L 773.588904 333.854029 
L 774.554218 333.232855 
L 775.519533 333.14589 
L 776.484847 329.555504 
L 777.450161 328.275885 
L 779.38079 331.804154 
L 780.346105 332.561987 
L 781.311419 329.617621 
L 782.276733 333.133467 
L 783.242048 332.884997 
L 785.172677 334.711249 
L 786.137991 331.419026 
L 787.103306 332.512293 
L 788.06862 332.648951 
L 789.033934 333.332242 
L 789.999249 329.741856 
L 790.964563 327.629864 
L 791.929878 329.207646 
L 792.895192 326.946572 
L 793.860506 327.182618 
L 794.825821 335.03426 
L 795.791135 330.946934 
L 796.75645 325.903 
L 797.721764 326.387515 
L 798.687079 333.940993 
L 799.652393 329.25734 
L 800.617707 327.716828 
L 801.583022 322.498965 
L 802.548336 333.046502 
L 803.513651 325.207285 
L 804.478965 329.269764 
L 805.44428 328.785248 
L 806.409594 333.083773 
L 807.374908 332.53714 
L 808.340223 331.394179 
L 809.305537 326.51175 
L 810.270852 332.524716 
L 811.236166 335.680281 
L 812.20148 337.022017 
L 813.166795 328.226191 
L 814.132109 329.133105 
L 815.097424 333.294972 
L 816.062738 322.933787 
L 817.028053 323.070446 
L 817.993367 334.052804 
L 818.958681 321.380852 
L 819.923996 330.201525 
L 820.88931 335.07153 
L 821.854625 326.052081 
L 822.819939 332.673798 
L 823.785253 330.996628 
L 824.750568 320.958453 
L 825.715882 294.744904 
L 826.681197 323.72889 
L 827.646511 329.282187 
L 828.611826 327.890757 
L 829.57714 299.527945 
L 830.542454 306.646601 
L 831.507769 285.476986 
L 832.473083 285.166399 
L 833.438398 330.350607 
L 834.403712 314.498242 
L 835.369027 314.324313 
L 836.334341 307.553515 
L 837.299655 322.660471 
L 838.26497 314.262196 
L 839.230284 272.904421 
L 840.195599 306.360861 
L 841.160913 319.616717 
L 842.126227 315.790284 
L 843.091542 329.530657 
L 844.056856 307.590786 
L 845.022171 300.000038 
L 845.987485 302.261111 
L 846.9528 322.387154 
L 847.918114 313.106812 
L 848.883428 301.851137 
L 849.848743 317.032633 
L 850.814057 301.627514 
L 851.779372 224.39072 
L 852.744686 257.809889 
L 853.71 281.824482 
L 854.675315 323.69162 
L 855.640629 322.498965 
L 856.605944 308.53497 
L 857.571258 281.240578 
L 858.536573 276.320879 
L 859.501887 201.693016 
L 860.467201 186.859378 
L 861.432516 309.007063 
L 862.39783 332.052624 
L 863.363145 329.605198 
L 864.328459 319.765799 
L 865.293774 291.05513 
L 866.259088 288.607704 
L 867.224402 285.091858 
L 868.189717 296.136334 
L 869.155031 319.753376 
L 870.120346 316.150565 
L 871.08566 292.819264 
L 872.050974 290.061251 
L 873.016289 266.307552 
L 873.981603 280.793333 
L 874.946918 272.519293 
L 875.912232 269.22707 
L 876.877547 309.392191 
L 877.842861 267.028114 
L 878.808175 137.997819 
L 880.738804 308.82071 
L 881.704119 287.601402 
L 882.669433 249.896131 
L 883.634747 275.28973 
L 884.600062 281.240578 
L 885.565376 151.613956 
L 886.530691 134.705596 
L 887.496005 267.910181 
L 888.46132 275.401541 
L 889.426634 308.646782 
L 890.391948 297.229601 
L 892.322577 184.337411 
L 893.287892 161.117921 
L 894.253206 246.926918 
L 895.218521 272.134165 
L 896.183835 241.274233 
L 897.149149 287.924412 
L 898.114464 279.389479 
L 899.079778 133.463248 
L 900.045093 114.728635 
L 901.010407 229.869476 
L 901.975721 110.218911 
L 902.941036 239.112547 
L 903.90635 218.887117 
L 904.871665 189.50558 
L 905.836979 113.063889 
L 906.802294 168.882598 
L 907.767608 255.772438 
L 908.732922 233.087158 
L 909.698237 259.300707 
L 910.663551 220.2537 
L 911.628866 208.612897 
L 912.59418 38.957812 
L 913.559494 179.641334 
L 914.524809 244.305563 
L 915.490123 233.658638 
L 916.455438 235.497314 
L 917.420752 217.669616 
L 918.386067 186.561214 
L 919.351381 91.074324 
L 920.316695 136.96667 
L 921.28201 210.712465 
L 922.247324 214.501627 
L 923.212639 198.649263 
L 924.177953 215.58247 
L 925.143268 225.893961 
L 926.108582 137.761773 
L 927.073896 149.824975 
L 928.039211 224.415567 
L 929.004525 237.485071 
L 929.96984 229.91917 
L 930.935154 217.980203 
L 931.900468 181.057611 
L 932.865783 101.758519 
L 933.831097 78.476912 
L 934.796412 114.828023 
L 935.761726 219.483444 
L 936.727041 217.893238 
L 937.692355 204.475877 
L 938.657669 198.487758 
L 939.622984 105.212247 
L 940.588298 145.787343 
L 941.553613 222.440233 
L 942.518927 259.623718 
L 943.484241 240.752447 
L 944.449556 196.7112 
L 945.41487 191.232444 
L 946.380185 105.758881 
L 947.345499 179.156818 
L 948.310814 201.730287 
L 949.276128 290.794237 
L 950.241442 270.407301 
L 951.206757 190.772775 
L 952.172071 176.796357 
L 953.137386 143.501422 
L 954.1027 154.297429 
L 955.068014 245.11309 
L 956.033329 246.094545 
L 956.998643 192.027547 
L 957.963958 315.156687 
L 958.929272 214.899179 
L 959.894587 141.786981 
L 960.859901 104.938931 
L 961.825215 97.882392 
L 962.79053 289.191607 
L 963.755844 277.78685 
L 964.721159 320.610596 
L 965.686473 297.937739 
L 966.651788 233.211393 
L 967.617102 239.348593 
L 968.582416 302.025065 
L 969.547731 300.670906 
L 970.513045 292.844111 
L 971.47836 289.688547 
L 972.443674 280.122465 
L 973.408988 249.262533 
L 974.374303 226.664217 
L 975.339617 295.577278 
L 976.304932 284.582495 
L 977.270246 294.347353 
L 978.235561 281.402083 
L 979.200875 292.111126 
L 980.166189 220.21643 
L 981.131504 239.895227 
L 982.096818 324.076748 
L 983.062133 309.205838 
L 984.027447 267.649288 
L 984.992761 318.48618 
L 986.92339 245.373983 
L 987.888705 237.497495 
L 988.854019 290.533343 
L 989.819334 289.278572 
L 990.784648 310.883009 
L 991.749962 307.864102 
L 992.715277 294.223118 
L 993.680591 247.386587 
L 994.645906 245.945463 
L 996.576535 329.083411 
L 997.541849 315.144263 
L 998.507163 314.957911 
L 1001.403107 276.942053 
L 1002.368421 286.694487 
L 1004.29905 315.430003 
L 1005.264364 311.889311 
L 1006.229679 323.803431 
L 1007.194993 287.24112 
L 1008.160308 326.934149 
L 1009.125622 315.554238 
L 1010.090936 322.610777 
L 1011.056251 322.772282 
L 1012.021565 323.641926 
L 1013.952194 310.473034 
L 1014.917508 306.770836 
L 1015.882823 320.113657 
L 1016.848137 325.256979 
L 1017.813452 319.790646 
L 1018.778766 333.891299 
L 1019.744081 324.909121 
L 1021.674709 316.473576 
L 1022.640024 330.847546 
L 1023.605338 321.505087 
L 1024.570653 332.313517 
L 1025.535967 324.909121 
L 1026.501282 331.841425 
L 1027.466596 312.932883 
L 1028.43191 336.699006 
L 1029.397225 330.723311 
L 1030.362539 332.263823 
L 1031.327854 331.207827 
L 1032.293168 328.524355 
L 1033.258482 328.884636 
L 1034.223797 333.39436 
L 1035.189111 329.331881 
L 1036.154426 330.437571 
L 1037.11974 333.307396 
L 1038.085055 328.089533 
L 1039.050369 331.207827 
L 1040.015683 328.921906 
L 1040.980998 325.542719 
L 1041.946312 330.201525 
L 1042.911627 327.803793 
L 1043.876941 334.574591 
L 1044.842255 330.561806 
L 1045.80757 333.170737 
L 1046.772884 331.033898 
L 1047.738199 330.201525 
L 1048.703513 336.475384 
L 1049.668828 332.785609 
L 1050.634142 335.059107 
L 1051.599456 334.82306 
L 1052.564771 329.79155 
L 1053.530085 332.499869 
L 1054.4954 332.114741 
L 1055.460714 335.419388 
L 1056.426029 335.531199 
L 1057.391343 341.072072 
L 1058.356657 337.717732 
L 1059.321972 333.866452 
L 1060.287286 334.239157 
L 1061.252601 333.39436 
L 1062.217915 335.195765 
L 1063.183229 335.92875 
L 1064.148544 334.065228 
L 1065.113858 333.183161 
L 1066.079173 331.630225 
L 1067.044487 334.139769 
L 1068.009802 333.96584 
L 1068.975116 333.195584 
L 1069.94043 331.978083 
L 1070.905745 334.897601 
L 1071.871059 330.32576 
L 1072.836374 329.021294 
L 1073.801688 338.214671 
L 1074.767002 332.114741 
L 1075.732317 336.438113 
L 1076.697631 335.64301 
L 1077.662946 331.170556 
L 1078.62826 333.667677 
L 1079.593575 333.531018 
L 1080.558889 331.158133 
L 1081.524203 333.96584 
L 1082.489518 333.92857 
L 1084.420147 334.649132 
L 1085.385461 333.506171 
L 1086.350776 330.984204 
L 1087.31609 333.332242 
L 1088.281404 334.301274 
L 1089.246719 334.326121 
L 1090.212033 333.779488 
L 1091.177348 333.531018 
L 1092.142662 333.804335 
L 1093.107976 338.823422 
L 1094.073291 335.916327 
L 1096.00392 333.854029 
L 1096.969234 333.704947 
L 1097.934549 335.32 
L 1098.899863 334.413085 
L 1099.865177 333.891299 
L 1100.830492 335.518775 
L 1101.795806 335.158494 
L 1102.761121 339.53156 
L 1103.726435 337.382298 
L 1104.691749 334.959719 
L 1105.657064 333.655253 
L 1106.622378 334.723673 
L 1107.587693 331.43145 
L 1108.553007 329.393998 
L 1109.518322 330.93451 
L 1110.483636 333.021655 
L 1111.44895 332.276246 
L 1112.414265 330.6115 
L 1113.379579 333.43163 
L 1114.344894 332.152012 
L 1115.310208 329.431269 
L 1116.275523 322.014449 
L 1117.240837 332.226552 
L 1118.206151 329.22007 
L 1119.171466 331.704766 
L 1120.13678 332.027777 
L 1121.102095 328.549202 
L 1122.067409 315.020029 
L 1123.032723 315.392733 
L 1123.998038 319.84034 
L 1124.963352 326.51175 
L 1124.963352 326.51175 
" clip-path="url(#pe314f2102c)" style="fill: none; stroke: #008080; stroke-width: 1.5; stroke-linecap: square"/>
   </g>
   <g id="patch_3">
    <path d="M 59.690625 356.477812 
L 59.690625 23.837812 
" style="fill: none; stroke: #000000; stroke-width: 0.8; stroke-linejoin: miter; stroke-linecap: square"/>
   </g>
   <g id="patch_4">
    <path d="M 1175.690625 356.477812 
L 1175.690625 23.837812 
" style="fill: none; stroke: #000000; stroke-width: 0.8; stroke-linejoin: miter; stroke-linecap: square"/>
   </g>
   <g id="patch_5">
    <path d="M 59.690625 356.477812 
L 1175.690625 356.477812 
" style="fill: none; stroke: #000000; stroke-width: 0.8; stroke-linejoin: miter; stroke-linecap: square"/>
   </g>
   <g id="patch_6">
    <path d="M 59.690625 23.837812 
L 1175.690625 23.837812 
" style="fill: none; stroke: #000000; stroke-width: 0.8; stroke-linejoin: miter; stroke-linecap: square"/>
   </g>
   <g id="text_18">
    <!-- Toronto Island Ferry Ticket Redemptions -->
    <g transform="translate(477.780313 17.837812) scale(0.14 -0.14)">
     <defs>
      <path id="DejaVuSans-72" d="M 2631 2963 
Q 2534 3019 2420 3045 
Q 2306 3072 2169 3072 
Q 1681 3072 1420 2755 
Q 1159 2438 1159 1844 
L 1159 0 
L 581 0 
L 581 3500 
L 1159 3500 
L 1159 2956 
Q 1341 3275 1631 3429 
Q 1922 3584 2338 3584 
Q 2397 3584 2469 3576 
Q 2541 3569 2628 3553 
L 2631 2963 
z
" transform="scale(0.015625)"/>
      <path id="DejaVuSans-49" d="M 628 4666 
L 1259 4666 
L 1259 0 
L 628 0 
L 628 4666 
z
" transform="scale(0.015625)"/>
      <path id="DejaVuSans-6c" d="M 603 4863 
L 1178 4863 
L 1178 0 
L 603 0 
L 603 4863 
z
" transform="scale(0.015625)"/>
      <path id="DejaVuSans-46" d="M 628 4666 
L 3309 4666 
L 3309 4134 
L 1259 4134 
L 1259 2759 
L 3109 2759 
L 3109 2228 
L 1259 2228 
L 1259 0 
L 628 0 
L 628 4666 
z
" transform="scale(0.015625)"/>
      <path id="DejaVuSans-79" d="M 2059 -325 
Q 1816 -950 1584 -1140 
Q 1353 -1331 966 -1331 
L 506 -1331 
L 506 -850 
L 844 -850 
Q 1081 -850 1212 -737 
Q 1344 -625 1503 -206 
L 1606 56 
L 191 3500 
L 800 3500 
L 1894 763 
L 2988 3500 
L 3597 3500 
L 2059 -325 
z
" transform="scale(0.015625)"/>
     </defs>
     <use xlink:href="#DejaVuSans-54"/>
     <use xlink:href="#DejaVuSans-6f" x="44.083984"/>
     <use xlink:href="#DejaVuSans-72" x="105.265625"/>
     <use xlink:href="#DejaVuSans-6f" x="144.128906"/>
     <use xlink:href="#DejaVuSans-6e" x="205.310547"/>
     <use xlink:href="#DejaVuSans-74" x="268.689453"/>
     <use xlink:href="#DejaVuSans-6f" x="307.898438"/>
     <use xlink:href="#DejaVuSans-20" x="369.080078"/>
     <use xlink:href="#DejaVuSans-49" x="400.867188"/>
     <use xlink:href="#DejaVuSans-73" x="430.359375"/>
     <use xlink:href="#DejaVuSans-6c" x="482.458984"/>
     <use xlink:href="#DejaVuSans-61" x="510.242188"/>
     <use xlink:href="#DejaVuSans-6e" x="571.521484"/>
     <use xlink:href="#DejaVuSans-64" x="634.900391"/>
     <use xlink:href="#DejaVuSans-20" x="698.376953"/>
     <use xlink:href="#DejaVuSans-46" x="730.164062"/>
     <use xlink:href="#DejaVuSans-65" x="782.183594"/>
     <use xlink:href="#DejaVuSans-72" x="843.707031"/>
     <use xlink:href="#DejaVuSans-72" x="883.070312"/>
     <use xlink:href="#DejaVuSans-79" x="924.183594"/>
     <use xlink:href="#DejaVuSans-20" x="983.363281"/>
     <use xlink:href="#DejaVuSans-54" x="1015.150391"/>
     <use xlink:href="#DejaVuSans-69" x="1073.109375"/>
     <use xlink:href="#DejaVuSans-63" x="1100.892578"/>
     <use xlink:href="#DejaVuSans-6b" x="1155.873047"/>
     <use xlink:href="#DejaVuSans-65" x="1210.158203"/>
     <use xlink:href="#DejaVuSans-74" x="1271.681641"/>
     <use xlink:href="#DejaVuSans-20" x="1310.890625"/>
     <use xlink:href="#DejaVuSans-52" x="1342.677734"/>
     <use xlink:href="#DejaVuSans-65" x="1407.660156"/>
     <use xlink:href="#DejaVuSans-64" x="1469.183594"/>
     <use xlink:href="#DejaVuSans-65" x="1532.660156"/>
     <use xlink:href="#DejaVuSans-6d" x="1594.183594"/>
     <use xlink:href="#DejaVuSans-70" x="1691.595703"/>
     <use xlink:href="#DejaVuSans-74" x="1755.072266"/>
     <use xlink:href="#DejaVuSans-69" x="1794.28125"/>
     <use xlink:href="#DejaVuSans-6f" x="1822.064453"/>
     <use xlink:href="#DejaVuSans-6e" x="1883.246094"/>
     <use xlink:href="#DejaVuSans-73" x="1946.625"/>
    </g>
   </g>
  </g>
  <g id="text_19">
   <!-- (Data from 2023-04-03 11:30:00 to 2026-02-17 18:45:00) -->
   <g style="fill: #808080" transform="translate(454.635938 399.677812) scale(0.1 -0.1)">
    <defs>
     <path id="DejaVuSans-28" d="M 1984 4856 
Q 1566 4138 1362 3434 
Q 1159 2731 1159 2009 
Q 1159 1288 1364 580 
Q 1569 -128 1984 -844 
L 1484 -844 
Q 1016 -109 783 600 
Q 550 1309 550 2009 
Q 550 2706 781 3412 
Q 1013 4119 1484 4856 
L 1984 4856 
z
" transform="scale(0.015625)"/>
     <path id="DejaVuSans-66" d="M 2375 4863 
L 2375 4384 
L 1825 4384 
Q 1516 4384 1395 4259 
Q 1275 4134 1275 3809 
L 1275 3500 
L 2222 3500 
L 2222 3053 
L 1275 3053 
L 1275 0 
L 697 0 
L 697 3053 
L 147 3053 
L 147 3500 
L 697 3500 
L 697 3744 
Q 697 4328 969 4595 
Q 1241 4863 1831 4863 
L 2375 4863 
z
" transform="scale(0.015625)"/>
     <path id="DejaVuSans-3a" d="M 750 794 
L 1409 794 
L 1409 0 
L 750 0 
L 750 794 
z
M 750 3309 
L 1409 3309 
L 1409 2516 
L 750 2516 
L 750 3309 
z
" transform="scale(0.015625)"/>
     <path id="DejaVuSans-37" d="M 525 4666 
L 3525 4666 
L 3525 4397 
L 1831 0 
L 1172 0 
L 2766 4134 
L 525 4134 
L 525 4666 
z
" transform="scale(0.015625)"/>
     <path id="DejaVuSans-38" d="M 2034 2216 
Q 1584 2216 1326 1975 
Q 1069 1734 1069 1313 
Q 1069 891 1326 650 
Q 1584 409 2034 409 
Q 2484 409 2743 651 
Q 3003 894 3003 1313 
Q 3003 1734 2745 1975 
Q 2488 2216 2034 2216 
z
M 1403 2484 
Q 997 2584 770 2862 
Q 544 3141 544 3541 
Q 544 4100 942 4425 
Q 1341 4750 2034 4750 
Q 2731 4750 3128 4425 
Q 3525 4100 3525 3541 
Q 3525 3141 3298 2862 
Q 3072 2584 2669 2484 
Q 3125 2378 3379 2068 
Q 3634 1759 3634 1313 
Q 3634 634 3220 271 
Q 2806 -91 2034 -91 
Q 1263 -91 848 271 
Q 434 634 434 1313 
Q 434 1759 690 2068 
Q 947 2378 1403 2484 
z
M 1172 3481 
Q 1172 3119 1398 2916 
Q 1625 2713 2034 2713 
Q 2441 2713 2670 2916 
Q 2900 3119 2900 3481 
Q 2900 3844 2670 4047 
Q 2441 4250 2034 4250 
Q 1625 4250 1398 4047 
Q 1172 3844 1172 3481 
z
" transform="scale(0.015625)"/>
     <path id="DejaVuSans-29" d="M 513 4856 
L 1013 4856 
Q 1481 4119 1714 3412 
Q 1947 2706 1947 2009 
Q 1947 1309 1714 600 
Q 1481 -109 1013 -844 
L 513 -844 
Q 928 -128 1133 580 
Q 1338 1288 1338 2009 
Q 1338 2731 1133 3434 
Q 928 4138 513 4856 
z
" transform="scale(0.015625)"/>
    </defs>
    <use xlink:href="#DejaVuSans-28"/>
    <use xlink:href="#DejaVuSans-44" x="39.013672"/>
    <use xlink:href="#DejaVuSans-61" x="116.015625"/>
    <use xlink:href="#DejaVuSans-74" x="177.294922"/>
    <use xlink:href="#DejaVuSans-61" x="216.503906"/>
    <use xlink:href="#DejaVuSans-20" x="277.783203"/>
    <use xlink:href="#DejaVuSans-66" x="309.570312"/>
    <use xlink:href="#DejaVuSans-72" x="344.775391"/>
    <use xlink:href="#DejaVuSans-6f" x="383.638672"/>
    <use xlink:href="#DejaVuSans-6d" x="444.820312"/>
    <use xlink:href="#DejaVuSans-20" x="542.232422"/>
    <use xlink:href="#DejaVuSans-32" x="574.019531"/>
    <use xlink:href="#DejaVuSans-30" x="637.642578"/>
    <use xlink:href="#DejaVuSans-32" x="701.265625"/>
    <use xlink:href="#DejaVuSans-33" x="764.888672"/>
    <use xlink:href="#DejaVuSans-2d" x="828.511719"/>
    <use xlink:href="#DejaVuSans-30" x="864.595703"/>
    <use xlink:href="#DejaVuSans-34" x="928.21875"/>
    <use xlink:href="#DejaVuSans-2d" x="991.841797"/>
    <use xlink:href="#DejaVuSans-30" x="1027.925781"/>
    <use xlink:href="#DejaVuSans-33" x="1091.548828"/>
    <use xlink:href="#DejaVuSans-20" x="1155.171875"/>
    <use xlink:href="#DejaVuSans-31" x="1186.958984"/>
    <use xlink:href="#DejaVuSans-31" x="1250.582031"/>
    <use xlink:href="#DejaVuSans-3a" x="1314.205078"/>
    <use xlink:href="#DejaVuSans-33" x="1347.896484"/>
    <use xlink:href="#DejaVuSans-30" x="1411.519531"/>
    <use xlink:href="#DejaVuSans-3a" x="1475.142578"/>
    <use xlink:href="#DejaVuSans-30" x="1508.833984"/>
    <use xlink:href="#DejaVuSans-30" x="1572.457031"/>
    <use xlink:href="#DejaVuSans-20" x="1636.080078"/>
    <use xlink:href="#DejaVuSans-74" x="1667.867188"/>
    <use xlink:href="#DejaVuSans-6f" x="1707.076172"/>
    <use xlink:href="#DejaVuSans-20" x="1768.257812"/>
    <use xlink:href="#DejaVuSans-32" x="1800.044922"/>
    <use xlink:href="#DejaVuSans-30" x="1863.667969"/>
    <use xlink:href="#DejaVuSans-32" x="1927.291016"/>
    <use xlink:href="#DejaVuSans-36" x="1990.914062"/>
    <use xlink:href="#DejaVuSans-2d" x="2054.537109"/>
    <use xlink:href="#DejaVuSans-30" x="2090.621094"/>
    <use xlink:href="#DejaVuSans-32" x="2154.244141"/>
    <use xlink:href="#DejaVuSans-2d" x="2217.867188"/>
    <use xlink:href="#DejaVuSans-31" x="2253.951172"/>
    <use xlink:href="#DejaVuSans-37" x="2317.574219"/>
    <use xlink:href="#DejaVuSans-20" x="2381.197266"/>
    <use xlink:href="#DejaVuSans-31" x="2412.984375"/>
    <use xlink:href="#DejaVuSans-38" x="2476.607422"/>
    <use xlink:href="#DejaVuSans-3a" x="2540.230469"/>
    <use xlink:href="#DejaVuSans-34" x="2573.921875"/>
    <use xlink:href="#DejaVuSans-35" x="2637.544922"/>
    <use xlink:href="#DejaVuSans-3a" x="2701.167969"/>
    <use xlink:href="#DejaVuSans-30" x="2734.859375"/>
    <use xlink:href="#DejaVuSans-30" x="2798.482422"/>
    <use xlink:href="#DejaVuSans-29" x="2862.105469"/>
   </g>
  </g>
 </g>
 <defs>
  <clipPath id="pe314f2102c">
   <rect x="59.690625" y="23.837812" width="1116" height="332.64"/>
  </clipPath>
 </defs>
</svg>
