<?xml version="1.0" encoding="utf-8" standalone="no"?>
<!DOCTYPE svg PUBLIC "-//W3C//DTD SVG 1.1//EN"
  "http://www.w3.org/Graphics/SVG/1.1/DTD/svg11.dtd">
<svg xmlns:xlink="http://www.w3.org/1999/xlink" width="1182.890625pt" height="408.9575pt" viewBox="0 0 1182.890625 408.9575" xmlns="http://www.w3.org/2000/svg" version="1.1">
 <metadata>
  <rdf:RDF xmlns:dc="http://purl.org/dc/elements/1.1/" xmlns:cc="http://creativecommons.org/ns#" xmlns:rdf="http://www.w3.org/1999/02/22-rdf-syntax-ns#">
   <cc:Work>
    <dc:type rdf:resource="http://purl.org/dc/dcmitype/StillImage"/>
    <dc:date>2026-02-23T19:30:15.583902</dc:date>
    <dc:format>image/svg+xml</dc:format>
    <dc:creator>
     <cc:Agent>
      <dc:title>Matplotlib v3.8.4, https://matplotlib.org/</dc:title>
     </cc:Agent>
    </dc:creator>
   </cc:Work>
  </rdf:RDF>
 </metadata>
 <defs>
  <style type="text/css">*{stroke-linejoin: round; stroke-linecap: butt}</style>
 </defs>
 <g id="figure_1">
  <g id="patch_1">
   <path d="M 0 408.9575 
L 1182.890625 408.9575 
L 1182.890625 0 
L 0 0 
z
" style="fill: #ffffff"/>
  </g>
  <g id="axes_1">
   <g id="patch_2">
    <path d="M 59.690625 356.477812 
L 1175.690625 356.477812 
L 1175.690625 23.837812 
L 59.690625 23.837812 
z
" style="fill: #ffffff"/>
   </g>
   <g id="matplotlib.axis_1">
    <g id="xtick_1">
     <g id="line2d_1">
      <defs>
       <path id="mec33b9f8bf" d="M 0 0 
L 0 3.5 
" style="stroke: #000000; stroke-width: 0.8"/>
      </defs>
      <g>
       <use xlink:href="#mec33b9f8bf" x="114.350244" y="356.477812" style="stroke: #000000; stroke-width: 0.8"/>
      </g>
     </g>
     <g id="text_1">
      <!-- 2023-05 -->
      <g transform="translate(93.458838 371.07625) scale(0.1 -0.1)">
       <defs>
        <path id="DejaVuSans-32" d="M 1228 531 
L 3431 531 
L 3431 0 
L 469 0 
L 469 531 
Q 828 903 1448 1529 
Q 2069 2156 2228 2338 
Q 2531 2678 2651 2914 
Q 2772 3150 2772 3378 
Q 2772 3750 2511 3984 
Q 2250 4219 1831 4219 
Q 1534 4219 1204 4116 
Q 875 4013 500 3803 
L 500 4441 
Q 881 4594 1212 4672 
Q 1544 4750 1819 4750 
Q 2544 4750 2975 4387 
Q 3406 4025 3406 3419 
Q 3406 3131 3298 2873 
Q 3191 2616 2906 2266 
Q 2828 2175 2409 1742 
Q 1991 1309 1228 531 
z
" transform="scale(0.015625)"/>
        <path id="DejaVuSans-30" d="M 2034 4250 
Q 1547 4250 1301 3770 
Q 1056 3291 1056 2328 
Q 1056 1369 1301 889 
Q 1547 409 2034 409 
Q 2525 409 2770 889 
Q 3016 1369 3016 2328 
Q 3016 3291 2770 3770 
Q 2525 4250 2034 4250 
z
M 2034 4750 
Q 2819 4750 3233 4129 
Q 3647 3509 3647 2328 
Q 3647 1150 3233 529 
Q 2819 -91 2034 -91 
Q 1250 -91 836 529 
Q 422 1150 422 2328 
Q 422 3509 836 4129 
Q 1250 4750 2034 4750 
z
" transform="scale(0.015625)"/>
        <path id="DejaVuSans-33" d="M 2597 2516 
Q 3050 2419 3304 2112 
Q 3559 1806 3559 1356 
Q 3559 666 3084 287 
Q 2609 -91 1734 -91 
Q 1441 -91 1130 -33 
Q 819 25 488 141 
L 488 750 
Q 750 597 1062 519 
Q 1375 441 1716 441 
Q 2309 441 2620 675 
Q 2931 909 2931 1356 
Q 2931 1769 2642 2001 
Q 2353 2234 1838 2234 
L 1294 2234 
L 1294 2753 
L 1863 2753 
Q 2328 2753 2575 2939 
Q 2822 3125 2822 3475 
Q 2822 3834 2567 4026 
Q 2313 4219 1838 4219 
Q 1578 4219 1281 4162 
Q 984 4106 628 3988 
L 628 4550 
Q 988 4650 1302 4700 
Q 1616 4750 1894 4750 
Q 2613 4750 3031 4423 
Q 3450 4097 3450 3541 
Q 3450 3153 3228 2886 
Q 3006 2619 2597 2516 
z
" transform="scale(0.015625)"/>
        <path id="DejaVuSans-2d" d="M 313 2009 
L 1997 2009 
L 1997 1497 
L 313 1497 
L 313 2009 
z
" transform="scale(0.015625)"/>
        <path id="DejaVuSans-35" d="M 691 4666 
L 3169 4666 
L 3169 4134 
L 1269 4134 
L 1269 2991 
Q 1406 3038 1543 3061 
Q 1681 3084 1819 3084 
Q 2600 3084 3056 2656 
Q 3513 2228 3513 1497 
Q 3513 744 3044 326 
Q 2575 -91 1722 -91 
Q 1428 -91 1123 -41 
Q 819 9 494 109 
L 494 744 
Q 775 591 1075 516 
Q 1375 441 1709 441 
Q 2250 441 2565 725 
Q 2881 1009 2881 1497 
Q 2881 1984 2565 2268 
Q 2250 2553 1709 2553 
Q 1456 2553 1204 2497 
Q 953 2441 691 2322 
L 691 4666 
z
" transform="scale(0.015625)"/>
       </defs>
       <use xlink:href="#DejaVuSans-32"/>
       <use xlink:href="#DejaVuSans-30" x="63.623047"/>
       <use xlink:href="#DejaVuSans-32" x="127.246094"/>
       <use xlink:href="#DejaVuSans-33" x="190.869141"/>
       <use xlink:href="#DejaVuSans-2d" x="254.492188"/>
       <use xlink:href="#DejaVuSans-30" x="290.576172"/>
       <use xlink:href="#DejaVuSans-35" x="354.199219"/>
      </g>
     </g>
    </g>
    <g id="xtick_2">
     <g id="line2d_2">
      <g>
       <use xlink:href="#mec33b9f8bf" x="235.269906" y="356.477812" style="stroke: #000000; stroke-width: 0.8"/>
      </g>
     </g>
     <g id="text_2">
      <!-- 2023-09 -->
      <g transform="translate(214.3785 371.07625) scale(0.1 -0.1)">
       <defs>
        <path id="DejaVuSans-39" d="M 703 97 
L 703 672 
Q 941 559 1184 500 
Q 1428 441 1663 441 
Q 2288 441 2617 861 
Q 2947 1281 2994 2138 
Q 2813 1869 2534 1725 
Q 2256 1581 1919 1581 
Q 1219 1581 811 2004 
Q 403 2428 403 3163 
Q 403 3881 828 4315 
Q 1253 4750 1959 4750 
Q 2769 4750 3195 4129 
Q 3622 3509 3622 2328 
Q 3622 1225 3098 567 
Q 2575 -91 1691 -91 
Q 1453 -91 1209 -44 
Q 966 3 703 97 
z
M 1959 2075 
Q 2384 2075 2632 2365 
Q 2881 2656 2881 3163 
Q 2881 3666 2632 3958 
Q 2384 4250 1959 4250 
Q 1534 4250 1286 3958 
Q 1038 3666 1038 3163 
Q 1038 2656 1286 2365 
Q 1534 2075 1959 2075 
z
" transform="scale(0.015625)"/>
       </defs>
       <use xlink:href="#DejaVuSans-32"/>
       <use xlink:href="#DejaVuSans-30" x="63.623047"/>
       <use xlink:href="#DejaVuSans-32" x="127.246094"/>
       <use xlink:href="#DejaVuSans-33" x="190.869141"/>
       <use xlink:href="#DejaVuSans-2d" x="254.492188"/>
       <use xlink:href="#DejaVuSans-30" x="290.576172"/>
       <use xlink:href="#DejaVuSans-39" x="354.199219"/>
      </g>
     </g>
    </g>
    <g id="xtick_3">
     <g id="line2d_3">
      <g>
       <use xlink:href="#mec33b9f8bf" x="355.206481" y="356.477812" style="stroke: #000000; stroke-width: 0.8"/>
      </g>
     </g>
     <g id="text_3">
      <!-- 2024-01 -->
      <g transform="translate(334.315075 371.07625) scale(0.1 -0.1)">
       <defs>
        <path id="DejaVuSans-34" d="M 2419 4116 
L 825 1625 
L 2419 1625 
L 2419 4116 
z
M 2253 4666 
L 3047 4666 
L 3047 1625 
L 3713 1625 
L 3713 1100 
L 3047 1100 
L 3047 0 
L 2419 0 
L 2419 1100 
L 313 1100 
L 313 1709 
L 2253 4666 
z
" transform="scale(0.015625)"/>
        <path id="DejaVuSans-31" d="M 794 531 
L 1825 531 
L 1825 4091 
L 703 3866 
L 703 4441 
L 1819 4666 
L 2450 4666 
L 2450 531 
L 3481 531 
L 3481 0 
L 794 0 
L 794 531 
z
" transform="scale(0.015625)"/>
       </defs>
       <use xlink:href="#DejaVuSans-32"/>
       <use xlink:href="#DejaVuSans-30" x="63.623047"/>
       <use xlink:href="#DejaVuSans-32" x="127.246094"/>
       <use xlink:href="#DejaVuSans-34" x="190.869141"/>
       <use xlink:href="#DejaVuSans-2d" x="254.492188"/>
       <use xlink:href="#DejaVuSans-30" x="290.576172"/>
       <use xlink:href="#DejaVuSans-31" x="354.199219"/>
      </g>
     </g>
    </g>
    <g id="xtick_4">
     <g id="line2d_4">
      <g>
       <use xlink:href="#mec33b9f8bf" x="474.15997" y="356.477812" style="stroke: #000000; stroke-width: 0.8"/>
      </g>
     </g>
     <g id="text_4">
      <!-- 2024-05 -->
      <g transform="translate(453.268563 371.07625) scale(0.1 -0.1)">
       <use xlink:href="#DejaVuSans-32"/>
       <use xlink:href="#DejaVuSans-30" x="63.623047"/>
       <use xlink:href="#DejaVuSans-32" x="127.246094"/>
       <use xlink:href="#DejaVuSans-34" x="190.869141"/>
       <use xlink:href="#DejaVuSans-2d" x="254.492188"/>
       <use xlink:href="#DejaVuSans-30" x="290.576172"/>
       <use xlink:href="#DejaVuSans-35" x="354.199219"/>
      </g>
     </g>
    </g>
    <g id="xtick_5">
     <g id="line2d_5">
      <g>
       <use xlink:href="#mec33b9f8bf" x="595.079631" y="356.477812" style="stroke: #000000; stroke-width: 0.8"/>
      </g>
     </g>
     <g id="text_5">
      <!-- 2024-09 -->
      <g transform="translate(574.188225 371.07625) scale(0.1 -0.1)">
       <use xlink:href="#DejaVuSans-32"/>
       <use xlink:href="#DejaVuSans-30" x="63.623047"/>
       <use xlink:href="#DejaVuSans-32" x="127.246094"/>
       <use xlink:href="#DejaVuSans-34" x="190.869141"/>
       <use xlink:href="#DejaVuSans-2d" x="254.492188"/>
       <use xlink:href="#DejaVuSans-30" x="290.576172"/>
       <use xlink:href="#DejaVuSans-39" x="354.199219"/>
      </g>
     </g>
    </g>
    <g id="xtick_6">
     <g id="line2d_6">
      <g>
       <use xlink:href="#mec33b9f8bf" x="715.016206" y="356.477812" style="stroke: #000000; stroke-width: 0.8"/>
      </g>
     </g>
     <g id="text_6">
      <!-- 2025-01 -->
      <g transform="translate(694.1248 371.07625) scale(0.1 -0.1)">
       <use xlink:href="#DejaVuSans-32"/>
       <use xlink:href="#DejaVuSans-30" x="63.623047"/>
       <use xlink:href="#DejaVuSans-32" x="127.246094"/>
       <use xlink:href="#DejaVuSans-35" x="190.869141"/>
       <use xlink:href="#DejaVuSans-2d" x="254.492188"/>
       <use xlink:href="#DejaVuSans-30" x="290.576172"/>
       <use xlink:href="#DejaVuSans-31" x="354.199219"/>
      </g>
     </g>
    </g>
    <g id="xtick_7">
     <g id="line2d_7">
      <g>
       <use xlink:href="#mec33b9f8bf" x="832.986608" y="356.477812" style="stroke: #000000; stroke-width: 0.8"/>
      </g>
     </g>
     <g id="text_7">
      <!-- 2025-05 -->
      <g transform="translate(812.095202 371.07625) scale(0.1 -0.1)">
       <use xlink:href="#DejaVuSans-32"/>
       <use xlink:href="#DejaVuSans-30" x="63.623047"/>
       <use xlink:href="#DejaVuSans-32" x="127.246094"/>
       <use xlink:href="#DejaVuSans-35" x="190.869141"/>
       <use xlink:href="#DejaVuSans-2d" x="254.492188"/>
       <use xlink:href="#DejaVuSans-30" x="290.576172"/>
       <use xlink:href="#DejaVuSans-35" x="354.199219"/>
      </g>
     </g>
    </g>
    <g id="xtick_8">
     <g id="line2d_8">
      <g>
       <use xlink:href="#mec33b9f8bf" x="953.90627" y="356.477812" style="stroke: #000000; stroke-width: 0.8"/>
      </g>
     </g>
     <g id="text_8">
      <!-- 2025-09 -->
      <g transform="translate(933.014864 371.07625) scale(0.1 -0.1)">
       <use xlink:href="#DejaVuSans-32"/>
       <use xlink:href="#DejaVuSans-30" x="63.623047"/>
       <use xlink:href="#DejaVuSans-32" x="127.246094"/>
       <use xlink:href="#DejaVuSans-35" x="190.869141"/>
       <use xlink:href="#DejaVuSans-2d" x="254.492188"/>
       <use xlink:href="#DejaVuSans-30" x="290.576172"/>
       <use xlink:href="#DejaVuSans-39" x="354.199219"/>
      </g>
     </g>
    </g>
    <g id="xtick_9">
     <g id="line2d_9">
      <g>
       <use xlink:href="#mec33b9f8bf" x="1073.842845" y="356.477812" style="stroke: #000000; stroke-width: 0.8"/>
      </g>
     </g>
     <g id="text_9">
      <!-- 2026-01 -->
      <g transform="translate(1052.951439 371.07625) scale(0.1 -0.1)">
       <defs>
        <path id="DejaVuSans-36" d="M 2113 2584 
Q 1688 2584 1439 2293 
Q 1191 2003 1191 1497 
Q 1191 994 1439 701 
Q 1688 409 2113 409 
Q 2538 409 2786 701 
Q 3034 994 3034 1497 
Q 3034 2003 2786 2293 
Q 2538 2584 2113 2584 
z
M 3366 4563 
L 3366 3988 
Q 3128 4100 2886 4159 
Q 2644 4219 2406 4219 
Q 1781 4219 1451 3797 
Q 1122 3375 1075 2522 
Q 1259 2794 1537 2939 
Q 1816 3084 2150 3084 
Q 2853 3084 3261 2657 
Q 3669 2231 3669 1497 
Q 3669 778 3244 343 
Q 2819 -91 2113 -91 
Q 1303 -91 875 529 
Q 447 1150 447 2328 
Q 447 3434 972 4092 
Q 1497 4750 2381 4750 
Q 2619 4750 2861 4703 
Q 3103 4656 3366 4563 
z
" transform="scale(0.015625)"/>
       </defs>
       <use xlink:href="#DejaVuSans-32"/>
       <use xlink:href="#DejaVuSans-30" x="63.623047"/>
       <use xlink:href="#DejaVuSans-32" x="127.246094"/>
       <use xlink:href="#DejaVuSans-36" x="190.869141"/>
       <use xlink:href="#DejaVuSans-2d" x="254.492188"/>
       <use xlink:href="#DejaVuSans-30" x="290.576172"/>
       <use xlink:href="#DejaVuSans-31" x="354.199219"/>
      </g>
     </g>
    </g>
    <g id="text_10">
     <!-- Date -->
     <g transform="translate(605.739844 384.754375) scale(0.1 -0.1)">
      <defs>
       <path id="DejaVuSans-44" d="M 1259 4147 
L 1259 519 
L 2022 519 
Q 2988 519 3436 956 
Q 3884 1394 3884 2338 
Q 3884 3275 3436 3711 
Q 2988 4147 2022 4147 
L 1259 4147 
z
M 628 4666 
L 1925 4666 
Q 3281 4666 3915 4102 
Q 4550 3538 4550 2338 
Q 4550 1131 3912 565 
Q 3275 0 1925 0 
L 628 0 
L 628 4666 
z
" transform="scale(0.015625)"/>
       <path id="DejaVuSans-61" d="M 2194 1759 
Q 1497 1759 1228 1600 
Q 959 1441 959 1056 
Q 959 750 1161 570 
Q 1363 391 1709 391 
Q 2188 391 2477 730 
Q 2766 1069 2766 1631 
L 2766 1759 
L 2194 1759 
z
M 3341 1997 
L 3341 0 
L 2766 0 
L 2766 531 
Q 2569 213 2275 61 
Q 1981 -91 1556 -91 
Q 1019 -91 701 211 
Q 384 513 384 1019 
Q 384 1609 779 1909 
Q 1175 2209 1959 2209 
L 2766 2209 
L 2766 2266 
Q 2766 2663 2505 2880 
Q 2244 3097 1772 3097 
Q 1472 3097 1187 3025 
Q 903 2953 641 2809 
L 641 3341 
Q 956 3463 1253 3523 
Q 1550 3584 1831 3584 
Q 2591 3584 2966 3190 
Q 3341 2797 3341 1997 
z
" transform="scale(0.015625)"/>
       <path id="DejaVuSans-74" d="M 1172 4494 
L 1172 3500 
L 2356 3500 
L 2356 3053 
L 1172 3053 
L 1172 1153 
Q 1172 725 1289 603 
Q 1406 481 1766 481 
L 2356 481 
L 2356 0 
L 1766 0 
Q 1100 0 847 248 
Q 594 497 594 1153 
L 594 3053 
L 172 3053 
L 172 3500 
L 594 3500 
L 594 4494 
L 1172 4494 
z
" transform="scale(0.015625)"/>
       <path id="DejaVuSans-65" d="M 3597 1894 
L 3597 1613 
L 953 1613 
Q 991 1019 1311 708 
Q 1631 397 2203 397 
Q 2534 397 2845 478 
Q 3156 559 3463 722 
L 3463 178 
Q 3153 47 2828 -22 
Q 2503 -91 2169 -91 
Q 1331 -91 842 396 
Q 353 884 353 1716 
Q 353 2575 817 3079 
Q 1281 3584 2069 3584 
Q 2775 3584 3186 3129 
Q 3597 2675 3597 1894 
z
M 3022 2063 
Q 3016 2534 2758 2815 
Q 2500 3097 2075 3097 
Q 1594 3097 1305 2825 
Q 1016 2553 972 2059 
L 3022 2063 
z
" transform="scale(0.015625)"/>
      </defs>
      <use xlink:href="#DejaVuSans-44"/>
      <use xlink:href="#DejaVuSans-61" x="77.001953"/>
      <use xlink:href="#DejaVuSans-74" x="138.28125"/>
      <use xlink:href="#DejaVuSans-65" x="177.490234"/>
     </g>
    </g>
   </g>
   <g id="matplotlib.axis_2">
    <g id="ytick_1">
     <g id="line2d_10">
      <defs>
       <path id="m845c3a8f12" d="M 0 0 
L -3.5 0 
" style="stroke: #000000; stroke-width: 0.8"/>
      </defs>
      <g>
       <use xlink:href="#m845c3a8f12" x="59.690625" y="341.357812" style="stroke: #000000; stroke-width: 0.8"/>
      </g>
     </g>
     <g id="text_11">
      <!-- 0 -->
      <g transform="translate(46.328125 345.157031) scale(0.1 -0.1)">
       <use xlink:href="#DejaVuSans-30"/>
      </g>
     </g>
    </g>
    <g id="ytick_2">
     <g id="line2d_11">
      <g>
       <use xlink:href="#m845c3a8f12" x="59.690625" y="279.240397" style="stroke: #000000; stroke-width: 0.8"/>
      </g>
     </g>
     <g id="text_12">
      <!-- 5000 -->
      <g transform="translate(27.240625 283.039616) scale(0.1 -0.1)">
       <use xlink:href="#DejaVuSans-35"/>
       <use xlink:href="#DejaVuSans-30" x="63.623047"/>
       <use xlink:href="#DejaVuSans-30" x="127.246094"/>
       <use xlink:href="#DejaVuSans-30" x="190.869141"/>
      </g>
     </g>
    </g>
    <g id="ytick_3">
     <g id="line2d_12">
      <g>
       <use xlink:href="#m845c3a8f12" x="59.690625" y="217.122982" style="stroke: #000000; stroke-width: 0.8"/>
      </g>
     </g>
     <g id="text_13">
      <!-- 10000 -->
      <g transform="translate(20.878125 220.922201) scale(0.1 -0.1)">
       <use xlink:href="#DejaVuSans-31"/>
       <use xlink:href="#DejaVuSans-30" x="63.623047"/>
       <use xlink:href="#DejaVuSans-30" x="127.246094"/>
       <use xlink:href="#DejaVuSans-30" x="190.869141"/>
       <use xlink:href="#DejaVuSans-30" x="254.492188"/>
      </g>
     </g>
    </g>
    <g id="ytick_4">
     <g id="line2d_13">
      <g>
       <use xlink:href="#m845c3a8f12" x="59.690625" y="155.005567" style="stroke: #000000; stroke-width: 0.8"/>
      </g>
     </g>
     <g id="text_14">
      <!-- 15000 -->
      <g transform="translate(20.878125 158.804786) scale(0.1 -0.1)">
       <use xlink:href="#DejaVuSans-31"/>
       <use xlink:href="#DejaVuSans-35" x="63.623047"/>
       <use xlink:href="#DejaVuSans-30" x="127.246094"/>
       <use xlink:href="#DejaVuSans-30" x="190.869141"/>
       <use xlink:href="#DejaVuSans-30" x="254.492188"/>
      </g>
     </g>
    </g>
    <g id="ytick_5">
     <g id="line2d_14">
      <g>
       <use xlink:href="#m845c3a8f12" x="59.690625" y="92.888152" style="stroke: #000000; stroke-width: 0.8"/>
      </g>
     </g>
     <g id="text_15">
      <!-- 20000 -->
      <g transform="translate(20.878125 96.687371) scale(0.1 -0.1)">
       <use xlink:href="#DejaVuSans-32"/>
       <use xlink:href="#DejaVuSans-30" x="63.623047"/>
       <use xlink:href="#DejaVuSans-30" x="127.246094"/>
       <use xlink:href="#DejaVuSans-30" x="190.869141"/>
       <use xlink:href="#DejaVuSans-30" x="254.492188"/>
      </g>
     </g>
    </g>
    <g id="ytick_6">
     <g id="line2d_15">
      <g>
       <use xlink:href="#m845c3a8f12" x="59.690625" y="30.770737" style="stroke: #000000; stroke-width: 0.8"/>
      </g>
     </g>
     <g id="text_16">
      <!-- 25000 -->
      <g transform="translate(20.878125 34.569956) scale(0.1 -0.1)">
       <use xlink:href="#DejaVuSans-32"/>
       <use xlink:href="#DejaVuSans-35" x="63.623047"/>
       <use xlink:href="#DejaVuSans-30" x="127.246094"/>
       <use xlink:href="#DejaVuSans-30" x="190.869141"/>
       <use xlink:href="#DejaVuSans-30" x="254.492188"/>
      </g>
     </g>
    </g>
    <g id="text_17">
     <!-- Ticket Redemptions -->
     <g transform="translate(14.798438 239.336719) rotate(-90) scale(0.1 -0.1)">
      <defs>
       <path id="DejaVuSans-54" d="M -19 4666 
L 3928 4666 
L 3928 4134 
L 2272 4134 
L 2272 0 
L 1638 0 
L 1638 4134 
L -19 4134 
L -19 4666 
z
" transform="scale(0.015625)"/>
       <path id="DejaVuSans-69" d="M 603 3500 
L 1178 3500 
L 1178 0 
L 603 0 
L 603 3500 
z
M 603 4863 
L 1178 4863 
L 1178 4134 
L 603 4134 
L 603 4863 
z
" transform="scale(0.015625)"/>
       <path id="DejaVuSans-63" d="M 3122 3366 
L 3122 2828 
Q 2878 2963 2633 3030 
Q 2388 3097 2138 3097 
Q 1578 3097 1268 2742 
Q 959 2388 959 1747 
Q 959 1106 1268 751 
Q 1578 397 2138 397 
Q 2388 397 2633 464 
Q 2878 531 3122 666 
L 3122 134 
Q 2881 22 2623 -34 
Q 2366 -91 2075 -91 
Q 1284 -91 818 406 
Q 353 903 353 1747 
Q 353 2603 823 3093 
Q 1294 3584 2113 3584 
Q 2378 3584 2631 3529 
Q 2884 3475 3122 3366 
z
" transform="scale(0.015625)"/>
       <path id="DejaVuSans-6b" d="M 581 4863 
L 1159 4863 
L 1159 1991 
L 2875 3500 
L 3609 3500 
L 1753 1863 
L 3688 0 
L 2938 0 
L 1159 1709 
L 1159 0 
L 581 0 
L 581 4863 
z
" transform="scale(0.015625)"/>
       <path id="DejaVuSans-20" transform="scale(0.015625)"/>
       <path id="DejaVuSans-52" d="M 2841 2188 
Q 3044 2119 3236 1894 
Q 3428 1669 3622 1275 
L 4263 0 
L 3584 0 
L 2988 1197 
Q 2756 1666 2539 1819 
Q 2322 1972 1947 1972 
L 1259 1972 
L 1259 0 
L 628 0 
L 628 4666 
L 2053 4666 
Q 2853 4666 3247 4331 
Q 3641 3997 3641 3322 
Q 3641 2881 3436 2590 
Q 3231 2300 2841 2188 
z
M 1259 4147 
L 1259 2491 
L 2053 2491 
Q 2509 2491 2742 2702 
Q 2975 2913 2975 3322 
Q 2975 3731 2742 3939 
Q 2509 4147 2053 4147 
L 1259 4147 
z
" transform="scale(0.015625)"/>
       <path id="DejaVuSans-64" d="M 2906 2969 
L 2906 4863 
L 3481 4863 
L 3481 0 
L 2906 0 
L 2906 525 
Q 2725 213 2448 61 
Q 2172 -91 1784 -91 
Q 1150 -91 751 415 
Q 353 922 353 1747 
Q 353 2572 751 3078 
Q 1150 3584 1784 3584 
Q 2172 3584 2448 3432 
Q 2725 3281 2906 2969 
z
M 947 1747 
Q 947 1113 1208 752 
Q 1469 391 1925 391 
Q 2381 391 2643 752 
Q 2906 1113 2906 1747 
Q 2906 2381 2643 2742 
Q 2381 3103 1925 3103 
Q 1469 3103 1208 2742 
Q 947 2381 947 1747 
z
" transform="scale(0.015625)"/>
       <path id="DejaVuSans-6d" d="M 3328 2828 
Q 3544 3216 3844 3400 
Q 4144 3584 4550 3584 
Q 5097 3584 5394 3201 
Q 5691 2819 5691 2113 
L 5691 0 
L 5113 0 
L 5113 2094 
Q 5113 2597 4934 2840 
Q 4756 3084 4391 3084 
Q 3944 3084 3684 2787 
Q 3425 2491 3425 1978 
L 3425 0 
L 2847 0 
L 2847 2094 
Q 2847 2600 2669 2842 
Q 2491 3084 2119 3084 
Q 1678 3084 1418 2786 
Q 1159 2488 1159 1978 
L 1159 0 
L 581 0 
L 581 3500 
L 1159 3500 
L 1159 2956 
Q 1356 3278 1631 3431 
Q 1906 3584 2284 3584 
Q 2666 3584 2933 3390 
Q 3200 3197 3328 2828 
z
" transform="scale(0.015625)"/>
       <path id="DejaVuSans-70" d="M 1159 525 
L 1159 -1331 
L 581 -1331 
L 581 3500 
L 1159 3500 
L 1159 2969 
Q 1341 3281 1617 3432 
Q 1894 3584 2278 3584 
Q 2916 3584 3314 3078 
Q 3713 2572 3713 1747 
Q 3713 922 3314 415 
Q 2916 -91 2278 -91 
Q 1894 -91 1617 61 
Q 1341 213 1159 525 
z
M 3116 1747 
Q 3116 2381 2855 2742 
Q 2594 3103 2138 3103 
Q 1681 3103 1420 2742 
Q 1159 2381 1159 1747 
Q 1159 1113 1420 752 
Q 1681 391 2138 391 
Q 2594 391 2855 752 
Q 3116 1113 3116 1747 
z
" transform="scale(0.015625)"/>
       <path id="DejaVuSans-6f" d="M 1959 3097 
Q 1497 3097 1228 2736 
Q 959 2375 959 1747 
Q 959 1119 1226 758 
Q 1494 397 1959 397 
Q 2419 397 2687 759 
Q 2956 1122 2956 1747 
Q 2956 2369 2687 2733 
Q 2419 3097 1959 3097 
z
M 1959 3584 
Q 2709 3584 3137 3096 
Q 3566 2609 3566 1747 
Q 3566 888 3137 398 
Q 2709 -91 1959 -91 
Q 1206 -91 779 398 
Q 353 888 353 1747 
Q 353 2609 779 3096 
Q 1206 3584 1959 3584 
z
" transform="scale(0.015625)"/>
       <path id="DejaVuSans-6e" d="M 3513 2113 
L 3513 0 
L 2938 0 
L 2938 2094 
Q 2938 2591 2744 2837 
Q 2550 3084 2163 3084 
Q 1697 3084 1428 2787 
Q 1159 2491 1159 1978 
L 1159 0 
L 581 0 
L 581 3500 
L 1159 3500 
L 1159 2956 
Q 1366 3272 1645 3428 
Q 1925 3584 2291 3584 
Q 2894 3584 3203 3211 
Q 3513 2838 3513 2113 
z
" transform="scale(0.015625)"/>
       <path id="DejaVuSans-73" d="M 2834 3397 
L 2834 2853 
Q 2591 2978 2328 3040 
Q 2066 3103 1784 3103 
Q 1356 3103 1142 2972 
Q 928 2841 928 2578 
Q 928 2378 1081 2264 
Q 1234 2150 1697 2047 
L 1894 2003 
Q 2506 1872 2764 1633 
Q 3022 1394 3022 966 
Q 3022 478 2636 193 
Q 2250 -91 1575 -91 
Q 1294 -91 989 -36 
Q 684 19 347 128 
L 347 722 
Q 666 556 975 473 
Q 1284 391 1588 391 
Q 1994 391 2212 530 
Q 2431 669 2431 922 
Q 2431 1156 2273 1281 
Q 2116 1406 1581 1522 
L 1381 1569 
Q 847 1681 609 1914 
Q 372 2147 372 2553 
Q 372 3047 722 3315 
Q 1072 3584 1716 3584 
Q 2034 3584 2315 3537 
Q 2597 3491 2834 3397 
z
" transform="scale(0.015625)"/>
      </defs>
      <use xlink:href="#DejaVuSans-54"/>
      <use xlink:href="#DejaVuSans-69" x="57.958984"/>
      <use xlink:href="#DejaVuSans-63" x="85.742188"/>
      <use xlink:href="#DejaVuSans-6b" x="140.722656"/>
      <use xlink:href="#DejaVuSans-65" x="195.007812"/>
      <use xlink:href="#DejaVuSans-74" x="256.53125"/>
      <use xlink:href="#DejaVuSans-20" x="295.740234"/>
      <use xlink:href="#DejaVuSans-52" x="327.527344"/>
      <use xlink:href="#DejaVuSans-65" x="392.509766"/>
      <use xlink:href="#DejaVuSans-64" x="454.033203"/>
      <use xlink:href="#DejaVuSans-65" x="517.509766"/>
      <use xlink:href="#DejaVuSans-6d" x="579.033203"/>
      <use xlink:href="#DejaVuSans-70" x="676.445312"/>
      <use xlink:href="#DejaVuSans-74" x="739.921875"/>
      <use xlink:href="#DejaVuSans-69" x="779.130859"/>
      <use xlink:href="#DejaVuSans-6f" x="806.914062"/>
      <use xlink:href="#DejaVuSans-6e" x="868.095703"/>
      <use xlink:href="#DejaVuSans-73" x="931.474609"/>
     </g>
    </g>
   </g>
   <g id="line2d_16">
    <path d="M 110.417898 338.425871 
L 111.400984 323.877972 
L 113.367158 332.462599 
L 114.350244 323.828278 
L 115.333331 327.356547 
L 116.316418 327.58017 
L 117.299504 318.461333 
L 118.282591 300.385166 
L 119.265678 229.161337 
L 120.248765 317.405337 
L 121.231851 305.453947 
L 122.214938 308.597088 
L 123.198025 305.913615 
L 124.181111 300.894528 
L 125.164198 291.241482 
L 126.147285 208.575626 
L 127.130371 243.895588 
L 128.113458 304.286139 
L 129.096545 306.646601 
L 130.079631 319.405518 
L 131.062718 310.025788 
L 132.045805 298.074398 
L 133.028891 274.917025 
L 134.011978 95.049838 
L 134.995065 179.864957 
L 135.978151 284.209791 
L 136.961238 314.895794 
L 137.944325 303.938282 
L 138.927411 290.632731 
L 139.910498 177.579036 
L 140.893585 177.019979 
L 141.876672 281.63813 
L 142.859758 292.645336 
L 143.842845 282.135069 
L 144.825932 285.700609 
L 145.809018 275.376694 
L 146.792105 167.590556 
L 147.775192 204.214984 
L 148.758278 285.725456 
L 149.741365 292.036585 
L 150.724452 286.495712 
L 151.707538 316.200259 
L 152.690625 307.814408 
L 153.673712 172.162397 
L 154.656798 278.296213 
L 155.639885 309.628237 
L 156.622972 297.117789 
L 157.606058 310.336375 
L 158.589145 303.130755 
L 159.572232 288.098341 
L 160.555318 75.134995 
L 161.538405 113.473864 
L 162.521492 260.480938 
L 163.504578 250.753351 
L 164.487665 256.343918 
L 165.470752 266.44421 
L 166.453839 286.880839 
L 167.436925 272.233553 
L 168.420012 170.584615 
L 169.403099 298.248326 
L 170.386185 316.672352 
L 171.369272 267.935028 
L 172.352359 237.969587 
L 173.335445 252.467792 
L 174.318532 109.846207 
L 175.301619 243.746506 
L 176.284705 179.05743 
L 177.267792 220.141889 
L 178.250879 161.29185 
L 179.233965 273.07835 
L 180.217052 207.146926 
L 181.200139 133.016002 
L 182.183225 190.164024 
L 184.149399 257.188715 
L 185.132485 225.546104 
L 186.115572 273.463478 
L 187.098659 192.772956 
L 188.081746 167.081193 
L 189.064832 130.059213 
L 190.047919 242.876863 
L 191.031006 237.69627 
L 192.014092 201.345159 
L 192.997179 252.85292 
L 193.980266 224.10498 
L 194.963352 82.191533 
L 195.946439 149.37773 
L 196.929526 266.816914 
L 197.912612 245.97031 
L 198.895699 211.818155 
L 199.878786 235.98183 
L 200.861872 218.178978 
L 201.844959 251.051514 
L 202.828046 105.820998 
L 203.811132 231.633611 
L 204.794219 215.657011 
L 205.777306 221.918447 
L 206.760392 235.683666 
L 207.743479 204.078325 
L 208.726566 111.858811 
L 209.709652 81.6449 
L 210.692739 277.426569 
L 211.675826 260.157928 
L 212.658913 181.51728 
L 213.641999 271.575108 
L 214.625086 180.436437 
L 215.608173 225.794574 
L 216.591259 119.486829 
L 217.574346 221.8936 
L 218.557433 207.333278 
L 219.540519 185.803382 
L 220.523606 218.216249 
L 221.506693 244.964008 
L 222.489779 80.452246 
L 223.472866 124.791657 
L 224.455953 232.863535 
L 225.439039 224.552225 
L 226.422126 292.16082 
L 227.405213 252.567179 
L 228.388299 232.66476 
L 229.371386 197.108751 
L 230.354473 137.351798 
L 231.337559 219.073469 
L 232.320646 222.986866 
L 233.303733 251.660265 
L 234.28682 221.011533 
L 235.269906 204.898275 
L 236.252993 144.159867 
L 237.23608 99.435328 
L 238.219166 153.862607 
L 239.202253 285.874537 
L 240.18534 290.297297 
L 241.168426 310.224564 
L 242.151513 298.695572 
L 243.1346 224.291332 
L 244.117686 224.316179 
L 245.100773 295.912712 
L 246.08386 320.200621 
L 247.066946 311.901734 
L 249.03312 284.060709 
L 250.016206 199.829494 
L 250.999293 256.853281 
L 251.98238 305.938462 
L 252.965466 304.870043 
L 253.948553 304.547032 
L 254.93164 300.459706 
L 255.914726 289.812781 
L 256.897813 238.342291 
L 257.8809 248.442583 
L 258.863987 301.801443 
L 259.847073 314.933064 
L 260.83016 311.429642 
L 261.813247 313.827374 
L 262.796333 291.91235 
L 263.77942 248.778017 
L 264.762507 249.734625 
L 265.745593 286.185124 
L 266.72868 291.142094 
L 267.711767 291.62661 
L 268.694853 299.565216 
L 269.67794 304.621573 
L 270.661027 283.526499 
L 271.644113 312.411097 
L 272.6272 308.385889 
L 273.610287 257.486879 
L 274.593373 318.945849 
L 275.57646 311.442065 
L 276.559547 315.678473 
L 277.542633 313.914339 
L 278.52572 319.181895 
L 279.508807 322.424424 
L 280.491893 317.417761 
L 282.458067 321.380852 
L 283.441154 329.356728 
L 284.42424 313.877068 
L 285.407327 312.460791 
L 286.390414 319.455212 
L 287.3735 314.287043 
L 288.356587 320.573325 
L 289.339674 329.095835 
L 290.32276 313.181353 
L 291.305847 292.024161 
L 292.288934 327.368971 
L 293.27202 318.088629 
L 294.255107 324.399758 
L 295.238194 329.915785 
L 296.22128 329.50581 
L 299.17054 318.113476 
L 300.153627 332.723492 
L 301.136714 331.456297 
L 302.1198 329.170376 
L 303.102887 329.592774 
L 304.085974 324.337641 
L 305.069061 326.039658 
L 306.052147 324.064324 
L 307.035234 317.231408 
L 308.018321 330.959357 
L 309.001407 328.834942 
L 309.984494 327.058384 
L 310.967581 331.009051 
L 311.950667 318.871308 
L 312.933754 326.387515 
L 313.916841 330.189101 
L 314.899927 336.761124 
L 315.883014 331.866271 
L 316.866101 330.499688 
L 317.849187 330.189101 
L 318.832274 326.710526 
L 319.815361 333.64283 
L 320.798447 312.647143 
L 321.781534 335.021836 
L 322.764621 335.35727 
L 323.747707 328.039839 
L 324.730794 335.60574 
L 325.713881 332.114741 
L 326.696967 335.717551 
L 327.680054 333.704947 
L 328.663141 334.21431 
L 329.646228 333.369513 
L 330.629314 334.810637 
L 331.612401 333.344666 
L 332.595488 330.748158 
L 333.578574 334.226733 
L 334.561661 334.587014 
L 335.544748 310.435763 
L 336.527834 334.152192 
L 337.510921 326.79749 
L 338.494008 328.673436 
L 340.460181 334.264004 
L 341.443268 334.686402 
L 342.426354 328.760401 
L 343.409441 331.903542 
L 344.392528 329.803973 
L 345.375614 332.176859 
L 346.358701 335.841786 
L 347.341788 329.54308 
L 348.324874 329.393998 
L 349.307961 332.338364 
L 350.291048 336.040562 
L 351.274135 332.425328 
L 352.257221 331.058745 
L 353.240308 326.822337 
L 355.206481 329.679738 
L 356.189568 331.021475 
L 357.172655 331.75446 
L 358.155741 330.089713 
L 359.138828 333.940993 
L 360.121915 334.288851 
L 361.105001 335.220612 
L 362.088088 335.021836 
L 363.071175 336.699006 
L 364.054261 335.481505 
L 365.037348 335.469082 
L 366.020435 328.126803 
L 367.003521 339.804877 
L 367.986608 337.755002 
L 368.969695 335.195765 
L 369.952781 336.214491 
L 370.935868 335.344847 
L 371.918955 335.270306 
L 372.902041 334.50005 
L 373.885128 335.816939 
L 374.868215 331.108439 
L 376.834388 338.35133 
L 377.817475 335.64301 
L 378.800562 334.587014 
L 379.783648 334.934872 
L 380.766735 334.003111 
L 381.749822 333.916146 
L 382.732908 324.871851 
L 383.715995 334.736096 
L 384.699082 333.046502 
L 385.682168 335.568469 
L 386.665255 331.903542 
L 387.648342 324.424605 
L 388.631428 326.076928 
L 389.614515 334.512473 
L 390.597602 333.319819 
L 391.580688 333.14589 
L 392.563775 333.294972 
L 393.546862 328.089533 
L 394.529948 320.585749 
L 395.513035 332.238976 
L 396.496122 332.996808 
L 397.479209 330.07729 
L 398.462295 323.008328 
L 399.445382 334.860331 
L 400.428469 334.673979 
L 401.411555 331.493567 
L 402.394642 333.92857 
L 403.377729 330.052443 
L 404.360815 329.878514 
L 405.343902 331.344485 
L 406.326989 331.642649 
L 407.310075 330.276066 
L 408.293162 331.791731 
L 409.276249 331.804154 
L 410.259335 326.822337 
L 411.242422 326.250857 
L 412.225509 334.388239 
L 413.208595 333.071349 
L 414.191682 327.132924 
L 415.174769 331.120862 
L 416.157855 329.915785 
L 417.140942 324.176135 
L 418.124029 329.617621 
L 419.107115 330.959357 
L 420.090202 323.492844 
L 421.073289 329.021294 
L 422.056376 335.64301 
L 423.039462 334.897601 
L 424.022549 326.076928 
L 425.005636 324.648228 
L 425.988722 302.68351 
L 426.971809 331.804154 
L 427.954896 327.431088 
L 428.937982 325.903 
L 429.921069 331.009051 
L 430.904156 331.145709 
L 431.887242 332.922268 
L 432.870329 331.853848 
L 433.853416 331.257521 
L 434.836502 334.425509 
L 435.819589 329.393998 
L 436.802676 326.250857 
L 437.785762 326.747796 
L 438.768849 331.22025 
L 439.751936 326.101775 
L 440.735022 321.877791 
L 442.701196 308.758593 
L 443.684283 310.684233 
L 444.667369 320.349703 
L 445.650456 332.388058 
L 446.633543 334.413085 
L 447.616629 334.487626 
L 448.599716 327.132924 
L 449.582803 308.038031 
L 450.565889 299.664604 
L 451.548976 326.673256 
L 452.532063 324.188559 
L 453.515149 315.479697 
L 454.498236 332.412905 
L 455.481323 333.953417 
L 456.464409 321.48024 
L 457.447496 313.2062 
L 458.430583 316.100872 
L 459.413669 316.895974 
L 460.396756 333.344666 
L 461.379843 326.201163 
L 462.362929 324.79731 
L 463.346016 322.188378 
L 464.329103 314.212502 
L 465.312189 312.237168 
L 466.295276 327.841063 
L 467.278363 321.356005 
L 468.26145 316.150565 
L 469.244536 309.180991 
L 470.227623 325.045779 
L 471.21071 313.715563 
L 472.193796 318.113476 
L 473.176883 326.710526 
L 474.15997 310.348799 
L 475.143056 296.074217 
L 476.126143 321.778403 
L 477.10923 266.568445 
L 478.092316 318.16317 
L 479.075403 299.254629 
L 480.05849 303.118332 
L 481.041576 308.932522 
L 482.024663 318.374369 
L 483.00775 312.572602 
L 483.990836 298.086821 
L 484.973923 265.077627 
L 485.95701 319.902457 
L 486.940096 320.324856 
L 487.923183 313.156506 
L 488.90627 300.79514 
L 489.889357 315.367886 
L 490.872443 204.128019 
L 491.85553 136.171567 
L 492.838617 146.222165 
L 493.821703 295.713936 
L 494.80479 308.472853 
L 496.770963 275.625164 
L 497.75405 287.887142 
L 498.737137 184.734962 
L 499.720223 316.80901 
L 500.70331 319.765799 
L 501.686397 289.241301 
L 502.669483 291.030283 
L 503.65257 278.594376 
L 504.635657 198.885309 
L 505.618743 297.738964 
L 506.60183 285.129128 
L 507.584917 285.327904 
L 508.568003 293.676485 
L 509.55109 290.732119 
L 510.534177 308.261654 
L 511.517263 219.843725 
L 512.50035 285.514256 
L 513.483437 296.136334 
L 514.466524 291.179365 
L 515.44961 271.127863 
L 516.432697 275.215189 
L 517.415784 262.953211 
L 518.39887 130.568576 
L 519.381957 174.125308 
L 520.365044 249.113451 
L 521.34813 269.413422 
L 522.331217 205.134321 
L 523.314304 281.066649 
L 525.280477 253.374706 
L 526.263564 257.089327 
L 527.24665 240.180967 
L 528.229737 272.54414 
L 529.212824 283.116524 
L 530.19591 246.678448 
L 531.178997 230.850931 
L 532.162084 306.969612 
L 533.14517 141.476394 
L 534.128257 112.268786 
L 535.111344 245.572758 
L 536.09443 262.02145 
L 537.077517 216.539079 
L 538.060604 222.440233 
L 539.043691 138.308406 
L 540.026777 141.67517 
L 541.009864 230.540344 
L 541.992951 257.623537 
L 542.976037 323.381033 
L 543.959124 257.88443 
L 544.942211 172.758725 
L 545.925297 98.615378 
L 546.908384 173.765027 
L 547.891471 296.596003 
L 548.874557 314.150385 
L 549.857644 235.820324 
L 550.840731 225.397022 
L 551.823817 200.003423 
L 552.806904 120.34405 
L 553.789991 169.292573 
L 554.773077 230.093099 
L 555.756164 230.316721 
L 556.739251 296.061793 
L 557.722337 208.140804 
L 558.705424 194.512243 
L 559.688511 121.126729 
L 560.671598 151.825156 
L 561.654684 223.769546 
L 562.637771 279.116163 
L 563.620858 229.621006 
L 564.603944 241.696632 
L 565.587031 261.822674 
L 566.570118 185.753688 
L 567.553204 124.133212 
L 568.536291 153.788066 
L 569.519378 299.043429 
L 570.502464 192.027547 
L 571.485551 228.155035 
L 572.468638 289.16676 
L 573.451724 130.767352 
L 574.434811 241.845714 
L 575.417898 239.708874 
L 576.400984 225.583374 
L 577.384071 200.984878 
L 578.367158 202.8484 
L 579.350244 242.640816 
L 580.333331 269.487963 
L 581.316418 260.331856 
L 582.299504 270.394878 
L 583.282591 248.231384 
L 584.265678 232.66476 
L 586.231851 213.607137 
L 587.214938 138.60657 
L 588.198025 173.963802 
L 589.181111 221.284849 
L 590.164198 227.844448 
L 591.147285 257.300526 
L 592.130371 226.92511 
L 593.113458 223.3223 
L 594.096545 170.770967 
L 595.079631 128.953523 
L 596.062718 200.699138 
L 597.045805 300.670906 
L 598.028891 298.29802 
L 599.011978 285.228516 
L 599.995065 325.766341 
L 600.978151 227.844448 
L 601.961238 256.219683 
L 602.944325 319.616717 
L 603.927411 302.049912 
L 604.910498 300.882105 
L 605.893585 290.086098 
L 606.876672 287.998953 
L 607.859758 211.780885 
L 608.842845 229.273149 
L 609.825932 291.303599 
L 610.809018 302.956827 
L 611.792105 300.273354 
L 612.775192 293.117428 
L 613.758278 288.073494 
L 614.741365 253.088966 
L 615.724452 254.840677 
L 616.707538 320.548478 
L 617.690625 326.611138 
L 618.673712 320.883912 
L 619.656798 295.440619 
L 620.639885 295.825747 
L 621.622972 265.487602 
L 622.606058 262.928364 
L 624.572232 319.716105 
L 626.538405 303.192873 
L 627.521492 309.156145 
L 628.504578 263.822855 
L 629.487665 306.832953 
L 630.470752 314.299466 
L 631.453839 318.908579 
L 632.436925 322.188378 
L 633.420012 315.765437 
L 634.403099 297.527764 
L 635.386185 275.886057 
L 636.369272 312.622296 
L 637.352359 308.696476 
L 638.335445 321.169653 
L 639.318532 321.989602 
L 641.284705 309.566119 
L 642.267792 284.830965 
L 643.250879 290.396685 
L 644.233965 303.068638 
L 645.217052 305.913615 
L 646.200139 320.846642 
L 647.183225 319.007967 
L 648.166312 324.884274 
L 649.149399 306.907494 
L 650.132485 312.324133 
L 651.115572 324.635804 
L 652.098659 331.655072 
L 653.081746 316.486 
L 654.064832 318.908579 
L 655.047919 327.132924 
L 656.031006 313.268317 
L 657.014092 319.703682 
L 657.997179 328.735554 
L 658.980266 321.852944 
L 659.963352 323.853125 
L 660.946439 324.486723 
L 661.929526 324.561263 
L 662.912612 314.473395 
L 663.895699 334.736096 
L 664.878786 329.418845 
L 665.861872 326.859608 
L 666.844959 295.726359 
L 667.828046 332.971961 
L 668.811132 329.033717 
L 669.794219 323.40588 
L 670.777306 328.9716 
L 671.760392 324.064324 
L 672.743479 331.953236 
L 673.726566 330.93451 
L 674.709652 333.046502 
L 675.692739 331.530837 
L 676.675826 329.667315 
L 677.658913 330.748158 
L 678.641999 331.021475 
L 679.625086 331.642649 
L 680.608173 330.189101 
L 681.591259 329.344304 
L 682.574346 331.50599 
L 683.557433 332.487446 
L 684.540519 334.264004 
L 685.523606 331.878695 
L 686.506693 333.282549 
L 687.489779 334.400662 
L 688.472866 332.487446 
L 689.455953 332.884997 
L 690.439039 333.593136 
L 691.422126 332.835303 
L 692.405213 334.673979 
L 693.388299 334.226733 
L 694.371386 333.916146 
L 695.354473 334.847907 
L 696.337559 333.332242 
L 697.320646 333.307396 
L 698.303733 336.17722 
L 699.28682 333.704947 
L 700.269906 332.313517 
L 701.252993 333.456477 
L 702.23608 330.996628 
L 703.219166 334.127345 
L 704.202253 333.43163 
L 705.18534 334.934872 
L 706.168426 335.879056 
L 707.151513 334.425509 
L 708.1346 332.28867 
L 709.117686 332.499869 
L 710.100773 331.332062 
L 711.08386 325.989964 
L 712.066946 337.506533 
L 713.050033 331.195403 
L 714.03312 329.170376 
L 715.016206 331.058745 
L 715.999293 332.561987 
L 716.98238 331.990506 
L 717.965466 334.077651 
L 718.948553 335.655434 
L 719.93164 334.139769 
L 720.914726 333.754641 
L 721.897813 334.313698 
L 722.8809 333.96584 
L 723.863987 333.282549 
L 724.847073 334.003111 
L 725.83016 335.729975 
L 726.813247 334.065228 
L 727.796333 334.487626 
L 728.77942 335.767245 
L 729.762507 334.773367 
L 730.745593 334.152192 
L 731.72868 335.655434 
L 732.711767 335.332423 
L 733.694853 335.705128 
L 734.67794 333.543442 
L 735.661027 334.574591 
L 737.6272 332.922268 
L 738.610287 332.313517 
L 739.593373 341.357812 
L 740.57646 341.357812 
L 741.559547 334.587014 
L 742.542633 333.444054 
L 743.52572 333.14589 
L 744.508807 333.841605 
L 745.491893 328.275885 
L 746.47498 333.829182 
L 747.458067 333.543442 
L 748.441154 332.549563 
L 749.42424 333.294972 
L 750.407327 333.493748 
L 751.390414 331.742037 
L 752.3735 328.288308 
L 754.339674 333.170737 
L 755.32276 332.599257 
L 756.305847 335.568469 
L 757.288934 336.052985 
L 758.27202 333.617983 
L 759.255107 335.64301 
L 760.238194 338.289212 
L 761.22128 331.853848 
L 762.204367 333.854029 
L 763.187454 333.232855 
L 764.17054 333.14589 
L 765.153627 329.555504 
L 766.136714 328.275885 
L 768.102887 331.804154 
L 769.085974 332.561987 
L 770.069061 329.617621 
L 771.052147 333.133467 
L 772.035234 332.884997 
L 774.001407 334.711249 
L 774.984494 331.419026 
L 775.967581 332.512293 
L 776.950667 332.648951 
L 777.933754 333.332242 
L 778.916841 329.741856 
L 779.899927 327.629864 
L 780.883014 329.207646 
L 781.866101 326.946572 
L 782.849187 327.182618 
L 783.832274 335.03426 
L 784.815361 330.946934 
L 785.798447 325.903 
L 786.781534 326.387515 
L 787.764621 333.940993 
L 788.747707 329.25734 
L 789.730794 327.716828 
L 790.713881 322.498965 
L 791.696967 333.046502 
L 792.680054 325.207285 
L 793.663141 329.269764 
L 794.646228 328.785248 
L 795.629314 333.083773 
L 796.612401 332.53714 
L 797.595488 331.394179 
L 798.578574 326.51175 
L 799.561661 332.524716 
L 800.544748 335.680281 
L 801.527834 337.022017 
L 802.510921 328.226191 
L 803.494008 329.133105 
L 804.477094 333.294972 
L 805.460181 322.933787 
L 806.443268 323.070446 
L 807.426354 334.052804 
L 808.409441 321.380852 
L 809.392528 330.201525 
L 810.375614 335.07153 
L 811.358701 326.052081 
L 812.341788 332.673798 
L 813.324874 330.996628 
L 814.307961 320.958453 
L 815.291048 294.744904 
L 816.274135 323.72889 
L 817.257221 329.282187 
L 818.240308 327.890757 
L 819.223395 299.527945 
L 820.206481 306.646601 
L 821.189568 285.476986 
L 822.172655 285.166399 
L 823.155741 330.350607 
L 824.138828 314.498242 
L 825.121915 314.324313 
L 826.105001 307.553515 
L 827.088088 322.660471 
L 828.071175 314.262196 
L 829.054261 272.904421 
L 830.037348 306.360861 
L 831.020435 319.616717 
L 832.003521 315.790284 
L 832.986608 329.530657 
L 833.969695 307.590786 
L 834.952781 300.000038 
L 835.935868 302.261111 
L 836.918955 322.387154 
L 837.902041 313.106812 
L 838.885128 301.851137 
L 839.868215 317.032633 
L 840.851302 301.627514 
L 841.834388 224.39072 
L 842.817475 257.809889 
L 843.800562 281.824482 
L 844.783648 323.69162 
L 845.766735 322.498965 
L 846.749822 308.53497 
L 847.732908 281.240578 
L 848.715995 276.320879 
L 849.699082 201.693016 
L 850.682168 186.859378 
L 851.665255 309.007063 
L 852.648342 332.052624 
L 853.631428 329.605198 
L 854.614515 319.765799 
L 855.597602 291.05513 
L 856.580688 288.607704 
L 857.563775 285.091858 
L 858.546862 296.136334 
L 859.529948 319.753376 
L 860.513035 316.150565 
L 861.496122 292.819264 
L 862.479209 290.061251 
L 863.462295 266.307552 
L 864.445382 280.793333 
L 865.428469 272.519293 
L 866.411555 269.22707 
L 867.394642 309.392191 
L 868.377729 267.028114 
L 869.360815 137.997819 
L 871.326989 308.82071 
L 872.310075 287.601402 
L 873.293162 249.896131 
L 874.276249 275.28973 
L 875.259335 281.240578 
L 876.242422 151.613956 
L 877.225509 134.705596 
L 878.208595 267.910181 
L 879.191682 275.401541 
L 880.174769 308.646782 
L 881.157855 297.229601 
L 883.124029 184.337411 
L 884.107115 161.117921 
L 885.090202 246.926918 
L 886.073289 272.134165 
L 887.056376 241.274233 
L 888.039462 287.924412 
L 889.022549 279.389479 
L 890.005636 133.463248 
L 890.988722 114.728635 
L 891.971809 229.869476 
L 892.954896 110.218911 
L 893.937982 239.112547 
L 894.921069 218.887117 
L 895.904156 189.50558 
L 896.887242 113.063889 
L 897.870329 168.882598 
L 898.853416 255.772438 
L 899.836502 233.087158 
L 900.819589 259.300707 
L 901.802676 220.2537 
L 902.785762 208.612897 
L 903.768849 38.957812 
L 904.751936 179.641334 
L 905.735022 244.305563 
L 906.718109 233.658638 
L 907.701196 235.497314 
L 908.684283 217.669616 
L 909.667369 186.561214 
L 910.650456 91.074324 
L 911.633543 136.96667 
L 912.616629 210.712465 
L 913.599716 214.501627 
L 914.582803 198.649263 
L 915.565889 215.58247 
L 916.548976 225.893961 
L 917.532063 137.761773 
L 918.515149 149.824975 
L 919.498236 224.415567 
L 920.481323 237.485071 
L 921.464409 229.91917 
L 922.447496 217.980203 
L 923.430583 181.057611 
L 924.413669 101.758519 
L 925.396756 78.476912 
L 926.379843 114.828023 
L 927.362929 219.483444 
L 928.346016 217.893238 
L 929.329103 204.475877 
L 930.312189 198.487758 
L 931.295276 105.212247 
L 932.278363 145.787343 
L 933.26145 222.440233 
L 934.244536 259.623718 
L 935.227623 240.752447 
L 936.21071 196.7112 
L 937.193796 191.232444 
L 938.176883 105.758881 
L 939.15997 179.156818 
L 940.143056 201.730287 
L 941.126143 290.794237 
L 942.10923 270.407301 
L 943.092316 190.772775 
L 944.075403 176.796357 
L 945.05849 143.501422 
L 946.041576 154.297429 
L 947.024663 245.11309 
L 948.00775 246.094545 
L 948.990836 192.027547 
L 949.973923 315.156687 
L 950.95701 214.899179 
L 951.940096 141.786981 
L 952.923183 104.938931 
L 953.90627 97.882392 
L 954.889357 289.191607 
L 955.872443 277.78685 
L 956.85553 320.610596 
L 957.838617 297.937739 
L 958.821703 233.211393 
L 959.80479 239.348593 
L 960.787877 302.025065 
L 961.770963 300.670906 
L 962.75405 292.844111 
L 963.737137 289.688547 
L 964.720223 280.122465 
L 965.70331 249.262533 
L 966.686397 226.664217 
L 967.669483 295.577278 
L 968.65257 284.582495 
L 969.635657 294.347353 
L 970.618743 281.402083 
L 971.60183 292.111126 
L 972.584917 220.21643 
L 973.568003 239.895227 
L 974.55109 324.076748 
L 975.534177 309.205838 
L 976.517263 267.649288 
L 977.50035 318.48618 
L 979.466524 245.373983 
L 980.44961 237.497495 
L 981.432697 290.533343 
L 982.415784 289.278572 
L 983.39887 310.883009 
L 984.381957 307.864102 
L 985.365044 294.223118 
L 986.34813 247.386587 
L 987.331217 245.945463 
L 989.29739 329.083411 
L 990.280477 315.144263 
L 991.263564 314.957911 
L 994.212824 276.942053 
L 995.19591 286.694487 
L 997.162084 315.430003 
L 998.14517 311.889311 
L 999.128257 323.803431 
L 1000.111344 287.24112 
L 1001.09443 326.934149 
L 1002.077517 315.554238 
L 1003.060604 322.610777 
L 1004.043691 322.772282 
L 1005.026777 323.641926 
L 1006.992951 310.473034 
L 1007.976037 306.770836 
L 1008.959124 320.113657 
L 1009.942211 325.256979 
L 1010.925297 319.790646 
L 1011.908384 333.891299 
L 1012.891471 324.909121 
L 1014.857644 316.473576 
L 1015.840731 330.847546 
L 1016.823817 321.505087 
L 1017.806904 332.313517 
L 1018.789991 324.909121 
L 1019.773077 331.841425 
L 1020.756164 312.932883 
L 1021.739251 336.699006 
L 1022.722337 330.723311 
L 1023.705424 332.263823 
L 1024.688511 331.207827 
L 1025.671598 328.524355 
L 1026.654684 328.884636 
L 1027.637771 333.39436 
L 1028.620858 329.331881 
L 1029.603944 330.437571 
L 1030.587031 333.307396 
L 1031.570118 328.089533 
L 1032.553204 331.207827 
L 1033.536291 328.921906 
L 1034.519378 325.542719 
L 1035.502464 330.201525 
L 1036.485551 327.803793 
L 1037.468638 334.574591 
L 1038.451724 330.561806 
L 1039.434811 333.170737 
L 1040.417898 331.033898 
L 1041.400984 330.201525 
L 1042.384071 336.475384 
L 1043.367158 332.785609 
L 1044.350244 335.059107 
L 1045.333331 334.82306 
L 1046.316418 329.79155 
L 1047.299504 332.499869 
L 1048.282591 332.114741 
L 1049.265678 335.419388 
L 1050.248765 335.531199 
L 1051.231851 341.072072 
L 1052.214938 337.717732 
L 1053.198025 333.866452 
L 1054.181111 334.239157 
L 1055.164198 333.39436 
L 1056.147285 335.195765 
L 1057.130371 335.92875 
L 1058.113458 334.065228 
L 1059.096545 333.183161 
L 1060.079631 331.630225 
L 1061.062718 334.139769 
L 1062.045805 333.96584 
L 1063.028891 333.195584 
L 1064.011978 331.978083 
L 1064.995065 334.897601 
L 1065.978151 330.32576 
L 1066.961238 329.021294 
L 1067.944325 338.214671 
L 1068.927411 332.114741 
L 1069.910498 336.438113 
L 1070.893585 335.64301 
L 1071.876672 331.170556 
L 1072.859758 333.667677 
L 1073.842845 333.531018 
L 1074.825932 331.158133 
L 1075.809018 333.96584 
L 1076.792105 333.92857 
L 1078.758278 334.649132 
L 1079.741365 333.506171 
L 1080.724452 330.984204 
L 1081.707538 333.332242 
L 1082.690625 334.301274 
L 1083.673712 334.326121 
L 1084.656798 333.779488 
L 1085.639885 333.531018 
L 1086.622972 333.804335 
L 1087.606058 338.823422 
L 1088.589145 335.916327 
L 1090.555318 333.854029 
L 1091.538405 333.704947 
L 1092.521492 335.32 
L 1093.504578 334.413085 
L 1094.487665 333.891299 
L 1095.470752 335.518775 
L 1096.453839 335.158494 
L 1097.436925 339.53156 
L 1098.420012 337.382298 
L 1099.403099 334.959719 
L 1100.386185 333.655253 
L 1101.369272 334.723673 
L 1102.352359 331.43145 
L 1103.335445 329.393998 
L 1104.318532 330.93451 
L 1105.301619 333.021655 
L 1106.284705 332.276246 
L 1107.267792 330.6115 
L 1108.250879 333.43163 
L 1109.233965 332.152012 
L 1110.217052 329.431269 
L 1111.200139 322.014449 
L 1112.183225 332.226552 
L 1113.166312 329.22007 
L 1114.149399 331.704766 
L 1115.132485 332.027777 
L 1116.115572 328.549202 
L 1117.098659 315.020029 
L 1118.081746 315.392733 
L 1119.064832 319.84034 
L 1120.047919 325.306672 
L 1121.031006 339.047045 
L 1122.014092 337.767426 
L 1122.997179 338.003472 
L 1123.980266 329.331881 
L 1124.963352 340.115464 
L 1124.963352 340.115464 
" clip-path="url(#p157a43eb61)" style="fill: none; stroke: #008080; stroke-width: 1.5; stroke-linecap: square"/>
   </g>
   <g id="patch_3">
    <path d="M 59.690625 356.477812 
L 59.690625 23.837812 
" style="fill: none; stroke: #000000; stroke-width: 0.8; stroke-linejoin: miter; stroke-linecap: square"/>
   </g>
   <g id="patch_4">
    <path d="M 1175.690625 356.477812 
L 1175.690625 23.837812 
" style="fill: none; stroke: #000000; stroke-width: 0.8; stroke-linejoin: miter; stroke-linecap: square"/>
   </g>
   <g id="patch_5">
    <path d="M 59.690625 356.477812 
L 1175.690625 356.477812 
" style="fill: none; stroke: #000000; stroke-width: 0.8; stroke-linejoin: miter; stroke-linecap: square"/>
   </g>
   <g id="patch_6">
    <path d="M 59.690625 23.837812 
L 1175.690625 23.837812 
" style="fill: none; stroke: #000000; stroke-width: 0.8; stroke-linejoin: miter; stroke-linecap: square"/>
   </g>
   <g id="text_18">
    <!-- Toronto Island Ferry Ticket Redemptions -->
    <g transform="translate(477.780313 17.837812) scale(0.14 -0.14)">
     <defs>
      <path id="DejaVuSans-72" d="M 2631 2963 
Q 2534 3019 2420 3045 
Q 2306 3072 2169 3072 
Q 1681 3072 1420 2755 
Q 1159 2438 1159 1844 
L 1159 0 
L 581 0 
L 581 3500 
L 1159 3500 
L 1159 2956 
Q 1341 3275 1631 3429 
Q 1922 3584 2338 3584 
Q 2397 3584 2469 3576 
Q 2541 3569 2628 3553 
L 2631 2963 
z
" transform="scale(0.015625)"/>
      <path id="DejaVuSans-49" d="M 628 4666 
L 1259 4666 
L 1259 0 
L 628 0 
L 628 4666 
z
" transform="scale(0.015625)"/>
      <path id="DejaVuSans-6c" d="M 603 4863 
L 1178 4863 
L 1178 0 
L 603 0 
L 603 4863 
z
" transform="scale(0.015625)"/>
      <path id="DejaVuSans-46" d="M 628 4666 
L 3309 4666 
L 3309 4134 
L 1259 4134 
L 1259 2759 
L 3109 2759 
L 3109 2228 
L 1259 2228 
L 1259 0 
L 628 0 
L 628 4666 
z
" transform="scale(0.015625)"/>
      <path id="DejaVuSans-79" d="M 2059 -325 
Q 1816 -950 1584 -1140 
Q 1353 -1331 966 -1331 
L 506 -1331 
L 506 -850 
L 844 -850 
Q 1081 -850 1212 -737 
Q 1344 -625 1503 -206 
L 1606 56 
L 191 3500 
L 800 3500 
L 1894 763 
L 2988 3500 
L 3597 3500 
L 2059 -325 
z
" transform="scale(0.015625)"/>
     </defs>
     <use xlink:href="#DejaVuSans-54"/>
     <use xlink:href="#DejaVuSans-6f" x="44.083984"/>
     <use xlink:href="#DejaVuSans-72" x="105.265625"/>
     <use xlink:href="#DejaVuSans-6f" x="144.128906"/>
     <use xlink:href="#DejaVuSans-6e" x="205.310547"/>
     <use xlink:href="#DejaVuSans-74" x="268.689453"/>
     <use xlink:href="#DejaVuSans-6f" x="307.898438"/>
     <use xlink:href="#DejaVuSans-20" x="369.080078"/>
     <use xlink:href="#DejaVuSans-49" x="400.867188"/>
     <use xlink:href="#DejaVuSans-73" x="430.359375"/>
     <use xlink:href="#DejaVuSans-6c" x="482.458984"/>
     <use xlink:href="#DejaVuSans-61" x="510.242188"/>
     <use xlink:href="#DejaVuSans-6e" x="571.521484"/>
     <use xlink:href="#DejaVuSans-64" x="634.900391"/>
     <use xlink:href="#DejaVuSans-20" x="698.376953"/>
     <use xlink:href="#DejaVuSans-46" x="730.164062"/>
     <use xlink:href="#DejaVuSans-65" x="782.183594"/>
     <use xlink:href="#DejaVuSans-72" x="843.707031"/>
     <use xlink:href="#DejaVuSans-72" x="883.070312"/>
     <use xlink:href="#DejaVuSans-79" x="924.183594"/>
     <use xlink:href="#DejaVuSans-20" x="983.363281"/>
     <use xlink:href="#DejaVuSans-54" x="1015.150391"/>
     <use xlink:href="#DejaVuSans-69" x="1073.109375"/>
     <use xlink:href="#DejaVuSans-63" x="1100.892578"/>
     <use xlink:href="#DejaVuSans-6b" x="1155.873047"/>
     <use xlink:href="#DejaVuSans-65" x="1210.158203"/>
     <use xlink:href="#DejaVuSans-74" x="1271.681641"/>
     <use xlink:href="#DejaVuSans-20" x="1310.890625"/>
     <use xlink:href="#DejaVuSans-52" x="1342.677734"/>
     <use xlink:href="#DejaVuSans-65" x="1407.660156"/>
     <use xlink:href="#DejaVuSans-64" x="1469.183594"/>
     <use xlink:href="#DejaVuSans-65" x="1532.660156"/>
     <use xlink:href="#DejaVuSans-6d" x="1594.183594"/>
     <use xlink:href="#DejaVuSans-70" x="1691.595703"/>
     <use xlink:href="#DejaVuSans-74" x="1755.072266"/>
     <use xlink:href="#DejaVuSans-69" x="1794.28125"/>
     <use xlink:href="#DejaVuSans-6f" x="1822.064453"/>
     <use xlink:href="#DejaVuSans-6e" x="1883.246094"/>
     <use xlink:href="#DejaVuSans-73" x="1946.625"/>
    </g>
   </g>
  </g>
  <g id="text_19">
   <!-- (Data from 2023-04-27 19:30:00 to 2026-02-22 18:30:00) -->
   <g style="fill: #808080" transform="translate(454.635938 399.677812) scale(0.1 -0.1)">
    <defs>
     <path id="DejaVuSans-28" d="M 1984 4856 
Q 1566 4138 1362 3434 
Q 1159 2731 1159 2009 
Q 1159 1288 1364 580 
Q 1569 -128 1984 -844 
L 1484 -844 
Q 1016 -109 783 600 
Q 550 1309 550 2009 
Q 550 2706 781 3412 
Q 1013 4119 1484 4856 
L 1984 4856 
z
" transform="scale(0.015625)"/>
     <path id="DejaVuSans-66" d="M 2375 4863 
L 2375 4384 
L 1825 4384 
Q 1516 4384 1395 4259 
Q 1275 4134 1275 3809 
L 1275 3500 
L 2222 3500 
L 2222 3053 
L 1275 3053 
L 1275 0 
L 697 0 
L 697 3053 
L 147 3053 
L 147 3500 
L 697 3500 
L 697 3744 
Q 697 4328 969 4595 
Q 1241 4863 1831 4863 
L 2375 4863 
z
" transform="scale(0.015625)"/>
     <path id="DejaVuSans-37" d="M 525 4666 
L 3525 4666 
L 3525 4397 
L 1831 0 
L 1172 0 
L 2766 4134 
L 525 4134 
L 525 4666 
z
" transform="scale(0.015625)"/>
     <path id="DejaVuSans-3a" d="M 750 794 
L 1409 794 
L 1409 0 
L 750 0 
L 750 794 
z
M 750 3309 
L 1409 3309 
L 1409 2516 
L 750 2516 
L 750 3309 
z
" transform="scale(0.015625)"/>
     <path id="DejaVuSans-38" d="M 2034 2216 
Q 1584 2216 1326 1975 
Q 1069 1734 1069 1313 
Q 1069 891 1326 650 
Q 1584 409 2034 409 
Q 2484 409 2743 651 
Q 3003 894 3003 1313 
Q 3003 1734 2745 1975 
Q 2488 2216 2034 2216 
z
M 1403 2484 
Q 997 2584 770 2862 
Q 544 3141 544 3541 
Q 544 4100 942 4425 
Q 1341 4750 2034 4750 
Q 2731 4750 3128 4425 
Q 3525 4100 3525 3541 
Q 3525 3141 3298 2862 
Q 3072 2584 2669 2484 
Q 3125 2378 3379 2068 
Q 3634 1759 3634 1313 
Q 3634 634 3220 271 
Q 2806 -91 2034 -91 
Q 1263 -91 848 271 
Q 434 634 434 1313 
Q 434 1759 690 2068 
Q 947 2378 1403 2484 
z
M 1172 3481 
Q 1172 3119 1398 2916 
Q 1625 2713 2034 2713 
Q 2441 2713 2670 2916 
Q 2900 3119 2900 3481 
Q 2900 3844 2670 4047 
Q 2441 4250 2034 4250 
Q 1625 4250 1398 4047 
Q 1172 3844 1172 3481 
z
" transform="scale(0.015625)"/>
     <path id="DejaVuSans-29" d="M 513 4856 
L 1013 4856 
Q 1481 4119 1714 3412 
Q 1947 2706 1947 2009 
Q 1947 1309 1714 600 
Q 1481 -109 1013 -844 
L 513 -844 
Q 928 -128 1133 580 
Q 1338 1288 1338 2009 
Q 1338 2731 1133 3434 
Q 928 4138 513 4856 
z
" transform="scale(0.015625)"/>
    </defs>
    <use xlink:href="#DejaVuSans-28"/>
    <use xlink:href="#DejaVuSans-44" x="39.013672"/>
    <use xlink:href="#DejaVuSans-61" x="116.015625"/>
    <use xlink:href="#DejaVuSans-74" x="177.294922"/>
    <use xlink:href="#DejaVuSans-61" x="216.503906"/>
    <use xlink:href="#DejaVuSans-20" x="277.783203"/>
    <use xlink:href="#DejaVuSans-66" x="309.570312"/>
    <use xlink:href="#DejaVuSans-72" x="344.775391"/>
    <use xlink:href="#DejaVuSans-6f" x="383.638672"/>
    <use xlink:href="#DejaVuSans-6d" x="444.820312"/>
    <use xlink:href="#DejaVuSans-20" x="542.232422"/>
    <use xlink:href="#DejaVuSans-32" x="574.019531"/>
    <use xlink:href="#DejaVuSans-30" x="637.642578"/>
    <use xlink:href="#DejaVuSans-32" x="701.265625"/>
    <use xlink:href="#DejaVuSans-33" x="764.888672"/>
    <use xlink:href="#DejaVuSans-2d" x="828.511719"/>
    <use xlink:href="#DejaVuSans-30" x="864.595703"/>
    <use xlink:href="#DejaVuSans-34" x="928.21875"/>
    <use xlink:href="#DejaVuSans-2d" x="991.841797"/>
    <use xlink:href="#DejaVuSans-32" x="1027.925781"/>
    <use xlink:href="#DejaVuSans-37" x="1091.548828"/>
    <use xlink:href="#DejaVuSans-20" x="1155.171875"/>
    <use xlink:href="#DejaVuSans-31" x="1186.958984"/>
    <use xlink:href="#DejaVuSans-39" x="1250.582031"/>
    <use xlink:href="#DejaVuSans-3a" x="1314.205078"/>
    <use xlink:href="#DejaVuSans-33" x="1347.896484"/>
    <use xlink:href="#DejaVuSans-30" x="1411.519531"/>
    <use xlink:href="#DejaVuSans-3a" x="1475.142578"/>
    <use xlink:href="#DejaVuSans-30" x="1508.833984"/>
    <use xlink:href="#DejaVuSans-30" x="1572.457031"/>
    <use xlink:href="#DejaVuSans-20" x="1636.080078"/>
    <use xlink:href="#DejaVuSans-74" x="1667.867188"/>
    <use xlink:href="#DejaVuSans-6f" x="1707.076172"/>
    <use xlink:href="#DejaVuSans-20" x="1768.257812"/>
    <use xlink:href="#DejaVuSans-32" x="1800.044922"/>
    <use xlink:href="#DejaVuSans-30" x="1863.667969"/>
    <use xlink:href="#DejaVuSans-32" x="1927.291016"/>
    <use xlink:href="#DejaVuSans-36" x="1990.914062"/>
    <use xlink:href="#DejaVuSans-2d" x="2054.537109"/>
    <use xlink:href="#DejaVuSans-30" x="2090.621094"/>
    <use xlink:href="#DejaVuSans-32" x="2154.244141"/>
    <use xlink:href="#DejaVuSans-2d" x="2217.867188"/>
    <use xlink:href="#DejaVuSans-32" x="2253.951172"/>
    <use xlink:href="#DejaVuSans-32" x="2317.574219"/>
    <use xlink:href="#DejaVuSans-20" x="2381.197266"/>
    <use xlink:href="#DejaVuSans-31" x="2412.984375"/>
    <use xlink:href="#DejaVuSans-38" x="2476.607422"/>
    <use xlink:href="#DejaVuSans-3a" x="2540.230469"/>
    <use xlink:href="#DejaVuSans-33" x="2573.921875"/>
    <use xlink:href="#DejaVuSans-30" x="2637.544922"/>
    <use xlink:href="#DejaVuSans-3a" x="2701.167969"/>
    <use xlink:href="#DejaVuSans-30" x="2734.859375"/>
    <use xlink:href="#DejaVuSans-30" x="2798.482422"/>
    <use xlink:href="#DejaVuSans-29" x="2862.105469"/>
   </g>
  </g>
 </g>
 <defs>
  <clipPath id="p157a43eb61">
   <rect x="59.690625" y="23.837812" width="1116" height="332.64"/>
  </clipPath>
 </defs>
</svg>
